<!--
  - Copyright (c) 2024. Devtron Inc.
  -
  - Licensed under the Apache License, Version 2.0 (the "License");
  - you may not use this file except in compliance with the License.
  - You may obtain a copy of the License at
  -
  -     http://www.apache.org/licenses/LICENSE-2.0
  -
  - Unless required by applicable law or agreed to in writing, software
  - distributed under the License is distributed on an "AS IS" BASIS,
  - WITHOUT WARRANTIES OR CONDITIONS OF ANY KIND, either express or implied.
  - See the License for the specific language governing permissions and
  - limitations under the License.
  -->

<svg width="24px" height="24px" viewBox="0 0 24 24" version="1.1" xmlns="http://www.w3.org/2000/svg" xmlns:xlink="http://www.w3.org/1999/xlink">
    <!-- Generator: Sketch 57.1 (83088) - https://sketch.com -->
    <title>ic-mail</title>
    <desc>Created with Sketch.</desc>
    <g id="Assets" stroke="none" stroke-width="1" fill="none" fill-rule="evenodd">
        <g id="Tool-Icons" transform="translate(-237.000000, -112.000000)">
            <g id="ic-mail" transform="translate(237.000000, 112.000000)">
                <rect x="0" y="0" width="24" height="24"></rect>
                <path d="M19.3211755,4.8 L4.67887479,4.8 C3.42231306,4.8 2.4,5.78176422 2.4,6.98848154 L2.4,17.1943776 C2.4,18.401095 3.42231306,19.3828592 4.67887479,19.3828592 L19.3211755,19.3828592 C20.5777372,19.3828592 21.6,18.401095 21.6,17.1943776 L21.6,6.98848154 C21.6,5.78176422 20.5777372,4.8 19.3211755,4.8 Z M19.3211755,17.450785 L4.67887479,17.450785 C4.49416906,17.450785 4.3321747,17.3309976 4.3321747,17.1943776 L4.3321747,8.33804934 L10.9544982,13.9289652 C11.090264,14.0436275 11.2629106,14.1067369 11.4406823,14.1067369 L12.5591167,14.1067872 C12.7367879,14.1067872 12.909535,14.0436275 13.045351,13.9289652 L19.667976,8.33784836 L19.667976,17.1944781 C19.667976,17.3309976 19.5058309,17.450785 19.3211755,17.450785 Z M12.0000251,12.1883298 L5.55899057,6.73207421 L18.4410597,6.73207421 L12.0000251,12.1883298 Z" id="Shape" fill="#0066CC" fill-rule="nonzero"></path>
            </g>
        </g>
    </g>
</svg>