<!--
  - Copyright (c) 2024. Devtron Inc.
  -
  - Licensed under the Apache License, Version 2.0 (the "License");
  - you may not use this file except in compliance with the License.
  - You may obtain a copy of the License at
  -
  -     http://www.apache.org/licenses/LICENSE-2.0
  -
  - Unless required by applicable law or agreed to in writing, software
  - distributed under the License is distributed on an "AS IS" BASIS,
  - WITHOUT WARRANTIES OR CONDITIONS OF ANY KIND, either express or implied.
  - See the License for the specific language governing permissions and
  - limitations under the License.
  -->

<svg data-style-override="false" width="250" height="200" viewBox="0 0 250 200" fill="none" xmlns="http://www.w3.org/2000/svg">
<style>
.message-small {
  animation: appear-small 0.5s ease-out;
  transform-origin: center;
  transform-box: fill-box;
  }

  @keyframes appear-small {
      0% {
        transform: translateX(-20px);
        opacity: 0;
      }
      50% {
        transform: translateX(-20px);
        opacity: 0;
      }
      80% {
        transform: translateX(5px);
        opacity: 1;
      }
      100% {
        transform: translateX(0px);
        opacity: 1;
      }
    }
  
.message-big {
  animation: appear-big 0.25s ease-out;
  transform-origin: center;
  transform-box: fill-box;
  }

  @keyframes appear-big {
      0% {
        transform: translateX(20px);
        opacity: 0;
      }
      80% {
        transform: translateX(-5px);
        opacity: 1;
      }
      100% {
        transform: translateX(0px);
        opacity: 1;
      }
    }
</style>
<path fill-rule="evenodd" clip-rule="evenodd" d="M10 93.3552H181.587V95.7891H12.4339V198.011H10V93.3552Z" fill="url(#paint0_linear_2664_5043)"/>
<rect x="67.1963" y="89.7046" width="46.2432" height="3.65078" fill="#CCD2D9"/>
<rect x="113.439" y="89.7046" width="41.3755" height="3.65078" fill="#DDE2E6"/>
<g class="message-small">
<path d="M66.7085 16.6885H94.4274L103.487 34.9424H75.7678L66.7085 16.6885Z" fill="#444ED1"/>
<path d="M81.66 21.5208L80.9908 22.5711L85.2776 25.3022L83.6047 27.9281L84.9237 28.7685L86.5966 26.1425L90.8835 28.8735L91.5527 27.8231L87.2658 25.0921L88.9388 22.4661L87.6197 21.6258L85.9468 24.2518L81.66 21.5208Z" fill="white"/>
</g>
<g class="message-big">
<path d="M16.084 23.9902H53.0425L65.1217 48.3288H28.1631L16.084 23.9902Z" fill="#343B9E"/>
<path d="M34.8026 30.4331L33.9104 31.8336L39.6262 35.475L37.3956 38.9763L39.1543 40.0967L41.3849 36.5954L47.1007 40.2368L47.9929 38.8362L42.2771 35.1949L44.5077 31.6936L42.749 30.5732L40.5184 34.0745L34.8026 30.4331Z" fill="white"/>
</g>
<path d="M49.6719 54.4136H104.434L121.957 89.7045H67.1956L49.6719 54.4136Z" fill="url(#paint1_linear_2664_5043)"/>
<path d="M53.3223 56.8467H103.216L119.523 89.7037H69.6291L53.3223 56.8467Z" fill="url(#paint2_linear_2664_5043)"/>
<path d="M80.2346 65.5449L79.0301 67.4356L86.7464 72.3515L83.7351 77.0782L86.1094 78.5908L89.1206 73.864L96.837 78.7799L98.0415 76.8892L90.3252 71.9733L93.3364 67.2466L90.9622 65.734L87.9509 70.4608L80.2346 65.5449Z" fill="white"/>
<path d="M194.973 64.1487H240L219.312 129.863H174.286L194.973 64.1487Z" fill="url(#paint3_radial_2664_5043)"/>
<rect x="152.381" y="123.778" width="66.931" height="6.08464" fill="url(#paint4_linear_2664_5043)"/>
<path d="M216.879 129.863H219.313L225.398 199.228H222.964L216.879 129.863Z" fill="url(#paint5_linear_2664_5043)"/>
<path d="M189.444 52.7293C189.238 48.8636 187.806 45.1702 187.063 44.0687C188.714 42.9552 191.331 41.2627 194.365 40.4181C194.927 42.4402 196.406 46.4313 198.812 48.8118C198.275 51.576 196.996 53.2402 194.973 53.8042C192.951 54.3669 191.109 54.0088 189.444 52.7293Z" fill="#F3A29D"/>
<path d="M145.079 83.6194C147.513 84.2279 151.164 83.6194 154.814 83.011L156.64 92.1379C154.003 90.1097 151.042 88.4871 148.121 88.4871C144.372 88.4871 140.617 88.9944 137.169 87.2702C134.735 86.0533 132.247 84.6706 130.476 84.2279C128.042 83.6194 126.857 84.0837 125 83.6194C128.245 80.7799 129.259 78.7517 131.084 78.7517C132.91 78.7517 136.56 80.5771 137.777 81.1856C140.211 82.4025 142.645 83.011 145.079 83.6194Z" fill="#FAB2AC"/>
<path d="M120.741 181.582H134.127C135.952 180.162 139.968 176.958 141.428 173.064C143.862 166.573 143.254 163.937 143.254 162.111C143.254 162.111 146.834 153.551 147.513 148.117C148.122 143.249 146.296 135.947 146.296 133.514C146.296 131.08 146.905 129.254 147.513 128.037C148.122 126.82 148.73 126.212 150.555 125.603C152.381 124.995 170.635 122.561 181.587 121.344C192.539 120.127 196.799 118.91 201.058 114.651C204.465 111.244 202.883 101.062 201.666 96.3972C192.742 97.6141 170.513 100.656 152.989 103.09C131.085 106.133 129.868 106.741 126.825 111.609C123.783 116.477 123.783 138.99 123.175 145.683C122.688 151.037 121.349 171.847 120.741 181.582Z" fill="url(#paint6_linear_2664_5043)"/>
<path d="M202.883 116.477C207.264 110.635 204.912 98.2226 203.492 93.9634C186.252 96.6001 150.312 104.916 142.037 107.35C131.693 110.392 129.868 114.043 129.259 116.477C128.651 118.91 128.651 121.344 129.868 124.995C131.084 128.646 138.386 145.683 141.428 151.767C143.862 156.635 152.178 173.672 156.031 181.582H170.635C171.852 178.54 173.799 170.752 171.852 163.937C169.418 155.418 164.55 154.81 163.941 151.767C163.333 148.725 165.158 145.683 163.333 140.815C161.508 135.947 157.857 132.297 157.857 130.471C157.857 128.646 159.682 127.429 162.116 126.82C164.55 126.212 172.46 125.603 179.153 124.995C185.846 124.387 197.407 123.778 202.883 116.477Z" fill="url(#paint7_linear_2664_5043)"/>
<path d="M139.603 85.4452C142.037 86.0536 146.296 85.8508 149.947 86.0536L152.381 95.7891C149.744 93.7608 143.74 89.7044 140.82 89.7044C137.169 89.7044 136.561 90.9213 134.127 90.9213C133.518 90.9213 132.301 90.9213 129.867 89.7044C127.434 88.4875 125 85.4452 123.174 85.4452C121.349 85.4452 119.524 87.879 117.698 88.4875C116.238 88.9743 114.25 88.6903 113.439 88.4875C116.684 85.648 121.957 79.969 123.783 79.969C125.608 79.969 129.259 81.7944 130.476 82.4028C132.91 83.6198 137.169 84.8367 139.603 85.4452Z" fill="#FFBEB6"/>
<path d="M157.856 99.4396L153.597 82.4026C157.248 82.6054 166.497 81.7941 174.285 76.9264C184.02 70.8418 184.02 61.7148 188.888 55.6302C192.782 50.7625 197.001 48.7343 198.623 48.3286C201.057 50.3568 206.534 55.6302 208.967 60.4979C212.01 66.5825 212.618 70.2333 215.052 76.3179C217.486 82.4026 222.354 87.2703 222.962 94.5719C223.449 100.413 220.325 105.119 218.703 106.741C218.5 107.35 215.66 108.445 205.925 107.958C193.756 107.35 187.671 100.657 176.719 99.4396C167.957 98.466 160.493 99.0339 157.856 99.4396Z" fill="url(#paint8_linear_2664_5043)"/>
<path d="M154.206 106.132L149.947 86.0531C156.64 86.0531 166.811 86.7477 174.285 83.0108C178.545 80.8811 180.37 76.3177 181.587 72.0584C182.644 68.3582 184.021 58.6722 189.497 52.5876C193.878 47.7199 198.624 46.5029 200.449 46.5029C201.666 52.9932 204.1 68.651 204.1 79.36C204.1 92.7462 202.883 98.8308 200.449 101.265C198.015 103.699 194.973 106.132 188.28 106.132C181.587 106.132 179.762 103.699 174.894 103.699C170.026 103.699 168.809 106.741 162.725 107.349C157.857 107.836 155.017 106.741 154.206 106.132Z" fill="url(#paint9_linear_2664_5043)"/>
<path d="M180.653 25.1922C179.153 27.0323 178.242 29.5681 178.119 32.2696C178.081 33.117 178.423 33.3973 178.225 34.8061C178.035 36.1558 177.716 37.8142 177.265 39.7797L180.03 40.3661C182.299 43.6491 184.953 45.3345 187.989 45.4257C191.024 45.5143 193.339 44.5272 194.931 42.4603C198.239 37.9815 198.145 33.7642 194.65 29.8101C191.156 25.8559 186.49 24.3166 180.653 25.1922Z" fill="#FAB6AF"/>
<path fill-rule="evenodd" clip-rule="evenodd" d="M177.664 33.8618C177.664 33.8617 177.663 33.8616 177.936 33.7255C178.208 33.5895 178.208 33.5894 178.208 33.5893L178.208 33.5891L178.207 33.5888C178.207 33.5887 178.207 33.5886 178.207 33.5886L178.208 33.5895L178.211 33.596C178.215 33.6025 178.22 33.6129 178.228 33.6269C178.244 33.6548 178.269 33.6963 178.303 33.7469C178.371 33.8486 178.472 33.9841 178.607 34.1189C178.878 34.3899 179.262 34.6382 179.761 34.6382C180.26 34.6382 180.644 34.3899 180.915 34.1189C181.05 33.9841 181.151 33.8486 181.219 33.7469C181.253 33.6963 181.278 33.6548 181.294 33.6269C181.302 33.6129 181.307 33.6025 181.311 33.596L181.314 33.5895L181.314 33.5893C181.314 33.5894 181.314 33.5895 181.586 33.7255C181.858 33.8616 181.858 33.8617 181.858 33.8618L181.858 33.8621L181.858 33.8627L181.857 33.8642L181.855 33.8685L181.848 33.8824C181.842 33.8937 181.833 33.9094 181.822 33.9287C181.8 33.9674 181.768 34.0209 181.725 34.0844C181.641 34.2109 181.515 34.3796 181.345 34.5491C181.008 34.8865 180.479 35.2467 179.761 35.2467C179.043 35.2467 178.514 34.8865 178.177 34.5491C178.007 34.3796 177.881 34.2109 177.797 34.0844C177.754 34.0209 177.722 33.9674 177.7 33.9287C177.689 33.9094 177.68 33.8937 177.674 33.8824L177.667 33.8685L177.665 33.8642L177.664 33.8627L177.664 33.8621L177.664 33.8618Z" fill="#22276D"/>
<path d="M179.153 24.5985C180.37 22.7731 181.587 21.5562 184.629 20.3393C187.671 19.1224 198.015 17.9054 203.492 23.3815C204.72 24.8266 205.362 26.3399 205.829 27.9349C205.89 28.0715 205.952 28.2121 206.014 28.3562C206.218 28.8255 206.436 29.3449 206.664 29.889C206.859 30.3543 207.062 30.8385 207.27 31.3239C208.184 33.4567 209.235 35.7016 210.422 37.1862C211.495 38.5269 213.296 40.1152 215.092 41.6985C215.299 41.8806 215.505 42.0627 215.71 42.2443C216.699 43.1188 217.657 43.9806 218.444 44.7778C219.226 45.5693 219.865 46.3208 220.192 46.9756C220.706 48.0033 220.913 49.2684 220.969 50.4128C221.026 51.561 220.934 52.6172 220.829 53.2463L220.228 53.1463C220.326 52.5585 220.416 51.5459 220.362 50.4429C220.307 49.336 220.108 48.1672 219.648 47.2477C219.367 46.6856 218.789 45.9921 218.011 45.2054C217.24 44.4244 216.296 43.5748 215.307 42.7C215.102 42.5184 214.894 42.3355 214.686 42.1519L214.685 42.151C212.901 40.5782 211.055 38.9517 209.947 37.5663C208.725 36.039 207.664 33.7803 206.764 31.6884C207.126 33.1135 207.58 34.6012 208.359 36.1592C210.17 39.7807 213.273 42.3371 215.536 44.2011C216.315 44.8425 216.994 45.402 217.486 45.8946C219.312 47.72 219.92 50.7623 219.921 53.1963L199.841 58.6724C199.841 58.2668 199.841 55.6302 199.232 53.8048C198.746 52.3445 197.869 51.2737 196.993 50.2028C195.679 48.5964 194.364 46.9901 194.365 44.0694C194.365 43.6505 194.392 43.2497 194.44 42.8649C194.052 43.9504 193.864 45.1103 194.057 46.4601C194.316 48.2677 195.136 49.2568 196.021 50.3232C196.13 50.4544 196.24 50.5875 196.35 50.7227C196.85 51.3388 197.347 52.0118 197.716 52.8882C198.085 53.7664 198.319 54.8339 198.319 56.2386C198.319 56.7931 198.093 57.451 197.836 58.0216C197.575 58.6015 197.262 59.1332 197.051 59.4497L196.545 59.1122C196.74 58.8201 197.035 58.3175 197.281 57.7717C197.531 57.2166 197.711 56.6576 197.711 56.2386C197.711 54.9052 197.489 53.9191 197.155 53.124C196.82 52.3272 196.366 51.7072 195.878 51.1064C195.771 50.9753 195.663 50.845 195.554 50.714C194.666 49.6464 193.739 48.5315 193.455 46.5462C193.138 44.3264 193.777 42.5854 194.627 40.9619C194.843 40.5496 195.078 40.1359 195.315 39.7235C195.46 39.3666 195.61 39.0236 195.755 38.6914C196.544 36.8836 197.193 35.3963 196.191 33.7254C195.147 31.9861 193.001 32.1236 190.506 32.2833C188.637 32.403 186.572 32.5352 184.63 31.9C182.195 31.104 180.847 29.5452 180.37 27.6411C179.742 27.871 178.545 28.8578 178.301 30.6832C177.635 27.6074 178.274 26.3407 179.101 24.7009L179.153 24.5985Z" fill="#E94A47"/>
<path d="M140.212 198.619L134.127 181.582H120.741C118.916 183.205 114.656 186.815 112.222 188.275C109.18 190.101 103.095 192.535 100.662 194.36C98.7145 195.82 97.0108 197.808 96.4023 198.619H140.212Z" fill="#1A2256"/>
<path d="M176.719 198.619L170.634 181.582H156.031C155.017 183.002 152.259 186.328 149.338 188.275C145.687 190.709 142.037 191.318 138.386 193.752C136.575 194.959 133.924 197.402 132.91 198.619H176.719Z" fill="#28306D"/>
<g class="message-small">
<path fill-rule="evenodd" clip-rule="evenodd" d="M97.2266 20.0632C94.4666 20.0632 91.2799 18.0331 90.1135 15.5317C88.947 13.0303 90.2404 11.0002 93.0004 11.0002C95.7604 11.0002 98.947 13.0303 100.113 15.5317C101.28 18.0331 99.9866 20.0632 97.2266 20.0632Z" fill="#F33E3E"/>
<path fill-rule="evenodd" clip-rule="evenodd" d="M95.7471 16.8911C96.0233 16.8911 96.3417 17.094 96.4584 17.3443C96.5751 17.5945 96.4459 17.7974 96.1697 17.7974C95.8936 17.7974 95.5751 17.5945 95.4584 17.3443C95.3417 17.094 95.471 16.8911 95.7471 16.8911ZM94.0566 13.2659C94.3328 13.2659 94.6512 13.4688 94.7679 13.719L95.6132 15.5316C95.7299 15.7819 95.6006 15.9848 95.3245 15.9848C95.0484 15.9848 94.7299 15.7819 94.6132 15.5316L93.7679 13.719C93.6512 13.4688 93.7805 13.2659 94.0566 13.2659Z" fill="white"/>
</g>
<defs>
<linearGradient id="paint0_linear_2664_5043" x1="164.55" y1="94.5721" x2="11.2169" y2="198.011" gradientUnits="userSpaceOnUse">
<stop stop-color="#438EFE"/>
<stop offset="1" stop-color="#A1C3FC"/>
</linearGradient>
<linearGradient id="paint1_linear_2664_5043" x1="121.957" y1="75.5881" x2="49.6719" y2="75.5881" gradientUnits="userSpaceOnUse">
<stop stop-color="#F5F5F6"/>
<stop offset="0.311642" stop-color="#D6D7D8"/>
</linearGradient>
<linearGradient id="paint2_linear_2664_5043" x1="53.3223" y1="73.773" x2="119.561" y2="72.7374" gradientUnits="userSpaceOnUse">
<stop stop-color="#23286B"/>
<stop offset="1" stop-color="#1D225F"/>
</linearGradient>
<radialGradient id="paint3_radial_2664_5043" cx="0" cy="0" r="1" gradientUnits="userSpaceOnUse" gradientTransform="translate(187.063 64.1487) rotate(63.8609) scale(73.2005 56.2783)">
<stop stop-color="#E2E2E3"/>
<stop offset="1" stop-color="#F5F5F6"/>
</radialGradient>
<linearGradient id="paint4_linear_2664_5043" x1="219.312" y1="127.428" x2="152.381" y2="127.428" gradientUnits="userSpaceOnUse">
<stop stop-color="#F5F5F6"/>
<stop offset="0.311642" stop-color="#D6D7D8"/>
</linearGradient>
<linearGradient id="paint5_linear_2664_5043" x1="213.229" y1="165.154" x2="229.049" y2="165.154" gradientUnits="userSpaceOnUse">
<stop offset="0.290963" stop-color="#F5F5F6"/>
<stop offset="0.627253" stop-color="#D6D7D8"/>
</linearGradient>
<linearGradient id="paint6_linear_2664_5043" x1="162.116" y1="97.0057" x2="161.928" y2="181.582" gradientUnits="userSpaceOnUse">
<stop stop-color="#1479F2"/>
<stop offset="1" stop-color="#2F84F7"/>
</linearGradient>
<linearGradient id="paint7_linear_2664_5043" x1="167.134" y1="93.9634" x2="167.134" y2="181.582" gradientUnits="userSpaceOnUse">
<stop stop-color="#428DFC"/>
<stop offset="0.311461" stop-color="#438FFF"/>
<stop offset="1" stop-color="#428DFC"/>
</linearGradient>
<linearGradient id="paint8_linear_2664_5043" x1="198.659" y1="108.318" x2="209.79" y2="50.304" gradientUnits="userSpaceOnUse">
<stop stop-color="#171B4D"/>
<stop offset="0.683307" stop-color="#1D225F"/>
</linearGradient>
<linearGradient id="paint9_linear_2664_5043" x1="204.101" y1="107.466" x2="157.18" y2="41.1651" gradientUnits="userSpaceOnUse">
<stop offset="0.0620193" stop-color="#2A318C"/>
<stop offset="0.828999" stop-color="#1D225F"/>
</linearGradient>
</defs>
</svg>
