<svg data-style-override="false" width="250" height="200" viewBox="0 0 250 200" fill="none" xmlns="http://www.w3.org/2000/svg">
<mask id="mask0_2672_5444" style="mask-type:alpha" maskUnits="userSpaceOnUse" x="151" y="58" width="62" height="85">
<path d="M194.273 58L212.818 79.6364C212.818 99.4242 212.818 119.212 212.818 139C212.818 141.209 211.027 143 208.818 143H155C152.791 143 151 141.209 151 139V62C151 59.7909 152.779 58 154.988 58C163.409 58 183.138 58 194.273 58Z" fill="white"/>
</mask>
<g mask="url(#mask0_2672_5444)">
<path d="M194.01 58.5H194.043L212.318 79.8213V79.8683V79.9842V80.1001V80.2161V80.332V80.448V80.5639V80.6799V80.7958V80.9118V81.0277V81.1436V81.2596V81.3755V81.4915V81.6074V81.7234V81.8393V81.9553V82.0712V82.1871V82.3031V82.419V82.535V82.6509V82.7669V82.8828V82.9988V83.1147V83.2306V83.3466V83.4625V83.5785V83.6944V83.8104V83.9263V84.0423V84.1582V84.2741V84.3901V84.506V84.622V84.7379V84.8539V84.9698V85.0858V85.2017V85.3176V85.4336V85.5495V85.6655V85.7814V85.8974V86.0133V86.1293V86.2452V86.3612V86.4771V86.593V86.709V86.8249V86.9409V87.0568V87.1728V87.2887V87.4047V87.5206V87.6365V87.7525V87.8684V87.9844V88.1003V88.2163V88.3322V88.4482V88.5641V88.68V88.796V88.9119V89.0279V89.1438V89.2598V89.3757V89.4917V89.6076V89.7235V89.8395V89.9554V90.0714V90.1873V90.3033V90.4192V90.5352V90.6511V90.767V90.883V90.9989V91.1149V91.2308V91.3468V91.4627V91.5787V91.6946V91.8105V91.9265V92.0424V92.1584V92.2743V92.3903V92.5062V92.6222V92.7381V92.854V92.97V93.0859V93.2019V93.3178V93.4338V93.5497V93.6657V93.7816V93.8975V94.0135V94.1294V94.2454V94.3613V94.4773V94.5932V94.7092V94.8251V94.9411V95.057V95.1729V95.2889V95.4048V95.5208V95.6367V95.7527V95.8686V95.9846V96.1005V96.2164V96.3324V96.4483V96.5643V96.6802V96.7962V96.9121V97.0281V97.144V97.2599V97.3759V97.4918V97.6078V97.7237V97.8397V97.9556V98.0716V98.1875V98.3034V98.4194V98.5353V98.6513V98.7672V98.8832V98.9991V99.1151V99.231V99.3469V99.4629V99.5788V99.6948V99.8107V99.9267V100.043V100.159V100.275V100.39V100.506V100.622V100.738V100.854V100.97V101.086V101.202V101.318V101.434V101.55V101.666V101.782V101.898V102.014V102.13V102.246V102.362V102.477V102.593V102.709V102.825V102.941V103.057V103.173V103.289V103.405V103.521V103.637V103.753V103.869V103.985V104.101V104.217V104.333V104.449V104.564V104.68V104.796V104.912V105.028V105.144V105.26V105.376V105.492V105.608V105.724V105.84V105.956V106.072V106.188V106.304V106.42V106.536V106.651V106.767V106.883V106.999V107.115V107.231V107.347V107.463V107.579V107.695V107.811V107.927V108.043V108.159V108.275V108.391V108.507V108.623V108.738V108.854V108.97V109.086V109.202V109.318V109.434V109.55V109.666V109.782V109.898V110.014V110.13V110.246V110.362V110.478V110.594V110.71V110.825V110.941V111.057V111.173V111.289V111.405V111.521V111.637V111.753V111.869V111.985V112.101V112.217V112.333V112.449V112.565V112.681V112.797V112.912V113.028V113.144V113.26V113.376V113.492V113.608V113.724V113.84V113.956V114.072V114.188V114.304V114.42V114.536V114.652V114.768V114.884V114.999V115.115V115.231V115.347V115.463V115.579V115.695V115.811V115.927V116.043V116.159V116.275V116.391V116.507V116.623V116.739V116.855V116.971V117.086V117.202V117.318V117.434V117.55V117.666V117.782V117.898V118.014V118.13V118.246V118.362V118.478V118.594V118.71V118.826V118.942V119.058V119.173V119.289V119.405V119.521V119.637V119.753V119.869V119.985V120.101V120.217V120.333V120.449V120.565V120.681V120.797V120.913V121.029V121.145V121.26V121.376V121.492V121.608V121.724V121.84V121.956V122.072V122.188V122.304V122.42V122.536V122.652V122.768V122.884V123V123.116V123.232V123.347V123.463V123.579V123.695V123.811V123.927V124.043V124.159V124.275V124.391V124.507V124.623V124.739V124.855V124.971V125.087V125.203V125.319V125.434V125.55V125.666V125.782V125.898V126.014V126.13V126.246V126.362V126.478V126.594V126.71V126.826V126.942V127.058V127.174V127.29V127.406V127.521V127.637V127.753V127.869V127.985V128.101V128.217V128.333V128.449V128.565V128.681V128.797V128.913V129.029V129.145V129.261V129.377V129.493V129.608V129.724V129.84V129.956V130.072V130.188V130.304V130.42V130.536V130.652V130.768V130.884V131V131.116V131.232V131.348V131.464V131.58V131.695V131.811V131.927V132.043V132.159V132.275V132.391V132.507V132.623V132.739V132.855V132.971V133.087V133.203V133.319V133.435V133.551V133.667V133.782V133.898V134.014V134.13V134.246V134.362V134.478V134.594V134.71V134.826V134.942V135.058V135.174V135.29V135.406V135.522V135.638V135.754V135.869V135.985V136.101V136.217V136.333V136.449V136.565V136.681V136.797V136.913V137.029V137.145V137.261V137.377V137.493V137.609V137.725V137.841V137.956V138.072V138.188V138.304V138.42V138.536V138.652V138.768V138.884V139C212.318 140.933 210.751 142.5 208.818 142.5H155C153.067 142.5 151.5 140.933 151.5 139V62C151.5 60.0651 153.057 58.5 154.988 58.5H155.038H155.088H155.138H155.188H155.238H155.289H155.34H155.391H155.443H155.495H155.547H155.599H155.651H155.704H155.757H155.81H155.864H155.918H155.972H156.026H156.08H156.135H156.19H156.245H156.3H156.356H156.412H156.468H156.524H156.581H156.638H156.695H156.752H156.81H156.867H156.925H156.984H157.042H157.101H157.16H157.219H157.278H157.338H157.397H157.457H157.517H157.578H157.638H157.699H157.76H157.822H157.883H157.945H158.007H158.069H158.131H158.194H158.257H158.319H158.383H158.446H158.51H158.573H158.637H158.702H158.766H158.83H158.895H158.96H159.025H159.091H159.156H159.222H159.288H159.354H159.421H159.487H159.554H159.621H159.688H159.755H159.823H159.89H159.958H160.026H160.094H160.163H160.231H160.3H160.369H160.438H160.508H160.577H160.647H160.716H160.786H160.857H160.927H160.997H161.068H161.139H161.21H161.281H161.353H161.424H161.496H161.568H161.64H161.712H161.784H161.857H161.929H162.002H162.075H162.148H162.222H162.295H162.369H162.443H162.516H162.591H162.665H162.739H162.814H162.888H162.963H163.038H163.113H163.188H163.264H163.339H163.415H163.491H163.567H163.643H163.719H163.796H163.872H163.949H164.026H164.102H164.18H164.257H164.334H164.411H164.489H164.567H164.645H164.723H164.801H164.879H164.957H165.036H165.114H165.193H165.272H165.351H165.43H165.509H165.588H165.668H165.747H165.827H165.907H165.987H166.067H166.147H166.227H166.307H166.388H166.468H166.549H166.63H166.71H166.791H166.872H166.954H167.035H167.116H167.198H167.279H167.361H167.443H167.525H167.607H167.689H167.771H167.853H167.935H168.018H168.1H168.183H168.265H168.348H168.431H168.514H168.597H168.68H168.763H168.847H168.93H169.013H169.097H169.18H169.264H169.348H169.432H169.516H169.6H169.684H169.768H169.852H169.936H170.02H170.105H170.189H170.274H170.358H170.443H170.528H170.613H170.697H170.782H170.867H170.952H171.037H171.123H171.208H171.293H171.378H171.464H171.549H171.635H171.72H171.806H171.891H171.977H172.063H172.148H172.234H172.32H172.406H172.492H172.578H172.664H172.75H172.836H172.922H173.008H173.095H173.181H173.267H173.354H173.44H173.526H173.613H173.699H173.786H173.872H173.959H174.045H174.132H174.219H174.305H174.392H174.479H174.565H174.652H174.739H174.826H174.912H174.999H175.086H175.173H175.26H175.347H175.434H175.521H175.607H175.694H175.781H175.868H175.955H176.042H176.129H176.216H176.303H176.39H176.477H176.564H176.651H176.738H176.825H176.912H177.086H177.782H177.955H178.042H178.129H178.216H178.303H178.39H178.476H178.563H178.65H178.737H178.823H178.91H178.997H179.083H179.17H179.257H179.343H179.43H179.516H179.603H179.689H179.776H179.862H179.948H180.035H180.121H180.207H180.294H180.38H180.466H180.552H180.638H180.724H180.81H180.896H180.982H181.068H181.153H181.239H181.325H181.411H181.496H181.582H181.667H181.753H181.838H181.924H182.009H182.094H182.179H182.264H182.349H182.434H182.519H182.604H182.689H182.774H182.859H182.943H183.028H183.112H183.197H183.281H183.366H183.45H183.534H183.618H183.702H183.786H183.87H183.954H184.037H184.121H184.205H184.288H184.372H184.455H184.538H184.621H184.704H184.787H184.87H184.953H185.036H185.119H185.201H185.284H185.366H185.448H185.531H185.613H185.695H185.777H185.858H185.94H186.022H186.103H186.185H186.266H186.347H186.429H186.51H186.591H186.671H186.752H186.833H186.913H186.994H187.074H187.154H187.234H187.314H187.394H187.474H187.553H187.633H187.712H187.792H187.871H187.95H188.029H188.108H188.186H188.265H188.343H188.422H188.5H188.578H188.656H188.734H188.811H188.889H188.966H189.044H189.121H189.198H189.275H189.352H189.428H189.505H189.581H189.657H189.733H189.809H189.885H189.961H190.036H190.112H190.187H190.262H190.337H190.412H190.486H190.561H190.635H190.709H190.783H190.857H190.931H191.005H191.078H191.151H191.224H191.297H191.37H191.443H191.515H191.588H191.66H191.732H191.803H191.875H191.947H192.018H192.089H192.16H192.231H192.302H192.372H192.442H192.513H192.583H192.652H192.722H192.791H192.861H192.93H192.999H193.067H193.136H193.204H193.272H193.34H193.408H193.476H193.543H193.611H193.678H193.745H193.811H193.878H193.944H194.01Z" fill="url(#paint0_linear_2672_5444)" stroke="url(#paint1_linear_2672_5444)"/>
<path d="M193.772 103.081C193.046 102.627 192.217 102.362 191.362 102.311C191.216 102.299 191.069 102.299 190.922 102.311C190.646 101.394 190.068 100.597 189.282 100.051C189.08 99.9151 188.81 99.9447 188.642 100.121C187.94 101.059 187.677 102.255 187.922 103.401C187.94 103.55 187.892 103.699 187.792 103.811C187.705 103.908 187.581 103.962 187.452 103.961H187.002V101.501C187.002 101.225 186.778 101.001 186.502 101.001H184.001V95.5001C184.001 95.2239 183.778 95 183.501 95H180.501C180.225 95 180.001 95.2239 180.001 95.5001V98.0003H174.5C174.224 98.0003 174 98.2242 174 98.5004V101.001H171.5C171.224 101.001 171 101.225 171 101.501V104.001H170.5C170.224 104.001 170 104.225 170 104.501C170 112.172 175.591 113.002 178.001 113.002C183.095 113.017 187.812 110.319 190.382 105.921C191.819 105.732 193.109 104.943 193.932 103.751C194.066 103.521 193.996 103.226 193.772 103.081ZM186.002 104.001H184.001V102.001H186.002V104.001ZM175.001 104.001V102.001H177.001V104.001H175.001ZM178.001 104.001V102.001H180.001V104.001H178.001ZM183.001 99.0004V101.001H181.001V99.0004H183.001ZM181.001 104.001V102.001H183.001V104.001H181.001ZM181.001 96.0001H183.001V98.0003H181.001V96.0001ZM180.001 101.001H178.001V99.0004H180.001V101.001ZM175.001 99.0004H177.001V101.001H175.001V99.0004ZM172 102.001H174V104.001H172V102.001ZM175.001 109.001C174.448 109.001 174 108.554 174 108.001C174 107.449 174.448 107.001 175.001 107.001C175.553 107.001 176.001 107.449 176.001 108.001C176.001 108.554 175.553 109.001 175.001 109.001Z" fill="#B7DBFF"/>
<path d="M194.773 65.1736C194.773 63.2321 194.772 61.2902 194.772 59.3484L211.669 79H198.273C196.34 79 194.773 77.4329 194.773 75.4997C194.773 72.0605 194.773 68.6176 194.773 65.1736Z" fill="#E5F2FF" stroke="url(#paint2_linear_2672_5444)"/>
</g>
<path d="M216.029 131.247L214.746 131.99L216.029 131.247C215.722 130.715 215.28 130.275 214.748 129.968C214.217 129.661 213.614 129.5 213 129.5C212.386 129.5 211.783 129.661 211.252 129.968C210.72 130.275 210.278 130.715 209.971 131.247L211.255 131.99L209.971 131.247L198.974 150.246C198.666 150.778 198.503 151.381 198.503 151.996C198.502 152.611 198.664 153.215 198.971 153.747C199.278 154.28 199.72 154.722 200.252 155.03C200.784 155.337 201.388 155.499 202.003 155.499H223.997C224.612 155.499 225.216 155.337 225.748 155.03C226.28 154.722 226.722 154.28 227.029 153.747C227.336 153.215 227.498 152.611 227.497 151.996C227.496 151.381 227.334 150.778 227.026 150.246L216.029 131.247Z" fill="#FFB549" stroke="var(--bg-primary)" stroke-width="3"/>
<path fill-rule="evenodd" clip-rule="evenodd" d="M214.333 140C214.333 139.264 213.736 138.667 213 138.667C212.264 138.667 211.667 139.264 211.667 140V145C211.667 145.736 212.264 146.333 213 146.333C213.736 146.333 214.333 145.736 214.333 145V140ZM214.5 149.5C214.5 150.329 213.828 151 213 151C212.172 151 211.5 150.329 211.5 149.5C211.5 148.672 212.172 148 213 148C213.828 148 214.5 148.672 214.5 149.5Z" fill="#3B444C"/>
<path d="M65.5601 191.308C65.5601 191.192 66.7131 188.02 68.0981 184.213L70.6361 177.291L77.0961 177.118L83.4991 176.945L86.2671 179.252C88.5751 181.214 99.0631 186.799 100.399 187.559C101.29 188.065 102.466 189.353 103.925 191.423C78.3481 191.385 65.5601 191.346 65.5601 191.308Z" fill="#80AEF2"/>
<path d="M32 191.308C32 191.192 33.154 188.02 34.538 184.213L37.076 177.291L43.536 177.118L49.939 176.945L52.708 179.252C55.015 181.214 65.503 186.799 66.84 187.559C67.73 188.065 68.906 189.353 70.365 191.423C44.788 191.385 32 191.346 32 191.308Z" fill="#94BBF8"/>
<path d="M75.655 109.836C76.745 112.994 77.481 115.734 77.863 118.056C78.243 120.377 80.381 140.211 84.274 177.556H66.296C64.852 174.938 64.13 173.099 64.13 172.038C64.13 170.448 65.043 168.268 65.043 165.97C65.043 164.438 63.009 159.147 58.939 150.099L62.87 110.75L75.655 109.836Z" fill="#1D225F"/>
<path fill-rule="evenodd" clip-rule="evenodd" d="M50.5541 177.555H33.7601C33.3601 176.17 32.9681 174.301 32.5851 171.949C31.8351 167.161 32.4051 163.989 35.6351 157.413C38.8651 150.895 40.5011 147.341 40.5011 143.649C40.5591 137.881 41.7231 132.333 44.7811 126.334C47.1451 121.604 48.2761 121.248 48.5061 118.364L48.9261 112.162H70.0041C70.5161 113.595 70.7001 116.237 70.5541 120.087C70.4091 123.937 63.7421 143.093 50.5531 177.555H50.5541Z" fill="url(#paint3_linear_2672_5444)"/>
<path d="M95.9399 50.818L112.78 29.988H132.971L115.532 50.818H95.9399Z" fill="#98BDF9"/>
<path d="M118.14 27.384C119.518 27.384 120.646 28.454 120.737 29.809L120.743 29.988H120.165C120.165 28.869 119.258 27.963 118.14 27.963C117.021 27.963 116.115 28.869 116.115 29.988C116.115 31.05 116.933 31.922 117.974 32.006L118.14 32.013V32.591C116.702 32.591 115.536 31.426 115.536 29.988C115.536 28.55 116.702 27.384 118.14 27.384ZM125.083 27.384C126.461 27.384 127.589 28.454 127.681 29.809L127.687 29.988H127.108C127.108 28.869 126.202 27.963 125.083 27.963C123.965 27.963 123.058 28.869 123.058 29.988C123.058 31.05 123.876 31.922 124.917 32.006L125.083 32.013V32.591C123.645 32.591 122.479 31.426 122.479 29.988C122.479 28.55 123.645 27.384 125.083 27.384Z" fill="#2174DB"/>
<path d="M94.4722 54.8291C97.2792 53.8671 100.026 52.5301 102.714 50.8181H109.585C107.21 52.9881 105.613 54.5241 104.794 55.4281C103.974 56.3311 102.285 58.0661 99.7262 60.6331C98.6352 66.4141 97.4722 68.8431 96.2392 67.9181C94.3892 66.5321 88.3002 57.0211 94.4722 54.8281V54.8291Z" fill="#F3A29D"/>
<path d="M98.2542 60.6541C102.617 58.9861 105.433 57.7971 106.701 57.0871C108.201 56.2221 108.778 55.4141 110.508 51.7801C110.738 51.3191 111.2 49.4151 111.604 47.6271C112.527 43.0701 114.027 43.3011 114.142 47.9731C114.2 49.2431 114.488 50.3961 114.834 50.5111C115.122 50.6271 116.795 49.0111 118.468 46.9351C120.141 44.8581 121.756 43.1851 122.044 43.1851C122.736 43.1851 122.736 48.4921 121.987 50.3381C121.698 51.2031 117.257 56.0481 112.123 61.1821C108.701 64.6051 103.692 69.2501 97.0972 75.1191L98.2542 60.6541Z" fill="#FAB6AF"/>
<path d="M78.5812 35.7741C79.3532 32.6881 80.1242 30.7591 80.8962 29.9871C79.7392 28.8301 78.5812 27.6731 76.2662 26.5161C75.4962 28.0591 73.9522 29.6021 71.6382 31.1451C71.6382 33.4591 72.4092 35.0021 73.9522 35.7741C75.4952 36.5451 77.0382 36.5451 78.5822 35.7741H78.5812Z" fill="#F3A29D"/>
<path d="M49.3081 112.98C46.9431 112.806 43.0781 111.999 40.8281 111.249L36.6181 109.864L36.5031 105.538C36.2141 93.5981 37.0801 84.8881 39.7911 73.7561C43.4821 58.4701 54.0961 42.8391 66.9592 33.6671C71.9192 30.0911 72.0351 30.0911 73.4771 32.5141C74.1111 33.6671 75.4371 34.8211 76.3611 35.1671L78.5221 35.7611C75.4761 65.0851 76.6521 89.3911 82.0532 108.678C80.8961 109.836 80.1071 110.36 79.2451 110.73C78.2061 111.133 76.8801 111.537 76.1881 111.595C75.4951 111.653 73.1881 112.114 70.9381 112.633C66.7281 113.556 57.5561 113.729 49.3081 112.979V112.98Z" fill="url(#paint4_linear_2672_5444)"/>
<path fill-rule="evenodd" clip-rule="evenodd" d="M94.4721 54.8281L96.2391 66.1391L76.2671 68.7841L77.3731 53.1311C79.5141 54.8661 81.7171 55.9071 83.9811 56.2541C86.2441 56.6021 89.7411 56.1261 94.4711 54.8281H94.4721Z" fill="#D6D7D8"/>
<path d="M98.2541 60.653L103.157 83.798C102.589 84.955 101.147 85.727 98.8331 86.112C93.6251 86.691 88.4181 84.376 82.0531 84.376C75.6881 84.376 75.9631 88.426 66.7051 84.956C60.5331 82.641 58.0251 72.226 59.1821 53.71L77.2361 51.98C77.1581 57.762 77.8911 61.232 79.4341 62.389C80.9461 63.523 87.0031 62.99 97.6041 60.789L98.2541 60.653Z" fill="#E9E9E9"/>
<path d="M90.3051 15.4439C91.3751 16.9639 91.7931 18.9799 91.5581 21.4929C91.4961 22.1489 91.1821 22.3759 91.1821 23.5449C91.1821 24.6649 91.2521 26.0509 91.3941 27.7019L89.0771 27.8629C86.8551 30.2749 84.5031 31.3429 82.0221 31.0699C79.5421 30.7949 77.7711 29.7269 76.7121 27.8629C74.5321 23.8399 75.0911 20.4189 78.3871 17.6009C81.6831 14.7829 85.6561 14.0639 90.3051 15.4439Z" fill="#FAB6AF"/>
<path fill-rule="evenodd" clip-rule="evenodd" d="M79.646 8C82.244 8 85.363 9.017 87.64 10.74C89.917 12.462 91.485 13.76 92.19 15.837C92.66 17.221 92.438 19.151 91.526 21.628C91.656 19.283 91.478 17.981 90.993 17.722C90.323 19.375 89.398 19.709 88.29 20.509C87.67 20.957 85.499 21.027 83.373 21.406C80.745 23.128 79.07 24.736 78.506 26.266C78.058 27.484 78.104 28.874 78.654 30.443L78.78 30.782L78.24 30.992C77.526 29.159 77.43 27.514 77.963 26.067C78.485 24.65 79.813 23.229 81.857 21.746C80.767 22.053 79.806 22.5 79.223 23.195C77.944 24.721 77.195 26.96 76.977 29.911C74.211 29.411 71.672 28.478 69.36 27.111C67.048 25.745 64.915 23.917 62.962 21.628C63.358 20.794 63.866 20.104 64.483 19.558C65.154 18.966 66.418 18.45 67.652 17.736L67.587 17.757L66.383 18.158C65.123 18.582 64.427 18.871 63.988 19.19C63.158 19.791 62.728 20.465 62.675 21.222L62.67 21.413L62.091 21.42C62.079 20.381 62.607 19.477 63.648 18.721C64.075 18.411 64.661 18.148 65.631 17.805L67.387 17.215L67.997 17.002C68.591 16.789 69.061 16.601 69.436 16.418C70.732 15.019 71.606 12.447 73.526 10.74C75.641 8.855 77.048 8 79.645 8H79.646Z" fill="#E94A47"/>
<path d="M84.3598 21.5751C84.9568 19.9351 86.5298 18.9781 87.8948 19.4751C88.9558 19.8611 89.5488 20.9991 89.4808 22.2561C89.8408 22.1651 90.1698 22.1191 90.4688 22.1201L90.6768 22.1271C90.9318 22.1471 91.1428 22.1831 91.3128 22.2411C91.8248 20.9701 93.0208 20.2181 94.0628 20.5971C95.1328 20.9871 95.5608 22.4001 95.0748 23.7371C94.5878 25.0741 93.3518 25.8811 92.2808 25.4911C91.3278 25.1441 90.8838 23.9871 91.1408 22.7941C91.0378 22.7561 90.8668 22.7221 90.6328 22.7041C90.2988 22.6791 89.8958 22.7331 89.4248 22.8691L89.3938 22.8791C89.3578 23.0381 89.3108 23.1971 89.2538 23.3561C88.6568 24.9961 87.0838 25.9531 85.7178 25.4561C84.3518 24.9591 83.7628 23.2151 84.3598 21.5751ZM93.8638 21.1411C93.1338 20.8751 92.1998 21.4841 91.8118 22.5491C91.4248 23.6151 91.7478 24.6811 92.4788 24.9471C93.2098 25.2131 94.1428 24.6041 94.5308 23.5391C94.9188 22.4741 94.5948 21.4071 93.8638 21.1411ZM87.6968 20.0191C86.6608 19.6421 85.3998 20.4091 84.9038 21.7731C84.4078 23.1361 84.8798 24.5351 85.9158 24.9131C86.9518 25.2891 88.2138 24.5211 88.7098 23.1581C89.2058 21.7951 88.7328 20.3961 87.6968 20.0181V20.0191Z" fill="#222768"/>
<defs>
<linearGradient id="paint0_linear_2672_5444" x1="213" y1="58" x2="151" y2="143" gradientUnits="userSpaceOnUse">
<stop stop-color="#ABCFF3"/>
<stop offset="0.357625" stop-color="#F0F7FF"/>
<stop offset="0.644375" stop-color="white"/>
<stop offset="1" stop-color="#F0F7FF"/>
</linearGradient>
<linearGradient id="paint1_linear_2672_5444" x1="181.909" y1="58" x2="181.909" y2="143" gradientUnits="userSpaceOnUse">
<stop stop-color="white"/>
<stop offset="1" stop-color="#E5F2FF"/>
</linearGradient>
<linearGradient id="paint2_linear_2672_5444" x1="199.5" y1="67.5" x2="191" y2="85.5" gradientUnits="userSpaceOnUse">
<stop stop-color="white"/>
<stop offset="1" stop-color="#E5F2FF"/>
</linearGradient>
<linearGradient id="paint3_linear_2672_5444" x1="53.3662" y1="112.162" x2="38.2601" y2="175.224" gradientUnits="userSpaceOnUse">
<stop stop-color="#2A318C"/>
<stop offset="1" stop-color="#1D225F"/>
</linearGradient>
<linearGradient id="paint4_linear_2672_5444" x1="59.2517" y1="30.8201" x2="59.2517" y2="113.448" gradientUnits="userSpaceOnUse">
<stop stop-color="#EEEEEE"/>
<stop offset="1" stop-color="#D6D7D8"/>
</linearGradient>
</defs>
</svg>
