<svg width="16" height="16" viewBox="0 0 16 16" xmlns="http://www.w3.org/2000/svg">
    <path d="M8 1.333a6.667 6.667 0 1 1 0 13.334A6.667 6.667 0 0 1 8 1.333zm0 1.334a5.333 5.333 0 1 0 0 10.666A5.333 5.333 0 0 0 8 2.667zm-.137 7.245a.75.75 0 0 1 .747.747.75.75 0 0 1-.747.747.75.75 0 0 1-.747-.747.75.75 0 0 1 .747-.747zm.046-5.245c1.166 0 2.313.537 2.313 1.82 0 1.185-1.357 1.64-1.648 2.068-.22.319-.146.766-.747.766-.392 0-.583-.319-.583-.61 0-1.085 1.593-1.33 1.593-2.223 0-.492-.327-.783-.873-.783-1.166 0-.711 1.202-1.594 1.202-.319 0-.592-.191-.592-.556 0-.893 1.02-1.684 2.13-1.684z" fill="#1D2730" fill-rule="evenodd"/>
</svg>
