<svg data-style-override="false" width="250" height="200" viewBox="0 0 250 200" fill="none" xmlns="http://www.w3.org/2000/svg">
<g clip-path="url(#clip0_3754_4493)">
<g clip-path="url(#clip1_3754_4493)">
<rect width="202.366" height="12.6479" transform="translate(40.6343 15.0001)" fill="#A1C3FC"/>
<circle cx="216.439" cy="21.3241" r="2.52957" fill="white"/>
<circle cx="225.293" cy="21.3241" r="2.52957" fill="white"/>
<circle cx="234.147" cy="21.3241" r="2.52957" fill="white"/>
<rect width="202.366" height="126.479" transform="translate(40.6343 27.648)" fill="url(#paint0_linear_3754_4493)"/>
<rect x="55.8118" y="42.8254" width="27.8253" height="5.05914" rx="1.26479" fill="white"/>
<rect x="91.2258" y="42.8254" width="63.2393" height="5.05914" rx="1.26479" fill="white"/>
<rect x="164.583" y="78.2394" width="63.2393" height="7.58872" rx="1.26479" fill="white"/>
<rect x="169.643" y="93.4169" width="53.121" height="7.58872" rx="1.26479" fill="white"/>
<rect x="55.8118" y="58.0029" width="88.535" height="5.05914" rx="1.26479" fill="white"/>
<rect x="55.8118" y="73.1803" width="98.6533" height="5.05914" rx="1.26479" fill="white"/>
<rect x="55.8118" y="88.3577" width="70.828" height="5.05914" rx="1.26479" fill="white"/>
<rect x="55.8118" y="103.535" width="82.2111" height="5.05914" rx="1.26479" fill="white"/>
<rect x="55.8118" y="118.713" width="172.011" height="20.2366" rx="2.52957" fill="white" stroke="#A1C3FC" stroke-width="1.26479" stroke-dasharray="2.53 2.53"/>
<circle cx="196.203" cy="52.9437" r="15.1774" fill="white"/>
</g>
<rect x="188.82" y="195.728" width="36.5383" height="4.21595" rx="1.26479" fill="url(#paint1_linear_3754_4493)"/>
<path d="M194.441 195.728H219.737L217.98 188.701H196.198L194.441 195.728Z" fill="url(#paint2_linear_3754_4493)"/>
<path d="M212.71 167.621H201.468L202.394 163.916C202.675 162.79 203.687 162 204.848 162H209.33C210.49 162 211.502 162.79 211.784 163.916L212.71 167.621Z" fill="url(#paint3_linear_3754_4493)"/>
<path d="M197.954 181.674L199.711 174.648H214.467L216.223 181.674H197.954Z" fill="url(#paint4_linear_3754_4493)"/>
<path d="M199.711 174.648L201.468 167.621H212.71L214.467 174.648H199.711Z" fill="url(#paint5_linear_3754_4493)"/>
<path d="M196.198 188.7L197.954 181.674H216.223L217.98 188.7H196.198Z" fill="url(#paint6_linear_3754_4493)"/>
<rect x="168.17" y="200.365" width="36.5383" height="4.21595" rx="1.26479" transform="rotate(-112 168.17 200.365)" fill="url(#paint7_linear_3754_4493)"/>
<path d="M166.065 195.153L156.589 171.699L150.732 175.96L158.892 196.157L166.065 195.153Z" fill="url(#paint8_linear_3754_4493)"/>
<path d="M133.161 188.744L137.372 199.168L133.59 199.697C132.44 199.858 131.329 199.215 130.894 198.139L129.215 193.984C128.78 192.907 129.134 191.673 130.072 190.99L133.161 188.744Z" fill="url(#paint9_linear_3754_4493)"/>
<path d="M151.718 197.161L144.545 198.164L139.017 184.483L144.874 180.222L151.718 197.161Z" fill="url(#paint10_linear_3754_4493)"/>
<path d="M144.545 198.164L137.372 199.167L133.161 188.743L139.018 184.482L144.545 198.164Z" fill="url(#paint11_linear_3754_4493)"/>
<path d="M158.891 196.157L151.718 197.161L144.874 180.222L150.731 175.961L158.891 196.157Z" fill="url(#paint12_linear_3754_4493)"/>
<path d="M56.0381 74.3616L59.9031 66.8605C62.3103 65.4102 66.4555 63.7262 65.2912 67.4336C64.1269 71.1411 62.7654 73.6812 63.4936 75.5553L56.0381 74.3616Z" fill="url(#paint13_linear_3754_4493)"/>
<path d="M68.0421 68.5041C70.203 67.4501 71.3657 64.6539 71.6768 63.3875C71.6768 63.3875 73.4742 62.8828 73.4047 62.3595C73.3352 61.8361 72.331 59.7251 71.4285 58.3076C70.4744 56.8091 69.7579 55.9463 69.0677 55.3718C66.2535 53.0295 63.5923 52.5245 60.9537 52.8279C57.9634 53.1717 54.6099 55.8291 54.1676 59.4812C53.761 62.8374 58.3466 67.2884 60.2791 68.2035C62.2115 69.1186 65.3409 69.8216 68.0421 68.5041Z" fill="#FFBEB6"/>
<path fill-rule="evenodd" clip-rule="evenodd" d="M70.4299 60.7937C70.5993 60.9567 70.8536 61.0868 71.1945 61.0868C71.5354 61.0868 71.7897 60.9567 71.9591 60.7937C72.1367 60.6229 72.2063 60.432 72.2063 60.3278H72.7122C72.7122 60.6029 72.5596 60.9179 72.3099 61.1583C72.0519 61.4065 71.6739 61.5927 71.1945 61.5927C70.7151 61.5927 70.3371 61.4065 70.0791 61.1583C69.8294 60.9179 69.6768 60.6029 69.6768 60.3278H70.1827C70.1827 60.432 70.2523 60.6229 70.4299 60.7937Z" fill="#23286B"/>
<path fill-rule="evenodd" clip-rule="evenodd" d="M54.3563 64.4234C53.9517 65.967 53.9328 68.8578 56.7591 69.7362C60.4814 70.893 64.0355 66.373 63.9296 61.9663C65.1618 62.6342 66.9063 61.814 67.0819 59.4852C68.5229 59.6729 71.7099 59.2426 73.0327 55.998C73.515 54.8149 73.4933 53.5008 73.248 52.4138C73.1252 51.8692 72.9451 51.3765 72.7397 50.9801C72.5367 50.5883 72.3002 50.2736 72.0556 50.1046L71.8574 50.3915C72.0332 50.5129 72.2375 50.7687 72.4301 51.1405C72.6204 51.5077 72.7909 51.9719 72.9079 52.4905C73.1424 53.5298 73.1578 54.7674 72.7098 55.8664C71.7234 58.286 69.6286 59.0401 68.1302 59.1572C70.288 58.6338 72.2143 56.8773 72.3628 54.8809C72.535 52.5677 71.5872 50.2435 69.8743 49.7786C68.504 49.4066 67.1487 51.046 66.6423 51.9122C66.3557 50.6898 65.2591 48.3145 63.473 47.6994C61.1261 46.8912 59.6702 47.1392 58.8393 48.1017C58.1483 48.9021 58.7776 50.2146 59.2751 51.2522C59.3759 51.4623 59.4712 51.6612 59.5491 51.8423C58.8061 51.4616 56.9593 50.9505 55.5157 51.9518C54.0721 52.9531 54.7945 54.4089 55.3362 55.0116C54.6408 54.8554 52.799 54.8373 50.9953 56.0143C48.7406 57.4855 48.034 60.9881 48.6927 62.3387C49.2258 63.4317 50.5858 64.9729 52.7554 64.7066C52.6321 64.7453 52.5062 64.7818 52.3785 64.8152C51.5743 65.0258 50.7306 65.1065 50.0651 64.8773C48.7145 64.4123 48.1995 63.2097 48.1126 62.6788L47.7685 62.7351C47.8693 63.351 48.4444 64.6881 49.9516 65.207C50.7149 65.4699 51.6403 65.3689 52.4669 65.1525C53.2112 64.9576 53.8982 64.663 54.3563 64.4234ZM54.4232 64.191L54.4243 64.1874L54.4218 64.1886L54.4232 64.191Z" fill="#23286B"/>
<path d="M57.2817 199.194L61.2727 187.811H68.8564L71.0335 189.625C72.8473 191.167 81.0933 195.558 82.1445 196.156C82.8443 196.554 83.7689 197.566 84.916 199.194C64.8065 199.164 57.2817 199.194 57.2817 199.194Z" fill="url(#paint14_linear_3754_4493)"/>
<path d="M35.7805 199.194L39.7714 187.811H48.62L50.7971 189.625C52.6109 191.167 60.8569 195.558 61.9081 196.156C62.6079 196.554 63.5325 197.566 64.6796 199.194C44.5701 199.164 35.7805 199.194 35.7805 199.194Z" fill="url(#paint15_linear_3754_4493)"/>
<path fill-rule="evenodd" clip-rule="evenodd" d="M107.526 49.1114C108.037 48.635 108.837 48.663 109.313 49.1738L110.176 50.0989C110.652 50.6097 110.624 51.41 110.113 51.8864L96.2383 64.8252L116.94 87.0253L130.815 74.0866C131.326 73.6102 132.127 73.6382 132.603 74.149L133.466 75.074C133.942 75.5849 133.914 76.3852 133.403 76.8616L29.8025 173.471C29.2916 173.947 28.4913 173.919 28.0149 173.408L27.1523 172.483C26.6759 171.973 26.7038 171.172 27.2147 170.696L36.4648 162.07L15.7628 139.87L6.51274 148.496C6.00188 148.972 5.20155 148.944 4.72516 148.433L3.86257 147.508C3.38618 146.997 3.41413 146.197 3.925 145.721L107.526 49.1114ZM18.5378 137.282L39.2398 159.482L55.8899 143.956L35.1879 121.756L37.963 119.168L58.6649 141.368L75.315 125.842L54.6131 103.641L18.5378 137.282ZM57.3881 101.054L78.09 123.254L94.7402 107.727L74.0382 85.5271L57.3881 101.054ZM114.165 89.6131L97.5152 105.14L76.8132 82.9394L93.4633 67.4129L114.165 89.6131Z" fill="#428DFC"/>
<path d="M75.518 109.158C78.8961 110.668 81.1393 111.579 82.2472 111.891C83.5719 112.247 84.3477 112.118 87.3521 111.051C87.7392 110.922 89.0644 110.114 90.2922 109.339C93.3616 107.303 94.0724 108.273 91.52 110.954C90.8411 111.698 90.3566 112.505 90.486 112.763C90.5823 112.99 92.4246 113.022 94.5244 112.796C95.2254 112.556 96.9613 110.497 97.1226 110.659C97.5102 111.046 96.0429 116.059 94.5894 116.673C93.943 116.996 88.7418 117.222 82.9905 117.222C79.1565 117.223 73.7491 117.019 66.7678 116.612L75.518 109.158Z" fill="#FAB6AF"/>
<path d="M73.092 141.646C72.5631 135.329 64.8708 108.129 64.8708 108.129H49.6934C49.4826 111.08 49.1875 117.868 49.6934 121.409C50.3258 125.836 53.4878 133.425 53.4878 136.587C53.4878 139.749 54.7525 151.132 54.7525 154.926C54.7525 158.721 54.1202 161.25 53.4878 163.78C52.8554 166.309 52.8554 172.001 53.4878 176.428C53.9937 179.969 55.8065 185.703 56.6497 187.811H71.8272C71.8272 187.811 73.5691 147.345 73.092 141.646Z" fill="#1D225F"/>
<path d="M66.7677 137.852C66.7677 140.381 64.9242 151.778 64.2381 154.294C62.3409 161.25 55.3846 177.06 51.5902 187.811H34.5156C34.7264 184.438 36.0334 177.06 37.0452 174.53C38.31 171.368 42.1873 166.967 42.7367 165.045C44.0015 160.618 44.0015 156.191 45.2663 153.029C46.5311 149.867 49.6931 144.176 49.6931 141.014C49.6931 137.852 47.1635 134.057 45.8987 129.631C44.6339 125.204 44.6339 119.512 44.6339 116.983C44.6339 114.313 44.8447 110.237 45.2663 108.129H66.7677V137.852Z" fill="url(#paint16_linear_3754_4493)"/>
<path d="M66.135 80.3042C66.6409 81.822 70.9833 96.1141 73.0913 103.07C73.7237 106.233 71.1942 108.129 68.6646 108.762C66.135 109.394 51.59 109.394 49.0604 109.394C45.2662 109.394 42.104 108.762 38.9421 106.864C35.7801 104.967 37.2451 99.0087 38.9421 96.7462C40.8395 94.2165 44.0012 91.6871 45.8984 88.5251C47.7956 85.3631 49.6928 80.9364 50.3252 79.6716C50.9576 78.4068 52.6056 76.2227 54.7519 74.6127C57.2815 72.7151 60.4434 72.7155 62.3406 73.3479C63.8852 73.8628 65.5026 78.4071 66.135 80.3042Z" fill="url(#paint17_linear_3754_4493)"/>
<path d="M80.6804 123.939V104.335C67.4002 104.335 64.8706 96.1138 64.2382 94.2166C63.6058 92.3194 62.341 87.2603 62.341 83.4659C62.341 79.6716 60.4094 77.991 57.9143 78.4068C54.1199 79.0391 50.9579 83.4658 49.6931 87.8926C48.4284 92.3193 47.1636 98.011 47.1636 101.805C47.1636 105.6 49.6931 109.394 51.5903 111.291C53.4875 113.188 57.9143 113.821 60.4438 115.718C62.9734 117.615 66.1354 120.777 69.2973 122.674C71.8269 124.192 77.94 124.15 80.6804 123.939Z" fill="url(#paint18_linear_3754_4493)"/>
</g>
<defs>
<linearGradient id="paint0_linear_3754_4493" x1="101.183" y1="0" x2="101.183" y2="126.479" gradientUnits="userSpaceOnUse">
<stop stop-color="#F3F3F3"/>
<stop offset="1" stop-color="#EEEEEE"/>
</linearGradient>
<linearGradient id="paint1_linear_3754_4493" x1="188.82" y1="199.944" x2="225.358" y2="199.944" gradientUnits="userSpaceOnUse">
<stop stop-color="#D99D05"/>
<stop offset="0.315157" stop-color="#EFB305"/>
</linearGradient>
<linearGradient id="paint2_linear_3754_4493" x1="194.441" y1="195.728" x2="219.737" y2="195.728" gradientUnits="userSpaceOnUse">
<stop stop-color="#D99D05"/>
<stop offset="1" stop-color="#EFB305"/>
</linearGradient>
<linearGradient id="paint3_linear_3754_4493" x1="201.468" y1="167.621" x2="212.71" y2="167.621" gradientUnits="userSpaceOnUse">
<stop stop-color="#D99D05"/>
<stop offset="1" stop-color="#EFB305"/>
</linearGradient>
<linearGradient id="paint4_linear_3754_4493" x1="197.954" y1="181.674" x2="216.223" y2="181.674" gradientUnits="userSpaceOnUse">
<stop stop-color="#D99D05"/>
<stop offset="1" stop-color="#EFB305"/>
</linearGradient>
<linearGradient id="paint5_linear_3754_4493" x1="199.36" y1="176.053" x2="214.818" y2="176.053" gradientUnits="userSpaceOnUse">
<stop stop-color="#EFEFEF"/>
<stop offset="1" stop-color="white"/>
</linearGradient>
<linearGradient id="paint6_linear_3754_4493" x1="195.846" y1="190.106" x2="218.331" y2="190.106" gradientUnits="userSpaceOnUse">
<stop stop-color="#EFEFEF"/>
<stop offset="1" stop-color="white"/>
</linearGradient>
<linearGradient id="paint7_linear_3754_4493" x1="168.17" y1="204.581" x2="204.708" y2="204.581" gradientUnits="userSpaceOnUse">
<stop stop-color="#D99D05"/>
<stop offset="0.315157" stop-color="#EFB305"/>
</linearGradient>
<linearGradient id="paint8_linear_3754_4493" x1="166.065" y1="195.153" x2="156.589" y2="171.699" gradientUnits="userSpaceOnUse">
<stop stop-color="#D99D05"/>
<stop offset="1" stop-color="#EFB305"/>
</linearGradient>
<linearGradient id="paint9_linear_3754_4493" x1="137.372" y1="199.168" x2="133.161" y2="188.744" gradientUnits="userSpaceOnUse">
<stop stop-color="#D99D05"/>
<stop offset="1" stop-color="#EFB305"/>
</linearGradient>
<linearGradient id="paint10_linear_3754_4493" x1="151.718" y1="197.161" x2="144.874" y2="180.222" gradientUnits="userSpaceOnUse">
<stop stop-color="#D99D05"/>
<stop offset="1" stop-color="#EFB305"/>
</linearGradient>
<linearGradient id="paint11_linear_3754_4493" x1="145.98" y1="197.963" x2="140.189" y2="183.63" gradientUnits="userSpaceOnUse">
<stop stop-color="#EFEFEF"/>
<stop offset="1" stop-color="white"/>
</linearGradient>
<linearGradient id="paint12_linear_3754_4493" x1="160.325" y1="195.957" x2="151.902" y2="175.109" gradientUnits="userSpaceOnUse">
<stop stop-color="#EFEFEF"/>
<stop offset="1" stop-color="white"/>
</linearGradient>
<linearGradient id="paint13_linear_3754_4493" x1="62.6244" y1="68.7334" x2="60.785" y2="73.3745" gradientUnits="userSpaceOnUse">
<stop stop-color="#FBA19B"/>
<stop offset="0.349149" stop-color="#F9ADA7"/>
<stop offset="1" stop-color="#F9AFA9"/>
</linearGradient>
<linearGradient id="paint14_linear_3754_4493" x1="59.3203" y1="188.026" x2="67.5424" y2="206.802" gradientUnits="userSpaceOnUse">
<stop offset="0.090505" stop-color="#2C7DE7"/>
<stop offset="0.492038" stop-color="#1D72D9"/>
</linearGradient>
<linearGradient id="paint15_linear_3754_4493" x1="37.9124" y1="188.026" x2="45.8844" y2="207.064" gradientUnits="userSpaceOnUse">
<stop offset="0.0747083" stop-color="#428DFC"/>
<stop offset="1" stop-color="#428DFC"/>
</linearGradient>
<linearGradient id="paint16_linear_3754_4493" x1="52.2575" y1="108.129" x2="27.1092" y2="180.661" gradientUnits="userSpaceOnUse">
<stop stop-color="#2A318C"/>
<stop offset="1" stop-color="#1D225F"/>
</linearGradient>
<linearGradient id="paint17_linear_3754_4493" x1="55.135" y1="72.9696" x2="55.135" y2="109.394" gradientUnits="userSpaceOnUse">
<stop stop-color="#A1C3FC"/>
<stop offset="1" stop-color="#91B9F7"/>
</linearGradient>
<linearGradient id="paint18_linear_3754_4493" x1="63.922" y1="78.3449" x2="63.922" y2="124.046" gradientUnits="userSpaceOnUse">
<stop stop-color="#9FC2FC"/>
<stop offset="1" stop-color="#A1C3FC"/>
</linearGradient>
<clipPath id="clip0_3754_4493">
<rect width="250" height="200" fill="white"/>
</clipPath>
<clipPath id="clip1_3754_4493">
<rect x="40.6343" y="15.0001" width="202.366" height="139.126" rx="2.52957" fill="white"/>
</clipPath>
</defs>
</svg>
