<!--
  - Copyright (c) 2024. Devtron Inc.
  -
  - Licensed under the Apache License, Version 2.0 (the "License");
  - you may not use this file except in compliance with the License.
  - You may obtain a copy of the License at
  -
  -     http://www.apache.org/licenses/LICENSE-2.0
  -
  - Unless required by applicable law or agreed to in writing, software
  - distributed under the License is distributed on an "AS IS" BASIS,
  - WITHOUT WARRANTIES OR CONDITIONS OF ANY KIND, either express or implied.
  - See the License for the specific language governing permissions and
  - limitations under the License.
  -->

<svg data-style-override="false" width="250" height="200" viewBox="0 0 250 200" fill="none" xmlns="http://www.w3.org/2000/svg">
<style>
.lock-body {
  animation: appear 6s ease;
  transform-origin: center;
  transform-box: fill-box;
  }

  @keyframes appear {
      0% {
        transform: translateY(50px) scale(0.5);
      }
      10% {
        transform: translateY(0px) scale(1);
      }
      100% {
        transform: translateY(0px) scale(1);
      }
    }

  .lock-shank {
  animation: locked 1s ease;
  transform-origin: right;
  transform-box: fill-box;
  }

  @keyframes locked {
      0% {
        transform: rotateY(90deg) translateY(-10px);
      }
      50% {
        transform: rotateY(90deg) translateY(-10px);
      }
      70% {
        transform: rotateY(0deg) translateY(0px);
      }
      80% {
        transform: rotateY(0deg) translateY(5px);
      }
      100% {
        transform: rotateY(0deg) translateY(0px);
      }
    }
</style>
<g class="lock-body">
<path class="lock-shank" fill-rule="evenodd" clip-rule="evenodd" d="M148 82C148 69.8497 157.85 60 170 60C182.15 60 192 69.8497 192 82V112H184V82C184 74.268 177.732 68 170 68C162.268 68 156 74.268 156 82V92H148V82Z" fill="#D6D7D8"/>
<rect x="140" y="92" width="60" height="48" fill="url(#paint0_linear_2729_3841)"/>
<path fill-rule="evenodd" clip-rule="evenodd" d="M173.207 120.072C174.886 119.008 176 117.134 176 115C176 111.686 173.314 109 170 109C166.686 109 164 111.686 164 115C164 117.134 165.114 119.008 166.793 120.072L166 128H174L173.207 120.072Z" fill="#3E3D4C"/>
</g>
<path d="M65.5601 191.308C65.5601 191.192 66.7131 188.02 68.0981 184.213L70.6361 177.291L77.0961 177.118L83.4991 176.945L86.2671 179.252C88.5751 181.214 99.0631 186.799 100.399 187.559C101.29 188.065 102.466 189.353 103.925 191.423C78.3481 191.385 65.5601 191.346 65.5601 191.308V191.308Z" fill="#80AEF2"/>
<path d="M32 191.308C32 191.192 33.154 188.02 34.538 184.213L37.076 177.291L43.536 177.118L49.939 176.945L52.708 179.252C55.015 181.214 65.503 186.799 66.84 187.559C67.73 188.065 68.906 189.353 70.365 191.423C44.788 191.385 32 191.346 32 191.308Z" fill="#94BBF8"/>
<path d="M75.655 109.836C76.745 112.994 77.481 115.734 77.863 118.056C78.243 120.377 80.381 140.211 84.274 177.556H66.296C64.852 174.938 64.13 173.099 64.13 172.038C64.13 170.448 65.043 168.268 65.043 165.97C65.043 164.438 63.009 159.147 58.939 150.099L62.87 110.75L75.655 109.836V109.836Z" fill="#1D225F"/>
<path fill-rule="evenodd" clip-rule="evenodd" d="M50.5541 177.555H33.7601C33.3601 176.17 32.9681 174.301 32.5851 171.949C31.8351 167.161 32.4051 163.989 35.6351 157.413C38.8651 150.895 40.5011 147.341 40.5011 143.649C40.5591 137.881 41.7231 132.333 44.7811 126.334C47.1451 121.604 48.2761 121.248 48.5061 118.364L48.9261 112.162H70.0041C70.5161 113.595 70.7001 116.237 70.5541 120.087C70.4091 123.937 63.7421 143.093 50.5531 177.555H50.5541Z" fill="url(#paint1_linear_2729_3841)"/>
<path d="M95.9399 50.818L112.78 29.988H132.971L115.532 50.818H95.9399Z" fill="#98BDF9"/>
<path d="M118.14 27.384C119.518 27.384 120.646 28.454 120.737 29.809L120.743 29.988H120.165C120.165 28.869 119.258 27.963 118.14 27.963C117.021 27.963 116.115 28.869 116.115 29.988C116.115 31.05 116.933 31.922 117.974 32.006L118.14 32.013V32.591C116.702 32.591 115.536 31.426 115.536 29.988C115.536 28.55 116.702 27.384 118.14 27.384V27.384ZM125.083 27.384C126.461 27.384 127.589 28.454 127.681 29.809L127.687 29.988H127.108C127.108 28.869 126.202 27.963 125.083 27.963C123.965 27.963 123.058 28.869 123.058 29.988C123.058 31.05 123.876 31.922 124.917 32.006L125.083 32.013V32.591C123.645 32.591 122.479 31.426 122.479 29.988C122.479 28.55 123.645 27.384 125.083 27.384V27.384Z" fill="#2174DB"/>
<path d="M94.4722 54.8291C97.2792 53.8671 100.026 52.5301 102.714 50.8181H109.585C107.21 52.9881 105.613 54.5241 104.794 55.4281C103.974 56.3311 102.285 58.0661 99.7262 60.6331C98.6352 66.4141 97.4722 68.8431 96.2392 67.9181C94.3892 66.5321 88.3002 57.0211 94.4722 54.8281V54.8291Z" fill="#F3A29D"/>
<path d="M98.2542 60.6541C102.617 58.9861 105.433 57.7971 106.701 57.0871C108.201 56.2221 108.778 55.4141 110.508 51.7801C110.738 51.3191 111.2 49.4151 111.604 47.6271C112.527 43.0701 114.027 43.3011 114.142 47.9731C114.2 49.2431 114.488 50.3961 114.834 50.5111C115.122 50.6271 116.795 49.0111 118.468 46.9351C120.141 44.8581 121.756 43.1851 122.044 43.1851C122.736 43.1851 122.736 48.4921 121.987 50.3381C121.698 51.2031 117.257 56.0481 112.123 61.1821C108.701 64.6051 103.692 69.2501 97.0972 75.1191L98.2542 60.6541V60.6541Z" fill="#FAB6AF"/>
<path d="M78.5812 35.7741C79.3532 32.6881 80.1242 30.7591 80.8962 29.9871C79.7392 28.8301 78.5812 27.6731 76.2662 26.5161C75.4962 28.0591 73.9522 29.6021 71.6382 31.1451C71.6382 33.4591 72.4092 35.0021 73.9522 35.7741C75.4952 36.5451 77.0382 36.5451 78.5822 35.7741H78.5812Z" fill="#F3A29D"/>
<path d="M48.858 113.16C46.493 112.986 42.628 112.179 40.378 111.429L36.168 110.044L36.053 105.718C35.764 93.778 36.63 85.068 39.341 73.936C43.032 58.65 53.646 43.019 66.509 33.847C71.469 30.271 71.585 30.271 73.027 32.694C73.661 33.847 74.987 35.001 75.911 35.347L78.072 35.941C75.5 65 76.202 89.571 81.603 108.858C80.446 110.016 79.657 110.54 78.795 110.91C77.756 111.313 76.43 111.717 75.738 111.775C75.045 111.833 72.738 112.294 70.488 112.813C66.278 113.736 57.106 113.909 48.858 113.159V113.16Z" fill="url(#paint2_linear_2729_3841)"/>
<path fill-rule="evenodd" clip-rule="evenodd" d="M94.4721 54.828L96.2391 66.139L76.2671 68.784L77 53C79.141 54.735 81.7171 55.907 83.9811 56.254C86.2441 56.602 89.7421 56.126 94.4721 54.828Z" fill="#D6D7D8"/>
<path d="M98.2541 60.653L103.157 83.798C102.589 84.955 101.147 85.727 98.8331 86.112C93.6251 86.691 88.4181 84.376 82.0531 84.376C75.6881 84.376 75.9631 88.426 66.7051 84.956C60.5331 82.641 58.0251 72.226 59.1821 53.71L77 52C76.922 57.782 77.8911 61.232 79.4341 62.389C80.9461 63.523 87.0031 62.99 97.6041 60.789L98.2541 60.653Z" fill="#E9E9E9"/>
<path d="M90.3051 15.4439C91.3751 16.9639 91.7931 18.9799 91.5581 21.4929C91.4961 22.1489 91.1821 22.3759 91.1821 23.5449C91.1821 24.6649 91.2521 26.0509 91.3941 27.7019L89.0771 27.8629C86.8551 30.2749 84.5031 31.3429 82.0221 31.0699C79.5421 30.7949 77.7711 29.7269 76.7121 27.8629C74.5321 23.8399 75.0911 20.4189 78.3871 17.6009C81.6831 14.7829 85.6561 14.0639 90.3051 15.4439V15.4439Z" fill="#FAB6AF"/>
<path fill-rule="evenodd" clip-rule="evenodd" d="M79.646 8C82.244 8 85.363 9.017 87.64 10.74C89.917 12.462 91.485 13.76 92.19 15.837C92.66 17.221 92.438 19.151 91.526 21.628C91.656 19.283 91.478 17.981 90.993 17.722C90.323 19.375 89.398 19.709 88.29 20.509C87.67 20.957 85.499 21.027 83.373 21.406C80.745 23.128 79.07 24.736 78.506 26.266C78.058 27.484 78.104 28.874 78.654 30.443L78.78 30.782L78.24 30.992C77.526 29.159 77.43 27.514 77.963 26.067C78.485 24.65 79.813 23.229 81.857 21.746C80.767 22.053 79.806 22.5 79.223 23.195C77.944 24.721 77.195 26.96 76.977 29.911C74.211 29.411 71.672 28.478 69.36 27.111C67.048 25.745 64.915 23.917 62.962 21.628C63.358 20.794 63.866 20.104 64.483 19.558C65.154 18.966 66.418 18.45 67.652 17.736L67.587 17.757L66.383 18.158C65.123 18.582 64.427 18.871 63.988 19.19C63.158 19.791 62.728 20.465 62.675 21.222L62.67 21.413L62.091 21.42C62.079 20.381 62.607 19.477 63.648 18.721C64.075 18.411 64.661 18.148 65.631 17.805L67.387 17.215L67.997 17.002C68.591 16.789 69.061 16.601 69.436 16.418C70.732 15.019 71.606 12.447 73.526 10.74C75.641 8.855 77.048 8 79.645 8H79.646Z" fill="#E94A47"/>
<path d="M84.3598 21.5751C84.9568 19.9351 86.5298 18.9781 87.8948 19.4751C88.9558 19.8611 89.5488 20.9991 89.4808 22.2561C89.8408 22.1651 90.1698 22.1191 90.4688 22.1201L90.6768 22.1271C90.9318 22.1471 91.1428 22.1831 91.3128 22.2411C91.8248 20.9701 93.0208 20.2181 94.0628 20.5971C95.1328 20.9871 95.5608 22.4001 95.0748 23.7371C94.5878 25.0741 93.3518 25.8811 92.2808 25.4911C91.3278 25.1441 90.8838 23.9871 91.1408 22.7941C91.0378 22.7561 90.8668 22.7221 90.6328 22.7041C90.2988 22.6791 89.8958 22.7331 89.4248 22.8691L89.3938 22.8791C89.3578 23.0381 89.3108 23.1971 89.2538 23.3561C88.6568 24.9961 87.0838 25.9531 85.7178 25.4561C84.3518 24.9591 83.7628 23.2151 84.3598 21.5751V21.5751ZM93.8638 21.1411C93.1338 20.8751 92.1998 21.4841 91.8118 22.5491C91.4248 23.6151 91.7478 24.6811 92.4788 24.9471C93.2098 25.2131 94.1428 24.6041 94.5308 23.5391C94.9188 22.4741 94.5948 21.4071 93.8638 21.1411ZM87.6968 20.0191C86.6608 19.6421 85.3998 20.4091 84.9038 21.7731C84.4078 23.1361 84.8798 24.5351 85.9158 24.9131C86.9518 25.2891 88.2138 24.5211 88.7098 23.1581C89.2058 21.7951 88.7328 20.3961 87.6968 20.0181V20.0191Z" fill="#222768"/>
<defs>
<linearGradient id="paint0_linear_2729_3841" x1="140" y1="92" x2="158.924" y2="152.788" gradientUnits="userSpaceOnUse">
<stop stop-color="#E8B73F"/>
<stop offset="1" stop-color="#CF9F36"/>
</linearGradient>
<linearGradient id="paint1_linear_2729_3841" x1="53.3662" y1="112.162" x2="38.2601" y2="175.224" gradientUnits="userSpaceOnUse">
<stop stop-color="#2A318C"/>
<stop offset="1" stop-color="#1D225F"/>
</linearGradient>
<linearGradient id="paint2_linear_2729_3841" x1="58.8015" y1="31" x2="58.8015" y2="113.628" gradientUnits="userSpaceOnUse">
<stop stop-color="#EEEEEE"/>
<stop offset="1" stop-color="#D6D7D8"/>
</linearGradient>
</defs>
</svg>
