<!--
  - Copyright (c) 2024. Devtron Inc.
  -
  - Licensed under the Apache License, Version 2.0 (the "License");
  - you may not use this file except in compliance with the License.
  - You may obtain a copy of the License at
  -
  -     http://www.apache.org/licenses/LICENSE-2.0
  -
  - Unless required by applicable law or agreed to in writing, software
  - distributed under the License is distributed on an "AS IS" BASIS,
  - WITHOUT WARRANTIES OR CONDITIONS OF ANY KIND, either express or implied.
  - See the License for the specific language governing permissions and
  - limitations under the License.
  -->

<svg data-style-override="false" width="214px" height="56px" viewBox="0 0 214 56" version="1.1" xmlns="http://www.w3.org/2000/svg" xmlns:xlink="http://www.w3.org/1999/xlink">
    <!-- Generator: Sketch 57.1 (83088) - https://sketch.com -->
    <title>ic-nav-logo</title>
    <desc>Created with Sketch.</desc>
    <g id="Assets" stroke="none" stroke-width="1" fill="none" fill-rule="evenodd">
        <g id="ic-nav-logo">
            <g id="favicon">
                <rect id="ic-nav-logo" x="0" y="0" width="214" height="56"></rect>
                <g id="Group-10" transform="translate(72.000000, 13.000000)" fill="#FFFFFF">
                    <path d="M10.3567954,24.9522175 C11.4343348,24.9522175 12.3015737,24.7336195 12.9567954,24.2967096 C13.6123033,23.8597997 14.1218884,23.3135908 14.4864092,22.658083 C14.8503577,22.0025751 15.090701,21.2964235 15.2074392,20.5384835 C15.3236052,19.781402 15.3822604,19.0821173 15.3822604,18.4409156 C15.3822604,17.8005722 15.3236052,17.1012876 15.2074392,16.3433476 C15.090701,15.5862661 14.8503577,14.8795422 14.4864092,14.2240343 C14.1218884,13.5685265 13.6123033,13.0223176 12.9567954,12.5854077 C12.3015737,12.1482117 11.4343348,11.9298999 10.3567954,11.9298999 C9.27868383,11.9298999 8.41230329,12.1482117 7.75679542,12.5854077 C7.10128755,13.0223176 6.59856938,13.5685265 6.24921316,14.2240343 C5.89957082,14.8795422 5.66609442,15.5862661 5.54992847,16.3433476 C5.43319027,17.1012876 5.3751073,17.8005722 5.3751073,18.4409156 C5.3751073,19.0821173 5.43319027,19.781402 5.54992847,20.5384835 C5.66609442,21.2964235 5.89957082,22.0025751 6.24921316,22.658083 C6.59856938,23.3135908 7.10128755,23.8597997 7.75679542,24.2967096 C8.41230329,24.7336195 9.27868383,24.9522175 10.3567954,24.9522175 L10.3567954,24.9522175 Z M15.3822604,9.91383308 L15.3822604,6.03961325e-14 L20.5825465,6.03961325e-14 L20.5825465,18.3974249 C20.5825465,19.9124464 20.4363376,21.2377682 20.1453505,22.3739628 C19.8537911,23.5101574 19.4680973,24.4932761 18.9874106,25.3236052 C18.5067239,26.1539342 17.960515,26.8389127 17.348784,27.3776824 C16.7370529,27.9170243 16.1101574,28.3608011 15.4695279,28.7104435 C13.9545064,29.4969957 12.2503577,29.904721 10.3567954,29.9339056 C8.40457797,29.904721 6.67095851,29.4969957 5.1565093,28.7104435 C4.51559371,28.3608011 3.88183119,27.9170243 3.25579399,27.3776824 C2.62889843,26.8389127 2.0758226,26.1613734 1.59513591,25.3456366 C1.11444921,24.530186 0.727896996,23.5539342 0.436909871,22.4177396 C0.145636624,21.2815451 -2.30926389e-14,19.9562232 -2.30926389e-14,18.4409156 C-2.30926389e-14,16.9264664 0.137911302,15.6005722 0.415164521,14.4643777 C0.691845494,13.3281831 1.05550787,12.3450644 1.50758226,11.5147353 C1.95908441,10.6844063 2.46895565,9.99284692 3.03719599,9.43891273 C3.60515021,8.88583691 4.19513591,8.43376252 4.80686695,8.08440629 C6.20543634,7.26895565 7.80715308,6.83204578 9.61402003,6.77339056 C10.5167382,6.86065808 11.3905579,7.07925608 12.2357654,7.42889843 C12.9636624,7.74964235 13.7067239,8.23719599 14.4646638,8.89270386 C14.9693848,9.32970911 15.2752504,9.67008552 15.3822604,9.91383308 Z" id="Fill-5"></path>
                    <path d="M38.4990558,15.6005722 C38.3528469,15.1347639 38.1711588,14.6686695 37.9528469,14.202289 C37.7342489,13.7364807 37.4352504,13.313877 37.0569957,12.9350501 C36.6778827,12.5565093 36.2266667,12.2575107 35.7022031,12.0391989 C35.1777396,11.8206009 34.5660086,11.7113019 33.86701,11.7113019 C33.1677253,11.7113019 32.5559943,11.8206009 32.0315308,12.0391989 C31.5070672,12.2575107 31.0549928,12.5565093 30.6767382,12.9350501 C30.2979113,13.313877 29.9920458,13.7364807 29.7591416,14.202289 C29.5256652,14.6686695 29.3508441,15.1347639 29.2346781,15.6005722 L38.4990558,15.6005722 Z M44.0052074,15.6005722 C44.0632904,16.0374821 44.1145064,16.4895565 44.1579971,16.9553648 C44.201774,17.4217454 44.2235193,17.9167382 44.2235193,18.4409156 L44.2235193,19.2274678 L28.9288126,19.2274678 C28.9868956,19.723319 29.0598569,20.2257511 29.1474106,20.7353362 C29.2346781,21.2452074 29.3803147,21.7479256 29.5843205,22.2429185 C29.9044921,23.0008584 30.3997711,23.6706724 31.0701574,24.2529328 C31.7399714,24.8360515 32.6718741,25.1270386 33.86701,25.1270386 C35.0610014,25.1270386 35.9931903,24.8360515 36.6635765,24.2529328 C37.3333906,23.6706724 37.8283834,23.0008584 38.1494134,22.2429185 L43.8303863,22.2429185 C43.5969099,23.2629471 43.2690129,24.1513591 42.8472675,24.9084406 C42.4243777,25.6663805 41.9579971,26.3218884 41.4486981,26.8749642 C40.9388269,27.4288984 40.3923319,27.8875536 39.8100715,28.2515021 C39.2269528,28.6160229 38.6587124,28.9144492 38.1056366,29.1473534 C36.7654363,29.6718169 35.3525608,29.9339056 33.86701,29.9339056 C31.9147926,29.904721 30.1811731,29.4969957 28.6667239,28.7104435 C28.0255222,28.3608011 27.3917597,27.9170243 26.7657225,27.3776824 C26.1388269,26.8389127 25.5857511,26.1613734 25.1050644,25.3456366 C24.6243777,24.530186 24.2381116,23.5539342 23.9471245,22.4177396 C23.6555651,21.2815451 23.5102146,19.9562232 23.5102146,18.4409156 C23.5102146,16.9264664 23.6555651,15.6005722 23.9471245,14.4643777 C24.2381116,13.3281831 24.6243777,12.3450644 25.1050644,11.5147353 C25.5857511,10.6844063 26.1388269,9.99284692 26.7657225,9.43891273 C27.3917597,8.88583691 28.0255222,8.43376252 28.6667239,8.08440629 C30.1811731,7.26895565 31.9147926,6.83204578 33.86701,6.77339056 C35.4687268,6.83204578 36.9694421,7.16652361 38.3680114,7.77825465 C38.9502718,8.04062947 39.5402575,8.38340486 40.1376824,8.80543634 C40.7345351,9.22804006 41.2881831,9.75221745 41.7983405,10.3785408 C42.3076395,11.0054363 42.7597139,11.7482117 43.153133,12.6071531 C43.5462661,13.4669528 43.8303863,14.4643777 44.0052074,15.6005722 L44.0052074,15.6005722 Z" id="Fill-7"></path>
                    <polygon id="Fill-9" points="57.2454936 29.4969671 53.6620887 29.4969671 46.4517883 7.34131617 51.8268956 7.34131617 57.2454936 23.9035479 62.6640916 7.34131617 68.0391989 7.34131617 60.8288984 29.4969671"></polygon>
                    <path d="M75.7301574,12.5416309 L75.7301574,22.2866953 C75.8174249,22.6360515 75.9773677,22.9570815 76.2108441,23.2480687 C76.4142775,23.4815451 76.6983977,23.7001431 77.0629185,23.9035765 C77.426867,24.1075823 77.9001144,24.2094421 78.4832332,24.2094421 L81.8042632,24.2094421 L81.8042632,29.4969957 L76.4729328,29.4969957 C75.3367382,29.3808298 74.3167096,29.0600858 73.4139914,28.5356223 C72.6560515,28.0987124 71.9644921,27.4506438 71.3384549,26.5911302 C70.7115594,25.7319027 70.3988269,24.5444921 70.3988269,23.0294707 L70.3988269,4.33476395 L75.7301574,4.33476395 L75.7301574,7.34134478 L80.7556223,7.34134478 L80.7556223,12.5416309 L75.7301574,12.5416309 Z" id="Fill-11"></path>
                    <path d="M84.294907,13.8088984 C84.294907,12.2944492 84.6150787,11.1070386 85.2562804,10.247525 C85.8966237,9.38829757 86.5959084,8.73965665 87.3538484,8.30274678 C88.2565665,7.77828326 89.2765951,7.45811159 90.4127897,7.34137339 L96.5306724,7.34137339 L96.5306724,12.628927 L92.4230901,12.628927 C91.8399714,12.628927 91.3667239,12.7313591 91.0027754,12.9347926 C90.6382546,13.1390844 90.3541345,13.3576824 90.150701,13.5903004 C89.9172246,13.8818598 89.7572818,14.2023176 89.6700143,14.5516738 L89.6700143,29.4970243 L84.294907,29.4970243 L84.294907,13.8088984 Z" id="Fill-13"></path>
                    <path d="M109.203147,11.929814 C108.125036,11.929814 107.258369,12.148412 106.602861,12.5853219 C105.947639,13.0222318 105.444921,13.5684406 105.095279,14.2239485 C104.745923,14.8794564 104.51216,15.5861803 104.39628,16.3435479 C104.279542,17.1014878 104.221459,17.8004864 104.221459,18.4411159 C104.221459,19.0823176 104.279542,19.7813162 104.39628,20.5386838 C104.51216,21.2966237 104.745923,22.0024893 105.095279,22.6579971 C105.444921,23.313505 105.947639,23.8597139 106.602861,24.2966237 C107.258369,24.7338197 108.125036,24.9521316 109.203147,24.9521316 C110.280687,24.9521316 111.147639,24.7338197 111.803147,24.2966237 C112.458655,23.8597139 112.961373,23.313505 113.31073,22.6579971 C113.660372,22.0024893 113.893276,21.2966237 114.010014,20.5386838 C114.12618,19.7813162 114.184835,19.0823176 114.184835,18.4411159 C114.184835,17.8004864 114.12618,17.1014878 114.010014,16.3435479 C113.893276,15.5861803 113.660372,14.8794564 113.31073,14.2239485 C112.961373,13.5684406 112.458655,13.0222318 111.803147,12.5853219 C111.147639,12.148412 110.280687,11.929814 109.203147,11.929814 M98.8463519,18.4411159 C98.8463519,16.9266667 98.9917024,15.6004864 99.2832618,14.4642918 C99.5742489,13.3280973 99.9608011,12.3449785 100.441488,11.5146495 C100.922175,10.6843205 101.47525,9.99276109 102.10186,9.4388269 C102.728183,8.88575107 103.36166,8.4339628 104.002861,8.08432046 C105.51731,7.26886981 107.25093,6.83195994 109.203147,6.77330472 C111.125894,6.83195994 112.844635,7.26886981 114.359657,8.08432046 C115,8.4339628 115.633763,8.88575107 116.260658,9.4388269 C116.886695,9.99276109 117.440343,10.6843205 117.92103,11.5146495 C118.401717,12.3449785 118.795136,13.3280973 119.101001,14.4642918 C119.406867,15.6004864 119.559943,16.9266667 119.559943,18.4411159 C119.559943,19.9561373 119.406867,21.2814592 119.101001,22.4176538 C118.795136,23.5538484 118.401717,24.5303863 117.92103,25.3455508 C117.440343,26.1615737 116.886695,26.8388269 116.260658,27.3775966 C115.633763,27.9169385 115,28.3607153 114.359657,28.7103577 C112.844635,29.4969099 111.125894,29.9046352 109.203147,29.9338197 C107.25093,29.9046352 105.51731,29.4969099 104.002861,28.7103577 C103.36166,28.3607153 102.728183,27.9169385 102.10186,27.3775966 C101.47525,26.8388269 100.922175,26.1615737 100.441488,25.3455508 C99.9608011,24.5303863 99.5742489,23.5538484 99.2832618,22.4176538 C98.9917024,21.2814592 98.8463519,19.9561373 98.8463519,18.4411159" id="Fill-15"></path>
                    <path d="M131.926781,6.77330472 C132.014049,6.77330472 132.326781,6.78818312 132.866409,6.81708155 C133.404893,6.84626609 134.038655,6.96987124 134.767124,7.18846924 C135.495021,7.40706724 136.267268,7.74984263 137.08329,8.21536481 C137.898455,8.68174535 138.656395,9.35155937 139.35568,10.2256652 C140.054964,11.099485 140.629785,12.199628 141.08186,13.5249499 C141.533076,14.8508441 141.759113,16.4894707 141.759113,18.4411159 L141.759113,29.4969099 L136.427783,29.4969099 L136.427783,18.4411159 C136.427783,17.8004864 136.369127,17.1449785 136.252961,16.4745923 C136.136223,15.8047783 135.917625,15.1930472 135.597454,14.639113 C135.27671,14.0860372 134.825207,13.627382 134.242947,13.2625751 C133.659828,12.8986266 132.888155,12.7163662 131.926781,12.7163662 C130.965408,12.7163662 130.193162,12.8986266 129.610615,13.2625751 C129.027496,13.627382 128.57628,14.0860372 128.256109,14.639113 C127.935079,15.1930472 127.716481,15.8047783 127.600601,16.4745923 C127.483863,17.1449785 127.42578,17.8004864 127.42578,18.4411159 L127.42578,29.4969099 L122.094449,29.4969099 L122.094449,18.4411159 C122.094449,16.4894707 122.319628,14.8508441 122.771702,13.5249499 C123.223205,12.199628 123.798598,11.099485 124.497883,10.2256652 C125.197167,9.35155937 125.954249,8.68174535 126.770272,8.21536481 C127.585436,7.74984263 128.357682,7.40706724 129.086438,7.18846924 C129.814049,6.96987124 130.440944,6.84626609 130.965408,6.81708155 C131.489871,6.78818312 131.810043,6.77330472 131.926781,6.77330472" id="Fill-17"></path>
                </g>
                <g id="Group-3" transform="translate(0.000000, 3.500000)" fill="#0066CC">
                    <path d="M54.7069732,21.2934447 L44.5216592,5.41461518 C43.9789202,4.29811108 42.7457403,3.57970297 41.3775312,3.81480246 C40.1513431,4.02543063 39.1716162,5.04973028 39.0042499,6.28203617 C38.9242811,6.87022189 39.0208554,7.42956641 39.2472151,7.91637094 L39.2441562,7.93166551 L39.286981,7.99896165 C39.3748156,8.17331982 39.4796927,8.33762728 39.5994274,8.49013605 L40.7495796,10.299266 L46.8818308,19.835216 L46.8599814,19.8461407 C47.4992947,20.7362851 47.5722717,21.9074127 47.0098683,22.8482476 C45.2680345,25.762957 41.4518191,31.9812949 40.590953,32.9977287 C39.9341601,33.5990241 39.0593103,33.9040416 38.1709139,33.8406784 L33.3876443,33.4985169 C32.3371254,33.3827151 31.7825878,32.1958559 32.3681515,31.3161993 L34.3437739,28.2655867 C34.447777,28.1353643 34.5386705,27.9950912 34.6155803,27.8456413 L34.6190762,27.8408345 C34.6195132,27.8395235 34.6199502,27.8382125 34.6203872,27.8369016 C34.8786471,27.3304326 34.9734734,26.7269523 34.8292674,26.0941938 C34.6195132,25.1725863 33.870516,24.423589 32.9480345,24.2168938 C31.701745,23.9376585 30.5629545,24.5769718 30.07615,25.5890358 L17.0984832,45.4479511 C16.092974,46.9870225 17.1089709,49.0836905 18.9451941,49.1697771 C18.9867079,49.171962 19.0286588,49.172836 19.0710466,49.172836 L37.8986705,49.1557935 C39.4962983,49.1544825 40.9785612,48.3224576 41.8123341,46.9594923 L54.7594118,25.7922352 C55.6067313,24.4069835 55.5866299,22.6585949 54.7069732,21.2934447" id="Fill-1"></path>
                    <path d="M0.663892477,27.787216 L10.7784145,43.7110553 C11.3159096,44.8301813 12.5460306,45.5542703 13.9151137,45.3252886 C15.1421757,45.1203413 16.1262725,44.0999745 16.2997567,42.8685426 C16.3823474,42.2807939 16.287958,41.7210124 16.0637832,41.2333339 L16.0668421,41.2180393 L16.0240173,41.1503062 C15.9370567,40.975511 15.8330536,40.8107666 15.7141929,40.6578208 L14.5719065,38.843447 L8.48248007,29.2804037 L8.50432947,29.269916 C7.86938604,28.3767127 7.80121593,27.2051481 8.36755225,26.2669351 C10.1224957,23.3600916 13.9666783,17.1587962 14.8323513,16.1462952 C15.4913291,15.5476218 16.3679268,15.2465371 17.2554492,15.3142703 L22.0374079,15.6774072 C23.0874898,15.7980159 23.6367836,16.987497 23.0472869,17.8645317 L21.057681,20.9059675 C20.9536779,21.0357529 20.8619104,21.176026 20.7841266,21.3246019 L20.7810677,21.3294088 C20.7801937,21.3307197 20.7801937,21.3320307 20.7793197,21.3337787 C20.5188749,21.8384997 20.4214266,22.44198 20.5625737,23.0751755 C20.768395,23.9976569 21.5138964,24.7501501 22.4355039,24.9607783 C23.6804824,25.2456944 24.8223318,24.6116249 25.3135062,23.6013089 L38.3798816,3.80094994 C39.3923825,2.26624842 38.3855624,0.165210576 36.5497762,0.0708211888 C36.5082624,0.0686362493 36.4663115,0.0673252856 36.4239237,0.0673252856 L17.5962998,6.03961325e-14 C15.998672,-0.00565169455 14.5129132,0.81938147 13.6730224,2.17885084 L0.631555372,23.2879886 C-0.221882006,24.6697443 -0.209646344,26.4181329 0.663892477,27.787216" id="Fill-3"></path>
                </g>
            </g>
        </g>
    </g>
</svg>
