<!--
  - Copyright (c) 2024. Devtron Inc.
  -
  - Licensed under the Apache License, Version 2.0 (the "License");
  - you may not use this file except in compliance with the License.
  - You may obtain a copy of the License at
  -
  -     http://www.apache.org/licenses/LICENSE-2.0
  -
  - Unless required by applicable law or agreed to in writing, software
  - distributed under the License is distributed on an "AS IS" BASIS,
  - WITHOUT WARRANTIES OR CONDITIONS OF ANY KIND, either express or implied.
  - See the License for the specific language governing permissions and
  - limitations under the License.
  -->

<svg data-style-override="false" width="250" height="200" viewBox="0 0 250 200" fill="none" xmlns="http://www.w3.org/2000/svg"><style>@keyframes rotation{0%{transform:rotate(0deg)}to{transform:rotate(360deg)}}@keyframes jump{0%,10%,to{transform:translateY(0)}50%{transform:translateY(-25px)}}@keyframes trumpet-animate{0%{transform:rotate(0deg)}to{transform:rotate(8deg)}}@keyframes sway{0%{transform:rotate(-5deg)}to{transform:rotate(5deg)}}</style><path fill-rule="evenodd" clip-rule="evenodd" d="M89 32c-7.732 0-14 6.268-14 14s6.268 14 14 14 14-6.268 14-14-6.268-14-14-14M73 46c0-8.837 7.163-16 16-16s16 7.163 16 16-7.163 16-16 16-16-7.163-16-16" fill="#A1C3FC" style="animation:rotation 2s infinite linear;transform-origin:32% 25%"/><path d="M63.5 53 40 51.5l10.5 18z" fill="#A1C3FC" style="animation:rotation 5s infinite ease;transform-origin:20% 28%"/><path transform="rotate(-34 89.284 29.099)" fill="#F1B505" style="animation:rotation 6s infinite linear;transform-origin:center center" d="M89.284 29.099h15v15h-15z"/><path fill-rule="evenodd" clip-rule="evenodd" d="m162.798 27.858 25.342 16.331-30.974 12.953zm1.405 3.284-4.369 22.716 24.026-10.047z" fill="#EEE" style="animation:rotation 3s infinite linear;transform-origin:center center"/><path fill-rule="evenodd" clip-rule="evenodd" d="M188.925 30.768a5.5 5.5 0 0 1 7.703-1.082l16.771 12.638a5.5 5.5 0 1 1-6.62 8.785L190.008 38.47a5.5 5.5 0 0 1-1.083-7.703m6.499.515a3.5 3.5 0 1 0-4.213 5.59l16.772 12.638a3.5 3.5 0 1 0 4.212-5.59z" fill="#A1C3FC" style="animation:rotation 3s infinite alternate-reverse ease-in-out;transform-origin:80% 25%"/><path class="pill-grey-border" fill-rule="evenodd" clip-rule="evenodd" d="M59.87 88.151a2 2 0 0 1 1.702-2.258l6.932-.975a2 2 0 1 1 .556 3.961l-6.931.975a2 2 0 0 1-2.26-1.703m1.841-1.268a1 1 0 1 0 .278 1.98l6.932-.974a1 1 0 0 0-.278-1.98z" fill="#EEE"/><path fill-rule="evenodd" clip-rule="evenodd" d="M66 65.5a5.5 5.5 0 1 0 0 11 5.5 5.5 0 0 0 0-11M59.5 71a6.5 6.5 0 1 1 13 0 6.5 6.5 0 0 1-13 0" fill="#F1B505" style="animation:rotation 3s infinite linear;transform-origin:center center"/><circle cx="52.5" cy="82.5" r="4.5" fill="#EEE" style="animation:rotation 4s infinite linear;transform-origin:center center"/><g style="animation:jump 2s infinite ease-out"><path d="M120.5 76.5c-.669-1.505-1.496-2.118-1.427-2.68-.84-.103-1.682-.206-2.995.06.178.875-1.126 2.253-1.578 3.62.738.944 1.914 1.82 3.5 1.5 1.678-.339 2.116-1.693 2.5-2.5" fill="#F3A29D"/><path d="M118 65.05c.921.28 2.011.806 2.716 1.907.184.287.128.48.501.957.357.457.827 1.158 1.411 1.786l-.894.646c-.138 1.693-.165 2.686-1.734 3.654-1.099.678-3.5 1-4.5.5-3.256-1.628-3.946-2.8-3.5-5s3.663-3.531 6-4.45" fill="#FFBEB5"/><path d="M118.913 70.426c-.444-.711-.341-1.59.251-1.96.46-.287 1.066-.175 1.521.223q.108-.245.241-.414l.064-.077q.124-.136.231-.207c-.329-.57-.26-1.245.191-1.527.464-.29 1.126-.034 1.488.546s.302 1.286-.162 1.576c-.413.258-.983.084-1.358-.366a1 1 0 0 0-.184.165 1.7 1.7 0 0 0-.295.506l-.006.015a2 2 0 0 1 .14.194c.444.71.341 1.59-.251 1.96s-1.427.077-1.871-.634m2.646-3.726c-.316.198-.362.731-.074 1.193.29.462.789.655 1.105.457.317-.198.363-.731.074-1.193-.288-.462-.788-.655-1.105-.457m-2.248 2.002c-.449.281-.532.985-.162 1.576.369.591 1.038.826 1.488.546.448-.281.531-.986.162-1.577-.37-.59-1.039-.825-1.488-.545" fill="#222768"/><path d="M160.699 114.727 152.5 119l2 6.5c1.058.62 4.184 2.626 5.26 3.562 1.343 1.169 3.434 3.281 4.684 4.16.999.703 2.044.639 2.526.804z" fill="#4484F7"/><path d="M123 118c-3.2-1.2-4.333-6.833-4.5-9.5l-9 13.5c.833 1.833 3.6 6.4 8 10s26.833-2.5 37.5-6l-2-7.5c-1.167-.667-4-1.5-6-1.5-2.5 0-3.5 2-7.5 2s-2.5-1-6-1-6.5 1.5-10.5 0" fill="url(#paint0_linear_3746_4340)"/><path d="M133 53.5c0 2-2 8.5-3 11.5h7.5c-.5-4.833-1.4-14.8-1-16 .5-1.5 2.5-4 2.5-6.5 0-2-1.667-3.5-2.5-4-.667 1.333-1.6 4-2 4-.5 0-1-4.5-1.5-4.5s-.5 1-.5 1.5.271 6.5-.5 6.5c-.5 0-1-1.5-1.5-2-.349-.349-.977-.47-1.353-.495a.093.093 0 0 0-.092.13c1.05 2.557 3.945 7.9 3.945 9.865" fill="url(#paint1_linear_3746_4340)"/><path d="m129.813 168.996-6.853-6.562-6.243 3.752c.283 1.314-1.547 4.056-2.217 5.314-.837 1.573-2.425 4.085-3 5.5-.46 1.132.052 2.493 0 3z" fill="#4484F7"/><path d="M88 92.5c2 0 8-5.5 12-8l4 5c-4.833 2-14.9 6.2-16.5 7-1.957.979-2.957 1.957-4.873 3.404a.096.096 0 0 1-.154-.061c-.348-2.406 2.516-3.864 2.027-4.843-.5-1-4-.5-5.5-.5-1.006 0-1.965-1.054-2.347-1.69-.088-.146.022-.31.193-.303 1.465.05 4.154.362 4.154-.007 0-.342-2.07-.465-3.4-.493-.193-.004-.263-.236-.096-.331.76-.433 1.86-.876 2.496-.876 1 0 6 1.7 8 1.7" fill="url(#paint2_linear_3746_4340)"/><path d="M121.5 106.5c0-3.6-1.333-6.833-2-8l-13-1.5c.167.5.6 2.5 1 6.5.5 5-3 24.5-2.5 31.5.4 5.6 7.833 24 11.5 32.5l7.5-4.5c0-2.333-.1-7.5-.5-9.5-.5-2.5-2-3-2.5-5.5s.5-4 0-7.5-3.5-5.5-4-12 4.5-17.5 4.5-22" fill="#EEE"/><path d="M137.5 70c.4-2.4.5-5.667.5-7l-12-.5c-.333 2.333-1.2 7.6-2 10s-3 2.667-4 2.5c-.833 1-2.7 3-3.5 3s-.667-2-.5-3c-2 0-4.5 1.5-7 3.5-1.562 1.25-8.833 9.567-12 13.9 1 1.667 3 6.1 8.5 8.1 5.254 1.91 11.5-1 16-1 1.6 0 3.667.333 4.5.5 0-3.167.3-10.4 1.5-14 1.5-4.5 9.083-10.5 10-16" fill="url(#paint3_linear_3746_4340)"/><path d="M119.5 65.7c-.167.833-.868 3.168-1.5 3.8-.781.78-1.487.81-2.164.838-.624.026-1.225.05-1.836.662-1 1-.5 2.5.5 2.5.609 0 2 .414 2 1.5 0 .5-1 2.5-2 4-.243.365-.546.878-.894 1.468-1.08 1.831-2.593 4.397-4.106 5.532-2 2-5 4-6.5 4.5-1.667-1-5.3-3.5-6.5-5.5s-2.833-5.5-3.5-7c1.333-1 4.7-3 7.5-3 1.175 0 2.407.17 3.601.394-1.315-.403-2.667-.744-4.101-.744-2.755 0-5.59 1.48-6.91 2.47l-.18-.24c1.348-1.01 4.246-2.53 7.09-2.53 1.777 0 3.422.508 4.983 1.007l.171.055c1.506.482 2.928.938 4.346.938.726 0 1.652-.034 2.524-.103a17.5 17.5 0 0 0 2.203-.642c.089-.033.085-.163-.004-.196-1.237-.452-3.352-1.815-3.723-4.409-.5-3.5 2.5-5.5 4-6 1.2-.4 3-.5 5 .7" fill="#1C2868"/></g><circle cx="55" cy="91" r="3" fill="#EEE"/><path d="M36 109c-4-2.4-6.667-9.333-7.5-12.5l-3 1.5c-.333.833-1.7 4.9-4.5 14.5s2.5 12.667 5.5 13c3.167 0 10.1-1 12.5-5s3.333-7.333 3.5-8.5c-.5-.5-2.5-.6-6.5-3" fill="url(#paint4_linear_3746_4340)"/><path d="m42.27 190.99 2.23-11.932h9.406c.735.908 1.726 2.593 3.594 3.942 2.334 1.686 4.684 2.703 6.5 4 1.453 1.038 1.981 3.298 2.5 3.99z" fill="#28306D"/><path d="M56.5 131.5c-2-2-8.5-7.833-11.5-10.5l-18.5 4c0 .667-2.094 4.917 2 8.5 4 3.5 23.877 9.271 24.5 15.5.5 5-6 10-7 12.5s0 5.5-1 7.5-3.5 5-4 6.5c-.4 1.2-.833 3.5-1 4.5h17.5c4.167-11 12.75-32 12-35-.828-3.314-10.5-11-13-13.5" fill="url(#paint5_linear_3746_4340)"/><path d="m32 87.5-4 4-.47-.883 6.182-6.511c1.88-1.848 5-1.406 6.288.894 3.857 6.89 9.802 16.72 11.305 19.547 2.347 4.415 3.521 6.622 4.845 5.918 1.325-.704-2.211-6.199-3.15-7.965s-3.83-5.692-3.5-9c.143-1.435.749-2.852 1.034-3.381l14.373 3.798-.207.677c-.676-.207-2.236.056-3.062 2.76-.573 1.874 2.738 8.839 6.07 15.043 2.158 4.018.742 9.083-3.285 11.224l-.554.295a8 8 0 0 1-10.82-3.308L35.2 87.931c-.611-1.149-2.233-1.302-3.199-.431" fill="url(#paint6_linear_3746_4340)" style="animation:trumpet-animate 2s infinite alternate ease-out;transform-origin:12% 45%"/><g style="animation:sway 3s infinite alternate ease;transform-origin:10% 70%"><path d="m85.883 161.531-5.545-9.425L87 146.5c1.45.041 4.835-.235 6.5-.5 2.081-.331 5.696-.901 7.5-1 1.443-.079 2.681.967 3.268 1.104z" fill="#28306D"/><path d="M70 113.5c-6.364-1.414-24 4.5-34 7.5-3.167 3.333-8.7 10.3-5.5 13.5 4 4 11 3.5 16.5 2 3.992-1.089 12.403-5.279 17.164-7.789a1.03 1.03 0 0 1 1.495.794c.251 2.145.714 5.301 1.341 7.495 1 3.5 4 4.5 5 7s.5 4.5 1.5 7c.8 2 2.333 4.167 3 5l11.5-9.5c-4.167-10-13.5-32-18-33" fill="#428DFC"/></g><path d="M44 112.5c-1.143 1.906-6.5 7-9 8.5l3.5 7c5-4 9.726-13.827 10.5-15 .968-1.466 2.281-2.317 3-5 .575-2.146-.5-6.5-2.5-7-.333 1.664-1.018 3.924-1.5 5-.242.541-.5.649-.5.5 0-1 .912-6.5 0-6.5s-.956 3.463-1.1 4-.4 2.634-.9 2.5c-.537-.144-1.107-1.82-1.5-2.5-.269-.465-1.164-.883-1.67-.429q-.032.028-.024.067c.168.622 3.559 5.754 1.694 8.862" fill="url(#paint7_linear_3746_4340)"/><path d="M28.5 96.5c-1-2-1-4-1-4.5-.931-.376-2.165-.811-3.75-.91-.066 1.057.187 3.483-.75 4.91 1 1.5 4 2 5.5.5" fill="url(#paint8_linear_3746_4340)"/><path d="M15.5 113.5c.8-2.4 5.333-13.5 7.5-18.5.5.6 1 1.6 2.3 2 1.2.3 2.533-.333 3.2-.5-1.5 6.667-5.5 19.5-2 23.5 2.266 2.59 7.5.5 10-1l8.5 13.5c-2 1-6.8 3.2-10 4-4 1-9-.5-13 0s-7 2.5-10-1 2.5-19 3.5-22" fill="#F5F3F3"/><path d="M24.244 82.743c1.168.266 2.318.99 3.205 2.026.279.325.23.543.746 1.041.494.477 1.015 1.049 1.805 1.69l-1 1q.016.276.018.54c-.018-.04-.404.553-.418.76-.032.474.321.574.297.7-.199 1.042-.649 1.878-1.397 2.5-1.179.978-2.684 1.25-4 1.25-2.5 0-4.661-2.093-4.5-4.75s2.653-5.293 5.244-6.757" fill="#FFBABE"/><path fill-rule="evenodd" clip-rule="evenodd" d="m27.752 87.124-.154-.002-.153-.001v.003a1 1 0 0 1-.008.09 1.2 1.2 0 0 1-.056.235.82.82 0 0 1-.408.49.82.82 0 0 1-.638.02 1.2 1.2 0 0 1-.295-.15l-.003-.001-.094.121-.093.122.001.001.002.002.007.004a1 1 0 0 0 .1.065c.066.038.16.087.275.126.227.079.547.125.872-.034.326-.158.486-.439.564-.666a1.6 1.6 0 0 0 .08-.414v-.011" fill="#22276D"/><path fill-rule="evenodd" clip-rule="evenodd" d="m29.07 90.798.067-.129.067-.128-.003-.002-.071-.045a1 1 0 0 1-.175-.148.78.78 0 0 1-.238-.555.78.78 0 0 1 .257-.545 1.2 1.2 0 0 1 .253-.185l.003-.001-.063-.131-.062-.131h-.002l-.002.002-.006.003a1 1 0 0 0-.098.056c-.06.04-.142.099-.224.178-.164.158-.34.407-.346.75-.006.341.161.597.32.76a1.5 1.5 0 0 0 .313.245l.007.004.002.001" fill="#FA7D7D"/><path d="M27.5 82c1 1 .451 3.12-.784 4.366q-.302.3-.623.57c.697-.504 1.33-1.107 1.756-1.8.383-.623.598-1.317.543-2.078s-.38-1.593-1.084-2.491l.085-.067c.715.911 1.05 1.763 1.107 2.55s-.166 1.504-.558 2.142c-.68 1.108-1.872 1.983-3.012 2.596-.891.571-1.947.823-1.94 1.818.01 1.394-1.138 1.34-1.524 1.47-.537.18-1.424.504-1.05 1.205.216.376.633.448 1.05.52s1.617.123 1.834.499c.236.41.2.7 0 1.2-1.112.405-2.878.66-3.8.5-1.669-.288-3.066-1.749-3.5-2.5-1.084-1.878-.843-4.556 2.537-6.508 2.4-1.385 3.096-3.048 5.888-4.326.364-.213 1.924-.817 3.075.334" fill="#A1C3FC"/><path d="m20.53 79.204-8.124 10.781 3.395 2.558-2.107 2.795.6.452 13.24-17.57-.6-.452-3.009 3.993z" fill="#1C2868"/><rect x="8" y="191" width="234" height="1" rx=".5" fill="#EEE"/><g style="animation:sway 2s infinite alternate ease;transform-origin:75% 70%"><path d="m215.047 84.121-9.85 2.257-3.104-8.645c.557-1.274 1.527-4.381 1.889-5.956.453-1.968.865-6.398 1.425-8.037.448-1.31 2.016-1.46 2.348-1.933z" fill="#F1B505"/><path d="M168.426 98.353 185 134l16.5-8c0-4.5 0-13-9.5-16.5-4.381-1.614-6.74-6.315-8.055-9.556-.496-1.223.349-2.59 1.661-2.739L209.5 94.5 202 77l-29.867 11.705c-3.831 1.501-5.133 5.795-3.707 9.648" fill="url(#paint9_linear_3746_4340)"/></g><g style="animation:sway 2s infinite alternate-reverse ease;transform-origin:75% 70%"><path d="m231.159 115.47-9.659-2.97 1.634-9.039c1.12-.825 3.513-3.031 4.614-4.213 1.376-1.478 3.948-5.109 5.252-6.248 1.043-.911 2.476-.257 3-.5z" fill="#F1B505"/><path d="M186.776 89.843 182 135l18.5-3c.5-6.167 2.5-16 0-21-1.304-2.608-1.5-6-.5-6.5s4 3 6 3.5 4-1 6.5 0 3 2 5 3.5c1.6 1.2 3.667 1.5 4.5 1.5l2.5-13.5-30.715-13.697c-3.102-1.384-6.652.662-7.009 4.04" fill="url(#paint10_linear_3746_4340)"/></g><path d="M218.5 128.693c7-1.693 14.289-4.107 21-6.193 3.809-1.278 4.447-.105 1 2-.925.592-1.563.691-1.5 1 .038.266 1.724 1.145 4 1.5 2.277.355 4.528 1.478 4.653 1.693 0 1.307-4.153 3.307-6.653 2.807-2.982-.596-3.5-1.5-6.5-2.5-4 0-8 5-15.5 7.5zm-23 57.526V171.5l-7 2.5 4.355 14.37a3 3 0 0 0 2.871 2.13h9.774c-.5-.5-1.153-.976-1.6-1.2-.6-.3-1.9-.3-2.9-.3-.333-.333-.5-1 1.5-1 1 0 3 1.5 4 2 .69.345 2.421.591 3.526.545.177-.007.232-.222.09-.327-1.967-1.449-5.62-4.218-7.116-4.218-2 0-3.5 0-4.5.5-.564.282-1.491.497-2.223.542-.458.028-.777-.364-.777-.823" fill="#FAB6AF"/><path d="M203 134v-11.5c-1.5.333-5 1.2-7 2-2.5 1-4.087 3-9.5 5.5s-12.5 2.273-12.5 7.5c0 3.5 7.5 7 9.5 11.5.642 1.445 1.5 3.5 2 9 .41 4.509-3 15.5-3 17.5 0 1.6 1 3.333 1.5 4l11.5-4.5c.333-4.5 1-13.8 1-15 0-1.5 1.5-5 3.5-7s10.5-7.5 14-8.5 5.5-1 7.5-1.5c1.6-.4 4.333-2.5 5.5-3.5l-6-12c-1.833.333-6.3 1.4-9.5 3s-5 3.5-8.5 3.5" fill="#23286B"/><path d="M196.5 153.5c.943 1.854 1 2.5 1.452 3.192 1.067.075 2.909-.27 4.548-.692-.282-1.092-1.08-2.796-.6-4.55-1.4-.95-2.453-.694-3.4-.45s-1.9 1.186-2 2.5" fill="url(#paint11_linear_3746_4340)"/><path d="M200.078 167.222C199 166 199.342 165.42 198.5 164c-.219-.371-.316-.158-1-.5-1-.5-2.183-.286-3-1.5l1.5-1.5c-.5-2 .409-4.025 2.39-4.966 1.418-.808 3.834-1.113 5.11-.534 2.699 1.29 3.661 3.243 3 6-.66 2.757-3.433 5.165-6.422 6.222" fill="#FFBEB6"/><path d="M198 168c-.2 1-.078 2.413.787 3.824l-.287.176c-2-2.5-.551-6.302 0-8 .841-2.59 3-4 4-4.5s1.702-.194 2.5-.5c.157-.06.943-.362.678-1.522-.155-.677-.606-.773-1.178-.978-1.111-.398-2.179-.969-2-2 2-1.5 6.5-1 8.11 2.184.531 1.049 1.879 4.208-.421 6.577C208.5 165 206.616 165.785 205 167c-.783.589-1.5 1.5-1 2.5l-4.172 2.907c-.904-1.512-1.673-3.443-1.828-4.407" fill="#1C2868"/><path fill-rule="evenodd" clip-rule="evenodd" d="m198.64 161.012.001.153.002.154h-.004l-.018.001a1.1 1.1 0 0 0-.306.063.8.8 0 0 0-.491.408.82.82 0 0 0-.02.638 1.3 1.3 0 0 0 .14.28l.01.015.002.003-.122.093-.122.093-.001-.001-.001-.002-.005-.006-.015-.022-.049-.078a1.6 1.6 0 0 1-.127-.275 1.13 1.13 0 0 1 .034-.873 1.13 1.13 0 0 1 .667-.564 1.5 1.5 0 0 1 .386-.079l.027-.001z" fill="#22276D"/><defs><linearGradient id="paint0_linear_3746_4340" x1="115" y1="125" x2="154" y2="122" gradientUnits="userSpaceOnUse"><stop stop-color="#E0DFDF"/><stop offset=".342" stop-color="#F5F3F3"/></linearGradient><linearGradient id="paint1_linear_3746_4340" x1="129" y1="65.103" x2="148.245" y2="53.742" gradientUnits="userSpaceOnUse"><stop offset=".23" stop-color="#F5A7A1"/><stop offset=".867" stop-color="#FFBEB6"/></linearGradient><linearGradient id="paint2_linear_3746_4340" x1="77" y1="100.059" x2="85.046" y2="77.72" gradientUnits="userSpaceOnUse"><stop offset=".133" stop-color="#F5A7A1"/><stop offset=".537" stop-color="#FFBEB6"/></linearGradient><linearGradient id="paint3_linear_3746_4340" x1="110.5" y1="72" x2="125" y2="101" gradientUnits="userSpaceOnUse"><stop offset=".161" stop-color="#FFC417"/><stop offset="1" stop-color="#F1B505"/></linearGradient><linearGradient id="paint4_linear_3746_4340" x1="29" y1="126.5" x2="39.157" y2="109.046" gradientUnits="userSpaceOnUse"><stop stop-color="#E0DFDF"/><stop offset=".73" stop-color="#F5F3F3"/></linearGradient><linearGradient id="paint5_linear_3746_4340" x1="41.5" y1="129.5" x2="53.5" y2="181" gradientUnits="userSpaceOnUse"><stop stop-color="#0C6FE8"/><stop offset="1" stop-color="#428DFC"/></linearGradient><linearGradient id="paint6_linear_3746_4340" x1="26.887" y1="88.445" x2="76.566" y2="117.8" gradientUnits="userSpaceOnUse"><stop stop-color="#E8B73F"/><stop offset="1" stop-color="#CF9F36"/></linearGradient><linearGradient id="paint7_linear_3746_4340" x1="34.866" y1="128.246" x2="57.341" y2="119.883" gradientUnits="userSpaceOnUse"><stop offset=".119" stop-color="#F5A7A1"/><stop offset=".48" stop-color="#FFBEB6"/></linearGradient><linearGradient id="paint8_linear_3746_4340" x1="25.5" y1="93.5" x2="26" y2="98" gradientUnits="userSpaceOnUse"><stop stop-color="#F3A29D"/><stop offset="1" stop-color="#FFBABE"/></linearGradient><linearGradient id="paint9_linear_3746_4340" x1="166.5" y1="89" x2="207.5" y2="124.5" gradientUnits="userSpaceOnUse"><stop offset=".278" stop-color="#A1C3FC"/><stop offset=".625" stop-color="#7CABF1"/></linearGradient><linearGradient id="paint10_linear_3746_4340" x1="186.5" y1="86" x2="203" y2="125" gradientUnits="userSpaceOnUse"><stop offset=".057" stop-color="#B5D1FF"/><stop offset=".316" stop-color="#A1C3FC"/></linearGradient><linearGradient id="paint11_linear_3746_4340" x1="198" y1="150.5" x2="198.322" y2="155.682" gradientUnits="userSpaceOnUse"><stop stop-color="#FBB5AE"/><stop offset=".907" stop-color="#F4A5A0"/></linearGradient></defs></svg>
