<!--
  - Copyright (c) 2024. Devtron Inc.
  -
  - Licensed under the Apache License, Version 2.0 (the "License");
  - you may not use this file except in compliance with the License.
  - You may obtain a copy of the License at
  -
  -     http://www.apache.org/licenses/LICENSE-2.0
  -
  - Unless required by applicable law or agreed to in writing, software
  - distributed under the License is distributed on an "AS IS" BASIS,
  - WITHOUT WARRANTIES OR CONDITIONS OF ANY KIND, either express or implied.
  - See the License for the specific language governing permissions and
  - limitations under the License.
  -->

<svg data-style-override="false" width="160" height="40" viewBox="0 0 160 40" fill="none" xmlns="http://www.w3.org/2000/svg">
    <path d="M17.3784 5.15016C17.4784 5.3435 17.5817 5.53683 17.69 5.72683C17.7717 5.87016 17.8667 6.02516 17.9234 6.18016C17.7917 6.2035 17.6534 6.27516 17.53 6.32683C17.345 6.40683 17.155 6.47516 16.97 6.5535C16.63 6.70016 16.2817 6.82016 15.94 6.96016C15.6317 7.08516 15.32 7.24016 15 7.33183V28.8668C15 28.9835 15.0417 29.1968 14.97 29.2918C15.0267 29.3918 15 29.5418 15 29.6552V34.1068C15 34.2035 14.97 34.3635 15.01 34.4518C15.045 34.5318 15.215 34.5785 15.2884 34.6168C15.5634 34.7602 15.8434 34.8952 16.1217 35.0335C16.8217 35.3768 17.5167 35.7285 18.2117 36.0835C18.5584 36.2602 18.9084 36.4652 19.2717 36.6068V5.66516C19.3984 5.8435 19.49 6.05016 19.5934 6.24183C19.78 6.58516 19.9717 6.9285 20.1634 7.27183C20.7667 8.3535 21.3667 9.4385 21.9567 10.5268C23.2284 12.8735 24.555 15.1918 25.8234 17.5385C26.2817 18.3852 26.7584 19.2218 27.2184 20.0685C27.5517 20.6852 27.88 21.3118 28.2367 21.9152H28.2667C28.48 21.4685 28.7117 21.0285 28.93 20.5818C29.9484 18.4918 31.0084 16.4202 32.0267 14.3285C32.35 13.6652 32.6817 13.0052 33.01 12.3452C33.1767 12.0135 33.365 11.6868 33.5067 11.3452C33.2434 11.3568 32.9784 11.4268 32.72 11.4718C32.3867 11.5302 32.0534 11.5718 31.72 11.6385C31.5617 11.6702 31.395 11.6752 31.2367 11.7102C31.1867 11.7218 31.1184 11.7235 31.075 11.7535C31.0367 11.7802 31.0167 11.8352 30.9934 11.8752C30.9384 11.9702 30.885 12.0668 30.8334 12.1635C30.655 12.4918 30.47 12.8185 30.2917 13.1468C29.8334 13.9935 29.3617 14.8335 28.8984 15.6768L28.4967 16.4035C28.4184 16.5418 28.3134 16.6902 28.2667 16.8418H28.2367C28.1934 16.6902 28.0984 16.5452 28.0284 16.4035L27.6617 15.6618C27.2717 14.8785 26.8784 14.0985 26.4967 13.3135C25.41 11.0735 24.2884 8.84683 23.175 6.62016C22.8084 5.8885 22.4484 5.15516 22.085 4.4235C21.905 4.06183 21.6984 3.70683 21.5434 3.3335C21.3 3.40016 21.06 3.5335 20.8317 3.64016C20.5067 3.79016 20.1734 3.9235 19.8484 4.07016C19.0284 4.44016 18.19 4.76683 17.3784 5.15016Z" fill="#876929"/>
    <path d="M19.2717 5.66671V36.6067C20.8833 35.7817 22.5133 34.9884 24.1333 34.1784C25.92 33.2834 27.7017 32.3734 29.4933 31.4884C30.455 31.015 31.4117 30.53 32.3717 30.0517C32.6433 29.9167 32.92 29.785 33.1883 29.6417C33.2733 29.5984 33.435 29.5567 33.4917 29.4784C33.5133 29.4484 33.5083 29.4017 33.5083 29.3667V11.36C33.4067 11.4817 33.3467 11.6584 33.275 11.8C33.1417 12.0717 33.0017 12.3417 32.87 12.6167C32.4767 13.44 32.0633 14.255 31.6567 15.07C30.91 16.5634 30.175 18.0617 29.43 19.5534C29.18 20.0534 28.9367 20.5534 28.6883 21.0534C28.5467 21.3334 28.3667 21.6184 28.2667 21.915H28.2367C28.155 21.7217 28.0333 21.54 27.9317 21.355C27.765 21.0534 27.6 20.7484 27.4317 20.4467C26.97 19.615 26.515 18.78 26.0533 17.9467C24.74 15.58 23.4467 13.1984 22.1317 10.83C21.4683 9.63504 20.81 8.43837 20.155 7.24004C19.9683 6.90171 19.7783 6.56504 19.5933 6.22671L19.41 5.89337C19.3717 5.81504 19.335 5.72671 19.2717 5.66504V5.66671ZM11.745 8.63337V30.125C12.545 29.9267 13.3417 29.725 14.1367 29.515C14.3433 29.46 14.5517 29.4084 14.7583 29.355C14.8233 29.3384 14.9417 29.3384 14.985 29.28C15.0067 29.2517 15.0017 29.205 15.0017 29.17V9.46671C14.4767 9.36671 13.9567 9.20504 13.44 9.07004C12.8783 8.92004 12.2983 8.81337 11.745 8.63337Z" fill="#D9A741"/>
    <path d="M21.5433 3.3335C21.5833 3.47516 21.67 3.61016 21.7367 3.74183C21.8567 3.98516 21.9817 4.22516 22.1 4.47016C22.5333 5.36016 22.9833 6.24683 23.4217 7.13516C24.485 9.28183 25.545 11.4285 26.6167 13.5718C26.9667 14.2718 27.3117 14.9752 27.6617 15.6768C27.8533 16.0618 28.0717 16.4435 28.2367 16.8435H28.2667C28.3917 16.5552 28.5717 16.2818 28.7233 16.0102C28.9683 15.5718 29.2067 15.1302 29.45 14.6935C30.1433 13.4418 30.8333 12.1868 31.5233 10.9368C31.7933 10.4468 32.0733 9.96183 32.3317 9.46683C32.4317 9.27683 32.57 9.0935 32.6433 8.89183C32.3267 8.69183 31.9633 8.5485 31.63 8.3785C30.83 7.97183 30.0233 7.57683 29.2217 7.17516C26.6617 5.89516 24.0883 4.64183 21.5433 3.3335Z" fill="#D9A741"/>
    <path d="M11.73 8.6333C11.56 8.8833 11.4084 9.1483 11.2467 9.4033C10.7484 10.1966 10.2517 10.9916 9.75169 11.7833C8.76002 13.3583 7.77169 14.9333 6.78502 16.51C6.34836 17.2066 5.90669 17.9016 5.47169 18.5983C5.35502 18.7866 5.23336 18.97 5.11836 19.16C5.07836 19.2233 5.00169 19.305 5.00002 19.3833C4.99836 19.4583 5.09002 19.555 5.12836 19.6166C5.25169 19.8133 5.37169 20.0133 5.49836 20.2083C5.94169 20.8866 6.35669 21.585 6.79502 22.2666C7.67502 23.6383 8.52836 25.03 9.39002 26.4133C10.165 27.6583 10.9634 28.8883 11.73 30.14L11.805 30.1233C11.7784 30.115 11.7734 30.1166 11.745 30.1233V8.8333C11.745 8.76663 11.755 8.69497 11.7284 8.63497L11.73 8.6333Z" fill="#876929"/>
    <circle cx="56" cy="20" r="4" stroke="var(--N700)"/>
    <path d="M60 20H100" stroke="var(--N700)" stroke-linecap="round" stroke-dasharray="4 4"/>
    <circle cx="104" cy="20" r="4" stroke="var(--N700)"/>
    <g clip-path="url(#clip0_2047_10075)">
        <path d="M124 4H148C152.418 4 156 7.58172 156 12V28C156 32.4183 152.418 36 148 36H132C127.582 36 124 32.4183 124 28V4Z" fill="#72ACE6"/>
        <circle cx="153" cy="7" r="6.5" fill="#F33E3E" stroke="var(--N0)" stroke-width="3"/>
        <rect x="131" y="16" width="18" height="3" rx="1.5" fill="white"/>
        <rect x="131" y="23" width="12" height="3" rx="1.5" fill="white"/>
    </g>
    <defs>
        <clipPath id="clip0_2047_10075">
            <rect width="40" height="40" fill="white" transform="translate(120)"/>
        </clipPath>
    </defs>
</svg>
