<!--
  - Copyright (c) 2024. Devtron Inc.
  -
  - Licensed under the Apache License, Version 2.0 (the "License");
  - you may not use this file except in compliance with the License.
  - You may obtain a copy of the License at
  -
  -     http://www.apache.org/licenses/LICENSE-2.0
  -
  - Unless required by applicable law or agreed to in writing, software
  - distributed under the License is distributed on an "AS IS" BASIS,
  - WITHOUT WARRANTIES OR CONDITIONS OF ANY KIND, either express or implied.
  - See the License for the specific language governing permissions and
  - limitations under the License.
  -->

<svg data-style-override="false" width="160" height="40" viewBox="0 0 160 40" fill="none" xmlns="http://www.w3.org/2000/svg">
    <g clip-path="url(#clip0_2047_10118)">
        <path d="M4 4H28C32.4183 4 36 7.58172 36 12V28C36 32.4183 32.4183 36 28 36H12C7.58172 36 4 32.4183 4 28V4Z" fill="#72ACE6"/>
        <circle cx="33" cy="7" r="6.5" fill="#F33E3E" stroke="var(--N0)" stroke-width="3"/>
        <rect x="11" y="16" width="18" height="3" rx="1.5" fill="white"/>
        <rect x="11" y="23" width="12" height="3" rx="1.5" fill="white"/>
    </g>
    <circle cx="56" cy="20" r="4" stroke="var(--N700)"/>
    <path d="M60 20H100" stroke="var(--N700)" stroke-linecap="round" stroke-dasharray="4 4"/>
    <circle cx="104" cy="20" r="4" stroke="var(--N700)"/>
    <path d="M130.337 24.3976C130.337 26.3249 128.762 27.8993 126.835 27.8993C124.908 27.8993 123.333 26.3249 123.333 24.3976C123.333 22.4704 124.908 20.896 126.835 20.896H130.337V24.3976Z" fill="#E01E5A"/>
    <path d="M132.101 24.3976C132.101 22.4704 133.675 20.896 135.602 20.896C137.53 20.896 139.104 22.4704 139.104 24.3976V33.1653C139.104 35.0925 137.53 36.6669 135.602 36.6669C133.675 36.6669 132.101 35.0925 132.101 33.1653V24.3976Z" fill="#E01E5A"/>
    <path d="M135.602 10.3368C133.675 10.3368 132.101 8.76238 132.101 6.83512C132.101 4.90787 133.675 3.3335 135.602 3.3335C137.53 3.3335 139.104 4.90787 139.104 6.83512V10.3368H135.602Z" fill="#36C5F0"/>
    <path d="M135.603 12.1011C137.53 12.1011 139.104 13.6754 139.104 15.6027C139.104 17.53 137.53 19.1043 135.603 19.1043H126.835C124.908 19.1043 123.333 17.53 123.333 15.6027C123.333 13.6754 124.908 12.1011 126.835 12.1011H135.603Z" fill="#36C5F0"/>
    <path d="M149.663 15.6027C149.663 13.6754 151.238 12.1011 153.165 12.1011C155.092 12.1011 156.667 13.6754 156.667 15.6027C156.667 17.53 155.092 19.1043 153.165 19.1043H149.663V15.6027Z" fill="#2EB67D"/>
    <path d="M147.899 15.6028C147.899 17.53 146.325 19.1044 144.397 19.1044C142.47 19.1044 140.896 17.53 140.896 15.6028V6.83512C140.896 4.90787 142.47 3.3335 144.397 3.3335C146.325 3.3335 147.899 4.90787 147.899 6.83512V15.6028Z" fill="#2EB67D"/>
    <path d="M144.397 29.6636C146.325 29.6636 147.899 31.238 147.899 33.1652C147.899 35.0925 146.325 36.6668 144.397 36.6668C142.47 36.6668 140.896 35.0925 140.896 33.1652V29.6636H144.397Z" fill="#ECB22E"/>
    <path d="M144.397 27.8993C142.47 27.8993 140.896 26.3249 140.896 24.3976C140.896 22.4704 142.47 20.896 144.397 20.896H153.165C155.092 20.896 156.667 22.4704 156.667 24.3976C156.667 26.3249 155.092 27.8993 153.165 27.8993H144.397Z" fill="#ECB22E"/>
    <defs>
        <clipPath id="clip0_2047_10118">
            <rect width="40" height="40" fill="white"/>
        </clipPath>
    </defs>
</svg>
