<svg data-style-override="false" width="160" height="40" viewBox="0 0 160 40" fill="none" xmlns="http://www.w3.org/2000/svg">
    <path d="M36.6666 6.6665H3.33325L19.9999 19.9998L36.6666 6.6665Z" fill="#18BC9C"/>
    <rect x="3.33325" y="6.6665" width="33.3333" height="26.6667" stroke="var(--N900)"/>
    <path d="M3.33325 6.6665L19.9999 19.9998" stroke="var(--N900)"/>
    <path d="M3.33325 33.3332L36.6666 6.6665" stroke="var(--N900)"/>
    <path d="M16.6665 33.333L24.9998 26.6663L29.1665 23.333" stroke="var(--N900)"/>
    <circle cx="56" cy="20" r="4" stroke="var(--N700)"/>
    <path d="M60 20H100" stroke="var(--N700)" stroke-linecap="round" stroke-dasharray="4 4"/>
    <circle cx="104" cy="20" r="4" stroke="var(--N700)"/>
    <g clip-path="url(#clip0_2047_10096)">
        <path d="M124 4H148C152.418 4 156 7.58172 156 12V28C156 32.4183 152.418 36 148 36H132C127.582 36 124 32.4183 124 28V4Z" fill="#72ACE6"/>
        <circle cx="153" cy="7" r="6.5" fill="#F33E3E" stroke="var(--N0)" stroke-width="3"/>
        <rect x="131" y="16" width="18" height="3" rx="1.5" fill="white"/>
        <rect x="131" y="23" width="12" height="3" rx="1.5" fill="white"/>
    </g>
    <defs>
        <clipPath id="clip0_2047_10096">
            <rect width="40" height="40" fill="white" transform="translate(120)"/>
        </clipPath>
    </defs>
</svg>
