<!--
  - Copyright (c) 2024. Devtron Inc.
  -
  - Licensed under the Apache License, Version 2.0 (the "License");
  - you may not use this file except in compliance with the License.
  - You may obtain a copy of the License at
  -
  -     http://www.apache.org/licenses/LICENSE-2.0
  -
  - Unless required by applicable law or agreed to in writing, software
  - distributed under the License is distributed on an "AS IS" BASIS,
  - WITHOUT WARRANTIES OR CONDITIONS OF ANY KIND, either express or implied.
  - See the License for the specific language governing permissions and
  - limitations under the License.
  -->

<svg data-style-override="false" xmlns="http://www.w3.org/2000/svg" width="48" height="48" viewBox="0 0 48 48">
    <g fill="none" fill-rule="evenodd">
        <path d="M0 0h48v48H0z"/>
        <g fill="#FFEBEB" stroke="#F33E3E" stroke-linejoin="round" stroke-width="2">
            <path d="M7 24h24v17a4 4 0 0 1-4 4H11a4 4 0 0 1-4-4V24z"/>
            <path stroke-linecap="round" d="M19 29.5v10M24 29.5v10M14 29.5v10"/>
        </g>
        <path stroke="#F33E3E" stroke-dasharray="17,3" stroke-linecap="round" stroke-linejoin="round" stroke-width="2" d="M42 10a3 3 0 0 1 0 6H31M38 23a3 3 0 0 0-3-3h-8"/>
        <g stroke="#F33E3E" stroke-linejoin="round" stroke-width="2" transform="rotate(-10 36.29 -8.86)">
            <rect width="30" height="5" y="6" fill="#FFEBEB" rx="1"/>
            <path d="M11 0h8a2 2 0 0 1 2 2v4H9V2a2 2 0 0 1 2-2z"/>
        </g>
    </g>
</svg>
