<svg data-style-override="false" width="160" height="40" viewBox="0 0 160 40" fill="none" xmlns="http://www.w3.org/2000/svg">
    <g clip-path="url(#clip0_2047_10147)">
        <path d="M4 4H28C32.4183 4 36 7.58172 36 12V28C36 32.4183 32.4183 36 28 36H12C7.58172 36 4 32.4183 4 28V4Z" fill="#72ACE6"/>
        <circle cx="33" cy="7" r="6.5" fill="#F33E3E" stroke="var(--N0)" stroke-width="3"/>
        <rect x="11" y="16" width="18" height="3" rx="1.5" fill="white"/>
        <rect x="11" y="23" width="12" height="3" rx="1.5" fill="white"/>
    </g>
    <circle cx="56" cy="20" r="4" stroke="var(--N700)"/>
    <path d="M60 20H100" stroke="var(--N700)" stroke-linecap="round" stroke-dasharray="4 4"/>
    <circle cx="104" cy="20" r="4" stroke="var(--N700)"/>
    <path fill-rule="evenodd" clip-rule="evenodd" d="M140 9.54541C141.674 9.54541 143.03 10.9021 143.03 12.5757C143.03 13.1107 142.892 13.6134 142.648 14.0496L146.565 20.5848L146.663 20.5491C147.308 20.3313 147.983 20.2004 148.674 20.1628L149.091 20.1515C153.275 20.1515 156.667 23.5433 156.667 27.7272C156.667 31.9112 153.275 35.303 149.091 35.303C147.155 35.303 145.33 34.5722 143.94 33.2822C143.326 32.7131 143.29 31.7544 143.859 31.1409C144.428 30.5275 145.387 30.4915 146.001 31.0606C146.836 31.8358 147.927 32.2727 149.091 32.2727C151.601 32.2727 153.636 30.2376 153.636 27.7272C153.636 25.2168 151.601 23.1818 149.091 23.1818C148.252 23.1818 147.45 23.408 146.749 23.8305C146.082 24.2324 145.23 24.0606 144.767 23.4583L144.667 23.3117L140.049 15.6045L140 15.606C138.403 15.606 137.094 14.3698 136.978 12.8019L136.97 12.5757C136.97 10.9021 138.326 9.54541 140 9.54541Z" fill="var(--N700)"/>
    <path d="M140 5C144.184 5 147.576 8.39178 147.576 12.5758C147.576 13.4126 146.898 14.0909 146.061 14.0909C145.284 14.0909 144.643 13.506 144.556 12.7525L144.546 12.5758C144.546 10.0654 142.511 8.0303 140 8.0303C137.49 8.0303 135.455 10.0654 135.455 12.5758C135.455 14.2916 136.413 15.8361 137.909 16.6131C138.702 17.0246 138.968 18.0287 138.484 18.7791L133.606 26.3438C133.819 26.7585 133.94 27.2288 133.94 27.7273C133.94 29.4009 132.583 30.7576 130.909 30.7576C129.236 30.7576 127.879 29.4009 127.879 27.7273C127.879 26.0537 129.236 24.697 130.909 24.697C130.959 24.697 131.008 24.6982 131.057 24.7005L135.133 18.3803L135.079 18.3362C133.513 16.9981 132.532 15.056 132.433 12.9315L132.424 12.5758C132.424 8.39178 135.816 5 140 5Z" fill="#EB456D"/>
    <path fill-rule="evenodd" clip-rule="evenodd" d="M130.27 21.5109C130.555 22.2977 130.148 23.1665 129.361 23.4514C127.577 24.0976 126.364 25.7975 126.364 27.7269C126.364 30.2373 128.399 32.2724 130.909 32.2724C133.33 32.2724 135.309 30.3801 135.447 27.994L135.455 27.7269C135.455 26.9499 136.04 26.3095 136.793 26.2219L136.97 26.2118L146.466 26.2112C146.99 25.3058 147.97 24.6966 149.091 24.6966C150.765 24.6966 152.121 26.0533 152.121 27.7269C152.121 29.4005 150.765 30.7572 149.091 30.7572C147.97 30.7572 146.99 30.148 146.466 29.2426L138.33 29.2405L138.315 29.3314C137.601 32.6413 134.725 35.1469 131.238 35.2957L130.909 35.3027C126.725 35.3027 123.333 31.9109 123.333 27.7269C123.333 24.5117 125.355 21.6794 128.329 20.6022C129.116 20.3172 129.985 20.7241 130.27 21.5109Z" fill="var(--N700)"/>
    <defs>
        <clipPath id="clip0_2047_10147">
        <rect width="40" height="40" fill="white"/>
    </clipPath>
</defs>
</svg>
