<!--
  - Copyright (c) 2024. Devtron Inc.
  -
  - Licensed under the Apache License, Version 2.0 (the "License");
  - you may not use this file except in compliance with the License.
  - You may obtain a copy of the License at
  -
  -     http://www.apache.org/licenses/LICENSE-2.0
  -
  - Unless required by applicable law or agreed to in writing, software
  - distributed under the License is distributed on an "AS IS" BASIS,
  - WITHOUT WARRANTIES OR CONDITIONS OF ANY KIND, either express or implied.
  - See the License for the specific language governing permissions and
  - limitations under the License.
  -->

<svg xmlns="http://www.w3.org/2000/svg" xmlns:xlink="http://www.w3.org/1999/xlink" width="60" height="60" viewBox="0 0 60 60">
    <defs>
        <path id="a" d="M0 0h24v24H0z"/>
    </defs>
    <g fill="none" fill-rule="evenodd">
        <rect width="60" height="60" fill="#FFEDF2" rx="13"/>
        <g transform="translate(18 18)">
            <mask id="b" fill="#fff">
                <use xlink:href="#a"/>
            </mask>
            <path fill="#FF2D6B" fill-rule="nonzero" d="M7.837 17.772a2.363 2.363 0 0 0-.018-2.392l3.449-5.979-1-.576a3.44 3.44 0 0 1-1.26-4.693 3.44 3.44 0 0 1 4.693-1.26 3.441 3.441 0 0 1 1.536 4.082l2.252.535A5.754 5.754 0 0 0 14.854.872 5.75 5.75 0 0 0 7.008 2.98a5.754 5.754 0 0 0 1.165 7.168l-2.353 4.08a2.363 2.363 0 0 0-1.212 4.412 2.364 2.364 0 0 0 3.229-.867z" mask="url(#b)"/>
            <path fill="#4A4A4A" fill-rule="nonzero" d="M6.937 24.172a2.363 2.363 0 0 0-.018-2.392l3.449-5.979-1-.576a3.44 3.44 0 0 1-1.26-4.693 3.44 3.44 0 0 1 4.693-1.26 3.441 3.441 0 0 1 1.536 4.082l2.252.535a5.754 5.754 0 0 0-2.635-6.617A5.75 5.75 0 0 0 6.108 9.38a5.754 5.754 0 0 0 1.165 7.168l-2.353 4.08a2.363 2.363 0 0 0-1.212 4.412 2.364 2.364 0 0 0 3.229-.867z" mask="url(#b)" transform="rotate(-120 9.676 15.93)"/>
            <path fill="#4A4A4A" fill-rule="nonzero" d="M13.037 21.772a2.363 2.363 0 0 0-.018-2.392l3.449-5.979-1-.576a3.44 3.44 0 0 1-1.26-4.693 3.44 3.44 0 0 1 4.693-1.26 3.441 3.441 0 0 1 1.536 4.082l2.252.535a5.754 5.754 0 0 0-2.635-6.617 5.75 5.75 0 0 0-7.846 2.107 5.754 5.754 0 0 0 1.165 7.168l-2.353 4.08a2.363 2.363 0 0 0-1.212 4.412 2.364 2.364 0 0 0 3.229-.867z" mask="url(#b)" transform="rotate(120 15.776 13.53)"/>
        </g>
    </g>
</svg>
