<!--
  - Copyright (c) 2024. Devtron Inc.
  -
  - Licensed under the Apache License, Version 2.0 (the "License");
  - you may not use this file except in compliance with the License.
  - You may obtain a copy of the License at
  -
  -     http://www.apache.org/licenses/LICENSE-2.0
  -
  - Unless required by applicable law or agreed to in writing, software
  - distributed under the License is distributed on an "AS IS" BASIS,
  - WITHOUT WARRANTIES OR CONDITIONS OF ANY KIND, either express or implied.
  - See the License for the specific language governing permissions and
  - limitations under the License.
  -->

<svg width="16" height="16" viewBox="0 0 16 16" fill="none" xmlns="http://www.w3.org/2000/svg">
<path d="M7.64668 4.4647L8.88412 3.22726C9.13943 2.9717 9.4426 2.76896 9.7763 2.6306C10.11 2.49224 10.4677 2.42098 10.8289 2.4209C11.1902 2.42081 11.5479 2.4919 11.8816 2.63011C12.2154 2.76831 12.5187 2.97092 12.7741 3.22635C13.0295 3.48179 13.2322 3.78505 13.3704 4.11881C13.5086 4.45258 13.5796 4.8103 13.5796 5.17154C13.5795 5.53278 13.5082 5.89047 13.3699 6.22416C13.2315 6.55786 13.0288 6.86103 12.7732 7.11635L11.0054 8.88412C10.7501 9.13948 10.4469 9.34204 10.1133 9.48024C9.77963 9.61844 9.42203 9.68957 9.06089 9.68957C8.69976 9.68957 8.34216 9.61844 8.00851 9.48024C7.67487 9.34204 7.37171 9.13948 7.11635 8.88412M8.35378 11.5358L7.11635 12.7732C6.86103 13.0288 6.55786 13.2315 6.22416 13.3699C5.89047 13.5082 5.53278 13.5795 5.17154 13.5796C4.8103 13.5796 4.45258 13.5086 4.11881 13.3704C3.78505 13.2322 3.48179 13.0295 3.22635 12.7741C2.97092 12.5187 2.76831 12.2154 2.63011 11.8816C2.4919 11.5479 2.42081 11.1902 2.4209 10.8289C2.42098 10.4677 2.49224 10.11 2.6306 9.7763C2.76896 9.4426 2.9717 9.13943 3.22726 8.88412L4.99503 7.11635C5.25039 6.86099 5.55355 6.65842 5.88719 6.52022C6.22084 6.38202 6.57844 6.31089 6.93957 6.31089C7.30071 6.31089 7.65831 6.38202 7.99195 6.52022C8.3256 6.65842 8.62875 6.86099 8.88411 7.11635" stroke="#596168" stroke-width="1.5" stroke-linecap="round" stroke-linejoin="round"/>
</svg>
