<svg width="16" height="16" viewBox="0 0 16 16" fill="none" xmlns="http://www.w3.org/2000/svg">
<path d="M5.5 4H13.5M5.50038 8H13.5M5.50038 12H13.5" stroke="#596168" stroke-width="1.5" stroke-linecap="round" stroke-linejoin="round"/>
<path d="M2.75 4.75C3.16421 4.75 3.5 4.41421 3.5 4C3.5 3.58579 3.16421 3.25 2.75 3.25C2.33579 3.25 2 3.58579 2 4C2 4.41421 2.33579 4.75 2.75 4.75Z" fill="#596168"/>
<path d="M2.75 8.75C3.16421 8.75 3.5 8.41421 3.5 8C3.5 7.58579 3.16421 7.25 2.75 7.25C2.33579 7.25 2 7.58579 2 8C2 8.41421 2.33579 8.75 2.75 8.75Z" fill="#596168"/>
<path d="M2.75 12.75C3.16421 12.75 3.5 12.4142 3.5 12C3.5 11.5858 3.16421 11.25 2.75 11.25C2.33579 11.25 2 11.5858 2 12C2 12.4142 2.33579 12.75 2.75 12.75Z" fill="#596168"/>
</svg>
