<!--
  - Copyright (c) 2024. Devtron Inc.
  -
  - Licensed under the Apache License, Version 2.0 (the "License");
  - you may not use this file except in compliance with the License.
  - You may obtain a copy of the License at
  -
  -     http://www.apache.org/licenses/LICENSE-2.0
  -
  - Unless required by applicable law or agreed to in writing, software
  - distributed under the License is distributed on an "AS IS" BASIS,
  - WITHOUT WARRANTIES OR CONDITIONS OF ANY KIND, either express or implied.
  - See the License for the specific language governing permissions and
  - limitations under the License.
  -->

<svg width="16" height="16" viewBox="0 0 16 16" fill="none" xmlns="http://www.w3.org/2000/svg">
<path d="M2 10.5L5.14644 7.35355C5.19287 7.30712 5.24799 7.27029 5.30865 7.24517C5.36931 7.22004 5.43433 7.20711 5.49999 7.20711C5.56565 7.20711 5.63067 7.22004 5.69133 7.24517C5.752 7.27029 5.80711 7.30712 5.85354 7.35355L8.64644 10.1464C8.69287 10.1929 8.74799 10.2297 8.80865 10.2548C8.86931 10.28 8.93433 10.2929 8.99999 10.2929C9.06565 10.2929 9.13067 10.28 9.19133 10.2548C9.252 10.2297 9.30711 10.1929 9.35354 10.1464L10.6464 8.85355C10.6929 8.80712 10.748 8.77029 10.8086 8.74517C10.8693 8.72004 10.9343 8.70711 11 8.70711C11.0657 8.70711 11.1307 8.72004 11.1913 8.74517C11.252 8.77029 11.3071 8.80712 11.3535 8.85355L14 11.5M2.5 3H13.5C13.7761 3 14 3.22386 14 3.5V12.5C14 12.7761 13.7761 13 13.5 13H2.5C2.22386 13 2 12.7761 2 12.5V3.5C2 3.22386 2.22386 3 2.5 3Z" stroke="#596168" stroke-width="1.5" stroke-linecap="round" stroke-linejoin="round"/>
<path d="M10 7.5C10.5523 7.5 11 7.05228 11 6.5C11 5.94772 10.5523 5.5 10 5.5C9.44772 5.5 9 5.94772 9 6.5C9 7.05228 9.44772 7.5 10 7.5Z" fill="#596168"/>
</svg>
