<svg width="24" height="24" viewBox="0 0 24 24" fill="none" xmlns="http://www.w3.org/2000/svg">
<path d="M21 16.6238H21.75H21ZM21 7.3761H21.75V7.3761L21 7.3761ZM20.6177 6.72242L20.9854 6.06873L20.6177 6.72242ZM12.3677 2.08179L12.7354 1.42811L12.3677 2.08179ZM12 1.98547V2.73547V1.98547ZM11.6323 2.08179L12 2.73547V2.73547L11.6323 2.08179ZM3.3823 6.72242L3.01461 6.06873H3.01461L3.3823 6.72242ZM3 7.3761L2.25 7.3761V7.3761H3ZM3 16.6238H2.25H3ZM3.3823 17.2775L3.01461 17.9312H3.01461L3.3823 17.2775ZM11.6323 21.9181L12 21.2645L11.6323 21.9181ZM12.3677 21.9181L12 21.2645L12.3677 21.9181ZM20.6177 17.2775L20.9854 17.9312L20.6177 17.2775ZM6.75 11.75C6.75 11.3357 6.41421 11 6 11C5.58579 11 5.25 11.3357 5.25 11.75H6.75ZM5.25 15.25C5.25 15.6642 5.58579 16 6 16C6.41421 16 6.75 15.6642 6.75 15.25H5.25ZM18.75 11.75C18.75 11.3357 18.4142 11 18 11C17.5858 11 17.25 11.3357 17.25 11.75H18.75ZM17.25 15.25C17.25 15.6642 17.5858 16 18 16C18.4142 16 18.75 15.6642 18.75 15.25H17.25ZM9.75 13.75C9.75 13.3357 9.41421 13 9 13C8.58579 13 8.25 13.3357 8.25 13.75H9.75ZM8.25 17.25C8.25 17.6642 8.58579 18 9 18C9.41421 18 9.75 17.6642 9.75 17.25H8.25ZM15.75 13.75C15.75 13.3357 15.4142 13 15 13C14.5858 13 14.25 13.3357 14.25 13.75H15.75ZM14.25 17.25C14.25 17.6642 14.5858 18 15 18C15.4142 18 15.75 17.6642 15.75 17.25H14.25ZM21.2671 7.64836C21.6272 7.44375 21.7533 6.98592 21.5487 6.62577C21.3441 6.26562 20.8863 6.13952 20.5261 6.34413L21.2671 7.64836ZM3.46883 6.34009C3.10696 6.13853 2.65022 6.26849 2.44866 6.63035C2.2471 6.99222 2.37706 7.44897 2.73892 7.65052L3.46883 6.34009ZM21.75 16.6238V7.3761H20.25V16.6238H21.75ZM21.75 7.3761C21.75 7.10994 21.6792 6.84858 21.5448 6.61883L20.25 7.3761L21.75 7.3761ZM21.5448 6.61883C21.4104 6.38908 21.2174 6.19922 20.9854 6.06873L20.25 7.3761H20.25L21.5448 6.61883ZM20.9854 6.06873L12.7354 1.42811L12 2.73547L20.25 7.3761L20.9854 6.06873ZM12.7354 1.42811C12.5109 1.30182 12.2576 1.23547 12 1.23547V2.73547V2.73547L12.7354 1.42811ZM12 1.23547C11.7424 1.23547 11.4891 1.30182 11.2646 1.42811L12 2.73547V2.73547V1.23547ZM11.2646 1.42811L3.01461 6.06873L3.75 7.3761L12 2.73547L11.2646 1.42811ZM3.01461 6.06873C2.78263 6.19922 2.58955 6.38908 2.45519 6.61883L3.75 7.3761H3.75L3.01461 6.06873ZM2.45519 6.61883C2.32082 6.84858 2.25 7.10994 2.25 7.3761L3.75 7.3761H3.75L2.45519 6.61883ZM2.25 7.3761V16.6238H3.75V7.3761H2.25ZM2.25 16.6238C2.25 16.89 2.32082 17.1513 2.45519 17.3811L3.75 16.6238H3.75H2.25ZM2.45519 17.3811C2.58955 17.6108 2.78263 17.8007 3.01461 17.9312L3.75 16.6238H3.75L2.45519 17.3811ZM3.01461 17.9312L11.2646 22.5718L12 21.2645L3.75 16.6238L3.01461 17.9312ZM11.2646 22.5718C11.4891 22.6981 11.7424 22.7645 12 22.7645V21.2645L11.2646 22.5718ZM12 22.7645C12.2576 22.7645 12.5109 22.6981 12.7354 22.5718L12 21.2645V22.7645ZM12.7354 22.5718L20.9854 17.9312L20.25 16.6238L12 21.2645L12.7354 22.5718ZM20.9854 17.9312C21.2174 17.8007 21.4104 17.6108 21.5448 17.3811L20.25 16.6238H20.25L20.9854 17.9312ZM21.5448 17.3811C21.6792 17.1513 21.75 16.89 21.75 16.6238H20.25L21.5448 17.3811ZM5.25 11.75V15.25H6.75V11.75H5.25ZM17.25 11.75V15.25H18.75V11.75H17.25ZM8.25 13.75V17.25H9.75V13.75H8.25ZM14.25 13.75V17.25H15.75V13.75H14.25ZM20.5261 6.34413L11.7185 11.3479L12.4594 12.6521L21.2671 7.64836L20.5261 6.34413ZM12.4539 11.3447L3.46883 6.34009L2.73892 7.65052L11.724 12.6552L12.4539 11.3447ZM11.339 11.9933L11.25 22.0078L12.75 22.0211L12.8389 12.0066L11.339 11.9933Z" fill="#0066CC"/>
</svg>
