<svg width="100" height="60" viewBox="0 0 100 60" fill="none" xmlns="http://www.w3.org/2000/svg">
<rect width="100" height="60" rx="4" fill="#2E5AD3"/>
<path d="M45.3845 37.0711C43.9703 41.3137 38.3135 41.3137 38.3135 41.3137C38.3135 41.3137 38.3135 35.6569 42.5561 34.2426" stroke="#FFBF00" stroke-width="1.5" stroke-linecap="round" stroke-linejoin="round"/>
<path d="M58.1119 27.1716L49.6266 35.6569L43.9697 30L52.455 21.5147C55.668 18.3017 58.881 18.333 60.2513 18.5375C60.4623 18.5689 60.6576 18.6673 60.8084 18.8182C60.9592 18.969 61.0576 19.1643 61.0891 19.3753C61.2935 20.7455 61.3249 23.9586 58.1119 27.1716Z" stroke="white" stroke-width="1.5" stroke-linecap="round" stroke-linejoin="round"/>
<path d="M56.698 28.5858V36.6568C56.698 36.7882 56.6722 36.9182 56.6219 37.0395C56.5716 37.1609 56.498 37.2711 56.4051 37.364L52.3624 41.4067C52.2344 41.5347 52.0741 41.6255 51.8985 41.6695C51.723 41.7136 51.5387 41.7091 51.3655 41.6567C51.1923 41.6042 51.0365 41.5057 50.9149 41.3717C50.7932 41.2377 50.7102 41.0732 50.6747 40.8957L49.627 35.6568" stroke="white" stroke-width="1.5" stroke-linecap="round" stroke-linejoin="round"/>
<path d="M51.0415 22.9289H42.9705C42.8391 22.9289 42.7091 22.9548 42.5878 23.005C42.4664 23.0553 42.3562 23.129 42.2633 23.2218L38.2206 27.2645C38.0926 27.3925 38.0018 27.5528 37.9578 27.7284C37.9137 27.904 37.9182 28.0882 37.9706 28.2614C38.0231 28.4347 38.1216 28.5904 38.2556 28.7121C38.3896 28.8337 38.5541 28.9167 38.7316 28.9522L43.9705 30" stroke="white" stroke-width="1.5" stroke-linecap="round" stroke-linejoin="round"/>
</svg>
