<svg width="100" height="60" viewBox="0 0 100 60" fill="none" xmlns="http://www.w3.org/2000/svg">
<rect width="100" height="60" rx="4" fill="#EB9246"/>
<path d="M61.7498 43H48.249C48.0501 43 47.8593 42.921 47.7187 42.7803C47.578 42.6397 47.499 42.4489 47.499 42.25V25.75C47.499 25.5511 47.578 25.3603 47.7187 25.2197C47.8593 25.079 48.0501 25 48.249 25H57.2498L62.4998 30.25V42.25C62.4998 42.3485 62.4804 42.446 62.4427 42.537C62.405 42.628 62.3497 42.7107 62.2801 42.7803C62.2104 42.85 62.1278 42.9052 62.0368 42.9429C61.9458 42.9806 61.8482 43 61.7498 43Z" fill="white" fill-opacity="0.7" stroke="white" stroke-width="1.5" stroke-linecap="round" stroke-linejoin="round"/>
<path d="M59.25 35.25L55.25 39.25M59.25 39.25L55.25 35.25" stroke="#FF5656" stroke-width="1.5" stroke-linecap="round" stroke-linejoin="round"/>
<path d="M57.25 25V30.25H62.5008" stroke="white" stroke-width="1.5" stroke-linecap="round" stroke-linejoin="round"/>
<path d="M51.7498 34H38.249C38.0501 34 37.8593 33.921 37.7187 33.7803C37.578 33.6397 37.499 33.4489 37.499 33.25V17.75C37.499 17.5511 37.578 17.3603 37.7187 17.2197C37.8593 17.079 38.0501 17 38.249 17H47.2498L52.4998 22.25V33.25C52.4998 33.3485 52.4804 33.446 52.4427 33.537C52.405 33.628 52.3497 33.7107 52.2801 33.7803C52.2104 33.85 52.1278 33.9052 52.0368 33.9429C51.9458 33.9806 51.8482 34 51.7498 34Z" fill="#EB9246" stroke="white" stroke-width="1.5" stroke-linecap="round" stroke-linejoin="round"/>
<path d="M47.25 17V22.25H52.5007" stroke="white" stroke-width="1.5" stroke-linecap="round" stroke-linejoin="round"/>
<path d="M42 26.75H48" stroke="white" stroke-width="1.5" stroke-linecap="round" stroke-linejoin="round"/>
<path d="M42 29.75H48" stroke="white" stroke-width="1.5" stroke-linecap="round" stroke-linejoin="round"/>
<path d="M44.8066 40.4571C45.2209 40.4571 45.5566 40.7929 45.5566 41.2071C45.5566 41.6213 45.2209 41.9571 44.8066 41.9571V40.4571ZM41.2066 36.2071L40.6763 35.6768C40.817 35.5361 41.0077 35.4571 41.2066 35.4571C41.4056 35.4571 41.5963 35.5361 41.737 35.6768L41.2066 36.2071ZM43.1512 37.091C43.4441 37.3839 43.4441 37.8587 43.1512 38.1516C42.8583 38.4445 42.3834 38.4445 42.0905 38.1516L43.1512 37.091ZM40.3228 38.1516C40.0299 38.4445 39.555 38.4445 39.2621 38.1516C38.9692 37.8587 38.9692 37.3839 39.2621 37.091L40.3228 38.1516ZM44.8066 41.9571H43.2066V40.4571H44.8066V41.9571ZM40.4566 39.2071V36.2071H41.9566V39.2071H40.4566ZM43.2066 41.9571C41.6879 41.9571 40.4566 40.7259 40.4566 39.2071H41.9566C41.9566 39.8974 42.5163 40.4571 43.2066 40.4571V41.9571ZM42.0905 38.1516L40.6763 36.7374L41.737 35.6768L43.1512 37.091L42.0905 38.1516ZM41.737 36.7374L40.3228 38.1516L39.2621 37.091L40.6763 35.6768L41.737 36.7374Z" fill="white"/>
</svg>
