<!--
  - Copyright (c) 2024. Devtron Inc.
  -
  - Licensed under the Apache License, Version 2.0 (the "License");
  - you may not use this file except in compliance with the License.
  - You may obtain a copy of the License at
  -
  -     http://www.apache.org/licenses/LICENSE-2.0
  -
  - Unless required by applicable law or agreed to in writing, software
  - distributed under the License is distributed on an "AS IS" BASIS,
  - WITHOUT WARRANTIES OR CONDITIONS OF ANY KIND, either express or implied.
  - See the License for the specific language governing permissions and
  - limitations under the License.
  -->

<svg width="32" height="32" viewBox="0 0 32 32" fill="none" xmlns="http://www.w3.org/2000/svg">
<path d="M10.5534 9.81443C10.526 9.78839 10.4961 9.76037 10.4665 9.73199C9.86094 9.15017 9.39226 8.47744 9.10916 7.68229C9.02992 7.45975 8.9701 7.23276 8.98071 6.99307C8.98172 6.97033 8.98165 6.94751 8.98322 6.92481C9.00458 6.61541 9.21166 6.45906 9.51403 6.53233C9.6094 6.55703 9.70168 6.5924 9.78914 6.63776C10.1199 6.80362 10.3894 7.04882 10.6373 7.31772C11.0776 7.78627 11.4307 8.32967 11.68 8.92234C11.6854 8.93646 11.6917 8.95026 11.6987 8.96367C11.7021 8.96984 11.7093 8.97388 11.7255 8.98857C12.9056 8.28061 14.2404 7.87101 15.6145 7.79526C15.606 7.75321 15.6009 7.72106 15.593 7.68966C15.4528 7.10946 15.4098 6.51003 15.4657 5.91575C15.4902 5.55963 15.562 5.20834 15.679 4.87109C15.7356 4.69346 15.8247 4.5279 15.9419 4.38286C15.9861 4.33106 16.0372 4.2855 16.0937 4.24743C16.15 4.20763 16.2171 4.18604 16.2861 4.18556C16.355 4.18507 16.4224 4.20573 16.4793 4.24475C16.5994 4.32609 16.696 4.4375 16.7596 4.56787C16.878 4.78898 16.9631 5.02637 17.0122 5.27235C17.124 5.7925 17.1583 6.32633 17.1141 6.85652C17.0921 7.18012 17.036 7.50048 16.9465 7.81224C17.2884 7.87521 17.6286 7.92401 17.9616 8.00314C18.2939 8.08041 18.6214 8.17662 18.9427 8.2913C19.2667 8.41018 19.5835 8.54752 19.8917 8.70262C20.1963 8.85451 20.4862 9.03578 20.7902 9.20846C20.8 9.18768 20.8144 9.16287 20.824 9.13636C21.1406 8.2606 21.6859 7.48557 22.4033 6.89177C22.5707 6.74801 22.763 6.63605 22.9707 6.56139C23.0279 6.54145 23.0871 6.52784 23.1473 6.52082C23.448 6.48639 23.5742 6.67559 23.5964 6.90155C23.6131 7.06812 23.6005 7.23633 23.5593 7.39857C23.4494 7.81768 23.2757 8.21736 23.0442 8.58358C22.7183 9.11023 22.3314 9.58462 21.8398 9.96744C21.8252 9.97874 21.8125 9.99231 21.7879 10.015C22.2688 10.4585 22.6971 10.9559 23.0644 11.4973C23.0378 11.5042 23.0107 11.509 22.9833 11.5116C22.4747 11.5123 21.9661 11.5107 21.4576 11.5138C21.4276 11.5131 21.3983 11.5054 21.3718 11.4913C21.3454 11.4772 21.3226 11.4572 21.3053 11.4327C20.1957 10.2204 18.6997 9.4307 17.0728 9.19838C16.5916 9.12838 16.1044 9.10957 15.6193 9.14226C14.1729 9.23058 12.7891 9.7639 11.6576 10.6692C11.3654 10.8996 11.0928 11.154 10.8427 11.4296C10.8205 11.4571 10.7922 11.4791 10.76 11.4937C10.7278 11.5084 10.6926 11.5153 10.6573 11.5139C10.1715 11.5106 9.68565 11.5123 9.19984 11.5123H9.09654C9.1262 11.3967 9.42487 10.9872 9.76295 10.6217C10.0151 10.3491 10.2821 10.0904 10.5534 9.81443Z" fill="#0F1689"/>
<path d="M22.9373 20.6997C22.5995 21.1726 22.2139 21.6096 21.7866 22.0036C21.8207 22.0319 21.8483 22.055 21.876 22.078C22.6176 22.6847 23.1771 23.4844 23.4928 24.389C23.5768 24.6096 23.6128 24.8456 23.5985 25.0812C23.5941 25.1415 23.582 25.2011 23.5626 25.2584C23.5382 25.3396 23.4848 25.409 23.4127 25.4534C23.3405 25.4979 23.2545 25.5143 23.171 25.4995C23.0584 25.4849 22.9488 25.4524 22.8464 25.4032C22.69 25.3261 22.5423 25.2325 22.4057 25.1241C21.6862 24.533 21.14 23.7583 20.8248 22.8821C20.8158 22.8575 20.8059 22.8332 20.7901 22.792C20.407 23.0454 20.0057 23.2701 19.5895 23.4644C19.1753 23.6532 18.747 23.8093 18.3085 23.9312C17.863 24.0521 17.4087 24.1386 16.9499 24.1898C16.958 24.2301 16.9626 24.2623 16.9709 24.2934C17.1164 24.8644 17.1646 25.4558 17.1135 26.0427C17.0943 26.4106 17.0229 26.7739 16.9012 27.1216C16.8433 27.2655 16.7765 27.4057 16.7013 27.5414C16.6708 27.594 16.633 27.642 16.589 27.684C16.398 27.8812 16.1699 27.8829 15.9837 27.6804C15.9101 27.5988 15.8471 27.5082 15.7962 27.4108C15.6485 27.1336 15.5725 26.8321 15.5182 26.5247C15.4483 26.1051 15.4265 25.6789 15.453 25.2544C15.4674 24.9435 15.5138 24.6349 15.5914 24.3335C15.5981 24.3079 15.6043 24.2821 15.6092 24.2562C15.6105 24.2496 15.6062 24.2419 15.6011 24.2208C14.2272 24.1431 12.8931 23.7313 11.7146 23.0211C11.6949 23.0647 11.678 23.1014 11.6617 23.1384C11.3314 23.9091 10.8231 24.5905 10.1784 25.1266C10.0078 25.2725 9.81176 25.3857 9.60017 25.4607C9.50101 25.5004 9.39279 25.5121 9.28744 25.4943C9.22926 25.4839 9.17479 25.4585 9.12933 25.4208C9.08387 25.383 9.04899 25.3341 9.02808 25.2788C8.96011 25.1144 8.97215 24.9435 8.99523 24.774C9.0331 24.5377 9.10265 24.3076 9.202 24.09C9.49639 23.4043 9.92968 22.7871 10.4745 22.2773C10.4966 22.2565 10.5192 22.2362 10.5408 22.215C10.5477 22.2051 10.5536 22.1946 10.5584 22.1835C10.045 21.7383 9.58626 21.2337 9.19184 20.6803C9.2391 20.6765 9.27072 20.6717 9.30234 20.6716C9.80703 20.6712 10.3117 20.673 10.8164 20.6695C10.85 20.6685 10.8833 20.675 10.9141 20.6885C10.9448 20.702 10.9722 20.7222 10.9942 20.7476C11.5428 21.3121 12.1821 21.7807 12.8855 22.1341C13.6296 22.517 14.4388 22.7575 15.2713 22.8432C17.5331 23.0631 19.4787 22.3774 21.1081 20.7862C21.1445 20.7468 21.1892 20.7159 21.2389 20.6956C21.2886 20.6754 21.3421 20.6662 21.3957 20.6689C21.8662 20.6747 22.3368 20.6713 22.8073 20.6713H22.9289L22.9373 20.6997Z" fill="#0F1689"/>
<path d="M20.8354 13.4927C20.9691 13.4927 21.0979 13.5018 21.2249 13.4903C21.3686 13.4773 21.4715 13.5287 21.5764 13.6253C22.1818 14.1832 22.7936 14.7342 23.4032 15.2874C23.4339 15.3152 23.4652 15.3423 23.5045 15.3772C23.5412 15.3456 23.5756 15.3175 23.6084 15.2876C24.2368 14.7156 24.8648 14.143 25.4923 13.5699C25.5184 13.5431 25.5498 13.5221 25.5846 13.5085C25.6195 13.4949 25.6568 13.4889 25.6941 13.4909C25.8486 13.4971 26.0035 13.4927 26.1665 13.4927V18.5504C26.0838 18.5746 24.9725 18.5793 24.8398 18.5533V15.9919L24.814 15.9797C24.3815 16.3742 23.949 16.7686 23.5066 17.1721C23.0638 16.7731 22.6262 16.379 22.1886 15.9848L22.1635 15.994C22.1624 16.2078 22.1631 16.4216 22.163 16.6354C22.1628 16.8478 22.1628 17.0603 22.1629 17.2728V18.5626H20.8464C20.8217 18.4775 20.8103 13.7788 20.8354 13.4927Z" fill="#0F1689"/>
<path d="M8.68644 13.4985H9.99507C10.0215 13.5827 10.0267 18.4412 9.99962 18.5637H8.68981C8.6826 18.242 8.68754 17.9213 8.68663 17.6008C8.68573 17.2829 8.68644 16.965 8.68644 16.6389H7.06463V18.5464C6.96578 18.576 5.84861 18.5788 5.73755 18.5523V13.4991H7.05938V15.2842C7.15384 15.3115 8.5437 15.3165 8.68524 15.2904C8.68563 15.1475 8.6862 15.0011 8.68639 14.8547C8.68659 14.703 8.68661 14.5512 8.68644 14.3994C8.68644 14.2514 8.68644 14.1034 8.68644 13.9554C8.68644 13.8076 8.68644 13.6599 8.68644 13.4985Z" fill="#0F1689"/>
<path d="M11.5637 18.5618V13.5135C11.6413 13.4881 14.5179 13.4781 14.7059 13.5036V14.5795C14.6637 14.5826 14.6202 14.5883 14.5767 14.5884C14.0644 14.589 13.5521 14.5892 13.0398 14.5888H12.8974V15.4256H14.498V16.5388H12.9117C12.8851 16.6341 12.8778 17.298 12.8994 17.4818C12.9399 17.4846 12.9834 17.49 13.0268 17.49C13.5391 17.4906 14.0514 17.4907 14.5637 17.4904H14.7062V18.5618H11.5637Z" fill="#0F1689"/>
<path d="M16.2055 18.5634C16.1815 18.4279 16.1863 13.5905 16.2102 13.4985H17.514V17.2312C17.5702 17.2342 17.6143 17.2384 17.6585 17.2384C18.1746 17.2389 18.6907 17.239 19.2068 17.2387C19.2512 17.2387 19.2956 17.2387 19.3463 17.2387V18.5634L16.2055 18.5634Z" fill="#0F1689"/>
</svg>
