<!--
  - Copyright (c) 2024. Devtron Inc.
  -
  - Licensed under the Apache License, Version 2.0 (the "License");
  - you may not use this file except in compliance with the License.
  - You may obtain a copy of the License at
  -
  -     http://www.apache.org/licenses/LICENSE-2.0
  -
  - Unless required by applicable law or agreed to in writing, software
  - distributed under the License is distributed on an "AS IS" BASIS,
  - WITHOUT WARRANTIES OR CONDITIONS OF ANY KIND, either express or implied.
  - See the License for the specific language governing permissions and
  - limitations under the License.
  -->

<svg width="16" height="16" viewBox="0 0 16 16" fill="none" xmlns="http://www.w3.org/2000/svg">
<path d="M11.0104 6.23225H14.0104M14.0104 6.23225V3.23225M14.0104 6.23225L11.889 4.11091C11.3783 3.60019 10.772 3.19506 10.1047 2.91866C9.43741 2.64226 8.72221 2.5 7.99994 2.5C7.27767 2.5 6.56248 2.64226 5.89518 2.91866C5.22789 3.19506 4.62158 3.60019 4.11086 4.11091M4.9895 9.76775H1.9895M1.9895 9.76775V12.7678M1.9895 9.76775L4.11085 11.8891C4.62157 12.3998 5.22789 12.8049 5.89518 13.0813C6.56247 13.3577 7.27767 13.5 7.99994 13.5C8.72221 13.5 9.43741 13.3577 10.1047 13.0813C10.772 12.8049 11.3783 12.3998 11.889 11.8891" stroke="#0066CC" stroke-width="1.5" stroke-linecap="round" stroke-linejoin="round"/>
</svg>
