<!--
  - Copyright (c) 2024. Devtron Inc.
  -
  - Licensed under the Apache License, Version 2.0 (the "License");
  - you may not use this file except in compliance with the License.
  - You may obtain a copy of the License at
  -
  -     http://www.apache.org/licenses/LICENSE-2.0
  -
  - Unless required by applicable law or agreed to in writing, software
  - distributed under the License is distributed on an "AS IS" BASIS,
  - WITHOUT WARRANTIES OR CONDITIONS OF ANY KIND, either express or implied.
  - See the License for the specific language governing permissions and
  - limitations under the License.
  -->

<svg width="24" height="24" viewBox="0 0 24 24" fill="none" xmlns="http://www.w3.org/2000/svg">
<g clip-path="url(#clip0_6967_6190)">
<rect width="24" height="24" rx="6" fill="#E6F5F8"/>
<path d="M8.33865 19.8179C8.33865 19.8179 8.17937 20.2957 7.94047 20.5346C7.87039 20.6124 7.78425 20.6741 7.688 20.7153C7.59175 20.7566 7.48769 20.7764 7.38301 20.7735C6.99053 20.8793 6.59148 20.9592 6.18848 21.0124C6.18848 21.0124 6.74593 21.092 7.38301 21.1717C7.62192 21.1717 7.62192 21.1717 7.78119 21.2513C8.17937 21.2513 8.33865 21.0124 8.33865 21.0124V19.8179Z" fill="#E9654B"/>
<path d="M15.6656 19.8179C15.6656 19.8179 15.8248 20.2957 16.0638 20.5346C16.1338 20.6124 16.22 20.6741 16.3162 20.7153C16.4125 20.7566 16.5165 20.7764 16.6212 20.7735C17.0137 20.8793 17.4127 20.9592 17.8157 21.0124C17.8157 21.0124 17.2583 21.092 16.5416 21.1717C16.3027 21.1717 16.3027 21.1717 16.1434 21.2513C15.6656 21.2513 15.5859 21.0124 15.5859 21.0124L15.6656 19.8179Z" fill="#E9654B"/>
<path d="M12.0821 20.5346C16.8321 20.5346 20.6828 16.684 20.6828 11.9339C20.6828 7.18391 16.8321 3.33325 12.0821 3.33325C7.3321 3.33325 3.48145 7.18391 3.48145 11.9339C3.48145 16.684 7.3321 20.5346 12.0821 20.5346Z" fill="#B6CFEA"/>
<path d="M12.0819 20.2161C16.656 20.2161 20.3641 16.5081 20.3641 11.934C20.3641 7.35989 16.656 3.65186 12.0819 3.65186C7.50784 3.65186 3.7998 7.35989 3.7998 11.934C3.7998 16.5081 7.50784 20.2161 12.0819 20.2161Z" fill="#E6F5F8"/>
<path d="M12.0816 18.8623C15.82 18.8623 18.8506 15.8317 18.8506 12.0933C18.8506 8.35483 15.82 5.32422 12.0816 5.32422C8.34311 5.32422 5.3125 8.35483 5.3125 12.0933C5.3125 15.8317 8.34311 18.8623 12.0816 18.8623Z" fill="#D0E8F0"/>
<path d="M8.09946 15.2788C8.09946 15.2788 8.65691 24.2777 8.65691 24.4369C8.65691 24.5166 8.73655 24.6758 8.33837 24.8351C7.94019 24.9944 6.66602 25.3129 6.66602 25.3129H8.57728C9.45327 25.3129 9.45327 24.5962 9.45327 24.4369C9.45327 24.2777 9.69218 20.8533 9.69218 20.8533C9.69218 20.8533 9.77182 24.9148 9.77182 25.074C9.77182 25.2333 9.69218 25.4722 9.13473 25.6315C8.73655 25.7111 7.54201 25.95 7.54201 25.95H9.37364C10.4885 25.95 10.4885 25.2333 10.4885 25.2333L10.7274 21.6497C10.7274 21.6497 10.8071 25.2333 10.8071 25.6315C10.8071 25.95 10.5682 26.1889 9.69218 26.3482C9.13473 26.5075 8.41801 26.6668 8.41801 26.6668H10.4885C11.5238 26.5871 11.6831 25.8704 11.6831 25.8704L13.4351 16.9512L8.09946 15.2788Z" fill="#EE794B"/>
<path d="M16.0631 15.2788C16.0631 15.2788 15.5057 24.2777 15.5057 24.4369C15.5057 24.5166 15.4261 24.6758 15.8242 24.8351C16.2224 24.9944 17.4966 25.3129 17.4966 25.3129H15.5853C14.7093 25.3129 14.7093 24.5962 14.7093 24.4369C14.7093 24.2777 14.4704 20.8533 14.4704 20.8533C14.4704 20.8533 14.3908 24.9148 14.3908 25.074C14.3908 25.2333 14.4704 25.4722 15.0279 25.6315C15.4261 25.7111 16.6206 25.95 16.6206 25.95H14.789C13.6741 25.95 13.6741 25.2333 13.6741 25.2333L13.4352 21.6497C13.4352 21.6497 13.3555 25.2333 13.3555 25.6315C13.3555 25.95 13.5944 26.1889 14.4704 26.3482C15.0279 26.5075 15.7446 26.6668 15.7446 26.6668H13.6741C12.6388 26.5871 12.4795 25.8704 12.4795 25.8704L10.7275 16.9512L16.0631 15.2788Z" fill="#EE794B"/>
<path d="M16.1433 10.8988C16.1433 13.1286 14.3117 14.8806 12.1615 14.8806C10.0113 14.8806 8.17969 13.049 8.17969 10.8988C8.17969 8.74862 10.0113 6.91699 12.1615 6.91699C14.3117 6.91699 16.1433 8.66898 16.1433 10.8988Z" fill="#EE794B"/>
<mask id="mask0_6967_6190" style="mask-type:luminance" maskUnits="userSpaceOnUse" x="8" y="10" width="9" height="12">
<path d="M16.1428 10.7395L15.6651 21.6496H8.4978L8.09961 10.7395" fill="white"/>
</mask>
<g mask="url(#mask0_6967_6190)">
<path d="M12.1608 20.1366C16.0752 20.1366 19.2484 16.9634 19.2484 13.049C19.2484 9.13465 16.0752 5.96143 12.1608 5.96143C8.24647 5.96143 5.07324 9.13465 5.07324 13.049C5.07324 16.9634 8.24647 20.1366 12.1608 20.1366Z" fill="#EE794B"/>
</g>
<g opacity="0.22">
<path d="M15.9038 15.2788C15.9038 15.2788 16.3816 11.058 15.7445 9.46533C14.55 6.67807 11.7627 6.91698 11.7627 6.91698C11.7627 6.91698 13.3554 7.55407 13.4351 9.94315C13.5147 11.6155 13.4351 14.0842 13.4351 14.0842L15.9038 15.2788Z" fill="#E34E3B"/>
</g>
<g opacity="0.5">
<path d="M10.4891 9.30582C10.797 9.30582 11.0465 9.05624 11.0465 8.74837C11.0465 8.4405 10.797 8.19092 10.4891 8.19092C10.1812 8.19092 9.93164 8.4405 9.93164 8.74837C9.93164 9.05624 10.1812 9.30582 10.4891 9.30582Z" fill="#FBDFC3"/>
</g>
<path d="M13.5153 16.8712C13.5153 18.225 12.8782 19.101 12.0819 19.101C11.2855 19.101 10.6484 18.0657 10.6484 16.7119C10.6484 16.7119 11.2855 17.9861 12.1615 17.9861C13.0375 17.9861 13.5153 16.8712 13.5153 16.8712Z" fill="#010101"/>
<path d="M13.5158 16.8711C13.5158 17.7471 12.8787 18.225 12.0823 18.225C11.286 18.225 10.7285 17.5879 10.7285 16.7915C10.7285 16.7915 11.3656 17.5879 12.2416 17.5879C13.1176 17.5879 13.5158 16.8711 13.5158 16.8711Z" fill="white"/>
<path d="M14.8691 15.5971C16.2325 15.5971 17.3378 14.4918 17.3378 13.1284C17.3378 11.7649 16.2325 10.6597 14.8691 10.6597C13.5057 10.6597 12.4004 11.7649 12.4004 13.1284C12.4004 14.4918 13.5057 15.5971 14.8691 15.5971Z" fill="#E9654B"/>
<path d="M9.29489 15.5971C10.6583 15.5971 11.7636 14.4918 11.7636 13.1284C11.7636 11.7649 10.6583 10.6597 9.29489 10.6597C7.93145 10.6597 6.82617 11.7649 6.82617 13.1284C6.82617 14.4918 7.93145 15.5971 9.29489 15.5971Z" fill="#E9654B"/>
<path d="M14.8693 15.0396C15.9248 15.0396 16.7805 14.1839 16.7805 13.1283C16.7805 12.0727 15.9248 11.217 14.8693 11.217C13.8137 11.217 12.958 12.0727 12.958 13.1283C12.958 14.1839 13.8137 15.0396 14.8693 15.0396Z" fill="white"/>
<path d="M9.13587 15.0396C10.1914 15.0396 11.0471 14.1839 11.0471 13.1283C11.0471 12.0727 10.1914 11.217 9.13587 11.217C8.08031 11.217 7.22461 12.0727 7.22461 13.1283C7.22461 14.1839 8.08031 15.0396 9.13587 15.0396Z" fill="white"/>
<path d="M9.13558 13.4469C9.44345 13.4469 9.69303 13.1974 9.69303 12.8895C9.69303 12.5816 9.44345 12.332 9.13558 12.332C8.8277 12.332 8.57812 12.5816 8.57812 12.8895C8.57812 13.1974 8.8277 13.4469 9.13558 13.4469Z" fill="#010101"/>
<path d="M14.869 13.4469C15.1768 13.4469 15.4264 13.1974 15.4264 12.8895C15.4264 12.5816 15.1768 12.332 14.869 12.332C14.5611 12.332 14.3115 12.5816 14.3115 12.8895C14.3115 13.1974 14.5611 13.4469 14.869 13.4469Z" fill="#010101"/>
<path d="M3.32171 14.084C3.26859 14.0872 3.21539 14.0791 3.16562 14.0603C3.11586 14.0414 3.07067 14.0122 3.03303 13.9745C2.9954 13.9369 2.96618 13.8917 2.9473 13.842C2.92843 13.7922 2.92033 13.739 2.92354 13.6859V10.5004C2.92033 10.4473 2.92843 10.3941 2.9473 10.3443C2.96618 10.2946 2.9954 10.2494 3.03303 10.2117C3.07067 10.1741 3.11586 10.1449 3.16562 10.126C3.21539 10.1071 3.26859 10.099 3.32171 10.1022C3.37484 10.099 3.42804 10.1071 3.47781 10.126C3.52757 10.1449 3.57276 10.1741 3.61039 10.2117C3.64803 10.2494 3.67725 10.2946 3.69613 10.3443C3.715 10.3941 3.7231 10.4473 3.71989 10.5004V13.6859C3.7231 13.739 3.715 13.7922 3.69612 13.842C3.67725 13.8917 3.64803 13.9369 3.61039 13.9745C3.57276 14.0122 3.52757 14.0414 3.47781 14.0603C3.42804 14.0791 3.37484 14.0872 3.32171 14.084Z" fill="#B6CFEA"/>
<path d="M20.6821 14.084C20.6289 14.0872 20.5757 14.0791 20.526 14.0603C20.4762 14.0414 20.431 14.0122 20.3934 13.9745C20.3558 13.9369 20.3265 13.8917 20.3077 13.842C20.2888 13.7922 20.2807 13.739 20.2839 13.6859V10.5004C20.2807 10.4473 20.2888 10.3941 20.3077 10.3443C20.3265 10.2946 20.3558 10.2494 20.3934 10.2117C20.431 10.1741 20.4762 10.1449 20.526 10.126C20.5757 10.1071 20.6289 10.099 20.6821 10.1022C20.7352 10.099 20.7884 10.1071 20.8382 10.126C20.8879 10.1449 20.9331 10.1741 20.9707 10.2117C21.0084 10.2494 21.0376 10.2946 21.0565 10.3443C21.0754 10.3941 21.0835 10.4473 21.0802 10.5004V13.6859C21.0835 13.739 21.0754 13.7922 21.0565 13.842C21.0376 13.8917 21.0084 13.9369 20.9707 13.9745C20.9331 14.0122 20.8879 14.0414 20.8382 14.0603C20.7884 14.0791 20.7352 14.0872 20.6821 14.084Z" fill="#B6CFEA"/>
<path d="M9.37377 5.96115C9.59367 5.96115 9.77195 5.78288 9.77195 5.56297C9.77195 5.34307 9.59367 5.16479 9.37377 5.16479C9.15386 5.16479 8.97559 5.34307 8.97559 5.56297C8.97559 5.78288 9.15386 5.96115 9.37377 5.96115Z" fill="white"/>
<path d="M6.50736 16.314C6.46412 16.3193 6.42023 16.315 6.3789 16.3012C6.33756 16.2874 6.29983 16.2646 6.26845 16.2343C5.31282 15.0398 4.835 13.5267 4.835 12.0136C4.83071 10.7556 5.16048 9.5189 5.79063 8.43001C6.42933 7.39314 7.30211 6.52036 8.33898 5.88166C8.4054 5.85192 8.47943 5.8436 8.55079 5.85787C8.62215 5.87215 8.68729 5.9083 8.73716 5.9613C8.76691 6.02772 8.77522 6.10175 8.76095 6.17311C8.74668 6.24447 8.71053 6.30961 8.65753 6.35948C7.66968 6.91777 6.84722 7.72761 6.27375 8.70672C5.70027 9.68583 5.3962 10.7993 5.39245 11.934C5.39053 13.3502 5.86765 14.7254 6.74626 15.8362C6.8259 15.9158 6.8259 16.1547 6.66663 16.2343C6.58699 16.314 6.58699 16.314 6.50736 16.314Z" fill="white"/>
<g opacity="0.25">
<path d="M15.6649 20.0568V19.4197C14.55 20.0568 13.3555 20.6939 11.922 20.6939C10.3293 20.6939 9.29406 19.9771 8.25879 19.4197L8.33843 20.0568C8.33843 20.0568 9.53296 21.3309 12.0017 21.3309C14.3111 21.2513 15.6649 20.0568 15.6649 20.0568Z" fill="#E9654B"/>
</g>
</g>
<defs>
<clipPath id="clip0_6967_6190">
<rect width="24" height="24" rx="6" fill="white"/>
</clipPath>
</defs>
</svg>
