<svg width="24" height="24" viewBox="0 0 24 24" fill="none" xmlns="http://www.w3.org/2000/svg">
<g clip-path="url(#clip0_6805_4500)">
<rect width="24" height="24" rx="6" fill="#E6F5F8"/>
<path d="M8.33865 19.818C8.33865 19.818 8.17937 20.2958 7.94047 20.5347C7.87039 20.6125 7.78425 20.6742 7.688 20.7155C7.59175 20.7567 7.48769 20.7765 7.38301 20.7736C6.99053 20.8795 6.59148 20.9593 6.18848 21.0125C6.18848 21.0125 6.74593 21.0922 7.38301 21.1718C7.62192 21.1718 7.62192 21.1718 7.78119 21.2514C8.17937 21.2514 8.33865 21.0125 8.33865 21.0125V19.818Z" fill="#E9654B"/>
<path d="M15.6656 19.818C15.6656 19.818 15.8248 20.2958 16.0638 20.5347C16.1338 20.6125 16.22 20.6742 16.3162 20.7155C16.4125 20.7567 16.5165 20.7765 16.6212 20.7736C17.0137 20.8795 17.4127 20.9593 17.8157 21.0125C17.8157 21.0125 17.2583 21.0922 16.5416 21.1718C16.3027 21.1718 16.3027 21.1718 16.1434 21.2514C15.6656 21.2514 15.5859 21.0125 15.5859 21.0125L15.6656 19.818Z" fill="#E9654B"/>
<path d="M12.0821 20.5347C16.8321 20.5347 20.6828 16.6841 20.6828 11.9341C20.6828 7.18403 16.8321 3.33337 12.0821 3.33337C7.3321 3.33337 3.48145 7.18403 3.48145 11.9341C3.48145 16.6841 7.3321 20.5347 12.0821 20.5347Z" fill="#B6CFEA"/>
<path d="M12.0819 20.2161C16.656 20.2161 20.3641 16.5081 20.3641 11.934C20.3641 7.35989 16.656 3.65186 12.0819 3.65186C7.50784 3.65186 3.7998 7.35989 3.7998 11.934C3.7998 16.5081 7.50784 20.2161 12.0819 20.2161Z" fill="#E6F5F8"/>
<path d="M12.0816 18.8623C15.82 18.8623 18.8506 15.8317 18.8506 12.0933C18.8506 8.35483 15.82 5.32422 12.0816 5.32422C8.34311 5.32422 5.3125 8.35483 5.3125 12.0933C5.3125 15.8317 8.34311 18.8623 12.0816 18.8623Z" fill="#D0E8F0"/>
<path d="M8.09946 15.2787C8.09946 15.2787 8.65691 24.2775 8.65691 24.4368C8.65691 24.5165 8.73655 24.6757 8.33837 24.835C7.94019 24.9943 6.66602 25.3128 6.66602 25.3128H8.57728C9.45327 25.3128 9.45327 24.5961 9.45327 24.4368C9.45327 24.2775 9.69218 20.8532 9.69218 20.8532C9.69218 20.8532 9.77182 24.9146 9.77182 25.0739C9.77182 25.2332 9.69218 25.4721 9.13473 25.6314C8.73655 25.711 7.54201 25.9499 7.54201 25.9499H9.37364C10.4885 25.9499 10.4885 25.2332 10.4885 25.2332L10.7274 21.6496C10.7274 21.6496 10.8071 25.2332 10.8071 25.6314C10.8071 25.9499 10.5682 26.1888 9.69218 26.3481C9.13473 26.5074 8.41801 26.6666 8.41801 26.6666H10.4885C11.5238 26.587 11.6831 25.8703 11.6831 25.8703L13.4351 16.951L8.09946 15.2787Z" fill="#EE794B"/>
<path d="M16.0631 15.2787C16.0631 15.2787 15.5057 24.2775 15.5057 24.4368C15.5057 24.5165 15.4261 24.6757 15.8242 24.835C16.2224 24.9943 17.4966 25.3128 17.4966 25.3128H15.5853C14.7093 25.3128 14.7093 24.5961 14.7093 24.4368C14.7093 24.2775 14.4704 20.8532 14.4704 20.8532C14.4704 20.8532 14.3908 24.9146 14.3908 25.0739C14.3908 25.2332 14.4704 25.4721 15.0279 25.6314C15.4261 25.711 16.6206 25.9499 16.6206 25.9499H14.789C13.6741 25.9499 13.6741 25.2332 13.6741 25.2332L13.4352 21.6496C13.4352 21.6496 13.3555 25.2332 13.3555 25.6314C13.3555 25.9499 13.5944 26.1888 14.4704 26.3481C15.0279 26.5074 15.7446 26.6666 15.7446 26.6666H13.6741C12.6388 26.587 12.4795 25.8703 12.4795 25.8703L10.7275 16.951L16.0631 15.2787Z" fill="#EE794B"/>
<path d="M16.1433 10.8988C16.1433 13.1286 14.3117 14.8806 12.1615 14.8806C10.0113 14.8806 8.17969 13.049 8.17969 10.8988C8.17969 8.74862 10.0113 6.91699 12.1615 6.91699C14.3117 6.91699 16.1433 8.66898 16.1433 10.8988Z" fill="#EE794B"/>
<mask id="mask0_6805_4500" style="mask-type:luminance" maskUnits="userSpaceOnUse" x="8" y="10" width="9" height="12">
<path d="M16.1428 10.7395L15.6651 21.6496H8.4978L8.09961 10.7395" fill="white"/>
</mask>
<g mask="url(#mask0_6805_4500)">
<path d="M12.1608 20.1366C16.0752 20.1366 19.2484 16.9634 19.2484 13.049C19.2484 9.13465 16.0752 5.96143 12.1608 5.96143C8.24647 5.96143 5.07324 9.13465 5.07324 13.049C5.07324 16.9634 8.24647 20.1366 12.1608 20.1366Z" fill="#EE794B"/>
</g>
<g opacity="0.22">
<path d="M15.9038 15.2788C15.9038 15.2788 16.3816 11.058 15.7445 9.46533C14.55 6.67807 11.7627 6.91698 11.7627 6.91698C11.7627 6.91698 13.3554 7.55407 13.4351 9.94315C13.5147 11.6155 13.4351 14.0842 13.4351 14.0842L15.9038 15.2788Z" fill="#E34E3B"/>
</g>
<g opacity="0.5">
<path d="M10.4891 9.30606C10.797 9.30606 11.0465 9.05649 11.0465 8.74861C11.0465 8.44074 10.797 8.19116 10.4891 8.19116C10.1812 8.19116 9.93164 8.44074 9.93164 8.74861C9.93164 9.05649 10.1812 9.30606 10.4891 9.30606Z" fill="#FBDFC3"/>
</g>
<path d="M13.5153 16.8714C13.5153 18.2252 12.8782 19.1012 12.0819 19.1012C11.2855 19.1012 10.6484 18.066 10.6484 16.7122C10.6484 16.7122 11.2855 17.9863 12.1615 17.9863C13.0375 17.9863 13.5153 16.8714 13.5153 16.8714Z" fill="#010101"/>
<path d="M13.5158 16.8715C13.5158 17.7475 12.8787 18.2253 12.0823 18.2253C11.286 18.2253 10.7285 17.5882 10.7285 16.7919C10.7285 16.7919 11.3656 17.5882 12.2416 17.5882C13.1176 17.5882 13.5158 16.8715 13.5158 16.8715Z" fill="white"/>
<path d="M14.8691 15.5973C16.2325 15.5973 17.3378 14.4921 17.3378 13.1286C17.3378 11.7652 16.2325 10.6599 14.8691 10.6599C13.5057 10.6599 12.4004 11.7652 12.4004 13.1286C12.4004 14.4921 13.5057 15.5973 14.8691 15.5973Z" fill="#E9654B"/>
<path d="M9.29489 15.5973C10.6583 15.5973 11.7636 14.4921 11.7636 13.1286C11.7636 11.7652 10.6583 10.6599 9.29489 10.6599C7.93145 10.6599 6.82617 11.7652 6.82617 13.1286C6.82617 14.4921 7.93145 15.5973 9.29489 15.5973Z" fill="#E9654B"/>
<path d="M14.8693 15.0399C15.9248 15.0399 16.7805 14.1842 16.7805 13.1287C16.7805 12.0731 15.9248 11.2174 14.8693 11.2174C13.8137 11.2174 12.958 12.0731 12.958 13.1287C12.958 14.1842 13.8137 15.0399 14.8693 15.0399Z" fill="white"/>
<path d="M9.13587 15.0399C10.1914 15.0399 11.0471 14.1842 11.0471 13.1287C11.0471 12.0731 10.1914 11.2174 9.13587 11.2174C8.08031 11.2174 7.22461 12.0731 7.22461 13.1287C7.22461 14.1842 8.08031 15.0399 9.13587 15.0399Z" fill="white"/>
<path d="M9.13558 13.4472C9.44345 13.4472 9.69303 13.1976 9.69303 12.8897C9.69303 12.5819 9.44345 12.3323 9.13558 12.3323C8.8277 12.3323 8.57812 12.5819 8.57812 12.8897C8.57812 13.1976 8.8277 13.4472 9.13558 13.4472Z" fill="#010101"/>
<path d="M14.869 13.4472C15.1768 13.4472 15.4264 13.1976 15.4264 12.8897C15.4264 12.5819 15.1768 12.3323 14.869 12.3323C14.5611 12.3323 14.3115 12.5819 14.3115 12.8897C14.3115 13.1976 14.5611 13.4472 14.869 13.4472Z" fill="#010101"/>
<path d="M3.32171 14.0842C3.26859 14.0874 3.21539 14.0793 3.16562 14.0604C3.11586 14.0415 3.07067 14.0123 3.03303 13.9747C2.9954 13.937 2.96618 13.8918 2.9473 13.8421C2.92843 13.7923 2.92033 13.7391 2.92354 13.686V10.5005C2.92033 10.4474 2.92843 10.3942 2.9473 10.3445C2.96618 10.2947 2.9954 10.2495 3.03303 10.2119C3.07067 10.1742 3.11586 10.145 3.16562 10.1261C3.21539 10.1073 3.26859 10.0992 3.32171 10.1024C3.37484 10.0992 3.42804 10.1073 3.47781 10.1261C3.52757 10.145 3.57276 10.1742 3.61039 10.2119C3.64803 10.2495 3.67725 10.2947 3.69613 10.3445C3.715 10.3942 3.7231 10.4474 3.71989 10.5005V13.686C3.7231 13.7391 3.715 13.7923 3.69612 13.8421C3.67725 13.8918 3.64803 13.937 3.61039 13.9747C3.57276 14.0123 3.52757 14.0415 3.47781 14.0604C3.42804 14.0793 3.37484 14.0874 3.32171 14.0842Z" fill="#B6CFEA"/>
<path d="M20.6821 14.0842C20.6289 14.0874 20.5757 14.0793 20.526 14.0604C20.4762 14.0415 20.431 14.0123 20.3934 13.9747C20.3558 13.937 20.3265 13.8918 20.3077 13.8421C20.2888 13.7923 20.2807 13.7391 20.2839 13.686V10.5005C20.2807 10.4474 20.2888 10.3942 20.3077 10.3445C20.3265 10.2947 20.3558 10.2495 20.3934 10.2119C20.431 10.1742 20.4762 10.145 20.526 10.1261C20.5757 10.1073 20.6289 10.0992 20.6821 10.1024C20.7352 10.0992 20.7884 10.1073 20.8382 10.1261C20.8879 10.145 20.9331 10.1742 20.9707 10.2119C21.0084 10.2495 21.0376 10.2947 21.0565 10.3445C21.0754 10.3942 21.0835 10.4474 21.0802 10.5005V13.686C21.0835 13.7391 21.0754 13.7923 21.0565 13.8421C21.0376 13.8918 21.0084 13.937 20.9707 13.9747C20.9331 14.0123 20.8879 14.0415 20.8382 14.0604C20.7884 14.0793 20.7352 14.0874 20.6821 14.0842Z" fill="#B6CFEA"/>
<path d="M9.37377 5.9614C9.59367 5.9614 9.77195 5.78313 9.77195 5.56322C9.77195 5.34331 9.59367 5.16504 9.37377 5.16504C9.15386 5.16504 8.97559 5.34331 8.97559 5.56322C8.97559 5.78313 9.15386 5.9614 9.37377 5.9614Z" fill="white"/>
<path d="M6.50736 16.3141C6.46412 16.3194 6.42023 16.3151 6.3789 16.3013C6.33756 16.2875 6.29983 16.2647 6.26845 16.2345C5.31282 15.0399 4.835 13.5268 4.835 12.0138C4.83071 10.7557 5.16048 9.51902 5.79063 8.43013C6.42933 7.39326 7.30211 6.52048 8.33898 5.88178C8.4054 5.85204 8.47943 5.84372 8.55079 5.858C8.62215 5.87227 8.68729 5.90842 8.73716 5.96142C8.76691 6.02784 8.77522 6.10187 8.76095 6.17323C8.74668 6.24459 8.71053 6.30973 8.65753 6.3596C7.66968 6.91789 6.84722 7.72773 6.27375 8.70684C5.70027 9.68595 5.3962 10.7994 5.39245 11.9341C5.39053 13.3503 5.86765 14.7256 6.74626 15.8363C6.8259 15.9159 6.8259 16.1548 6.66663 16.2345C6.58699 16.3141 6.58699 16.3141 6.50736 16.3141Z" fill="white"/>
<g opacity="0.25">
<path d="M15.6649 20.0569V19.4198C14.55 20.0569 13.3555 20.694 11.922 20.694C10.3293 20.694 9.29406 19.9773 8.25879 19.4198L8.33843 20.0569C8.33843 20.0569 9.53296 21.3311 12.0017 21.3311C14.3111 21.2514 15.6649 20.0569 15.6649 20.0569Z" fill="#E9654B"/>
</g>
</g>
<defs>
<clipPath id="clip0_6805_4500">
<rect width="24" height="24" rx="6" fill="white"/>
</clipPath>
</defs>
</svg>
