<svg width="12" height="12" viewBox="0 0 12 12" fill="none" xmlns="http://www.w3.org/2000/svg">
<path d="M3.74217 4.67419H1.49217M1.49217 4.67419V2.42419M1.49217 4.67419L3.08318 3.08319C3.66008 2.50629 4.39508 2.11343 5.19525 1.95426C5.99542 1.7951 6.82482 1.87679 7.57857 2.189C8.33231 2.50121 8.97655 3.02992 9.42981 3.70827C9.88307 4.38663 10.125 5.18415 10.125 6C10.125 6.81585 9.88307 7.61338 9.42981 8.29173C8.97655 8.97008 8.33231 9.49879 7.57857 9.81101C6.82482 10.1232 5.99542 10.2049 5.19525 10.0457C4.39508 9.88658 3.66008 9.49371 3.08318 8.91682" stroke="#596168" stroke-width="1.5" stroke-linecap="round" stroke-linejoin="round"/>
</svg>
