<!--
  - Copyright (c) 2024. Devtron Inc.
  -
  - Licensed under the Apache License, Version 2.0 (the "License");
  - you may not use this file except in compliance with the License.
  - You may obtain a copy of the License at
  -
  -     http://www.apache.org/licenses/LICENSE-2.0
  -
  - Unless required by applicable law or agreed to in writing, software
  - distributed under the License is distributed on an "AS IS" BASIS,
  - WITHOUT WARRANTIES OR CONDITIONS OF ANY KIND, either express or implied.
  - See the License for the specific language governing permissions and
  - limitations under the License.
  -->

<svg xmlns="http://www.w3.org/2000/svg" width="24" height="24" viewBox="0 0 24 24" fill="none">
  <rect width="24" height="24" rx="4" fill="url(#paint0_linear_5214_1365)"/>
  <path fill-rule="evenodd" clip-rule="evenodd" d="M15.3 11.9L13.833 13L15.3 14.1L14.7 14.9L12.7 13.4C12.574 13.306 12.5 13.157 12.5 13C12.5 12.843 12.574 12.694 12.7 12.6L14.7 11.1L15.3 11.9ZM7 5.5C7 5.224 7.224 5 7.5 5H10V6H8.722L10.356 7.648L9.645 8.352L8 6.693V8H7V5.5ZM18.464 11.186L16.464 16.186L15.536 15.815L17.536 10.815L18.464 11.186ZM20 7.5V18.5C20 18.776 19.777 19 19.5 19H11.496C11.363 19 11.237 18.947 11.143 18.854C11.049 18.759 10.996 18.632 10.996 18.499L11 15.999L12 16.001L11.997 18H19V8H13V7H19.5C19.777 7 20 7.224 20 7.5ZM11.5 9C11.776 9 12 9.224 12 9.5C12 9.776 11.776 10 11.5 10C11.225 10 11 9.776 11 9.5C11 9.224 11.225 9 11.5 9ZM5.5 18C5.225 18 5 17.776 5 17.5C5 17.224 5.225 17 5.5 17C5.776 17 6 17.224 6 17.5C6 17.776 5.776 18 5.5 18ZM5.5 11C5.776 11 6 11.224 6 11.5C6 11.776 5.776 12 5.5 12C5.225 12 5 11.776 5 11.5C5 11.224 5.225 11 5.5 11ZM5.5 4C5.776 4 6 4.224 6 4.5C6 4.776 5.776 5 5.5 5C5.225 5 5 4.776 5 4.5C5 4.224 5.225 4 5.5 4ZM12 12.798V10.908C12.581 10.701 13 10.151 13 9.5C13 8.673 12.327 8 11.5 8C10.673 8 10 8.673 10 9.5C10 10.151 10.419 10.701 11 10.908V12.798C11 12.988 10.87 13.163 10.735 13.222C10.675 13.236 9.249 13.587 8.023 14.297C7.431 14.622 6.591 15.521 6.128 16.142C6.086 16.123 6.043 16.108 6 16.092V12.908C6.581 12.701 7 12.151 7 11.5C7 10.849 6.581 10.299 6 10.092V5.908C6.581 5.701 7 5.151 7 4.5C7 3.673 6.327 3 5.5 3C4.673 3 4 3.673 4 4.5C4 5.151 4.419 5.701 5 5.908V10.092C4.419 10.299 4 10.849 4 11.5C4 12.151 4.419 12.701 5 12.908V16.092C4.419 16.299 4 16.849 4 17.5C4 18.327 4.673 19 5.5 19C6.327 19 7 18.327 7 17.5C7 17.266 6.942 17.046 6.845 16.849C7.153 16.419 7.993 15.454 8.514 15.168C9.622 14.526 10.957 14.197 11.037 14.172C11.622 13.94 12 13.401 12 12.798Z" fill="white"/>
  <defs>
    <linearGradient id="paint0_linear_5214_1365" x1="0" y1="2400" x2="2400" y2="0" gradientUnits="userSpaceOnUse">
      <stop stop-color="#2E27AD"/>
      <stop offset="1" stop-color="#527FFF"/>
    </linearGradient>
  </defs>
</svg>