<svg width="24" height="24" viewBox="0 0 24 24" fill="none" xmlns="http://www.w3.org/2000/svg">
<path d="M8.66744 3.00023H14.5856L8.44196 21.2032C8.37882 21.3903 8.25861 21.5528 8.09825 21.6679C7.93788 21.7831 7.74545 21.845 7.54803 21.8451H2.94223C2.79265 21.8451 2.64522 21.8095 2.51213 21.7412C2.37904 21.673 2.26411 21.574 2.17687 21.4525C2.08962 21.331 2.03256 21.1905 2.0104 21.0425C1.98824 20.8946 2.00162 20.7435 2.04943 20.6018L7.77328 3.64209C7.83639 3.45497 7.95663 3.29236 8.11704 3.17717C8.27745 3.06198 8.46995 3.00001 8.66744 3V3.00023Z" fill="url(#paint0_linear_382_933)"/>
<path d="M17.2675 15.2096H7.88264C7.79539 15.2095 7.71013 15.2357 7.63797 15.2847C7.56582 15.3338 7.5101 15.4034 7.47809 15.4846C7.44608 15.5658 7.43926 15.6547 7.45851 15.7398C7.47776 15.8249 7.5222 15.9022 7.58602 15.9617L13.6165 21.5903C13.7921 21.7541 14.0232 21.8452 14.2634 21.8451H19.5774L17.2675 15.2096Z" fill="#0078D4"/>
<path d="M8.66758 3.00025C8.46794 2.99948 8.27328 3.06257 8.11204 3.1803C7.95081 3.29803 7.83144 3.46423 7.77137 3.65462L2.05662 20.5864C2.00559 20.7286 1.98956 20.881 2.00991 21.0308C2.03025 21.1805 2.08636 21.3232 2.1735 21.4467C2.26063 21.5701 2.37622 21.6708 2.51048 21.7402C2.64475 21.8095 2.79375 21.8455 2.94487 21.8451H7.66955C7.84551 21.8137 8.00998 21.7361 8.14615 21.6203C8.28232 21.5045 8.38531 21.3546 8.44461 21.186L9.58424 17.8273L13.655 21.6242C13.8256 21.7653 14.0396 21.8433 14.261 21.8451H19.5552L17.2332 15.2096L10.4643 15.2112L14.6071 3.00025H8.66758Z" fill="url(#paint1_linear_382_933)"/>
<path d="M16.2264 3.6412C16.1634 3.45438 16.0433 3.29204 15.8832 3.17705C15.723 3.06206 15.5308 3.00022 15.3336 3.00024H8.7379C8.93506 3.00026 9.12725 3.06211 9.28741 3.17709C9.44757 3.29207 9.56763 3.4544 9.63069 3.6412L15.3548 20.6016C15.4026 20.7434 15.416 20.8945 15.3939 21.0424C15.3717 21.1904 15.3147 21.331 15.2274 21.4525C15.1402 21.574 15.0253 21.6731 14.8922 21.7414C14.759 21.8097 14.6116 21.8453 14.462 21.8453H21.0579C21.2075 21.8453 21.355 21.8096 21.488 21.7413C21.6211 21.673 21.736 21.574 21.8232 21.4524C21.9105 21.3309 21.9675 21.1903 21.9896 21.0424C22.0117 20.8944 21.9983 20.7433 21.9505 20.6016L16.2264 3.6412Z" fill="url(#paint2_linear_382_933)"/>
<defs>
<linearGradient id="paint0_linear_382_933" x1="10.8244" y1="4.3967" x2="4.67826" y2="22.554" gradientUnits="userSpaceOnUse">
<stop stop-color="#114A8B"/>
<stop offset="1" stop-color="#0669BC"/>
</linearGradient>
<linearGradient id="paint1_linear_382_933" x1="12.7445" y1="12.8585" x2="11.3228" y2="13.3392" gradientUnits="userSpaceOnUse">
<stop stop-opacity="0.3"/>
<stop offset="0.071" stop-opacity="0.2"/>
<stop offset="0.321" stop-opacity="0.1"/>
<stop offset="0.623" stop-opacity="0.05"/>
<stop offset="1" stop-opacity="0"/>
</linearGradient>
<linearGradient id="paint2_linear_382_933" x1="11.9625" y1="3.86713" x2="18.7091" y2="21.8415" gradientUnits="userSpaceOnUse">
<stop stop-color="#3CCBF4"/>
<stop offset="1" stop-color="#2892DF"/>
</linearGradient>
</defs>
</svg>
