<!--
  - Copyright (c) 2024. Devtron Inc.
  -
  - Licensed under the Apache License, Version 2.0 (the "License");
  - you may not use this file except in compliance with the License.
  - You may obtain a copy of the License at
  -
  -     http://www.apache.org/licenses/LICENSE-2.0
  -
  - Unless required by applicable law or agreed to in writing, software
  - distributed under the License is distributed on an "AS IS" BASIS,
  - WITHOUT WARRANTIES OR CONDITIONS OF ANY KIND, either express or implied.
  - See the License for the specific language governing permissions and
  - limitations under the License.
  -->

<svg width="48" height="48" viewBox="0 0 48 48" fill="none" xmlns="http://www.w3.org/2000/svg" vector-effect="non-scaling-effect">
<rect width="48" height="48" rx="6" fill="#FFF8ED"/>
<path d="M9 11.5001C9 10.1193 10.1193 9 11.5001 9H36.5007C37.8814 9 39.0007 10.1193 39.0007 11.5001V14.0001C39.0007 15.3809 37.8814 16.5002 36.5007 16.5002H11.5001C10.1193 16.5002 9 15.3809 9 14.0001V11.5001Z" fill="#FFC266"/>
<path d="M9 21.4981C9 20.1174 10.1193 18.998 11.5001 18.998H20.2503C21.631 18.998 22.7503 20.1174 22.7503 21.4981V25.2482C22.7503 26.6289 21.631 27.7483 20.2503 27.7483H11.5001C10.1193 27.7483 9 26.6289 9 25.2482V21.4981Z" fill="#FFE5BE"/>
<path d="M9 32.7501C9 31.3693 10.1193 30.25 11.5001 30.25H20.2503C21.631 30.25 22.7503 31.3693 22.7503 32.7501V36.5002C22.7503 37.8809 21.631 39.0002 20.2503 39.0002H11.5001C10.1193 39.0002 9 37.8809 9 36.5002V32.7501Z" fill="#FFE5BE"/>
<path d="M25.25 21.4981C25.25 20.1174 26.3693 18.998 27.7501 18.998H36.5003C37.881 18.998 39.0003 20.1174 39.0003 21.4981V36.4985C39.0003 37.8792 37.881 38.9986 36.5003 38.9986H27.7501C26.3693 38.9986 25.25 37.8792 25.25 36.4985V21.4981Z" fill="#FFC266"/>
</svg>
