<!--
  - Copyright (c) 2024. Devtron Inc.
  -
  - Licensed under the Apache License, Version 2.0 (the "License");
  - you may not use this file except in compliance with the License.
  - You may obtain a copy of the License at
  -
  -     http://www.apache.org/licenses/LICENSE-2.0
  -
  - Unless required by applicable law or agreed to in writing, software
  - distributed under the License is distributed on an "AS IS" BASIS,
  - WITHOUT WARRANTIES OR CONDITIONS OF ANY KIND, either express or implied.
  - See the License for the specific language governing permissions and
  - limitations under the License.
  -->

<svg xmlns="http://www.w3.org/2000/svg" xmlns:xlink="http://www.w3.org/1999/xlink" width="20" height="20" viewBox="0 0 20 20">
    <defs>
        <path id="a" d="M12.652 6.169H3.344L7.41 2.102a.84.84 0 0 0 0-1.183.83.83 0 0 0-1.175 0L.744 6.41a.83.83 0 0 0 0 1.175l5.491 5.492a.83.83 0 1 0 1.175-1.175L3.344 7.835h9.308a.836.836 0 0 0 .833-.833.836.836 0 0 0-.833-.833z"/>
    </defs>
    <g fill="none" fill-rule="evenodd" transform="translate(3 3)">
        <mask id="b" fill="#fff">
            <use xlink:href="#a"/>
        </mask>
        <use fill="#959BA1" transform="matrix(-1 0 0 1 13.985 0)" xlink:href="#a"/>
    </g>
</svg>
