<!--
  - Copyright (c) 2024. Devtron Inc.
  -
  - Licensed under the Apache License, Version 2.0 (the "License");
  - you may not use this file except in compliance with the License.
  - You may obtain a copy of the License at
  -
  -     http://www.apache.org/licenses/LICENSE-2.0
  -
  - Unless required by applicable law or agreed to in writing, software
  - distributed under the License is distributed on an "AS IS" BASIS,
  - WITHOUT WARRANTIES OR CONDITIONS OF ANY KIND, either express or implied.
  - See the License for the specific language governing permissions and
  - limitations under the License.
  -->

<svg xmlns="http://www.w3.org/2000/svg" viewBox="0 0 24 24">
    <g fill="none">
        <path fill="#876929" d="M7.427 1.09c.06.116.122.232.187.346.049.086.106.179.14.272-.079.014-.162.057-.236.088-.111.048-.225.089-.336.136-.204.088-.413.16-.618.244-.185.075-.372.168-.564.223V15.32c0 .07.025.198-.018.255.034.06.018.15.018.218v2.671c0 .058-.018.154.006.207.021.048.123.076.167.099.165.086.333.167.5.25.42.206.837.417 1.254.63.208.106.418.229.636.314V1.399c.076.107.131.231.193.346.112.206.227.412.342.618.362.649.722 1.3 1.076 1.953.763 1.408 1.559 2.799 2.32 4.207.275.508.561 1.01.837 1.518.2.37.397.746.611 1.108h.018c.128-.268.267-.532.398-.8.611-1.254 1.247-2.497 1.858-3.752.194-.398.393-.794.59-1.19.1-.199.213-.395.298-.6-.158.007-.317.049-.472.076-.2.035-.4.06-.6.1-.095.019-.195.022-.29.043-.03.007-.071.008-.097.026-.023.016-.035.049-.049.073-.033.057-.065.115-.096.173-.107.197-.218.393-.325.59-.275.508-.558 1.012-.836 1.518l-.241.436c-.047.083-.11.172-.138.263h-.018c-.026-.091-.083-.178-.125-.263l-.22-.445c-.234-.47-.47-.938-.699-1.409-.652-1.344-1.325-2.68-1.993-4.016-.22-.439-.436-.879-.654-1.318-.108-.217-.232-.43-.325-.654-.146.04-.29.12-.427.184-.195.09-.395.17-.59.258-.492.222-.995.418-1.482.648z" transform="translate(3 2)"/>
        <path fill="#D9A741" d="M8.563 1.4v18.564c.967-.495 1.945-.971 2.917-1.457 1.072-.537 2.141-1.083 3.216-1.614.577-.284 1.151-.575 1.727-.862.163-.081.329-.16.49-.246.051-.026.148-.051.182-.098.013-.018.01-.046.01-.067V4.816c-.061.073-.097.179-.14.264-.08.163-.164.325-.243.49-.236.494-.484.983-.728 1.472-.448.896-.889 1.795-1.336 2.69-.15.3-.296.6-.445.9-.085.168-.193.339-.253.517h-.018c-.049-.116-.122-.225-.183-.336-.1-.181-.199-.364-.3-.545-.277-.499-.55-1-.827-1.5-.788-1.42-1.564-2.849-2.353-4.27-.398-.717-.793-1.435-1.186-2.154-.112-.203-.226-.405-.337-.608l-.11-.2c-.023-.047-.045-.1-.083-.137zM4.047 3.18v12.895c.48-.119.958-.24 1.435-.366.124-.033.249-.064.373-.096.039-.01.11-.01.136-.045.013-.017.01-.045.01-.066V3.68c-.315-.06-.627-.157-.937-.238-.337-.09-.685-.154-1.017-.262z" transform="translate(3 2)"/>
        <path fill="#D9A741" d="M9.926 0c.024.085.076.166.116.245.072.146.147.29.218.437.26.534.53 1.066.793 1.599.638 1.288 1.274 2.576 1.917 3.862.21.42.417.842.627 1.263.115.231.246.46.345.7h.018c.075-.173.183-.337.274-.5.147-.263.29-.528.436-.79.416-.751.83-1.504 1.244-2.254.162-.294.33-.585.485-.882.06-.114.143-.224.187-.345-.19-.12-.408-.206-.608-.308-.48-.244-.964-.481-1.445-.722C12.997 1.537 11.453.785 9.926 0z" transform="translate(3 2)"/>
        <path fill="#876929" d="M4.038 3.18c-.102.15-.193.309-.29.462-.299.476-.597.953-.897 1.428-.595.945-1.188 1.89-1.78 2.836-.262.418-.527.835-.788 1.253-.07.113-.143.223-.212.337-.024.038-.07.087-.071.134-.001.045.054.103.077.14.074.118.146.238.222.355.266.407.515.826.778 1.235.528.823 1.04 1.658 1.557 2.488.465.747.944 1.485 1.404 2.236l.045-.01c-.016-.005-.019-.004-.036 0V3.3c0-.04.006-.083-.01-.119z" transform="translate(3 2)"/>
    </g>
</svg>
