<!--
  - Copyright (c) 2024. Devtron Inc.
  -
  - Licensed under the Apache License, Version 2.0 (the "License");
  - you may not use this file except in compliance with the License.
  - You may obtain a copy of the License at
  -
  -     http://www.apache.org/licenses/LICENSE-2.0
  -
  - Unless required by applicable law or agreed to in writing, software
  - distributed under the License is distributed on an "AS IS" BASIS,
  - WITHOUT WARRANTIES OR CONDITIONS OF ANY KIND, either express or implied.
  - See the License for the specific language governing permissions and
  - limitations under the License.
  -->

<svg xmlns="http://www.w3.org/2000/svg" width="20" height="20" viewBox="0 0 20 20">
    <path fill="#8C6324" d="M11.736 15.556c.384 0 .695.31.695.694 0 .384-.311.694-.695.694H8.264c-.384 0-.695-.31-.695-.694 0-.384.311-.694.695-.694h3.472zM10 3.056c2.876 0 5.208 2.331 5.208 5.208 0 1.855-.97 3.483-2.43 4.406v.191c0 1.104-.896 2-2 2H9.222c-1.054 0-1.918-.816-1.994-1.85l-.006-.15v-.19c-1.46-.923-2.43-2.552-2.43-4.407 0-2.877 2.332-5.208 5.208-5.208zm0 1.388c-2.11 0-3.82 1.71-3.82 3.82 0 1.327.682 2.536 1.784 3.232.37.234.605.626.642 1.056l.005.119v.8h2.778v-.801c0-.437.206-.846.55-1.107l.097-.067c1.103-.696 1.783-1.905 1.783-3.232 0-2.11-1.71-3.82-3.819-3.82z"/>
</svg>
