<svg xmlns="http://www.w3.org/2000/svg" width="24" height="24" viewBox="0 0 24 24">
    <path fill="#959BA1" fill-rule="evenodd" d="M4 22c-1.657 0-3-1.343-3-3V9c0-1.657 1.343-3 3-3h3V5c0-1.598 1.249-2.904 2.824-2.995L10 2h4c1.598 0 2.904 1.249 2.995 2.824L17 5v1h3c1.598 0 2.904 1.249 2.995 2.824L23 9v10c0 1.657-1.343 3-3 3zM7 8H4c-.552 0-1 .448-1 1v10c0 .552.448 1 1 1h3V8zm8 0H9v12h6V8zm5 0h-3v12h3c.513 0 .936-.386.993-.883L21 19V9c0-.552-.448-1-1-1zm-6-4h-4c-.513 0-.936.386-.993.883L9 5v1h6V5c0-.513-.386-.936-.883-.993L14 4z"/>
</svg>
