
<!--
  - Copyright (c) 2024. Devtron Inc.
  -
  - Licensed under the Apache License, Version 2.0 (the "License");
  - you may not use this file except in compliance with the License.
  - You may obtain a copy of the License at
  -
  -     http://www.apache.org/licenses/LICENSE-2.0
  -
  - Unless required by applicable law or agreed to in writing, software
  - distributed under the License is distributed on an "AS IS" BASIS,
  - WITHOUT WARRANTIES OR CONDITIONS OF ANY KIND, either express or implied.
  - See the License for the specific language governing permissions and
  - limitations under the License.
  -->

<svg xmlns="http://www.w3.org/2000/svg" width="18" height="36" viewBox="0 0 18 36">
    <g fill="none" fill-rule="evenodd">
        <g fill-rule="nonzero">
            <g>
                <g>
                    <g>
                        <path fill="#979797" d="M4 0C1.79 0 0 1.79 0 4s1.79 4 4 4 4-1.79 4-4-1.79-4-4-4zm0 2c1.105 0 2 .895 2 2s-.895 2-2 2-2-.895-2-2 .895-2 2-2z" transform="translate(-379.000000, -356.000000) translate(364.000000, 276.000000) translate(15.000000, 74.000000) translate(0.000000, 6.000000)"/>
                        <path fill="#06C" d="M14 0c-2.21 0-4 1.79-4 4s1.79 4 4 4 4-1.79 4-4-1.79-4-4-4zm0 2c1.105 0 2 .895 2 2s-.895 2-2 2-2-.895-2-2 .895-2 2-2z" transform="translate(-379.000000, -356.000000) translate(364.000000, 276.000000) translate(15.000000, 74.000000) translate(0.000000, 6.000000)"/>
                        <path fill="#979797" d="M5 7v9c0 2.142 1.684 3.891 3.8 3.995L9 20c3.238 0 5.878 2.566 5.996 5.775L15 26v3h-2v-3c0-2.142-1.684-3.891-3.8-3.995L9 22c-3.238 0-5.878-2.566-5.996-5.775L3 16V7h2z" transform="translate(-379.000000, -356.000000) translate(364.000000, 276.000000) translate(15.000000, 74.000000) translate(0.000000, 6.000000)"/>
                        <path fill="#06C" d="M15 7L15 29 13 29 13 7z" transform="translate(-379.000000, -356.000000) translate(364.000000, 276.000000) translate(15.000000, 74.000000) translate(0.000000, 6.000000)"/>
                        <path fill="#06C" d="M14 28c-2.21 0-4 1.79-4 4s1.79 4 4 4 4-1.79 4-4-1.79-4-4-4zm0 2c1.105 0 2 .895 2 2s-.895 2-2 2-2-.895-2-2 .895-2 2-2z" transform="translate(-379.000000, -356.000000) translate(364.000000, 276.000000) translate(15.000000, 74.000000) translate(0.000000, 6.000000)"/>
                    </g>
                </g>
            </g>
        </g>
    </g>
</svg>