<svg xmlns="http://www.w3.org/2000/svg" width="24" height="24" viewBox="0 0 24 24">
    <g fill="none" fill-rule="evenodd">
        <g>
            <g>
                <g>
                    <g>
                        <g transform="translate(-792 -792) translate(88 707) translate(20 68) translate(520) translate(164 17)">
                            <path d="M0 0H24V24H0z"/>
                            <path fill="#FF6D00" fill-rule="nonzero" d="M8.25 4c.552 0 1 .448 1 1 0 .513-.386.936-.883.993L8.25 6h-.875c-.38 0-.693.282-.743.648l-.007.102v2.625c0 .977-.509 1.811-1.462 2.534l-.167.122.097.072c.881.68 1.452 1.432 1.524 2.328l.008.194v2.625c0 .38.282.693.648.743l.102.007h.875c.552 0 1 .448 1 1 0 .513-.386.936-.883.993L8.25 20h-.875c-1.463 0-2.658-1.142-2.745-2.582l-.005-.168v-2.625c0-.221-.316-.624-.899-1.046-.248-.18-.52-.346-.79-.493l-.244-.126-.1-.047c-.79-.353-.79-1.473 0-1.826 1.349-.604 1.963-1.177 2.027-1.633l.006-.079V6.75c0-1.463 1.142-2.658 2.582-2.745L7.375 4h.875z"/>
                            <circle cx="10" cy="14" r="1" fill="#423BD1"/>
                            <circle cx="14" cy="14" r="1" fill="#423BD1"/>
                            <path fill="#423BD1" fill-rule="nonzero" d="M21.25 4c.552 0 1 .448 1 1 0 .513-.386.936-.883.993L21.25 6h-.875c-.38 0-.693.282-.743.648l-.007.102v2.625c0 .977-.509 1.811-1.462 2.534l-.167.122.097.072c.881.68 1.452 1.432 1.524 2.328l.008.194v2.625c0 .38.282.693.648.743l.102.007h.875c.552 0 1 .448 1 1 0 .513-.386.936-.883.993L21.25 20h-.875c-1.463 0-2.658-1.142-2.745-2.582l-.005-.168v-2.625c0-.221-.316-.624-.899-1.046-.248-.18-.52-.346-.79-.493l-.244-.126-.1-.047c-.79-.353-.79-1.473 0-1.826 1.349-.604 1.963-1.177 2.027-1.633l.006-.079V6.75c0-1.463 1.142-2.658 2.582-2.745L20.375 4h.875z" transform="matrix(-1 0 0 1 37.25 0)"/>
                        </g>
                    </g>
                </g>
            </g>
        </g>
    </g>
</svg>
