<svg width="20" height="20" viewBox="0 0 20 20" xmlns="http://www.w3.org/2000/svg">
    <path d="M10 0c.46 0 .833.373.833.833V2.5l-.001.047a7.454 7.454 0 0 1 3.851 1.595l.031-.035 1.179-1.178a.833.833 0 1 1 1.178 1.178l-1.178 1.179a.847.847 0 0 1-.035.032 7.453 7.453 0 0 1 1.596 3.851l.046-.002h1.667a.833.833 0 1 1 0 1.666H17.5l-.047-.001a7.454 7.454 0 0 1-1.595 3.851l.035.031 1.178 1.179a.833.833 0 0 1-1.178 1.178l-1.179-1.178a.847.847 0 0 1-.032-.035 7.453 7.453 0 0 1-3.851 1.596l.002.046v1.667a.833.833 0 1 1-1.666 0V17.5l.001-.047a7.454 7.454 0 0 1-3.851-1.595l-.031.035-1.179 1.178a.833.833 0 0 1-1.178-1.178l1.178-1.179a.847.847 0 0 1 .035-.032 7.453 7.453 0 0 1-1.596-3.851l-.046.002H.833a.833.833 0 1 1 0-1.666H2.5l.047.001a7.454 7.454 0 0 1 1.595-3.851l-.035-.031L2.93 4.107A.833.833 0 1 1 4.107 2.93l1.179 1.178a.847.847 0 0 1 .032.035A7.453 7.453 0 0 1 9.17 2.546L9.167 2.5V.833C9.167.373 9.54 0 10 0zm0 4.167a5.833 5.833 0 1 0 0 11.666 5.833 5.833 0 0 0 0-11.666zm0 1.666a4.167 4.167 0 1 1 0 8.334 4.167 4.167 0 0 1 0-8.334zM10 7.5a2.5 2.5 0 1 0 0 5 2.5 2.5 0 0 0 0-5z" fill="#3B444C" fill-rule="evenodd"/>
</svg>
