<svg width="20" height="20" viewBox="0 0 20 20" fill="none" xmlns="http://www.w3.org/2000/svg">
<path d="M11.3254 11.3259L11.6208 12.0152C11.7931 11.9414 11.9316 11.8057 12.0088 11.6348L11.3254 11.3259ZM13.5202 6.47094L14.2036 6.7799C14.3323 6.49527 14.2711 6.1607 14.05 5.94006C13.8289 5.71941 13.4942 5.65891 13.2099 5.78818L13.5202 6.47094ZM8.67375 8.67414L8.36337 7.99138C8.19319 8.06874 8.05803 8.20687 7.98439 8.3787L8.67375 8.67414ZM6.685 13.3145L5.99564 13.0191C5.87484 13.301 5.93781 13.628 6.15467 13.8449C6.37152 14.0617 6.69855 14.1247 6.98043 14.0039L6.685 13.3145ZM16.75 10C16.75 13.7279 13.7279 16.75 10 16.75V18.25C14.5563 18.25 18.25 14.5563 18.25 10H16.75ZM10 16.75C6.27208 16.75 3.25 13.7279 3.25 10H1.75C1.75 14.5563 5.44365 18.25 10 18.25V16.75ZM3.25 10C3.25 6.27208 6.27208 3.25 10 3.25V1.75C5.44365 1.75 1.75 5.44365 1.75 10H3.25ZM10 3.25C13.7279 3.25 16.75 6.27208 16.75 10H18.25C18.25 5.44365 14.5563 1.75 10 1.75V3.25ZM12.0088 11.6348L14.2036 6.7799L12.8368 6.16198L10.642 11.0169L12.0088 11.6348ZM13.2099 5.78818L8.36337 7.99138L8.98413 9.3569L13.8306 7.1537L13.2099 5.78818ZM7.98439 8.3787L5.99564 13.0191L7.37436 13.61L9.36311 8.96958L7.98439 8.3787ZM6.98043 14.0039L11.6208 12.0152L11.03 10.6365L6.38957 12.6252L6.98043 14.0039Z" fill="#3B444C"/>
</svg>
