<svg width="20" height="20" viewBox="0 0 20 20" fill="none" xmlns="http://www.w3.org/2000/svg">
<path d="M12.5 5.625H7.5M12.5 8.125H7.5M15.625 3.125V16.875C15.625 17.2202 15.3452 17.5 15 17.5H5C4.65482 17.5 4.375 17.2202 4.375 16.875V3.125C4.375 2.77982 4.65482 2.5 5 2.5H15C15.3452 2.5 15.625 2.77982 15.625 3.125Z" stroke="#3B444C" stroke-width="1.5" stroke-linecap="round" stroke-linejoin="round"/>
<path d="M10 15C10.5178 15 10.9375 14.5803 10.9375 14.0625C10.9375 13.5447 10.5178 13.125 10 13.125C9.48223 13.125 9.0625 13.5447 9.0625 14.0625C9.0625 14.5803 9.48223 15 10 15Z" fill="#596168"/>
</svg>
