<svg width="48" height="48" viewBox="0 0 48 48" fill="none" xmlns="http://www.w3.org/2000/svg">
<path d="M24 44.029C23.7424 44.029 23.4891 43.9626 23.2646 43.8363L6.76461 34.5551C6.53263 34.4246 6.33955 34.2347 6.20519 34.005C6.07082 33.7752 6 33.5139 6 33.2477V14.7523C6 14.4861 6.07082 14.2247 6.20519 13.995C6.33955 13.7652 6.53263 13.5754 6.76461 13.4449L23.2646 4.16365C23.4891 4.03735 23.7424 3.97101 24 3.97101C24.2576 3.97101 24.5109 4.03735 24.7354 4.16365L41.2354 13.4449C41.4674 13.5754 41.6604 13.7652 41.7948 13.995C41.9292 14.2247 42 14.4861 42 14.7523V33.2477C42 33.5139 41.9292 33.7752 41.7948 34.005C41.6604 34.2347 41.4674 34.4246 41.2354 34.5551L24.7354 43.8363C24.5109 43.9626 24.2576 44.029 24 44.029ZM24 44.029L24.1779 24M41.7932 13.9925L24.1779 24M24.1779 24L6.20775 13.9907" stroke="#596168" stroke-width="1.5" stroke-linecap="round" stroke-linejoin="round"/>
</svg>
