<svg xmlns="http://www.w3.org/2000/svg" width="24" height="24" viewBox="0 0 24 24">
    <g fill="none" fill-rule="evenodd">
        <g>
            <g>
                <g>
                    <g>
                        <g>
                            <path d="M0 0H24V24H0z" transform="translate(-532 -181) translate(88 96) translate(20 58) translate(260 10) translate(164 17)"/>
                            <g fill-rule="nonzero">
                                <path fill="#0053A6" d="M7.792.014H4.125C3.365.014 2.75.63 2.75 1.39v2.75c0 .253.205.459.458.459h5.5c.253 0 .459-.206.459-.459V1.39C9.167.63 8.55.014 7.792.014zM17.875.014h-3.667c-.759 0-1.375.616-1.375 1.375v2.75c0 .253.206.459.459.459h5.5c.253 0 .458-.206.458-.459V1.39c0-.76-.616-1.375-1.375-1.375z" transform="translate(-532 -181) translate(88 96) translate(20 58) translate(260 10) translate(164 17) translate(1 4)"/>
                                <path fill="#06C" d="M1.375 3.667h19.25c.76 0 1.375.615 1.375 1.375v11.916c0 .253-.205.459-.458.459H.458c-.253 0-.458-.206-.458-.459V5.042c0-.76.616-1.375 1.375-1.375z" transform="translate(-532 -181) translate(88 96) translate(20 58) translate(260 10) translate(164 17) translate(1 4)"/>
                                <path fill="#FFF" d="M13.175 7.197c.217-.036.413.076.5.25l1.618 2.487c.14.214.143.488.008.705l-2.057 3.314c-.133.214-.368.344-.622.344L9.63 14.3h-.02c-.291-.014-.453-.342-.293-.583l2.062-3.11c.077-.158.258-.259.456-.215.147.033.266.15.3.294.022.1.007.194-.034.273-.013.025-.027.047-.044.067l-.314.478c-.093.138-.005.323.162.342l.76.053c.141.01.28-.038.385-.132.137-.159.743-1.133 1.02-1.59.09-.147.078-.33-.024-.47l.003-.001-.974-1.493-.183-.284c-.019-.023-.035-.05-.05-.076l-.006-.011c-.036-.079-.051-.166-.038-.258.026-.193.182-.354.377-.387zM9.396 6.6l2.992.01.02.001c.291.015.451.344.29.584l-2.076 3.1c-.078.159-.26.258-.457.214-.146-.033-.265-.151-.298-.296-.022-.099-.007-.193.035-.272V9.94l.02-.035.024-.031.316-.477c.094-.137.007-.323-.16-.342l-.76-.057c-.141-.01-.28.037-.385.13-.138.159-.749 1.13-1.027 1.585-.09.147-.08.33.021.47l-.003.002.967 1.498.182.284c.019.024.035.05.05.077l.006.01c.035.08.05.167.037.259-.028.193-.184.352-.379.385-.217.035-.413-.078-.498-.253L6.705 10.95c-.138-.214-.14-.488-.005-.704L8.773 6.94c.133-.213.37-.342.623-.341z" transform="translate(-532 -181) translate(88 96) translate(20 58) translate(260 10) translate(164 17) translate(1 4)"/>
                            </g>
                        </g>
                    </g>
                </g>
            </g>
        </g>
    </g>
</svg>
