<svg xmlns="http://www.w3.org/2000/svg" width="20" height="20" viewBox="0 0 20 20">
    <g fill="none" fill-rule="evenodd">
        <g>
            <g>
                <g>
                    <g>
                        <path fill="#959BA1" d="M12.11 2.917c1.107 0 2.156.364 3.02 1.027l.925.926c.664.864 1.028 1.913 1.028 3.02 0 1.328-.517 2.576-1.457 3.516l-1.036 1.036c-.104.097-.544.475-1.148.475-.197 0-.463-.05-.743-.215.05.085.099.187.138.304.19.567.038 1.152-.413 1.603l-1.018 1.018c-.939.939-2.188 1.456-3.517 1.456-1.106 0-2.155-.364-3.018-1.027l-.926-.926c-.664-.864-1.028-1.913-1.028-3.02 0-1.328.517-2.576 1.457-3.516l1.018-1.017c.05-.05.512-.494 1.166-.494.197 0 .463.05.743.215-.05-.085-.099-.187-.138-.304-.19-.567-.038-1.152.413-1.603l1.018-1.018c.939-.939 2.188-1.456 3.517-1.456z" transform="translate(-84 -224) translate(64 186) translate(0 32) translate(20 6)"/>
                        <path stroke="#959BA1" stroke-linecap="round" stroke-width="2" d="M2.5 17.5L8.333 11.667M13.333 6.667L17.5 2.5" transform="translate(-84 -224) translate(64 186) translate(0 32) translate(20 6)"/>
                    </g>
                </g>
            </g>
        </g>
    </g>
</svg>
