<svg xmlns="http://www.w3.org/2000/svg" width="24" height="24" viewBox="0 0 24 24">
    <g fill="none" fill-rule="evenodd">
        <g fill="#06C" fill-rule="nonzero">
            <g>
                <g>
                    <g>
                        <path d="M9.625.35c.232-.133.518-.133.75 0l4.33 2.5c.232.134.375.382.375.65v4.757l3.625 2.093c.199.115.332.314.367.537l.008.113v5c0 .268-.143.516-.375.65l-4.33 2.5c-.232.133-.518.133-.75 0L9.75 16.912 5.875 19.15c-.199.114-.437.13-.648.049l-.102-.05-4.33-2.5C.563 16.517.42 16.269.42 16v-5c0-.268.143-.516.375-.65L4.92 7.968V3.5c0-.23.105-.444.281-.585l.094-.065zM5.5 9.365l-3.581 2.068v4.133L5.5 17.634l3.42-1.975V11.34L5.5 9.365zm8.665.096l-3.585 2.07v4.128L14 17.634l3.58-2.067v-4.135l-3.415-1.971zM10 1.865L6.419 3.933v4.133l3.415 1.972 3.746-2.162V3.932L10 1.865z" transform="translate(-463 -268) translate(439 248) translate(24 20) translate(2.5 2)"/>
                    </g>
                </g>
            </g>
        </g>
    </g>
</svg>
