<svg width="40" height="40" viewBox="0 0 40 40" fill="none" xmlns="http://www.w3.org/2000/svg">
<path d="M13.2905 8.93497C13.1726 9.05287 13.0832 9.19497 13.0084 9.35076L13 9.34234L1.19369 35.9371L1.20527 35.9487C0.986324 36.3729 1.35264 37.236 2.10317 37.9876C2.85264 38.7371 3.7158 39.1034 4.14001 38.8844L4.15053 38.895L30.7474 27.0897L30.739 27.0802C30.8947 27.0065 31.0358 26.9171 31.1547 26.7981C32.799 25.1539 30.1326 19.8223 25.2 14.8897C20.2674 9.95602 14.9347 7.29076 13.2905 8.93497Z" fill="#DD2E44"/>
<path d="M14.7368 13.6847L1.49053 35.27L1.19369 35.9384L1.20527 35.949C0.986324 36.3742 1.35264 37.2363 2.10317 37.9879C2.34738 38.2321 2.60001 38.4174 2.84948 38.5742L18.9474 18.9479L14.7368 13.6847Z" fill="#EA596E"/>
<path d="M25.2758 14.8069C30.1916 19.7248 32.921 24.9669 31.3695 26.5174C29.8189 28.0679 24.5768 25.3395 19.6579 20.4237C14.741 15.5058 12.0126 10.2627 13.5631 8.71109C15.1147 7.16057 20.3568 9.89004 25.2758 14.8069Z" fill="#A0041E"/>
<path d="M20.6211 15.3797C20.4116 15.5491 20.1379 15.6376 19.8484 15.606C18.9347 15.507 18.1663 15.1891 17.6284 14.687C17.059 14.1555 16.7779 13.4428 16.8547 12.727C16.9895 11.4723 18.2484 10.3207 20.3947 10.5533C21.2295 10.6428 21.6021 10.3744 21.6137 10.246C21.6284 10.1186 21.3221 9.77651 20.4884 9.68598C19.5737 9.58703 18.8063 9.26914 18.2674 8.76703C17.6979 8.23545 17.4158 7.52177 17.4937 6.80703C17.6305 5.5523 18.8884 4.40072 21.0326 4.63335C21.6411 4.69861 21.9611 4.5723 22.0969 4.49124C22.2063 4.42493 22.2495 4.36177 22.2537 4.32598C22.2653 4.19861 21.9632 3.85651 21.1263 3.76598C20.5495 3.70282 20.1305 3.18493 20.1937 2.60598C20.2558 2.02808 20.7737 1.61019 21.3526 1.67335C23.4969 1.90387 24.4821 3.29651 24.3463 4.5523C24.2105 5.80703 22.9526 6.95756 20.8063 6.72598C20.1979 6.65966 19.879 6.78598 19.7432 6.86703C19.6347 6.93335 19.5905 6.99756 19.5863 7.0323C19.5726 7.16072 19.8769 7.50282 20.7137 7.59335C22.8579 7.82387 23.8432 9.21651 23.7074 10.4723C23.5716 11.727 22.3126 12.8786 20.1684 12.646C19.56 12.5807 19.24 12.706 19.1032 12.787C18.9947 12.8533 18.9526 12.9176 18.9484 12.9533C18.9347 13.0807 19.239 13.4228 20.0747 13.5133C20.6516 13.5755 21.0716 14.0944 21.0074 14.6723C20.9769 14.9618 20.8305 15.2102 20.6211 15.3797Z" fill="#AA8DD8"/>
<path d="M33.3274 25.113C35.4043 24.5267 36.8369 25.453 37.1779 26.6688C37.519 27.8835 36.78 29.4214 34.7053 30.0046C33.8948 30.2319 33.6516 30.6193 33.6843 30.7435C33.72 30.8677 34.1316 31.0719 34.94 30.8425C37.0158 30.2593 38.4485 31.1856 38.7895 32.4004C39.1337 33.6162 38.3927 35.1519 36.3158 35.7372C35.5064 35.9646 35.2621 36.353 35.2979 36.4762C35.3327 36.5993 35.7432 36.8025 36.5527 36.5762C37.1116 36.4183 37.6937 36.7446 37.8516 37.3035C38.0074 37.8635 37.6821 38.4446 37.1211 38.6025C35.0474 39.1867 33.6127 38.2625 33.2695 37.0456C32.9285 35.8309 33.6685 34.2951 35.7464 33.7098C36.5558 33.4814 36.8 33.0951 36.7643 32.9709C36.7295 32.8477 36.32 32.6425 35.5106 32.8698C33.4337 33.4551 32.0011 32.5309 31.659 31.314C31.3169 30.0983 32.0569 28.5625 34.1348 27.9772C34.9421 27.7509 35.1864 27.3614 35.1516 27.2393C35.1158 27.1141 34.7074 26.9098 33.8969 27.1383C33.3369 27.2962 32.7569 26.9698 32.599 26.4098C32.4411 25.8509 32.7674 25.2698 33.3274 25.113Z" fill="#77B255"/>
<path d="M25.2642 22.2734C24.9547 22.2734 24.6494 22.1376 24.441 21.8787C24.0779 21.424 24.1515 20.7619 24.6052 20.3987C24.8347 20.2145 30.3084 15.9155 38.0442 17.0219C38.62 17.104 39.0189 17.6366 38.9368 18.2124C38.8547 18.7871 38.3263 19.1913 37.7452 19.105C30.9105 18.1345 25.9694 22.004 25.921 22.0429C25.7263 22.1987 25.4947 22.2734 25.2642 22.2734Z" fill="#AA8DD8"/>
<path d="M7.10946 17.8945C7.00946 17.8945 6.90735 17.8798 6.8063 17.8503C6.24946 17.683 5.93367 17.0956 6.10103 16.5387C7.29367 12.5672 8.37472 6.22927 7.0463 4.57769C6.89682 4.39032 6.67367 4.20611 6.15998 4.24506C5.17156 4.3198 5.2663 6.40401 5.26735 6.42506C5.31156 7.00506 4.87577 7.51032 4.29682 7.55348C3.7084 7.58927 3.21051 7.1619 3.1684 6.5819C3.05893 5.13032 3.51156 2.33453 6.00103 2.14611C7.11261 2.0619 8.03577 2.44822 8.6884 3.25874C11.1842 6.36506 8.65051 15.3714 8.11682 17.1451C7.97998 17.6008 7.56209 17.8945 7.10946 17.8945Z" fill="#77B255"/>
<path d="M29.4737 11.0529C29.4737 11.9245 28.7663 12.6318 27.8947 12.6318C27.0232 12.6318 26.3158 11.9245 26.3158 11.0529C26.3158 10.1813 27.0232 9.47394 27.8947 9.47394C28.7663 9.47394 29.4737 10.1813 29.4737 11.0529Z" fill="#5C913B"/>
<path d="M5.26314 20.0002C5.26314 21.1623 4.31998 22.1055 3.15788 22.1055C1.99577 22.1055 1.05261 21.1623 1.05261 20.0002C1.05261 18.8381 1.99577 17.8949 3.15788 17.8949C4.31998 17.8949 5.26314 18.8381 5.26314 20.0002Z" fill="#9266CC"/>
<path d="M36.8421 21.5793C36.8421 22.4508 36.1347 23.1582 35.2632 23.1582C34.3916 23.1582 33.6842 22.4508 33.6842 21.5793C33.6842 20.7077 34.3916 20.0003 35.2632 20.0003C36.1347 20.0003 36.8421 20.7077 36.8421 21.5793Z" fill="#5C913B"/>
<path d="M27.3683 34.2111C27.3683 35.0827 26.661 35.79 25.7894 35.79C24.9178 35.79 24.2104 35.0827 24.2104 34.2111C24.2104 33.3395 24.9178 32.6321 25.7894 32.6321C26.661 32.6321 27.3683 33.3395 27.3683 34.2111Z" fill="#5C913B"/>
<path d="M32.6315 5.26388C32.6315 6.42598 31.6884 7.36914 30.5263 7.36914C29.3642 7.36914 28.421 6.42598 28.421 5.26388C28.421 4.10177 29.3642 3.15862 30.5263 3.15862C31.6884 3.15862 32.6315 4.10177 32.6315 5.26388Z" fill="#FFCC4D"/>
<path d="M36.8421 10.0002C36.8421 10.8717 36.1347 11.5791 35.2632 11.5791C34.3916 11.5791 33.6842 10.8717 33.6842 10.0002C33.6842 9.12857 34.3916 8.42121 35.2632 8.42121C36.1347 8.42121 36.8421 9.12857 36.8421 10.0002Z" fill="#FFCC4D"/>
<path d="M33.6841 14.2111C33.6841 15.0827 32.9768 15.79 32.1052 15.79C31.2336 15.79 30.5262 15.0827 30.5262 14.2111C30.5262 13.3395 31.2336 12.6321 32.1052 12.6321C32.9768 12.6321 33.6841 13.3395 33.6841 14.2111Z" fill="#FFCC4D"/>
<path d="M10.5263 25.7902C10.5263 26.6618 9.81893 27.3691 8.94736 27.3691C8.07578 27.3691 7.36841 26.6618 7.36841 25.7902C7.36841 24.9186 8.07578 24.2112 8.94736 24.2112C9.81893 24.2112 10.5263 24.9186 10.5263 25.7902Z" fill="#FFCC4D"/>
</svg>
