<svg xmlns="http://www.w3.org/2000/svg" width="20" height="20" viewBox="0 0 20 20">
    <g fill="none" fill-rule="evenodd">
        <g fill="#1DAD70">
            <g>
                <g>
                    <g>
                        <path d="M4.13 14.469l.723.723.723.723-.743.789c-.417.443-.82.814-.931.853-.255.085-.548.078-.789-.026-.274-.117-.54-.45-.593-.736-.085-.437.078-.723.873-1.557l.737-.77zm9.52-12.791c.775.104 1.172 1.03.71 1.648-.104.137-.808.867-1.564 1.623-.756.749-1.375 1.394-1.375 1.433 0 .085 2.163 2.248 2.248 2.248.033 0 .75-.684 1.597-1.525 1.31-1.31 1.563-1.53 1.778-1.57.847-.156 1.506.593 1.219 1.382-.04.097-.762.873-1.603 1.713l-1.525 1.532.463.456c.502.488.645.742.645 1.107 0 .352-.117.522-.906 1.304-.108.106-.46.467-1.057 1.08-2.234 2.297-5.906 2.348-8.203.115l-.057-.057c-2.308-2.309-2.328-6.045-.044-8.377l1.073-1.095c.677-.665.866-.815 1.068-.854.43-.085.737.059 1.29.6l.496.482 1.453-1.5c1.577-1.628 1.811-1.81 2.294-1.745z" transform="translate(-84 -224) translate(64 186) translate(0 32) translate(20 6)"/>
                    </g>
                </g>
            </g>
        </g>
    </g>
</svg>
