<svg width="20" height="21" viewBox="0 0 20 21" fill="none" xmlns="http://www.w3.org/2000/svg">
<path d="M14.119 4.16331C14.3086 4.12952 14.504 4.15908 14.6751 4.24744C14.8462 4.3358 14.9835 4.47804 15.0656 4.65219L18.13 9.49538C18.3955 9.91203 18.4011 10.4453 18.1467 10.8676L14.2501 17.324C14.1282 17.5277 13.9556 17.6964 13.7493 17.8138C13.543 17.9312 13.3098 17.9933 13.0724 17.994L7.40588 17.9996C7.39329 17.9999 7.38069 17.9999 7.3681 17.9996C6.81589 17.9729 6.51035 17.3329 6.81256 16.8629L10.718 10.8053C10.7853 10.6619 10.8958 10.543 11.0339 10.4653C11.1721 10.3876 11.3311 10.355 11.4886 10.372C11.6462 10.389 11.7945 10.4548 11.9129 10.5602C12.0313 10.6655 12.1139 10.8052 12.1491 10.9598C12.1904 11.1388 12.168 11.3266 12.0857 11.4909V11.492C12.0622 11.5379 12.0343 11.5815 12.0024 11.622L11.408 12.552C11.3673 12.6132 11.3429 12.6838 11.3371 12.7571C11.3314 12.8305 11.3446 12.904 11.3753 12.9708C11.406 13.0377 11.4533 13.0955 11.5127 13.1389C11.5721 13.1822 11.6416 13.2097 11.7146 13.2186L13.1546 13.323C13.2871 13.3324 13.4201 13.3143 13.5453 13.27C13.6705 13.2256 13.7853 13.1559 13.8823 13.0653C14.0268 12.8931 14.4446 12.232 14.8779 11.5242L15.1379 11.0987C15.3956 10.6742 15.639 10.2654 15.8145 9.96981C15.8963 9.82921 15.9356 9.66793 15.9278 9.50547C15.9199 9.343 15.8651 9.18629 15.7701 9.05428L15.7756 9.05094L13.9301 6.14214L13.5846 5.58994C13.5482 5.54318 13.5166 5.49294 13.4901 5.43994L13.4768 5.41994C13.4066 5.26209 13.3816 5.08785 13.4046 4.91662C13.4297 4.73203 13.5122 4.56 13.6404 4.42482C13.7686 4.28965 13.936 4.19817 14.119 4.16331ZM6.96256 3.00001L12.6291 3.02001C12.6417 3.02005 12.6543 3.02042 12.6668 3.02113C13.219 3.05001 13.5224 3.69111 13.2168 4.15998L9.28471 10.1998C9.21663 10.3428 9.10562 10.461 8.96717 10.538C8.82871 10.6149 8.6697 10.6467 8.5123 10.629C8.3549 10.6112 8.20696 10.5448 8.08909 10.439C7.97122 10.3332 7.8893 10.1933 7.85475 10.0387C7.8144 9.8593 7.83798 9.67145 7.92142 9.5076V9.50649C7.94469 9.46103 7.97222 9.41787 8.00364 9.3776L8.60362 8.44985C8.64431 8.38877 8.66872 8.31831 8.67456 8.24515C8.6804 8.17199 8.66746 8.09855 8.63697 8.03178C8.60648 7.96502 8.55946 7.90715 8.50034 7.86365C8.44123 7.82015 8.37199 7.79246 8.29918 7.78321L6.86034 7.6721C6.72778 7.66185 6.59454 7.67906 6.46894 7.72265C6.34333 7.76624 6.22807 7.83527 6.13036 7.92542C5.87037 8.2343 4.71373 10.1254 4.18597 11.012C4.10331 11.1523 4.06309 11.3136 4.07019 11.4762C4.07729 11.6389 4.1314 11.7961 4.22597 11.9286L4.2193 11.932L6.05258 14.8485L6.39702 15.4019C6.43146 15.4485 6.46368 15.4985 6.48924 15.5519L6.50257 15.5741C6.5718 15.7318 6.59603 15.9056 6.57257 16.0763C6.5466 16.2607 6.46334 16.4324 6.33455 16.5669C6.20576 16.7015 6.03795 16.7922 5.85481 16.8263C5.66519 16.8593 5.46998 16.829 5.29929 16.74C5.12861 16.6511 4.99195 16.5084 4.9104 16.3341L1.86604 11.4764C1.73734 11.2711 1.66835 11.0339 1.66678 10.7916C1.66521 10.5493 1.73113 10.3113 1.85715 10.1042L5.78148 3.66444C6.03481 3.25001 6.48146 2.99779 6.96256 3.00001Z" fill="#596168"/>
</svg>
