<svg width="24px" height="24px" viewBox="0 0 24 24" version="1.1" xmlns="http://www.w3.org/2000/svg" xmlns:xlink="http://www.w3.org/1999/xlink">
    <title>A12EB3F4-72E0-4EB2-9CAF-886ACF9EA110</title>
    <g id="Final-UI" stroke="none" stroke-width="1" fill="none" fill-rule="evenodd">
        <g id="App-List" transform="translate(-24.000000, -702.000000)" fill="#FFFFFF">
            <g id="Primary-Nav/Item/Hover" transform="translate(16.000000, 694.000000)">
                <g id="Icon/ic-discord" transform="translate(8.000000, 8.000000)">
                    <path d="M18.5824508,2 C19.7221382,2 20.6500252,2.92788704 20.6601109,4.06757438 L20.6601109,4.06757438 L20.6601109,22 L18.4815935,20.1139687 L17.2612204,18.9944528 L15.9702471,17.8043369 L16.5047907,19.6500252 L5.06757438,19.6500252 C3.92788704,19.6500252 3,18.7221382 3,17.5824508 L3,17.5824508 L3,4.06757438 C3,2.92788704 3.92788704,2 5.06757438,2 L5.06757438,2 Z M10.2718104,6.66969239 L10.2461355,6.66969497 C10.0518285,6.67195159 8.78396369,6.72576904 7.44780635,7.71860817 C7.44780635,7.71860817 5.99546142,10.3308119 5.99546142,13.5481594 C5.99546142,13.5481594 6.84266263,15.0005043 9.07160867,15.0711044 C9.07160867,15.0711044 9.44478064,14.6273323 9.7473525,14.2440746 C8.46646495,13.8608169 7.98234997,13.0640444 7.98234997,13.0640444 C7.98234997,13.0640444 8.08320726,13.1346445 8.26475038,13.2355018 C8.27483611,13.2355018 8.28492184,13.2455875 8.30509329,13.2556732 C8.33535048,13.2758447 8.36560767,13.2859304 8.39586485,13.3061019 C8.64800807,13.4473021 8.90015129,13.5582451 9.13212305,13.6490166 C9.54563792,13.820474 10.0398386,13.97176 10.6147252,14.082703 C11.3711548,14.2239032 12.2586989,14.2743318 13.2269289,14.0927887 C13.7009581,14.0020171 14.1850731,13.8709027 14.6893596,13.6591024 C15.0423601,13.5279879 15.4357035,13.3363591 15.8492184,13.0640444 C15.8492184,13.0640444 15.3449319,13.8809884 14.0237015,14.2541604 C14.3262733,14.6273323 14.6893596,15.0610187 14.6893596,15.0610187 C16.9183056,14.9904186 17.7655068,13.5380736 17.7655068,13.5481594 C17.7655068,10.3308119 16.3131619,7.71860817 16.3131619,7.71860817 C14.9862834,6.72576904 13.7106243,6.67195159 13.5150109,6.66969497 L13.4891578,6.66969239 L13.3479576,6.83106404 C15.0625315,7.34543621 15.8593041,8.10186586 15.8593041,8.10186586 C14.8103883,7.53706505 13.781644,7.25466465 12.8234997,7.14372163 C12.0973273,7.0630358 11.401412,7.08320726 10.7861826,7.16389309 C10.7256682,7.16389309 10.6752395,7.17397882 10.6147252,7.18406455 C10.2617247,7.22440746 9.40443772,7.34543621 8.32526475,7.81946546 C8.15941055,7.89118619 8.02343998,7.95493796 7.92355114,8.00363723 L7.80155395,8.06451131 C7.75486076,8.08841822 7.73020676,8.10186586 7.73020676,8.10186586 C7.73020676,8.10186586 8.55723651,7.30509329 10.3726677,6.79072113 L10.3726677,6.79072113 L10.2718104,6.66969239 L10.2718104,6.66969239 Z M13.6807867,10.3913263 C14.2455875,10.3913263 14.709531,10.885527 14.709531,11.5007564 C14.709531,12.1159859 14.2556732,12.6101866 13.6807867,12.6101866 C13.1159859,12.6101866 12.6520424,12.1159859 12.6520424,11.5007564 C12.6520424,10.885527 13.1059002,10.3913263 13.6807867,10.3913263 Z M9.99949571,10.3913263 C10.5743822,10.3913263 11.0383258,10.885527 11.02824,11.5007564 C11.02824,12.1159859 10.5743822,12.6101866 9.99949571,12.6101866 C9.43469491,12.6101866 8.97075139,12.1159859 8.97075139,11.5007564 C8.97075139,10.885527 9.42460918,10.3913263 9.99949571,10.3913263 Z" id="Combined-Shape"></path>
                </g>
            </g>
        </g>
    </g>
</svg>