<svg width="24" height="24" viewBox="0 0 24 24" xmlns="http://www.w3.org/2000/svg">
    <g fill-rule="nonzero" fill="none">
        <rect fill="#E5F2FF" width="24" height="24" rx="5.333"/>
        <path d="M15.707 6.297a.789.789 0 0 1 .852.44l2.758 4.359c.239.375.244.855.015 1.235l-3.507 5.811a1.24 1.24 0 0 1-1.06.603l-5.1.005a.64.64 0 0 1-.034 0c-.497-.024-.772-.6-.5-1.023l3.515-5.452a.685.685 0 0 1 1.288.139.71.71 0 0 1-.057.478v.001a.716.716 0 0 1-.075.117l-.535.837a.388.388 0 0 0 .276.6l1.296.094a.87.87 0 0 0 .655-.232c.13-.155.506-.75.896-1.387l.234-.383c.232-.382.451-.75.609-1.016a.758.758 0 0 0-.04-.824l.005-.003-1.661-2.618-.311-.497a.806.806 0 0 1-.085-.135l-.012-.018a.84.84 0 0 1-.065-.453.8.8 0 0 1 .643-.678zM9.266 5.25l5.1.018a.64.64 0 0 1 .034.001c.497.026.77.603.495 1.025l-3.539 5.436a.685.685 0 0 1-1.287-.145.71.71 0 0 1 .06-.478v-.001a.728.728 0 0 1 .074-.116l.54-.835a.388.388 0 0 0-.274-.6l-1.295-.1a.87.87 0 0 0-.657.228c-.234.278-1.275 1.98-1.75 2.778a.758.758 0 0 0 .036.825l-.006.003 1.65 2.625.31.498c.031.042.06.087.083.135l.012.02a.84.84 0 0 1 .063.452.8.8 0 0 1-.646.675.789.789 0 0 1-.85-.443l-2.74-4.372a1.175 1.175 0 0 1-.008-1.235l3.532-5.796c.228-.373.63-.6 1.063-.598z" fill="#3989D9"/>
    </g>
</svg>
