<svg xmlns="http://www.w3.org/2000/svg" width="24" height="24" viewBox="0 0 24 24">
    <g fill="none" fill-rule="evenodd">
        <path d="M0 0h24v24H0z"/>
        <path fill="#0071B7" d="M23.772 10.08a5.12 5.12 0 0 0-2.41-.77 2.7 2.7 0 0 0-.44 0 4.24 4.24 0 0 0-1.64-2.26.5.5 0 0 0-.64.07 4.06 4.06 0 0 0-.72 3.28.52.52 0 0 1-.13.41.45.45 0 0 1-.34.15h-.45V8.5a.5.5 0 0 0-.5-.5h-2.5V2.5a.5.5 0 0 0-.5-.5h-3a.5.5 0 0 0-.501.5V5h-5.5a.5.5 0 0 0-.5.5V8H1.5a.5.5 0 0 0-.5.5V11H.5a.5.5 0 0 0-.501.501c0 7.67 5.59 8.5 8 8.5a14.292 14.292 0 0 0 12.382-7.08 5.13 5.13 0 0 0 3.55-2.17.5.5 0 0 0-.16-.67zm-7.77.92h-2V9h2v2zM5 11V9h2v2H5zm3 0V9h2v2h-2zm5-5v2h-2V6h2zm-2 5V9h2v2h-2zm0-8h2v2h-2V3zm-1 5h-2V6h2v2zm-5-2h2v2H5V6zM2 9h2v2H2V9zm3 7.001a1 1 0 1 1 0-2 1 1 0 0 1 0 2z"/>
    </g>
</svg>
