<!--
  - Copyright (c) 2024. Devtron Inc.
  -
  - Licensed under the Apache License, Version 2.0 (the "License");
  - you may not use this file except in compliance with the License.
  - You may obtain a copy of the License at
  -
  -     http://www.apache.org/licenses/LICENSE-2.0
  -
  - Unless required by applicable law or agreed to in writing, software
  - distributed under the License is distributed on an "AS IS" BASIS,
  - WITHOUT WARRANTIES OR CONDITIONS OF ANY KIND, either express or implied.
  - See the License for the specific language governing permissions and
  - limitations under the License.
  -->

<svg width="18" height="18" viewBox="0 0 18 18" fill="none" xmlns="http://www.w3.org/2000/svg">
<path d="M11.3386 0.780029C11.4016 0.780029 11.4331 0.780029 11.4331 0.780029C12.189 0.843021 12.7559 1.18948 13.1339 1.8194C13.3858 1.88239 13.6378 1.97688 13.8898 2.10286C14.2677 2.29184 14.5827 2.5753 14.8346 2.95326L17.5748 7.29971C18.1417 8.2446 18.1417 9.15798 17.5748 10.0399L14.0787 15.8981C13.8268 16.3391 13.4803 16.654 13.0394 16.843C12.6614 17.095 12.252 17.221 11.811 17.221H6.61417C6.61417 17.221 6.58268 17.221 6.51969 17.221C5.76378 17.158 5.19685 16.8115 4.8189 16.1816C4.56693 16.1186 4.31496 16.0241 4.06299 15.8981C3.62205 15.7092 3.30709 15.3942 3.11811 14.9533L0.377953 10.6068C0.125984 10.2288 0 9.7879 0 9.28397C0 8.78003 0.125984 8.30759 0.377953 7.86664L3.9685 2.10286C4.47244 1.22097 5.22835 0.780029 6.23622 0.780029H11.3386Z" fill="#0066CC"/>
<path d="M12.7173 3.25957C12.8893 3.22891 13.0666 3.25573 13.2218 3.33588C13.377 3.41603 13.5015 3.54506 13.576 3.70302L16.3557 8.09621C16.5965 8.47415 16.6016 8.95792 16.3708 9.3409L12.8363 15.1975C12.7256 15.3822 12.5692 15.5353 12.382 15.6418C12.1948 15.7482 11.9833 15.8045 11.7679 15.8052L6.62794 15.8103C6.61652 15.8106 6.6051 15.8106 6.59368 15.8103C6.09278 15.7861 5.81562 15.2055 6.08976 14.7792L9.63233 9.28446C9.69341 9.15432 9.7936 9.04649 9.91892 8.97603C10.0442 8.90557 10.1884 8.87599 10.3314 8.89141C10.4743 8.90684 10.6088 8.9665 10.7162 9.06208C10.8236 9.15765 10.8985 9.28437 10.9304 9.42455C10.968 9.58693 10.9476 9.75731 10.873 9.9063V9.90731C10.8517 9.94897 10.8264 9.98847 10.7974 10.0252L10.2582 10.8688C10.2213 10.9243 10.1991 10.9884 10.1939 11.0549C10.1888 11.1214 10.2007 11.1882 10.2285 11.2488C10.2564 11.3094 10.2993 11.3618 10.3532 11.4012C10.4071 11.4405 10.4701 11.4654 10.5364 11.4735L11.8425 11.5682C11.9627 11.5767 12.0834 11.5603 12.197 11.5201C12.3105 11.4799 12.4146 11.4167 12.5027 11.3344C12.6337 11.1782 13.0126 10.5785 13.4057 9.93654L13.6415 9.55053C13.8753 9.16554 14.0961 8.79465 14.2553 8.52656C14.3295 8.39903 14.3652 8.25274 14.358 8.10537C14.3509 7.95799 14.3012 7.81585 14.215 7.6961L14.22 7.69308L12.546 5.05454L12.2326 4.55364C12.1996 4.51123 12.1709 4.46566 12.1469 4.41758L12.1348 4.39944C12.0711 4.25625 12.0485 4.0982 12.0693 3.94289C12.0921 3.77545 12.1669 3.6194 12.2832 3.49678C12.3995 3.37417 12.5513 3.29119 12.7173 3.25957ZM6.22581 2.20436L11.3658 2.2225C11.3772 2.22253 11.3887 2.22287 11.4001 2.22351C11.901 2.24971 12.1761 2.83124 11.899 3.25655L8.33221 8.73519C8.27045 8.86491 8.16976 8.97214 8.04417 9.04193C7.91858 9.11171 7.77434 9.14057 7.63157 9.12448C7.4888 9.1084 7.3546 9.04817 7.24768 8.95219C7.14076 8.85621 7.06646 8.72927 7.03511 8.58905C6.99851 8.42633 7.0199 8.25593 7.09558 8.1073V8.10629C7.1167 8.06505 7.14167 8.02591 7.17016 7.98938L7.7144 7.14783C7.75131 7.09242 7.77346 7.02851 7.77875 6.96215C7.78405 6.89578 7.77231 6.82917 7.74465 6.76861C7.717 6.70805 7.67434 6.65555 7.62072 6.6161C7.5671 6.57664 7.50429 6.55152 7.43825 6.54313L6.13309 6.44234C6.01285 6.43305 5.89199 6.44866 5.77806 6.4882C5.66413 6.52774 5.55957 6.59035 5.47094 6.67213C5.2351 6.95231 4.18594 8.66766 3.70721 9.47192C3.63223 9.59919 3.59575 9.74546 3.60219 9.89303C3.60863 10.0406 3.65771 10.1831 3.7435 10.3034L3.73745 10.3064L5.40039 12.952L5.71282 13.4539C5.74407 13.4962 5.77329 13.5416 5.79647 13.59L5.80857 13.6101C5.87137 13.7532 5.89334 13.9109 5.87206 14.0657C5.84851 14.233 5.77298 14.3887 5.65616 14.5107C5.53933 14.6328 5.38711 14.7151 5.22099 14.746C5.04899 14.7759 4.87192 14.7484 4.71709 14.6677C4.56227 14.587 4.4383 14.4576 4.36433 14.2995L1.60283 9.8932C1.48609 9.70692 1.42351 9.49183 1.42208 9.272C1.42066 9.05217 1.48045 8.83628 1.59477 8.64851L5.15448 2.80705C5.38426 2.43112 5.78942 2.20234 6.22581 2.20436Z" fill="white"/>
</svg>
