<svg width="20" height="20" viewBox="0 0 20 20" fill="none" xmlns="http://www.w3.org/2000/svg">
<path d="M15.1981 5.11426C14.2421 4.67559 13.2169 4.35239 12.1449 4.16728C12.1254 4.16371 12.1059 4.17264 12.0959 4.19049C11.964 4.425 11.818 4.73094 11.7157 4.9714C10.5628 4.7988 9.41574 4.7988 8.28645 4.9714C8.18415 4.72559 8.0328 4.425 7.90036 4.19049C7.8903 4.17323 7.8708 4.1643 7.85128 4.16728C6.77994 4.3518 5.75473 4.67499 4.79808 5.11426C4.7898 5.11783 4.7827 5.12379 4.77799 5.13152C2.83337 8.03675 2.30066 10.8706 2.56199 13.6693C2.56317 13.6829 2.57086 13.696 2.5815 13.7044C3.86451 14.6466 5.10732 15.2186 6.32705 15.5977C6.34657 15.6037 6.36725 15.5965 6.37968 15.5805C6.6682 15.1864 6.9254 14.771 7.14592 14.3341C7.15894 14.3085 7.14651 14.2781 7.11992 14.268C6.71196 14.1133 6.3235 13.9246 5.94983 13.7103C5.92027 13.6931 5.91791 13.6508 5.9451 13.6305C6.02373 13.5716 6.10239 13.5103 6.17747 13.4484C6.19106 13.4371 6.20999 13.4347 6.22596 13.4419C8.6808 14.5627 11.3385 14.5627 13.7643 13.4419C13.7803 13.4341 13.7992 13.4365 13.8134 13.4478C13.8885 13.5097 13.9672 13.5716 14.0464 13.6305C14.0736 13.6508 14.0718 13.6931 14.0422 13.7103C13.6686 13.9288 13.2801 14.1133 12.8716 14.2674C12.845 14.2776 12.8331 14.3085 12.8462 14.3341C13.0714 14.7704 13.3286 15.1858 13.6118 15.5799C13.6236 15.5965 13.6449 15.6037 13.6644 15.5977C14.8901 15.2186 16.1329 14.6466 17.4159 13.7044C17.4271 13.696 17.4342 13.6835 17.4354 13.6698C17.7482 10.4343 16.9116 7.62368 15.2176 5.13211C15.2135 5.12379 15.2064 5.11783 15.1981 5.11426ZM7.51251 11.9651C6.77344 11.9651 6.16446 11.2866 6.16446 10.4533C6.16446 9.62001 6.76163 8.94148 7.51251 8.94148C8.2693 8.94148 8.87238 9.62597 8.86055 10.4533C8.86055 11.2866 8.26338 11.9651 7.51251 11.9651ZM12.4967 11.9651C11.7577 11.9651 11.1487 11.2866 11.1487 10.4533C11.1487 9.62001 11.7458 8.94148 12.4967 8.94148C13.2535 8.94148 13.8566 9.62597 13.8448 10.4533C13.8448 11.2866 13.2535 11.9651 12.4967 11.9651Z" fill="#596168"/>
</svg>
