<svg width="24" height="24" viewBox="0 0 24 24" xmlns="http://www.w3.org/2000/svg">
    <g fill="none" fill-rule="evenodd">
        <rect fill="#EBE8F8" width="24" height="24" rx="5.333"/>
        <path d="M12 4.5c.345 0 .625.28.625.625V6.41c1.085.119 2.078.548 2.888 1.197l.023-.026.883-.884a.625.625 0 0 1 .884.884l-.884.883a.635.635 0 0 1-.024.024 5.6 5.6 0 0 1 1.196 2.889l.034-.002h1.25a.625.625 0 1 1 0 1.25h-1.25l-.035-.001a5.588 5.588 0 0 1-1.197 2.89l.026.022.884.883a.625.625 0 0 1-.884.884l-.883-.884a.635.635 0 0 1-.024-.024 5.6 5.6 0 0 1-2.889 1.196l.002.034v1.25a.625.625 0 1 1-1.25 0v-1.25l.001-.035a5.588 5.588 0 0 1-2.89-1.197l-.022.026-.883.884a.625.625 0 0 1-.884-.884l.884-.883a.635.635 0 0 1 .024-.024 5.6 5.6 0 0 1-1.196-2.889l-.034.002h-1.25a.625.625 0 1 1 0-1.25H6.41a5.594 5.594 0 0 1 1.197-2.888l-.026-.023-.884-.883a.625.625 0 0 1 .884-.884l.883.884a.635.635 0 0 1 .024.024 5.6 5.6 0 0 1 2.889-1.196l-.002-.034v-1.25c0-.345.28-.625.625-.625zm0 3.125a4.375 4.375 0 1 0 0 8.75 4.375 4.375 0 0 0 0-8.75zm0 1.25a3.125 3.125 0 1 1 0 6.25 3.125 3.125 0 0 1 0-6.25zm0 1.25a1.875 1.875 0 1 0 0 3.75 1.875 1.875 0 0 0 0-3.75z" fill="#664BEE"/>
    </g>
</svg>