<svg width="40" height="40" viewBox="0 0 40 40" fill="none" xmlns="http://www.w3.org/2000/svg">
<rect width="40" height="40" rx="20" fill="#5865F2"/>
<g clip-path="url(#clip0_915_2919)">
<path d="M27.2774 13.1599C25.9389 12.5457 24.5036 12.0932 23.0029 11.8341C22.9756 11.8291 22.9483 11.8416 22.9342 11.8666C22.7496 12.1949 22.5451 12.6232 22.402 12.9599C20.7879 12.7182 19.182 12.7182 17.601 12.9599C17.4578 12.6157 17.2459 12.1949 17.0605 11.8666C17.0464 11.8424 17.0191 11.8299 16.9918 11.8341C15.4919 12.0924 14.0566 12.5449 12.7173 13.1599C12.7057 13.1649 12.6958 13.1732 12.6892 13.184C9.96672 17.2514 9.22092 21.2187 9.58678 25.1369C9.58844 25.156 9.5992 25.1744 9.6141 25.186C11.4103 26.5051 13.1502 27.3059 14.8579 27.8367C14.8852 27.8451 14.9142 27.8351 14.9315 27.8126C15.3355 27.2609 15.6956 26.6793 16.0043 26.0676C16.0225 26.0318 16.0051 25.9893 15.9679 25.9751C15.3967 25.7585 14.8529 25.4943 14.3298 25.1944C14.2884 25.1702 14.2851 25.111 14.3231 25.0827C14.4332 25.0002 14.5433 24.9143 14.6485 24.8277C14.6675 24.8119 14.694 24.8085 14.7163 24.8185C18.1531 26.3876 21.8739 26.3876 25.2701 24.8185C25.2924 24.8077 25.3189 24.811 25.3388 24.8269C25.4439 24.9135 25.554 25.0002 25.6649 25.0827C25.703 25.111 25.7005 25.1702 25.6591 25.1944C25.136 25.5002 24.5922 25.7585 24.0202 25.9743C23.983 25.9885 23.9664 26.0318 23.9846 26.0676C24.3 26.6784 24.66 27.2601 25.0565 27.8117C25.0731 27.8351 25.1029 27.8451 25.1302 27.8367C26.8461 27.3059 28.586 26.5051 30.3823 25.186C30.398 25.1744 30.4079 25.1568 30.4096 25.1377C30.8474 20.6079 29.6762 16.6731 27.3047 13.1849C27.2989 13.1732 27.289 13.1649 27.2774 13.1599ZM16.5175 22.7511C15.4828 22.7511 14.6302 21.8012 14.6302 20.6345C14.6302 19.4679 15.4663 18.518 16.5175 18.518C17.577 18.518 18.4213 19.4763 18.4048 20.6345C18.4048 21.8012 17.5687 22.7511 16.5175 22.7511ZM23.4954 22.7511C22.4607 22.7511 21.6082 21.8012 21.6082 20.6345C21.6082 19.4679 22.4442 18.518 23.4954 18.518C24.5549 18.518 25.3992 19.4763 25.3827 20.6345C25.3827 21.8012 24.5549 22.7511 23.4954 22.7511Z" fill="white"/>
<circle cx="28.0208" cy="28.0208" r="4.64583" fill="#29CC7A" stroke="#5865F2" stroke-width="2"/>
</g>
<defs>
<clipPath id="clip0_915_2919">
<rect width="23.3333" height="23.3333" fill="white" transform="translate(8.33325 8.33301)"/>
</clipPath>
</defs>
</svg>
