<svg xmlns="http://www.w3.org/2000/svg" width="20" height="20" viewBox="0 0 20 20">
    <g fill="none" fill-rule="evenodd">
        <g>
            <g>
                <g>
                    <g>
                        <path fill="#959BA1" d="M6.288 8.716c-.364-.301-.727-.383-.98-.383-.654 0-1.116.443-1.166.494L3.124 9.844c-.94.94-1.457 2.188-1.457 3.516 0 1.107.364 2.156 1.028 3.02l.926.926c.863.663 1.912 1.027 3.018 1.027 1.329 0 2.578-.517 3.517-1.456l1.018-1.018c.451-.451.602-1.036.413-1.603-.082-.243-.205-.426-.298-.544l-5-4.996z" transform="translate(-84 -224) translate(64 186) translate(0 32) translate(20 6)"/>
                        <path fill="#959BA1" d="M12.955 2.05c-.364-.302-.728-.383-.98-.383-.654 0-1.116.442-1.167.493L9.79 3.178c-.94.939-1.457 2.187-1.457 3.516 0 1.106.365 2.156 1.028 3.019l.926.927c.864.663 1.913 1.027 3.02 1.027 1.328 0 2.577-.518 3.516-1.457l1.018-1.018c.451-.451.602-1.035.412-1.602-.08-.244-.204-.427-.297-.545L12.955 2.05z" transform="translate(-84 -224) translate(64 186) translate(0 32) translate(20 6) rotate(180 13.333 6.667)"/>
                        <path stroke="#959BA1" stroke-linecap="round" stroke-width="2" d="M1.667 18.333L7.5 12.5M4.167 12.5L8.232 8.434M7.5 15.833L11.566 11.768M14.167 5.833L18.333 1.667" transform="translate(-84 -224) translate(64 186) translate(0 32) translate(20 6)"/>
                    </g>
                </g>
            </g>
        </g>
    </g>
</svg>
