<svg xmlns="http://www.w3.org/2000/svg" width="24" height="24" viewBox="0 0 24 24">
    <g fill="none" fill-rule="evenodd">
        <path fill="#959BA1" d="M13 2l7 7v10a3 3 0 0 1-3 3H7a3 3 0 0 1-3-3V5a3 3 0 0 1 3-3h6zm-1 2H7a1 1 0 0 0-.993.883L6 5v14a1 1 0 0 0 .883.993L7 20h10a1 1 0 0 0 .993-.883L18 19v-9h-3.5a2.5 2.5 0 0 1-2.495-2.336L12 7.5V4zm1 11.5a1 1 0 0 1 .117 1.993L13 17.5H9a1 1 0 0 1-.117-1.993L9 15.5h4zm2-4a1 1 0 0 1 .117 1.993L15 13.5H9a1 1 0 0 1-.117-1.993L9 11.5h6zm-1-5.67V7.5a.5.5 0 0 0 .41.492L14.5 8h1.671L14 5.83z"/>
    </g>
</svg>
