<!--
  - Copyright (c) 2024. Devtron Inc.
  -
  - Licensed under the Apache License, Version 2.0 (the "License");
  - you may not use this file except in compliance with the License.
  - You may obtain a copy of the License at
  -
  -     http://www.apache.org/licenses/LICENSE-2.0
  -
  - Unless required by applicable law or agreed to in writing, software
  - distributed under the License is distributed on an "AS IS" BASIS,
  - WITHOUT WARRANTIES OR CONDITIONS OF ANY KIND, either express or implied.
  - See the License for the specific language governing permissions and
  - limitations under the License.
  -->

<svg xmlns="http://www.w3.org/2000/svg" width="24" height="24" fill="none" viewBox="0 0 24 24">
  <path fill="#fff" d="M4.053 21.037 2.03 3.38 19.5 1.5l1.026 10.752.68-.1.849 8.101-10.485 1.33-.22-1.86-1.054.166s.265 2.228-1.074 2.763c-1.34.535-1.91.3-3.225-1.84-.763.071-1.944.225-1.944.225Z"/>
  <path fill="#632CA6" fill-rule="evenodd" d="m18.937 16.62-1.83-1.207-1.527 2.55-1.776-.518-1.564 2.386.08.751 8.502-1.566-.494-5.312-1.391 2.917Zm-7.929-2.29 1.364-.187c.221.1.375.137.64.204.411.108.888.21 1.595-.145.165-.082.507-.395.645-.574l5.589-1.013.57 6.9-9.574 1.725-.829-6.91Zm10.382-2.486-.552.105L19.778 1 1.72 3.094l2.225 18.053 2.114-.307c-.17-.24-.432-.532-.88-.905-.623-.518-.403-1.396-.036-1.95.486-.938 2.989-2.13 2.847-3.627-.05-.545-.137-1.254-.643-1.74-.019.202.015.396.015.396s-.207-.265-.311-.626c-.103-.139-.183-.183-.293-.368-.077.214-.067.463-.067.463s-.17-.402-.197-.74c-.101.151-.127.44-.127.44s-.22-.633-.17-.974c-.1-.296-.4-.885-.315-2.222.551.386 1.765.294 2.237-.402.157-.231.265-.861-.078-2.102-.22-.796-.765-1.981-.978-2.431l-.025.018c.112.362.343 1.122.431 1.49.269 1.117.34 1.506.215 2.02-.108.448-.364.74-1.016 1.068-.651.329-1.515-.47-1.57-.515-.633-.504-1.122-1.326-1.177-1.726-.057-.437.252-.7.408-1.057-.223.064-.471.177-.471.177s.296-.307.662-.572c.15-.1.24-.164.4-.297-.232-.004-.42.003-.42.003s.386-.208.785-.36c-.292-.013-.571-.002-.571-.002s.859-.384 1.538-.666c.467-.192.923-.135 1.179.235.336.486.69.75 1.438.913.46-.204.6-.309 1.177-.466.508-.56.908-.632.908-.632s-.198.182-.251.467c.288-.227.604-.416.604-.416s-.122.15-.236.39l.026.04c.336-.202.732-.36.732-.36s-.113.142-.246.327c.254-.002.768.01.968.033 1.178.026 1.423-1.258 1.875-1.42.566-.201.82-.324 1.784.624.828.814 1.475 2.27 1.154 2.596-.27.271-.8-.105-1.39-.84a3.177 3.177 0 0 1-.656-1.431c-.093-.493-.455-.779-.455-.779s.21.467.21.88c0 .225.028 1.068.39 1.54-.036.07-.053.342-.092.394-.42-.508-1.323-.871-1.47-.978.498.408 1.643 1.346 2.083 2.244.416.85.17 1.63.38 1.831.06.058.895 1.098 1.056 1.62.28.911.017 1.868-.35 2.462l-1.024.16c-.15-.042-.25-.063-.385-.14.074-.132.221-.459.223-.526l-.058-.101c-.318.451-.852.89-1.296 1.141-.58.329-1.25.278-1.685.143-1.236-.38-2.404-1.216-2.686-1.435 0 0-.009.175.044.214.312.351 1.026.987 1.716 1.43l-1.471.162.695 5.416c-.308.044-.356.066-.694.114-.297-1.052-.866-1.738-1.488-2.137-.549-.353-1.305-.432-2.03-.289l-.046.054a2.613 2.613 0 0 1 1.709.407c.599.38 1.082 1.358 1.26 1.947.227.754.385 1.56-.228 2.413-.436.608-1.709.943-2.737.217.275.442.646.803 1.146.871.742.1 1.446-.028 1.93-.526.415-.425.634-1.315.576-2.252l.655-.095.237 1.682 10.841-1.305-.884-8.628Zm-6.596-4.567c-.03.07-.078.114-.007.34l.004.012.012.03.03.066c.128.263.27.512.506.638a1.65 1.65 0 0 1 .19-.02c.221-.01.361.025.45.073a.962.962 0 0 0 .005-.204c-.017-.333.066-.9-.574-1.199-.242-.112-.581-.077-.694.063.02.002.039.007.053.012.171.06.055.118.025.19Zm1.795 3.11c-.084-.047-.477-.029-.753.004-.526.062-1.093.245-1.217.342-.226.174-.124.479.043.604.469.35.88.585 1.313.528.266-.035.5-.457.667-.839.113-.263.113-.547-.053-.64ZM11.935 7.69c.148-.141-.739-.326-1.427.143-.507.346-.523 1.088-.037 1.509.048.041.088.07.126.095a4.373 4.373 0 0 1 1.28-.377c.102-.115.222-.317.192-.684-.04-.496-.417-.417-.134-.686Z" clip-rule="evenodd"/>
</svg>
