<!--
  - Copyright (c) 2024. Devtron Inc.
  -
  - Licensed under the Apache License, Version 2.0 (the "License");
  - you may not use this file except in compliance with the License.
  - You may obtain a copy of the License at
  -
  -     http://www.apache.org/licenses/LICENSE-2.0
  -
  - Unless required by applicable law or agreed to in writing, software
  - distributed under the License is distributed on an "AS IS" BASIS,
  - WITHOUT WARRANTIES OR CONDITIONS OF ANY KIND, either express or implied.
  - See the License for the specific language governing permissions and
  - limitations under the License.
  -->

<svg width="40" height="40" viewBox="0 0 40 40" fill="none" xmlns="http://www.w3.org/2000/svg">
<rect width="40" height="40" rx="4" fill="#EDF1F5"/>
<path d="M30.8096 16.427C30.7542 16.3814 30.2529 16.0005 29.1769 16.0005C28.8985 16.0005 28.6104 16.0282 28.3321 16.0754C28.1286 14.656 26.9501 13.9691 26.9029 13.9333L26.6148 13.7656L26.4292 14.0342C26.1981 14.3955 26.0206 14.8041 25.9197 15.2208C25.7244 16.0282 25.8448 16.7884 26.2534 17.4379C25.7618 17.7162 24.9642 17.7813 24.7965 17.7911H11.6229C11.2795 17.7911 11.0011 18.0694 11.0011 18.4129C10.9832 19.5637 11.1769 20.7129 11.5757 21.7987C12.0299 22.9853 12.707 23.8676 13.5795 24.4047C14.5627 25.007 16.1677 25.3505 17.9762 25.3505C18.7917 25.3505 19.6088 25.2756 20.4162 25.1275C21.5394 24.924 22.6153 24.5333 23.6066 23.9685C24.4238 23.4948 25.1563 22.8925 25.7781 22.1877C26.8264 21.0092 27.4482 19.6923 27.9023 18.5236C27.9675 18.5236 28.0228 18.5236 28.0879 18.5236C29.229 18.5236 29.9338 18.0694 30.3228 17.6788C30.5833 17.4379 30.777 17.14 30.917 16.8063L31 16.5654L30.8096 16.427ZM22.656 17.4102H24.4189C24.5019 17.4102 24.5768 17.3451 24.5768 17.2523V15.675C24.5768 15.592 24.5117 15.5171 24.4189 15.5171H22.656C22.573 15.5171 22.4981 15.5822 22.4981 15.675V17.2523C22.5079 17.3451 22.573 17.4102 22.656 17.4102ZM20.1981 12.8931H21.961C22.044 12.8931 22.1189 12.828 22.1189 12.7352V11.1579C22.1189 11.0749 22.044 11 21.961 11H20.1981C20.1151 11 20.0402 11.0651 20.0402 11.1579V12.7352C20.0402 12.8182 20.1134 12.8931 20.1981 12.8931ZM20.1981 15.1557H21.961C22.044 15.1557 22.1189 15.0808 22.1189 14.9978V13.4205C22.1189 13.3375 22.044 13.2626 21.961 13.2626H20.1981C20.1151 13.2626 20.0402 13.3277 20.0402 13.4205V14.9978C20.0402 15.0825 20.1134 15.1557 20.1981 15.1557ZM17.758 15.1557H19.5209C19.6039 15.1557 19.6788 15.0808 19.6788 14.9978V13.4205C19.6788 13.3375 19.6137 13.2626 19.5209 13.2626H17.758C17.675 13.2626 17.6001 13.3277 17.6001 13.4205V14.9978C17.6001 15.0825 17.6653 15.1557 17.758 15.1557ZM15.2806 15.1557H17.0434C17.1265 15.1557 17.2013 15.0808 17.2013 14.9978V13.4205C17.2013 13.3375 17.1362 13.2626 17.0434 13.2626H15.2806C15.1975 13.2626 15.1227 13.3277 15.1227 13.4205V14.9978C15.1324 15.0825 15.1975 15.1557 15.2806 15.1557ZM20.1981 17.4102H21.961C22.044 17.4102 22.1189 17.3451 22.1189 17.2523V15.675C22.1189 15.592 22.0537 15.5171 21.961 15.5171H20.1981C20.1151 15.5171 20.0402 15.5822 20.0402 15.675V17.2523C20.0402 17.3451 20.1134 17.4102 20.1981 17.4102ZM17.758 17.4102H19.5209C19.6039 17.4102 19.6788 17.3451 19.6788 17.2523V15.675C19.6788 15.592 19.6137 15.5171 19.5209 15.5171H17.758C17.675 15.5171 17.6001 15.5822 17.6001 15.675V17.2523C17.6001 17.3451 17.6653 17.4102 17.758 17.4102ZM15.2806 17.4102H17.0434C17.1265 17.4102 17.2013 17.3451 17.2013 17.2523V15.675C17.2013 15.592 17.1362 15.5171 17.0434 15.5171H15.2806C15.1975 15.5171 15.1227 15.5822 15.1227 15.675V17.2523C15.1324 17.3451 15.1975 17.4102 15.2806 17.4102ZM12.8503 17.4102H14.6132C14.6962 17.4102 14.7711 17.3451 14.7711 17.2523V15.675C14.7711 15.592 14.706 15.5171 14.6132 15.5171H12.8503C12.7673 15.5171 12.6924 15.5822 12.6924 15.675V17.2523C12.7022 17.3451 12.7673 17.4102 12.8503 17.4102Z" fill="#0091E2"/>
<rect x="5.5" y="23.5" width="29" height="12" rx="2.5" fill="#3B444C"/>
<rect x="5.5" y="23.5" width="29" height="12" rx="2.5" stroke="white"/>
<path d="M10.983 32.06C10.703 32.06 10.443 32.024 10.203 31.952C9.96703 31.876 9.76503 31.768 9.59703 31.628L9.92703 31.178C10.135 31.31 10.321 31.402 10.485 31.454C10.649 31.506 10.813 31.532 10.977 31.532C11.197 31.532 11.371 31.496 11.499 31.424C11.631 31.352 11.697 31.258 11.697 31.142C11.697 31.05 11.661 30.978 11.589 30.926C11.517 30.874 11.423 30.836 11.307 30.812C11.191 30.788 11.061 30.766 10.917 30.746C10.777 30.726 10.635 30.7 10.491 30.668C10.351 30.636 10.221 30.592 10.101 30.536C9.98503 30.476 9.89103 30.394 9.81903 30.29C9.74703 30.182 9.71103 30.042 9.71103 29.87C9.71103 29.678 9.76303 29.514 9.86703 29.378C9.97103 29.238 10.117 29.13 10.305 29.054C10.497 28.978 10.715 28.94 10.959 28.94C11.191 28.94 11.415 28.972 11.631 29.036C11.851 29.096 12.061 29.194 12.261 29.33L11.931 29.774C11.771 29.662 11.607 29.584 11.439 29.54C11.275 29.492 11.109 29.468 10.941 29.468C10.749 29.468 10.597 29.5 10.485 29.564C10.373 29.624 10.317 29.708 10.317 29.816C10.317 29.908 10.353 29.978 10.425 30.026C10.497 30.074 10.593 30.11 10.713 30.134C10.833 30.158 10.965 30.18 11.109 30.2C11.253 30.22 11.395 30.246 11.535 30.278C11.679 30.31 11.811 30.356 11.931 30.416C12.051 30.476 12.147 30.56 12.219 30.668C12.291 30.776 12.327 30.918 12.327 31.094C12.327 31.282 12.267 31.45 12.147 31.598C12.031 31.742 11.871 31.856 11.667 31.94C11.463 32.02 11.235 32.06 10.983 32.06ZM13.2907 32V27.698L13.9687 27.578V29.444C14.2007 29.112 14.5087 28.946 14.8927 28.946C15.1007 28.946 15.2827 28.992 15.4387 29.084C15.5947 29.172 15.7167 29.298 15.8047 29.462C15.8967 29.622 15.9427 29.808 15.9427 30.02V32H15.2587V30.212C15.2587 29.992 15.1987 29.818 15.0787 29.69C14.9587 29.558 14.7987 29.492 14.5987 29.492C14.4707 29.492 14.3527 29.52 14.2447 29.576C14.1367 29.632 14.0447 29.714 13.9687 29.822V32H13.2907ZM17.8543 32.054C17.6423 32.054 17.4543 32.016 17.2903 31.94C17.1263 31.86 16.9983 31.752 16.9063 31.616C16.8183 31.48 16.7743 31.322 16.7743 31.142C16.7743 30.958 16.8203 30.8 16.9123 30.668C17.0083 30.536 17.1423 30.434 17.3143 30.362C17.4903 30.29 17.6983 30.254 17.9383 30.254C18.0823 30.254 18.2223 30.27 18.3583 30.302C18.4943 30.33 18.6303 30.378 18.7663 30.446V30.146C18.7663 29.934 18.7083 29.776 18.5923 29.672C18.4763 29.564 18.2983 29.51 18.0583 29.51C17.9263 29.51 17.7863 29.53 17.6383 29.57C17.4943 29.61 17.3323 29.676 17.1523 29.768L16.8943 29.276C17.1303 29.16 17.3523 29.076 17.5603 29.024C17.7723 28.972 17.9823 28.946 18.1903 28.946C18.5863 28.946 18.8923 29.044 19.1083 29.24C19.3283 29.436 19.4383 29.714 19.4383 30.074V32H18.7663V31.682C18.6303 31.81 18.4883 31.904 18.3403 31.964C18.1923 32.024 18.0303 32.054 17.8543 32.054ZM17.4103 31.124C17.4103 31.264 17.4663 31.376 17.5783 31.46C17.6943 31.54 17.8483 31.58 18.0403 31.58C18.1803 31.58 18.3103 31.558 18.4303 31.514C18.5503 31.47 18.6623 31.404 18.7663 31.316V30.842C18.6583 30.79 18.5463 30.752 18.4303 30.728C18.3143 30.704 18.1903 30.692 18.0583 30.692C17.8583 30.692 17.7003 30.732 17.5843 30.812C17.4683 30.888 17.4103 30.992 17.4103 31.124ZM20.378 32V31.526L22.1 29.726C22.204 29.618 22.284 29.52 22.34 29.432C22.4 29.344 22.442 29.26 22.466 29.18C22.494 29.096 22.508 29.01 22.508 28.922C22.508 28.746 22.436 28.6 22.292 28.484C22.148 28.368 21.966 28.31 21.746 28.31C21.554 28.31 21.374 28.348 21.206 28.424C21.038 28.5 20.854 28.632 20.654 28.82L20.282 28.37C20.514 28.158 20.752 28 20.996 27.896C21.24 27.788 21.494 27.734 21.758 27.734C22.034 27.734 22.276 27.784 22.484 27.884C22.692 27.98 22.854 28.114 22.97 28.286C23.086 28.458 23.144 28.658 23.144 28.886C23.144 29.022 23.126 29.15 23.09 29.27C23.054 29.39 22.992 29.512 22.904 29.636C22.82 29.76 22.702 29.902 22.55 30.062L21.212 31.442L23.222 31.436V32H20.378ZM25.3017 32.066C24.7337 32.066 24.2417 31.876 23.8257 31.496L24.2217 31.046C24.4017 31.206 24.5777 31.322 24.7497 31.394C24.9257 31.466 25.1177 31.502 25.3257 31.502C25.5057 31.502 25.6617 31.468 25.7937 31.4C25.9297 31.332 26.0337 31.236 26.1057 31.112C26.1817 30.984 26.2197 30.84 26.2197 30.68C26.2197 30.444 26.1337 30.254 25.9617 30.11C25.7937 29.962 25.5757 29.888 25.3077 29.888C25.1677 29.888 25.0297 29.906 24.8937 29.942C24.7577 29.978 24.6177 30.034 24.4737 30.11L24.0177 29.972L24.1137 27.8H26.6637V28.364H24.6717L24.6117 29.582C24.7597 29.51 24.9037 29.458 25.0437 29.426C25.1877 29.394 25.3377 29.378 25.4937 29.378C25.7737 29.378 26.0177 29.432 26.2257 29.54C26.4337 29.644 26.5957 29.792 26.7117 29.984C26.8277 30.172 26.8857 30.392 26.8857 30.644C26.8857 30.928 26.8197 31.176 26.6877 31.388C26.5557 31.6 26.3697 31.766 26.1297 31.886C25.8937 32.006 25.6177 32.066 25.3017 32.066ZM29.1333 32.06C28.7893 32.06 28.4873 31.974 28.2273 31.802C27.9673 31.63 27.7633 31.39 27.6153 31.082C27.4673 30.774 27.3933 30.416 27.3933 30.008C27.3933 29.552 27.4753 29.154 27.6393 28.814C27.8033 28.474 28.0313 28.21 28.3233 28.022C28.6193 27.83 28.9613 27.734 29.3493 27.734C29.5533 27.734 29.7553 27.766 29.9553 27.83C30.1553 27.894 30.3253 27.982 30.4653 28.094L30.1053 28.58C29.9853 28.492 29.8593 28.428 29.7273 28.388C29.5953 28.344 29.4513 28.322 29.2953 28.322C29.0353 28.322 28.8113 28.388 28.6233 28.52C28.4393 28.652 28.2973 28.844 28.1973 29.096C28.1013 29.344 28.0513 29.646 28.0473 30.002C28.1913 29.806 28.3653 29.654 28.5693 29.546C28.7733 29.438 28.9853 29.384 29.2053 29.384C29.4813 29.384 29.7253 29.44 29.9373 29.552C30.1493 29.66 30.3153 29.812 30.4353 30.008C30.5553 30.2 30.6153 30.422 30.6153 30.674C30.6153 30.938 30.5513 31.176 30.4233 31.388C30.2953 31.596 30.1193 31.76 29.8953 31.88C29.6713 32 29.4173 32.06 29.1333 32.06ZM29.1033 29.9C28.9073 29.9 28.7193 29.946 28.5393 30.038C28.3633 30.126 28.2093 30.248 28.0773 30.404C28.1133 30.624 28.1773 30.816 28.2693 30.98C28.3653 31.144 28.4853 31.272 28.6293 31.364C28.7733 31.452 28.9333 31.496 29.1093 31.496C29.2733 31.496 29.4193 31.462 29.5473 31.394C29.6753 31.322 29.7773 31.226 29.8533 31.106C29.9293 30.982 29.9673 30.842 29.9673 30.686C29.9673 30.534 29.9293 30.4 29.8533 30.284C29.7813 30.164 29.6813 30.07 29.5533 30.002C29.4253 29.934 29.2753 29.9 29.1033 29.9Z" fill="white"/>
</svg>