<svg xmlns="http://www.w3.org/2000/svg" width="20" height="20" viewBox="0 0 20 20">
    <g fill="none" fill-rule="evenodd">
        <g fill="#F33E3E">
            <g>
                <g>
                    <g>
                        <path d="M13.463 1.678c.776.104 1.173 1.03.71 1.648-.104.137-.808.867-1.563 1.623-.756.749-1.375 1.394-1.375 1.433 0 .085 2.163 2.248 2.248 2.248.032 0 .749-.684 1.596-1.525 1.31-1.31 1.564-1.53 1.779-1.57.847-.156 1.505.593 1.219 1.382-.04.097-.763.873-1.603 1.713l-1.525 1.532.462.456c.502.488.646.742.646 1.107 0 .352-.118.522-.906 1.304-.398.39-.723.742-.723.782 0 .032.794.86 1.765 1.837l1.773 1.772-.04.28c-.071.541-.605.802-1.055.515-.104-.067-1.82-1.765-4.064-4.005l-.526-.526-.27-.269-.549-.55-1.129-1.13-.574-.576-.288-.29-.577-.578c-3.65-3.666-7.18-7.237-7.205-7.317-.066-.234.02-.56.189-.723.189-.176.553-.241.755-.137.079.046.88.828 1.78 1.733L6.04 5.51l.821-.814c.678-.665.867-.815 1.069-.854.43-.085.736.059 1.29.6l.495.482 1.454-1.5c1.576-1.628 1.811-1.81 2.293-1.745zm-9.52 12.79l.723.724.724.723-.743.789c-.417.443-.821.814-.932.853-.254.085-.547.078-.788-.026-.274-.117-.541-.45-.593-.736-.085-.437.078-.723.873-1.557l.736-.77zm.495-6.457l3.728 3.714 3.727 3.715-.183.078c-.573.234-1.896.378-2.626.28-2.28-.287-4.098-1.799-4.789-3.975-.32-.997-.293-2.548.059-3.558l.084-.254z" transform="translate(-84 -224) translate(64 186) translate(0 32) translate(20 6)"/>
                    </g>
                </g>
            </g>
        </g>
    </g>
</svg>
