<!--
  - Copyright (c) 2024. Devtron Inc.
  -
  - Licensed under the Apache License, Version 2.0 (the "License");
  - you may not use this file except in compliance with the License.
  - You may obtain a copy of the License at
  -
  -     http://www.apache.org/licenses/LICENSE-2.0
  -
  - Unless required by applicable law or agreed to in writing, software
  - distributed under the License is distributed on an "AS IS" BASIS,
  - WITHOUT WARRANTIES OR CONDITIONS OF ANY KIND, either express or implied.
  - See the License for the specific language governing permissions and
  - limitations under the License.
  -->

<svg xmlns="http://www.w3.org/2000/svg" width="24" height="24" viewBox="0 0 24 24">
    <defs>
        <filter id="prefix__a" width="166.7%" height="166.7%" x="-33.3%" y="-33.3%" filterUnits="objectBoundingBox">
            <feOffset in="SourceAlpha" result="shadowOffsetOuter1"/>
            <feGaussianBlur in="shadowOffsetOuter1" result="shadowBlurOuter1" stdDeviation="2"/>
            <feColorMatrix in="shadowBlurOuter1" result="shadowMatrixOuter1" values="0 0 0 0 0 0 0 0 0 0.04 0 0 0 0 0.08 0 0 0 0.5 0"/>
            <feMerge>
                <feMergeNode in="shadowMatrixOuter1"/>
                <feMergeNode in="SourceGraphic"/>
            </feMerge>
        </filter>
    </defs>
    <g fill="#FFF" fill-rule="evenodd" filter="url(#prefix__a)" transform="translate(-6 -6)">
        <path d="M15 20c.513 0 .936.386.993.883L16 21v4c0 .552-.448 1-1 1-.513 0-.936-.386-.993-.883L14 25v-3h-3c-.513 0-.936-.386-.993-.883L10 21c0-.513.386-.936.883-.993L11 20h4zm10 0l.117.007c.497.057.883.48.883.993l-.007.117c-.057.497-.48.883-.993.883h-3v3l-.007.117c-.057.497-.48.883-.993.883-.552 0-1-.448-1-1v-4l.007-.117c.057-.497.48-.883.993-.883h4zM15 10c.552 0 1 .448 1 1v4l-.007.117c-.057.497-.48.883-.993.883h-4l-.117-.007c-.497-.057-.883-.48-.883-.993l.007-.117c.057-.497.48-.883.993-.883h3v-3l.007-.117c.057-.497.48-.883.993-.883zm6 0c.513 0 .936.386.993.883L22 11v3h3c.513 0 .936.386.993.883L26 15c0 .513-.386.936-.883.993L25 16h-4c-.513 0-.936-.386-.993-.883L20 15v-4c0-.552.448-1 1-1z"/>
    </g>
</svg>
