<!--
  - Copyright (c) 2024. Devtron Inc.
  -
  - Licensed under the Apache License, Version 2.0 (the "License");
  - you may not use this file except in compliance with the License.
  - You may obtain a copy of the License at
  -
  -     http://www.apache.org/licenses/LICENSE-2.0
  -
  - Unless required by applicable law or agreed to in writing, software
  - distributed under the License is distributed on an "AS IS" BASIS,
  - WITHOUT WARRANTIES OR CONDITIONS OF ANY KIND, either express or implied.
  - See the License for the specific language governing permissions and
  - limitations under the License.
  -->

<svg width="20.5" height="20" viewBox="0 0 20.5 24" fill="none" xmlns="http://www.w3.org/2000/svg">
<path d="M12.7507 3H3.75C3.55109 3 3.36032 3.07902 3.21967 3.21967C3.07902 3.36032 3 3.55109 3 3.75V20.25C3 20.4489 3.07902 20.6397 3.21967 20.7803C3.36032 20.921 3.55109 21 3.75 21H8.50037M12.7507 3L18.0007 8.25M12.7507 3V8.25H18.0007M18.0007 8.25V11.25" stroke="#3B444C" stroke-width="1.5" stroke-linecap="round" stroke-linejoin="round"/>
<path d="M15.7818 15.4289L18.5711 18.2182M13.7894 23H11.3985C11.2928 23 11.1914 22.958 11.1167 22.8833C11.042 22.8086 11 22.7072 11 22.6015V20.3757C11 20.3234 11.0103 20.2715 11.0303 20.2232C11.0504 20.1749 11.0797 20.1309 11.1167 20.0939L17.0939 14.1167C17.1687 14.042 17.27 14 17.3757 14C17.4814 14 17.5827 14.042 17.6575 14.1167L19.8833 16.3425C19.958 16.4173 20 16.5186 20 16.6243C20 16.73 19.958 16.8313 19.8833 16.9061L13.7894 23Z" stroke="#3B444C" stroke-width="1.5" stroke-linecap="round" stroke-linejoin="round"/>
</svg>