<svg xmlns="http://www.w3.org/2000/svg" width="20" height="21" viewBox="0 0 20 21">
    <g fill="none" fill-rule="evenodd">
        <path fill="#FDE7E7" stroke="#F33E3E" stroke-linejoin="round" stroke-width="2" d="M10 1.667C5.4 1.667 1.667 5.4 1.667 10S5.4 18.333 10 18.333 18.333 14.6 18.333 10 14.6 1.667 10 1.667z"/>
        <path fill="#F33E3E" d="M10 10.833c.46 0 .833-.373.833-.833V6.667c0-.46-.373-.834-.833-.834-.46 0-.833.373-.833.834V10c0 .46.373.833.833.833zm0 3.334c.46 0 .833-.373.833-.834 0-.46-.373-.833-.833-.833-.46 0-.833.373-.833.833 0 .46.373.834.833.834z"/>
    </g>
</svg>
