<svg width="16" height="17" viewBox="0 0 16 17" fill="none" xmlns="http://www.w3.org/2000/svg">
<path d="M8.50049 2H2.5C2.36739 2 2.24021 2.05268 2.14645 2.14645C2.05268 2.24021 2 2.36739 2 2.5V13.5C2 13.6326 2.05268 13.7598 2.14645 13.8536C2.24021 13.9473 2.36739 14 2.5 14H5.66691M8.50049 2L12.0005 5.5M8.50049 2V5.5H12.0005M12.0005 5.5V7.5" stroke="#596168" stroke-width="1.5" stroke-linecap="round" stroke-linejoin="round"/>
<path d="M10.5212 10.2859L12.3807 12.1455M9.19289 15.3333H7.59897C7.52851 15.3333 7.46094 15.3053 7.41112 15.2555C7.3613 15.2057 7.33331 15.1381 7.33331 15.0677V13.5838C7.33331 13.5489 7.34018 13.5143 7.35353 13.4821C7.36689 13.4499 7.38645 13.4206 7.41112 13.3959L11.3959 9.41112C11.4457 9.3613 11.5133 9.33331 11.5838 9.33331C11.6542 9.33331 11.7218 9.3613 11.7716 9.41112L13.2555 10.895C13.3053 10.9448 13.3333 11.0124 13.3333 11.0829C13.3333 11.1533 13.3053 11.2209 13.2555 11.2707L9.19289 15.3333Z" stroke="#596168" stroke-width="1.5" stroke-linecap="round" stroke-linejoin="round"/>
</svg>
