<svg xmlns="http://www.w3.org/2000/svg" width="20" height="20" viewBox="0 0 20 20">
    <g fill="none" fill-rule="evenodd">
        <path fill="#FFF" d="M5 5H15V15H5z"/>
        <path fill="#F33E3E" d="M10 18.333c-4.6 0-8.333-3.733-8.333-8.333S5.4 1.667 10 1.667 18.333 5.4 18.333 10 14.6 18.333 10 18.333zm0-12.5c-.46 0-.833.373-.833.834V10c0 .46.373.833.833.833.46 0 .833-.373.833-.833V6.667c0-.46-.373-.834-.833-.834zm0 6.667c-.46 0-.833.373-.833.833 0 .46.373.834.833.834.46 0 .833-.373.833-.834 0-.46-.373-.833-.833-.833z"/>
    </g>
</svg>
