<svg xmlns="http://www.w3.org/2000/svg" width="32" height="32" viewBox="0 0 32 32">
    <g fill="none" fill-rule="evenodd">
        <g transform="translate(2.667 2.667)">
            <rect width="26.667" height="26.667" class="fill-color" fill="#F33E3E" rx="13.333"/>
            <path fill="#FFF" fill-rule="nonzero" d="M8.62 8.62c.52-.521 1.364-.521 1.885 0l2.828 2.827 2.829-2.828a1.334 1.334 0 0 1 1.777-.097l.108.097c.521.521.521 1.365 0 1.886l-2.828 2.828 2.828 2.829c.486.486.519 1.254.098 1.777l-.098.108c-.52.521-1.365.521-1.885 0l-2.83-2.828-2.827 2.828a1.334 1.334 0 0 1-1.777.098l-.109-.098a1.333 1.333 0 0 1 0-1.885l2.828-2.83-2.828-2.827a1.334 1.334 0 0 1-.097-1.777z"/>
        </g>
    </g>
</svg>
