<!--
  - Copyright (c) 2024. Devtron Inc.
  -
  - Licensed under the Apache License, Version 2.0 (the "License");
  - you may not use this file except in compliance with the License.
  - You may obtain a copy of the License at
  -
  -     http://www.apache.org/licenses/LICENSE-2.0
  -
  - Unless required by applicable law or agreed to in writing, software
  - distributed under the License is distributed on an "AS IS" BASIS,
  - WITHOUT WARRANTIES OR CONDITIONS OF ANY KIND, either express or implied.
  - See the License for the specific language governing permissions and
  - limitations under the License.
  -->

<svg width="18" height="24" viewBox="0 0 18 24" fill="none" xmlns="http://www.w3.org/2000/svg">
<path id="Vector" d="M1.02413 6.53117C0.696004 6.31242 0.623087 5.91138 0.841837 5.58325C0.878296 5.51034 0.951212 5.43742 1.02413 5.40096L8.64392 0.442627C8.86267 0.296794 9.15434 0.296794 9.37309 0.442627L16.9929 5.40096C17.321 5.61971 17.3939 6.02075 17.1752 6.34888C17.1387 6.42179 17.0658 6.49471 16.9929 6.53117L9.37309 11.453C9.15434 11.5989 8.86267 11.5989 8.64392 11.453L1.02413 6.53117Z" fill="#326CE5"/>
<path id="Vector_2" d="M10.2117 7.40621H10.7221C10.9409 7.40621 11.1232 7.22392 11.1232 7.00517C11.1232 6.93225 11.0867 6.85933 11.0867 6.82287L9.37317 3.79683C9.26379 3.61454 9.00858 3.54162 8.82629 3.651C8.75338 3.68746 8.71692 3.72392 8.68046 3.79683L6.96692 6.78642C6.85754 6.96871 6.93046 7.22392 7.11275 7.33329C7.18567 7.36975 7.25858 7.36975 7.29504 7.36975H7.80546C8.02421 7.36975 8.2065 7.55204 8.2065 7.77079V11.1979L8.57108 11.4166C8.82629 11.5989 9.19088 11.5989 9.44608 11.4166L9.81067 11.1979V7.77079C9.81067 7.5885 9.99296 7.40621 10.2117 7.40621Z" fill="#C1D2F7"/>
<path id="Vector_3" d="M11.6338 14.0051L9.81087 12.802V13.3489C10.3942 13.6405 11.014 13.8228 11.6338 14.0051ZM9.81087 14.4062V15.2083C10.4307 15.3905 11.014 15.5364 11.6338 15.6822C13.6025 16.1562 15.4984 16.6301 16.9932 18.1249C17.0661 18.1978 17.139 18.2708 17.2119 18.3437C17.3577 18.0155 17.2848 17.651 16.9932 17.4687L14.0036 15.5364C13.2744 15.2812 12.5452 15.0989 11.8161 14.953C11.1234 14.7708 10.4671 14.5885 9.81087 14.4062ZM8.2067 13.7499C7.9515 13.6041 7.69629 13.4583 7.44108 13.3124L6.74837 13.7499C7.18587 14.078 7.69629 14.3697 8.17025 14.5885L8.2067 13.7499ZM10.5036 16.2655C10.2848 16.1926 10.0661 16.1562 9.81087 16.0833V16.8489C9.99316 16.8853 10.139 16.9218 10.3213 16.9583C12.29 17.4322 14.1859 17.9062 15.6807 19.401L16.3369 18.9999C16.3005 18.9635 16.264 18.927 16.2275 18.8905C14.5505 17.2499 12.4723 16.776 10.5036 16.2655ZM8.2067 15.6458C7.3317 15.3541 6.52962 14.953 5.80046 14.4062L5.1442 14.8437C6.09212 15.6093 7.14941 16.0833 8.24316 16.4478V15.6458H8.2067ZM8.2067 17.3593C6.71191 16.9583 5.3265 16.4843 4.12337 15.4635L3.46712 15.901C4.85254 17.177 6.52962 17.7239 8.2067 18.1614V17.3593ZM9.81087 18.526C11.3786 18.927 12.8369 19.401 14.04 20.4947L14.6963 20.0572C13.238 18.7083 11.5244 18.1614 9.81087 17.7239V18.526ZM2.51921 16.5208L1.86296 16.9583C1.89941 16.9947 1.89941 16.9947 1.93587 17.0312C3.5765 18.6718 5.65462 19.1822 7.65983 19.6926C9.37337 20.1301 11.0505 20.5312 12.4359 21.6249L13.0921 21.1874C11.5244 19.8749 9.66504 19.401 7.84212 18.9635C5.87337 18.453 4.014 17.9791 2.51921 16.5208ZM1.13379 17.7968C1.06087 17.7239 0.987956 17.651 0.915039 17.578C0.659831 17.8333 0.659831 18.2708 0.915039 18.526C0.951497 18.5624 0.987956 18.5989 1.02441 18.5989L3.24837 20.0572C4.23275 20.4583 5.29004 20.7135 6.31087 20.9687C7.91504 21.3697 9.40983 21.7343 10.7223 22.6458L11.415 22.2083C9.92025 21.078 8.17025 20.6405 6.49316 20.2395C4.52441 19.7655 2.62858 19.2916 1.13379 17.7968ZM8.42545 23.4114C8.57129 23.4843 8.71712 23.5572 8.86296 23.6301C9.04525 23.6666 9.22754 23.6301 9.37337 23.5208L9.73796 23.2655C8.53483 22.4635 7.18587 22.0624 5.83691 21.6978L8.42545 23.4114Z" fill="#326CE5"/>
</svg>
