<!--
  - Copyright (c) 2024. Devtron Inc.
  -
  - Licensed under the Apache License, Version 2.0 (the "License");
  - you may not use this file except in compliance with the License.
  - You may obtain a copy of the License at
  -
  -     http://www.apache.org/licenses/LICENSE-2.0
  -
  - Unless required by applicable law or agreed to in writing, software
  - distributed under the License is distributed on an "AS IS" BASIS,
  - WITHOUT WARRANTIES OR CONDITIONS OF ANY KIND, either express or implied.
  - See the License for the specific language governing permissions and
  - limitations under the License.
  -->

<svg xmlns="http://www.w3.org/2000/svg" width="24" height="24" viewBox="0 0 24 24">
    <path fill="#FFF" fill-rule="evenodd" d="M5 14c.513 0 .936.386.993.883L6 15v3h3c.513 0 .936.386.993.883L10 19c0 .513-.386.936-.883.993L9 20H5c-.513 0-.936-.386-.993-.883L4 19v-4c0-.552.448-1 1-1zm14 0c.552 0 1 .448 1 1v4l-.007.117c-.057.497-.48.883-.993.883h-4l-.117-.007c-.497-.057-.883-.48-.883-.993l.007-.117c.057-.497.48-.883.993-.883h3v-3l.007-.117c.057-.497.48-.883.993-.883zM9 4l.117.007c.497.057.883.48.883.993l-.007.117C9.936 5.614 9.513 6 9 6H6v3l-.007.117C5.936 9.614 5.513 10 5 10c-.552 0-1-.448-1-1V5l.007-.117C4.064 4.386 4.487 4 5 4h4zm10 0c.513 0 .936.386.993.883L20 5v4c0 .552-.448 1-1 1-.513 0-.936-.386-.993-.883L18 9V6h-3c-.513 0-.936-.386-.993-.883L14 5c0-.513.386-.936.883-.993L15 4h4z"/>
</svg>
