<!--
  - Copyright (c) 2024. Devtron Inc.
  -
  - Licensed under the Apache License, Version 2.0 (the "License");
  - you may not use this file except in compliance with the License.
  - You may obtain a copy of the License at
  -
  -     http://www.apache.org/licenses/LICENSE-2.0
  -
  - Unless required by applicable law or agreed to in writing, software
  - distributed under the License is distributed on an "AS IS" BASIS,
  - WITHOUT WARRANTIES OR CONDITIONS OF ANY KIND, either express or implied.
  - See the License for the specific language governing permissions and
  - limitations under the License.
  -->

<svg xmlns="http://www.w3.org/2000/svg" viewBox="0 0 16 16">
    <path fill="#767D84" fill-rule="evenodd" d="M7.333 12h1.334c.366 0 .666-.3.666-.667 0-.366-.3-.666-.666-.666H7.333c-.366 0-.666.3-.666.666 0 .367.3.667.666.667zM2 4.667c0 .366.3.666.667.666h10.666c.367 0 .667-.3.667-.666C14 4.3 13.7 4 13.333 4H2.667C2.3 4 2 4.3 2 4.667zm2.667 4h6.666c.367 0 .667-.3.667-.667 0-.367-.3-.667-.667-.667H4.667C4.3 7.333 4 7.633 4 8c0 .367.3.667.667.667z"/>
</svg>
