<svg xmlns="http://www.w3.org/2000/svg" width="16" height="17" viewBox="0 0 16 17" fill="none">
  <path d="M9.16748 2H3.16699C3.03438 2 2.90721 2.05268 2.81344 2.14645C2.71967 2.24021 2.66699 2.36739 2.66699 2.5V13.5C2.66699 13.6326 2.71967 13.7598 2.81344 13.8536C2.90721 13.9473 3.03438 14 3.16699 14H6.3339M9.16748 2L12.6675 5.5M9.16748 2V5.5H12.6675M12.6675 5.5V7.5M11.1882 10.2859L13.0477 12.1455M9.8599 15.3333H8.26598C8.19552 15.3333 8.12795 15.3053 8.07813 15.2555C8.02831 15.2057 8.00033 15.1381 8.00033 15.0677V13.5838C8.00033 13.5489 8.0072 13.5144 8.02055 13.4821C8.0339 13.4499 8.05347 13.4206 8.07813 13.3959L12.0629 9.41114C12.1128 9.36132 12.1803 9.33333 12.2508 9.33333C12.3212 9.33333 12.3888 9.36132 12.4386 9.41114L13.9225 10.895C13.9723 10.9448 14.0003 11.0124 14.0003 11.0829C14.0003 11.1533 13.9723 11.2209 13.9225 11.2707L9.8599 15.3333Z" stroke="#000A14" stroke-width="1.5" stroke-linecap="round" stroke-linejoin="round"/>
</svg>