<!--
  - Copyright (c) 2024. Devtron Inc.
  -
  - Licensed under the Apache License, Version 2.0 (the "License");
  - you may not use this file except in compliance with the License.
  - You may obtain a copy of the License at
  -
  -     http://www.apache.org/licenses/LICENSE-2.0
  -
  - Unless required by applicable law or agreed to in writing, software
  - distributed under the License is distributed on an "AS IS" BASIS,
  - WITHOUT WARRANTIES OR CONDITIONS OF ANY KIND, either express or implied.
  - See the License for the specific language governing permissions and
  - limitations under the License.
  -->

<svg width="16" height="16" viewBox="0 0 16 16" fill="none" xmlns="http://www.w3.org/2000/svg">
<path d="M9.5 2H3.49951C3.3669 2 3.23973 2.05268 3.14596 2.14645C3.05219 2.24021 2.99951 2.36739 2.99951 2.5V13.5C2.99951 13.6326 3.05219 13.7598 3.14596 13.8536C3.23973 13.9473 3.3669 14 3.49951 14H12.5C12.5657 14 12.6307 13.9871 12.6913 13.9619C12.752 13.9368 12.8071 13.9 12.8536 13.8536C12.9 13.8071 12.9368 13.752 12.9619 13.6913C12.9871 13.6307 13 13.5657 13 13.5V5.5M9.5 2L13 5.5M9.5 2V5.5H13" stroke="#596168" stroke-width="1.5" stroke-linecap="round" stroke-linejoin="round"/>
<path d="M6.63944 7.80952L5.33331 9.56463L6.63944 11.3197M9.36052 7.80952L10.6666 9.56463L9.36052 11.3197" stroke="#596168" stroke-width="1.5" stroke-linecap="round" stroke-linejoin="round"/>
</svg>
