<!--
  - Copyright (c) 2024. Devtron Inc.
  -
  - Licensed under the Apache License, Version 2.0 (the "License");
  - you may not use this file except in compliance with the License.
  - You may obtain a copy of the License at
  -
  -     http://www.apache.org/licenses/LICENSE-2.0
  -
  - Unless required by applicable law or agreed to in writing, software
  - distributed under the License is distributed on an "AS IS" BASIS,
  - WITHOUT WARRANTIES OR CONDITIONS OF ANY KIND, either express or implied.
  - See the License for the specific language governing permissions and
  - limitations under the License.
  -->

<svg xmlns="http://www.w3.org/2000/svg" width="24" height="24" fill="none" viewBox="0 0 24 24">
  <path stroke="#3B444C" stroke-linecap="round" stroke-linejoin="round" stroke-width="1.5" d="M13.75 3h-9a.75.75 0 0 0-.75.75v16.5a.75.75 0 0 0 .75.75H9.5m4.25-18L19 8.25M13.75 3v5.25H19m0 0v3m1.507 6.467-6-3.667a.333.333 0 0 0-.507.284v7.334a.334.334 0 0 0 .507.284l6-3.667a.334.334 0 0 0 0-.568Z" vector-effect="non-scaling-stroke"/>
</svg>
