<svg width="24" height="24" viewBox="0 0 24 24" fill="none" xmlns="http://www.w3.org/2000/svg">
<rect width="24" height="24" rx="6" fill="#E6EEFF"/>
<path d="M6.30302 8.09371C6.06864 7.93746 6.01656 7.651 6.17281 7.41663C6.19885 7.36454 6.25094 7.31246 6.30302 7.28642L11.7457 3.74475C11.902 3.64058 12.1103 3.64058 12.2666 3.74475L17.7093 7.28642C17.9436 7.44267 17.9957 7.72913 17.8395 7.9635C17.8134 8.01558 17.7614 8.06767 17.7093 8.09371L12.2666 11.6093C12.1103 11.7135 11.902 11.7135 11.7457 11.6093L6.30302 8.09371Z" fill="#326CE5"/>
<path d="M12.8656 8.71875H13.2302C13.3865 8.71875 13.5167 8.58855 13.5167 8.4323C13.5167 8.38021 13.4906 8.32813 13.4906 8.30209L12.2667 6.14063C12.1886 6.01042 12.0063 5.95834 11.8761 6.03646C11.824 6.0625 11.7979 6.08855 11.7719 6.14063L10.5479 8.27605C10.4698 8.40625 10.5219 8.58855 10.6521 8.66667C10.7042 8.69271 10.7563 8.69271 10.7823 8.69271H11.1469C11.3031 8.69271 11.4334 8.82292 11.4334 8.97917V11.4271L11.6938 11.5833C11.8761 11.7135 12.1365 11.7135 12.3188 11.5833L12.5792 11.4271V8.97917C12.5792 8.84896 12.7094 8.71875 12.8656 8.71875Z" fill="#C1D2F7"/>
<path d="M13.8813 13.4323L12.5793 12.5729V12.9635C12.9959 13.1718 13.4386 13.302 13.8813 13.4323ZM12.5793 13.7187V14.2916C13.022 14.4218 13.4386 14.526 13.8813 14.6302C15.2876 14.9687 16.6418 15.3073 17.7095 16.375C17.7616 16.427 17.8136 16.4791 17.8657 16.5312C17.9699 16.2968 17.9178 16.0364 17.7095 15.9062L15.5741 14.526C15.0532 14.3437 14.5324 14.2135 14.0116 14.1093C13.5168 13.9791 13.048 13.8489 12.5793 13.7187ZM11.4334 13.25C11.2511 13.1458 11.0688 13.0416 10.8866 12.9375L10.3918 13.25C10.7043 13.4843 11.0688 13.6927 11.4074 13.8489L11.4334 13.25ZM13.0741 15.0468C12.9178 14.9948 12.7616 14.9687 12.5793 14.9166V15.4635C12.7095 15.4895 12.8136 15.5156 12.9438 15.5416C14.3501 15.8802 15.7043 16.2187 16.772 17.2864L17.2407 17C17.2147 16.9739 17.1886 16.9479 17.1626 16.9218C15.9647 15.75 14.4803 15.4114 13.0741 15.0468ZM11.4334 14.6041C10.8084 14.3958 10.2355 14.1093 9.71468 13.7187L9.24593 14.0312C9.92301 14.5781 10.6782 14.9166 11.4595 15.177V14.6041H11.4334ZM11.4334 15.8281C10.3657 15.5416 9.37614 15.2031 8.51676 14.4739L8.04801 14.7864C9.0376 15.6979 10.2355 16.0885 11.4334 16.401V15.8281ZM12.5793 16.6614C13.6991 16.9479 14.7407 17.2864 15.6001 18.0677L16.0688 17.7552C15.0272 16.7916 13.8032 16.401 12.5793 16.0885V16.6614ZM7.37093 15.2291L6.90218 15.5416C6.92822 15.5677 6.92822 15.5677 6.95426 15.5937C8.12614 16.7656 9.61051 17.1302 11.0428 17.4947C12.2668 17.8072 13.4647 18.0937 14.4543 18.875L14.923 18.5625C13.8032 17.625 12.4751 17.2864 11.173 16.9739C9.76676 16.6093 8.43864 16.2708 7.37093 15.2291ZM6.38135 16.1406C6.32926 16.0885 6.27718 16.0364 6.2251 15.9843C6.04281 16.1666 6.04281 16.4791 6.2251 16.6614C6.25114 16.6875 6.27718 16.7135 6.30322 16.7135L7.89176 17.7552C8.59489 18.0416 9.3501 18.2239 10.0793 18.4062C11.2251 18.6927 12.2928 18.9531 13.2303 19.6041L13.7251 19.2916C12.6574 18.4843 11.4074 18.1718 10.2095 17.8854C8.80322 17.5468 7.44906 17.2083 6.38135 16.1406ZM11.5897 20.151C11.6938 20.2031 11.798 20.2552 11.9022 20.3073C12.0324 20.3333 12.1626 20.3072 12.2668 20.2291L12.5272 20.0468C11.6678 19.4739 10.7043 19.1875 9.74072 18.927L11.5897 20.151Z" fill="#326CE5"/>
</svg>
