<svg xmlns="http://www.w3.org/2000/svg" width="24" height="24" fill="none" viewBox="0 0 24 24">
  <path stroke="#3B444C" stroke-linecap="round" stroke-linejoin="round" stroke-width="1.5" d="M2 6.984v12.564a.771.771 0 0 0 .77.77h12.286M2 6.983v-2.5a.833.833 0 0 1 .833-.834h5.488a.833.833 0 0 1 .59.244L12 6.984m-10 0h13.056m0 0h6.11a.833.833 0 0 1 .834.833v11.76a.74.74 0 0 1-.74.74h-6.204m0-13.333v3.606m0 9.727V16.71m0-6.12H12m3.056 0v3.1m0 0h3.054m-3.054 0v3.02m0 0H12" vector-effect="non-scaling-stroke"/>
</svg>
