<svg width="20" height="20" viewBox="0 0 20 20" fill="none" xmlns="http://www.w3.org/2000/svg">
<path d="M11.875 2.5H4.37439C4.20863 2.5 4.04966 2.56585 3.93245 2.68306C3.81524 2.80027 3.74939 2.95924 3.74939 3.125V16.875C3.74939 17.0408 3.81524 17.1997 3.93245 17.3169C4.04966 17.4342 4.20863 17.5 4.37439 17.5H15.625C15.7071 17.5 15.7883 17.4838 15.8642 17.4524C15.94 17.421 16.0089 17.375 16.0669 17.3169C16.125 17.2589 16.171 17.19 16.2024 17.1142C16.2338 17.0384 16.25 16.9571 16.25 16.875V6.875M11.875 2.5L16.25 6.875M11.875 2.5V6.875H16.25M7.5 10.625H12.5M7.5 13.125H12.5" stroke="#596168" stroke-width="1.5" stroke-linecap="round" stroke-linejoin="round"/>
</svg>
