<svg xmlns="http://www.w3.org/2000/svg" width="16" height="16" viewBox="0 0 16 16" fill="none">
  <path d="M9.16748 2H3.16699C3.03438 2 2.90721 2.05268 2.81344 2.14645C2.71967 2.24021 2.66699 2.36739 2.66699 2.5V13.5C2.66699 13.6326 2.71967 13.7598 2.81344 13.8536C2.90721 13.9473 3.03438 14 3.16699 14H6.3339M9.16748 2L12.6675 5.5M9.16748 2V5.5H12.6675M12.6675 5.5V7.5M13.6716 11.8111L9.6718 9.36665C9.63811 9.34607 9.59954 9.33482 9.56007 9.33408C9.52059 9.33334 9.48163 9.34314 9.44719 9.36245C9.41276 9.38176 9.38409 9.4099 9.36413 9.44397C9.34418 9.47804 9.33366 9.51681 9.33366 9.55629V14.4451C9.33366 14.4846 9.34418 14.5234 9.36413 14.5575C9.38409 14.5915 9.41276 14.6197 9.44719 14.639C9.48163 14.6583 9.52059 14.6681 9.56007 14.6673C9.59954 14.6666 9.63811 14.6554 9.6718 14.6348L13.6716 12.1904C13.7041 12.1705 13.731 12.1426 13.7496 12.1094C13.7682 12.0762 13.778 12.0388 13.778 12.0007C13.778 11.9626 13.7682 11.9252 13.7496 11.892C13.731 11.8588 13.7041 11.8309 13.6716 11.8111Z" stroke="#596168" stroke-width="1.5" stroke-linecap="round" stroke-linejoin="round"/>
</svg>