
<?xml version="1.0" encoding="UTF-8"?>
<svg width="24px" height="24px" viewBox="0 0 24 24" version="1.1" xmlns="http://www.w3.org/2000/svg" xmlns:xlink="http://www.w3.org/1999/xlink">
    <title>93753BEE-17BA-45E0-8157-F2EA2749E335</title>
    <g id="Final-UI" stroke="none" stroke-width="1" fill="none" fill-rule="evenodd">
        <g id="App-List" transform="translate(-24.000000, -658.000000)" fill="#FFFFFF">
            <g id="Primary-Nav/Item/Hover" transform="translate(16.000000, 650.000000)">
                <g id="Icon/Git/ic-github" transform="translate(8.000000, 8.000000)">
                    <path d="M11.9814876,2 C6.46958678,2 2,6.46859504 2,11.9813223 C2,16.391405 4.86,20.1328926 8.82595041,21.4527273 C9.32479339,21.545124 9.50793388,21.2361983 9.50793388,20.972562 C9.50793388,20.7345455 9.49867769,19.9482645 9.49438017,19.1142149 C6.71752066,19.7180165 6.13157025,17.9365289 6.13157025,17.9365289 C5.67752066,16.7828099 5.02330579,16.4760331 5.02330579,16.4760331 C4.11768595,15.8565289 5.09157025,15.8692562 5.09157025,15.8692562 C6.0938843,15.9395041 6.62165289,16.8978512 6.62165289,16.8978512 C7.51190083,18.4238017 8.95669421,17.9826446 9.52628099,17.7276033 C9.61586777,17.0826446 9.87454545,16.6419835 10.16,16.3928926 C7.94297521,16.1404959 5.61239669,15.2846281 5.61239669,11.46 C5.61239669,10.3702479 6.00231405,9.47983471 6.64082645,8.78082645 C6.53719008,8.5292562 6.19553719,7.51421488 6.73752066,6.13933884 C6.73752066,6.13933884 7.57570248,5.87107438 9.4831405,7.16247934 C10.2793388,6.94132231 11.1332231,6.83041322 11.9814876,6.82661157 C12.8297521,6.83041322 13.6842975,6.94132231 14.4819835,7.16247934 C16.3871074,5.87107438 17.2241322,6.13933884 17.2241322,6.13933884 C17.767438,7.51421488 17.4256198,8.5292562 17.3219835,8.78082645 C17.9619835,9.47983471 18.3492562,10.3702479 18.3492562,11.46 C18.3492562,15.293719 16.0142149,16.1378512 13.7915702,16.3849587 C14.1495868,16.6947107 14.468595,17.3021488 14.468595,18.2333884 C14.468595,19.5687603 14.4570248,20.6436364 14.4570248,20.972562 C14.4570248,21.2381818 14.6366942,21.5494215 15.1426446,21.451405 C19.1064463,20.1300826 21.9628099,16.3899174 21.9628099,11.9813223 C21.9628099,6.46859504 17.4938843,2 11.9814876,2" id="Fill-52"></path>
                </g>
            </g>
        </g>
    </g>
</svg>