
 <svg xmlns="http://www.w3.org/2000/svg" width="24" height="24" viewBox="0 0 24 24">
         <g fill="none" fill-rule="evenodd" id="google" className="nav-small-icon">
                                                                    <g fill-rule="nonzero">
                                                                        <g>
                                                                            <g>
                                                                                <g>
                                                                                    <path fill="#4285F4" d="M21.597 12.22c0-.821-.066-1.421-.21-2.043h-9.388v3.71h5.51c-.111.922-.711 2.311-2.044 3.244l-.019.125 2.968 2.299.206.02c1.889-1.744 2.977-4.31 2.977-7.354" transform="translate(-949 -339) translate(875 95) translate(0 232) translate(74 12)"/>
                                                                                    <path fill="#34A853" d="M11.999 21.997c2.7 0 4.966-.888 6.621-2.422l-3.155-2.444c-.844.59-1.978 1-3.466 1-2.644 0-4.889-1.744-5.689-4.155l-.117.01-3.086 2.389-.04.112c1.644 3.266 5.021 5.51 8.932 5.51" transform="translate(-949 -339) translate(875 95) translate(0 232) translate(74 12)"/>
                                                                                    <path fill="#FBBC05" d="M6.31 13.976c-.21-.622-.333-1.289-.333-1.977 0-.69.122-1.356.322-1.978l-.005-.132-3.125-2.427-.103.048C2.39 8.866 2 10.388 2 12c0 1.61.389 3.133 1.066 4.488l3.244-2.51" transform="translate(-949 -339) translate(875 95) translate(0 232) translate(74 12)"/>
                                                                                    <path fill="#EB4335" d="M11.999 5.866c1.877 0 3.144.811 3.866 1.489L18.687 4.6C16.954 2.989 14.698 2 11.999 2 8.088 2 4.71 4.244 3.066 7.51L6.3 10.021c.811-2.41 3.056-4.155 5.7-4.155" transform="translate(-949 -339) translate(875 95) translate(0 232) translate(74 12)"/>
                                                                                </g>
                                                                            </g>
                                                                        </g>
                                                                    </g>
                                                                </g>
                                                              </svg>
                                                         