<svg width="16" height="16" viewBox="0 0 16 16" fill="none" xmlns="http://www.w3.org/2000/svg">
<path d="M4.25 9.4999L3.5 9.49988V9.4999H4.25ZM5.74997 7.99995L5.74997 8.74995H5.74998L5.74997 7.99995ZM10.25 7.99986L10.25 7.24986H10.25L10.25 7.99986ZM11.75 6.49992L12.5 6.49993V6.49992H11.75ZM5.25 11.7499C5.25 12.3022 4.80228 12.7499 4.25 12.7499V14.2499C5.63071 14.2499 6.75 13.1306 6.75 11.7499H5.25ZM4.25 12.7499C3.69772 12.7499 3.25 12.3022 3.25 11.7499H1.75C1.75 13.1306 2.86929 14.2499 4.25 14.2499V12.7499ZM3.25 11.7499C3.25 11.1976 3.69772 10.7499 4.25 10.7499V9.24991C2.86929 9.24991 1.75 10.3692 1.75 11.7499H3.25ZM4.25 10.7499C4.80228 10.7499 5.25 11.1976 5.25 11.7499H6.75C6.75 10.3692 5.63071 9.24991 4.25 9.24991V10.7499ZM12.75 4.24976C12.75 4.80204 12.3023 5.24976 11.75 5.24976V6.74976C13.1307 6.74976 14.25 5.63047 14.25 4.24976H12.75ZM11.75 5.24976C11.1977 5.24976 10.75 4.80204 10.75 4.24976H9.25C9.25 5.63047 10.3693 6.74976 11.75 6.74976V5.24976ZM10.75 4.24976C10.75 3.69747 11.1977 3.24976 11.75 3.24976V1.74976C10.3693 1.74976 9.25 2.86904 9.25 4.24976H10.75ZM11.75 3.24976C12.3023 3.24976 12.75 3.69747 12.75 4.24976H14.25C14.25 2.86904 13.1307 1.74976 11.75 1.74976V3.24976ZM5.25 4.24976C5.25 4.80204 4.80228 5.24976 4.25 5.24976V6.74976C5.63071 6.74976 6.75 5.63047 6.75 4.24976H5.25ZM4.25 5.24976C3.69772 5.24976 3.25 4.80204 3.25 4.24976H1.75C1.75 5.63047 2.86929 6.74976 4.25 6.74976V5.24976ZM3.25 4.24976C3.25 3.69747 3.69772 3.24976 4.25 3.24976V1.74976C2.86929 1.74976 1.75 2.86904 1.75 4.24976H3.25ZM4.25 3.24976C4.80228 3.24976 5.25 3.69747 5.25 4.24976H6.75C6.75 2.86904 5.63071 1.74976 4.25 1.74976V3.24976ZM5 9.99991V9.4999H3.5V9.99991H5ZM5 9.49991C5 9.30101 5.07902 9.11026 5.21967 8.96961L4.15902 7.90894C3.73707 8.33088 3.50001 8.90316 3.5 9.49988L5 9.49991ZM5.21967 8.96961C5.36031 8.82897 5.55107 8.74995 5.74997 8.74995L5.74997 7.24995C5.15325 7.24996 4.58097 7.487 4.15902 7.90894L5.21967 8.96961ZM5.74998 8.74995L10.25 8.74986L10.25 7.24986L5.74995 7.24995L5.74998 8.74995ZM10.25 8.74986C10.8468 8.74986 11.419 8.51282 11.841 8.09087L10.7803 7.03021C10.6397 7.17085 10.4489 7.24986 10.25 7.24986L10.25 8.74986ZM11.841 8.09087C12.2629 7.66893 12.5 7.09666 12.5 6.49993L11 6.49991C11 6.69881 10.921 6.88956 10.7803 7.03021L11.841 8.09087ZM12.5 6.49992V5.99976H11V6.49992H12.5ZM3.5 5.99976V9.99991H5V5.99976H3.5Z" fill="#000A14"/>
</svg>
