<!--
  - Copyright (c) 2024. Devtron Inc.
  -
  - Licensed under the Apache License, Version 2.0 (the "License");
  - you may not use this file except in compliance with the License.
  - You may obtain a copy of the License at
  -
  -     http://www.apache.org/licenses/LICENSE-2.0
  -
  - Unless required by applicable law or agreed to in writing, software
  - distributed under the License is distributed on an "AS IS" BASIS,
  - WITHOUT WARRANTIES OR CONDITIONS OF ANY KIND, either express or implied.
  - See the License for the specific language governing permissions and
  - limitations under the License.
  -->

<svg width="20" height="20" xmlns="http://www.w3.org/2000/svg">
    <path d="M10 1.667a8.333 8.333 0 1 1 0 16.666 8.333 8.333 0 0 1 0-16.666zM9.83 12.39a.938.938 0 0 0-.935.934c0 .514.422.934.934.934.513 0 .934-.42.934-.934a.938.938 0 0 0-.934-.934zm.056-6.557c-1.39 0-2.664.99-2.664 2.106 0 .455.342.695.74.695 1.104 0 .535-1.503 1.992-1.503.684 0 1.093.365 1.093.979 0 1.116-1.992 1.423-1.992 2.779 0 .364.24.762.729.762.751 0 .66-.559.933-.957.364-.535 2.06-1.104 2.06-2.584 0-1.606-1.434-2.277-2.891-2.277z" fill="#06C" fill-rule="nonzero"/>
</svg>
