
<svg width="20" height="20" viewBox="0 0 20 20" fill="white" xmlns="http://www.w3.org/2000/svg">
<circle cx="9.99996" cy="10.0003" r="7.33333" fill="#664BEE"/>
<path d="M9.24868 11.8666V11.4541C9.24868 11.0874 9.29868 10.7583 9.39868 10.4666C9.50701 10.1749 9.63618 9.9416 9.78618 9.7666C9.94452 9.5916 10.1112 9.42077 10.2862 9.2541C10.4695 9.08743 10.6362 8.9416 10.7862 8.8166C10.9445 8.6916 11.0737 8.53743 11.1737 8.3541C11.282 8.16243 11.3362 7.95827 11.3362 7.7416C11.3362 7.4166 11.2237 7.1541 10.9987 6.9541C10.782 6.74577 10.4778 6.6416 10.0862 6.6416C9.61952 6.6416 9.26118 6.7791 9.01118 7.0541C8.76118 7.32077 8.63618 7.6916 8.63618 8.1666H7.21118C7.21118 7.2666 7.47368 6.55827 7.99868 6.0416C8.52368 5.52493 9.21952 5.2666 10.0862 5.2666C10.9362 5.2666 11.5987 5.49994 12.0737 5.9666C12.5487 6.43327 12.7862 7.02493 12.7862 7.7416C12.7862 8.12493 12.7112 8.4666 12.5612 8.7666C12.4195 9.05827 12.2445 9.29577 12.0362 9.4791C11.8362 9.66244 11.632 9.8416 11.4237 10.0166C11.2237 10.1833 11.0487 10.3874 10.8987 10.6291C10.757 10.8708 10.6862 11.1499 10.6862 11.4666V11.8666H9.24868ZM10.6737 14.0541C10.4903 14.2374 10.257 14.3291 9.97368 14.3291C9.69035 14.3291 9.45285 14.2374 9.26118 14.0541C9.07785 13.8624 8.98618 13.6291 8.98618 13.3541C8.98618 13.0874 9.08202 12.8583 9.27368 12.6666C9.46535 12.4749 9.69868 12.3791 9.97368 12.3791C10.2487 12.3791 10.482 12.4749 10.6737 12.6666C10.8653 12.8583 10.9612 13.0874 10.9612 13.3541C10.9612 13.6291 10.8653 13.8624 10.6737 14.0541Z" fill="white"/>
</svg>
