<svg xmlns="http://www.w3.org/2000/svg" width="24" height="24" viewBox="0 0 24 24">
    <g fill="none" fill-rule="evenodd">
        <g fill="#06C" fill-rule="nonzero">
            <g>
                <g>
                    <g>
                         <path  d="M12 0a1 1 0 0 1 1 1v2c0 .019 0 .037-.002.056A8.947 8.947 0 0 1 17.62 4.97l.037-.041 1.414-1.414a1 1 0 0 1 1.414 1.414l-1.414 1.414a1.016 1.016 0 0 1-.04.039 8.949 8.949 0 0 1 1.914 4.621L21 11h2a1 1 0 0 1 0 2h-2c-.019 0-.038 0-.056-.002a8.942 8.942 0 0 1-1.914 4.622l.041.037 1.414 1.414a1 1 0 0 1-1.414 1.414l-1.414-1.414a1.016 1.016 0 0 1-.039-.04 8.949 8.949 0 0 1-4.62 1.914L13 21v2a1 1 0 0 1-2 0v-2c0-.019 0-.038.002-.056A8.941 8.941 0 0 1 6.38 19.03l-.037.041-1.414 1.414a1 1 0 1 1-1.414-1.414l1.414-1.414.04-.039a8.949 8.949 0 0 1-1.914-4.62L3 13H1a1 1 0 0 1 0-2h2c.019 0 .037 0 .056.002A8.946 8.946 0 0 1 4.97 6.38l-.041-.037L3.515 4.93a1 1 0 1 1 1.414-1.414l1.414 1.414.039.04a8.949 8.949 0 0 1 4.621-1.914L11 3V1a1 1 0 0 1 1-1zm0 5a7 7 0 1 0 0 14 7 7 0 0 0 0-14zm0 2a5 5 0 1 1 0 10 5 5 0 0 1 0-10zm0 2a3 3 0 1 0 0 6 3 3 0 0 0 0-6z"/>
                    </g>
                </g>
            </g>
        </g>
    </g>
</svg>
