<svg xmlns="http://www.w3.org/2000/svg" width="24" height="24" viewBox="0 0 24 24">
    <path fill="#767D84" fill-rule="evenodd" d="M12 2c5.523 0 10 4.477 10 10s-4.477 10-10 10S2 17.523 2 12 6.477 2 12 2zm-.205 12.868c-.615 0-1.12.505-1.12 1.12 0 .617.505 1.121 1.12 1.121.615 0 1.12-.504 1.12-1.12 0-.616-.506-1.12-1.12-1.12zM11.863 7c-1.667 0-3.197 1.187-3.196 2.527 0 .546.41.833.888.833 1.325 0 .642-1.803 2.39-1.803.82 0 1.311.438 1.311 1.175 0 1.34-2.39 1.708-2.39 3.334 0 .438.287.915.874.915.902 0 .792-.67 1.12-1.148.438-.642 2.473-1.325 2.473-3.101 0-1.927-1.721-2.732-3.47-2.732z"/>
</svg>
