<!--
  - Copyright (c) 2024. Devtron Inc.
  -
  - Licensed under the Apache License, Version 2.0 (the "License");
  - you may not use this file except in compliance with the License.
  - You may obtain a copy of the License at
  -
  -     http://www.apache.org/licenses/LICENSE-2.0
  -
  - Unless required by applicable law or agreed to in writing, software
  - distributed under the License is distributed on an "AS IS" BASIS,
  - WITHOUT WARRANTIES OR CONDITIONS OF ANY KIND, either express or implied.
  - See the License for the specific language governing permissions and
  - limitations under the License.
  -->

<svg xmlns="http://www.w3.org/2000/svg" width="20" height="20" viewBox="0 0 20 20">
    <g fill="none" fill-rule="evenodd">
        <g fill="#664BEE">
            <g>
                <g>
                    <g>
                        <path d="M10 1.667C5.4 1.667 1.667 5.4 1.667 10S5.4 18.333 10 18.333 18.333 14.6 18.333 10 14.6 1.667 10 1.667zm0 12.5c-.46 0-.833-.373-.833-.834V10c0-.46.373-.833.833-.833.46 0 .833.373.833.833v3.333c0 .46-.373.834-.833.834zM10 7.5c-.46 0-.833-.373-.833-.833 0-.46.373-.834.833-.834.46 0 .833.373.833.834 0 .46-.373.833-.833.833z" transform="translate(-319.000000, -278.000000) translate(283.000000, 40.000000) translate(20.000000, 228.000000) translate(16.000000, 10.000000)"/>
                    </g>
                </g>
            </g>
        </g>
    </g>
</svg>