<svg width="21" height="21" viewBox="0 0 21 21" fill="none" xmlns="http://www.w3.org/2000/svg">
<path d="M7.64279 10.076C7.1369 8.81413 7.08221 7.41633 7.48795 6.11883C7.89369 4.82133 8.73499 3.70372 9.86963 2.9549C11.0043 2.20608 12.3627 1.87199 13.7152 2.0091C15.0677 2.14621 16.3314 2.74611 17.2927 3.70739C18.254 4.66868 18.8539 5.93239 18.991 7.28492C19.1281 8.63745 18.794 9.99584 18.0452 11.1305C17.2964 12.2651 16.1787 13.1064 14.8812 13.5121C13.5837 13.9179 12.1859 13.8632 10.9241 13.3573L10.9242 13.3572L9.84399 14.4373H7.87524V16.4061H5.90649V18.3748H2.62524V15.0936L7.64293 10.0759L7.64279 10.076Z" stroke="#3B444C" stroke-width="1.5" stroke-linecap="round" stroke-linejoin="round"/>
<path d="M14.7656 7.21875C15.3093 7.21875 15.75 6.77803 15.75 6.23438C15.75 5.69072 15.3093 5.25 14.7656 5.25C14.222 5.25 13.7812 5.69072 13.7812 6.23438C13.7812 6.77803 14.222 7.21875 14.7656 7.21875Z" fill="#3B444C"/>
</svg>
