<!--
  - Copyright (c) 2024. Devtron Inc.
  -
  - Licensed under the Apache License, Version 2.0 (the "License");
  - you may not use this file except in compliance with the License.
  - You may obtain a copy of the License at
  -
  -     http://www.apache.org/licenses/LICENSE-2.0
  -
  - Unless required by applicable law or agreed to in writing, software
  - distributed under the License is distributed on an "AS IS" BASIS,
  - WITHOUT WARRANTIES OR CONDITIONS OF ANY KIND, either express or implied.
  - See the License for the specific language governing permissions and
  - limitations under the License.
  -->

<svg width="20" height="20" viewBox="0 0 20 20" fill="none" xmlns="http://www.w3.org/2000/svg">
<path d="M10.0008 6.25005V13.75M6.25049 8.12451V4.99951C6.25049 4.00495 6.64558 3.05112 7.34884 2.34786C8.0521 1.6446 9.00593 1.24951 10.0005 1.24951C10.995 1.24951 11.9489 1.6446 12.6521 2.34786C13.3554 3.05112 13.7505 4.00495 13.7505 4.99951V8.12451M6.25049 11.875V15C6.25049 15.9946 6.64558 16.9484 7.34884 17.6517C8.0521 18.355 9.00593 18.75 10.0005 18.75C10.995 18.75 11.9489 18.355 12.6521 17.6517C13.3554 16.9484 13.7505 15.9946 13.7505 15V11.875" stroke="#000A14" stroke-width="1.5" stroke-linecap="round" stroke-linejoin="round"/>
</svg>
