<svg width="24px" height="24px" viewBox="0 0 24 24" version="1.1" xmlns="http://www.w3.org/2000/svg" xmlns:xlink="http://www.w3.org/1999/xlink">
    <g id="SSO-Login-Services" stroke="none" stroke-width="1" fill="none" fill-rule="evenodd">
        <g id="Global-Config/Login-Service/Configuration" transform="translate(-823.000000, -208.000000)" fill="#CB2026" fill-rule="nonzero">
            <g id="Text-Field/Default-Copy-5" transform="translate(439.000000, 168.000000)">
                <g id="Account---Google-Copy-3" transform="translate(348.000000, 24.000000)">
                    <g id="Icon/Account/ic-ldap" transform="translate(36.000000, 16.000000)">
                        <path d="M13.636468,8.13419742 C13.6525132,8.13954797 14.9343445,10.3546748 16.2121645,12.5738124 L16.5181142,13.1053531 C17.6856416,15.1345625 18.7637933,17.0178099 18.7637933,17.037492 C18.7637933,17.0593831 15.8972691,17.0917742 13.053894,17.105656 L12.5378151,17.1079695 C12.0232778,17.1100661 11.5152952,17.1114928 11.0312358,17.1120751 L10.5557941,17.1123694 C9.28287672,17.1123694 8.45922432,17.0981071 8.46630957,17.0802791 C8.47316287,17.0608823 8.60963149,16.8184903 8.83415071,16.4249873 L9.01840017,16.10265 C9.45056361,15.3477308 10.0877965,14.2412391 10.7517439,13.091631 L11.0594286,12.5591043 C12.3439399,10.3368468 13.6257712,8.13063399 13.636468,8.13419742 Z M6.20220281,6.85414372 C6.21646519,6.85058761 6.80835393,7.85251975 7.5143417,9.08264996 C7.60259017,9.23597053 7.69267715,9.39257814 7.78334912,9.55027214 L8.05586641,10.0244127 C8.59939677,10.9704096 9.11885936,11.8762935 9.34349183,12.2667261 L9.88902784,13.2187399 L9.14381853,14.5130508 L8.39504362,15.8109273 L4.69752181,15.8216241 L1,15.8287553 L1.11053344,15.6433444 C1.41208088,15.1176738 1.73087417,14.5629692 2.05590464,13.998233 L2.3357729,13.5121599 C4.20832101,10.2612042 6.18182799,6.85997284 6.20220281,6.85414372 Z M17.8296075,6.84345642 C17.8427289,6.84345642 18.934002,8.71758439 20.110486,10.7492779 L20.418675,11.2817305 C21.705409,13.5057703 22.9908059,15.7396154 22.9997199,15.778837 C23.0086339,15.8144929 22.8095549,15.8253878 21.7132995,15.828029 L18.8707611,15.8287553 L18.8208428,15.7503122 C18.660391,15.4935894 15.7686937,10.4411416 15.7686937,10.4126168 C15.7686937,10.3662641 17.8046483,6.84345642 17.8296075,6.84345642 Z M9.83910951,5.00002191 C9.8457489,4.99781333 9.9486975,5.16273312 10.1084506,5.42732976 L10.2856754,5.7226538 C10.9619921,6.85509018 12.1728528,8.93314088 12.2244924,9.06482198 C12.2387548,9.10047793 11.9071545,9.70662905 11.3259625,10.719258 C10.8196481,11.5963943 10.3810799,12.3629972 10.345424,12.4200467 L10.2848089,12.5198833 L10.195669,12.3843907 C10.1141521,12.2533244 9.6421369,11.4351243 9.14610621,10.5696097 L8.91679822,10.1691116 C8.38399494,9.23764946 7.88872916,8.36547359 7.88872916,8.35170302 C7.88872916,8.2982191 9.79988797,5.01074069 9.83910951,5.00002191 Z" id="Combined-Shape"></path>
                    </g>
                </g>
            </g>
        </g>
    </g>
</svg>