<svg width="24" height="24" viewBox="0 0 24 24" fill="none" xmlns="http://www.w3.org/2000/svg">
<path d="M5.69742 14.1868C4.29084 14.2602 1.88669 15.0582 2.11885 16.7252C2.70606 20.9546 -1.91771 22.3125 4.23562 22.3125C7.33113 22.3125 9.28225 20.9546 9.57715 18.1046L8.74149 14.8733L5.69742 14.1868Z" fill="#FE636E"/>
<path d="M6.80407 15.3052C6.15159 15.3394 5.03488 15.7093 5.14152 16.4845C5.41506 18.4491 3.26693 19.0787 6.12525 19.0787C7.5632 19.0787 8.4704 18.4491 8.60717 17.1242L8.29096 15.5281L6.80407 15.3052Z" fill="#FFD659"/>
<path d="M8.21573 18.2287C7.38007 19.75 5.72251 20.4834 3.44766 20.4834C2.55679 20.4834 1.89176 20.4543 1.40493 20.3935C0.747379 21.7919 0.427434 22.3125 4.23562 22.3125C7.33113 22.3125 9.28225 20.9546 9.57715 18.1046L8.87448 17.3953L8.6348 17.1533C8.61349 17.2356 8.59089 17.3154 8.56579 17.3953C8.50181 17.7208 8.38257 17.9982 8.21573 18.2287Z" fill="#FB2A39"/>
<path d="M7.95223 16.4643C7.64483 17.4143 6.80664 17.869 5.58448 17.869C5.33982 17.869 5.13275 17.8652 4.95709 17.8551C4.59697 18.7569 4.08126 19.0787 6.12528 19.0787C7.07889 19.0787 7.79913 18.8026 8.21571 18.2288C8.3826 17.9982 8.5018 17.7208 8.56578 17.3953C8.58335 17.3079 8.59714 17.218 8.6072 17.1242L7.95223 16.4643Z" fill="#FFBF00"/>
<path d="M7.39895 11.8688L5.56449 12.9454C5.1956 13.162 5.25709 13.7422 5.5507 14.0398L5.69752 14.1868L6.80422 15.3053L8.60732 17.1242L9.57725 18.1046L10.0829 18.6151C10.3778 18.9115 10.9525 18.9723 11.167 18.6012L12.2323 16.748L11.0265 12.0563L7.39895 11.8688Z" fill="#99B4CD"/>
<path d="M22.264 1.05771C21.3819 0.894299 19.7746 1.06531 17.8171 1.73412L18.698 5.00215L22.2753 6.22323C22.9403 4.23456 23.1072 2.60561 22.9391 1.72149C22.8412 1.20591 22.7784 1.15271 22.264 1.05771Z" fill="#99B4CD"/>
<path d="M12.1857 4.69556C9.7364 3.80254 7.8392 4.20915 5.91566 5.9673C5.02355 6.83372 3.53915 7.97244 4.76505 9.20998L6.28958 10.749L10.6712 8.51457L12.1857 4.69556Z" fill="#0066CC"/>
<path d="M19.3393 11.9156L15.2211 13.6345L13.3428 17.8689L14.8673 19.408C16.0932 20.6455 17.2212 19.147 18.0795 18.2464C18.9691 17.2534 20.5539 15.3622 19.3393 11.9156Z" fill="#0066CC"/>
<path d="M22.2754 6.2231C22.1723 6.53373 22.0559 6.85272 21.928 7.17838C21.3454 8.65389 20.5013 10.2791 19.3393 11.9154C17.8799 13.97 15.9198 16.0436 13.3426 17.8692L13.0403 17.5639L12.2325 16.7482L10.0511 14.546L9.81555 14.3085L9.58004 14.0706L7.39907 11.8689L6.28979 10.7488C8.09762 8.14742 10.152 6.16858 12.186 4.69578C14.1633 3.26548 16.1221 2.31287 17.817 1.73421L22.2754 6.2231Z" fill="#E5E5E5"/>
<path d="M21.9866 1.01968C22.0732 1.94691 21.8787 3.44028 21.2827 5.2225L22.2752 6.22315C22.9403 4.23447 23.1072 2.60553 22.939 1.72141C22.8411 1.20587 22.7784 1.15267 22.2639 1.05767C22.1774 1.04121 22.0858 1.02858 21.9866 1.01968Z" fill="#6C9ABB"/>
<path d="M20.9339 6.17885C20.3517 7.65452 19.5085 9.27839 18.3453 10.9162C17.8422 11.6243 17.28 12.3348 16.6527 13.0366C16.0228 13.7422 15.3289 14.4376 14.5647 15.114C13.8834 15.7169 13.1468 16.3046 12.3513 16.8683L13.0402 17.5637L13.3426 17.869C15.9199 16.0437 17.8798 13.9701 19.3391 11.9156C20.501 10.279 21.3455 8.65393 21.9277 7.17825C22.0557 6.85272 22.1723 6.53351 22.2752 6.22319L21.2827 5.22253C21.2174 5.41632 21.1484 5.61269 21.0731 5.81279C21.0292 5.93311 20.9828 6.056 20.9339 6.17885Z" fill="#C7C7C7"/>
<path d="M11.0239 15.5282L9.95861 17.3813C9.74407 17.7525 9.16936 17.6917 8.87451 17.3953L9.57718 18.1046L10.0828 18.6151C10.3777 18.9115 10.9524 18.9723 11.1669 18.6011L12.2322 16.748L11.0239 15.5282Z" fill="#6C9ABB"/>
<path d="M19.3393 11.9156C19.1373 12.2006 18.9252 12.4856 18.7044 12.7693C18.9904 15.1849 17.7821 16.6188 17.0468 17.4396C16.3417 18.178 15.457 19.3193 14.4846 19.0216L14.8673 19.408C16.0932 20.6455 17.2212 19.147 18.0795 18.2464C18.9691 17.2534 20.5539 15.3622 19.3393 11.9156Z" fill="#0053A6"/>
<path d="M10.6336 4.29402C8.80294 5.67976 6.97222 7.48097 5.33228 9.7825L6.28966 10.7489C8.09778 8.1472 10.1518 6.16866 12.1858 4.69552C11.6437 4.49799 11.128 4.36372 10.6336 4.29402Z" fill="#0053A6"/>
<path d="M11.7631 12.8189L10.0531 14.5443C10.0522 14.5452 10.0518 14.5456 10.0509 14.546L9.81535 14.3085L9.57983 14.0706L11.2881 12.3474C11.4182 12.2158 11.6302 12.215 11.7613 12.3452C11.8923 12.476 11.8932 12.6877 11.7631 12.8189Z" fill="#C7C7C7"/>
<path fill-rule="evenodd" clip-rule="evenodd" d="M13.0407 23.0063C12.6564 23.2559 12.1979 23.4009 11.7055 23.4009C10.3499 23.4009 9.25098 22.302 9.25098 20.9463V18.4918C9.25098 17.1362 10.3499 16.0373 11.7055 16.0373H12.2998C12.086 15.9249 11.8853 15.7789 11.7055 15.5991C10.747 14.6405 10.747 13.0864 11.7055 12.1279C12.3513 11.4821 13.118 10.9698 13.9618 10.6203C14.8055 10.2708 15.7099 10.0909 16.6232 10.0909C17.5364 10.0909 18.4408 10.2708 19.2845 10.6203C19.6034 10.7524 19.9112 10.9076 20.2056 11.0846C20.5899 10.835 21.0484 10.69 21.5408 10.69C22.8964 10.69 23.9953 11.789 23.9953 13.1446V15.5991C23.9953 16.9547 22.8964 18.0537 21.5408 18.0537H20.9465C21.1603 18.166 21.361 18.3121 21.5408 18.4918C22.4993 19.4504 22.4993 21.0045 21.5408 21.9631C20.895 22.6089 20.1283 23.1211 19.2845 23.4706C18.4408 23.8201 17.5364 24 16.6232 24C15.7099 24 14.8055 23.8201 13.9618 23.4706C13.643 23.3386 13.3351 23.1833 13.0407 23.0063Z" fill="white"/>
<path fill-rule="evenodd" clip-rule="evenodd" d="M16.6255 13.3582C16.142 13.3582 15.6632 13.4534 15.2165 13.6384C14.7698 13.8235 14.3639 14.0947 14.022 14.4366C13.7025 14.7561 13.1845 14.7561 12.8649 14.4366C12.5454 14.117 12.5454 13.599 12.8649 13.2795C13.3588 12.7856 13.9451 12.3939 14.5903 12.1266C15.2355 11.8594 15.9271 11.7218 16.6255 11.7218C17.3239 11.7218 18.0154 11.8594 18.6606 12.1266C19.3059 12.3939 19.8921 12.7856 20.386 13.2795L20.7249 13.6184V13.1391C20.7249 12.6872 21.0912 12.3209 21.5431 12.3209C21.995 12.3209 22.3613 12.6872 22.3613 13.1391V15.5937C22.3613 16.0455 21.995 16.4118 21.5431 16.4118H19.0885C18.6367 16.4118 18.2704 16.0455 18.2704 15.5937C18.2704 15.1418 18.6367 14.7755 19.0885 14.7755H19.5678L19.2289 14.4366C18.887 14.0947 18.4811 13.8235 18.0344 13.6384C17.5877 13.4534 17.109 13.3582 16.6255 13.3582ZM10.8896 18.4863C10.8896 18.0345 11.256 17.6682 11.7078 17.6682H14.1624C14.6142 17.6682 14.9806 18.0345 14.9806 18.4863C14.9806 18.9382 14.6142 19.3045 14.1624 19.3045H13.6831L14.022 19.6434C14.3639 19.9853 14.7698 20.2565 15.2165 20.4416C15.6632 20.6266 16.142 20.7218 16.6255 20.7218C17.109 20.7218 17.5877 20.6266 18.0344 20.4416C18.4811 20.2565 18.887 19.9853 19.2289 19.6434C19.5484 19.3239 20.0665 19.3239 20.386 19.6434C20.7055 19.963 20.7055 20.481 20.386 20.8005C19.8921 21.2944 19.3059 21.6861 18.6606 21.9534C18.0154 22.2206 17.3239 22.3582 16.6255 22.3582C15.9271 22.3582 15.2355 22.2206 14.5903 21.9534C13.945 21.6861 13.3588 21.2944 12.8649 20.8005L12.526 20.4616V20.9409C12.526 21.3928 12.1597 21.7591 11.7078 21.7591C11.256 21.7591 10.8896 21.3928 10.8896 20.9409V18.4863Z" fill="#CC7700"/>
</svg>
