
<svg width="16" height="16" xmlns="http://www.w3.org/2000/svg">
    <path d="M9.333 6a3.333 3.333 0 0 1 2.775 5.18l.03.02.057.052 1.886 1.886a.667.667 0 0 1-.885.995l-.058-.052-1.886-1.886a.671.671 0 0 1-.073-.086A3.333 3.333 0 1 1 9.333 6zm0 1.333a2 2 0 1 0 0 4 2 2 0 0 0 0-4zm-6 1.334c.367 0 .667.3.667.666C4 9.7 3.7 10 3.333 10h-.666A.669.669 0 0 1 2 9.333c0-.366.3-.666.667-.666zm2-3.334c.367 0 .667.3.667.667 0 .367-.3.667-.667.667H2.667A.669.669 0 0 1 2 6c0-.367.3-.667.667-.667zm8-3.333c.367 0 .667.3.667.667 0 .366-.3.666-.667.666H2.667A.669.669 0 0 1 2 2.667C2 2.3 2.3 2 2.667 2z" fill="#000A14" fill-rule="evenodd"/>
</svg>
