<!--
  - Copyright (c) 2024. Devtron Inc.
  -
  - Licensed under the Apache License, Version 2.0 (the "License");
  - you may not use this file except in compliance with the License.
  - You may obtain a copy of the License at
  -
  -     http://www.apache.org/licenses/LICENSE-2.0
  -
  - Unless required by applicable law or agreed to in writing, software
  - distributed under the License is distributed on an "AS IS" BASIS,
  - WITHOUT WARRANTIES OR CONDITIONS OF ANY KIND, either express or implied.
  - See the License for the specific language governing permissions and
  - limitations under the License.
  -->

<svg xmlns="http://www.w3.org/2000/svg" width="24" height="24" viewBox="0 0 24 24">
    <g fill="none" fill-rule="evenodd">
        <path d="M0 0h24v24H0z"/>
        <path fill="#959BA1" d="M10.316 8.275l.266.012c1.6.115 3.072.92 4.032 2.205a1.007 1.007 0 0 1-1.61 1.205 3.518 3.518 0 0 0-5.147-.53l-.158.15-2.702 2.704a3.523 3.523 0 0 0 .042 4.936 3.515 3.515 0 0 0 4.77.191l.15-.136 1.547-1.548a1.005 1.005 0 0 1 1.506 1.328l-.084.094-1.56 1.56a5.526 5.526 0 0 1-7.75-.067 5.539 5.539 0 0 1-.23-7.578l.175-.19 2.714-2.717a5.527 5.527 0 0 1 4.039-1.62zM20.382 3.62a5.539 5.539 0 0 1 .23 7.578l-.175.19-2.714 2.717a5.527 5.527 0 0 1-8.337-.598 1.007 1.007 0 0 1 1.61-1.205 3.518 3.518 0 0 0 5.147.53l.158-.15 2.702-2.704a3.523 3.523 0 0 0-.042-4.936 3.515 3.515 0 0 0-4.772-.19l-.15.137-1.556 1.549a1.005 1.005 0 0 1-1.502-1.333l.084-.094 1.567-1.559a5.526 5.526 0 0 1 7.75.068z"/>
    </g>
</svg>
