<svg width="20" height="20" viewBox="0 0 20 20" fill="none" xmlns="http://www.w3.org/2000/svg">
<path d="M11.875 6.25001V15.9155C11.875 16.0184 11.9004 16.1197 11.949 16.2104C11.9975 16.3011 12.0677 16.3785 12.1533 16.4355L13.0121 17.0081C13.0954 17.0636 13.1909 17.0983 13.2904 17.1093C13.39 17.1202 13.4907 17.1071 13.5841 17.071C13.6776 17.0349 13.7609 16.9768 13.8272 16.9018C13.8935 16.8267 13.9408 16.7368 13.9651 16.6396L15 12.5M11.875 6.25001H15C15.8288 6.25001 16.6237 6.57925 17.2097 7.1653C17.7958 7.75135 18.125 8.54621 18.125 9.37501C18.125 10.2038 17.7958 10.9987 17.2097 11.5847C16.6237 12.1708 15.8288 12.5 15 12.5M11.875 6.25001C11.875 6.25001 7.62096 6.25001 3.52726 2.8166C3.43622 2.73997 3.32518 2.69093 3.20722 2.67525C3.08926 2.65957 2.96927 2.6779 2.86137 2.72808C2.75346 2.77826 2.66214 2.85821 2.59812 2.95853C2.5341 3.05884 2.50006 3.17535 2.5 3.29435V15.4557C2.50006 15.5747 2.5341 15.6912 2.59812 15.7915C2.66214 15.8918 2.75346 15.9718 2.86137 16.0219C2.96927 16.0721 3.08926 16.0904 3.20722 16.0748C3.32518 16.0591 3.43622 16.01 3.52726 15.9334C7.62096 12.5 11.875 12.5 11.875 12.5L15 12.5" stroke="#000A14" stroke-width="1.5" stroke-linecap="round" stroke-linejoin="round"/>
</svg>
