<!--
  - Copyright (c) 2024. Devtron Inc.
  -
  - Licensed under the Apache License, Version 2.0 (the "License");
  - you may not use this file except in compliance with the License.
  - You may obtain a copy of the License at
  -
  -     http://www.apache.org/licenses/LICENSE-2.0
  -
  - Unless required by applicable law or agreed to in writing, software
  - distributed under the License is distributed on an "AS IS" BASIS,
  - WITHOUT WARRANTIES OR CONDITIONS OF ANY KIND, either express or implied.
  - See the License for the specific language governing permissions and
  - limitations under the License.
  -->

<svg width="48" height="48" viewBox="0 0 48 48" fill="none" xmlns="http://www.w3.org/2000/svg">
<g id="Icon/ic-medium-unhibernate">
<path id="Vector" d="M17.7132 13.2996L16.3464 10" stroke="#C58D36" stroke-width="2" stroke-linecap="round" stroke-linejoin="round"/>
<path id="Vector_2" d="M8.82203 22.1906L5.52246 20.8239" stroke="#C58D36" stroke-width="2" stroke-linecap="round" stroke-linejoin="round"/>
<path id="Vector_3" d="M39.178 22.1906L42.4775 20.8239" stroke="#C58D36" stroke-width="2" stroke-linecap="round" stroke-linejoin="round"/>
<path id="Vector_4" d="M30.2869 13.2996L31.6536 10" stroke="#C58D36" stroke-width="2" stroke-linecap="round" stroke-linejoin="round"/>
<path id="Vector_5" d="M38.2858 38.4776H9.71436" stroke="#C58D36" stroke-width="2" stroke-linecap="round" stroke-linejoin="round"/>
<g id="Vector_6">
<path d="M13.6708 31.3348C13.2324 29.7442 13.1673 28.0738 13.4805 26.4539C13.7936 24.834 14.4767 23.3083 15.4764 21.9958C16.4762 20.6832 17.7655 19.6193 19.2439 18.8869C20.7224 18.1545 22.35 17.7735 23.9999 17.7735C25.6498 17.7735 27.2775 18.1545 28.7559 18.8869C30.2344 19.6193 31.5237 20.6832 32.5234 21.9958C33.5231 23.3083 34.2062 24.834 34.5194 26.4539C34.8326 28.0738 34.7675 29.7442 34.329 31.3348" fill="#FFE5BE" style="opacity: 0.5;" />
<path d="M13.6708 31.3348C13.2324 29.7442 13.1673 28.0738 13.4805 26.4539C13.7936 24.834 14.4767 23.3083 15.4764 21.9958C16.4762 20.6832 17.7655 19.6193 19.2439 18.8869C20.7224 18.1545 22.35 17.7735 23.9999 17.7735C25.6498 17.7735 27.2775 18.1545 28.7559 18.8869C30.2344 19.6193 31.5237 20.6832 32.5234 21.9958C33.5231 23.3083 34.2062 24.834 34.5194 26.4539C34.8326 28.0738 34.7675 29.7442 34.329 31.3348" stroke="#C58D36" stroke-width="2" stroke-linecap="round" stroke-linejoin="round"/>
</g>
<path id="Vector_7" d="M44 31.3348H4" stroke="#C58D36" stroke-width="2" stroke-linecap="round" stroke-linejoin="round"/>
</g>
</svg>
