<!--
  - Copyright (c) 2024. Devtron Inc.
  -
  - Licensed under the Apache License, Version 2.0 (the "License");
  - you may not use this file except in compliance with the License.
  - You may obtain a copy of the License at
  -
  -     http://www.apache.org/licenses/LICENSE-2.0
  -
  - Unless required by applicable law or agreed to in writing, software
  - distributed under the License is distributed on an "AS IS" BASIS,
  - WITHOUT WARRANTIES OR CONDITIONS OF ANY KIND, either express or implied.
  - See the License for the specific language governing permissions and
  - limitations under the License.
  -->

<svg width="20" height="20" viewBox="0 0 20 20" fill="none" xmlns="http://www.w3.org/2000/svg">
<path fill-rule="evenodd" clip-rule="evenodd" d="M9.99984 18.3333C5.39984 18.3333 1.6665 14.6 1.6665 10C1.6665 5.40001 5.39984 1.66668 9.99984 1.66668C14.5998 1.66668 18.3332 5.40001 18.3332 10C18.3332 14.6 14.5998 18.3333 9.99984 18.3333Z" stroke="white" stroke-width="1.5"/>
<path fill-rule="evenodd" clip-rule="evenodd" d="M10 15C7.24 15 5 12.76 5 10C5 7.24 7.24 5 10 5C12.76 5 15 7.24 15 10C15 12.76 12.76 15 10 15Z" stroke="white" stroke-width="1.5"/>
<path fill-rule="evenodd" clip-rule="evenodd" d="M10.0002 8.33334C10.9206 8.33334 11.6668 9.07954 11.6668 10C11.6668 10.9205 10.9206 11.6667 10.0002 11.6667C9.07969 11.6667 8.3335 10.9205 8.3335 10C8.3335 9.07954 9.07969 8.33334 10.0002 8.33334Z" fill="white"/>
<path d="M10 10L15.8926 15.8926" stroke="white" stroke-width="1.5"/>
</svg>
