<svg width="24px" height="24px" viewBox="0 0 24 24" version="1.1" xmlns="http://www.w3.org/2000/svg" xmlns:xlink="http://www.w3.org/1999/xlink">
    <g id="Login" stroke="none" stroke-width="1" fill="none" fill-rule="evenodd">
        <g id="Login---SSO-options" transform="translate(-940.000000, -467.000000)">
            <g id="Group-9" transform="translate(875.000000, 95.000000)">
                <g id="Group-7" transform="translate(0.000000, 232.000000)">
                    <g id="button/large-copy-3" transform="translate(0.000000, 128.000000)">
                        <g id="Group-4" transform="translate(65.000000, 12.000000)">
                            <g id="Group-8" transform="translate(2.000000, 2.000000)">
                                <path d="M0,0 L9.51428571,0 C9.51371429,3.17142857 9.51428571,6.34285714 9.51371429,9.51428571 C6.34285714,9.51428571 3.17142857,9.51428571 0,9.51428571 L0,0" id="Fill-1" fill="#F25022"></path>
                                <path d="M10.4857143,0 L20,0 C20,3.17142857 20.0005714,6.34285714 19.9994286,9.51428571 C16.8285714,9.51371429 13.6571429,9.51428571 10.4862857,9.51428571 C10.4851429,6.34285714 10.4857143,3.17142857 10.4857143,0" id="Fill-3" fill="#80BA01"></path>
                                <path d="M-4.0602442e-15,10.4851429 C3.17142857,10.4862857 6.34285714,10.4845714 9.51428571,10.4862857 C9.51485714,13.6577143 9.51428571,16.8285714 9.51428571,20 L-4.0602442e-15,20 L-4.0602442e-15,10.4851429" id="Fill-16" fill="#02A4EF"></path>
                                <path d="M10.4862857,10.4862857 C13.6571429,10.4851429 16.8285714,10.4857143 20,10.4857143 C20,13.6571429 20,16.8285714 20,20 L10.4857143,20 C10.4862857,16.8285714 10.4851429,13.6571429 10.4862857,10.4862857" id="Fill-17" fill="#FFB902"></path>
                            </g>
                        </g>
                    </g>
                </g>
            </g>
        </g>
    </g>
</svg>