<!--
  - Copyright (c) 2024. Devtron Inc.
  -
  - Licensed under the Apache License, Version 2.0 (the "License");
  - you may not use this file except in compliance with the License.
  - You may obtain a copy of the License at
  -
  -     http://www.apache.org/licenses/LICENSE-2.0
  -
  - Unless required by applicable law or agreed to in writing, software
  - distributed under the License is distributed on an "AS IS" BASIS,
  - WITHOUT WARRANTIES OR CONDITIONS OF ANY KIND, either express or implied.
  - See the License for the specific language governing permissions and
  - limitations under the License.
  -->

<svg xmlns="http://www.w3.org/2000/svg" width="20" height="20" viewBox="0 0 20 20">
    <path fill="#3B444C" fill-rule="evenodd" d="M16.667 2.5c1.377 0 2.5 1.123 2.5 2.5v10c0 1.377-1.123 2.5-2.5 2.5H3.333c-1.377 0-2.5-1.123-2.5-2.5V5c0-1.377 1.123-2.5 2.5-2.5zm.832 4.1l-7.021 4.916c-.255.179-.585.198-.857.06l-.099-.06L2.5 6.6 2.5 15c0 .421.321.775.73.827l.103.006h13.334c.456 0 .833-.377.833-.833V6.6zm-.832-2.433H3.333c-.323 0-.606.189-.744.461L10 9.816l7.411-5.188c-.138-.272-.421-.461-.744-.461z"/>
</svg>
