<svg xmlns="http://www.w3.org/2000/svg" width="24" height="24" fill="none" viewBox="0 0 24 24">
  <path stroke="#3B444C" stroke-linecap="round" stroke-linejoin="round" stroke-width="1.5" d="M9 5H5a2 2 0 0 0-2 2v12a2 2 0 0 0 2 2h12a2 2 0 0 0 2-2v-4m-5.765-7.662 1.639.603a2 2 0 0 1 1.185 1.186l.603 1.638a.36.36 0 0 0 .676 0l.603-1.639a2 2 0 0 1 1.186-1.185l1.638-.603a.36.36 0 0 0 0-.676l-1.639-.603a2 2 0 0 1-1.185-1.186l-.603-1.638a.36.36 0 0 0-.676 0l-.603 1.639a2 2 0 0 1-1.186 1.185l-1.638.603a.36.36 0 0 0 0 .676Z" vector-effect="non-scaling-stroke"/>
</svg>
