<svg width="20" height="20" viewBox="0 0 20 20" fill="none" xmlns="http://www.w3.org/2000/svg">
<path d="M4.16637 3.10571C3.87348 2.81282 3.3986 2.81282 3.10571 3.10571C2.81282 3.3986 2.81282 3.87348 3.10571 4.16637L4.16637 3.10571ZM15.8336 16.8943C16.1265 17.1872 16.6014 17.1872 16.8943 16.8943C17.1872 16.6014 17.1872 16.1265 16.8943 15.8336L15.8336 16.8943ZM3.10571 15.8336C2.81282 16.1265 2.81282 16.6014 3.10571 16.8943C3.3986 17.1872 3.87348 17.1872 4.16637 16.8943L3.10571 15.8336ZM16.8943 4.16637C17.1872 3.87348 17.1872 3.3986 16.8943 3.10571C16.6014 2.81282 16.1265 2.81282 15.8336 3.10571L16.8943 4.16637ZM10.75 1C10.75 0.585786 10.4142 0.25 10 0.25C9.58579 0.25 9.25 0.585786 9.25 1H10.75ZM9.25 4.16216C9.25 4.57638 9.58579 4.91216 10 4.91216C10.4142 4.91216 10.75 4.57638 10.75 4.16216H9.25ZM10.75 15.8378C10.75 15.4236 10.4142 15.0878 10 15.0878C9.58578 15.0878 9.25 15.4236 9.25 15.8378H10.75ZM9.25 19C9.25 19.4142 9.58578 19.75 10 19.75C10.4142 19.75 10.75 19.4142 10.75 19H9.25ZM1 9.25C0.585786 9.25 0.25 9.58579 0.25 10C0.25 10.4142 0.585786 10.75 1 10.75V9.25ZM4.16216 10.75C4.57638 10.75 4.91216 10.4142 4.91216 10C4.91216 9.58579 4.57638 9.25 4.16216 9.25V10.75ZM15.8378 9.25C15.4236 9.25 15.0878 9.58579 15.0878 10C15.0878 10.4142 15.4236 10.75 15.8378 10.75V9.25ZM19 10.75C19.4142 10.75 19.75 10.4142 19.75 10C19.75 9.58579 19.4142 9.25 19 9.25V10.75ZM12.1689 10C12.1689 11.1979 11.1979 12.1689 10 12.1689V13.6689C12.0263 13.6689 13.6689 12.0263 13.6689 10H12.1689ZM10 12.1689C8.80214 12.1689 7.83108 11.1979 7.83108 10H6.33108C6.33108 12.0263 7.97371 13.6689 10 13.6689V12.1689ZM7.83108 10C7.83108 8.80214 8.80214 7.83108 10 7.83108V6.33108C7.97371 6.33108 6.33108 7.97371 6.33108 10H7.83108ZM10 7.83108C11.1979 7.83108 12.1689 8.80214 12.1689 10H13.6689C13.6689 7.97371 12.0263 6.33108 10 6.33108V7.83108ZM13.5976 6.40236C15.5846 8.38928 15.5846 11.6107 13.5976 13.5976L14.6583 14.6583C17.231 12.0856 17.231 7.91441 14.6583 5.3417L13.5976 6.40236ZM13.5976 13.5976C11.6107 15.5846 8.38928 15.5846 6.40235 13.5976L5.34169 14.6583C7.9144 17.231 12.0856 17.231 14.6583 14.6583L13.5976 13.5976ZM6.40235 13.5976C4.41543 11.6107 4.41543 8.38928 6.40235 6.40236L5.34169 5.3417C2.76898 7.91441 2.76898 12.0856 5.34169 14.6583L6.40235 13.5976ZM6.40235 6.40236C8.38928 4.41543 11.6107 4.41543 13.5976 6.40236L14.6583 5.3417C12.0856 2.76898 7.9144 2.76898 5.34169 5.3417L6.40235 6.40236ZM3.10571 4.16637L5.34169 6.40236L6.40235 5.3417L4.16637 3.10571L3.10571 4.16637ZM13.5976 14.6583L15.8336 16.8943L16.8943 15.8336L14.6583 13.5976L13.5976 14.6583ZM4.16637 16.8943L6.40235 14.6583L5.34169 13.5976L3.10571 15.8336L4.16637 16.8943ZM14.6583 6.40236L16.8943 4.16637L15.8336 3.10571L13.5976 5.3417L14.6583 6.40236ZM9.25 1V4.16216H10.75V1H9.25ZM9.25 15.8378V19H10.75V15.8378H9.25ZM1 10.75H4.16216V9.25H1V10.75ZM15.8378 10.75H19V9.25H15.8378V10.75Z" fill="white"/>
</svg>
