<svg width="20" height="20" viewBox="0 0 20 20" fill="none" xmlns="http://www.w3.org/2000/svg">
<path d="M7.34833 14.419C6.46444 17.0707 2.92891 17.0707 2.92891 17.0707C2.92891 17.0707 2.92891 13.5351 5.58056 12.6513M9.99998 13.5351L15.3033 8.23183C17.3114 6.2237 17.2918 4.21556 17.164 3.35914C17.1444 3.22728 17.0829 3.10522 16.9886 3.01095C16.8944 2.91668 16.7723 2.85518 16.6404 2.83553C15.784 2.70775 13.7759 2.68816 11.7677 4.6963L6.46444 9.9996M9.99998 13.5351L6.46444 9.9996M9.99998 13.5351L10.6548 16.8094C10.677 16.9203 10.7289 17.0232 10.8049 17.1069C10.881 17.1907 10.9783 17.2522 11.0866 17.285C11.1949 17.3178 11.31 17.3206 11.4197 17.2931C11.5294 17.2655 11.6296 17.2088 11.7096 17.1288L14.2363 14.6021C14.2944 14.544 14.3404 14.4751 14.3718 14.3993C14.4032 14.3235 14.4194 14.2422 14.4194 14.1601V9.11572M6.46444 9.9996L3.19017 9.34474C3.07924 9.32256 2.97642 9.27068 2.89266 9.19465C2.8089 9.11861 2.74734 9.02127 2.71456 8.913C2.68178 8.80473 2.679 8.68959 2.70651 8.57986C2.73403 8.47013 2.79081 8.36993 2.8708 8.28994L5.3975 5.76324C5.45554 5.7052 5.52444 5.65917 5.60027 5.62776C5.6761 5.59635 5.75737 5.58018 5.83944 5.58018H10.8839" stroke="white" stroke-width="1.5" stroke-linecap="round" stroke-linejoin="round"/>
</svg>
