<svg width="20" height="20" viewBox="0 0 20 20" fill="none" xmlns="http://www.w3.org/2000/svg">
<path d="M2.8779 13.1022C2.52011 12.8935 2.06088 13.0143 1.85217 13.3721C1.64346 13.7299 1.76431 14.1891 2.1221 14.3978L2.8779 13.1022ZM10 18.125L9.6221 18.7728C9.85562 18.9091 10.1444 18.9091 10.3779 18.7728L10 18.125ZM17.8779 14.3978C18.2357 14.1891 18.3565 13.7299 18.1478 13.3721C17.9391 13.0143 17.4799 12.8935 17.1221 13.1022L17.8779 14.3978ZM2.8779 9.35217C2.52011 9.14346 2.06088 9.26431 1.85217 9.6221C1.64346 9.97989 1.76431 10.4391 2.1221 10.6478L2.8779 9.35217ZM10 14.375L9.6221 15.0228C9.85562 15.1591 10.1444 15.1591 10.3779 15.0228L10 14.375ZM17.8779 10.6478C18.2357 10.4391 18.3565 9.97989 18.1478 9.6221C17.9391 9.26431 17.4799 9.14346 17.1221 9.35217L17.8779 10.6478ZM2.5 6.25L2.1221 5.60217C1.89168 5.73657 1.75 5.98325 1.75 6.25C1.75 6.51675 1.89168 6.76343 2.1221 6.89783L2.5 6.25ZM10 10.625L9.6221 11.2728C9.85562 11.4091 10.1444 11.4091 10.3779 11.2728L10 10.625ZM17.5 6.25L17.8779 6.89783C18.1083 6.76343 18.25 6.51675 18.25 6.25C18.25 5.98325 18.1083 5.73657 17.8779 5.60217L17.5 6.25ZM10 1.875L10.3779 1.22717C10.1444 1.09094 9.85562 1.09094 9.6221 1.22717L10 1.875ZM2.1221 14.3978L9.6221 18.7728L10.3779 17.4772L2.8779 13.1022L2.1221 14.3978ZM10.3779 18.7728L17.8779 14.3978L17.1221 13.1022L9.6221 17.4772L10.3779 18.7728ZM2.1221 10.6478L9.6221 15.0228L10.3779 13.7272L2.8779 9.35217L2.1221 10.6478ZM10.3779 15.0228L17.8779 10.6478L17.1221 9.35217L9.6221 13.7272L10.3779 15.0228ZM2.1221 6.89783L9.6221 11.2728L10.3779 9.97717L2.8779 5.60217L2.1221 6.89783ZM10.3779 11.2728L17.8779 6.89783L17.1221 5.60217L9.6221 9.97717L10.3779 11.2728ZM17.8779 5.60217L10.3779 1.22717L9.6221 2.52283L17.1221 6.89783L17.8779 5.60217ZM9.6221 1.22717L2.1221 5.60217L2.8779 6.89783L10.3779 2.52283L9.6221 1.22717Z" fill="white"/>
</svg>
