<svg width="20" height="20" viewBox="0 0 20 20" fill="none" xmlns="http://www.w3.org/2000/svg">
<path d="M4.08595 7.15615C4.22658 6.85928 4.39064 6.57803 4.57814 6.30459L4.54689 4.27334C4.54689 4.08584 4.62502 3.90616 4.77345 3.78116C5.50002 3.17178 6.32814 2.67959 7.2422 2.35147C7.42189 2.28897 7.6172 2.30459 7.77345 2.40615L9.51564 3.45303C9.84377 3.42959 10.1719 3.42959 10.5 3.45303L12.2422 2.40615C12.4063 2.3124 12.6016 2.28897 12.7813 2.35147C13.6719 2.67178 14.5078 3.14834 15.25 3.77334C15.3906 3.89053 15.4766 4.07803 15.4688 4.26553L15.4375 6.29678C15.625 6.57022 15.7891 6.85147 15.9297 7.14834L17.7031 8.13272C17.8672 8.22647 17.9844 8.38272 18.0156 8.57022C18.1797 9.4999 18.1875 10.4687 18.0156 11.414C17.9844 11.6015 17.8672 11.7577 17.7031 11.8515L15.9297 12.8358C15.7891 13.1327 15.625 13.414 15.4375 13.6874L15.4688 15.7187C15.4688 15.9062 15.3906 16.0858 15.2422 16.2108C14.5156 16.8202 13.6875 17.3124 12.7735 17.6405C12.5938 17.703 12.3985 17.6874 12.2422 17.5858L10.5 16.539C10.1719 16.5624 9.84377 16.5624 9.51564 16.539L7.77345 17.5858C7.60939 17.6796 7.41408 17.703 7.23439 17.6405C6.34377 17.3202 5.50783 16.8437 4.76564 16.2187C4.62502 16.1015 4.53908 15.914 4.54689 15.7265L4.57814 13.6952C4.39064 13.4218 4.22658 13.1405 4.08595 12.8437L2.31252 11.8593C2.14845 11.7655 2.03127 11.6093 2.00002 11.4218C1.83595 10.4921 1.82814 9.52334 2.00002 8.57803C2.03127 8.39053 2.14845 8.23428 2.31252 8.14053L4.08595 7.15615Z" stroke="white" stroke-width="1.5" stroke-miterlimit="10" stroke-linecap="round" stroke-linejoin="round"/>
<path d="M9.99994 12.9999C11.6568 12.9999 12.9999 11.6568 12.9999 9.99993C12.9999 8.34307 11.6568 6.99993 9.99994 6.99993C8.34308 6.99993 6.99994 8.34307 6.99994 9.99993C6.99994 11.6568 8.34308 12.9999 9.99994 12.9999Z" stroke="white" stroke-width="1.5" stroke-miterlimit="10" stroke-linecap="round" stroke-linejoin="round"/>
</svg>
