<!--
  - Copyright (c) 2024. Devtron Inc.
  -
  - Licensed under the Apache License, Version 2.0 (the "License");
  - you may not use this file except in compliance with the License.
  - You may obtain a copy of the License at
  -
  -     http://www.apache.org/licenses/LICENSE-2.0
  -
  - Unless required by applicable law or agreed to in writing, software
  - distributed under the License is distributed on an "AS IS" BASIS,
  - WITHOUT WARRANTIES OR CONDITIONS OF ANY KIND, either express or implied.
  - See the License for the specific language governing permissions and
  - limitations under the License.
  -->

<svg width="144" height="30" viewBox="0 0 144 30" fill="none" xmlns="http://www.w3.org/2000/svg">
<g id="ic-nav-devtron">
<path fill-rule="evenodd" clip-rule="evenodd" d="M20.9073 0V18.4384C20.9073 19.9575 20.7594 21.2858 20.4636 22.4232C20.21 23.4567 19.8144 24.4512 19.288 25.379C18.7988 26.2115 18.2451 26.8981 17.6231 27.4369C17.0392 27.9516 16.3987 28.4002 15.7137 28.7745C14.1759 29.5621 12.4447 29.9718 10.52 29.9999C8.53662 29.9718 6.77696 29.5621 5.23726 28.7745C4.5478 28.3978 3.90075 27.95 3.30694 27.4388C2.63457 26.856 2.06436 26.1676 1.61934 25.4015C1.09006 24.4829 0.694307 23.4954 0.443706 22.4681C0.147901 21.3288 0 20.0005 0 18.4833C0 16.9643 0.140318 15.636 0.420953 14.4986C0.660332 13.4695 1.03383 12.4753 1.53212 11.5409C1.94179 10.7744 2.46594 10.0732 3.08699 9.46055C3.66153 8.9068 4.26262 8.4522 4.88267 8.10236C6.30481 7.28483 7.92984 6.84894 9.76535 6.78907C10.6831 6.877 11.5705 7.09588 12.4295 7.44571C13.169 7.76749 13.9237 8.25576 14.6935 8.91241C15.2055 9.35017 15.5165 9.69252 15.6246 9.93572V0.00187154H20.9073V0ZM34.4025 6.78907C35.9772 6.8359 37.5286 7.17745 38.9742 7.79555C39.5658 8.05746 40.165 8.40168 40.7717 8.82448C41.3785 9.24915 41.9417 9.77484 42.4593 10.4016C42.977 11.0301 43.4359 11.7747 43.836 12.6353C44.2342 13.4958 44.5243 14.4967 44.7006 15.636C44.7594 16.0738 44.8125 16.5265 44.8561 16.9942C44.9016 17.4619 44.9225 17.9576 44.9225 18.4815V19.2709H29.3871C29.4439 19.7667 29.5198 20.2718 29.6089 20.7825C29.6961 21.2932 29.844 21.7965 30.0526 22.2922C30.3769 23.0518 30.8813 23.7234 31.562 24.3071C32.2427 24.8908 33.1889 25.1826 34.4025 25.1826C35.616 25.1826 36.5641 24.8908 37.2429 24.3071C37.9237 23.7234 38.4262 23.0537 38.7523 22.2922H44.5243C44.3207 23.2248 43.9843 24.1242 43.525 24.9637C43.1311 25.6738 42.6537 26.3356 42.1029 26.9355C41.6137 27.4666 41.0544 27.9304 40.4399 28.3143C39.888 28.6587 39.3091 28.9589 38.7087 29.2123C37.3363 29.7397 35.8753 30.0069 34.4025 29.9999C32.4191 29.9718 30.6575 29.5621 29.1197 28.7745C28.4302 28.3978 27.7832 27.9501 27.1894 27.4388C26.517 26.856 25.9468 26.1676 25.5018 25.4015C24.9725 24.4829 24.5767 23.4954 24.3261 22.4681C24.0303 21.3288 23.8824 20.0005 23.8824 18.4833C23.8824 16.9643 24.0303 15.636 24.3261 14.4986C24.5794 13.4643 24.9749 12.4692 25.5018 11.5409C25.991 10.7084 26.5523 10.0162 27.1894 9.46055C27.7792 8.9379 28.4267 8.48231 29.1197 8.10236C30.6575 7.28483 32.4191 6.84894 34.4025 6.78907V6.78907ZM110.931 6.78907C112.884 6.84706 114.628 7.28483 116.168 8.10236C116.818 8.4522 117.463 8.9068 118.098 9.46055C118.735 10.0162 119.297 10.7084 119.786 11.5409C120.273 12.3734 120.673 13.3574 120.984 14.4967C121.295 15.636 121.451 16.9661 121.451 18.4815C121.451 20.0005 121.295 21.3288 120.984 22.4662C120.72 23.4939 120.317 24.4818 119.786 25.4034C119.297 26.219 118.735 26.9 118.098 27.4388C117.504 27.9497 116.857 28.3974 116.168 28.7745C114.628 29.5621 112.884 29.9718 110.931 29.9999C108.947 29.9718 107.186 29.5621 105.648 28.7745C104.958 28.3979 104.31 27.9501 103.716 27.4388C103.043 26.856 102.473 26.1676 102.028 25.4015C101.499 24.4829 101.103 23.4954 100.852 22.4681C100.557 21.3288 100.409 20.0005 100.409 18.4833C100.409 16.9643 100.557 15.636 100.852 14.4967C101.106 13.4631 101.501 12.4686 102.028 11.5409C102.517 10.7084 103.08 10.0162 103.716 9.46055C104.306 8.93794 104.954 8.48236 105.648 8.10236C107.186 7.28483 108.947 6.84894 110.931 6.78907V6.78907ZM52.6456 7.35779L58.1503 23.9572L63.6549 7.35779H69.1159L61.7909 29.564H54.5096L47.1865 7.35779H52.6475H52.6456ZM76.9282 4.34583V7.35779H82.0327V12.5698H76.9282V22.3353C77.0154 22.687 77.1785 23.0088 77.4155 23.3006C77.6241 23.5344 77.9104 23.7533 78.2821 23.9554C78.6518 24.1612 79.1315 24.264 79.7232 24.264H83.0984V29.5621H77.6829C76.5882 29.4648 75.5276 29.1362 74.5731 28.5986C73.8052 28.1609 73.1017 27.5117 72.4665 26.6512C71.8293 25.7906 71.5127 24.5989 71.5127 23.0817V4.34396H76.9282V4.34583ZM98.0574 7.35779V12.6577H93.8858C93.2922 12.6577 92.8106 12.7606 92.4409 12.9645C92.0711 13.1703 91.7829 13.3873 91.5762 13.6193C91.3392 13.913 91.178 14.2348 91.0889 14.5846V29.5621H85.6279V13.84C85.6279 12.3228 85.954 11.1312 86.6044 10.2706C87.2548 9.41004 87.9659 8.759 88.7357 8.32124C89.6892 7.78444 90.7484 7.45589 91.8417 7.35779H98.0574V7.35779ZM134.013 6.78907C134.102 6.78907 134.419 6.80404 134.967 6.8321C135.515 6.86203 136.157 6.9855 136.899 7.20625C137.638 7.42326 138.421 7.76749 139.25 8.23518C140.079 8.70288 140.849 9.37262 141.56 10.2481C142.269 11.1237 142.853 12.2274 143.314 13.5557C143.771 14.8839 144 16.5265 144 18.4815V29.5621H138.584V18.4815C138.584 17.8398 138.526 17.1831 138.408 16.5115C138.298 15.8644 138.072 15.2418 137.741 14.6725C137.405 14.1075 136.933 13.6332 136.366 13.2919C135.772 12.9271 134.989 12.7456 134.015 12.7456C133.036 12.7456 132.251 12.9271 131.66 13.2919C131.093 13.6328 130.62 14.1072 130.285 14.6725C129.959 15.2263 129.735 15.8399 129.617 16.5115C129.5 17.185 129.441 17.8398 129.441 18.4815V29.5621H124.026V18.4815C124.026 16.5265 124.253 14.8839 124.714 13.5557C125.171 12.2274 125.757 11.1237 126.466 10.2481C127.177 9.37262 127.945 8.70101 128.776 8.23331C129.602 7.76749 130.387 7.42326 131.127 7.20438C131.747 7.00804 132.387 6.88311 133.036 6.8321C133.361 6.81201 133.687 6.79766 134.013 6.78907V6.78907ZM10.52 11.9562C9.42593 11.9562 8.5461 12.1751 7.87865 12.6128C7.21498 13.0524 6.70301 13.5987 6.34842 14.2554C5.99194 14.912 5.75492 15.621 5.63735 16.3806C5.52468 17.0754 5.46573 17.7778 5.46101 18.4815C5.46101 19.125 5.51789 19.8247 5.63735 20.5842C5.75492 21.3438 5.99194 22.0509 6.34842 22.7094C6.70301 23.3642 7.21308 23.9123 7.87865 24.3501C8.5461 24.7879 9.42593 25.0086 10.52 25.0086C11.616 25.0086 12.4959 24.7879 13.1614 24.3501C13.827 23.9123 14.3446 23.3661 14.7163 22.7094C15.086 22.0509 15.3287 21.3438 15.4482 20.5842C15.5608 19.8887 15.6197 19.1858 15.6246 18.4815C15.6195 17.7778 15.5606 17.0755 15.4482 16.3806C15.3346 15.6348 15.0867 14.915 14.7163 14.2554C14.3401 13.592 13.8066 13.0284 13.1614 12.6128C12.4977 12.1751 11.616 11.958 10.52 11.958V11.9562ZM110.931 11.9562C109.835 11.9562 108.955 12.1751 108.289 12.6128C107.624 13.0506 107.114 13.5987 106.757 14.2554C106.402 14.912 106.165 15.621 106.048 16.3806C105.928 17.1401 105.87 17.8398 105.87 18.4815C105.87 19.125 105.928 19.8247 106.048 20.5842C106.165 21.3438 106.402 22.0509 106.757 22.7076C107.112 23.3661 107.624 23.9123 108.289 24.3501C108.953 24.7897 109.835 25.0067 110.931 25.0067C112.025 25.0067 112.904 24.7897 113.572 24.352C114.236 23.9123 114.748 23.3661 115.102 22.7076C115.457 22.0528 115.694 21.3438 115.813 20.5842C115.931 19.8247 115.99 19.125 115.99 18.4815C115.99 17.8398 115.931 17.1401 115.813 16.3806C115.7 15.6375 115.46 14.9188 115.102 14.2554C114.74 13.59 114.213 13.0251 113.572 12.6128C112.904 12.1751 112.025 11.958 110.931 11.958V11.9562ZM34.4025 11.7373C33.6914 11.7373 33.0713 11.8477 32.5385 12.0665C32.0241 12.2733 31.5562 12.5785 31.1619 12.9645C30.7833 13.3354 30.4682 13.7644 30.229 14.2348C29.9919 14.7025 29.8156 15.1702 29.698 15.636H39.1069C38.959 15.1683 38.7751 14.7006 38.5532 14.2329C38.3269 13.7611 38.0189 13.3319 37.643 12.9645C37.2486 12.5787 36.7808 12.2735 36.2664 12.0665C35.6733 11.8363 35.0397 11.7244 34.4025 11.7373V11.7373Z" fill="white"/>
</g>
</svg>
