<!--
  - Copyright (c) 2024. Devtron Inc.
  -
  - Licensed under the Apache License, Version 2.0 (the "License");
  - you may not use this file except in compliance with the License.
  - You may obtain a copy of the License at
  -
  -     http://www.apache.org/licenses/LICENSE-2.0
  -
  - Unless required by applicable law or agreed to in writing, software
  - distributed under the License is distributed on an "AS IS" BASIS,
  - WITHOUT WARRANTIES OR CONDITIONS OF ANY KIND, either express or implied.
  - See the License for the specific language governing permissions and
  - limitations under the License.
  -->

<svg xmlns="http://www.w3.org/2000/svg" viewBox="0 0 20 20">
    <path fill="#000A14" fill-rule="evenodd" d="M9.524.945c.258-.149.576-.149.834 0l7.165 4.137c.258.149.417.424.417.722v8.274c0 .298-.159.573-.417.722l-7.165 4.137c-.258.149-.576.149-.834 0L2.36 14.8c-.258-.15-.417-.424-.417-.722V5.804c0-.298.159-.573.417-.722zM3.608 7.247v6.35l5.499 3.174v-6.35l-5.5-3.174zm12.664 0l-5.498 3.174v6.35l5.499-3.174-.001-6.35zM9.94 2.63l-5.5 3.173 5.5 3.176 5.499-3.175-5.5-3.174z"/>
</svg>
