<svg width="18" height="16" viewBox="0 0 18 16" fill="none" xmlns="http://www.w3.org/2000/svg">
<path d="M12.75 12.625C12.75 13.6605 13.5895 14.5 14.625 14.5C15.6605 14.5 16.5 13.6605 16.5 12.625C16.5 11.5895 15.6605 10.75 14.625 10.75C13.5895 10.75 12.75 11.5895 12.75 12.625ZM12.75 12.625H4.625C3.7962 12.625 3.00134 12.2958 2.41529 11.7097C1.82924 11.1237 1.5 10.3288 1.5 9.5C1.5 8.6712 1.82924 7.87634 2.41529 7.29029C3.00134 6.70424 3.7962 6.375 4.625 6.375H12.125C12.788 6.375 13.4239 6.11161 13.8928 5.64277C14.3616 5.17393 14.625 4.53804 14.625 3.875C14.625 3.21196 14.3616 2.57607 13.8928 2.10723C13.4239 1.63839 12.788 1.375 12.125 1.375H4.625" stroke="#000A14" stroke-width="1.5" stroke-linecap="round" stroke-linejoin="round"/>
</svg>