<svg width="24px" height="24px" viewBox="0 0 24 24" version="1.1" xmlns="http://www.w3.org/2000/svg" xmlns:xlink="http://www.w3.org/1999/xlink">
    <title>49521CF0-D804-4721-BCA2-52A4F063CAD3</title>
    <g id="Login" stroke="none" stroke-width="1" fill="none" fill-rule="evenodd">
        <g id="Login---SSO-options" transform="translate(-917.000000, -531.000000)" fill-rule="nonzero">
            <g id="Group-9" transform="translate(875.000000, 95.000000)">
                <g id="Group-7" transform="translate(0.000000, 232.000000)">
                    <g id="button/large-copy-4" transform="translate(0.000000, 192.000000)">
                        <g id="Group-4" transform="translate(42.000000, 12.000000)">
                            <g id="g2726" transform="translate(12.000000, 12.300000) scale(-1, 1) rotate(-180.000000) translate(-12.000000, -12.300000) translate(2.000000, 3.000000)">
                                <polygon id="path2606" fill="#F8931E" points="9.00908437 16.9793906 9.00908437 1.98510938 9.00908437 0.104390625 12.0090844 1.51635938 12.0090844 18.4449844"></polygon>
                                <path d="M9.00908438,0.104371875 L9.00908438,1.98509062 C5.58570938,2.41427812 3.00908438,4.28459062 3.00908438,6.52699687 C3.00908438,8.65268437 5.32536563,10.4428406 8.48249063,10.9893094 L8.48249063,12.8947781 C3.65342813,12.3110906 0.009084375,9.68224687 0.009084375,6.52699687 C0.009084375,3.25802812 3.92080313,0.554278125 9.00908438,0.104371875 Z M19.8127688,7.72965937 L19.398675,12.0294094 L17.8560844,11.1603719 L17.6389472,11.2905062 C16.2382348,12.0915481 14.4830781,12.6586531 12.5356781,12.8940281 L12.5356781,10.9893094 C13.7112765,10.7858455 14.7708519,10.4108515 15.6370211,9.90920502 L14.0112375,8.99190937 L19.8127688,7.72965937 Z" id="Combined-Shape" fill="#B3B3B3"></path>
                            </g>
                        </g>
                    </g>
                </g>
            </g>
        </g>
    </g>
</svg>