 <svg width="24px" height="24px" viewBox="0 0 24 24" version="1.1" xmlns="http://www.w3.org/2000/svg" xmlns:xlink="http://www.w3.org/1999/xlink">
    <g id="Login" stroke="none" stroke-width="1" fill="none" fill-rule="evenodd">
        <g id="Login---SSO-options" transform="translate(-938.000000, -595.000000)" fill-rule="nonzero">
            <g id="Group-9" transform="translate(875.000000, 95.000000)">
                <g id="Group-7" transform="translate(0.000000, 232.000000)">
                    <g id="button/large-copy-5" transform="translate(0.000000, 256.000000)">
                        <g id="Group-4" transform="translate(63.000000, 12.000000)">
                            <g id="Group-9" transform="translate(2.000000, 3.000000)">
                                <path d="M19.9804351,4.68145177 C19.7568414,4.21961857 19.4980977,3.77389568 19.1978573,3.35355912 L15.9904111,4.52083536 C16.3633926,4.90260445 16.6768143,5.33172853 16.9331171,5.79063255 L19.9804351,4.68145177 L19.9804351,4.68145177 Z M5.80210907,8.22902591 L2.59368648,9.39630199 C2.63469492,9.91086033 2.72354655,10.4190721 2.84803647,10.9170318 L5.89584265,9.80736283 C5.79673891,9.2918281 5.76158882,8.7606711 5.80210907,8.22902591" id="path44560" fill="#C22133"></path>
                                <path d="M12.9224443,3.77282165 C13.589808,4.08429071 14.1678318,4.50902102 14.6555393,5.00698071 L17.8629855,3.83970447 C16.9744692,2.59285248 15.7642319,1.55104271 14.2815814,0.859269305 C9.69595851,-1.27902816 4.22523673,0.711834183 2.08742747,5.29696899 C1.39516587,6.78059593 1.1378867,8.35649187 1.25895925,9.88259184 L4.46689364,8.71531576 C4.52010698,8.02012499 4.68951091,7.32346963 5.00049161,6.65561782 C6.38989677,3.67664708 9.94347377,2.38390469 12.9224443,3.77282165" id="path44564" fill="#DB212E"></path>
                                <path d="M16.3435719,9.63434625 C16.2923113,10.3290488 16.117049,11.0257042 15.8050919,11.6940442 C14.416175,14.673503 10.8621098,15.9662454 7.88362741,14.5773284 C7.2152874,14.2653713 6.63286985,13.8440584 6.14711506,13.3451223 L2.94601541,14.5099574 C3.83257893,15.7568094 5.04135165,16.7991073 6.52497859,17.4913689 C11.1106014,19.6291782 16.5803468,17.6383159 18.7186443,13.052693 C19.4113941,11.5700425 19.6667205,9.99414653 19.5446715,8.46951115 L16.3435719,9.63434625 L16.3435719,9.63434625 Z" id="path44572" fill="#DB212E"></path>
                                <path d="M17.1323517,5.7181843 L14.0845456,6.82736509 C14.6508526,7.84183589 14.9183839,9.00960017 14.8305087,10.1841992 L18.0316083,9.01985228 C17.9398275,7.87112764 17.6337288,6.74974196 17.1323517,5.7181843 M3.04780618,10.8438493 L1.89162792e-15,11.9540065 C0.279736175,13.0651401 0.765490965,14.1211075 1.43334278,15.0608844 L4.63395423,13.8955611 C3.81232075,13.0519588 3.26602969,11.9842746 3.04780618,10.8438493" id="path44576" fill="#EB2126"></path>
                                <path d="M19.515868,3.83643551 C19.4148115,3.67240173 19.3098494,3.51080893 19.1980525,3.3536099 L15.9906063,4.52088613 C16.1316949,4.66539208 16.261555,4.81868555 16.3855567,4.97588459 L19.515868,3.83643551 Z M5.7898534,8.87319827 C5.78204227,8.65936853 5.78544011,8.44456239 5.80203877,8.22926806 L2.59361618,9.39654414 C2.61021483,9.60207456 2.63608921,9.80614039 2.66684554,10.009718 L5.78983387,8.87319827 L5.7898534,8.87319827 Z" id="path44584" fill="#AD213B"></path>
                                <path d="M19.5444763,8.46946037 L16.3433766,9.63429548 C16.3096716,10.0951523 16.2198631,10.5569855 16.0729161,11.0110075 L19.5571693,9.74072215 C19.5820869,9.31501544 19.5781422,8.89028513 19.5444763,8.46946037 M2.94630833,14.5103948 C3.19284719,14.857502 3.46574863,15.1884987 3.76208346,15.500944 L7.24682485,14.2301704 C6.83966958,13.9753322 6.47156997,13.678021 6.14691978,13.3450715 L2.94630833,14.5103948 Z" id="path44588" fill="#BA2133"></path>
                            </g>
                        </g>
                    </g>
                </g>
            </g>
        </g>
    </g>
</svg>