<svg width="21" height="20" viewBox="0 0 21 20" fill="none" xmlns="http://www.w3.org/2000/svg">
<path d="M5.56028 4.16637C5.26739 3.87348 4.79252 3.87348 4.49962 4.16637C4.20673 4.45926 4.20673 4.93414 4.49962 5.22703L5.56028 4.16637ZM15.1062 15.8336C15.3991 16.1265 15.874 16.1265 16.1669 15.8336C16.4598 15.5407 16.4598 15.0659 16.1669 14.773L15.1062 15.8336ZM17.0833 10C17.0833 13.7279 14.0612 16.75 10.3333 16.75V18.25C14.8896 18.25 18.5833 14.5563 18.5833 10H17.0833ZM10.3333 16.75C6.60533 16.75 3.58325 13.7279 3.58325 10H2.08325C2.08325 14.5563 5.7769 18.25 10.3333 18.25V16.75ZM3.58325 10C3.58325 6.27208 6.60533 3.25 10.3333 3.25V1.75C5.7769 1.75 2.08325 5.44365 2.08325 10H3.58325ZM10.3333 3.25C14.0612 3.25 17.0833 6.27208 17.0833 10H18.5833C18.5833 5.44365 14.8896 1.75 10.3333 1.75V3.25ZM4.49962 5.22703L15.1062 15.8336L16.1669 14.773L5.56028 4.16637L4.49962 5.22703Z" fill="#0066CC"/>
</svg>
