<!--
  - Copyright (c) 2024. Devtron Inc.
  -
  - Licensed under the Apache License, Version 2.0 (the "License");
  - you may not use this file except in compliance with the License.
  - You may obtain a copy of the License at
  -
  -     http://www.apache.org/licenses/LICENSE-2.0
  -
  - Unless required by applicable law or agreed to in writing, software
  - distributed under the License is distributed on an "AS IS" BASIS,
  - WITHOUT WARRANTIES OR CONDITIONS OF ANY KIND, either express or implied.
  - See the License for the specific language governing permissions and
  - limitations under the License.
  -->

<svg width="40" height="40" viewBox="0 0 40 40" fill="none" xmlns="http://www.w3.org/2000/svg">
<rect width="40" height="40" rx="8" fill="#FFF5E5"/>
<path d="M23.9065 13.1072L26.8627 16.0634C27.5263 16.727 27.5263 17.783 26.8627 18.4163L19.1402 26.1086V15.5204L21.5535 13.1071C22.2172 12.4735 23.2729 12.4735 23.9065 13.1071V13.1072ZM29.9698 24.1479V28.3108C29.9698 29.2159 29.2157 29.97 28.3106 29.97L17.9034 29.9698L25.3845 22.4887H28.3106C29.2459 22.4887 29.9698 23.2428 29.9698 24.1478V24.1479ZM10 26.2595V11.6592C10 10.7541 10.7541 10 11.6592 10H15.8221C16.7271 10 17.4813 10.7541 17.4813 11.6592V26.2293V26.2594C17.4813 28.3106 15.7921 30 13.7407 30C11.6893 30 10.0001 28.3106 10.0001 26.2594L10 26.2595ZM13.7405 27.8883C14.6455 27.8883 15.3996 27.1342 15.3996 26.2291C15.3996 25.3241 14.6455 24.57 13.7405 24.57C12.8354 24.57 12.0813 25.3241 12.0813 26.2291C12.0815 27.1644 12.8053 27.8883 13.7405 27.8883Z" fill="#FFB549"/>
</svg>
