<!--
  - Copyright (c) 2024. Devtron Inc.
  -
  - Licensed under the Apache License, Version 2.0 (the "License");
  - you may not use this file except in compliance with the License.
  - You may obtain a copy of the License at
  -
  -     http://www.apache.org/licenses/LICENSE-2.0
  -
  - Unless required by applicable law or agreed to in writing, software
  - distributed under the License is distributed on an "AS IS" BASIS,
  - WITHOUT WARRANTIES OR CONDITIONS OF ANY KIND, either express or implied.
  - See the License for the specific language governing permissions and
  - limitations under the License.
  -->

<svg width="24" height="24" viewBox="0 0 24 24" fill="none" xmlns="http://www.w3.org/2000/svg">
<path d="M15.5347 5.79647L18.1993 8.45705C18.7975 9.05434 18.7975 10.0047 18.1993 10.5747L11.2386 17.4978V7.96837L13.4139 5.79638C14.0121 5.22614 14.9636 5.22614 15.5347 5.79638V5.79647ZM21 15.7331V19.4798C21 20.2943 20.3202 20.973 19.5045 20.973L10.1238 20.9728L16.867 14.2398H19.5045C20.3475 14.2398 21 14.9185 21 15.7331V15.7331ZM3 17.6335V4.49326C3 3.67873 3.67976 3 4.49552 3H8.24783C9.06359 3 9.74335 3.67873 9.74335 4.49326V17.6064V17.6334C9.74335 19.4795 8.22074 21 6.3717 21C4.52266 21 3.00005 19.4795 3.00005 17.6334L3 17.6335ZM6.3715 19.0995C7.18726 19.0995 7.86702 18.4207 7.86702 17.6062C7.86702 16.7917 7.18726 16.113 6.3715 16.113C5.55575 16.113 4.87599 16.7917 4.87599 17.6062C4.87618 18.448 5.5286 19.0995 6.3715 19.0995Z" fill="#FFB549"/>
</svg>
