<!--
  - Copyright (c) 2024. Devtron Inc.
  -
  - Licensed under the Apache License, Version 2.0 (the "License");
  - you may not use this file except in compliance with the License.
  - You may obtain a copy of the License at
  -
  -     http://www.apache.org/licenses/LICENSE-2.0
  -
  - Unless required by applicable law or agreed to in writing, software
  - distributed under the License is distributed on an "AS IS" BASIS,
  - WITHOUT WARRANTIES OR CONDITIONS OF ANY KIND, either express or implied.
  - See the License for the specific language governing permissions and
  - limitations under the License.
  -->

<svg width="24" height="24" viewBox="0 0 24 24" fill="none" xmlns="http://www.w3.org/2000/svg">
<path d="M20.3889 11.36L6.8911 3.11108C6.77741 3.0416 6.64726 3.00366 6.51404 3.00117C6.38083 2.99867 6.24935 3.03171 6.13314 3.09689C6.01692 3.16206 5.92017 3.25702 5.85283 3.37199C5.7855 3.48696 5.75 3.6178 5.75 3.75104V20.2489C5.75 20.3821 5.7855 20.513 5.85283 20.628C5.92017 20.7429 6.01692 20.8379 6.13314 20.9031C6.24935 20.9682 6.38083 21.0013 6.51404 20.9988C6.64726 20.9963 6.77741 20.9583 6.8911 20.8889L20.3889 12.6399C20.4985 12.5729 20.5891 12.4789 20.652 12.3668C20.7148 12.2548 20.7478 12.1285 20.7478 12C20.7478 11.8715 20.7148 11.7452 20.652 11.6331C20.5891 11.5211 20.4985 11.427 20.3889 11.36Z" fill="#596168"/>
</svg>
