<svg width="24" height="24" viewBox="0 0 24 24" fill="none" xmlns="http://www.w3.org/2000/svg">
<g clip-path="url(#clip0_382_974)">
<path d="M17.6355 3.00122L21.9758 12.182L17.6355 21.3631H13.9406L18.2809 12.182L13.9407 3.00122H17.6356H17.6355ZM10.6 10.8009L12.1669 7.82497L11.988 7.13216L10.0349 3.00122H6.34L10.1406 11.0401L10.6 10.8009ZM11.988 16.616L10.6339 13.5665L10.1406 13.3242L6.34 21.3631H10.0349L11.9881 17.2318V16.616H11.988Z" fill="#40B4E5"/>
<path d="M13.9408 21.363L9.60055 12.1819L13.9408 3.0011H17.6357L13.2955 12.1819L17.6357 21.363H13.9408ZM6.34023 21.363L2 12.1819L6.34023 3.0011H10.0352L5.69492 12.1819L10.0352 21.363H6.34023Z" fill="#003764"/>
</g>
<defs>
<clipPath id="clip0_382_974">
<rect width="20" height="18.44" fill="white" transform="translate(2 3)"/>
</clipPath>
</defs>
</svg>
