<!--
  - Copyright (c) 2024. Devtron Inc.
  -
  - Licensed under the Apache License, Version 2.0 (the "License");
  - you may not use this file except in compliance with the License.
  - You may obtain a copy of the License at
  -
  -     http://www.apache.org/licenses/LICENSE-2.0
  -
  - Unless required by applicable law or agreed to in writing, software
  - distributed under the License is distributed on an "AS IS" BASIS,
  - WITHOUT WARRANTIES OR CONDITIONS OF ANY KIND, either express or implied.
  - See the License for the specific language governing permissions and
  - limitations under the License.
  -->

<svg width="16" height="16" viewBox="0 0 16 16" fill="none" xmlns="http://www.w3.org/2000/svg">
<path d="M6.03954 6.85091L9.9544 4.62758C9.92454 4.57652 9.88164 4.53433 9.83009 4.50533L6.16342 2.44283C6.11353 2.41477 6.05725 2.40002 6 2.40002C5.94275 2.40002 5.88647 2.41477 5.83658 2.44283L2.16991 4.50533C2.11836 4.53433 2.07546 4.57652 2.0456 4.62758C2.01574 4.67863 2 4.73671 2 4.79586L2 8.90596C2 8.96511 2.01574 9.02319 2.0456 9.07424C2.07546 9.1253 2.11836 9.16749 2.16991 9.19648L5.83658 11.259C5.88647 11.287 5.94275 11.3018 6 11.3018L6.03954 6.85091ZM6.03954 6.85091L2.04617 4.62662M13.9544 6.89424C13.9843 6.9453 14 7.00338 14 7.06253V11.1726C14 11.2318 13.9843 11.2899 13.9544 11.3409C13.9245 11.392 13.8816 11.4342 13.8301 11.4632L10.1634 13.5257C10.1135 13.5537 10.0572 13.5685 10 13.5685M13.9544 6.89424C13.9245 6.84319 13.8816 6.801 13.8301 6.772L10.1634 4.7095C10.1135 4.68144 10.0572 4.66669 10 4.66669C9.94275 4.66669 9.88647 4.68144 9.83658 4.7095L6.16991 6.772C6.11836 6.801 6.07546 6.84319 6.0456 6.89424C6.01574 6.9453 6 7.00338 6 7.06253V11.1726C6 11.2318 6.01574 11.2899 6.0456 11.3409C6.07546 11.392 6.11836 11.4342 6.16991 11.4632L9.83658 13.5257C9.88647 13.5537 9.94275 13.5685 10 13.5685M13.9544 6.89424L10.0395 9.11758M10 13.5685L10.0395 9.11758M10.0395 9.11758L6.04617 6.89328" stroke="#fff" stroke-width="1.5" stroke-linecap="round" stroke-linejoin="round"/>
</svg>
