<svg xmlns="http://www.w3.org/2000/svg" width="48" height="48" fill="none" viewBox="0 0 48 48">
  <path stroke="#3B444C" stroke-linecap="round" stroke-linejoin="round" stroke-width="2" d="m32.412 27.238-3.39 10.479 10.479 3.39M32.049 8.223c3.109 1.005 5.892 2.779 7.998 5.096 2.105 2.318 3.439 5.075 3.832 7.923.392 2.848-.173 5.66-1.625 8.078-1.453 2.419-3.727 4.336-6.535 5.51l-6.693 2.8" vector-effect="non-scaling-stroke"/>
  <path fill="#06C" fill-opacity=".2" stroke="#06C" stroke-width="2" d="M4 21.554c0-1.227.995-2.222 2.222-2.222h13.334c1.227 0 2.222.995 2.222 2.222V26a2.222 2.222 0 0 1-2.222 2.222H6.222A2.222 2.222 0 0 1 4 25.999v-4.445ZM4 8.222C4 6.995 4.995 6 6.222 6h13.334c1.227 0 2.222.995 2.222 2.222v4.445a2.222 2.222 0 0 1-2.222 2.222H6.222A2.222 2.222 0 0 1 4 12.667V8.222ZM4 34.89c0-1.227.995-2.222 2.222-2.222h13.334c1.227 0 2.222.995 2.222 2.222v4.445a2.222 2.222 0 0 1-2.222 2.222H6.222A2.222 2.222 0 0 1 4 39.335V34.89Z" vector-effect="non-scaling-stroke"/>
</svg>
