<!--
  - Copyright (c) 2024. Devtron Inc.
  -
  - Licensed under the Apache License, Version 2.0 (the "License");
  - you may not use this file except in compliance with the License.
  - You may obtain a copy of the License at
  -
  -     http://www.apache.org/licenses/LICENSE-2.0
  -
  - Unless required by applicable law or agreed to in writing, software
  - distributed under the License is distributed on an "AS IS" BASIS,
  - WITHOUT WARRANTIES OR CONDITIONS OF ANY KIND, either express or implied.
  - See the License for the specific language governing permissions and
  - limitations under the License.
  -->

<svg xmlns="http://www.w3.org/2000/svg" xmlns:xlink="http://www.w3.org/1999/xlink" width="20" height="20" viewBox="0 0 20 20">
    <defs>
        <path id="prefix__a" d="M12.333.667c.221 0 .433.087.59.244l4.166 4.166c.157.157.244.369.244.59v9.166c0 1.381-1.119 2.5-2.5 2.5H3.167c-1.381 0-2.5-1.119-2.5-2.5V3.167c0-1.381 1.119-2.5 2.5-2.5zm-.345 1.666H5.666v2.5H11.5c.427 0 .78.322.828.736l.005.098c0 .427-.321.78-.736.827L11.5 6.5H4.833c-.427 0-.78-.322-.827-.736L4 5.667V2.333h-.833c-.425 0-.776.318-.827.73l-.007.104v11.666c0 .46.373.834.834.834L4 15.666V9.833c0-.427.322-.78.736-.827L4.833 9h8.334c.427 0 .78.322.827.736l.006.097v5.833h.833c.425 0 .776-.317.827-.728l.007-.105v-8.82l-3.68-3.68zm.345 8.334H5.667l-.001 4.999h6.667v-5z"/>
    </defs>
    <g fill="none" fill-rule="evenodd" transform="translate(1 1)">
        <mask id="prefix__b" fill="#fff">
            <use xlink:href="#prefix__a"/>
        </mask>
        <use fill="#000" fill-rule="nonzero" xlink:href="#prefix__a"/>
        <path fill="#3B444C" d="M-1 -1H19V19H-1z" mask="url(#prefix__b)"/>
    </g>
</svg>
