<!--
  - Copyright (c) 2024. Devtron Inc.
  -
  - Licensed under the Apache License, Version 2.0 (the "License");
  - you may not use this file except in compliance with the License.
  - You may obtain a copy of the License at
  -
  -     http://www.apache.org/licenses/LICENSE-2.0
  -
  - Unless required by applicable law or agreed to in writing, software
  - distributed under the License is distributed on an "AS IS" BASIS,
  - WITHOUT WARRANTIES OR CONDITIONS OF ANY KIND, either express or implied.
  - See the License for the specific language governing permissions and
  - limitations under the License.
  -->

<svg width="12" height="12" viewBox="0 0 12 12" fill="none" xmlns="http://www.w3.org/2000/svg">
<path d="M8.20711 9.70711C8.59763 9.31658 8.59763 8.68342 8.20711 8.29289C7.81658 7.90237 7.18342 7.90237 6.79289 8.29289L8.20711 9.70711ZM6 10.5L5.29289 11.2071C5.68342 11.5976 6.31658 11.5976 6.70711 11.2071L6 10.5ZM5.20711 8.29289C4.81658 7.90237 4.18342 7.90237 3.79289 8.29289C3.40237 8.68342 3.40237 9.31658 3.79289 9.70711L5.20711 8.29289ZM7 1.5C7 0.947715 6.55228 0.5 6 0.5C5.44772 0.5 5 0.947715 5 1.5H7ZM6.79289 8.29289L5.29289 9.79289L6.70711 11.2071L8.20711 9.70711L6.79289 8.29289ZM6.70711 9.79289L5.20711 8.29289L3.79289 9.70711L5.29289 11.2071L6.70711 9.79289ZM5 1.5V10.5H7V1.5H5Z" fill="#596168"/>
</svg>
