<svg width="18" height="18" viewBox="0 0 18 18" fill="none" xmlns="http://www.w3.org/2000/svg">
<path d="M6.27886 8.59616C5.79706 7.39441 5.74497 6.06317 6.13139 4.82746C6.51781 3.59175 7.31905 2.52735 8.39965 1.81419C9.48026 1.10103 10.774 0.782851 12.0621 0.91343C13.3502 1.04401 14.5537 1.61534 15.4693 2.53085C16.3848 3.44636 16.9561 4.64989 17.0867 5.93802C17.2172 7.22614 16.8991 8.51984 16.1859 9.60045C15.4727 10.6811 14.4083 11.4823 13.1726 11.8687C11.9369 12.2551 10.6057 12.203 9.40392 11.7212L9.40397 11.7211L8.37524 12.7498H6.50024V14.6248H4.62524V16.4998H1.50024V13.3748L6.27899 8.59609L6.27886 8.59616Z" stroke="#3B444C" stroke-width="1.5" stroke-linecap="round" stroke-linejoin="round"/>
</svg>
