<svg xmlns="http://www.w3.org/2000/svg" width="20" height="20" viewBox="0 0 20 20">
    <g fill="none" fill-rule="evenodd">
        <path fill="#3B444C" d="M6.707 13.374l2.586 2.586c.39.39 1.024.39 1.414 0l2.586-2.586c.39-.39.39-1.024 0-1.414-.188-.188-.442-.293-.707-.293H7.414c-.552 0-1 .447-1 1 0 .265.106.52.293.707z"/>
        <path fill="#959BA1" d="M6.707 6.626L9.293 4.04c.39-.39 1.024-.39 1.414 0l2.586 2.586c.39.39.39 1.024 0 1.414-.188.188-.442.293-.707.293H7.414c-.552 0-1-.447-1-1 0-.265.106-.52.293-.707z"/>
    </g>
</svg>
