<!--
  - Copyright (c) 2024. Devtron Inc.
  -
  - Licensed under the Apache License, Version 2.0 (the "License");
  - you may not use this file except in compliance with the License.
  - You may obtain a copy of the License at
  -
  -     http://www.apache.org/licenses/LICENSE-2.0
  -
  - Unless required by applicable law or agreed to in writing, software
  - distributed under the License is distributed on an "AS IS" BASIS,
  - WITHOUT WARRANTIES OR CONDITIONS OF ANY KIND, either express or implied.
  - See the License for the specific language governing permissions and
  - limitations under the License.
  -->

<svg width="40" height="40" viewBox="0 0 40 40" fill="none" xmlns="http://www.w3.org/2000/svg">
<rect width="40" height="40" rx="8" fill="#F3F0FF"/>
<path fill-rule="evenodd" clip-rule="evenodd" d="M27.2544 12.2209L25.3524 14.12C25.1114 14.3617 25.1114 14.7519 25.3524 14.9937L26.7668 16.4059C27.009 16.6465 27.3997 16.6465 27.6419 16.4059L29.5439 14.5057C29.6737 14.376 29.8961 14.4365 29.9445 14.6134C30.3055 15.9432 29.9632 17.4235 28.9176 18.4676C27.7794 19.6039 26.124 19.9073 24.7085 19.3797L16.4753 28.3695C15.6311 29.2927 14.1859 29.3256 13.2998 28.4398C12.4094 27.5519 12.4468 26.099 13.3813 25.2583L22.4048 17.1323C21.8324 15.7014 22.1263 14.0046 23.2875 12.8462C24.3332 11.8022 25.8158 11.4615 27.1476 11.8209C27.3249 11.8692 27.3854 12.0912 27.2555 12.2209H27.2544ZM14.242 26.8727C14.242 27.2353 14.537 27.531 14.9002 27.531C15.2635 27.531 15.5595 27.2364 15.5595 26.8727C15.5595 26.51 15.2646 26.2155 14.9002 26.2155C14.537 26.2155 14.242 26.51 14.242 26.8727Z" fill="#8898A6"/>
<path fill-rule="evenodd" clip-rule="evenodd" d="M15.1003 17.5101L17.3567 15.2573L28.253 26.1367C28.6826 26.5657 28.6826 27.262 28.253 27.6909L27.5533 28.3896C27.1236 28.8185 26.4263 28.8185 25.9966 28.3896L15.1003 17.5101V17.5101Z" fill="#F4910D"/>
<path fill-rule="evenodd" clip-rule="evenodd" d="M13.4114 19.9005L14.0433 19.2694L14.1033 18.8475C14.1546 18.4916 14.4854 18.2437 14.8411 18.2942C14.8901 18.3012 14.9376 18.3128 14.9828 18.3315L17.8033 15.5152L17.6913 14.6262C17.6142 14.0038 17.8275 13.379 18.2727 12.9345C18.7241 12.4838 19.3358 12.2304 19.974 12.2304L21.094 12.2312C19.3312 10.4711 17.6656 10.3731 16.0988 11.9375L12.219 15.8113C11.9964 16.0336 11.6897 16.1501 11.3761 16.1323L10.871 16.102L10.239 16.733C9.80934 17.1619 9.80934 17.8582 10.239 18.2872L11.8547 19.9005C12.2844 20.3294 12.9817 20.3294 13.4114 19.9005Z" fill="#66757F"/>
<path fill-rule="evenodd" clip-rule="evenodd" d="M18.3548 25.613C18.3548 26.152 18.5689 26.6689 18.95 27.05C19.3311 27.4311 19.848 27.6452 20.387 27.6452H22.645C23.0191 27.6452 23.3224 27.9485 23.3224 28.3226C23.3224 28.6967 23.0191 29 22.645 29H20.387C19.4887 29 18.6272 28.6432 17.992 28.008C17.3568 27.3728 17 26.5113 17 25.613C17 24.7147 17.3568 23.8532 17.992 23.218C18.6272 22.5828 19.4887 22.226 20.387 22.226H22.645C23.0191 22.226 23.3224 22.5293 23.3224 22.9034C23.3224 23.2775 23.0191 23.5808 22.645 23.5808H20.387C19.848 23.5808 19.3311 23.7949 18.95 24.176C18.5689 24.5571 18.3548 25.074 18.3548 25.613ZM20.6132 25.6128C20.6132 25.2387 20.9165 24.9354 21.2906 24.9354H26.7098C27.0839 24.9354 27.3872 25.2387 27.3872 25.6128C27.3872 25.9869 27.0839 26.2902 26.7098 26.2902H21.2906C20.9165 26.2902 20.6132 25.9869 20.6132 25.6128ZM24.6776 28.3226C24.6776 27.9485 24.9809 27.6452 25.355 27.6452H27.613C28.152 27.6452 28.6689 27.4311 29.05 27.05C29.4311 26.6689 29.6452 26.152 29.6452 25.613C29.6452 25.074 29.4311 24.5571 29.05 24.176C28.6689 23.7949 28.152 23.5808 27.613 23.5808H25.355C24.9809 23.5808 24.6776 23.2775 24.6776 22.9034C24.6776 22.5293 24.9809 22.226 25.355 22.226H27.613C28.5113 22.226 29.3728 22.5828 30.008 23.218C30.6432 23.8532 31 24.7147 31 25.613C31 26.5113 30.6432 27.3728 30.008 28.008C29.3728 28.6432 28.5113 29 27.613 29H25.355C24.9809 29 24.6776 28.6967 24.6776 28.3226Z" fill="#664BEE"/>
<path fill-rule="evenodd" clip-rule="evenodd" d="M20.8717 26.1452C20.987 26.236 21.1325 26.2902 21.2906 26.2902H26.7098C26.8679 26.2902 27.0134 26.236 27.1286 26.1452C27.2861 26.0212 27.3872 25.8288 27.3872 25.6128C27.3872 25.397 27.2863 25.2048 27.1292 25.0808C27.0139 24.9897 26.8682 24.9354 26.7098 24.9354H21.2906C21.1322 24.9354 20.9865 24.9897 20.8712 25.0808C20.714 25.2048 20.6132 25.397 20.6132 25.6128C20.6132 25.8288 20.7143 26.0212 20.8717 26.1452ZM24.9356 23.4354C25.0509 23.5264 25.1966 23.5808 25.355 23.5808H27.613C28.152 23.5808 28.6689 23.7949 29.05 24.176C29.4311 24.5571 29.6452 25.074 29.6452 25.613C29.6452 26.152 29.4311 26.6689 29.05 27.05C28.6689 27.4311 28.152 27.6452 27.613 27.6452H25.355C25.1969 27.6452 25.0514 27.6994 24.9361 27.7902C24.8796 27.8347 24.8303 27.8881 24.7903 27.9482C24.7191 28.0555 24.6776 28.1842 24.6776 28.3226C24.6776 28.461 24.7191 28.5897 24.7903 28.697C24.9117 28.8796 25.1193 29 25.355 29H27.613C28.5113 29 29.3728 28.6432 30.008 28.008C30.6432 27.3728 31 26.5113 31 25.613C31 24.7147 30.6432 23.8532 30.008 23.218C29.3728 22.5828 28.5113 22.226 27.613 22.226H25.355C25.1193 22.226 24.9117 22.3464 24.7903 22.529C24.7191 22.6363 24.6776 22.765 24.6776 22.9034C24.6776 23.0418 24.7191 23.1705 24.7903 23.2777C24.8302 23.3377 24.8793 23.3909 24.9356 23.4354ZM24 21.1989C23.6281 20.9029 23.1572 20.726 22.645 20.726H20.387C19.0909 20.726 17.8479 21.2409 16.9314 22.1574C16.0149 23.0739 15.5 24.3169 15.5 25.613C15.5 26.9091 16.0149 28.1521 16.9314 29.0686C17.8479 29.9851 19.0909 30.5 20.387 30.5H22.645C23.1572 30.5 23.6281 30.3231 24 30.0271C24.3719 30.3231 24.8428 30.5 25.355 30.5H27.613C28.9091 30.5 30.1521 29.9851 31.0686 29.0686C31.9851 28.1521 32.5 26.9091 32.5 25.613C32.5 24.3169 31.9851 23.0739 31.0686 22.1574C30.1521 21.2409 28.9091 20.726 27.613 20.726H25.355C24.8428 20.726 24.3719 20.9029 24 21.1989ZM23.2097 22.529C23.0883 22.3464 22.8807 22.226 22.645 22.226H20.387C19.4887 22.226 18.6272 22.5828 17.992 23.218C17.3568 23.8532 17 24.7147 17 25.613C17 26.5113 17.3568 27.3728 17.992 28.008C18.6272 28.6432 19.4887 29 20.387 29H22.645C22.8807 29 23.0883 28.8796 23.2097 28.697C23.2809 28.5897 23.3224 28.461 23.3224 28.3226C23.3224 28.1842 23.2809 28.0555 23.2097 27.9482C23.1697 27.8881 23.1204 27.8347 23.0639 27.7902C22.9486 27.6994 22.8031 27.6452 22.645 27.6452H20.387C19.848 27.6452 19.3311 27.4311 18.95 27.05C18.5689 26.6689 18.3548 26.152 18.3548 25.613C18.3548 25.074 18.5689 24.5571 18.95 24.176C19.3311 23.7949 19.848 23.5808 20.387 23.5808H22.645C22.8034 23.5808 22.9491 23.5264 23.0644 23.4354C23.1207 23.3909 23.1698 23.3377 23.2097 23.2777C23.2809 23.1705 23.3224 23.0418 23.3224 22.9034C23.3224 22.765 23.2809 22.6363 23.2097 22.529Z" fill="#F3F0FF"/>
</svg>