<svg width="20" height="20" viewBox="0 0 20 20" fill="none" xmlns="http://www.w3.org/2000/svg">
<g id="Icon/ic-shield-protect-fill">
<g id="Group 1498">
<path id="Vector" d="M3.3335 5.35784V8.4697C3.3335 14.9552 8.73547 17.1039 9.81409 17.4683C9.93467 17.5106 10.0657 17.5106 10.1862 17.4683C11.2649 17.1039 16.6668 14.9552 16.6668 8.4697V5.35785C16.6668 5.00343 16.4443 4.68877 16.1143 4.57669L10.0002 2.5L3.88604 4.57669C3.55607 4.68877 3.3335 5.00343 3.3335 5.35784Z" fill="#664BEE" stroke="#664BEE" stroke-width="1.5" stroke-linecap="round" stroke-linejoin="round"/>
<g id="Vector_2">
<path d="M10 11.6666C11.3807 11.6666 12.5 10.5473 12.5 9.16663C12.5 7.78591 11.3807 6.66663 10 6.66663C8.61929 6.66663 7.5 7.78591 7.5 9.16663C7.5 10.5473 8.61929 11.6666 10 11.6666Z" fill="#664BEE"/>
<path d="M10 11.6666C11.3807 11.6666 12.5 10.5473 12.5 9.16663C12.5 7.78591 11.3807 6.66663 10 6.66663C8.61929 6.66663 7.5 7.78591 7.5 9.16663C7.5 10.5473 8.61929 11.6666 10 11.6666ZM10 11.6666V13.3333" stroke="white" stroke-width="1.5" stroke-linecap="round"/>
</g>
</g>
</g>
</svg>
