<!--
  - Copyright (c) 2024. Devtron Inc.
  -
  - Licensed under the Apache License, Version 2.0 (the "License");
  - you may not use this file except in compliance with the License.
  - You may obtain a copy of the License at
  -
  -     http://www.apache.org/licenses/LICENSE-2.0
  -
  - Unless required by applicable law or agreed to in writing, software
  - distributed under the License is distributed on an "AS IS" BASIS,
  - WITHOUT WARRANTIES OR CONDITIONS OF ANY KIND, either express or implied.
  - See the License for the specific language governing permissions and
  - limitations under the License.
  -->

<!--
  - Copyright (c) 2024. Devtron Inc.
  -->

<svg xmlns="http://www.w3.org/2000/svg" width="24" height="24" fill="none" viewBox="0 0 24 24">
  <path stroke="#3B444C" stroke-linecap="round" stroke-linejoin="round" stroke-width="1.5" d="M4 22h16M5 18h14a1 1 0 0 0 1-1v-3a1 1 0 0 0-1-1H5a1 1 0 0 0-1 1v3a1 1 0 0 0 1 1Zm8.5-5 1.945-8.557A2 2 0 0 0 13.495 2h-2.99a2 2 0 0 0-1.95 2.443L10.5 13h3Z" vector-effect="non-scaling-stroke"/>
</svg>
