<!--
  - Copyright (c) 2024. Devtron Inc.
  -
  - Licensed under the Apache License, Version 2.0 (the "License");
  - you may not use this file except in compliance with the License.
  - You may obtain a copy of the License at
  -
  -     http://www.apache.org/licenses/LICENSE-2.0
  -
  - Unless required by applicable law or agreed to in writing, software
  - distributed under the License is distributed on an "AS IS" BASIS,
  - WITHOUT WARRANTIES OR CONDITIONS OF ANY KIND, either express or implied.
  - See the License for the specific language governing permissions and
  - limitations under the License.
  -->

<svg xmlns="http://www.w3.org/2000/svg" width="20" height="20" viewBox="0 0 20 20" fill="none">
  <path fill-rule="evenodd" clip-rule="evenodd" d="M14.1379 7.55501L19.0817 9.38501C19.1886 9.42393 19.2808 9.49476 19.3461 9.58789C19.4113 9.68102 19.4463 9.79195 19.4464 9.90565C19.4464 10.0193 19.4115 10.1303 19.3464 10.2235C19.2813 10.3167 19.1891 10.3876 19.0823 10.4267L14.1401 12.2561L12.2934 18.4911C12.2595 18.6061 12.1893 18.707 12.0933 18.7788C11.9973 18.8506 11.8807 18.8894 11.7608 18.8895C11.641 18.8896 11.5243 18.8509 11.4282 18.7792C11.3322 18.7075 11.2619 18.6066 11.2279 18.4917L9.38118 12.2567L4.43952 10.4272C4.33301 10.3879 4.24113 10.3168 4.17623 10.2237C4.11133 10.1305 4.07654 10.0197 4.07654 9.90612C4.07654 9.79257 4.11133 9.68175 4.17623 9.58858C4.24113 9.49541 4.33301 9.42437 4.43952 9.38501L9.38396 7.55501L11.2295 1.50445C11.2644 1.3908 11.3348 1.29134 11.4304 1.22067C11.526 1.15001 11.6417 1.11188 11.7606 1.11188C11.8795 1.11188 11.9953 1.15001 12.0909 1.22067C12.1865 1.29134 12.2569 1.3908 12.2917 1.50445L14.1379 7.55501ZM6.68507 15.0211L7.97062 15.4967C8.07748 15.5355 8.1698 15.6063 8.23503 15.6994C8.30027 15.7926 8.33526 15.9035 8.33526 16.0172C8.33526 16.1309 8.30027 16.2419 8.23503 16.335C8.1698 16.4281 8.07748 16.4989 7.97062 16.5378L6.69229 17.0117L6.1884 19.0239C6.15836 19.144 6.08903 19.2507 5.99143 19.3269C5.89384 19.4032 5.77357 19.4446 5.64973 19.4447C5.52589 19.4447 5.40557 19.4034 5.3079 19.3273C5.21023 19.2511 5.14079 19.1446 5.11062 19.0244L4.60673 17.0122L3.3284 16.5383C3.22189 16.499 3.13001 16.4279 3.06511 16.3348C3.00021 16.2416 2.96542 16.1308 2.96542 16.0172C2.96542 15.9037 3.00021 15.7929 3.06511 15.6997C3.13001 15.6065 3.22189 15.5355 3.3284 15.4961L4.6134 15.0206L5.1134 13.1872C5.14487 13.0691 5.21449 12.9647 5.31143 12.8902C5.40837 12.8158 5.52721 12.7754 5.64945 12.7755C5.77169 12.7756 5.89048 12.816 5.98734 12.8906C6.08421 12.9651 6.15372 13.0696 6.18507 13.1878L6.68507 15.0211ZM4.24729 2.97556L5.56062 3.46167C5.66713 3.50103 5.75902 3.57208 5.82391 3.66525C5.88881 3.75842 5.9236 3.86924 5.9236 3.98278C5.9236 4.09633 5.88881 4.20715 5.82391 4.30032C5.75902 4.39349 5.66713 4.46453 5.56062 4.50389L4.24673 4.99L3.76062 6.30389C3.72126 6.4104 3.65022 6.50229 3.55705 6.56718C3.46387 6.63208 3.35306 6.66687 3.23951 6.66687C3.12597 6.66687 3.01515 6.63208 2.92198 6.56718C2.82881 6.50229 2.75776 6.4104 2.7184 6.30389L2.23229 4.99L0.9184 4.50389C0.811895 4.46453 0.720007 4.39349 0.655109 4.30032C0.590211 4.20715 0.55542 4.09633 0.55542 3.98278C0.55542 3.86924 0.590211 3.75842 0.655109 3.66525C0.720007 3.57208 0.811895 3.50103 0.9184 3.46167L2.23229 2.97556L2.7184 1.66167C2.75752 1.55492 2.82848 1.46277 2.92168 1.39766C3.01488 1.33255 3.12582 1.29764 3.23951 1.29764C3.3532 1.29764 3.46415 1.33255 3.55735 1.39766C3.65055 1.46277 3.7215 1.55492 3.76062 1.66167L4.24729 2.97556Z" fill="url(#paint0_linear_447_3751)"/>
  <defs>
    <linearGradient id="paint0_linear_447_3751" x1="1.00006" y1="1" x2="21.1763" y2="3.90975" gradientUnits="userSpaceOnUse">
      <stop stop-color="#FFAF7B"/>
      <stop offset="0.499527" stop-color="#D76D77"/>
      <stop offset="1" stop-color="#3A1C71"/>
    </linearGradient>
  </defs>
</svg>
