<svg xmlns="http://www.w3.org/2000/svg" viewBox="0 0 16 16">
    <path fill="#3B444C" fill-rule="evenodd" d="M8 11.333c.736 0 1.333.597 1.333 1.334C9.333 13.403 8.736 14 8 14s-1.333-.597-1.333-1.333c0-.737.597-1.334 1.333-1.334zm.281-1.395l-.054.022c-.026.01-.052.017-.078.023-.018.004-.036.008-.054.01l-.021.003C8.05 9.999 8.024 10 8 10c-.038 0-.075-.003-.11-.01l-.033-.005c-.024-.006-.046-.012-.069-.02-.009-.002-.018-.006-.027-.01-.023-.008-.046-.018-.067-.03l-.031-.016c-.019-.011-.036-.023-.054-.035l-.018-.014-.027-.023-.016-.014-.02-.018-2.666-2.667c-.26-.26-.26-.682 0-.943.24-.24.618-.259.88-.055l.063.055 1.528 1.528V2.667C7.333 2.298 7.632 2 8 2c.342 0 .624.257.662.589l.005.078v5.056l1.528-1.528c.24-.24.619-.259.88-.055l.063.055c.24.24.259.619.056.88l-.056.063-2.667 2.667-.012.012c-.017.016-.034.03-.053.045l.065-.057c-.029.029-.06.055-.093.078-.02.013-.04.026-.062.038l-.022.011-.013.006z"/>
</svg>
