<!--
  - Copyright (c) 2024. Devtron Inc.
  -
  - Licensed under the Apache License, Version 2.0 (the "License");
  - you may not use this file except in compliance with the License.
  - You may obtain a copy of the License at
  -
  -     http://www.apache.org/licenses/LICENSE-2.0
  -
  - Unless required by applicable law or agreed to in writing, software
  - distributed under the License is distributed on an "AS IS" BASIS,
  - WITHOUT WARRANTIES OR CONDITIONS OF ANY KIND, either express or implied.
  - See the License for the specific language governing permissions and
  - limitations under the License.
  -->

<svg width="24" height="24" viewBox="0 0 24 24" fill="none" xmlns="http://www.w3.org/2000/svg">
<path fill-rule="evenodd" clip-rule="evenodd" d="M4 10.1636V6.42941C4 6.00411 4.26708 5.62652 4.66305 5.49203L12 3L19.3369 5.49203C19.7329 5.62652 20 6.00411 20 6.42941V10.1636C20 17.9462 13.5176 20.5247 12.2233 20.9619C12.0786 21.0127 11.9214 21.0127 11.7767 20.9619C10.4824 20.5247 4 17.9462 4 10.1636ZM10.1251 11C10.1251 9.96448 10.9645 9.12502 12.0001 9.12502C13.0356 9.12502 13.8751 9.96448 13.8751 11C13.8751 12.0355 13.0356 12.875 12.0001 12.875C10.9645 12.875 10.1251 12.0355 10.1251 11ZM12.0001 6.87502C9.72189 6.87502 7.87506 8.72184 7.87506 11C7.87506 12.8882 9.14368 14.48 10.8751 14.9697V16C10.8751 16.6213 11.3787 17.125 12.0001 17.125C12.6214 17.125 13.1251 16.6213 13.1251 16V14.9697C14.8564 14.48 16.1251 12.8882 16.1251 11C16.1251 8.72184 14.2782 6.87502 12.0001 6.87502Z" fill="#596168"/>
</svg>
