<svg width="16" height="16" viewBox="0 0 16 16" fill="none" xmlns="http://www.w3.org/2000/svg">
<path d="M7.53033 12.5303C7.82322 12.2374 7.82322 11.7626 7.53033 11.4697C7.23744 11.1768 6.76256 11.1768 6.46967 11.4697L7.53033 12.5303ZM5 14L4.46967 14.5303C4.76256 14.8232 5.23744 14.8232 5.53033 14.5303L5 14ZM3.53033 11.4697C3.23744 11.1768 2.76256 11.1768 2.46967 11.4697C2.17678 11.7626 2.17678 12.2374 2.46967 12.5303L3.53033 11.4697ZM5.75 6C5.75 5.58579 5.41421 5.25 5 5.25C4.58579 5.25 4.25 5.58579 4.25 6H5.75ZM8.46967 3.46967C8.17678 3.76256 8.17678 4.23744 8.46967 4.53033C8.76256 4.82322 9.23744 4.82322 9.53033 4.53033L8.46967 3.46967ZM11 2L11.5303 1.46967C11.2374 1.17678 10.7626 1.17678 10.4697 1.46967L11 2ZM12.4697 4.53033C12.7626 4.82322 13.2374 4.82322 13.5303 4.53033C13.8232 4.23744 13.8232 3.76256 13.5303 3.46967L12.4697 4.53033ZM10.25 10C10.25 10.4142 10.5858 10.75 11 10.75C11.4142 10.75 11.75 10.4142 11.75 10H10.25ZM6.46967 11.4697L4.46967 13.4697L5.53033 14.5303L7.53033 12.5303L6.46967 11.4697ZM5.53033 13.4697L3.53033 11.4697L2.46967 12.5303L4.46967 14.5303L5.53033 13.4697ZM4.25 6V14H5.75V6H4.25ZM9.53033 4.53033L11.5303 2.53033L10.4697 1.46967L8.46967 3.46967L9.53033 4.53033ZM10.4697 2.53033L12.4697 4.53033L13.5303 3.46967L11.5303 1.46967L10.4697 2.53033ZM11.75 10V2H10.25V10H11.75Z" fill="#3B444C"/>
</svg>
