<!--
  - Copyright (c) 2024. Devtron Inc.
  -
  - Licensed under the Apache License, Version 2.0 (the "License");
  - you may not use this file except in compliance with the License.
  - You may obtain a copy of the License at
  -
  -     http://www.apache.org/licenses/LICENSE-2.0
  -
  - Unless required by applicable law or agreed to in writing, software
  - distributed under the License is distributed on an "AS IS" BASIS,
  - WITHOUT WARRANTIES OR CONDITIONS OF ANY KIND, either express or implied.
  - See the License for the specific language governing permissions and
  - limitations under the License.
  -->

<svg width="250" height="200" viewBox="0 0 250 200" fill="none" xmlns="http://www.w3.org/2000/svg"><style>@keyframes moving-border{0%{stroke-dashoffset:12}to{stroke-dashoffset:0}}</style><path fill="#202020" d="M26 7h180v119H26z"/><path d="M78.504 39.7h-3.16V42h9.28v-2.3h-3.16V27.2h-6.12v2.3h3.16zm38.257 2.3q-1.6 0-2.38-.84t-.78-2.14v-5.04h-2.8v-2.3h1.82q.66 0 .94-.26t.28-.96v-2.42h2.72v3.64h4.02v2.3h-4.02v5.72h4.02V42z" fill="#fff"/><path fill-rule="evenodd" clip-rule="evenodd" d="M142.205 41.54q.56.46 1.48.46h1.7v-2.14h-1.14v-4.52q0-1.96-1.2-2.92-1.179-.98-3.3-.98-1.74 0-2.86.58-1.1.56-1.62 1.44l1.62 1.44q.42-.58 1-.94t1.52-.36q1.02 0 1.44.48.44.46.44 1.38v.52h-1.66q-2.28 0-3.46.78t-1.18 2.4q0 1.46.9 2.28.92.8 2.42.8 1.2 0 2.02-.52.84-.52 1.12-1.54h.1q.1.88.66 1.36m-1.46-1.62q-.54.38-1.32.38-.7 0-1.12-.28t-.42-.82v-.4q0-1.22 1.82-1.22h1.58v1.24q0 .72-.54 1.1" fill="#fff"/><path d="M66.512 65.7h-3.16V68h9.28v-2.3h-3.16V53.2h-6.12v2.3h3.16zm38.257 2.3q-1.6 0-2.38-.84t-.78-2.14v-5.04h-2.8v-2.3h1.82q.66 0 .94-.26t.28-.96v-2.42h2.72v3.64h4.02v2.3h-4.02v5.72h4.02V68z" fill="#fff"/><path fill-rule="evenodd" clip-rule="evenodd" d="M112.301 66.8q1.34 1.44 3.94 1.44 1.66 0 2.74-.54t1.68-1.28l-1.6-1.74q-.48.58-1.14.94-.66.34-1.58.34-1.2 0-1.82-.6-.62-.62-.62-1.62v-.18h7.06v-.88q0-1.2-.36-2.16a4.6 4.6 0 0 0-.98-1.66 4.2 4.2 0 0 0-1.56-1.04q-.92-.38-2.08-.38t-2.1.38q-.92.36-1.58 1.08-.64.7-1 1.72-.34 1-.34 2.26 0 2.48 1.34 3.92m2.16-6.64q.58-.6 1.54-.6t1.5.58q.56.58.56 1.6v.16h-4.16v-.16q0-1 .56-1.58" fill="#fff"/><path d="M125.813 65.7h-2.38V68h8.74v-2.3h-3.4v-3.06q0-.94.56-1.58.56-.66 1.66-.66h2.2v-2.72h-.98q-.76 0-1.32.24t-.96.66q-.38.4-.64.94a6 6 0 0 0-.38 1.08h-.14v-2.92h-5.34v2.3h2.38zm-36.956 2.02q1.28.52 3 .52 2.3 0 3.54-.94 1.26-.94 1.26-2.56 0-.74-.26-1.26a2.56 2.56 0 0 0-.72-.88 3.2 3.2 0 0 0-1.04-.56 6.4 6.4 0 0 0-1.3-.32l-1.64-.26q-.6-.1-.94-.26-.34-.18-.34-.64 0-1.04 1.72-1.04 1.02 0 1.74.34t1.18.84l1.48-1.68q-.64-.76-1.72-1.16-1.06-.42-2.58-.42-2.241 0-3.48.92-1.24.92-1.24 2.54 0 .74.26 1.26t.7.88 1.04.58q.6.2 1.3.3l1.66.26q.6.1.94.28.34.16.34.6 0 .56-.5.84-.501.26-1.38.26-1.041 0-1.86-.36-.8-.38-1.4-1.04l-1.66 1.54q.64.9 1.9 1.42m-7.133-1.6h-.12a3.64 3.64 0 0 1-1.08 1.5q-.72.62-1.96.62-.74 0-1.36-.24a2.9 2.9 0 0 1-1.06-.76 3.8 3.8 0 0 1-.7-1.22q-.24-.72-.24-1.66v-6.68h2.96v6.28q0 2 1.74 2 .34 0 .66-.08.34-.1.58-.28.261-.2.42-.48.16-.28.16-.66v-6.78h2.96V68h-2.96zM56.42 68.24q-1.22 0-2.2-.36a4.6 4.6 0 0 1-1.64-1.08 4.8 4.8 0 0 1-1.02-1.7q-.36-1-.36-2.26t.36-2.26 1.02-1.7q.68-.7 1.64-1.06.98-.38 2.18-.38 1.7 0 2.72.7a4.36 4.36 0 0 1 1.58 1.82l-2.28 1.24a3 3 0 0 0-.74-1q-.44-.4-1.28-.4-1.02 0-1.58.6-.54.58-.54 1.6v1.68q0 1.02.54 1.62.56.58 1.62.58.86 0 1.34-.4.5-.4.84-1.04l2.24 1.28a4.55 4.55 0 0 1-1.64 1.84q-1.06.68-2.8.68m45.769-26.36q.98.36 2.2.36 1.74 0 2.8-.68a4.55 4.55 0 0 0 1.64-1.84l-2.24-1.28a3.3 3.3 0 0 1-.84 1.04q-.48.4-1.34.4-1.06 0-1.62-.58-.54-.6-.54-1.62V36q0-1.02.54-1.6.56-.6 1.58-.6.84 0 1.28.4.46.4.74 1l2.28-1.24a4.36 4.36 0 0 0-1.58-1.82q-1.02-.7-2.72-.7-1.2 0-2.18.38-.96.36-1.64 1.06a4.8 4.8 0 0 0-1.02 1.7q-.36 1-.36 2.26t.36 2.26 1.02 1.7q.68.7 1.64 1.08" fill="#fff"/><path fill-rule="evenodd" clip-rule="evenodd" d="M92.257 42.24q-2.6 0-3.94-1.44t-1.34-3.92q0-1.26.34-2.26.36-1.02 1-1.72.66-.72 1.58-1.08.939-.38 2.1-.38 1.16 0 2.08.38.92.36 1.56 1.04t.98 1.66q.36.96.36 2.16v.88h-7.06v.18q0 1 .62 1.62.62.6 1.82.6.92 0 1.58-.34.66-.36 1.14-.94l1.6 1.74q-.6.74-1.68 1.28t-2.74.54m-.24-8.68q-.96 0-1.54.6-.56.58-.56 1.58v.16h4.16v-.16q0-1.02-.56-1.6-.54-.58-1.5-.58m-23.745 8.68q-2.6 0-3.94-1.44t-1.34-3.92q0-1.26.34-2.26.36-1.02 1-1.72.66-.72 1.58-1.08.94-.38 2.1-.38t2.08.38q.92.36 1.56 1.04a4.6 4.6 0 0 1 .98 1.66q.36.96.36 2.16v.88h-7.06v.18q0 1 .62 1.62.62.6 1.82.6.92 0 1.58-.34.66-.36 1.14-.94l1.6 1.74q-.6.74-1.68 1.28t-2.74.54m-.24-8.68q-.96 0-1.54.6-.56.58-.56 1.58v.16h4.16v-.16q0-1.02-.56-1.6-.54-.58-1.5-.58" fill="#fff"/><path d="M52.72 41.66q1.3.58 3.06.58 1.32 0 2.3-.34 1-.34 1.68-.94a4 4 0 0 0 1.02-1.44q.34-.84.34-1.82 0-1.66-.92-2.64t-2.62-1.28l-1.46-.26q-1.02-.18-1.48-.54-.44-.36-.44-1.08 0-1.66 2.02-1.66.96 0 1.72.36.76.34 1.32.96l1.7-1.9q-.74-.86-1.94-1.36t-2.82-.5q-2.38 0-3.7 1.12-1.32 1.1-1.32 3.12 0 1.54.84 2.62.84 1.06 2.72 1.38l1.46.24q1.02.16 1.44.54.44.38.44 1.12 0 .9-.56 1.38t-1.64.48a4.6 4.6 0 0 1-1.86-.4q-.9-.4-1.66-1.24l-1.74 1.92q.8 1 2.1 1.58" fill="#fff"/><path d="M33.288 80.908c.044-2.656.044-3.972.483-6.603-1.2-.367-3.732.042-5.716.092.034 1.322-.122 3.999-1.133 5.876q1.25 2.35 3.232 2.3t3.134-1.665" fill="#F3A29D"/><path d="M33.624 61.563c1.323.698 2.475 1.944 3.212 3.48.23.482.101.729.563 1.497q.663 1.105 1.78 2.648l-1.459 1.02q-.761 3.694-3.37 4.894-2.607 1.198-4.755-.011-4.531-2.675-2.951-7.405t6.98-6.123" fill="#FAB6AF"/><path d="M33.523 68.567c-.34-1.044.07-2.129.94-2.412.676-.22 1.41.116 1.864.766q.216-.277.438-.451l.106-.077q.2-.134.36-.19c-.24-.829.063-1.666.726-1.881.683-.222 1.443.313 1.72 1.165s-.024 1.731-.706 1.953c-.608.197-1.276-.205-1.611-.896a1.3 1.3 0 0 0-.287.152q-.264.175-.536.55l-.011.017q.066.14.115.291c.34 1.045-.07 2.13-.94 2.412s-1.838-.354-2.178-1.399m4.547-3.899c-.466.152-.693.816-.472 1.494.22.68.794 1.083 1.26.931.466-.15.693-.815.472-1.493-.22-.68-.794-1.083-1.26-.932m-3.494 1.834c-.66.214-.989 1.084-.706 1.953.282.868 1.059 1.38 1.719 1.165s.988-1.085.706-1.953-1.06-1.38-1.72-1.165" fill="#222768"/><path d="M43.858 105.444c-1.754-1.404-4.824-4.094-6.14-5.263l-2.193 10.964 15.79.878 1.315-2.193c-2.193-.877-7.017-2.983-8.772-4.386" fill="#FBB4AD"/><path d="m41.665 115.093 2.193-17.544c-2.924 0-9.56-.877-12.719-4.385-3.947-4.386-2.631-10.088-5.701-9.65-3.07.44-7.456 18.421-5.263 25.439 1.754 5.614 15.058 6.432 21.49 6.14" fill="url(#paint0_linear_4305_3090)"/><path d="M35.087 97.988c-1.404-5.263-1.755-13.888-1.755-17.543-2.193.438-7.192 1.14-9.649.438-5.701 13.158-15.788 21.491-15.788 27.631 0 2.456 1.17 3.947 1.754 4.386 1.462.585 6.316 1.754 14.035 1.754s13.742-3.509 15.788-5.263c-.877-1.608-2.982-6.14-4.385-11.403" fill="url(#paint1_linear_4305_3090)"/><path d="m0 200 3.899-11.793h8.576c.244 1.445 3.948 4.018 5.507 4.954 1.95 1.169 5.799 2.94 7.358 4.11 1.248.936 2.34 2.209 2.73 2.729z" fill="url(#paint2_linear_4305_3090)"/><path d="m21.052 200 4.21-11.793h8.265c.244 1.445 3.947 4.018 5.507 4.954 1.95 1.169 5.799 2.94 7.358 4.11 1.248.936 2.34 2.209 2.73 2.729z" fill="url(#paint3_linear_4305_3090)"/><path d="M17.105 133.513c1.754-7.368 1.316-19.736.877-24.999h14.912c-.146 4.386-.351 14.649 0 20.613.35 5.965-13.304 42.251-20.175 59.648h-9.21c-.585-2.778-1.58-9.649-.878-14.912.878-6.579 12.28-31.14 14.474-40.35" fill="url(#paint4_linear_4305_3090)"/><path d="M17.105 118.601c-.702-3.508-.293-8.186 0-10.087h15.789c2.339 9.795 7.105 30.701 7.456 35.964.35 5.263-4.24 31.724-6.58 44.297H25c-1.024-1.462-3.159-5.263-3.51-8.772-.438-4.386.878-8.333 1.316-10.965s-.438-7.294-.438-10.964 2.193-12.28 1.754-17.543-6.14-17.544-7.017-21.93" fill="url(#paint5_linear_4305_3090)"/><path fill="#F04C49" d="m16.627 148.942 57.887-59.943 4.416 4.265-57.886 59.943z"/><path d="M14.691 144.633 72.578 84.69l1.936 4.309-57.887 59.943z" fill="url(#paint6_linear_4305_3090)"/><path d="m21.044 153.207 57.887-59.943 4.373 1.785-57.886 59.943z" fill="url(#paint7_linear_4305_3090)"/><path d="m85.07 78.462 7.495-3.736-3.473 7.62z" fill="#ffffff"/><path d="M85.07 78.462 72.577 84.69l1.937 4.309 4.416 4.265 4.374 1.785 5.788-12.702z" fill="#D2D2D2"/><path d="M42.981 126.934c-3.158-.701-9.795-4.97-12.719-7.017l3.947-10.087c.731 1.169 2.895 4.473 5.702 8.333 2.807 3.859 6.14 5.409 7.456 5.701 1.754-2.193 4.649-3.508 6.842-5.263.146.293.526 1.053.175 1.755-.438.877-3.07 2.193-1.754 3.07 1.053.702 3.947-.877 5.263-1.755 0 1.462-.614 4.649-3.07 5.702-3.07 1.316-7.895.439-11.842-.439" fill="#FBB4AD"/><path d="m31.578 126.057 7.017-17.982c-2.924-.438-9.122-2.543-10.526-7.456-1.403-4.912 2.924-15.496 5.263-20.174 0 0-2.876.737-4.824.877-1.717.123-4.386 0-4.386 0-1.754 1.9-5.702 6.315-7.456 8.772-2.193 3.07-7.017 12.718-5.702 18.42s4.825 5.263 8.333 8.333c3.51 3.07 3.948 6.14 7.018 7.895 2.456 1.403 4.532 1.461 5.263 1.315" fill="#428DFB"/><path fill-rule="evenodd" clip-rule="evenodd" d="M30.949 70.649c-.278.795-.467 1.812-.467 3.217 0 2.92 2.05 5.31 2.965 6.375l.052.06-.333.286-.067-.077c-.911-1.062-3.056-3.559-3.056-6.644 0-1.446.195-2.512.492-3.362s.694-1.472 1.083-2.027l.215-.304c.31-.435.596-.836.822-1.31.273-.572.458-1.252.458-2.207h.439c0 1.018-.2 1.763-.502 2.397-.243.511-.556.95-.867 1.386q-.104.144-.206.29c-.38.541-.75 1.125-1.028 1.92" fill="#000"/><path d="M29.824 60.007c2.063-.042 3.369.084 4.524.842l.055.047c.883.747 1.565 1.325 1.936 3.272-.59-.999-1.527-1.276-1.948-1.255.192 1.222-.281 3.314-1.497 4.375-2.265 1.976-3.333 3.07-3.333 5.263 0 4.385 1.579 7.017 2.894 8.771 0 0-3.196 1.672-7.894 2.193s-7.774-.454-7.774-.454c-.564-1.33-.713-4.252-.22-5.846q-.107.162-.206.327c-.482.803-.791 1.64-.791 2.464 0 1.379.288 2.28.415 2.534l-.392.196c-.165-.33-.462-1.302-.462-2.73 0-.931.349-1.848.854-2.69.506-.842 1.177-1.624 1.842-2.29.698-.697 1.374-1.377 1.857-2.17.134-.357.223-.748.25-1.182.046-.732.063-1.39.079-2 .058-2.239.098-3.81 1.478-5.895 1.884-2.848 5.526-3.713 8.333-3.772" fill="#23286B"/><path d="M56.577 116.409c0 1.754 1.17 3.654 1.755 4.385.73-.438 2.193-.877 3.508-2.193 1.316-1.315 1.9-2.631 2.193-3.508-.438-.877-1.491-2.544-2.193-2.193s0 2.193.439 3.07c-1.17-1.17-3.684-3.421-4.386-3.07-.877.438-1.316 1.316-1.316 3.509" fill="#FBB4AD"/><circle cx="217" cy="175" r="15" fill="url(#paint8_radial_4305_3090)"/><path d="M122.5 91c8 7 31 13 43.5 9.5 32.861-9.201 37.392-48.707 17-53-19-4-20 27.5 4.5 29 36.216 2.217 47.5-43.5 51.5-65" stroke="#FF7E5B" stroke-width="3" stroke-linecap="round" style="stroke-dasharray:4 8;animation:moving-border .5s infinite linear"/><path d="m232 9.065 8.27-5.793a1 1 0 0 1 1.449.334l4.893 8.833c.419.757-.256 1.653-1.1 1.459l-13.163-3.04c-.844-.194-1.058-1.296-.349-1.793" fill="#FF7E5B"/><defs><linearGradient id="paint0_linear_4305_3090" x1="32.894" y1="99.742" x2="33.481" y2="116.403" gradientUnits="userSpaceOnUse"><stop stop-color="#428DFC"/><stop offset="1" stop-color="#1D72D9"/></linearGradient><linearGradient id="paint1_linear_4305_3090" x1="31.139" y1="79.129" x2="22.225" y2="116.32" gradientUnits="userSpaceOnUse"><stop offset=".218" stop-color="#428DFC"/><stop offset="1" stop-color="#0C5FC4"/></linearGradient><linearGradient id="paint2_linear_4305_3090" x1="25.999" y1="188.43" x2="17.366" y2="207.757" gradientUnits="userSpaceOnUse"><stop offset=".091" stop-color="#2C7DE7"/><stop offset=".492" stop-color="#1D72D9"/></linearGradient><linearGradient id="paint3_linear_4305_3090" x1="47.051" y1="188.43" x2="38.419" y2="207.757" gradientUnits="userSpaceOnUse"><stop offset=".075" stop-color="#428DFC"/><stop offset="1" stop-color="#428DFC"/></linearGradient><linearGradient id="paint4_linear_4305_3090" x1="19.706" y1="108.514" x2="-6.254" y2="181.066" gradientUnits="userSpaceOnUse"><stop offset=".332" stop-color="#181D55"/><stop offset="1" stop-color="#1A1F58"/></linearGradient><linearGradient id="paint5_linear_4305_3090" x1="26.662" y1="108.514" x2="26.341" y2="188.774" gradientUnits="userSpaceOnUse"><stop stop-color="#191D52"/><stop offset=".537" stop-color="#272D78"/><stop offset="1" stop-color="#23286B"/></linearGradient><linearGradient id="paint6_linear_4305_3090" x1="74.471" y1="86.518" x2="79.212" y2="91.945" gradientUnits="userSpaceOnUse"><stop stop-color="#D53B3A"/><stop offset="1" stop-color="#E64542"/></linearGradient><linearGradient id="paint7_linear_4305_3090" x1="82.042" y1="93.83" x2="86.784" y2="99.257" gradientUnits="userSpaceOnUse"><stop stop-color="#E24442"/><stop offset="1" stop-color="#CC3434"/></linearGradient><radialGradient id="paint8_radial_4305_3090" cx="0" cy="0" r="1" gradientUnits="userSpaceOnUse" gradientTransform="matrix(-3 29.99997 -27.0259 -2.7026 220 160)"><stop stop-color="#A0C2FC"/><stop offset=".88" stop-color="#78A5E6"/></radialGradient></defs></svg>