<!--
  - Copyright (c) 2024. Devtron Inc.
  -
  - Licensed under the Apache License, Version 2.0 (the "License");
  - you may not use this file except in compliance with the License.
  - You may obtain a copy of the License at
  -
  -     http://www.apache.org/licenses/LICENSE-2.0
  -
  - Unless required by applicable law or agreed to in writing, software
  - distributed under the License is distributed on an "AS IS" BASIS,
  - WITHOUT WARRANTIES OR CONDITIONS OF ANY KIND, either express or implied.
  - See the License for the specific language governing permissions and
  - limitations under the License.
  -->

<svg class="svg__no-override" width="24" height="24" viewBox="0 0 24 24" fill="none" xmlns="http://www.w3.org/2000/svg">
<path d="M11.995 1L3.3501 4.69935V13.3165C3.3501 15.7424 3.74178 18.8509 11.995 23C20.2487 18.8509 20.6407 15.7424 20.6407 13.3167V4.69935L11.995 1Z" fill="url(#paint0_linear_2341_3673)"/>
<path d="M10.9847 16.1446L6.70166 11.9358L8.36869 10.2393L10.9833 12.8086L15.6199 8.24396L17.2883 9.93904L10.9847 16.1446Z" fill="white"/>
<path d="M20.6403 4.69908V13.3162C20.6403 15.7424 20.2486 18.8509 11.9951 23V1L20.6403 4.69908Z" fill="url(#paint1_linear_2341_3673)"/>
<path d="M17.2877 9.93882L11.9946 15.1499V11.8125L15.6193 8.24429L17.2877 9.93882Z" fill="#F0F5FF"/>
<defs>
<linearGradient id="paint0_linear_2341_3673" x1="7.36048" y1="17.2815" x2="20.706" y2="8.79135" gradientUnits="userSpaceOnUse">
<stop stop-color="#0049B0"/>
<stop offset="1" stop-color="#0065FF"/>
</linearGradient>
<linearGradient id="paint1_linear_2341_3673" x1="15.2188" y1="19.4413" x2="23.728" y2="8.6151" gradientUnits="userSpaceOnUse">
<stop stop-color="#0065FF"/>
<stop offset="0.72" stop-color="#66A3FF"/>
</linearGradient>
</defs>
</svg>
