<svg width="40" height="40" viewBox="0 0 40 40" fill="none" xmlns="http://www.w3.org/2000/svg">
<rect width="40" height="40" rx="8" fill="#F3F0FF"/>
<path fill-rule="evenodd" clip-rule="evenodd" d="M27.2544 12.221L25.3524 14.12C25.1114 14.3618 25.1114 14.7519 25.3524 14.9937L26.7668 16.4059C27.009 16.6466 27.3997 16.6466 27.6419 16.4059L29.5439 14.5058C29.6737 14.3761 29.8961 14.4365 29.9445 14.6135C30.3055 15.9432 29.9632 17.4236 28.9176 18.4676C27.7794 19.604 26.124 19.9073 24.7085 19.3798L16.4753 28.3696C15.6311 29.2927 14.1859 29.3257 13.2998 28.4399C12.4094 27.5519 12.4468 26.099 13.3813 25.2583L22.4048 17.1324C21.8324 15.7015 22.1263 14.0046 23.2875 12.8463C24.3332 11.8022 25.8158 11.4616 27.1476 11.8209C27.3249 11.8693 27.3854 12.0913 27.2555 12.221H27.2544ZM14.242 26.8727C14.242 27.2354 14.537 27.531 14.9002 27.531C15.2635 27.531 15.5595 27.2365 15.5595 26.8727C15.5595 26.5101 15.2646 26.2155 14.9002 26.2155C14.537 26.2155 14.242 26.5101 14.242 26.8727Z" fill="#8898A6"/>
<path fill-rule="evenodd" clip-rule="evenodd" d="M15.1003 17.5101L17.3567 15.2573L28.253 26.1368C28.6826 26.5657 28.6826 27.262 28.253 27.691L27.5533 28.3896C27.1236 28.8186 26.4263 28.8186 25.9966 28.3896L15.1003 17.5101V17.5101Z" fill="#F4910D"/>
<path fill-rule="evenodd" clip-rule="evenodd" d="M13.4114 19.9005L14.0433 19.2695L14.1033 18.8475C14.1546 18.4916 14.4854 18.2437 14.8411 18.2942C14.8901 18.3012 14.9376 18.3129 14.9828 18.3315L17.8033 15.5153L17.6913 14.6263C17.6142 14.0038 17.8275 13.379 18.2727 12.9345C18.7241 12.4838 19.3358 12.2305 19.974 12.2305L21.094 12.2312C19.3312 10.4711 17.6656 10.3732 16.0988 11.9375L12.219 15.8114C11.9964 16.0336 11.6897 16.1502 11.3761 16.1323L10.871 16.102L10.239 16.733C9.80934 17.162 9.80934 17.8583 10.239 18.2872L11.8547 19.9005C12.2844 20.3295 12.9817 20.3295 13.4114 19.9005Z" fill="#66757F"/>
<path d="M19.4803 26.5196C19.2399 26.2792 19.1048 25.9531 19.1048 25.613C19.1048 25.2729 19.2399 24.9468 19.4803 24.7063C19.7208 24.4659 20.0469 24.3308 20.387 24.3308H20.6622C20.1889 24.5632 19.8632 25.05 19.8632 25.6128C19.8632 26.176 20.1893 26.663 20.6631 26.8952H20.387C20.0469 26.8952 19.7208 26.7601 19.4803 26.5196ZM24.7266 24.1854H23.2734C23.6144 24.0179 23.8789 23.7184 24 23.3535C24.1211 23.7184 24.3856 24.0179 24.7266 24.1854ZM25.355 21.476C24.7239 21.476 24.1885 21.8855 24 22.4533C23.8115 21.8855 23.2761 21.476 22.645 21.476H20.387C19.2898 21.476 18.2375 21.9119 17.4617 22.6877C16.6859 23.4635 16.25 24.5158 16.25 25.613C16.25 26.7102 16.6859 27.7625 17.4617 28.5383C18.2375 29.3141 19.2898 29.75 20.387 29.75H22.645C23.2761 29.75 23.8115 29.3405 24 28.7727C24.1885 29.3405 24.7239 29.75 25.355 29.75H27.613C28.7102 29.75 29.7625 29.3141 30.5383 28.5383C31.3141 27.7625 31.75 26.7102 31.75 25.613C31.75 24.5158 31.3141 23.4635 30.5383 22.6877C29.7625 21.9119 28.7102 21.476 27.613 21.476H25.355ZM24 27.8725C23.8788 27.5073 23.614 27.2076 23.2725 27.0402H24.7275C24.386 27.2076 24.1213 27.5073 24 27.8725ZM27.613 26.8952H27.3373C27.811 26.663 28.1372 26.176 28.1372 25.6128C28.1372 25.05 27.8115 24.5632 27.3382 24.3308H27.613C27.9531 24.3308 28.2792 24.4659 28.5197 24.7063C28.7601 24.9468 28.8952 25.2729 28.8952 25.613C28.8952 25.9531 28.7601 26.2792 28.5197 26.5196C28.2792 26.7601 27.9531 26.8952 27.613 26.8952Z" fill="#664BEE" stroke="#F3F0FF" stroke-width="1.5" stroke-linecap="round" stroke-linejoin="round"/>
</svg>