<!--
  - Copyright (c) 2024. Devtron Inc.
  -
  - Licensed under the Apache License, Version 2.0 (the "License");
  - you may not use this file except in compliance with the License.
  - You may obtain a copy of the License at
  -
  -     http://www.apache.org/licenses/LICENSE-2.0
  -
  - Unless required by applicable law or agreed to in writing, software
  - distributed under the License is distributed on an "AS IS" BASIS,
  - WITHOUT WARRANTIES OR CONDITIONS OF ANY KIND, either express or implied.
  - See the License for the specific language governing permissions and
  - limitations under the License.
  -->

<svg xmlns="http://www.w3.org/2000/svg" width="24" height="24" viewBox="0 0 24 24">
    <path fill="#959BA1" class="fill-color" fill-rule="evenodd" d="M10.08 1.4h3.84c.687 0 1.28.464 1.443 1.132l.027.136.283 2c.192.097.38.201.566.313l.275.176 1.938-.778c.623-.207 1.32.004 1.695.544l.075.12L22.16 8.4c.309.583.197 1.31-.28 1.773l-.108.095-1.588 1.24c.01.162.016.326.016.492l-.004.243-.011.244 1.559 1.233c.558.418.73 1.145.452 1.778l-.066.134-1.912 3.31a1.476 1.476 0 0 1-1.695.705l-.14-.047-1.883-.757c-.182.12-.367.233-.555.337l-.284.15-.299 2.101a1.456 1.456 0 0 1-1.303 1.163l-.139.006h-3.84c-.676 0-1.24-.445-1.434-1.12l-.036-.148-.283-2a7.84 7.84 0 0 1-.566-.313l-.275-.176-1.938.778c-.623.207-1.32-.004-1.695-.544l-.075-.12L1.84 15.6a1.499 1.499 0 0 1 .28-1.773l.108-.095 1.589-1.24A7.245 7.245 0 0 1 3.8 12l.006-.245.016-.252-1.566-1.223a1.462 1.462 0 0 1-.452-1.778l.066-.134 1.912-3.31a1.476 1.476 0 0 1 1.695-.705l.14.047 1.883.757c.182-.12.367-.233.555-.337l.284-.15.284-2.01a1.467 1.467 0 0 1 1.32-1.254l.137-.006h3.84-3.84zm3.394 2h-2.936l-.376 2.66-.532.218a5.998 5.998 0 0 0-1.122.611l-.273.197-.451.34L5.3 6.429 3.83 8.972l2.135 1.667-.094.583A5.016 5.016 0 0 0 5.8 12c0 .176.01.356.027.527l.032.251.094.583-2.134 1.667 1.469 2.544 2.486-1 .452.345c.36.274.722.497 1.103.678l.289.127.532.217.375 2.661h2.937l.376-2.66.532-.218a5.998 5.998 0 0 0 1.122-.611l.273-.197.451-.34 2.484.998 1.47-2.547-2.09-1.652.067-.556A6.81 6.81 0 0 0 18.2 12c0-.181-.009-.357-.026-.527l-.033-.251-.094-.583 2.134-1.667-1.469-2.544-2.486 1-.452-.345a6.169 6.169 0 0 0-1.103-.678l-.289-.127-.532-.217-.376-2.661zM12 7.4a4.61 4.61 0 0 1 4.6 4.6 4.61 4.61 0 0 1-4.6 4.6A4.61 4.61 0 0 1 7.4 12 4.61 4.61 0 0 1 12 7.4zm0 2A2.61 2.61 0 0 0 9.4 12a2.61 2.61 0 0 0 2.6 2.6 2.61 2.61 0 0 0 2.6-2.6A2.61 2.61 0 0 0 12 9.4z"/>
</svg>
