<!--
  - Copyright (c) 2024. Devtron Inc.
  -
  - Licensed under the Apache License, Version 2.0 (the "License");
  - you may not use this file except in compliance with the License.
  - You may obtain a copy of the License at
  -
  -     http://www.apache.org/licenses/LICENSE-2.0
  -
  - Unless required by applicable law or agreed to in writing, software
  - distributed under the License is distributed on an "AS IS" BASIS,
  - WITHOUT WARRANTIES OR CONDITIONS OF ANY KIND, either express or implied.
  - See the License for the specific language governing permissions and
  - limitations under the License.
  -->

<svg width="40" height="40" viewBox="0 0 40 40" fill="none" xmlns="http://www.w3.org/2000/svg">
<rect width="40" height="40" rx="8" fill="#E5F2FF"/>
<path fill-rule="evenodd" clip-rule="evenodd" d="M27.2544 12.221L25.3524 14.12C25.1114 14.3618 25.1114 14.7519 25.3524 14.9937L26.7668 16.4059C27.009 16.6466 27.3997 16.6466 27.6419 16.4059L29.5439 14.5058C29.6737 14.3761 29.8961 14.4365 29.9445 14.6135C30.3055 15.9432 29.9632 17.4236 28.9176 18.4676C27.7794 19.604 26.124 19.9073 24.7085 19.3798L16.4753 28.3696C15.6311 29.2927 14.1859 29.3257 13.2998 28.4399C12.4094 27.5519 12.4468 26.099 13.3813 25.2583L22.4048 17.1324C21.8324 15.7015 22.1263 14.0046 23.2875 12.8463C24.3332 11.8022 25.8158 11.4616 27.1476 11.8209C27.3249 11.8693 27.3854 12.0913 27.2555 12.221H27.2544ZM14.242 26.8727C14.242 27.2354 14.537 27.531 14.9002 27.531C15.2635 27.531 15.5595 27.2365 15.5595 26.8727C15.5595 26.5101 15.2646 26.2155 14.9002 26.2155C14.537 26.2155 14.242 26.5101 14.242 26.8727Z" fill="#8898A6"/>
<path fill-rule="evenodd" clip-rule="evenodd" d="M15.1003 17.5101L17.3567 15.2573L28.253 26.1368C28.6826 26.5657 28.6826 27.262 28.253 27.691L27.5533 28.3896C27.1236 28.8186 26.4263 28.8186 25.9966 28.3896L15.1003 17.5101V17.5101Z" fill="#F4910D"/>
<path fill-rule="evenodd" clip-rule="evenodd" d="M13.4114 19.9005L14.0433 19.2695L14.1033 18.8475C14.1546 18.4916 14.4854 18.2437 14.8411 18.2942C14.8901 18.3012 14.9376 18.3129 14.9828 18.3315L17.8033 15.5153L17.6913 14.6263C17.6142 14.0038 17.8275 13.379 18.2727 12.9345C18.7241 12.4838 19.3358 12.2305 19.974 12.2305L21.094 12.2312C19.3312 10.4711 17.6656 10.3732 16.0988 11.9375L12.219 15.8114C11.9964 16.0336 11.6897 16.1502 11.3761 16.1323L10.871 16.102L10.239 16.733C9.80934 17.162 9.80934 17.8583 10.239 18.2872L11.8547 19.9005C12.2844 20.3295 12.9817 20.3295 13.4114 19.9005Z" fill="#66757F"/>
</svg>