<svg width="16" height="16" viewBox="0 0 16 16" fill="none" xmlns="http://www.w3.org/2000/svg">
<path d="M10.7496 7.25003L10.7496 13.5M10.7496 7.25003C11.578 7.25003 12.25 6.57843 12.25 5.75C12.25 4.92157 11.578 4.25003 10.7496 4.25003M10.7496 7.25003C9.92117 7.25003 9.25 6.57843 9.25 5.75C9.25 4.92157 9.92117 4.25003 10.7496 4.25003M10.7496 2.50003L10.7496 4.25003M5.24961 10.75L5.24956 13.5M5.24961 10.75C6.07804 10.75 6.75 10.0784 6.75 9.25C6.75 8.42157 6.07805 7.75 5.24962 7.75M5.24961 10.75C4.42118 10.75 3.75 10.0784 3.75 9.25C3.75 8.42157 4.42119 7.75 5.24962 7.75M5.24957 2.5L5.24962 7.75" stroke="#596168" stroke-width="1.5" stroke-linecap="round" stroke-linejoin="round"/>
</svg>
