<svg
                                    width="16"
                                    height="16"
                                    viewBox="2 -2 18 14"
                                    fill="none"
                                    xmlns="http://www.w3.org/2000/svg"
                                >
                                    <path
                                        d="M11.0105 6.23225H14.0105V3.23225"
                                        stroke="#0066CC"
                                        strokeWidth="1.5"
                                        strokeLinecap="round"
                                        strokeLinejoin="round"
                                    />
                                    <path
                                        d="M4.11096 4.11091C4.62168 3.60019 5.228 3.19506 5.89529 2.91866C6.56258 2.64226 7.27778 2.5 8.00005 2.5C8.72232 2.5 9.43752 2.64226 10.1048 2.91866C10.7721 3.19506 11.3784 3.60019 11.8891 4.11091L14.0105 6.23223"
                                        stroke="#0066CC"
                                        strokeWidth="1.5"
                                        strokeLinecap="round"
                                        strokeLinejoin="round"
                                    />
                                    <path
                                        d="M4.9895 9.76775H1.9895V12.7677"
                                        stroke="#0066CC"
                                        strokeWidth="1.5"
                                        strokeLinecap="round"
                                        strokeLinejoin="round"
                                    />
                                    <path
                                        d="M11.8891 11.8891C11.3784 12.3998 10.7721 12.8049 10.1048 13.0813C9.4375 13.3577 8.7223 13.5 8.00003 13.5C7.27776 13.5 6.56256 13.3577 5.89527 13.0813C5.22798 12.8049 4.62167 12.3998 4.11094 11.8891L1.98962 9.76776"
                                        stroke="#0066CC"
                                        strokeWidth="1.5"
                                        strokeLinecap="round"
                                        strokeLinejoin="round"
                                    />
                                </svg>