<svg width="40" height="40" viewBox="0 0 40 40" fill="none" xmlns="http://www.w3.org/2000/svg">
<rect width="40" height="40" rx="8" fill="#B486C0"/>
<path d="M17.3484 24.4194C16.4645 27.0711 12.929 27.0711 12.929 27.0711C12.929 27.0711 12.929 23.5355 15.5806 22.6516" stroke="white" stroke-width="1.5" stroke-linecap="round" stroke-linejoin="round"/>
<path d="M25.3033 18.2322L20 23.5355L16.4645 20L21.7678 14.6967C23.7759 12.6886 25.7841 12.7081 26.6405 12.8359C26.7723 12.8556 26.8944 12.9171 26.9887 13.0113C27.0829 13.1056 27.1444 13.2277 27.1641 13.3595C27.2919 14.216 27.3114 16.2241 25.3033 18.2322Z" stroke="white" stroke-width="1.5" stroke-linecap="round" stroke-linejoin="round"/>
<path d="M24.4194 19.1161V24.1605C24.4194 24.2426 24.4033 24.3239 24.3718 24.3997C24.3404 24.4755 24.2944 24.5444 24.2364 24.6025L21.7097 27.1292C21.6297 27.2092 21.5295 27.2659 21.4197 27.2935C21.31 27.321 21.1949 27.3182 21.0866 27.2854C20.9783 27.2526 20.881 27.1911 20.805 27.1073C20.7289 27.0236 20.677 26.9207 20.6549 26.8098L20 23.5355" stroke="white" stroke-width="1.5" stroke-linecap="round" stroke-linejoin="round"/>
<path d="M20.8839 15.5806H15.8394C15.7574 15.5806 15.6761 15.5968 15.6003 15.6282C15.5244 15.6596 15.4555 15.7056 15.3975 15.7637L12.8708 18.2904C12.7908 18.3703 12.734 18.4705 12.7065 18.5803C12.679 18.69 12.6818 18.8051 12.7146 18.9134C12.7473 19.0217 12.8089 19.119 12.8927 19.1951C12.9764 19.2711 13.0792 19.323 13.1902 19.3452L16.4644 20" stroke="white" stroke-width="1.5" stroke-linecap="round" stroke-linejoin="round"/>
</svg>
