<svg width="24px" height="24px" viewBox="0 0 24 24" version="1.1" xmlns="http://www.w3.org/2000/svg" xmlns:xlink="http://www.w3.org/1999/xlink">
    <g id="SSO-Login-Services" stroke="none" stroke-width="1" fill="none" fill-rule="evenodd">
        <g id="Global-Config/Login-Service/Configuration" transform="translate(-931.000000, -208.000000)" fill="#A91E23" fill-rule="nonzero">
            <g id="Text-Field/Default-Copy-5" transform="translate(439.000000, 168.000000)">
                <g id="Account---Google-Copy-4" transform="translate(456.000000, 24.000000)">
                    <g id="Icon/Account/ic-saml" transform="translate(36.000000, 16.000000)">
                        <path d="M14.6230769,9.88461538 C16.4,10.7307692 20.7153846,16.2307692 22.1538462,19.5307692 C16.0615385,21.3076923 10.0538462,22.4923077 3.70769231,21.9846154 C6.33076923,21.7307692 8.86923077,21.5615385 11.3230769,21.1384615 C12.8461538,20.8846154 14.3692308,20.4615385 15.8076923,19.8692308 C18.1769231,18.8538462 18.7692308,17.1615385 17.5846154,14.7923077 C16.7384615,13.1 15.6384615,11.4923077 14.6230769,9.88461538 Z M7.17692308,2.1 C7.00769231,2.43846154 6.92307692,2.77692308 6.75384615,3.03076923 C5.48461538,5.90769231 4.13076923,8.86923077 3.70769231,12.0846154 C3.62307692,12.8461538 3.62307692,13.6076923 3.79230769,14.3692308 C4.04615385,15.5538462 4.80769231,16.5692308 6.07692308,16.5692308 C8.02307692,16.6538462 9.96923077,16.4846154 11.9153846,16.4846154 C12.3384615,16.4846154 12.6769231,16.4 13.1,16.3153846 C9.29230769,18.0076923 5.31538462,18.6 1,18.6 C2.18461538,12.6769231 3.96153846,7.09230769 7.17692308,2.1 Z M11.6615385,1 C16.2307692,5.14615385 20.2923077,9.71538462 23,15.3 C22.2384615,14.2846154 21.5615385,13.1846154 20.8,12.1692308 C19.5307692,10.5615385 18.1769231,8.95384615 16.8230769,7.51538462 C16.0615385,6.75384615 15.1307692,6.16153846 14.2,5.73846154 C12.7615385,5.06153846 11.4076923,5.4 10.5615385,6.75384615 C9.54615385,8.36153846 8.7,10.1384615 7.85384615,11.9153846 C7.68461538,12.2538462 7.51538462,12.6769231 7.34615385,13.0153846 C7.93846154,8.78461538 9.37692308,4.80769231 11.6615385,1 Z" id="Combined-Shape"></path>
                    </g>
                </g>
            </g>
        </g>
    </g>
</svg>