<svg width="20" height="20" viewBox="0 0 20 20" fill="none" xmlns="http://www.w3.org/2000/svg">
<path d="M9.58326 2.02181L3.28213 3.28204L2.0219 9.58317C2.00172 9.68406 2.00677 9.78838 2.03658 9.88686C2.0664 9.98533 2.12007 10.0749 2.19282 10.1477L10.3532 18.3081C10.4112 18.3661 10.4801 18.4121 10.556 18.4435C10.6318 18.4749 10.7131 18.4911 10.7951 18.4911C10.8772 18.4911 10.9585 18.4749 11.0343 18.4435C11.1101 18.4121 11.179 18.3661 11.2371 18.3081L18.3081 11.237C18.3662 11.179 18.4122 11.1101 18.4436 11.0342C18.475 10.9584 18.4912 10.8771 18.4912 10.795C18.4912 10.713 18.475 10.6317 18.4436 10.5559C18.4122 10.48 18.3662 10.4111 18.3081 10.3531L10.1478 2.19273C10.075 2.11998 9.98543 2.06631 9.88695 2.03649C9.78847 2.00668 9.68415 2.00163 9.58326 2.02181V2.02181Z" stroke="#000A14" stroke-width="1.5" stroke-linecap="round" stroke-linejoin="round"/>
<path d="M6.5625 7.5C7.08027 7.5 7.5 7.08027 7.5 6.5625C7.5 6.04473 7.08027 5.625 6.5625 5.625C6.04473 5.625 5.625 6.04473 5.625 6.5625C5.625 7.08027 6.04473 7.5 6.5625 7.5Z" fill="#596168"/>
</svg>
