<!--
  - Copyright (c) 2024. Devtron Inc.
  -
  - Licensed under the Apache License, Version 2.0 (the "License");
  - you may not use this file except in compliance with the License.
  - You may obtain a copy of the License at
  -
  -     http://www.apache.org/licenses/LICENSE-2.0
  -
  - Unless required by applicable law or agreed to in writing, software
  - distributed under the License is distributed on an "AS IS" BASIS,
  - WITHOUT WARRANTIES OR CONDITIONS OF ANY KIND, either express or implied.
  - See the License for the specific language governing permissions and
  - limitations under the License.
  -->

<svg xmlns="http://www.w3.org/2000/svg" width="24" height="24" fill="none" viewBox="0 0 24 24">
  <path stroke="#3B444C" stroke-linecap="round" stroke-linejoin="round" stroke-width="1.5" d="M9.5 8.75H8m1.5 0a.747.747 0 0 0-.181-.49m.181.49a.748.748 0 0 1-.214.524M8.75 9.5V8m0 1.5c-.21 0-.4-.087-.536-.226m.536.226c.21 0 .4-.087.536-.226M8 8.75c0 .204.082.389.214.524M8 8.75a.75.75 0 0 1 .181-.49M8.75 8c.227 0 .431.1.569.26M8.75 8a.748.748 0 0 0-.569.26m.033 1.014L9.319 8.26m-1.138 0 1.105 1.014M11.5 2.426 3.938 3.938l-1.512 7.561a.75.75 0 0 0 .205.678l9.793 9.792a.752.752 0 0 0 1.06 0l8.486-8.485a.75.75 0 0 0 0-1.06L12.177 2.63a.75.75 0 0 0-.677-.205Z" vector-effect="non-scaling-stroke"/>
</svg>
