<!--
  - Copyright (c) 2024. Devtron Inc.
  -
  - Licensed under the Apache License, Version 2.0 (the "License");
  - you may not use this file except in compliance with the License.
  - You may obtain a copy of the License at
  -
  -     http://www.apache.org/licenses/LICENSE-2.0
  -
  - Unless required by applicable law or agreed to in writing, software
  - distributed under the License is distributed on an "AS IS" BASIS,
  - WITHOUT WARRANTIES OR CONDITIONS OF ANY KIND, either express or implied.
  - See the License for the specific language governing permissions and
  - limitations under the License.
  -->

<svg width="24" height="24" viewBox="0 0 24 24" fill="none" xmlns="http://www.w3.org/2000/svg">
<path d="M5.31266 18.3513C5.12488 18.7205 5.27195 19.172 5.64115 19.3598C6.01035 19.5476 6.46188 19.4005 6.64966 19.0313L5.31266 18.3513ZM17.3503 19.0313C17.5381 19.4005 17.9896 19.5476 18.3588 19.3598C18.728 19.172 18.8751 18.7205 18.6873 18.3513L17.3503 19.0313ZM20.25 12C20.25 16.5563 16.5563 20.25 12 20.25V21.75C17.3848 21.75 21.75 17.3848 21.75 12H20.25ZM12 20.25C7.44365 20.25 3.75 16.5563 3.75 12H2.25C2.25 17.3848 6.61522 21.75 12 21.75V20.25ZM3.75 12C3.75 7.44365 7.44365 3.75 12 3.75V2.25C6.61522 2.25 2.25 6.61522 2.25 12H3.75ZM12 3.75C16.5563 3.75 20.25 7.44365 20.25 12H21.75C21.75 6.61522 17.3848 2.25 12 2.25V3.75ZM15 11.25C15 12.9069 13.6569 14.25 12 14.25V15.75C14.4853 15.75 16.5 13.7353 16.5 11.25H15ZM12 14.25C10.3431 14.25 9 12.9069 9 11.25H7.5C7.5 13.7353 9.51472 15.75 12 15.75V14.25ZM9 11.25C9 9.59315 10.3431 8.25 12 8.25V6.75C9.51472 6.75 7.5 8.76472 7.5 11.25H9ZM12 8.25C13.6569 8.25 15 9.59315 15 11.25H16.5C16.5 8.76472 14.4853 6.75 12 6.75V8.25ZM6.64966 19.0313C7.15186 18.044 7.91749 17.2148 8.86179 16.6357L8.07758 15.357C6.89731 16.0809 5.94036 17.1172 5.31266 18.3513L6.64966 19.0313ZM8.86179 16.6357C9.80609 16.0565 10.8923 15.75 12 15.75L12 14.25C10.6154 14.25 9.25786 14.6331 8.07758 15.357L8.86179 16.6357ZM12 15.75C13.1077 15.75 14.1939 16.0565 15.1382 16.6357L15.9224 15.357C14.7421 14.6331 13.3846 14.25 12 14.25L12 15.75ZM15.1382 16.6357C16.0825 17.2148 16.8481 18.0439 17.3503 19.0313L18.6873 18.3513C18.0596 17.1172 17.1027 16.0808 15.9224 15.357L15.1382 16.6357Z" fill="#596168"/>
</svg>
