<!--
  - Copyright (c) 2024. Devtron Inc.
  -
  - Licensed under the Apache License, Version 2.0 (the "License");
  - you may not use this file except in compliance with the License.
  - You may obtain a copy of the License at
  -
  -     http://www.apache.org/licenses/LICENSE-2.0
  -
  - Unless required by applicable law or agreed to in writing, software
  - distributed under the License is distributed on an "AS IS" BASIS,
  - WITHOUT WARRANTIES OR CONDITIONS OF ANY KIND, either express or implied.
  - See the License for the specific language governing permissions and
  - limitations under the License.
  -->

<svg xmlns="http://www.w3.org/2000/svg" width="24" height="24" fill="none" viewBox="0 0 24 24">
  <path stroke="#3B444C" stroke-linecap="round" stroke-linejoin="round" stroke-width="1.5" d="M7.786 21a3.857 3.857 0 0 1-3.857-3.857v-3.214L2 12l1.929-1.929V6.857A3.857 3.857 0 0 1 7.786 3m8.428 18a3.857 3.857 0 0 0 3.857-3.857v-3.214L22 12l-1.929-1.929V6.857A3.857 3.857 0 0 0 16.214 3M12 11a1 1 0 1 1 0 2m0-2a1 1 0 1 0 0 2m0-2v2" vector-effect="non-scaling-stroke"/>
</svg>
