<!--
  - Copyright (c) 2024. Devtron Inc.
  -
  - Licensed under the Apache License, Version 2.0 (the "License");
  - you may not use this file except in compliance with the License.
  - You may obtain a copy of the License at
  -
  -     http://www.apache.org/licenses/LICENSE-2.0
  -
  - Unless required by applicable law or agreed to in writing, software
  - distributed under the License is distributed on an "AS IS" BASIS,
  - WITHOUT WARRANTIES OR CONDITIONS OF ANY KIND, either express or implied.
  - See the License for the specific language governing permissions and
  - limitations under the License.
  -->

<svg xmlns="http://www.w3.org/2000/svg" width="24" height="24" fill="none" viewBox="0 0 24 24">
  <path stroke="#3B444C" stroke-linecap="round" stroke-linejoin="round" stroke-width="1.5" d="m4.5 3.75 15 16.5m-4.977-5.475a3.75 3.75 0 0 1-5.046-5.55m-2.54-2.794C3.115 8.366 1.5 12 1.5 12s3 6.75 10.5 6.75a11.088 11.088 0 0 0 5.062-1.181m2.495-1.716C21.601 14.023 22.5 12 22.5 12s-3-6.75-10.5-6.75a11.75 11.75 0 0 0-1.939.157m2.645 2.91a3.752 3.752 0 0 1 3.028 3.33" vector-effect="non-scaling-stroke"/>
</svg>
