<svg width="48" height="48" viewBox="0 0 48 48" fill="none" xmlns="http://www.w3.org/2000/svg">
<path d="M21.4036 7.49713L4.90804 35.9957C4.64409 36.4517 4.50489 36.9692 4.50446 37.4961C4.50402 38.023 4.64236 38.5407 4.90555 38.9971C5.16875 39.4536 5.54751 39.8327 6.00374 40.0962C6.45997 40.3598 6.97757 40.4986 7.50447 40.4986H40.4956C41.0224 40.4986 41.54 40.3598 41.9963 40.0962C42.4525 39.8327 42.8313 39.4536 43.0945 38.9971C43.3577 38.5407 43.496 38.023 43.4956 37.4961C43.4951 36.9692 43.3559 36.4517 43.092 35.9957L26.5964 7.49713C26.3329 7.04185 25.9543 6.66387 25.4986 6.4011C25.0429 6.13832 24.5261 6 24 6C23.474 6 22.9572 6.13832 22.5014 6.4011C22.0457 6.66387 21.6671 7.04185 21.4036 7.49713Z" fill="#C58D36"/>
<path fill-rule="evenodd" clip-rule="evenodd" d="M26 19.5C26 18.3954 25.1046 17.5 24 17.5C22.8954 17.5 22 18.3954 22 19.5V27C22 28.1046 22.8954 29 24 29C25.1046 29 26 28.1046 26 27V19.5ZM26.25 33.75C26.25 34.9926 25.2426 36 24 36C22.7574 36 21.75 34.9926 21.75 33.75C21.75 32.5074 22.7574 31.5 24 31.5C25.2426 31.5 26.25 32.5074 26.25 33.75Z" fill="white"/>
</svg>
