<!--
  - Copyright (c) 2024. Devtron Inc.
  -
  - Licensed under the Apache License, Version 2.0 (the "License");
  - you may not use this file except in compliance with the License.
  - You may obtain a copy of the License at
  -
  -     http://www.apache.org/licenses/LICENSE-2.0
  -
  - Unless required by applicable law or agreed to in writing, software
  - distributed under the License is distributed on an "AS IS" BASIS,
  - WITHOUT WARRANTIES OR CONDITIONS OF ANY KIND, either express or implied.
  - See the License for the specific language governing permissions and
  - limitations under the License.
  -->

<svg width="48" height="48" viewBox="0 0 48 48" fill="none" xmlns="http://www.w3.org/2000/svg">
<path d="M21.403 7.49713L4.90749 35.9957C4.64354 36.4517 4.50434 36.9692 4.50391 37.4961C4.50347 38.023 4.64181 38.5407 4.905 38.9971C5.1682 39.4536 5.54697 39.8327 6.00319 40.0962C6.45942 40.3598 6.97702 40.4986 7.50392 40.4986H40.495C41.0219 40.4986 41.5395 40.3598 41.9957 40.0962C42.452 39.8327 42.8307 39.4536 43.0939 38.9971C43.3571 38.5407 43.4955 38.023 43.495 37.4961C43.4946 36.9692 43.3554 36.4517 43.0914 35.9957L26.5959 7.49713C26.3323 7.04185 25.9537 6.66387 25.498 6.4011C25.0423 6.13832 24.5255 6 23.9995 6C23.4734 6 22.9566 6.13832 22.5009 6.4011C22.0452 6.66387 21.6666 7.04185 21.403 7.49713V7.49713Z" fill="#FFB549"/>
<path fill-rule="evenodd" clip-rule="evenodd" d="M26 19.5C26 18.3954 25.1046 17.5 24 17.5C22.8954 17.5 22 18.3954 22 19.5V27C22 28.1046 22.8954 29 24 29C25.1046 29 26 28.1046 26 27V19.5ZM26.25 33.75C26.25 34.9926 25.2426 36 24 36C22.7574 36 21.75 34.9926 21.75 33.75C21.75 32.5074 22.7574 31.5 24 31.5C25.2426 31.5 26.25 32.5074 26.25 33.75Z" fill="var(--black)"/>
</svg>
