<svg xmlns="http://www.w3.org/2000/svg" width="32" height="32" viewBox="0 0 32 32">
    <g fill="none" fill-rule="evenodd">
        <path d="M0 0h32v32H0z"/>
        <path fill="#FFCB5D" d="M18.315 5.052L29.72 25.01A2.667 2.667 0 0 1 27.405 29H4.595a2.667 2.667 0 0 1-2.315-3.99L13.685 5.052a2.667 2.667 0 0 1 4.63 0z"/>
        <path fill="#FFF" d="M16 22.667a1.333 1.333 0 1 1 0 2.666 1.333 1.333 0 0 1 0-2.666zM16 12c.736 0 1.333.597 1.333 1.333v6.334a1.333 1.333 0 1 1-2.666 0v-6.334c0-.736.597-1.333 1.333-1.333z"/>
    </g>
</svg>
