<svg xmlns="http://www.w3.org/2000/svg" xmlns:xlink="http://www.w3.org/1999/xlink" width="16" height="16" viewBox="0 0 16 16">
    <defs>
        <path id="hzsqazi1ra" d="M8 2c.446 0 .86.242 1.091.638l5.405 9.373c.226.408.228.91.003 1.32-.224.41-.641.664-1.094.669H2.595c-.453-.005-.87-.26-1.094-.67-.225-.408-.223-.91.003-1.319L6.91 2.638C7.14 2.242 7.554 2 8 2zm0 8.667c-.368 0-.667.298-.667.666 0 .369.299.667.667.667.368 0 .667-.298.667-.667 0-.368-.299-.666-.667-.666zm0-5.334c-.368 0-.667.299-.667.667v2.667l.005.077c.038.332.32.59.662.59.368 0 .667-.3.667-.667V6l-.005-.078c-.038-.331-.32-.589-.662-.589z"/>
    </defs>
    <g fill="none" fill-rule="evenodd">
        <g>
            <g>
                <g>
                    <g transform="translate(-1062 -230) translate(1042 96) translate(20 132) translate(0 2)">
                        <use fill="#F33E3E" xlink:href="#hzsqazi1ra"/>
                    </g>
                </g>
            </g>
        </g>
    </g>
</svg>
