<!--
  - Copyright (c) 2024. Devtron Inc.
  -
  - Licensed under the Apache License, Version 2.0 (the "License");
  - you may not use this file except in compliance with the License.
  - You may obtain a copy of the License at
  -
  -     http://www.apache.org/licenses/LICENSE-2.0
  -
  - Unless required by applicable law or agreed to in writing, software
  - distributed under the License is distributed on an "AS IS" BASIS,
  - WITHOUT WARRANTIES OR CONDITIONS OF ANY KIND, either express or implied.
  - See the License for the specific language governing permissions and
  - limitations under the License.
  -->

<svg width="48" height="48" viewBox="0 0 48 48" fill="none" xmlns="http://www.w3.org/2000/svg">
<circle cx="24" cy="24" r="20" fill="var(--N700)"/>
<path d="M23.9849 16.1411C23.4207 16.1411 22.937 15.9395 22.534 15.5365C22.131 15.1335 21.9295 14.6398 21.9295 14.0554C21.9295 13.471 22.131 12.9874 22.534 12.6045C22.937 12.2015 23.4207 12 23.9849 12C24.5693 12 25.063 12.2015 25.466 12.6045C25.869 12.9874 26.0705 13.471 26.0705 14.0554C26.0705 14.6398 25.869 15.1335 25.466 15.5365C25.063 15.9395 24.5693 16.1411 23.9849 16.1411ZM25.738 30.6801H30V33.733H18V30.6801H22.262V21.3401H18V18.2872H25.738V30.6801Z" fill="white"/>
</svg>
