<svg xmlns="http://www.w3.org/2000/svg">
    <defs>
    
                 
       <svg xmlns="http://www.w3.org/2000/svg" width="24" height="24" viewBox="0 0 24 24">
    <g fill="none" fill-rule="evenodd" id="google" class="nav-small-icon">
        <g fill-rule="nonzero">
            <g>
                <g>
                    <g>
                        <path fill="#4285F4" d="M21.597 12.22c0-.821-.066-1.421-.21-2.043h-9.388v3.71h5.51c-.111.922-.711 2.311-2.044 3.244l-.019.125 2.968 2.299.206.02c1.889-1.744 2.977-4.31 2.977-7.354" transform="translate(-949 -339) translate(875 95) translate(0 232) translate(74 12)"/>
                        <path fill="#34A853" d="M11.999 21.997c2.7 0 4.966-.888 6.621-2.422l-3.155-2.444c-.844.59-1.978 1-3.466 1-2.644 0-4.889-1.744-5.689-4.155l-.117.01-3.086 2.389-.04.112c1.644 3.266 5.021 5.51 8.932 5.51" transform="translate(-949 -339) translate(875 95) translate(0 232) translate(74 12)"/>
                        <path fill="#FBBC05" d="M6.31 13.976c-.21-.622-.333-1.289-.333-1.977 0-.69.122-1.356.322-1.978l-.005-.132-3.125-2.427-.103.048C2.39 8.866 2 10.388 2 12c0 1.61.389 3.133 1.066 4.488l3.244-2.51" transform="translate(-949 -339) translate(875 95) translate(0 232) translate(74 12)"/>
                        <path fill="#EB4335" d="M11.999 5.866c1.877 0 3.144.811 3.866 1.489L18.687 4.6C16.954 2.989 14.698 2 11.999 2 8.088 2 4.71 4.244 3.066 7.51L6.3 10.021c.811-2.41 3.056-4.155 5.7-4.155" transform="translate(-949 -339) translate(875 95) translate(0 232) translate(74 12)"/>
                    </g>
                </g>
            </g>
        </g>
    </g>
</svg>
        
    <g id="github" class="nav-small-icon">
        <path fill="#1A1919" d="M11.981 2C6.47 2 2 6.469 2 11.981c0 4.41 2.86 8.152 6.826 9.472.499.092.682-.217.682-.48 0-.238-.01-1.025-.014-1.859-2.776.604-3.362-1.177-3.362-1.177-.454-1.154-1.109-1.461-1.109-1.461-.905-.62.069-.607.069-.607 1.002.07 1.53 1.029 1.53 1.029.89 1.526 2.335 1.085 2.904.83.09-.645.349-1.086.634-1.335-2.217-.253-4.548-1.108-4.548-4.933 0-1.09.39-1.98 1.029-2.68-.104-.25-.445-1.266.097-2.64 0 0 .838-.269 2.745 1.022a9.567 9.567 0 0 1 2.498-.335 9.592 9.592 0 0 1 2.501.335c1.905-1.29 2.742-1.023 2.742-1.023.543 1.375.202 2.39.098 2.642.64.699 1.027 1.59 1.027 2.679 0 3.834-2.335 4.678-4.557 4.925.358.31.677.917.677 1.848 0 1.336-.012 2.41-.012 2.74 0 .265.18.576.686.478a9.983 9.983 0 0 0 6.82-9.47C21.963 6.47 17.493 2 11.98 2"/>
    </g>
    <g id="microsoft" class="nav-small-icon">
                                                        <path d="M0,0 L9.51428571,0 C9.51371429,3.17142857 9.51428571,6.34285714 9.51371429,9.51428571 C6.34285714,9.51428571 3.17142857,9.51428571 0,9.51428571 L0,0" id="Fill-1" fill="#F25022"></path>
                                                        <path d="M10.4857143,0 L20,0 C20,3.17142857 20.0005714,6.34285714 19.9994286,9.51428571 C16.8285714,9.51371429 13.6571429,9.51428571 10.4862857,9.51428571 C10.4851429,6.34285714 10.4857143,3.17142857 10.4857143,0" id="Fill-3" fill="#80BA01"></path>
                                                        <path d="M-4.0602442e-15,10.4851429 C3.17142857,10.4862857 6.34285714,10.4845714 9.51428571,10.4862857 C9.51485714,13.6577143 9.51428571,16.8285714 9.51428571,20 L-4.0602442e-15,20 L-4.0602442e-15,10.4851429" id="Fill-16" fill="#02A4EF"></path>
                                                        <path d="M10.4862857,10.4862857 C13.6571429,10.4851429 16.8285714,10.4857143 20,10.4857143 C20,13.6571429 20,16.8285714 20,20 L10.4857143,20 C10.4862857,16.8285714 10.4851429,13.6571429 10.4862857,10.4862857" id="Fill-17" fill="#FFB902"></path>
                                                    
                            
    </g>
    <g id="openid-connect" class="nav-small-icon">
                                 <g id="Login" stroke="none" stroke-width="1" fill="none" fill-rule="evenodd">
                                        <g id="Login---SSO-options" transform="translate(-917.000000, -531.000000)" fill-rule="nonzero">
                                            <g id="Group-9" transform="translate(875.000000, 95.000000)">
                                                <g id="Group-7" transform="translate(0.000000, 232.000000)">
                                                    <g id="button/large-copy-4" transform="translate(0.000000, 192.000000)">
                                                        <g id="Group-4" transform="translate(42.000000, 12.000000)">
                                                            <g id="g2726" transform="translate(12.000000, 12.300000) scale(-1, 1) rotate(-180.000000) translate(-12.000000, -12.300000) translate(2.000000, 3.000000)">
                                                                <polygon id="path2606" fill="#F8931E" points="9.00908437 16.9793906 9.00908437 1.98510938 9.00908437 0.104390625 12.0090844 1.51635938 12.0090844 18.4449844"></polygon>
                                                                <path d="M9.00908438,0.104371875 L9.00908438,1.98509062 C5.58570938,2.41427812 3.00908438,4.28459062 3.00908438,6.52699687 C3.00908438,8.65268437 5.32536563,10.4428406 8.48249063,10.9893094 L8.48249063,12.8947781 C3.65342813,12.3110906 0.009084375,9.68224687 0.009084375,6.52699687 C0.009084375,3.25802812 3.92080313,0.554278125 9.00908438,0.104371875 Z M19.8127688,7.72965937 L19.398675,12.0294094 L17.8560844,11.1603719 L17.6389472,11.2905062 C16.2382348,12.0915481 14.4830781,12.6586531 12.5356781,12.8940281 L12.5356781,10.9893094 C13.7112765,10.7858455 14.7708519,10.4108515 15.6370211,9.90920502 L14.0112375,8.99190937 L19.8127688,7.72965937 Z" id="Combined-Shape" fill="#B3B3B3"></path>
                                                            </g>
                                                        </g>
                                                    </g>
                                                </g>
                                            </g>
                                        </g>
                                    </g>
        </g>
        <g id="openshift" class="nav-small-icon">
                                <path d="M19.9804351,4.68145177 C19.7568414,4.21961857 19.4980977,3.77389568 19.1978573,3.35355912 L15.9904111,4.52083536 C16.3633926,4.90260445 16.6768143,5.33172853 16.9331171,5.79063255 L19.9804351,4.68145177 L19.9804351,4.68145177 Z M5.80210907,8.22902591 L2.59368648,9.39630199 C2.63469492,9.91086033 2.72354655,10.4190721 2.84803647,10.9170318 L5.89584265,9.80736283 C5.79673891,9.2918281 5.76158882,8.7606711 5.80210907,8.22902591" id="path44560" fill="#C22133"></path>
                                <path d="M12.9224443,3.77282165 C13.589808,4.08429071 14.1678318,4.50902102 14.6555393,5.00698071 L17.8629855,3.83970447 C16.9744692,2.59285248 15.7642319,1.55104271 14.2815814,0.859269305 C9.69595851,-1.27902816 4.22523673,0.711834183 2.08742747,5.29696899 C1.39516587,6.78059593 1.1378867,8.35649187 1.25895925,9.88259184 L4.46689364,8.71531576 C4.52010698,8.02012499 4.68951091,7.32346963 5.00049161,6.65561782 C6.38989677,3.67664708 9.94347377,2.38390469 12.9224443,3.77282165" id="path44564" fill="#DB212E"></path>
                                <path d="M16.3435719,9.63434625 C16.2923113,10.3290488 16.117049,11.0257042 15.8050919,11.6940442 C14.416175,14.673503 10.8621098,15.9662454 7.88362741,14.5773284 C7.2152874,14.2653713 6.63286985,13.8440584 6.14711506,13.3451223 L2.94601541,14.5099574 C3.83257893,15.7568094 5.04135165,16.7991073 6.52497859,17.4913689 C11.1106014,19.6291782 16.5803468,17.6383159 18.7186443,13.052693 C19.4113941,11.5700425 19.6667205,9.99414653 19.5446715,8.46951115 L16.3435719,9.63434625 L16.3435719,9.63434625 Z" id="path44572" fill="#DB212E"></path>
                                <path d="M17.1323517,5.7181843 L14.0845456,6.82736509 C14.6508526,7.84183589 14.9183839,9.00960017 14.8305087,10.1841992 L18.0316083,9.01985228 C17.9398275,7.87112764 17.6337288,6.74974196 17.1323517,5.7181843 M3.04780618,10.8438493 L1.89162792e-15,11.9540065 C0.279736175,13.0651401 0.765490965,14.1211075 1.43334278,15.0608844 L4.63395423,13.8955611 C3.81232075,13.0519588 3.26602969,11.9842746 3.04780618,10.8438493" id="path44576" fill="#EB2126"></path>
                                <path d="M19.515868,3.83643551 C19.4148115,3.67240173 19.3098494,3.51080893 19.1980525,3.3536099 L15.9906063,4.52088613 C16.1316949,4.66539208 16.261555,4.81868555 16.3855567,4.97588459 L19.515868,3.83643551 Z M5.7898534,8.87319827 C5.78204227,8.65936853 5.78544011,8.44456239 5.80203877,8.22926806 L2.59361618,9.39654414 C2.61021483,9.60207456 2.63608921,9.80614039 2.66684554,10.009718 L5.78983387,8.87319827 L5.7898534,8.87319827 Z" id="path44584" fill="#AD213B"></path>
                                <path d="M19.5444763,8.46946037 L16.3433766,9.63429548 C16.3096716,10.0951523 16.2198631,10.5569855 16.0729161,11.0110075 L19.5571693,9.74072215 C19.5820869,9.31501544 19.5781422,8.89028513 19.5444763,8.46946037 M2.94630833,14.5103948 C3.19284719,14.857502 3.46574863,15.1884987 3.76208346,15.500944 L7.24682485,14.2301704 C6.83966958,13.9753322 6.47156997,13.678021 6.14691978,13.3450715 L2.94630833,14.5103948 Z" id="path44588" fill="#BA2133"></path>
                                </g>
        <g id="ldap" class="nav-small-icon">
                                <g id="SSO-Login-Services" stroke="none" stroke-width="1" fill="none" fill-rule="evenodd">
                                        <g id="Global-Config/Login-Service/Configuration" transform="translate(-823.000000, -208.000000)" fill="#CB2026" fill-rule="nonzero">
                                            <g id="Text-Field/Default-Copy-5" transform="translate(439.000000, 168.000000)">
                                                <g id="Account---Google-Copy-3" transform="translate(348.000000, 24.000000)">
                                                    <g id="Icon/Account/ic-ldap" transform="translate(36.000000, 16.000000)">
                                                        <path d="M13.636468,8.13419742 C13.6525132,8.13954797 14.9343445,10.3546748 16.2121645,12.5738124 L16.5181142,13.1053531 C17.6856416,15.1345625 18.7637933,17.0178099 18.7637933,17.037492 C18.7637933,17.0593831 15.8972691,17.0917742 13.053894,17.105656 L12.5378151,17.1079695 C12.0232778,17.1100661 11.5152952,17.1114928 11.0312358,17.1120751 L10.5557941,17.1123694 C9.28287672,17.1123694 8.45922432,17.0981071 8.46630957,17.0802791 C8.47316287,17.0608823 8.60963149,16.8184903 8.83415071,16.4249873 L9.01840017,16.10265 C9.45056361,15.3477308 10.0877965,14.2412391 10.7517439,13.091631 L11.0594286,12.5591043 C12.3439399,10.3368468 13.6257712,8.13063399 13.636468,8.13419742 Z M6.20220281,6.85414372 C6.21646519,6.85058761 6.80835393,7.85251975 7.5143417,9.08264996 C7.60259017,9.23597053 7.69267715,9.39257814 7.78334912,9.55027214 L8.05586641,10.0244127 C8.59939677,10.9704096 9.11885936,11.8762935 9.34349183,12.2667261 L9.88902784,13.2187399 L9.14381853,14.5130508 L8.39504362,15.8109273 L4.69752181,15.8216241 L1,15.8287553 L1.11053344,15.6433444 C1.41208088,15.1176738 1.73087417,14.5629692 2.05590464,13.998233 L2.3357729,13.5121599 C4.20832101,10.2612042 6.18182799,6.85997284 6.20220281,6.85414372 Z M17.8296075,6.84345642 C17.8427289,6.84345642 18.934002,8.71758439 20.110486,10.7492779 L20.418675,11.2817305 C21.705409,13.5057703 22.9908059,15.7396154 22.9997199,15.778837 C23.0086339,15.8144929 22.8095549,15.8253878 21.7132995,15.828029 L18.8707611,15.8287553 L18.8208428,15.7503122 C18.660391,15.4935894 15.7686937,10.4411416 15.7686937,10.4126168 C15.7686937,10.3662641 17.8046483,6.84345642 17.8296075,6.84345642 Z M9.83910951,5.00002191 C9.8457489,4.99781333 9.9486975,5.16273312 10.1084506,5.42732976 L10.2856754,5.7226538 C10.9619921,6.85509018 12.1728528,8.93314088 12.2244924,9.06482198 C12.2387548,9.10047793 11.9071545,9.70662905 11.3259625,10.719258 C10.8196481,11.5963943 10.3810799,12.3629972 10.345424,12.4200467 L10.2848089,12.5198833 L10.195669,12.3843907 C10.1141521,12.2533244 9.6421369,11.4351243 9.14610621,10.5696097 L8.91679822,10.1691116 C8.38399494,9.23764946 7.88872916,8.36547359 7.88872916,8.35170302 C7.88872916,8.2982191 9.79988797,5.01074069 9.83910951,5.00002191 Z" id="Combined-Shape"></path>
                                                    </g>
                                                </g>
                                            </g>
                                        </g>
                                    </g>                                    </g>
        <g id="saml" class="nav-small-icon">
                            <g id="SSO-Login-Services" stroke="none" stroke-width="1" fill="none" fill-rule="evenodd">
                                <g id="Global-Config/Login-Service/Configuration" transform="translate(-931.000000, -208.000000)" fill="#A91E23" fill-rule="nonzero">
                                    <g id="Text-Field/Default-Copy-5" transform="translate(439.000000, 168.000000)">
                                        <g id="Account---Google-Copy-4" transform="translate(456.000000, 24.000000)">
                                            <g id="Icon/Account/ic-saml" transform="translate(36.000000, 16.000000)">
                                                <path d="M14.6230769,9.88461538 C16.4,10.7307692 20.7153846,16.2307692 22.1538462,19.5307692 C16.0615385,21.3076923 10.0538462,22.4923077 3.70769231,21.9846154 C6.33076923,21.7307692 8.86923077,21.5615385 11.3230769,21.1384615 C12.8461538,20.8846154 14.3692308,20.4615385 15.8076923,19.8692308 C18.1769231,18.8538462 18.7692308,17.1615385 17.5846154,14.7923077 C16.7384615,13.1 15.6384615,11.4923077 14.6230769,9.88461538 Z M7.17692308,2.1 C7.00769231,2.43846154 6.92307692,2.77692308 6.75384615,3.03076923 C5.48461538,5.90769231 4.13076923,8.86923077 3.70769231,12.0846154 C3.62307692,12.8461538 3.62307692,13.6076923 3.79230769,14.3692308 C4.04615385,15.5538462 4.80769231,16.5692308 6.07692308,16.5692308 C8.02307692,16.6538462 9.96923077,16.4846154 11.9153846,16.4846154 C12.3384615,16.4846154 12.6769231,16.4 13.1,16.3153846 C9.29230769,18.0076923 5.31538462,18.6 1,18.6 C2.18461538,12.6769231 3.96153846,7.09230769 7.17692308,2.1 Z M11.6615385,1 C16.2307692,5.14615385 20.2923077,9.71538462 23,15.3 C22.2384615,14.2846154 21.5615385,13.1846154 20.8,12.1692308 C19.5307692,10.5615385 18.1769231,8.95384615 16.8230769,7.51538462 C16.0615385,6.75384615 15.1307692,6.16153846 14.2,5.73846154 C12.7615385,5.06153846 11.4076923,5.4 10.5615385,6.75384615 C9.54615385,8.36153846 8.7,10.1384615 7.85384615,11.9153846 C7.68461538,12.2538462 7.51538462,12.6769231 7.34615385,13.0153846 C7.93846154,8.78461538 9.37692308,4.80769231 11.6615385,1 Z" id="Combined-Shape"></path>
                                            </g>
                                        </g>
                                    </g>
                                </g>
                            </g>
                 </g>
        <g id="oidc" class="nav-small-icon">
                <g id="Login" stroke="none" stroke-width="1" fill="none" fill-rule="evenodd">
                <g id="Login---SSO-options" transform="translate(-917.000000, -531.000000)" fill-rule="nonzero">
                    <g id="Group-9" transform="translate(875.000000, 95.000000)">
                        <g id="Group-7" transform="translate(0.000000, 232.000000)">
                            <g id="button/large-copy-4" transform="translate(0.000000, 192.000000)">
                                <g id="Group-4" transform="translate(42.000000, 12.000000)">
                                    <g id="g2726" transform="translate(12.000000, 12.300000) scale(-1, 1) rotate(-180.000000) translate(-12.000000, -12.300000) translate(2.000000, 3.000000)">
                                        <polygon id="path2606" fill="#F8931E" points="9.00908437 16.9793906 9.00908437 1.98510938 9.00908437 0.104390625 12.0090844 1.51635938 12.0090844 18.4449844"></polygon>
                                        <path d="M9.00908438,0.104371875 L9.00908438,1.98509062 C5.58570938,2.41427812 3.00908438,4.28459062 3.00908438,6.52699687 C3.00908438,8.65268437 5.32536563,10.4428406 8.48249063,10.9893094 L8.48249063,12.8947781 C3.65342813,12.3110906 0.009084375,9.68224687 0.009084375,6.52699687 C0.009084375,3.25802812 3.92080313,0.554278125 9.00908438,0.104371875 Z M19.8127688,7.72965937 L19.398675,12.0294094 L17.8560844,11.1603719 L17.6389472,11.2905062 C16.2382348,12.0915481 14.4830781,12.6586531 12.5356781,12.8940281 L12.5356781,10.9893094 C13.7112765,10.7858455 14.7708519,10.4108515 15.6370211,9.90920502 L14.0112375,8.99190937 L19.8127688,7.72965937 Z" id="Combined-Shape" fill="#B3B3B3"></path>
                                    </g>
                                </g>
                            </g>
                        </g>
                    </g>
                </g>
            </g>
        </g>
        <g id="gitlab" class="nav-small-icon" fill="none" fill-rule="evenodd">
            <path d="M0 0h24v24H0z"/>
            <g fill-rule="nonzero">
                <path fill="#FC6D26" d="M21.95 13.522l-1.118-3.439-2.214-6.82a.383.383 0 0 0-.726 0l-2.214 6.816H8.32L6.107 3.262a.382.382 0 0 0-.726 0l-2.21 6.817-1.12 3.443a.762.762 0 0 0 .276.852L12 21.402l9.671-7.028a.763.763 0 0 0 .28-.852"/>
                <path fill="#E24329" d="M12 21.397l3.678-11.318H8.324z"/>
                <path fill="#FC6D26" d="M12 21.397L8.32 10.079H3.174z"/>
                <path fill="#FCA326" d="M3.169 10.082l-1.12 3.44a.762.762 0 0 0 .276.85L12 21.403l-8.831-11.32z"/>
                <path fill="#E24329" d="M3.17 10.082h5.155L6.107 3.266a.383.383 0 0 0-.727 0l-2.21 6.816z"/>
                <path fill="#FC6D26" d="M12 21.397l3.678-11.318h5.156z"/>
                <path fill="#FCA326" d="M20.83 10.082l1.12 3.44a.76.76 0 0 1-.276.85L12 21.398l8.828-11.315h.003z"/>
                <path fill="#E24329" d="M20.833 10.082H15.68l2.214-6.816a.382.382 0 0 1 .726 0l2.214 6.816z"/>
            </g>
        </g>
    </defs>
</svg>
