<svg xmlns="http://www.w3.org/2000/svg">
    <defs>
    <g id="login-google" class="nav-small-icon">
                 <defs xmlns="http://www.w3.org/2000/svg">
                <path d="M9.57434174,2.0487395 C9.57434174,1.34162465 9.51092437,0.66162465 9.3929972,0.00890756303 L0.000616246499,0.00890756303 L0.000616246499,3.8664986 L5.36773109,3.8664986 C5.13652661,5.11305322 4.43389356,6.16929972 3.3777591,6.87641457 L3.3777591,9.37865546 L6.60067227,9.37865546 C8.48644258,7.64246499 9.57434174,5.08588235 9.57434174,2.0487395 L9.57434174,2.0487395 Z" id="path-1"/>
                <path d="M8.96420168,8.0972549 C11.6568067,8.0972549 13.9142857,7.2042577 15.5642577,5.68117647 L12.3413445,3.17893557 C11.4482913,3.77731092 10.3059944,4.13086835 8.96420168,4.13086835 C6.36677871,4.13086835 4.16823529,2.37658263 3.38408964,0.0193837535 L0.05232493,0.0193837535 L0.05232493,2.6032493 C1.69327731,5.86252101 5.06577031,8.0972549 8.96420168,8.0972549 L8.96420168,8.0972549 Z" id="path-3"/>
                <path d="M4.392493,6.40593838 C4.1929972,5.80761905 4.07966387,5.16845938 4.07966387,4.51114846 C4.07966387,3.85389356 4.1929972,3.21473389 4.392493,2.61635854 L4.392493,0.032605042 L1.06072829,0.032605042 C0.385322129,1.37887955 0,2.90196078 0,4.51114846 C0,6.12039216 0.385322129,7.64352941 1.06072829,8.98980392 L4.392493,6.40593838 L4.392493,6.40593838 Z" id="path-5"/>
                <path d="M8.96420168,3.99512605 C10.4283473,3.99512605 11.7429692,4.49831933 12.7764706,5.4864986 L15.6368067,2.62616246 C13.9096919,1.01697479 11.6522689,0.0287394958 8.96420168,0.0287394958 C5.06577031,0.0287394958 1.69327731,2.26352941 0.05232493,5.52280112 L3.38408964,8.10655462 C4.16823529,5.74941176 6.36677871,3.99512605 8.96420168,3.99512605 L8.96420168,3.99512605 Z" id="path-7"/>
            </defs>
                    <g xmlns="http://www.w3.org/2000/svg" id="Login" stroke="none" stroke-width="1" fill="none" fill-rule="evenodd">
        <g id="Login---SSO-options" transform="translate(-949.000000, -339.000000)">
            <g id="Group-9" transform="translate(875.000000, 95.000000)">
                <g id="Group-7" transform="translate(0.000000, 232.000000)">
                    <g id="Group-4" transform="translate(74.000000, 12.000000)">
                        <g id="Group-5" transform="translate(2.000000, 2.000000)">
                            <g id="Group-17" transform="translate(9.971989, 8.179272)">
                                <mask id="mask-2" fill="white">
                                    <use xmlns:xlink="http://www.w3.org/1999/xlink" xlink:href="#path-1"/>
                                </mask>
                                <g id="Clip-16"/>
                                <polygon id="Fill-15" fill="#3F82F1" mask="url(#mask-2)" points="0.000616246499 9.37865546 9.57434174 9.37865546 9.57434174 0.00890756303 0.000616246499 0.00890756303"/>
                            </g>
                            <g id="Group-20" transform="translate(1.008403, 11.876751)">
                                <mask id="mask-4" fill="white">
                                    <use xmlns:xlink="http://www.w3.org/1999/xlink" xlink:href="#path-3"/>
                                </mask>
                                <g id="Clip-19"/>
                                <polygon id="Fill-18" fill="#32A753" mask="url(#mask-4)" points="0.05232493 8.0972549 15.5642577 8.0972549 15.5642577 0.0193837535 0.05232493 0.0193837535"/>
                            </g>
                            <g id="Group-23" transform="translate(0.000000, 5.490196)">
                                <mask id="mask-6" fill="white">
                                    <use xmlns:xlink="http://www.w3.org/1999/xlink" xlink:href="#path-5"/>
                                </mask>
                                <g id="Clip-22"/>
                                <polygon id="Fill-21" fill="#F9BB02" mask="url(#mask-6)" points="0 8.98980392 4.392493 8.98980392 4.392493 0.032605042 0 0.032605042"/>
                            </g>
                            <g id="Group-26" transform="translate(1.008403, 0.000000)">
                                <mask id="mask-8" fill="white">
                                    <use xmlns:xlink="http://www.w3.org/1999/xlink" xlink:href="#path-7"/>
                                </mask>
                                <g id="Clip-25"/>
                                <polygon id="Fill-24" fill="#E74133" mask="url(#mask-8)" points="0.05232493 8.10655462 15.6368067 8.10655462 15.6368067 0.0287394958 0.05232493 0.0287394958"/>
                            </g>
                        </g>
                    </g>
                </g>
            </g>
        </g>
    </g>

    <g xmlns="http://www.w3.org/2000/svg" id="Login---SSO-options" transform="translate(-949.000000, -339.000000)">
            <g id="Group-9" transform="translate(875.000000, 95.000000)">
                <g id="Group-7" transform="translate(0.000000, 232.000000)">
                    <g id="Group-4" transform="translate(74.000000, 12.000000)">
                        <g id="Group-5" transform="translate(2.000000, 2.000000)">
                            <g id="Group-17" transform="translate(9.971989, 8.179272)">
                                <mask id="mask-2" fill="white">
                                    <use xmlns:xlink="http://www.w3.org/1999/xlink" xlink:href="#path-1"/>
                                </mask>
                                <g id="Clip-16"/>
                                <polygon id="Fill-15" fill="#3F82F1" mask="url(#mask-2)" points="0.000616246499 9.37865546 9.57434174 9.37865546 9.57434174 0.00890756303 0.000616246499 0.00890756303"/>
                            </g>
                            <g id="Group-20" transform="translate(1.008403, 11.876751)">
                                <mask id="mask-4" fill="white">
                                    <use xmlns:xlink="http://www.w3.org/1999/xlink" xlink:href="#path-3"/>
                                </mask>
                                <g id="Clip-19"/>
                                <polygon id="Fill-18" fill="#32A753" mask="url(#mask-4)" points="0.05232493 8.0972549 15.5642577 8.0972549 15.5642577 0.0193837535 0.05232493 0.0193837535"/>
                            </g>
                            <g id="Group-23" transform="translate(0.000000, 5.490196)">
                                <mask id="mask-6" fill="white">
                                    <use xmlns:xlink="http://www.w3.org/1999/xlink" xlink:href="#path-5"/>
                                </mask>
                                <g id="Clip-22"/>
                                <polygon id="Fill-21" fill="#F9BB02" mask="url(#mask-6)" points="0 8.98980392 4.392493 8.98980392 4.392493 0.032605042 0 0.032605042"/>
                            </g>
                            <g id="Group-26" transform="translate(1.008403, 0.000000)">
                                <mask id="mask-8" fill="white">
                                    <use xmlns:xlink="http://www.w3.org/1999/xlink" xlink:href="#path-7"/>
                                </mask>
                                <g id="Clip-25"/>
                                <polygon id="Fill-24" fill="#E74133" mask="url(#mask-8)" points="0.05232493 8.10655462 15.6368067 8.10655462 15.6368067 0.0287394958 0.05232493 0.0287394958"/>
                            </g>
                        </g>
                    </g>
                </g>
            </g>
        </g>
    </g>
    <g id="login-github" class="nav-small-icon">
        <path fill="#1A1919" d="M11.981 2C6.47 2 2 6.469 2 11.981c0 4.41 2.86 8.152 6.826 9.472.499.092.682-.217.682-.48 0-.238-.01-1.025-.014-1.859-2.776.604-3.362-1.177-3.362-1.177-.454-1.154-1.109-1.461-1.109-1.461-.905-.62.069-.607.069-.607 1.002.07 1.53 1.029 1.53 1.029.89 1.526 2.335 1.085 2.904.83.09-.645.349-1.086.634-1.335-2.217-.253-4.548-1.108-4.548-4.933 0-1.09.39-1.98 1.029-2.68-.104-.25-.445-1.266.097-2.64 0 0 .838-.269 2.745 1.022a9.567 9.567 0 0 1 2.498-.335 9.592 9.592 0 0 1 2.501.335c1.905-1.29 2.742-1.023 2.742-1.023.543 1.375.202 2.39.098 2.642.64.699 1.027 1.59 1.027 2.679 0 3.834-2.335 4.678-4.557 4.925.358.31.677.917.677 1.848 0 1.336-.012 2.41-.012 2.74 0 .265.18.576.686.478a9.983 9.983 0 0 0 6.82-9.47C21.963 6.47 17.493 2 11.98 2"/>
    </g>
    <g id="login-microsoft" class="nav-small-icon">
                                                        <path d="M0,0 L9.51428571,0 C9.51371429,3.17142857 9.51428571,6.34285714 9.51371429,9.51428571 C6.34285714,9.51428571 3.17142857,9.51428571 0,9.51428571 L0,0" id="Fill-1" fill="#F25022"></path>
                                                        <path d="M10.4857143,0 L20,0 C20,3.17142857 20.0005714,6.34285714 19.9994286,9.51428571 C16.8285714,9.51371429 13.6571429,9.51428571 10.4862857,9.51428571 C10.4851429,6.34285714 10.4857143,3.17142857 10.4857143,0" id="Fill-3" fill="#80BA01"></path>
                                                        <path d="M-4.0602442e-15,10.4851429 C3.17142857,10.4862857 6.34285714,10.4845714 9.51428571,10.4862857 C9.51485714,13.6577143 9.51428571,16.8285714 9.51428571,20 L-4.0602442e-15,20 L-4.0602442e-15,10.4851429" id="Fill-16" fill="#02A4EF"></path>
                                                        <path d="M10.4862857,10.4862857 C13.6571429,10.4851429 16.8285714,10.4857143 20,10.4857143 C20,13.6571429 20,16.8285714 20,20 L10.4857143,20 C10.4862857,16.8285714 10.4851429,13.6571429 10.4862857,10.4862857" id="Fill-17" fill="#FFB902"></path>
                                                    
                            
    </g>
    <g id="login-openid-connect" class="nav-small-icon">
                                 <g id="Login" stroke="none" stroke-width="1" fill="none" fill-rule="evenodd">
                                        <g id="Login---SSO-options" transform="translate(-917.000000, -531.000000)" fill-rule="nonzero">
                                            <g id="Group-9" transform="translate(875.000000, 95.000000)">
                                                <g id="Group-7" transform="translate(0.000000, 232.000000)">
                                                    <g id="button/large-copy-4" transform="translate(0.000000, 192.000000)">
                                                        <g id="Group-4" transform="translate(42.000000, 12.000000)">
                                                            <g id="g2726" transform="translate(12.000000, 12.300000) scale(-1, 1) rotate(-180.000000) translate(-12.000000, -12.300000) translate(2.000000, 3.000000)">
                                                                <polygon id="path2606" fill="#F8931E" points="9.00908437 16.9793906 9.00908437 1.98510938 9.00908437 0.104390625 12.0090844 1.51635938 12.0090844 18.4449844"></polygon>
                                                                <path d="M9.00908438,0.104371875 L9.00908438,1.98509062 C5.58570938,2.41427812 3.00908438,4.28459062 3.00908438,6.52699687 C3.00908438,8.65268437 5.32536563,10.4428406 8.48249063,10.9893094 L8.48249063,12.8947781 C3.65342813,12.3110906 0.009084375,9.68224687 0.009084375,6.52699687 C0.009084375,3.25802812 3.92080313,0.554278125 9.00908438,0.104371875 Z M19.8127688,7.72965937 L19.398675,12.0294094 L17.8560844,11.1603719 L17.6389472,11.2905062 C16.2382348,12.0915481 14.4830781,12.6586531 12.5356781,12.8940281 L12.5356781,10.9893094 C13.7112765,10.7858455 14.7708519,10.4108515 15.6370211,9.90920502 L14.0112375,8.99190937 L19.8127688,7.72965937 Z" id="Combined-Shape" fill="#B3B3B3"></path>
                                                            </g>
                                                        </g>
                                                    </g>
                                                </g>
                                            </g>
                                        </g>
                                    </g>
    </g>
    <g id="login-openshift" class="nav-small-icon">
                                <path d="M19.9804351,4.68145177 C19.7568414,4.21961857 19.4980977,3.77389568 19.1978573,3.35355912 L15.9904111,4.52083536 C16.3633926,4.90260445 16.6768143,5.33172853 16.9331171,5.79063255 L19.9804351,4.68145177 L19.9804351,4.68145177 Z M5.80210907,8.22902591 L2.59368648,9.39630199 C2.63469492,9.91086033 2.72354655,10.4190721 2.84803647,10.9170318 L5.89584265,9.80736283 C5.79673891,9.2918281 5.76158882,8.7606711 5.80210907,8.22902591" id="path44560" fill="#C22133"></path>
                                <path d="M12.9224443,3.77282165 C13.589808,4.08429071 14.1678318,4.50902102 14.6555393,5.00698071 L17.8629855,3.83970447 C16.9744692,2.59285248 15.7642319,1.55104271 14.2815814,0.859269305 C9.69595851,-1.27902816 4.22523673,0.711834183 2.08742747,5.29696899 C1.39516587,6.78059593 1.1378867,8.35649187 1.25895925,9.88259184 L4.46689364,8.71531576 C4.52010698,8.02012499 4.68951091,7.32346963 5.00049161,6.65561782 C6.38989677,3.67664708 9.94347377,2.38390469 12.9224443,3.77282165" id="path44564" fill="#DB212E"></path>
                                <path d="M16.3435719,9.63434625 C16.2923113,10.3290488 16.117049,11.0257042 15.8050919,11.6940442 C14.416175,14.673503 10.8621098,15.9662454 7.88362741,14.5773284 C7.2152874,14.2653713 6.63286985,13.8440584 6.14711506,13.3451223 L2.94601541,14.5099574 C3.83257893,15.7568094 5.04135165,16.7991073 6.52497859,17.4913689 C11.1106014,19.6291782 16.5803468,17.6383159 18.7186443,13.052693 C19.4113941,11.5700425 19.6667205,9.99414653 19.5446715,8.46951115 L16.3435719,9.63434625 L16.3435719,9.63434625 Z" id="path44572" fill="#DB212E"></path>
                                <path d="M17.1323517,5.7181843 L14.0845456,6.82736509 C14.6508526,7.84183589 14.9183839,9.00960017 14.8305087,10.1841992 L18.0316083,9.01985228 C17.9398275,7.87112764 17.6337288,6.74974196 17.1323517,5.7181843 M3.04780618,10.8438493 L1.89162792e-15,11.9540065 C0.279736175,13.0651401 0.765490965,14.1211075 1.43334278,15.0608844 L4.63395423,13.8955611 C3.81232075,13.0519588 3.26602969,11.9842746 3.04780618,10.8438493" id="path44576" fill="#EB2126"></path>
                                <path d="M19.515868,3.83643551 C19.4148115,3.67240173 19.3098494,3.51080893 19.1980525,3.3536099 L15.9906063,4.52088613 C16.1316949,4.66539208 16.261555,4.81868555 16.3855567,4.97588459 L19.515868,3.83643551 Z M5.7898534,8.87319827 C5.78204227,8.65936853 5.78544011,8.44456239 5.80203877,8.22926806 L2.59361618,9.39654414 C2.61021483,9.60207456 2.63608921,9.80614039 2.66684554,10.009718 L5.78983387,8.87319827 L5.7898534,8.87319827 Z" id="path44584" fill="#AD213B"></path>
                                <path d="M19.5444763,8.46946037 L16.3433766,9.63429548 C16.3096716,10.0951523 16.2198631,10.5569855 16.0729161,11.0110075 L19.5571693,9.74072215 C19.5820869,9.31501544 19.5781422,8.89028513 19.5444763,8.46946037 M2.94630833,14.5103948 C3.19284719,14.857502 3.46574863,15.1884987 3.76208346,15.500944 L7.24682485,14.2301704 C6.83966958,13.9753322 6.47156997,13.678021 6.14691978,13.3450715 L2.94630833,14.5103948 Z" id="path44588" fill="#BA2133"></path>
                                </g>
    
    </defs>
</svg>
