<svg xmlns="http://www.w3.org/2000/svg">
    <defs>
    <g id="nav-short-search" class="nav-small-icon">
        <path fill="#fff" d="M10 2a8 8 0 0 1 6.32 12.905l5.044 5.045a1 1 0 1 1-1.414 1.414l-5.045-5.043A8 8 0 1 1 10 2zm0 2a6 6 0 1 0 0 12 6 6 0 0 0 0-12z"/>
    </g>
    <g id="nav-short-devtron-logo" class="nav-small-icon">
        <path fill="#fff" d="M27.414 9.066a1.583 1.583 0 0 1 1.703.867l5.518 8.602c.476.74.487 1.686.028 2.437L27.65 32.438a2.488 2.488 0 0 1-2.12 1.19l-10.2.009c-.022 0-.045 0-.067-.002-.995-.046-1.545-1.182-1-2.016l7.03-10.757c.263-.549.88-.895 1.555-.744.5.112.905.518 1.02 1.017.077.343.026.67-.114.944v.002a1.41 1.41 0 0 1-.15.23l-1.07 1.653a.764.764 0 0 0 .552 1.182l2.591.186c.481.034.955-.131 1.311-.457.466-.55 2.534-3.92 3.477-5.498a1.479 1.479 0 0 0-.08-1.626l.01-.006-3.32-5.166-.624-.98a1.587 1.587 0 0 1-.17-.266l-.022-.036a1.588 1.588 0 0 1 1.156-2.23zM14.532 7l10.199.036.068.002c.995.052 1.54 1.19.991 2.021l-7.078 10.726c-.266.547-.884.89-1.559.736A1.366 1.366 0 0 1 16.14 19.5a1.383 1.383 0 0 1 .117-.943l.001-.003c.044-.083.094-.159.15-.23l1.078-1.647a.764.764 0 0 0-.547-1.185l-2.59-.196a1.754 1.754 0 0 0-1.313.45c-.47.549-2.552 3.908-3.502 5.483a1.48 1.48 0 0 0 .074 1.627l-.012.005 3.299 5.18.618.983c.065.083.121.172.168.267l.023.037a1.588 1.588 0 0 1-1.166 2.225 1.583 1.583 0 0 1-1.698-.875l-5.48-8.626a2.292 2.292 0 0 1-.017-2.437L12.407 8.18A2.488 2.488 0 0 1 14.532 7z"/>
    </g>
    <g id="nav-short-apps" class="nav-small-icon">
        <path fill-rule="evenodd" d="M20.75 17c.69 0 1.25.56 1.25 1.25v2.5c0 .69-.56 1.25-1.25 1.25h-2.5c-.69 0-1.25-.56-1.25-1.25v-2.5c0-.69.56-1.25 1.25-1.25h2.5zm-7.5 0c.69 0 1.25.56 1.25 1.25v2.5c0 .69-.56 1.25-1.25 1.25h-2.5c-.69 0-1.25-.56-1.25-1.25v-2.5c0-.69.56-1.25 1.25-1.25h2.5zm-7.5 0c.69 0 1.25.56 1.25 1.25v2.5C7 21.44 6.44 22 5.75 22h-2.5C2.56 22 2 21.44 2 20.75v-2.5c0-.69.56-1.25 1.25-1.25h2.5zm15-7.5c.69 0 1.25.56 1.25 1.25v2.5c0 .69-.56 1.25-1.25 1.25h-2.5c-.69 0-1.25-.56-1.25-1.25v-2.5c0-.69.56-1.25 1.25-1.25h2.5zm-7.5 0c.69 0 1.25.56 1.25 1.25v2.5c0 .69-.56 1.25-1.25 1.25h-2.5c-.69 0-1.25-.56-1.25-1.25v-2.5c0-.69.56-1.25 1.25-1.25h2.5zm-7.5 0c.69 0 1.25.56 1.25 1.25v2.5c0 .69-.56 1.25-1.25 1.25h-2.5c-.69 0-1.25-.56-1.25-1.25v-2.5c0-.69.56-1.25 1.25-1.25h2.5zm15-7.5c.69 0 1.25.56 1.25 1.25v2.5C22 6.44 21.44 7 20.75 7h-2.5C17.56 7 17 6.44 17 5.75v-2.5c0-.69.56-1.25 1.25-1.25h2.5zm-7.5 0c.69 0 1.25.56 1.25 1.25v2.5c0 .69-.56 1.25-1.25 1.25h-2.5c-.69 0-1.25-.56-1.25-1.25v-2.5c0-.69.56-1.25 1.25-1.25h2.5zm-7.5 0C6.44 2 7 2.56 7 3.25v2.5C7 6.44 6.44 7 5.75 7h-2.5C2.56 7 2 6.44 2 5.75v-2.5C2 2.56 2.56 2 3.25 2h2.5z"/>
    </g>
    <g id="nav-short-helm" class="nav-small-icon">
        <path fill-rule="evenodd" d="M12 0a1 1 0 0 1 1 1v2c0 .019 0 .037-.002.056A8.947 8.947 0 0 1 17.62 4.97l.037-.041 1.414-1.414a1 1 0 0 1 1.414 1.414l-1.414 1.414a1.016 1.016 0 0 1-.04.039 8.949 8.949 0 0 1 1.914 4.621L21 11h2a1 1 0 0 1 0 2h-2c-.019 0-.038 0-.056-.002a8.942 8.942 0 0 1-1.914 4.622l.041.037 1.414 1.414a1 1 0 0 1-1.414 1.414l-1.414-1.414a1.016 1.016 0 0 1-.039-.04 8.949 8.949 0 0 1-4.62 1.914L13 21v2a1 1 0 0 1-2 0v-2c0-.019 0-.038.002-.056A8.941 8.941 0 0 1 6.38 19.03l-.037.041-1.414 1.414a1 1 0 1 1-1.414-1.414l1.414-1.414.04-.039a8.949 8.949 0 0 1-1.914-4.62L3 13H1a1 1 0 0 1 0-2h2c.019 0 .037 0 .056.002A8.946 8.946 0 0 1 4.97 6.38l-.041-.037L3.515 4.93a1 1 0 1 1 1.414-1.414l1.414 1.414.039.04a8.949 8.949 0 0 1 4.621-1.914L11 3V1a1 1 0 0 1 1-1zm0 5a7 7 0 1 0 0 14 7 7 0 0 0 0-14zm0 2a5 5 0 1 1 0 10 5 5 0 0 1 0-10zm0 2a3 3 0 1 0 0 6 3 3 0 0 0 0-6z"/>
    </g>
    <g id="nav-short-global" class="nav-small-icon">
        <path fill-rule="evenodd" d="M10.08 1.4h3.84c.687 0 1.28.464 1.443 1.132l.027.136.283 2c.192.097.38.201.566.313l.275.176 1.938-.778c.623-.207 1.32.004 1.695.544l.075.12L22.16 8.4c.309.583.197 1.31-.28 1.773l-.108.095-1.588 1.24c.01.162.016.326.016.492l-.004.243-.011.244 1.559 1.233c.558.418.73 1.145.452 1.778l-.066.134-1.912 3.31a1.476 1.476 0 0 1-1.695.705l-.14-.047-1.883-.757c-.182.12-.367.233-.555.337l-.284.15-.299 2.101a1.456 1.456 0 0 1-1.303 1.163l-.139.006h-3.84c-.676 0-1.24-.445-1.434-1.12l-.036-.148-.283-2a7.84 7.84 0 0 1-.566-.313l-.275-.176-1.938.778c-.623.207-1.32-.004-1.695-.544l-.075-.12L1.84 15.6a1.499 1.499 0 0 1 .28-1.773l.108-.095 1.589-1.24A7.245 7.245 0 0 1 3.8 12l.006-.245.016-.252-1.566-1.223a1.462 1.462 0 0 1-.452-1.778l.066-.134 1.912-3.31a1.476 1.476 0 0 1 1.695-.705l.14.047 1.883.757c.182-.12.367-.233.555-.337l.284-.15.284-2.01a1.467 1.467 0 0 1 1.32-1.254l.137-.006h3.84-3.84zm3.394 2h-2.936l-.376 2.66-.532.218a5.998 5.998 0 0 0-1.122.611l-.273.197-.451.34L5.3 6.429 3.83 8.972l2.135 1.667-.094.583A5.016 5.016 0 0 0 5.8 12c0 .176.01.356.027.527l.032.251.094.583-2.134 1.667 1.469 2.544 2.486-1 .452.345c.36.274.722.497 1.103.678l.289.127.532.217.375 2.661h2.937l.376-2.66.532-.218a5.998 5.998 0 0 0 1.122-.611l.273-.197.451-.34 2.484.998 1.47-2.547-2.09-1.652.067-.556A6.81 6.81 0 0 0 18.2 12c0-.181-.009-.357-.026-.527l-.033-.251-.094-.583 2.134-1.667-1.469-2.544-2.486 1-.452-.345a6.169 6.169 0 0 0-1.103-.678l-.289-.127-.532-.217-.376-2.661zM12 7.4a4.61 4.61 0 0 1 4.6 4.6 4.61 4.61 0 0 1-4.6 4.6A4.61 4.61 0 0 1 7.4 12 4.61 4.61 0 0 1 12 7.4zm0 2A2.61 2.61 0 0 0 9.4 12a2.61 2.61 0 0 0 2.6 2.6 2.61 2.61 0 0 0 2.6-2.6A2.61 2.61 0 0 0 12 9.4z"/>
    </g>
    <g id="nav-short-bulk-actions" class="nav-small-icon">
        <path fill-rule="nonzero" d="M21.987 3.393a1.258 1.258 0 0 0-.355-1.067 1.172 1.172 0 0 0-.955-.317C13.49 2.883 9.372 6.103 7.02 9.273l-1.1-.057a2.83 2.83 0 0 0-2.149.826l-1.718 1.72a.18.18 0 0 0 .057.29l2.74 1.137a15.82 15.82 0 0 0-.737 2.401.888.888 0 0 0 .238.817l3.251 3.242a.888.888 0 0 0 .816.239 15.824 15.824 0 0 0 2.401-.738l1.136 2.74a.179.179 0 0 0 .291.058l1.719-1.719a2.834 2.834 0 0 0 .825-2.149l-.057-1.1c3.162-2.328 6.368-6.439 7.255-13.587zm-8.114 6.75a2.027 2.027 0 1 1 1.428.595 2.026 2.026 0 0 1-1.435-.598l.007.002z"/>
    </g>
    <g id="nav-security" class="nav-small-icon">
        <path fill="#FFF" d="M7.637 2.397c.39-.39 1.023-.39 1.414 0l1.07 1.071C10.68 3.169 11.32 3 12 3c.709 0 1.375.184 1.952.508l1.112-1.11c.39-.391 1.023-.391 1.414 0 .36.36.388.927.083 1.32l-.083.093-1.079 1.08c.211.339.373.712.475 1.108L16 6c1.312 0 2.427.842 2.835 2.016l.048-.01L19 8h2c.552 0 1 .448 1 1 0 .513-.386.936-.883.993L21 10h-2v3h2c.552 0 1 .448 1 1 0 .513-.386.936-.883.993L21 15h-2c0 3.866-3.134 7-7 7s-7-3.134-7-7H3c-.552 0-1-.448-1-1 0-.513.386-.936.883-.993L3 13h2v-3H3c-.552 0-1-.448-1-1 0-.513.386-.936.883-.993L3 8h2c.057 0 .112.005.166.014C5.573 6.842 6.688 6 8 6h.126c.11-.425.286-.822.52-1.18l-1.01-1.009-.083-.094c-.305-.392-.277-.96.084-1.32zM11 13H7V15c0 2.419 1.718 4.437 4 4.9V13zm6 0h-4l.001 6.9c2.213-.45 3.895-2.36 3.994-4.682L17 15v-2zM16 8H8c-.552 0-1 .448-1 1v2h10V9c0-.513-.386-.936-.883-.993L16 8zm-4-3c-.445 0-.856.145-1.188.391-.026.035-.054.067-.084.097-.03.03-.062.058-.094.084l-.101.07c-.101.108-.19.228-.265.358l3.464-.001C13.386 5.402 12.74 5 12 5z"/>
    </g>
    </defs>
</svg>
