<svg xmlns="http://www.w3.org/2000/svg">
    <defs>
    <g id="nav-short-search" class="nav-small-icon">
        <path fill="#fff" d="M10 2a8 8 0 0 1 6.32 12.905l5.044 5.045a1 1 0 1 1-1.414 1.414l-5.045-5.043A8 8 0 1 1 10 2zm0 2a6 6 0 1 0 0 12 6 6 0 0 0 0-12z"/>
    </g>
    <g id="nav-short-devtron-logo" class="nav-small-icon">
        <path fill="#fff" d="M27.414 9.066a1.583 1.583 0 0 1 1.703.867l5.518 8.602c.476.74.487 1.686.028 2.437L27.65 32.438a2.488 2.488 0 0 1-2.12 1.19l-10.2.009c-.022 0-.045 0-.067-.002-.995-.046-1.545-1.182-1-2.016l7.03-10.757c.263-.549.88-.895 1.555-.744.5.112.905.518 1.02 1.017.077.343.026.67-.114.944v.002a1.41 1.41 0 0 1-.15.23l-1.07 1.653a.764.764 0 0 0 .552 1.182l2.591.186c.481.034.955-.131 1.311-.457.466-.55 2.534-3.92 3.477-5.498a1.479 1.479 0 0 0-.08-1.626l.01-.006-3.32-5.166-.624-.98a1.587 1.587 0 0 1-.17-.266l-.022-.036a1.588 1.588 0 0 1 1.156-2.23zM14.532 7l10.199.036.068.002c.995.052 1.54 1.19.991 2.021l-7.078 10.726c-.266.547-.884.89-1.559.736A1.366 1.366 0 0 1 16.14 19.5a1.383 1.383 0 0 1 .117-.943l.001-.003c.044-.083.094-.159.15-.23l1.078-1.647a.764.764 0 0 0-.547-1.185l-2.59-.196a1.754 1.754 0 0 0-1.313.45c-.47.549-2.552 3.908-3.502 5.483a1.48 1.48 0 0 0 .074 1.627l-.012.005 3.299 5.18.618.983c.065.083.121.172.168.267l.023.037a1.588 1.588 0 0 1-1.166 2.225 1.583 1.583 0 0 1-1.698-.875l-5.48-8.626a2.292 2.292 0 0 1-.017-2.437L12.407 8.18A2.488 2.488 0 0 1 14.532 7z"/>
    </g>
    <g id="nav-short-apps" class="nav-small-icon">
        <path fill-rule="evenodd" d="M20.75 17c.69 0 1.25.56 1.25 1.25v2.5c0 .69-.56 1.25-1.25 1.25h-2.5c-.69 0-1.25-.56-1.25-1.25v-2.5c0-.69.56-1.25 1.25-1.25h2.5zm-7.5 0c.69 0 1.25.56 1.25 1.25v2.5c0 .69-.56 1.25-1.25 1.25h-2.5c-.69 0-1.25-.56-1.25-1.25v-2.5c0-.69.56-1.25 1.25-1.25h2.5zm-7.5 0c.69 0 1.25.56 1.25 1.25v2.5C7 21.44 6.44 22 5.75 22h-2.5C2.56 22 2 21.44 2 20.75v-2.5c0-.69.56-1.25 1.25-1.25h2.5zm15-7.5c.69 0 1.25.56 1.25 1.25v2.5c0 .69-.56 1.25-1.25 1.25h-2.5c-.69 0-1.25-.56-1.25-1.25v-2.5c0-.69.56-1.25 1.25-1.25h2.5zm-7.5 0c.69 0 1.25.56 1.25 1.25v2.5c0 .69-.56 1.25-1.25 1.25h-2.5c-.69 0-1.25-.56-1.25-1.25v-2.5c0-.69.56-1.25 1.25-1.25h2.5zm-7.5 0c.69 0 1.25.56 1.25 1.25v2.5c0 .69-.56 1.25-1.25 1.25h-2.5c-.69 0-1.25-.56-1.25-1.25v-2.5c0-.69.56-1.25 1.25-1.25h2.5zm15-7.5c.69 0 1.25.56 1.25 1.25v2.5C22 6.44 21.44 7 20.75 7h-2.5C17.56 7 17 6.44 17 5.75v-2.5c0-.69.56-1.25 1.25-1.25h2.5zm-7.5 0c.69 0 1.25.56 1.25 1.25v2.5c0 .69-.56 1.25-1.25 1.25h-2.5c-.69 0-1.25-.56-1.25-1.25v-2.5c0-.69.56-1.25 1.25-1.25h2.5zm-7.5 0C6.44 2 7 2.56 7 3.25v2.5C7 6.44 6.44 7 5.75 7h-2.5C2.56 7 2 6.44 2 5.75v-2.5C2 2.56 2.56 2 3.25 2h2.5z"/>
    </g>
    <g id="nav-short-helm" class="nav-small-icon">
        <path fill-rule="evenodd" d="M12 0a1 1 0 0 1 1 1v2c0 .019 0 .037-.002.056A8.947 8.947 0 0 1 17.62 4.97l.037-.041 1.414-1.414a1 1 0 0 1 1.414 1.414l-1.414 1.414a1.016 1.016 0 0 1-.04.039 8.949 8.949 0 0 1 1.914 4.621L21 11h2a1 1 0 0 1 0 2h-2c-.019 0-.038 0-.056-.002a8.942 8.942 0 0 1-1.914 4.622l.041.037 1.414 1.414a1 1 0 0 1-1.414 1.414l-1.414-1.414a1.016 1.016 0 0 1-.039-.04 8.949 8.949 0 0 1-4.62 1.914L13 21v2a1 1 0 0 1-2 0v-2c0-.019 0-.038.002-.056A8.941 8.941 0 0 1 6.38 19.03l-.037.041-1.414 1.414a1 1 0 1 1-1.414-1.414l1.414-1.414.04-.039a8.949 8.949 0 0 1-1.914-4.62L3 13H1a1 1 0 0 1 0-2h2c.019 0 .037 0 .056.002A8.946 8.946 0 0 1 4.97 6.38l-.041-.037L3.515 4.93a1 1 0 1 1 1.414-1.414l1.414 1.414.039.04a8.949 8.949 0 0 1 4.621-1.914L11 3V1a1 1 0 0 1 1-1zm0 5a7 7 0 1 0 0 14 7 7 0 0 0 0-14zm0 2a5 5 0 1 1 0 10 5 5 0 0 1 0-10zm0 2a3 3 0 1 0 0 6 3 3 0 0 0 0-6z"/>
    </g>
    <g id="nav-security" class="nav-small-icon">
        <path fill="#FFF" d="M7.637 2.397c.39-.39 1.023-.39 1.414 0l1.07 1.071C10.68 3.169 11.32 3 12 3c.709 0 1.375.184 1.952.508l1.112-1.11c.39-.391 1.023-.391 1.414 0 .36.36.388.927.083 1.32l-.083.093-1.079 1.08c.211.339.373.712.475 1.108L16 6c1.312 0 2.427.842 2.835 2.016l.048-.01L19 8h2c.552 0 1 .448 1 1 0 .513-.386.936-.883.993L21 10h-2v3h2c.552 0 1 .448 1 1 0 .513-.386.936-.883.993L21 15h-2c0 3.866-3.134 7-7 7s-7-3.134-7-7H3c-.552 0-1-.448-1-1 0-.513.386-.936.883-.993L3 13h2v-3H3c-.552 0-1-.448-1-1 0-.513.386-.936.883-.993L3 8h2c.057 0 .112.005.166.014C5.573 6.842 6.688 6 8 6h.126c.11-.425.286-.822.52-1.18l-1.01-1.009-.083-.094c-.305-.392-.277-.96.084-1.32zM11 13H7V15c0 2.419 1.718 4.437 4 4.9V13zm6 0h-4l.001 6.9c2.213-.45 3.895-2.36 3.994-4.682L17 15v-2zM16 8H8c-.552 0-1 .448-1 1v2h10V9c0-.513-.386-.936-.883-.993L16 8zm-4-3c-.445 0-.856.145-1.188.391-.026.035-.054.067-.084.097-.03.03-.062.058-.094.084l-.101.07c-.101.108-.19.228-.265.358l3.464-.001C13.386 5.402 12.74 5 12 5z"/>
    </g>
     <g id="nav-bulk-update" >
        <path d="M11.613 3.531c.414.104.652.605.565 1.153l-.025.127-2.688 10.781c-.149.596-.631.988-1.078.877-.414-.104-.652-.605-.565-1.153l.025-.127 2.688-10.781c.149-.596.631-.988 1.078-.877zm-5.81 2.344c.302.302.324.779.065 1.106l-.065.073L2.857 10l2.946 2.946c.302.302.324.779.065 1.106l-.065.073c-.302.302-.778.324-1.106.065l-.072-.065-3.536-3.536c-.302-.302-.324-.778-.064-1.106l.064-.072 3.536-3.536c.325-.325.853-.325 1.178 0zm8.358 0c.325-.325.853-.325 1.178 0l3.536 3.536.065.072c.259.328.237.804-.065 1.106l-3.536 3.536-.072.065c-.328.259-.804.237-1.106-.065l-.065-.073c-.259-.327-.237-.804.065-1.106L17.107 10l-2.946-2.946-.065-.073c-.259-.327-.237-.804.065-1.106z" transform="translate(-22.000000, -394.000000) translate(12.000000, 384.000000) translate(10.000000, 10.000000)"/>
    </g>
    <g id="nav-short-global" class="nav-small-icon">
        <path fill-rule="evenodd" d="M10.08 1.4h3.84c.687 0 1.28.464 1.443 1.132l.027.136.283 2c.192.097.38.201.566.313l.275.176 1.938-.778c.623-.207 1.32.004 1.695.544l.075.12L22.16 8.4c.309.583.197 1.31-.28 1.773l-.108.095-1.588 1.24c.01.162.016.326.016.492l-.004.243-.011.244 1.559 1.233c.558.418.73 1.145.452 1.778l-.066.134-1.912 3.31a1.476 1.476 0 0 1-1.695.705l-.14-.047-1.883-.757c-.182.12-.367.233-.555.337l-.284.15-.299 2.101a1.456 1.456 0 0 1-1.303 1.163l-.139.006h-3.84c-.676 0-1.24-.445-1.434-1.12l-.036-.148-.283-2a7.84 7.84 0 0 1-.566-.313l-.275-.176-1.938.778c-.623.207-1.32-.004-1.695-.544l-.075-.12L1.84 15.6a1.499 1.499 0 0 1 .28-1.773l.108-.095 1.589-1.24A7.245 7.245 0 0 1 3.8 12l.006-.245.016-.252-1.566-1.223a1.462 1.462 0 0 1-.452-1.778l.066-.134 1.912-3.31a1.476 1.476 0 0 1 1.695-.705l.14.047 1.883.757c.182-.12.367-.233.555-.337l.284-.15.284-2.01a1.467 1.467 0 0 1 1.32-1.254l.137-.006h3.84-3.84zm3.394 2h-2.936l-.376 2.66-.532.218a5.998 5.998 0 0 0-1.122.611l-.273.197-.451.34L5.3 6.429 3.83 8.972l2.135 1.667-.094.583A5.016 5.016 0 0 0 5.8 12c0 .176.01.356.027.527l.032.251.094.583-2.134 1.667 1.469 2.544 2.486-1 .452.345c.36.274.722.497 1.103.678l.289.127.532.217.375 2.661h2.937l.376-2.66.532-.218a5.998 5.998 0 0 0 1.122-.611l.273-.197.451-.34 2.484.998 1.47-2.547-2.09-1.652.067-.556A6.81 6.81 0 0 0 18.2 12c0-.181-.009-.357-.026-.527l-.033-.251-.094-.583 2.134-1.667-1.469-2.544-2.486 1-.452-.345a6.169 6.169 0 0 0-1.103-.678l-.289-.127-.532-.217-.376-2.661zM12 7.4a4.61 4.61 0 0 1 4.6 4.6 4.61 4.61 0 0 1-4.6 4.6A4.61 4.61 0 0 1 7.4 12 4.61 4.61 0 0 1 12 7.4zm0 2A2.61 2.61 0 0 0 9.4 12a2.61 2.61 0 0 0 2.6 2.6 2.61 2.61 0 0 0 2.6-2.6A2.61 2.61 0 0 0 12 9.4z"/>
    </g>

    <g id="nav-short-bulk-actions" class="nav-small-icon">
        <path fill-rule="nonzero" d="M21.987 3.393a1.258 1.258 0 0 0-.355-1.067 1.172 1.172 0 0 0-.955-.317C13.49 2.883 9.372 6.103 7.02 9.273l-1.1-.057a2.83 2.83 0 0 0-2.149.826l-1.718 1.72a.18.18 0 0 0 .057.29l2.74 1.137a15.82 15.82 0 0 0-.737 2.401.888.888 0 0 0 .238.817l3.251 3.242a.888.888 0 0 0 .816.239 15.824 15.824 0 0 0 2.401-.738l1.136 2.74a.179.179 0 0 0 .291.058l1.719-1.719a2.834 2.834 0 0 0 .825-2.149l-.057-1.1c3.162-2.328 6.368-6.439 7.255-13.587zm-8.114 6.75a2.027 2.027 0 1 1 1.428.595 2.026 2.026 0 0 1-1.435-.598l.007.002z"/>
    </g>
     <g id="nav-short-documentation" fill="none" fill-rule="evenodd">
        <path fill="#FFFFFF" d="M13 2l7 7v10a3 3 0 0 1-3 3H7a3 3 0 0 1-3-3V5a3 3 0 0 1 3-3h6zm-1 2H7a1 1 0 0 0-.993.883L6 5v14a1 1 0 0 0 .883.993L7 20h10a1 1 0 0 0 .993-.883L18 19v-9h-3.5a2.5 2.5 0 0 1-2.495-2.336L12 7.5V4zm1 11.5a1 1 0 0 1 .117 1.993L13 17.5H9a1 1 0 0 1-.117-1.993L9 15.5h4zm2-4a1 1 0 0 1 .117 1.993L15 13.5H9a1 1 0 0 1-.117-1.993L9 11.5h6zm-1-5.67V7.5a.5.5 0 0 0 .41.492L14.5 8h1.671L14 5.83z"/>
    </g>
    <g id="nav-short-discord" stroke="none" stroke-width="1" fill="none" fill-rule="evenodd">
        <g transform="translate(-24.000000, -702.000000)" fill="#FFFFFF">
            <g transform="translate(16.000000, 694.000000)">
                <g transform="translate(8.000000, 8.000000)">
                    <path fill="#FFFFFF" d="M18.5824508,2 C19.7221382,2 20.6500252,2.92788704 20.6601109,4.06757438 L20.6601109,4.06757438 L20.6601109,22 L18.4815935,20.1139687 L17.2612204,18.9944528 L15.9702471,17.8043369 L16.5047907,19.6500252 L5.06757438,19.6500252 C3.92788704,19.6500252 3,18.7221382 3,17.5824508 L3,17.5824508 L3,4.06757438 C3,2.92788704 3.92788704,2 5.06757438,2 L5.06757438,2 Z M10.2718104,6.66969239 L10.2461355,6.66969497 C10.0518285,6.67195159 8.78396369,6.72576904 7.44780635,7.71860817 C7.44780635,7.71860817 5.99546142,10.3308119 5.99546142,13.5481594 C5.99546142,13.5481594 6.84266263,15.0005043 9.07160867,15.0711044 C9.07160867,15.0711044 9.44478064,14.6273323 9.7473525,14.2440746 C8.46646495,13.8608169 7.98234997,13.0640444 7.98234997,13.0640444 C7.98234997,13.0640444 8.08320726,13.1346445 8.26475038,13.2355018 C8.27483611,13.2355018 8.28492184,13.2455875 8.30509329,13.2556732 C8.33535048,13.2758447 8.36560767,13.2859304 8.39586485,13.3061019 C8.64800807,13.4473021 8.90015129,13.5582451 9.13212305,13.6490166 C9.54563792,13.820474 10.0398386,13.97176 10.6147252,14.082703 C11.3711548,14.2239032 12.2586989,14.2743318 13.2269289,14.0927887 C13.7009581,14.0020171 14.1850731,13.8709027 14.6893596,13.6591024 C15.0423601,13.5279879 15.4357035,13.3363591 15.8492184,13.0640444 C15.8492184,13.0640444 15.3449319,13.8809884 14.0237015,14.2541604 C14.3262733,14.6273323 14.6893596,15.0610187 14.6893596,15.0610187 C16.9183056,14.9904186 17.7655068,13.5380736 17.7655068,13.5481594 C17.7655068,10.3308119 16.3131619,7.71860817 16.3131619,7.71860817 C14.9862834,6.72576904 13.7106243,6.67195159 13.5150109,6.66969497 L13.4891578,6.66969239 L13.3479576,6.83106404 C15.0625315,7.34543621 15.8593041,8.10186586 15.8593041,8.10186586 C14.8103883,7.53706505 13.781644,7.25466465 12.8234997,7.14372163 C12.0973273,7.0630358 11.401412,7.08320726 10.7861826,7.16389309 C10.7256682,7.16389309 10.6752395,7.17397882 10.6147252,7.18406455 C10.2617247,7.22440746 9.40443772,7.34543621 8.32526475,7.81946546 C8.15941055,7.89118619 8.02343998,7.95493796 7.92355114,8.00363723 L7.80155395,8.06451131 C7.75486076,8.08841822 7.73020676,8.10186586 7.73020676,8.10186586 C7.73020676,8.10186586 8.55723651,7.30509329 10.3726677,6.79072113 L10.3726677,6.79072113 L10.2718104,6.66969239 L10.2718104,6.66969239 Z M13.6807867,10.3913263 C14.2455875,10.3913263 14.709531,10.885527 14.709531,11.5007564 C14.709531,12.1159859 14.2556732,12.6101866 13.6807867,12.6101866 C13.1159859,12.6101866 12.6520424,12.1159859 12.6520424,11.5007564 C12.6520424,10.885527 13.1059002,10.3913263 13.6807867,10.3913263 Z M9.99949571,10.3913263 C10.5743822,10.3913263 11.0383258,10.885527 11.02824,11.5007564 C11.02824,12.1159859 10.5743822,12.6101866 9.99949571,12.6101866 C9.43469491,12.6101866 8.97075139,12.1159859 8.97075139,11.5007564 C8.97075139,10.885527 9.42460918,10.3913263 9.99949571,10.3913263 Z"></path>
                </g>
            </g>
        </g>
    </g>
    <g id="nav-short-github" fill="none" fill-rule="evenodd">
        <path fill="#FFFFFF" d="M11.981 2C6.47 2 2 6.469 2 11.981c0 4.41 2.86 8.152 6.826 9.472.499.092.682-.217.682-.48 0-.238-.01-1.025-.014-1.859-2.776.604-3.362-1.177-3.362-1.177-.454-1.154-1.109-1.461-1.109-1.461-.905-.62.069-.607.069-.607 1.002.07 1.53 1.029 1.53 1.029.89 1.526 2.335 1.085 2.904.83.09-.645.349-1.086.634-1.335-2.217-.253-4.548-1.108-4.548-4.933 0-1.09.39-1.98 1.029-2.68-.104-.25-.445-1.266.097-2.64 0 0 .838-.269 2.745 1.022a9.567 9.567 0 0 1 2.498-.335 9.592 9.592 0 0 1 2.501.335c1.905-1.29 2.742-1.023 2.742-1.023.543 1.375.202 2.39.098 2.642.64.699 1.027 1.59 1.027 2.679 0 3.834-2.335 4.678-4.557 4.925.358.31.677.917.677 1.848 0 1.336-.012 2.41-.012 2.74 0 .265.18.576.686.478a9.983 9.983 0 0 0 6.82-9.47C21.963 6.47 17.493 2 11.98 2"/>
    </g>
    <g id="nav-short-stack" class="nav-small-icon">
        <path d="M2.8779 13.1022C2.52011 12.8935 2.06088 13.0143 1.85217 13.3721C1.64346 13.7299 1.76431 14.1891 2.1221 14.3978L2.8779 13.1022ZM10 18.125L9.6221 18.7728C9.85562 18.9091 10.1444 18.9091 10.3779 18.7728L10 18.125ZM17.8779 14.3978C18.2357 14.1891 18.3565 13.7299 18.1478 13.3721C17.9391 13.0143 17.4799 12.8935 17.1221 13.1022L17.8779 14.3978ZM2.8779 9.35217C2.52011 9.14346 2.06088 9.26431 1.85217 9.6221C1.64346 9.97989 1.76431 10.4391 2.1221 10.6478L2.8779 9.35217ZM10 14.375L9.6221 15.0228C9.85562 15.1591 10.1444 15.1591 10.3779 15.0228L10 14.375ZM17.8779 10.6478C18.2357 10.4391 18.3565 9.97989 18.1478 9.6221C17.9391 9.26431 17.4799 9.14346 17.1221 9.35217L17.8779 10.6478ZM2.5 6.25L2.1221 5.60217C1.89168 5.73657 1.75 5.98325 1.75 6.25C1.75 6.51675 1.89168 6.76343 2.1221 6.89783L2.5 6.25ZM10 10.625L9.6221 11.2728C9.85562 11.4091 10.1444 11.4091 10.3779 11.2728L10 10.625ZM17.5 6.25L17.8779 6.89783C18.1083 6.76343 18.25 6.51675 18.25 6.25C18.25 5.98325 18.1083 5.73657 17.8779 5.60217L17.5 6.25ZM10 1.875L10.3779 1.22717C10.1444 1.09094 9.85562 1.09094 9.6221 1.22717L10 1.875ZM2.1221 14.3978L9.6221 18.7728L10.3779 17.4772L2.8779 13.1022L2.1221 14.3978ZM10.3779 18.7728L17.8779 14.3978L17.1221 13.1022L9.6221 17.4772L10.3779 18.7728ZM2.1221 10.6478L9.6221 15.0228L10.3779 13.7272L2.8779 9.35217L2.1221 10.6478ZM10.3779 15.0228L17.8779 10.6478L17.1221 9.35217L9.6221 13.7272L10.3779 15.0228ZM2.1221 6.89783L9.6221 11.2728L10.3779 9.97717L2.8779 5.60217L2.1221 6.89783ZM10.3779 11.2728L17.8779 6.89783L17.1221 5.60217L9.6221 9.97717L10.3779 11.2728ZM17.8779 5.60217L10.3779 1.22717L9.6221 2.52283L17.1221 6.89783L17.8779 5.60217ZM9.6221 1.22717L2.1221 5.60217L2.8779 6.89783L10.3779 2.52283L9.6221 1.22717Z" fill="white"/>
    </g>
    </defs>
</svg>
