<svg width="40" height="40" viewBox="0 0 40 40" fill="none" xmlns="http://www.w3.org/2000/svg">
<path d="M27.069 22.2414H24.4828C24.1973 22.2414 23.9656 22.0097 23.9656 21.7242C23.9656 21.4386 24.1973 21.2069 24.4828 21.2069H27.069C27.3545 21.2069 27.5863 21.4386 27.5863 21.7242C27.5863 22.0097 27.3545 22.2414 27.069 22.2414Z" fill="#F33E3E"/>
<path d="M15.5173 22.2414H12.9311C12.6455 22.2414 12.4138 22.0097 12.4138 21.7242C12.4138 21.4386 12.6455 21.2069 12.9311 21.2069H15.5173C15.8028 21.2069 16.0345 21.4386 16.0345 21.7242C16.0345 22.0097 15.8028 22.2414 15.5173 22.2414Z" fill="#F33E3E"/>
<path d="M13.6208 26.8964C13.4628 26.8964 13.307 26.8247 13.2049 26.6874C13.0346 26.4578 13.0821 26.1343 13.3118 25.964L15.5394 24.3088C15.7683 24.1391 16.0925 24.186 16.2628 24.4157C16.4332 24.6453 16.3856 24.9688 16.1559 25.1391L13.9283 26.7943C13.8366 26.8633 13.7283 26.8964 13.6208 26.8964Z" fill="#F33E3E"/>
<path d="M24.1523 19.2415C23.9943 19.2415 23.8385 19.1697 23.7364 19.0325C23.566 18.8028 23.6136 18.4794 23.8433 18.3091L26.0709 16.6539C26.2998 16.4842 26.624 16.5311 26.7943 16.7608C26.9647 16.9904 26.9171 17.3139 26.6874 17.4842L24.4598 19.1394C24.3674 19.2084 24.2591 19.2415 24.1523 19.2415Z" fill="#F33E3E"/>
<path d="M26.3791 26.8968C26.2716 26.8968 26.1633 26.8636 26.0709 26.7947L23.8433 25.1395C23.6136 24.9692 23.566 24.645 23.7364 24.4161C23.9074 24.1864 24.2316 24.1402 24.4598 24.3092L26.6874 25.9643C26.9171 26.1347 26.9647 26.4588 26.7943 26.6878C26.6929 26.825 26.5371 26.8968 26.3791 26.8968Z" fill="#F33E3E"/>
<path d="M15.8475 19.2412C15.7399 19.2412 15.6316 19.2081 15.5392 19.1391L13.3116 17.4839C13.0827 17.3136 13.0351 16.9894 13.2054 16.7605C13.3758 16.5308 13.7006 16.4846 13.9289 16.6536L16.1565 18.3088C16.3861 18.4791 16.4337 18.8032 16.2634 19.0322C16.162 19.1688 16.0054 19.2412 15.8475 19.2412Z" fill="#F33E3E"/>
<path d="M18.809 14.6552C18.5235 14.6552 18.2917 14.4235 18.2917 14.138V12.9939C18.2917 12.7083 18.5235 12.4766 18.809 12.4766C19.0945 12.4766 19.3262 12.7083 19.3262 12.9939V14.138C19.3262 14.4235 19.0945 14.6552 18.809 14.6552Z" fill="#F33E3E"/>
<path d="M21.2228 14.6552C20.9373 14.6552 20.7056 14.4235 20.7056 14.138V12.9939C20.7056 12.7083 20.9373 12.4766 21.2228 12.4766C21.5083 12.4766 21.74 12.7083 21.74 12.9939V14.138C21.74 14.4235 21.5083 14.6552 21.2228 14.6552Z" fill="#F33E3E"/>
<path d="M22.4641 17.1668H17.5358C17.3634 17.1668 17.2048 17.0717 17.1241 16.9192C16.9751 16.6379 16.8965 16.3158 16.8965 15.9875C16.8965 15.4468 17.1061 14.9399 17.4861 14.5599C17.8661 14.1799 18.373 13.9703 18.9137 13.9703H21.0861C22.1986 13.9703 23.1034 14.8751 23.1034 15.9875C23.1034 16.3151 23.0248 16.6372 22.8758 16.9186C22.7951 17.0717 22.6365 17.1668 22.4641 17.1668Z" fill="#F33E3E"/>
<path d="M20.7758 26.8707H19.2241C17.3279 26.8707 15.7844 25.3272 15.7844 23.4311V20.0173C15.7844 18.1212 17.3279 16.5776 19.2241 16.5776H20.7758C22.6719 16.5776 24.2155 18.1212 24.2155 20.0173V23.4311C24.2155 25.3272 22.6719 26.8707 20.7758 26.8707Z" stroke="#F33E3E" stroke-width="1.5"/>
<rect width="28.5714" height="14.2857" transform="matrix(1 0 0 -1 5.71436 34.2857)" fill="url(#paint0_linear_3584_11391)"/>
<path d="M12.4139 5.51727H7.51733C6.41276 5.51727 5.51733 6.41271 5.51733 7.51727V12.4138" stroke="#AFAFAF" stroke-width="1.5" stroke-linecap="round" stroke-linejoin="round"/>
<path d="M12.4139 34.4828H7.51733C6.41276 34.4828 5.51733 33.5874 5.51733 32.4828V27.5862" stroke="#AFAFAF" stroke-width="1.5" stroke-linecap="round" stroke-linejoin="round"/>
<path d="M27.5861 34.4828H32.4827C33.5872 34.4828 34.4827 33.5874 34.4827 32.4828V27.5862" stroke="#AFAFAF" stroke-width="1.5" stroke-linecap="round" stroke-linejoin="round"/>
<path d="M27.5861 5.51727H32.4827C33.5872 5.51727 34.4827 6.41271 34.4827 7.51727V12.4138" stroke="#AFAFAF" stroke-width="1.5" stroke-linecap="round" stroke-linejoin="round"/>
<line x1="4.88794" y1="19.7755" x2="35.1121" y2="19.7755" stroke="#0066CC" stroke-width="1.5" stroke-linecap="round"/>
<defs>
<linearGradient id="paint0_linear_3584_11391" x1="14.2857" y1="0" x2="14.2857" y2="14.2857" gradientUnits="userSpaceOnUse">
<stop stop-color="#0066CC" stop-opacity="0"/>
<stop offset="1" stop-color="#0066CC" stop-opacity="0.6"/>
</linearGradient>
</defs>
</svg>
