<svg xmlns="http://www.w3.org/2000/svg" width="24" height="24" viewBox="0 0 24 24">
    <g fill="none" fill-rule="evenodd">
        <path d="M0 0h24v24H0z"/>
        <path fill="#3b444c" d="M8.085 9.814l.095.083 5.024 5.022a.922.922 0 0 1 .271.671v.022a.924.924 0 0 1-.44.788L8.18 21.25a.924.924 0 0 1-1.39-1.214l.083-.094 3.406-3.406H2.005a.924.924 0 0 1-.108-1.843l.108-.006h8.351l-3.483-3.482a.925.925 0 0 1-.083-1.213l.082-.095a.925.925 0 0 1 1.213-.083zm8.94-7.452c.331.331.359.85.083 1.213l-.083.095-3.484 3.482h8.424a.924.924 0 0 1 .107 1.843l-.107.006h-8.347l3.407 3.406c.331.331.359.85.083 1.213l-.083.095a.925.925 0 0 1-1.213.082l-.094-.082-4.85-4.848a.924.924 0 0 1-.444-.79v-.018a.922.922 0 0 1 .189-.58l.082-.094 5.023-5.023a.924.924 0 0 1 1.307 0z"/>
    </g>
</svg>
