<svg xmlns="http://www.w3.org/2000/svg" xmlns:xlink="http://www.w3.org/1999/xlink" viewBox="0 0 16 16">
    <defs>
        <path id="prefix__a" d="M7 0c.446 0 .86.242 1.091.638l5.405 9.373c.226.408.228.91.003 1.32-.224.41-.641.664-1.094.669H1.595c-.453-.005-.87-.26-1.094-.67-.225-.408-.223-.91.003-1.319L5.91.638C6.14.242 6.554 0 7 0zm0 8.667c-.368 0-.667.298-.667.666 0 .369.299.667.667.667.368 0 .667-.298.667-.667 0-.368-.299-.666-.667-.666zm0-5.334c-.368 0-.667.299-.667.667v2.667l.005.077c.038.332.32.59.662.59.368 0 .667-.3.667-.667V4l-.005-.078c-.038-.331-.32-.589-.662-.589z"/>
    </defs>
    <g fill="none" fill-rule="evenodd" transform="translate(1 2)">
        <mask id="prefix__b" fill="#fff">
            <use xlink:href="#prefix__a"/>
        </mask>
        <use fill="#D8D8D8" xlink:href="#prefix__a"/>
        <path fill="#F33E3E" d="M-1 -2H15V14H-1z" mask="url(#prefix__b)"/>
    </g>
</svg>
