<svg xmlns="http://www.w3.org/2000/svg" width="20" height="20" viewBox="0 0 20 20">
    <path fill="#767D84" fill-rule="evenodd" d="M15.833 6.917a2.5 2.5 0 0 1 2.5 2.5v6.416a2.5 2.5 0 0 1-2.5 2.5H9.417a2.5 2.5 0 0 1-2.5-2.5V9.417a2.5 2.5 0 0 1 2.5-2.5zm0 1.666H9.417a.833.833 0 0 0-.834.834v6.416c0 .46.373.834.834.834h6.416c.46 0 .834-.373.834-.834V9.417a.833.833 0 0 0-.834-.834zM10.75 1.667c1.24 0 2.256.968 2.33 2.19l.003.143v.75a.833.833 0 0 1-1.66.097l-.006-.097V4c0-.34-.255-.62-.583-.661l-.084-.006H4c-.34 0-.62.255-.661.583L3.333 4v6.75c0 .34.255.62.583.661l.084.006h.75a.833.833 0 0 1 .097 1.66l-.097.006H4a2.333 2.333 0 0 1-2.33-2.19l-.003-.143V4c0-1.24.968-2.256 2.19-2.33L4 1.668h6.75z"/>
</svg>
