<svg width="16" height="16" xmlns="http://www.w3.org/2000/svg" xmlns:xlink="http://www.w3.org/1999/xlink">
    <defs>
        <path d="m5.39 6.543.063.055 3.35 3.348c.125.125.185.29.18.453v.009a.616.616 0 0 1-.294.525l-3.236 3.233a.616.616 0 0 1-.926-.808l.055-.064 2.271-2.27H1.336a.616.616 0 0 1-.071-1.228l.071-.005h5.568L4.582 7.47a.616.616 0 0 1-.056-.809l.056-.063c.22-.22.566-.239.808-.055zm5.96-4.968c.22.22.24.567.055.808l-.055.064-2.322 2.32 5.615.001a.616.616 0 0 1 .072 1.229L14.643 6H9.079l2.271 2.27c.22.221.24.567.055.809l-.055.063a.616.616 0 0 1-.808.055l-.064-.055-3.232-3.232a.616.616 0 0 1-.296-.526v-.016a.615.615 0 0 1 .125-.383l.055-.063 3.348-3.348c.241-.24.631-.24.872 0z" id="a"/>
    </defs>
    <g fill="none" fill-rule="evenodd">
        <mask id="b" fill="#fff">
            <use xlink:href="#a"/>
        </mask>
        <use fill="#959BA1" xlink:href="#a"/>
        <path fill="#3B444C" mask="url(#b)" d="M0 0h16v16H0z"/>
    </g>
</svg>
