<!--
  - Copyright (c) 2024. Devtron Inc.
  -
  - Licensed under the Apache License, Version 2.0 (the "License");
  - you may not use this file except in compliance with the License.
  - You may obtain a copy of the License at
  -
  -     http://www.apache.org/licenses/LICENSE-2.0
  -
  - Unless required by applicable law or agreed to in writing, software
  - distributed under the License is distributed on an "AS IS" BASIS,
  - WITHOUT WARRANTIES OR CONDITIONS OF ANY KIND, either express or implied.
  - See the License for the specific language governing permissions and
  - limitations under the License.
  -->

<svg viewBox="0 0 24 24" xmlns="http://www.w3.org/2000/svg">
    <path d="M13 2a4 4 0 0 1 4 4v1.4a3 3 0 0 1 3 3V19a3 3 0 0 1-3 3H7a3 3 0 0 1-3-3v-8.6a3 3 0 0 1 3-3V6a4 4 0 0 1 4-4zm4 7.4H7a1 1 0 0 0-1 1V19a1 1 0 0 0 1 1h10a1 1 0 0 0 1-1v-8.6a1 1 0 0 0-1-1zm-5 2a3 3 0 1 1 0 6 3 3 0 0 1 0-6zm0 2a1 1 0 1 0 0 2 1 1 0 0 0 0-2zM13 4h-2a2 2 0 0 0-2 2v1.399h6V6a2 2 0 0 0-1.85-1.995L13 4z" fill="#FFB549" fill-rule="evenodd"/>
</svg>
