<svg xmlns="http://www.w3.org/2000/svg" viewBox="0 0 17 16">
    <path fill="#767D84" fill-rule="evenodd" d="M9 1.333c3.682 0 6.667 2.985 6.667 6.667S12.682 14.667 9 14.667 2.333 11.682 2.333 8 5.318 1.333 9 1.333zm0 1.334C6.054 2.667 3.667 5.054 3.667 8S6.054 13.333 9 13.333 14.333 10.946 14.333 8 11.946 2.667 9 2.667zm-.137 7.245c.41 0 .747.337.747.747s-.337.747-.747.747-.747-.336-.747-.747c0-.41.338-.747.747-.747zm.046-5.245c1.166 0 2.313.537 2.313 1.82 0 1.185-1.357 1.64-1.648 2.068-.22.319-.146.766-.747.766-.392 0-.583-.319-.583-.61 0-1.085 1.593-1.33 1.593-2.223 0-.492-.327-.783-.873-.783-1.166 0-.711 1.202-1.594 1.202-.319 0-.592-.191-.592-.556 0-.893 1.02-1.684 2.13-1.684z"/>
</svg>