<svg xmlns="http://www.w3.org/2000/svg" width="48" height="48" viewBox="0 0 48 48">
    <path fill="#06C" fill-rule="nonzero" d="M42.9 26.214c.036.018.069.035.101.054l.04.024a1.743 1.743 0 0 1 .279.205 1.337 1.337 0 0 1 .11.105l.028.028.02.022.06.07-.08-.092a2.025 2.025 0 0 1 .455.786 1.838 1.838 0 0 1 .074.35l.003.03c.006.061.01.122.01.183v9.839a2 2 0 0 1-3.987.233L40 37.818l-.002-5.194-4.176 3.924a16.727 16.727 0 0 1-27.6-6.244 2 2 0 0 1 3.77-1.335 12.727 12.727 0 0 0 9.19 8.168c4.092.926 8.365-.226 11.473-3.093l.383-.367 3.913-3.678-4.77.001a2 2 0 0 1-1.986-1.767L30.182 28a2 2 0 0 1 1.767-1.987l.233-.013H42l.09.002.057.003L42 26c.092 0 .182.006.27.018l.038.006c.21.032.41.097.592.19zM27.7 6.416a16.727 16.727 0 0 1 12.078 10.735 2 2 0 0 1-3.77 1.334 12.727 12.727 0 0 0-9.19-8.167c-4.092-.926-8.365.225-11.473 3.092l-.383.368-3.913 3.676h4.77a2 2 0 0 1 1.986 1.767l.013.234a2 2 0 0 1-1.767 1.986l-.233.014H6l-.09-.002-.057-.004.147.006c-.092 0-.182-.007-.27-.019l-.038-.005a1.96 1.96 0 0 1-.871-.36 1.65 1.65 0 0 1-.18-.149 2.096 2.096 0 0 1-.099-.098l-.013-.014a2.011 2.011 0 0 1-.089-.103l-.014-.018-.015-.02a1.999 1.999 0 0 1-.398-.981l-.003-.035a2.01 2.01 0 0 1-.01-.179V9.636a2 2 0 0 1 3.987-.233L8 9.636v5.195l4.178-3.925a16.727 16.727 0 0 1 15.523-4.49z"/>
</svg>
