<!--
  - Copyright (c) 2024. Devtron Inc.
  -
  - Licensed under the Apache License, Version 2.0 (the "License");
  - you may not use this file except in compliance with the License.
  - You may obtain a copy of the License at
  -
  -     http://www.apache.org/licenses/LICENSE-2.0
  -
  - Unless required by applicable law or agreed to in writing, software
  - distributed under the License is distributed on an "AS IS" BASIS,
  - WITHOUT WARRANTIES OR CONDITIONS OF ANY KIND, either express or implied.
  - See the License for the specific language governing permissions and
  - limitations under the License.
  -->

<svg xmlns="http://www.w3.org/2000/svg" width="24" height="24" viewBox="0 0 24 24">
    <g fill="none" fill-rule="evenodd">
        <path d="M0 0h24v24H0z"/>
        <path fill="#151515" fill-rule="nonzero" d="M7.707 15.707A1 1 0 0 1 8.414 14h7.172a1 1 0 0 1 .707 1.707l-3.586 3.586a1 1 0 0 1-1.414 0l-3.586-3.586zm0-7.414l3.586-3.586a1 1 0 0 1 1.414 0l3.586 3.586A1 1 0 0 1 15.586 10H8.414a1 1 0 0 1-.707-1.707z"/>
    </g>
</svg>
