<!--
  - Copyright (c) 2024. Devtron Inc.
  -
  - Licensed under the Apache License, Version 2.0 (the "License");
  - you may not use this file except in compliance with the License.
  - You may obtain a copy of the License at
  -
  -     http://www.apache.org/licenses/LICENSE-2.0
  -
  - Unless required by applicable law or agreed to in writing, software
  - distributed under the License is distributed on an "AS IS" BASIS,
  - WITHOUT WARRANTIES OR CONDITIONS OF ANY KIND, either express or implied.
  - See the License for the specific language governing permissions and
  - limitations under the License.
  -->

<svg xmlns="http://www.w3.org/2000/svg" width="16" height="16" viewBox="0 0 16 16">
    <g fill="none" fill-rule="evenodd">
        <g fill="#000A14">
            <g>
                <g>
                    <g>
                        <g>
                            <path d="M8 3.333c.736 0 1.333.597 1.333 1.334 0 .234-.06.455-.167.647L10.89 8.19l.043-.016c.283-.096.58-.153.885-.17L12 8c1.84 0 3.333 1.492 3.333 3.333 0 1.841-1.492 3.334-3.333 3.334-.852 0-1.655-.322-2.267-.89-.27-.25-.285-.672-.035-.942.25-.27.672-.285.942-.035.368.341.848.533 1.36.533 1.105 0 2-.895 2-2 0-1.104-.895-2-2-2-.37 0-.722.1-1.03.286-.294.177-.669.101-.873-.164l-.044-.064-2.032-3.393L8 6c-.693 0-1.263-.529-1.327-1.205l-.006-.128c0-.737.597-1.334 1.333-1.334zM3.719 8.598c.125.346-.054.729-.4.854C2.534 9.736 2 10.484 2 11.333c0 1.105.895 2 2 2 1.065 0 1.936-.832 1.997-1.882L6 11.333c0-.342.257-.623.589-.662l.078-.004h4.178c.23-.399.662-.667 1.155-.667.736 0 1.333.597 1.333 1.333 0 .737-.597 1.334-1.333 1.334-.493 0-.924-.268-1.155-.666l-3.58-.002-.007.04c-.314 1.457-1.58 2.56-3.113 2.625L4 14.667c-1.84 0-3.333-1.493-3.333-3.334 0-1.414.89-2.66 2.198-3.135.346-.125.728.054.854.4zM8 1.333c1.84 0 3.333 1.493 3.333 3.334 0 .368-.298.666-.666.666-.342 0-.624-.257-.663-.589L10 4.667c0-1.105-.895-2-2-2s-2 .895-2 2c0 .755.422 1.434 1.08 1.776.349.181.466.623.253.953l-2.147 3.328c.094.183.147.39.147.61 0 .736-.597 1.333-1.333 1.333s-1.333-.597-1.333-1.334C2.667 10.597 3.264 10 4 10c.022 0 .044 0 .066.002L5.859 7.22l-.024-.02c-.69-.589-1.121-1.443-1.165-2.378l-.003-.156c0-1.841 1.492-3.334 3.333-3.334z" transform="translate(-832.000000, -156.000000) translate(566.000000, 0.000000) translate(254.000000, 142.000000) translate(12.000000, 12.000000) translate(0.000000, 2.000000)"/>
                        </g>
                    </g>
                </g>
            </g>
        </g>
    </g>
</svg>