<!--
  - Copyright (c) 2024. Devtron Inc.
  -
  - Licensed under the Apache License, Version 2.0 (the "License");
  - you may not use this file except in compliance with the License.
  - You may obtain a copy of the License at
  -
  -     http://www.apache.org/licenses/LICENSE-2.0
  -
  - Unless required by applicable law or agreed to in writing, software
  - distributed under the License is distributed on an "AS IS" BASIS,
  - WITHOUT WARRANTIES OR CONDITIONS OF ANY KIND, either express or implied.
  - See the License for the specific language governing permissions and
  - limitations under the License.
  -->

<svg data-style-override="false" width="250" height="200" viewBox="0 0 250 200" fill="none" xmlns="http://www.w3.org/2000/svg"><style>@keyframes ant-march{0%{stroke-dashoffset:12}to{stroke-dashoffset:0}}</style><path fill="#202020" d="M32 0h180v119H32z"/><path d="M110.43 17.572q.28.28.98.28.699 0 .966-.28a.98.98 0 0 0 .28-.7v-.406a.95.95 0 0 0-.28-.7q-.267-.28-.966-.28-.7 0-.98.28a.97.97 0 0 0-.266.7v.406q0 .406.266.7m-.056 6.818h-2.296V26h6.496v-1.61h-2.128v-5.614h-4.368v1.61h2.296zm16.341 0h-2.212V26h6.496v-1.61h-2.212v-8.75h-4.284v1.61h2.212z" fill="#fff"/><path fill-rule="evenodd" clip-rule="evenodd" d="M136.341 26.168q-1.82 0-2.758-1.008t-.938-2.744q0-.882.238-1.582a3.5 3.5 0 0 1 .7-1.204 2.9 2.9 0 0 1 1.106-.756 3.9 3.9 0 0 1 1.47-.266 3.8 3.8 0 0 1 1.456.266q.645.252 1.092.728.449.476.686 1.162.252.672.252 1.512v.616h-4.942v.126q0 .7.434 1.134.434.42 1.274.42.644 0 1.106-.238.462-.252.798-.658l1.12 1.218q-.42.518-1.176.896t-1.918.378m-.168-6.076q-.672 0-1.078.42-.392.406-.392 1.106v.112h2.912v-.112q0-.715-.392-1.12-.378-.405-1.05-.406" fill="#fff"/><path d="M85.246 35.572q.28.28.98.28t.966-.28a.98.98 0 0 0 .28-.7v-.406a.95.95 0 0 0-.28-.7q-.266-.28-.966-.28t-.98.28a.98.98 0 0 0-.266.7v.406q0 .406.266.7m-.056 6.818h-2.296V44h6.496v-1.61h-2.128v-5.614h-4.368v1.61h2.296zm30.96 0h2.128v-4.004h-2.268v-1.61h2.268v-1.05q0-.924.532-1.498.546-.588 1.68-.588h2.45v1.61h-2.59v1.526h2.59v1.61h-2.59v4.004h2.268V44h-6.468z" fill="#fff"/><path fill-rule="evenodd" clip-rule="evenodd" d="M154.236 42.684h-.098a2.8 2.8 0 0 1-.784 1.078q-.49.405-1.358.406-.602 0-1.106-.224a2.3 2.3 0 0 1-.854-.686q-.35-.462-.56-1.176-.195-.713-.196-1.694 0-.98.196-1.694.21-.714.56-1.176.365-.462.854-.686.504-.224 1.106-.224.434 0 .77.112t.588.308q.267.196.448.476.196.265.336.588h.098V33.64h2.072V44h-2.072zm-1.344-.126q.546 0 .938-.266.406-.266.406-.84v-2.128q0-.575-.406-.84a1.63 1.63 0 0 0-.938-.266q-.7 0-1.078.434-.378.42-.378 1.176v1.12q0 .755.378 1.19.379.42 1.078.42" fill="#fff"/><path d="m160.993 40.598-.798-3.528v-2.842h2.268v2.842l-.798 3.528zm.336 3.57q-.756 0-1.064-.322a1.08 1.08 0 0 1-.308-.77v-.448q0-.434.308-.756.322-.322 1.064-.322.743 0 1.05.322.322.323.322.756v.448q0 .448-.308.77t-1.064.322m-20.079-7.392V44h2.072v-4.746q0-.266.098-.462a.96.96 0 0 1 .294-.322q.181-.14.406-.196.237-.07.476-.07 1.218 0 1.218 1.4V44h2.072v-4.676a3.4 3.4 0 0 0-.182-1.162 2.45 2.45 0 0 0-.476-.854 1.9 1.9 0 0 0-.742-.518 2.4 2.4 0 0 0-.952-.182q-.435 0-.784.126a2.04 2.04 0 0 0-1.036.784 3 3 0 0 0-.308.574h-.084v-1.316zm-3.887 5.908h-.084q-.237.615-.756 1.05-.504.434-1.372.434a2.6 2.6 0 0 1-.952-.168 2 2 0 0 1-.742-.532 2.7 2.7 0 0 1-.49-.854 3.7 3.7 0 0 1-.168-1.162v-4.676h2.072v4.396q0 1.4 1.218 1.4.238 0 .462-.056.238-.07.406-.196.183-.14.294-.336a.9.9 0 0 0 .112-.462v-4.746h2.072V44h-2.072z" fill="#fff"/><path fill-rule="evenodd" clip-rule="evenodd" d="M126.239 43.916q.672.252 1.512.252t1.512-.252q.672-.266 1.134-.756.476-.49.728-1.19a4.7 4.7 0 0 0 .252-1.582 4.7 4.7 0 0 0-.252-1.582 3.3 3.3 0 0 0-.728-1.19 2.96 2.96 0 0 0-1.134-.742 4.1 4.1 0 0 0-1.512-.266 4.1 4.1 0 0 0-1.512.266 3.1 3.1 0 0 0-1.148.742 3.4 3.4 0 0 0-.714 1.19 4.7 4.7 0 0 0-.252 1.582q0 .882.252 1.582t.714 1.19q.476.49 1.148.756m2.604-1.722q-.391.434-1.092.434-.7 0-1.092-.434t-.392-1.232v-1.148q0-.798.392-1.232.391-.434 1.092-.434.7 0 1.092.434t.392 1.232v1.148q0 .798-.392 1.232" fill="#fff"/><path d="M100.383 43.804q.897.364 2.1.364 1.611 0 2.478-.658.882-.658.882-1.792 0-.518-.182-.882a1.8 1.8 0 0 0-.504-.616 2.3 2.3 0 0 0-.728-.392 4.5 4.5 0 0 0-.91-.224l-1.148-.182a2.6 2.6 0 0 1-.658-.182q-.238-.126-.238-.448 0-.728 1.204-.728.714 0 1.218.238t.826.588l1.036-1.176q-.448-.532-1.204-.812-.741-.294-1.806-.294-1.567 0-2.436.644-.867.645-.868 1.778 0 .518.182.882.183.364.49.616.308.252.728.406.42.14.91.21l1.162.182q.42.07.658.196.238.113.238.42a.63.63 0 0 1-.35.588q-.35.182-.966.182a3.2 3.2 0 0 1-1.302-.252q-.56-.266-.98-.728l-1.162 1.078q.448.63 1.33.994m-5.65.196q-1.121 0-1.666-.588-.546-.588-.546-1.498v-3.528h-1.96v-1.61h1.273q.462 0 .659-.182.196-.181.196-.672v-1.694h1.904v2.548h2.813v1.61h-2.814v4.004h2.814V44zm-21.129 0v-7.224h1.665v1.064h.099a2.6 2.6 0 0 1 .476-.868q.321-.364.896-.364 1.05 0 1.288 1.232h.084q.084-.252.21-.476t.307-.392q.183-.167.434-.266.252-.098.588-.098 1.513 0 1.513 2.226V44h-1.666v-4.956q0-.505-.183-.7a.55.55 0 0 0-.447-.21.66.66 0 0 0-.462.182q-.183.169-.183.532V44h-1.68v-4.956q0-.505-.168-.7a.5.5 0 0 0-.433-.21.67.67 0 0 0-.476.182q-.197.169-.197.532V44zm-8.395-7.224V44h1.666v-5.152q0-.364.196-.532a.67.67 0 0 1 .476-.182q.28 0 .434.21.168.195.168.7V44h1.68v-5.152q0-.364.182-.532a.66.66 0 0 1 .462-.182q.28 0 .448.21.182.195.182.7V44h1.666v-5.166q0-2.226-1.512-2.226-.336 0-.588.098a1.4 1.4 0 0 0-.434.266 1.6 1.6 0 0 0-.308.392q-.126.224-.21.476h-.084q-.238-1.232-1.288-1.232-.574 0-.896.364a2.6 2.6 0 0 0-.476.868h-.098v-1.064z" fill="#fff"/><path fill-rule="evenodd" clip-rule="evenodd" d="M60.595 44.168q-.84 0-1.512-.252a3.2 3.2 0 0 1-1.148-.756 3.4 3.4 0 0 1-.714-1.19 4.7 4.7 0 0 1-.252-1.582q0-.882.252-1.582t.714-1.19q.476-.49 1.148-.742a4.1 4.1 0 0 1 1.512-.266q.84 0 1.512.266.672.252 1.134.742.476.49.728 1.19t.252 1.582a4.7 4.7 0 0 1-.252 1.582q-.252.7-.728 1.19a3.1 3.1 0 0 1-1.134.756 4.3 4.3 0 0 1-1.512.252m0-1.54q.699 0 1.092-.434.392-.434.392-1.232v-1.148q0-.798-.392-1.232-.393-.434-1.092-.434t-1.092.434-.392 1.232v1.148q0 .798.392 1.232t1.092.434" fill="#fff"/><path d="M50.954 43.916q.685.252 1.54.252 1.218 0 1.96-.476a3.2 3.2 0 0 0 1.148-1.288l-1.568-.896a2.3 2.3 0 0 1-.588.728q-.336.28-.938.28-.742 0-1.134-.406-.378-.42-.378-1.134V39.8q0-.715.378-1.12.392-.42 1.106-.42.587 0 .896.28.322.28.518.7l1.596-.868a3.05 3.05 0 0 0-1.106-1.274q-.714-.49-1.904-.49a4.2 4.2 0 0 0-1.526.266q-.672.252-1.148.742a3.4 3.4 0 0 0-.714 1.19 4.7 4.7 0 0 0-.252 1.582q0 .882.252 1.582t.714 1.19q.476.49 1.148.756" fill="#fff"/><path fill-rule="evenodd" clip-rule="evenodd" d="M115.982 15.64h2.072v4.452h.098q.266-.645.77-1.064.505-.42 1.372-.42.603 0 1.092.224.504.224.854.686.365.462.56 1.176.21.713.21 1.694 0 .98-.21 1.694-.195.714-.56 1.176a2.16 2.16 0 0 1-.854.686q-.489.224-1.092.224-.867 0-1.372-.406a2.7 2.7 0 0 1-.77-1.078h-.098V26h-2.072zm3.416 8.918q.7 0 1.078-.42.378-.434.378-1.19v-1.12q0-.756-.378-1.176-.378-.434-1.078-.434-.546 0-.952.266-.392.266-.392.84v2.128q0 .574.392.84.406.266.952.266m-12.869 2.17q0 1.148-.966 1.694t-3.038.546q-1.036 0-1.708-.126-.672-.112-1.078-.336-.391-.225-.56-.532a1.5 1.5 0 0 1-.154-.672q0-.615.364-.938.365-.308 1.022-.476v-.084a1.9 1.9 0 0 1-.742-.392q-.266-.266-.266-.742 0-.532.35-.784.364-.252.952-.392v-.084a2.4 2.4 0 0 1-1.008-.868q-.35-.56-.35-1.358 0-.63.224-1.106.225-.49.63-.812.42-.322.994-.49a4.6 4.6 0 0 1 1.288-.168q.686 0 1.274.154v-.392q0-.42.294-.7t.812-.28h1.274v1.512h-1.736v.126q.588.308.91.854.336.532.336 1.302 0 .63-.224 1.106a2.26 2.26 0 0 1-.644.812q-.42.322-1.008.49a4.6 4.6 0 0 1-1.288.168q-.322 0-.616-.028a5 5 0 0 1-.56-.112 1 1 0 0 0-.266.21.5.5 0 0 0-.098.322q0 .167.084.266a.6.6 0 0 0 .224.154q.155.042.35.056.196.015.406.014h1.652q.77 0 1.316.154t.896.434.504.658a2.2 2.2 0 0 1 .154.84m-1.96.154a.53.53 0 0 0-.224-.448q-.224-.154-.854-.154h-2.478a.74.74 0 0 0-.28.588q0 .336.28.546.294.224.98.224h1.218q.714 0 1.036-.196a.62.62 0 0 0 .322-.56m-2.086-4.438q.63 0 .91-.308.294-.308.294-.784v-.336q0-.476-.294-.784-.28-.308-.91-.308-.615 0-.896.308-.28.308-.28.784v.336q0 .476.28.784t.896.308" fill="#fff"/><path d="M93.64 17.572q.28.28.98.28.701 0 .967-.28a.98.98 0 0 0 .28-.7v-.406a.95.95 0 0 0-.28-.7q-.267-.28-.966-.28-.7 0-.98.28a.98.98 0 0 0-.266.7v.406q0 .406.266.7m-.056 6.818h-2.296V26h6.496v-1.61h-2.128v-5.614h-4.368v1.61h2.296zm-11.055 0h2.212v-7.14H82.53v-1.61h4.284v8.75h2.212V26H82.53z" fill="#fff"/><path fill-rule="evenodd" clip-rule="evenodd" d="M74.822 25.16q.937 1.008 2.758 1.008 1.162 0 1.918-.378t1.176-.896l-1.12-1.218q-.336.406-.798.658-.462.238-1.106.238-.84 0-1.274-.42-.435-.434-.434-1.134v-.126h4.942v-.616q0-.84-.252-1.512a3.2 3.2 0 0 0-.686-1.162 2.96 2.96 0 0 0-1.092-.728 3.8 3.8 0 0 0-1.456-.266q-.812 0-1.47.266-.644.252-1.106.756a3.5 3.5 0 0 0-.7 1.204 4.9 4.9 0 0 0-.238 1.582q0 1.736.938 2.744m1.512-4.648q.405-.42 1.078-.42.672 0 1.05.406.392.406.392 1.12v.112h-2.912v-.112q0-.7.392-1.106m-15.739 5.656q-.84 0-1.512-.252a3.2 3.2 0 0 1-1.148-.756 3.4 3.4 0 0 1-.714-1.19 4.7 4.7 0 0 1-.252-1.582q0-.882.252-1.582t.714-1.19q.476-.49 1.148-.742a4.1 4.1 0 0 1 1.512-.266q.84 0 1.512.266.672.252 1.134.742.476.49.728 1.19t.252 1.582a4.7 4.7 0 0 1-.252 1.582q-.252.7-.728 1.19a3.1 3.1 0 0 1-1.134.756 4.3 4.3 0 0 1-1.512.252m0-1.54q.699 0 1.092-.434.392-.434.392-1.232v-1.148q0-.798-.392-1.232-.393-.434-1.092-.434t-1.092.434-.392 1.232v1.148q0 .798.392 1.232t1.092.434" fill="#fff"/><path d="M50.646 19.504h.154L53.026 26h2.52v-9.772h-1.792v6.496H53.6l-2.226-6.496h-2.52V26h1.792zm99.78 35.876h1.417v4.056h.065q.104-.26.26-.494a1.7 1.7 0 0 1 .403-.416q.234-.183.546-.286a2.3 2.3 0 0 1 .728-.104q1.014 0 1.638.663t.624 1.885V65h-1.417v-4.108q0-1.6-1.391-1.6-.273 0-.533.079-.261.064-.468.208a1.1 1.1 0 0 0-.338.364 1.1 1.1 0 0 0-.117.507V65h-1.417zm-20.161 18.69q-.546 0-.767-.221a.77.77 0 0 1-.208-.546v-.273q0-.326.208-.546.221-.22.754-.221.546 0 .754.22.22.222.221.547v.273a.74.74 0 0 1-.221.546q-.208.22-.741.22m-3.003 6.787h2.288v-4.42h-2.288v-1.144h3.705v5.564h2.145V82h-5.85zm9.485.676q.416.468 1.3.468h2.561v-1.144h-2.86v-4.42h2.86v-1.144h-2.86v-2.366h-1.326v1.677q0 .39-.156.546-.156.143-.533.143h-1.469v1.144h2.067v3.86q0 .755.416 1.236m8.705.624q-1.093 0-1.885-.351a3.4 3.4 0 0 1-1.261-.936l.871-.78q.441.48.988.74.558.248 1.313.248.688 0 1.105-.234a.77.77 0 0 0 .429-.728.7.7 0 0 0-.078-.351.64.64 0 0 0-.221-.234 1.2 1.2 0 0 0-.338-.143 3 3 0 0 0-.39-.078l-1.066-.17a5.4 5.4 0 0 1-.793-.168 2.8 2.8 0 0 1-.728-.325 1.9 1.9 0 0 1-.52-.56q-.195-.336-.195-.857 0-1.028.78-1.56.792-.533 2.08-.533.936 0 1.612.286.688.273 1.144.767l-.793.832q-.261-.3-.741-.546-.482-.26-1.274-.26-1.417 0-1.417.897 0 .429.299.598.311.156.728.208l1.066.169q.403.065.793.169.403.104.715.325.325.207.52.546.207.337.208.858 0 1.014-.793 1.599-.78.572-2.158.572m7.782-.026q-.624 0-.884-.26a.9.9 0 0 1-.247-.637v-.338q0-.377.247-.637.26-.26.884-.26t.871.26q.26.26.26.637v.338a.87.87 0 0 1-.26.637q-.247.26-.871.26m-33.299-6.838h-1.209V82h1.209v-4.862q0-.455.221-.676a.8.8 0 0 1 .585-.234q.377 0 .533.273.17.26.169.962V82h1.209v-4.862q0-.455.221-.676a.78.78 0 0 1 .572-.234q.377 0 .546.273.17.26.169.962V82h1.209v-4.72q0-1.052-.312-1.598-.299-.546-1.079-.546-.61 0-.936.325a2.15 2.15 0 0 0-.507.767h-.052q-.078-.507-.377-.793-.286-.3-.819-.3-.546 0-.845.3-.286.3-.442.728h-.065zM112.14 82h-1.209v-6.708h1.209v.87h.065q.156-.428.442-.727.299-.3.845-.3.533 0 .819.3.299.285.377.793h.052q.181-.456.507-.767.325-.325.936-.325.78 0 1.079.546.312.546.312 1.599V82h-1.209v-4.537q0-.702-.169-.962-.17-.273-.546-.273a.78.78 0 0 0-.572.234q-.22.221-.221.676V82h-1.209v-4.537q0-.702-.169-.962-.156-.273-.533-.273a.8.8 0 0 0-.585.234q-.22.221-.221.676z" fill="#fff"/><path fill-rule="evenodd" clip-rule="evenodd" d="M105.125 81.909q.598.247 1.339.247a3.4 3.4 0 0 0 1.326-.247 2.7 2.7 0 0 0 1.001-.702 3.1 3.1 0 0 0 .637-1.105q.221-.65.221-1.456t-.221-1.456a3.1 3.1 0 0 0-.637-1.105 2.7 2.7 0 0 0-1.001-.702 3.4 3.4 0 0 0-1.326-.247q-.74 0-1.339.247-.584.247-1.001.702a3.2 3.2 0 0 0-.624 1.105 4.5 4.5 0 0 0-.221 1.456q0 .806.221 1.456.222.65.624 1.105.417.454 1.001.702m2.574-1.34q-.455.47-1.235.469-.78 0-1.248-.468-.455-.48-.455-1.417v-1.014q0-.936.455-1.404.468-.48 1.248-.481.78 0 1.235.48.468.468.468 1.405v1.014q0 .936-.468 1.417" fill="#fff"/><path d="M98.916 82.156q-.753 0-1.352-.247a2.8 2.8 0 0 1-1-.702 3.2 3.2 0 0 1-.625-1.105 4.8 4.8 0 0 1-.208-1.456q0-.806.208-1.456.222-.65.624-1.105a2.8 2.8 0 0 1 1.001-.702 3.5 3.5 0 0 1 1.34-.247q1.04 0 1.663.442.637.442.949 1.144l-1.105.598a1.6 1.6 0 0 0-.559-.741q-.364-.273-.949-.273-.806 0-1.248.494-.442.48-.442 1.287v1.118q0 .793.442 1.287.443.494 1.274.494.624 0 1.014-.286.403-.285.637-.78l1.04.637a2.8 2.8 0 0 1-.988 1.157q-.663.442-1.716.442m-16.967-1.3h-1.782V82h5.63v-1.144h-2.431v-2.51q0-.779.493-1.234.495-.468 1.274-.468h1.326v-1.352h-.806a2.3 2.3 0 0 0-.884.156 1.9 1.9 0 0 0-.637.39 2 2 0 0 0-.428.559q-.17.324-.26.676h-.079v-1.781h-3.198v1.144h1.781z" fill="#fff"/><path fill-rule="evenodd" clip-rule="evenodd" d="M75.428 82.156q-.768 0-1.379-.247a2.8 2.8 0 0 1-1.027-.702 3.1 3.1 0 0 1-.637-1.092 4.5 4.5 0 0 1-.22-1.456q0-.806.22-1.456.235-.65.637-1.105.417-.468 1.001-.715a3.3 3.3 0 0 1 1.3-.247q.703 0 1.275.247.57.234.975.676.402.441.61 1.053.222.61.221 1.352v.533h-4.81v.22q0 .795.495 1.3.493.495 1.365.495.65 0 1.105-.273a2.24 2.24 0 0 0 .754-.754l.883.78q-.338.585-1.04.988-.688.403-1.729.403m-.105-5.941q-.376 0-.701.13-.313.13-.546.377a1.8 1.8 0 0 0-.351.559 1.9 1.9 0 0 0-.13.715v.09h3.367v-.13q0-.792-.456-1.26-.441-.48-1.183-.481m-6.454 4.641h.078V82h1.417v-9.62h-1.417v4.056h-.078a2.4 2.4 0 0 0-.793-.95q-.494-.35-1.235-.35-1.184 0-1.885.884-.702.885-.702 2.626 0 1.742.702 2.626.702.885 1.885.884.74 0 1.235-.338.493-.351.793-.962m-.858.065a2.1 2.1 0 0 1-.585.078q-.807 0-1.248-.494-.43-.495-.43-1.313V78.1q0-.82.43-1.313.441-.495 1.248-.494.312 0 .585.078t.48.234q.21.156.326.39.13.22.13.533v2.236q0 .312-.13.546a1.1 1.1 0 0 1-.325.377 1.5 1.5 0 0 1-.481.234" fill="#fff"/><path d="M56.77 80.856h2.223v-7.332H56.77V72.38h3.64v8.476h2.223V82H56.77z" fill="#fff"/><path fill-rule="evenodd" clip-rule="evenodd" d="M50.56 81.909q.6.247 1.34.247a3.4 3.4 0 0 0 1.326-.247 2.7 2.7 0 0 0 1-.702q.416-.455.638-1.105.22-.65.22-1.456t-.22-1.456a3.1 3.1 0 0 0-.637-1.105 2.7 2.7 0 0 0-1.001-.702 3.4 3.4 0 0 0-1.326-.247q-.74 0-1.34.247-.585.247-1 .702a3.2 3.2 0 0 0-.624 1.105 4.5 4.5 0 0 0-.221 1.456q0 .806.22 1.456.222.65.625 1.105a2.8 2.8 0 0 0 1 .702m2.575-1.34q-.456.47-1.235.469-.78 0-1.248-.468-.456-.48-.455-1.417v-1.014q0-.936.455-1.404.468-.48 1.248-.481.78 0 1.235.48.468.468.468 1.405v1.014q0 .936-.468 1.417" fill="#fff"/><path d="M144.334 64.909a3.5 3.5 0 0 0 1.352.247q1.053 0 1.716-.442.663-.456.988-1.157l-1.04-.637q-.234.495-.637.78-.39.285-1.014.286-.832 0-1.274-.494t-.442-1.287v-1.118q0-.806.442-1.287.442-.495 1.248-.494.585 0 .949.273.377.273.559.74l1.105-.597a2.7 2.7 0 0 0-.949-1.144q-.624-.442-1.664-.442-.741 0-1.339.247-.585.246-1.001.702a3.2 3.2 0 0 0-.624 1.105 4.8 4.8 0 0 0-.208 1.456q0 .806.208 1.456.22.65.624 1.105.416.454 1.001.702m-9.602-1.053h1.781v-4.42h-1.781v-1.144h3.198v1.78h.078q.091-.35.26-.675.17-.325.429-.56.26-.246.637-.39a2.3 2.3 0 0 1 .884-.155h.806v1.352h-1.326q-.78 0-1.274.468-.494.455-.494 1.235v2.509h2.431V65h-5.629z" fill="#fff"/><path fill-rule="evenodd" clip-rule="evenodd" d="M131.422 64.688q.312.312.923.312h.871v-1.118h-.845v-3.367q0-1.157-.728-1.768-.728-.61-2.002-.611-1.066 0-1.742.403-.676.39-.962.936l.845.689q.273-.416.676-.663.404-.26 1.053-.26 1.443 0 1.443 1.365v.52h-1.287q-1.496 0-2.223.52-.715.507-.715 1.482 0 .948.611 1.495.61.533 1.638.533.793 0 1.3-.338.52-.338.715-.95h.065q.065.508.364.82m-.91-.884q-.442.312-1.131.312-.572 0-.897-.221-.325-.234-.325-.69v-.26q0-.921 1.534-.922h1.261v.975q0 .495-.442.806m-8.315 1.352q-.767 0-1.378-.247a2.8 2.8 0 0 1-1.027-.702 3.1 3.1 0 0 1-.637-1.092 4.5 4.5 0 0 1-.221-1.456q0-.806.221-1.456.234-.65.637-1.105.416-.468 1.001-.715t1.3-.247q.702 0 1.274.247.572.234.975.676t.611 1.053q.22.61.221 1.352v.533h-4.81v.22q0 .795.494 1.3.493.495 1.365.495.65 0 1.105-.273.468-.285.754-.754l.884.78q-.338.585-1.04.988-.689.403-1.729.403m-.104-5.941q-.377 0-.702.13-.312.13-.546.377a1.8 1.8 0 0 0-.351.559q-.13.325-.13.715v.09h3.367v-.13q0-.792-.455-1.26-.442-.48-1.183-.481" fill="#fff"/><path d="M112.387 64.805q.793.35 1.885.35 1.378 0 2.158-.571.793-.585.793-1.6 0-.52-.208-.857a1.6 1.6 0 0 0-.52-.546 2.2 2.2 0 0 0-.715-.325 8 8 0 0 0-.793-.17l-1.066-.168a2.2 2.2 0 0 1-.728-.208q-.299-.17-.299-.598 0-.897 1.417-.897.793 0 1.274.26.481.246.741.546l.793-.832a3.06 3.06 0 0 0-1.144-.767q-.676-.285-1.612-.286-1.287 0-2.08.533-.78.532-.78 1.56 0 .52.195.858.208.337.52.559.325.208.728.325t.793.169l1.066.169q.209.026.39.078.195.052.338.143.143.09.221.234a.7.7 0 0 1 .078.35q0 .495-.429.729-.416.234-1.105.234-.754 0-1.313-.247a3.2 3.2 0 0 1-.988-.741l-.871.78q.481.585 1.261.936M95.861 65v-6.708h1.417v1.144h.065q.105-.26.26-.494.17-.247.403-.416.234-.183.546-.286.312-.104.728-.104 1.014 0 1.638.663t.624 1.885V65h-1.417v-4.108q0-1.6-1.39-1.6-.274 0-.534.079a1.4 1.4 0 0 0-.468.208 1.1 1.1 0 0 0-.338.364 1.1 1.1 0 0 0-.117.507V65z" fill="#fff"/><path fill-rule="evenodd" clip-rule="evenodd" d="M92.447 64.688q.312.312.923.312h.871v-1.118h-.845v-3.367q0-1.157-.728-1.768-.727-.61-2.002-.611-1.065 0-1.742.403-.675.39-.962.936l.845.689q.274-.416.676-.663.403-.26 1.053-.26 1.443 0 1.443 1.365v.52h-1.287q-1.494 0-2.223.52-.715.507-.715 1.482 0 .948.611 1.495.612.533 1.638.533.793 0 1.3-.338.52-.338.715-.95h.065q.066.508.364.82m-.91-.884q-.441.312-1.13.312-.573 0-.898-.221-.325-.234-.325-.69v-.26q0-.921 1.534-.922h1.261v.975q0 .495-.442.806" fill="#fff"/><path d="M83.327 65.156q-.755 0-1.352-.247a2.8 2.8 0 0 1-1.001-.702 3.2 3.2 0 0 1-.624-1.105 4.8 4.8 0 0 1-.209-1.456q0-.807.209-1.456.22-.65.624-1.105a2.8 2.8 0 0 1 1-.702 3.5 3.5 0 0 1 1.34-.247q1.04 0 1.664.442.636.442.949 1.144l-1.106.598a1.6 1.6 0 0 0-.558-.741q-.365-.273-.95-.273-.805 0-1.248.494-.441.48-.441 1.287v1.118q0 .794.442 1.287.441.494 1.273.494.625 0 1.014-.286.404-.285.638-.78l1.04.637a2.8 2.8 0 0 1-.989 1.157q-.663.441-1.716.442m-14.51-1.3h.065V65h1.417v-6.708H68.88v4.55q0 .3-.13.52a1.05 1.05 0 0 1-.325.35 1.7 1.7 0 0 1-.468.222 2.2 2.2 0 0 1-.533.065q-1.391 0-1.391-1.6v-4.107h-1.417v4.316q0 1.222.624 1.885t1.638.663q.416 0 .728-.104t.546-.273a1.8 1.8 0 0 0 .39-.416 2.6 2.6 0 0 0 .273-.507" fill="#fff"/><path fill-rule="evenodd" clip-rule="evenodd" d="M59.695 65.156q-.74 0-1.34-.247a2.8 2.8 0 0 1-1-.702 3.2 3.2 0 0 1-.624-1.105 4.5 4.5 0 0 1-.221-1.456q0-.807.22-1.456.222-.65.625-1.105a2.8 2.8 0 0 1 1-.702 3.5 3.5 0 0 1 1.34-.247q.741 0 1.326.247.597.246 1 .702.416.455.638 1.105.22.65.22 1.456t-.22 1.456-.637 1.105a2.7 2.7 0 0 1-1.001.702 3.4 3.4 0 0 1-1.326.247m0-1.118q.78 0 1.235-.468.468-.48.468-1.417v-1.014q0-.936-.468-1.404-.456-.48-1.235-.481-.78 0-1.248.48-.456.468-.455 1.405v1.014q0 .936.455 1.417.468.468 1.248.468" fill="#fff"/><path d="M51.172 61.58V65h1.456v-3.42l3.016-5.654h-1.586L52.9 58.188l-.95 1.937h-.077l-.936-1.937-1.157-2.262h-1.625z" fill="#fff"/><path d="m231.759 9.344 8.062-6.079a1 1 0 0 1 1.46.284l5.198 8.656c.446.742-.198 1.662-1.048 1.496l-13.261-2.577c-.85-.165-1.103-1.26-.411-1.78" fill="#FF7E5B"/><path d="M47.442 115.283c-2.537-4.041-7.405-4.393-10.794-3.765 1.422 9.12 4.644 28.766 6.15 34.389 1.506 5.622 6.987 8.283 9.539 8.911l8.785-5.774c-1.464-.92-4.719-3.589-6.526-6.903-2.26-4.141-3.765-21.461-7.154-26.858" fill="#D6D7D8"/><path d="M50.077 146.534c-4.141 0-7.907 2.133-9.664 3.263 5.314 3.723 16.09 11.898 16.693 14.81.753 3.639-.377 11.546 0 13.931.376 2.385 2.761 5.522 3.263 7.154.402 1.305.502 2.719.502 3.263h14.81c-.21-1.171-.703-4.267-1.004-7.279-.377-3.765.878-11.045-2.887-20.709s-15.06-14.433-21.713-14.433" fill="#1D225F"/><path d="M2.134 140.258C.59 144.935 0 151.303 0 153.939c4.184 1.38 14.835 4.142 23.972 4.142s18.868-3.431 22.591-5.146c-.25-11.212 1.004-30.624-1.255-35.142-.71-1.42-5.02-10.417-17.069-6.276-12.049 4.142-22.215 16.944-26.105 28.741" fill="url(#paint0_linear_8816_4013)"/><path d="M3.514 168.969C1.255 165.705.126 157.579 0 153.939c10.543-1.255 25.855-6.401 36.397-6.401 5.522 0 14.057 1.004 19.83 8.786 5.774 7.781-1.757 27.109-2.133 28.992-.302 1.506-.126 3.054 0 3.639H39.033c.125-1.757.401-4.493.502-5.898.125-1.757-1.004-4.017-1.004-6.025 0-1.606.334-3.932.502-4.894-1.715.502-4.694 1.625-12.928 1.725-13.429 0-18.68.753-22.59-4.894" fill="url(#paint1_linear_8816_4013)"/><path d="M56.855 200c.703-4.317 2.97-9.162 4.016-11.044h14.81c.837.627 3.087 2.033 4.393 2.635 1.631.753 6.777 2.134 9.036 3.64 1.808 1.205 3.012 3.681 3.263 4.769z" fill="#80AEF2"/><path d="M35.017 200c.702-4.317 2.97-9.162 4.016-11.044h15.06c.837.627 2.837 2.033 4.142 2.635 1.632.753 7.28 2.134 9.539 3.64 1.807 1.205 2.761 3.681 3.012 4.769z" fill="#94BBF8"/><path d="M24.85 115.283c1.005-2.385.795-5.313.628-6.778 0 0 5.02.502 7.28.753 0 2.385.627 5.774.627 5.774-1.38 1.255-6.777 1.506-8.534.251" fill="#F3A29D"/><path d="M75.43 101.352c-1.406.502-3.933 2.384-5.02 3.263-.419 2.05-.879 6.275.627 6.777 1.883.628 5.146.377 6.526-.502 1.381-.878 1.758-3.138 1.758-4.016s-.251-2.887-.628-3.64c4.142-1.38 4.895-2.385 4.267-3.012s-5.773.502-7.53 1.13" fill="#FAB6AF"/><path d="M56.73 108.505c-5.9 1.381-16.944 1.507-23.973 2.134-6.902.616-14.684 6.15-13.805 13.68.93 7.98 10.842 6.966 16.943 5.272 4.518-1.255 9.79-5.648 11.547-6.401s6.734-1.375 8.66-2.134c4.141-1.631 7.656-4.895 9.413-5.773 1.506-.753 3.64-1.13 4.644-1.632.877-.438 2.175-1.255 2.886-1.757-.46-1.046-1.147-2.51-1.631-3.64-.484-1.129-.754-2.593-1.005-3.639-1.004 0-2.384.1-4.141.627-1.255.377-3.64 1.883-9.539 3.263" fill="url(#paint2_linear_8816_4013)"/><ellipse cx="31.628" cy="101.226" rx="11.296" ry="10.041" fill="url(#paint3_linear_8816_4013)"/><path d="M38.476 84.314c-1.01 1.262-2.492 3.028-5.104 4.335-.913.456-2.217.951-3.58 1.42 1.097-.227 2.095-.447 2.828-.652.284-.11.546-.223.778-.339 2.54-1.27 4.18-2.525 5.454-3.84l.361.349a17 17 0 0 1-2.103 1.837c1.545-.697 3.023-1.155 3.93-.506 1.758 1.255 0 5.899-3.262 8.534-1.454 1.175-3.93 2.35-6.407 3.524-3.08 1.461-6.16 2.922-7.274 4.383-1.606 2.109-1.171 4.058-.753 4.77-1.84-1.59-5.27-5.769-5.27-9.79 0-4.142 2.635-5.974 4.015-6.526.61-.244 1.72-.515 3.025-.794 2.286-.679 6.09-1.847 8.033-2.82 2.513-1.256 3.939-2.951 4.937-4.199z" fill="#428DFC"/><path fill-rule="evenodd" clip-rule="evenodd" d="M41.292 94.7a2.636 2.636 0 1 0 0 5.27 2.636 2.636 0 0 0 0-5.27m-2.134 2.635a2.134 2.134 0 1 1 4.268 0 2.134 2.134 0 0 1-4.268 0m-3.765-.879a2.761 2.761 0 1 0 0 5.523 2.761 2.761 0 0 0 0-5.523m-2.26 2.761a2.26 2.26 0 1 1 4.52 0 2.26 2.26 0 0 1-4.52 0" fill="#222768"/><path d="M70.786 159.461c1.883-2.887-5.397-10.37-7.28-10.794-5.02-1.129-8.66 1.632-8.157 2.887.502 1.255 4.392-1.129 5.773-.251 1.38.879 1.506 3.347 2.385 4.518 1.255 1.674 6.015 5.579 7.279 3.64" fill="#FAB6AF"/><path fill="url(#paint4_linear_8816_4013)" d="M0 173.863h34.138v25.915H0z"/><path d="M112 106.5c15 17 33.539 20.28 46.5 21 45 2.5 47.892-47.207 27.5-51.5-19-4-20 27.5 4.5 29 36.216 2.217 44.5-72 48.5-93.5" stroke="#FF7E5B" stroke-width="3" stroke-linecap="round" style="stroke-dasharray:4 8;animation:ant-march .5s infinite linear"/><defs><linearGradient id="paint0_linear_8816_4013" x1="23.344" y1="110.437" x2="23.344" y2="158.081" gradientUnits="userSpaceOnUse"><stop offset=".335" stop-color="#EBEBEB"/><stop offset="1" stop-color="#D6D7D8"/></linearGradient><linearGradient id="paint1_linear_8816_4013" x1="32.124" y1="147.538" x2="27.962" y2="189.357" gradientUnits="userSpaceOnUse"><stop stop-color="#2A318C"/><stop offset="1" stop-color="#1D225F"/></linearGradient><linearGradient id="paint2_linear_8816_4013" x1="30.122" y1="109.259" x2="56.855" y2="126.076" gradientUnits="userSpaceOnUse"><stop offset=".173" stop-color="#EBEBEB"/><stop offset="1" stop-color="#D6D7D8"/></linearGradient><linearGradient id="paint3_linear_8816_4013" x1="20.332" y1="101.226" x2="42.923" y2="101.226" gradientUnits="userSpaceOnUse"><stop offset=".28" stop-color="#FDBAB3"/><stop offset="1" stop-color="#F3A39D"/></linearGradient><linearGradient id="paint4_linear_8816_4013" x1="0" y1="199.778" x2="34.138" y2="199.778" gradientUnits="userSpaceOnUse"><stop stop-color="#D99D05"/><stop offset="1" stop-color="#EFB305"/></linearGradient></defs></svg>
