<!--
  - Copyright (c) 2024. Devtron Inc.
  -
  - Licensed under the Apache License, Version 2.0 (the "License");
  - you may not use this file except in compliance with the License.
  - You may obtain a copy of the License at
  -
  -     http://www.apache.org/licenses/LICENSE-2.0
  -
  - Unless required by applicable law or agreed to in writing, software
  - distributed under the License is distributed on an "AS IS" BASIS,
  - WITHOUT WARRANTIES OR CONDITIONS OF ANY KIND, either express or implied.
  - See the License for the specific language governing permissions and
  - limitations under the License.
  -->

<svg width="32" height="32" viewBox="0 0 32 32" fill="none" xmlns="http://www.w3.org/2000/svg">
<path d="M29.3313 11.3191C29.4255 7.51741 26.2554 4.29572 22.2627 4.25439C19.5895 4.22668 17.2511 5.59715 16 7.64458C14.7487 5.59715 12.4105 4.22645 9.73732 4.25439C5.74461 4.29572 2.57453 7.51741 2.66871 11.3191C2.87949 19.8142 13.5479 27.2032 15.6445 28.5746C15.8588 28.7149 16.1412 28.7149 16.3555 28.5746C18.4521 27.2032 29.1205 19.8142 29.3313 11.3191Z" fill="#1DAD70"/>
<path d="M16.1184 23.6317C15.7525 23.6317 15.4381 23.3837 15.3701 23.0408L13.5109 13.6352L11.5327 18.1127C11.4175 18.3735 11.1538 18.5464 10.857 18.5561C10.5597 18.5657 10.2845 18.4099 10.151 18.1573L9.62221 17.1562H2.21582C1.79546 17.1562 1.45454 16.8315 1.45454 16.4312C1.45454 16.0306 1.79546 15.7061 2.21582 15.7061H10.0914C10.3776 15.7061 10.6396 15.8589 10.7694 16.1016L13.0892 10.8515C13.2195 10.5564 13.5377 10.3777 13.8714 10.4117C14.2056 10.4456 14.4768 10.6839 14.5391 10.9985L16.072 18.7543L16.7064 15.1254C16.7673 14.7756 17.0849 14.5193 17.4571 14.5193H19.9416C20.199 14.5193 20.4392 14.6431 20.5796 14.8485L21.7461 16.5538L22.2493 15.9708C22.394 15.8032 22.6098 15.7061 22.8375 15.7061H30.1883C30.6087 15.7061 30.9494 16.0308 30.9494 16.4312C30.9494 16.8315 30.6087 17.1562 30.1883 17.1562H23.1973L22.2635 18.2383C22.1095 18.4166 21.8753 18.5145 21.6334 18.5019C21.391 18.4892 21.1698 18.3673 21.0375 18.1738L19.5294 15.9693H18.1022L16.8693 23.0256C16.8088 23.3724 16.4955 23.6278 16.1265 23.6315C16.1238 23.6315 16.1208 23.6317 16.1184 23.6317Z" fill="white"/>
</svg>
