<svg xmlns="http://www.w3.org/2000/svg" width="20" height="20" viewBox="0 0 24 24">
    <g fill="none" fill-rule="evenodd">
        <path d="M0 0h24v24H0z"/>
        <g fill-rule="nonzero" transform="translate(2 2)">
            <rect width="20" height="20" fill="#404040" rx="10"/>
            <path fill="#FFF" d="M6 7.266c0-.495.159-.996.477-1.504.317-.508.78-.929 1.39-1.262.61-.333 1.32-.5 2.133-.5.755 0 1.422.14 2 .418.578.279 1.025.658 1.34 1.137.315.479.473 1 .473 1.562 0 .443-.09.83-.27 1.164-.18.334-.393.621-.64.864-.248.242-.692.65-1.333 1.222a5.423 5.423 0 0 0-.425.426 1.73 1.73 0 0 0-.239.336 1.649 1.649 0 0 0-.12.305c-.03.101-.072.28-.13.535-.099.541-.409.812-.93.812a.95.95 0 0 1-.683-.265c-.185-.177-.277-.44-.277-.79 0-.437.067-.816.203-1.136.135-.32.315-.602.539-.844.224-.242.526-.53.906-.863.333-.292.574-.512.723-.66a2.24 2.24 0 0 0 .375-.496 1.2 1.2 0 0 0 .152-.594 1.38 1.38 0 0 0-.465-1.055c-.31-.286-.71-.43-1.199-.43-.573 0-.995.145-1.266.434-.27.29-.5.715-.687 1.277-.177.589-.513.883-1.008.883a.99.99 0 0 1-.738-.308C6.1 7.728 6 7.505 6 7.266zm3.813 8.562a1.23 1.23 0 0 1-.833-.308c-.237-.206-.355-.494-.355-.864 0-.328.115-.604.344-.828.229-.224.51-.336.844-.336.328 0 .604.112.828.336.224.224.336.5.336.828 0 .365-.118.651-.352.86a1.186 1.186 0 0 1-.813.312z"/>
        </g>
    </g>
</svg>
