<!--
  - Copyright (c) 2024. Devtron Inc.
  -
  - Licensed under the Apache License, Version 2.0 (the "License");
  - you may not use this file except in compliance with the License.
  - You may obtain a copy of the License at
  -
  -     http://www.apache.org/licenses/LICENSE-2.0
  -
  - Unless required by applicable law or agreed to in writing, software
  - distributed under the License is distributed on an "AS IS" BASIS,
  - WITHOUT WARRANTIES OR CONDITIONS OF ANY KIND, either express or implied.
  - See the License for the specific language governing permissions and
  - limitations under the License.
  -->

<svg xmlns="http://www.w3.org/2000/svg" width="24" height="24" viewBox="0 0 16 16" fill="none">
  <path d="M15.2064 6.95138C15.1695 6.92099 14.8352 6.66706 14.1179 6.66706C13.9324 6.66706 13.7403 6.68551 13.5547 6.71698C13.4191 5.7707 12.6334 5.31275 12.6019 5.28888L12.4098 5.1771L12.2861 5.35616C12.132 5.59707 12.0138 5.86945 11.9465 6.14726C11.8162 6.68551 11.8966 7.19229 12.1689 7.62528C11.8412 7.81084 11.3095 7.85425 11.1977 7.86076H2.4153C2.18632 7.86076 2.00076 8.04633 2.00076 8.2753C1.98882 9.04253 2.11796 9.80867 2.38383 10.5325C2.68659 11.3236 3.13803 11.9118 3.71969 12.2699C4.37514 12.6714 5.44513 12.9004 6.65077 12.9004C7.19445 12.9004 7.73921 12.8504 8.27746 12.7517C9.02624 12.616 9.74355 12.3556 10.4044 11.979C10.9492 11.6632 11.4375 11.2617 11.8521 10.7918C12.5509 10.0062 12.9655 9.12826 13.2682 8.3491C13.3116 8.3491 13.3485 8.3491 13.3919 8.3491C14.1527 8.3491 14.6225 8.04633 14.8819 7.78589C15.0555 7.62528 15.1847 7.42669 15.278 7.20423L15.3333 7.04362L15.2064 6.95138ZM9.77068 7.60683H10.9459C11.0013 7.60683 11.0512 7.56342 11.0512 7.50157V6.45002C11.0512 6.39468 11.0078 6.34476 10.9459 6.34476H9.77068C9.71533 6.34476 9.66542 6.38817 9.66542 6.45002V7.50157C9.67193 7.56342 9.71533 7.60683 9.77068 7.60683ZM8.13205 4.59544H9.3073C9.36265 4.59544 9.41257 4.55204 9.41257 4.49018V3.43864C9.41257 3.38329 9.36265 3.33337 9.3073 3.33337H8.13205C8.07671 3.33337 8.02679 3.37678 8.02679 3.43864V4.49018C8.02679 4.54552 8.07562 4.59544 8.13205 4.59544ZM8.13205 6.10385H9.3073C9.36265 6.10385 9.41257 6.05393 9.41257 5.99859V4.94704C9.41257 4.8917 9.36265 4.84178 9.3073 4.84178H8.13205C8.07671 4.84178 8.02679 4.88519 8.02679 4.94704V5.99859C8.02679 6.05502 8.07562 6.10385 8.13205 6.10385ZM6.50536 6.10385H7.68061C7.73596 6.10385 7.78588 6.05393 7.78588 5.99859V4.94704C7.78588 4.8917 7.74247 4.84178 7.68061 4.84178H6.50536C6.45001 4.84178 6.40009 4.88519 6.40009 4.94704V5.99859C6.40009 6.05502 6.4435 6.10385 6.50536 6.10385ZM4.85371 6.10385H6.02896C6.08431 6.10385 6.13423 6.05393 6.13423 5.99859V4.94704C6.13423 4.8917 6.09082 4.84178 6.02896 4.84178H4.85371C4.79836 4.84178 4.74844 4.88519 4.74844 4.94704V5.99859C4.75496 6.05502 4.79836 6.10385 4.85371 6.10385ZM8.13205 7.60683H9.3073C9.36265 7.60683 9.41257 7.56342 9.41257 7.50157V6.45002C9.41257 6.39468 9.36916 6.34476 9.3073 6.34476H8.13205C8.07671 6.34476 8.02679 6.38817 8.02679 6.45002V7.50157C8.02679 7.56342 8.07562 7.60683 8.13205 7.60683ZM6.50536 7.60683H7.68061C7.73596 7.60683 7.78588 7.56342 7.78588 7.50157V6.45002C7.78588 6.39468 7.74247 6.34476 7.68061 6.34476H6.50536C6.45001 6.34476 6.40009 6.38817 6.40009 6.45002V7.50157C6.40009 7.56342 6.4435 7.60683 6.50536 7.60683ZM4.85371 7.60683H6.02896C6.08431 7.60683 6.13423 7.56342 6.13423 7.50157V6.45002C6.13423 6.39468 6.09082 6.34476 6.02896 6.34476H4.85371C4.79836 6.34476 4.74844 6.38817 4.74844 6.45002V7.50157C4.75496 7.56342 4.79836 7.60683 4.85371 7.60683ZM3.23353 7.60683H4.40878C4.46413 7.60683 4.51404 7.56342 4.51404 7.50157V6.45002C4.51404 6.39468 4.47064 6.34476 4.40878 6.34476H3.23353C3.17818 6.34476 3.12826 6.38817 3.12826 6.45002V7.50157C3.13478 7.56342 3.17818 7.60683 3.23353 7.60683Z" fill="#0091E2"/>
</svg>
