<!--
  - Copyright (c) 2024. Devtron Inc.
  -
  - Licensed under the Apache License, Version 2.0 (the "License");
  - you may not use this file except in compliance with the License.
  - You may obtain a copy of the License at
  -
  -     http://www.apache.org/licenses/LICENSE-2.0
  -
  - Unless required by applicable law or agreed to in writing, software
  - distributed under the License is distributed on an "AS IS" BASIS,
  - WITHOUT WARRANTIES OR CONDITIONS OF ANY KIND, either express or implied.
  - See the License for the specific language governing permissions and
  - limitations under the License.
  -->

<svg xmlns="http://www.w3.org/2000/svg" width="48" height="48" viewBox="0 0 48 48">
    <g fill="none" fill-rule="evenodd">
        <g>
            <g>
                <g>
                    <path fill="#E5F2FF" stroke="#06C" stroke-linejoin="round" stroke-width="2" d="M24 4C12.96 4 4 12.96 4 24s8.96 20 20 20 20-8.96 20-20S35.04 4 24 4z" transform="translate(-508.000000, -107.000000) translate(484.000000, 83.000000) translate(24.000000, 24.000000)"/>
                    <path fill="#06C" fill-rule="nonzero" d="M24 22c1.105 0 2 .895 2 2v8c0 1.105-.895 2-2 2s-2-.895-2-2v-8c0-1.105.895-2 2-2zm0-8c1.105 0 2 .895 2 2s-.895 2-2 2-2-.895-2-2 .895-2 2-2z" transform="translate(-508.000000, -107.000000) translate(484.000000, 83.000000) translate(24.000000, 24.000000)"/>
                </g>
            </g>
        </g>
    </g>
</svg>
