<!--
  - Copyright (c) 2024. Devtron Inc.
  -
  - Licensed under the Apache License, Version 2.0 (the "License");
  - you may not use this file except in compliance with the License.
  - You may obtain a copy of the License at
  -
  -     http://www.apache.org/licenses/LICENSE-2.0
  -
  - Unless required by applicable law or agreed to in writing, software
  - distributed under the License is distributed on an "AS IS" BASIS,
  - WITHOUT WARRANTIES OR CONDITIONS OF ANY KIND, either express or implied.
  - See the License for the specific language governing permissions and
  - limitations under the License.
  -->

<svg width="48" height="48" viewBox="0 0 48 48" fill="none" xmlns="http://www.w3.org/2000/svg">
<rect width="48" height="48" rx="8" fill="#E5F2FF"/>
<path d="M18.2265 22L24 25.3333L24.0001 32L18.7266 35.0447C18.4172 35.2233 18.036 35.2233 17.7266 35.0447L12.9531 32.2887C12.6437 32.11 12.4531 31.7799 12.4531 31.4227V25.9107C12.4531 25.5534 12.6437 25.2233 12.9531 25.0447L18.2265 22Z" fill="#72ACE6"/>
<path d="M29.2734 15.0447L24.4999 12.2887C24.1905 12.11 23.8093 12.11 23.4999 12.2887L18.7264 15.0447C18.417 15.2233 18.2264 15.5534 18.2264 15.9107V22L23.9999 25.3333L29.7734 22V15.9107C29.7734 15.5534 29.5828 15.2233 29.2734 15.0447Z" fill="#ABCFF3"/>
<path d="M24 25.3333L29.7735 22L35.0468 25.0447C35.3562 25.2233 35.5468 25.5534 35.5468 25.9107V31.4227C35.5468 31.7799 35.3562 32.11 35.0468 32.2887L30.2733 35.0447C29.9639 35.2233 29.5827 35.2233 29.2733 35.0446L24.0002 32L24 25.3333Z" fill="#3989D9"/>
</svg>
