<!--
  - Copyright (c) 2024. Devtron Inc.
  -
  - Licensed under the Apache License, Version 2.0 (the "License");
  - you may not use this file except in compliance with the License.
  - You may obtain a copy of the License at
  -
  -     http://www.apache.org/licenses/LICENSE-2.0
  -
  - Unless required by applicable law or agreed to in writing, software
  - distributed under the License is distributed on an "AS IS" BASIS,
  - WITHOUT WARRANTIES OR CONDITIONS OF ANY KIND, either express or implied.
  - See the License for the specific language governing permissions and
  - limitations under the License.
  -->

<svg width="16" height="16" viewBox="0 0 16 16" fill="none" xmlns="http://www.w3.org/2000/svg">
<path d="M8 5.5C8 4.96957 7.78929 4.46086 7.41421 4.08579C7.03914 3.71071 6.53043 3.5 6 3.5H2C1.86739 3.5 1.74021 3.55268 1.64645 3.64645C1.55268 3.74021 1.5 3.86739 1.5 4V12C1.5 12.1326 1.55268 12.2598 1.64645 12.3536C1.74021 12.4473 1.86739 12.5 2 12.5H6C6.53043 12.5 7.03914 12.7107 7.41421 13.0858C7.78929 13.4609 8 13.9696 8 14.5M8 5.5V14.5M8 5.5C8 4.96957 8.21071 4.46086 8.58579 4.08579C8.96086 3.71071 9.46957 3.5 10 3.5H14C14.1326 3.5 14.2598 3.55268 14.3536 3.64645C14.4473 3.74021 14.5 3.86739 14.5 4V12C14.5 12.1326 14.4473 12.2598 14.3536 12.3536C14.2598 12.4473 14.1326 12.5 14 12.5H10C9.46957 12.5 8.96086 12.7107 8.58579 13.0858C8.21071 13.4609 8 13.9696 8 14.5" stroke="#0066CC" stroke-width="1.5" stroke-linecap="round" stroke-linejoin="round"/>
</svg>
