<!--
  - Copyright (c) 2024. Devtron Inc.
  -
  - Licensed under the Apache License, Version 2.0 (the "License");
  - you may not use this file except in compliance with the License.
  - You may obtain a copy of the License at
  -
  -     http://www.apache.org/licenses/LICENSE-2.0
  -
  - Unless required by applicable law or agreed to in writing, software
  - distributed under the License is distributed on an "AS IS" BASIS,
  - WITHOUT WARRANTIES OR CONDITIONS OF ANY KIND, either express or implied.
  - See the License for the specific language governing permissions and
  - limitations under the License.
  -->

<svg xmlns="http://www.w3.org/2000/svg" viewBox="0 0 24 24">
    <path fill="#1D2730" fill-rule="evenodd" class="fill-color" d="M13.557 19.1c.77 0 1.252.835.865 1.502-.5.863-1.424 1.395-2.422 1.395-.998 0-1.921-.532-2.422-1.395-.367-.634.048-1.419.752-1.496l.113-.006h3.114zM12 2c3.951 0 7.169 3.139 7.296 7.059l.004.241v4.5c0 .89.683 1.62 1.553 1.694l.28.013c1.111.12 1.154 1.73.128 1.965l-.128.021L21 17.5H3l-.133-.007c-1.156-.124-1.156-1.862 0-1.986l.28-.013c.822-.07 1.477-.725 1.547-1.547L4.7 13.8V9.3C4.7 5.268 7.968 2 12 2zm0 2C9.146 4 6.819 6.256 6.704 9.082L6.7 9.3v4.5c0 .509-.103.993-.288 1.434l-.1.217-.027.049h11.429l-.026-.05c-.184-.367-.308-.77-.36-1.196l-.023-.257-.005-.197V9.3C17.3 6.373 14.927 4 12 4z"/>
</svg>
