<!--
  - Copyright (c) 2024. Devtron Inc.
  -
  - Licensed under the Apache License, Version 2.0 (the "License");
  - you may not use this file except in compliance with the License.
  - You may obtain a copy of the License at
  -
  -     http://www.apache.org/licenses/LICENSE-2.0
  -
  - Unless required by applicable law or agreed to in writing, software
  - distributed under the License is distributed on an "AS IS" BASIS,
  - WITHOUT WARRANTIES OR CONDITIONS OF ANY KIND, either express or implied.
  - See the License for the specific language governing permissions and
  - limitations under the License.
  -->

<svg xmlns="http://www.w3.org/2000/svg" xmlns:xlink="http://www.w3.org/1999/xlink" width="24" height="24" viewBox="0 0 24 24">
    <defs>
        <path id="n7lc2hzvca" d="M0 0H20V20H0z"/>
    </defs>
    <g fill="none" fill-rule="evenodd">
        <g>
            <g>
                <g>
                    <g>
                        <g>
                            <path d="M0 0H24V24H0z" transform="translate(-532 -562) translate(88 477) translate(20 68) translate(260) translate(164 17)"/>
                            <g transform="translate(-532 -562) translate(88 477) translate(20 68) translate(260) translate(164 17) translate(2 2)">
                                <mask id="1oj3nfylub" fill="#fff">
                                    <use xlink:href="#n7lc2hzvca"/>
                                </mask>
                                <path fill="#FF2D6B" fill-rule="nonzero" d="M6.53 14.81c.37-.64.339-1.4-.014-1.993L9.39 7.834l-.833-.48c-1.368-.789-1.839-2.543-1.05-3.91.788-1.368 2.543-1.84 3.91-1.05 1.203.693 1.712 2.133 1.28 3.401l1.878.446c.618-2.076-.24-4.386-2.197-5.514C10.092-.592 7.16.196 5.84 2.482c-1.154 2.001-.695 4.498.97 5.974l-1.96 3.4c-.69-.008-1.364.346-1.733.986-.543.942-.22 2.147.723 2.69.942.544 2.147.22 2.69-.722z" mask="url(#1oj3nfylub)"/>
                                <path fill="#4A4A4A" fill-rule="nonzero" d="M5.78 20.144c.37-.64.339-1.4-.014-1.994l2.874-4.982-.833-.48c-1.368-.79-1.839-2.544-1.05-3.911.788-1.368 2.543-1.839 3.91-1.05 1.203.693 1.712 2.134 1.28 3.401l1.878.446c.618-2.075-.24-4.385-2.197-5.514C9.342 4.742 6.41 5.53 5.09 7.816c-1.154 2-.695 4.497.97 5.973l-1.96 3.4c-.69-.008-1.364.346-1.733.986-.543.943-.22 2.147.723 2.691.942.544 2.147.22 2.69-.722z" mask="url(#1oj3nfylub)" transform="rotate(-120 8.063 13.275)"/>
                                <path fill="#4A4A4A" fill-rule="nonzero" d="M10.864 18.144c.37-.64.338-1.4-.014-1.994l2.873-4.982-.833-.48c-1.368-.79-1.839-2.544-1.05-3.911.789-1.368 2.543-1.839 3.91-1.05 1.203.693 1.712 2.134 1.281 3.401l1.877.446c.619-2.075-.24-4.385-2.196-5.514-2.287-1.318-5.22-.53-6.538 1.756-1.154 2-.695 4.497.97 5.973l-1.96 3.4c-.69-.008-1.364.346-1.733.986-.544.943-.22 2.147.722 2.691.943.544 2.147.22 2.691-.722z" mask="url(#1oj3nfylub)" transform="rotate(120 13.146 11.275)"/>
                            </g>
                        </g>
                    </g>
                </g>
            </g>
        </g>
    </g>
</svg>
