<!--
  - Copyright (c) 2024. Devtron Inc.
  -
  - Licensed under the Apache License, Version 2.0 (the "License");
  - you may not use this file except in compliance with the License.
  - You may obtain a copy of the License at
  -
  -     http://www.apache.org/licenses/LICENSE-2.0
  -
  - Unless required by applicable law or agreed to in writing, software
  - distributed under the License is distributed on an "AS IS" BASIS,
  - WITHOUT WARRANTIES OR CONDITIONS OF ANY KIND, either express or implied.
  - See the License for the specific language governing permissions and
  - limitations under the License.
  -->

<svg xmlns="http://www.w3.org/2000/svg" width="24" height="24" viewBox="0 0 24 24">
    <g fill="none" fill-rule="evenodd">
        <g>
            <g>
                <g>
                    <g>
                        <g>
                            <path d="M0 0H24V24H0z" transform="translate(-792 -181) translate(88 96) translate(20 58) translate(520 10) matrix(-1 0 0 1 188 17)"/>
                            <g fill-rule="nonzero">
                                <path fill="#FE636E" d="M5.12 14.37c-1.534.08-4.154.95-3.9 2.767.64 4.609-4.4 6.089 2.306 6.089 3.374 0 5.5-1.48 5.821-4.586l-.91-3.521-3.318-.748z" transform="translate(-792 -181) translate(88 96) translate(20 58) translate(520 10) matrix(-1 0 0 1 188 17)"/>
                                <path fill="#FFD659" d="M6.325 15.59c-.71.037-1.928.44-1.812 1.285.298 2.14-2.042 2.827 1.072 2.827 1.567 0 2.556-.686 2.705-2.13l-.344-1.74-1.62-.243z" transform="translate(-792 -181) translate(88 96) translate(20 58) translate(520 10) matrix(-1 0 0 1 188 17)"/>
                                <path fill="#FB2A39" d="M7.864 18.775c-.911 1.658-2.718 2.458-5.197 2.458-.97 0-1.695-.032-2.226-.098-.716 1.523-1.065 2.09 3.085 2.09 3.374 0 5.5-1.479 5.821-4.585l-.766-.773-.26-.264c-.024.09-.049.177-.076.264-.07.355-.2.657-.381.908z" transform="translate(-792 -181) translate(88 96) translate(20 58) translate(520 10) matrix(-1 0 0 1 188 17)"/>
                                <path fill="#FFBF00" d="M7.576 16.853c-.335 1.035-1.248 1.53-2.58 1.53-.267 0-.492-.004-.684-.015-.392.983-.954 1.334 1.273 1.334 1.04 0 1.825-.301 2.278-.927.182-.25.312-.553.382-.908.02-.095.034-.193.045-.295l-.714-.72z" transform="translate(-792 -181) translate(88 96) translate(20 58) translate(520 10) matrix(-1 0 0 1 188 17)"/>
                                <path fill="#99B4CD" d="M6.973 11.845l-1.999 1.173c-.402.236-.335.868-.015 1.192l.16.16 1.206 1.22 1.965 1.982 1.057 1.068.551.557c.322.323.948.389 1.182-.016l1.16-2.02-1.314-5.112-3.953-.204zM23.173.063C22.212-.115 20.46.07 18.327.8l.96 3.561 3.898 1.331c.725-2.167.907-3.942.724-4.906-.107-.562-.175-.62-.736-.723z" transform="translate(-792 -181) translate(88 96) translate(20 58) translate(520 10) matrix(-1 0 0 1 188 17)"/>
                                <path fill="#06C" d="M12.19 4.027c-2.67-.973-4.737-.53-6.833 1.386-.972.944-2.59 2.185-1.254 3.534l1.662 1.677L10.54 8.19l1.65-4.162zM19.986 11.896l-4.488 1.873-2.047 4.614 1.661 1.678c1.336 1.348 2.565-.285 3.5-1.266.97-1.082 2.697-3.143 1.374-6.9z" transform="translate(-792 -181) translate(88 96) translate(20 58) translate(520 10) matrix(-1 0 0 1 188 17)"/>
                                <path fill="#FFF" d="M23.185 5.692c-.112.339-.239.686-.378 1.041-.635 1.608-1.555 3.38-2.821 5.162-1.59 2.24-3.727 4.5-6.535 6.489l-.33-.333-.88-.889-2.377-2.4-.257-.259-.257-.259-2.376-2.4-1.21-1.22c1.97-2.835 4.21-4.991 6.426-6.596C14.345 2.468 16.48 1.43 18.327.8l4.858 4.892z" transform="translate(-792 -181) translate(88 96) translate(20 58) translate(520 10) matrix(-1 0 0 1 188 17)"/>
                                <path fill="#06C" d="M17.402 5.863c.152-.026.288.053.348.177l1.126 1.756c.098.15.1.344.006.497l-1.432 2.341c-.092.151-.256.243-.433.243l-2.082.002h-.014c-.203-.01-.315-.242-.204-.412l1.435-2.196c.054-.112.18-.183.318-.152.102.023.185.106.208.208.016.07.005.136-.023.192l-.015.025-.016.023-.218.337c-.065.098-.004.229.113.242l.529.038c.098.007.195-.027.267-.094.095-.112.517-.8.71-1.122.062-.104.054-.234-.016-.332l.002-.001-.678-1.055-.127-.2c-.014-.017-.025-.035-.035-.055l-.005-.007c-.024-.056-.035-.117-.026-.182.018-.137.127-.25.262-.273zm-2.63-.422l2.082.007h.014c.203.011.315.243.203.413l-1.445 2.19c-.055.112-.181.182-.319.15-.102-.023-.184-.106-.207-.208-.016-.07-.005-.137.024-.193l.03-.047.22-.336c.066-.097.005-.229-.11-.242l-.53-.04c-.098-.008-.195.025-.268.092-.095.112-.52.797-.715 1.119-.062.104-.055.233.015.332l-.002.001.674 1.058.126.2c.013.017.024.036.034.055l.005.007c.024.056.035.118.026.183-.02.136-.128.249-.264.272-.152.025-.288-.055-.347-.179l-1.119-1.761c-.096-.151-.098-.345-.003-.498l1.442-2.334c.093-.15.257-.242.434-.241z" transform="translate(-792 -181) translate(88 96) translate(20 58) translate(520 10) matrix(-1 0 0 1 188 17) scale(-1 1) rotate(-45 0 46.518)"/>
                                <path fill="#6C9ABB" d="M22.87.021c.095 1.01-.117 2.638-.766 4.58l1.081 1.091c.725-2.167.907-3.942.724-4.906-.107-.562-.175-.62-.736-.723-.094-.018-.194-.032-.302-.042z" transform="translate(-792 -181) translate(88 96) translate(20 58) translate(520 10) matrix(-1 0 0 1 188 17)"/>
                                <path fill="#EBEBEB" d="M21.724 5.644c-.635 1.608-1.554 3.378-2.821 5.162-.549.772-1.161 1.546-1.845 2.311-.686.77-1.443 1.527-2.275 2.264-.743.657-1.546 1.298-2.413 1.912l.751.758.33.332c2.808-1.989 4.944-4.248 6.535-6.487 1.266-1.784 2.186-3.555 2.82-5.163.14-.355.267-.703.38-1.04l-1.082-1.091c-.071.21-.147.425-.229.643-.048.131-.098.265-.151.399z" transform="translate(-792 -181) translate(88 96) translate(20 58) translate(520 10) matrix(-1 0 0 1 188 17)"/>
                                <path fill="#6C9ABB" d="M10.924 15.832l-1.161 2.02c-.234.404-.86.338-1.182.015l.766.773.551.556c.322.323.948.39 1.182-.015l1.16-2.02-1.316-1.329z" transform="translate(-792 -181) translate(88 96) translate(20 58) translate(520 10) matrix(-1 0 0 1 188 17)"/>
                                <path fill="#0053A6" d="M19.986 11.896c-.22.31-.452.62-.692.93.311 2.632-1.005 4.195-1.807 5.09-.768.804-1.732 2.048-2.792 1.724l.417.42c1.336 1.35 2.565-.284 3.5-1.265.97-1.082 2.697-3.143 1.374-6.9zM10.498 3.59C8.503 5.1 6.508 7.063 4.721 9.57l1.044 1.053c1.97-2.835 4.208-4.991 6.425-6.597-.59-.215-1.153-.361-1.692-.437z" transform="translate(-792 -181) translate(88 96) translate(20 58) translate(520 10) matrix(-1 0 0 1 188 17)"/>
                                <path fill="#EBEBEB" d="M11.73 12.88l-1.864 1.88-.002.002-.257-.259-.257-.259 1.862-1.878c.142-.143.373-.144.515-.002.143.142.144.373.002.516z" transform="translate(-792 -181) translate(88 96) translate(20 58) translate(520 10) matrix(-1 0 0 1 188 17)"/>
                            </g>
                        </g>
                    </g>
                </g>
            </g>
        </g>
    </g>
</svg>
