<!--
  - Copyright (c) 2024. Devtron Inc.
  -
  - Licensed under the Apache License, Version 2.0 (the "License");
  - you may not use this file except in compliance with the License.
  - You may obtain a copy of the License at
  -
  -     http://www.apache.org/licenses/LICENSE-2.0
  -
  - Unless required by applicable law or agreed to in writing, software
  - distributed under the License is distributed on an "AS IS" BASIS,
  - WITHOUT WARRANTIES OR CONDITIONS OF ANY KIND, either express or implied.
  - See the License for the specific language governing permissions and
  - limitations under the License.
  -->

<svg width="16" height="16" viewBox="0 0 16 16" fill="none" xmlns="http://www.w3.org/2000/svg">
<path d="M5 8C5 7.0111 5.29324 6.0444 5.84265 5.22215C6.39206 4.39991 7.17295 3.75904 8.08658 3.3806C9.00021 3.00217 10.0055 2.90315 10.9755 3.09608C11.9454 3.289 12.8363 3.76521 13.5355 4.46447C14.2348 5.16373 14.711 6.05465 14.9039 7.02455C15.0969 7.99446 14.9978 8.99979 14.6194 9.91342C14.241 10.827 13.6001 11.6079 12.7779 12.1573C11.9556 12.7068 10.9889 13 10 13H4.5C4.00365 12.9995 3.51307 12.8935 3.06084 12.6889C2.60861 12.4843 2.20506 12.1859 1.87699 11.8134C1.54891 11.441 1.3038 11.003 1.15794 10.5285C1.01208 10.0541 0.968797 9.55407 1.03096 9.06163C1.09313 8.56919 1.25933 8.0956 1.51853 7.6723C1.77772 7.249 2.12399 6.88567 2.53434 6.60643C2.94469 6.32718 3.40974 6.13842 3.89863 6.05265C4.38752 5.96688 4.88905 5.98608 5.36995 6.10897" stroke="#1DAD70" stroke-width="1.5" stroke-linecap="round" stroke-linejoin="round"/>
</svg>
