<!--
  - Copyright (c) 2024. Devtron Inc.
  -
  - Licensed under the Apache License, Version 2.0 (the "License");
  - you may not use this file except in compliance with the License.
  - You may obtain a copy of the License at
  -
  -     http://www.apache.org/licenses/LICENSE-2.0
  -
  - Unless required by applicable law or agreed to in writing, software
  - distributed under the License is distributed on an "AS IS" BASIS,
  - WITHOUT WARRANTIES OR CONDITIONS OF ANY KIND, either express or implied.
  - See the License for the specific language governing permissions and
  - limitations under the License.
  -->

<svg width="20" height="20" viewBox="0 0 20 20" fill="none" xmlns="http://www.w3.org/2000/svg">
<path d="M10 18.3454C9.89266 18.3454 9.78714 18.3178 9.69359 18.2651L2.81859 14.398C2.72193 14.3436 2.64148 14.2645 2.58549 14.1688C2.52951 14.073 2.5 13.9641 2.5 13.8532V6.14679C2.5 6.03589 2.52951 5.92699 2.58549 5.83126C2.64148 5.73553 2.72193 5.65642 2.81859 5.60205L9.69359 1.73487C9.78714 1.68224 9.89266 1.6546 10 1.6546C10.1073 1.6546 10.2129 1.68224 10.3064 1.73487L17.1814 5.60205C17.2781 5.65642 17.3585 5.73553 17.4145 5.83126C17.4705 5.92699 17.5 6.03589 17.5 6.14679V13.8532C17.5 13.9641 17.4705 14.073 17.4145 14.1688C17.3585 14.2645 17.2781 14.3436 17.1814 14.398L10.3064 18.2651C10.2129 18.3178 10.1073 18.3454 10 18.3454ZM10 18.3454L10.0741 10M17.4138 5.83024L10.0741 10M10.0741 10L2.58656 5.82946" stroke="white" stroke-width="1.5" stroke-linecap="round" stroke-linejoin="round"/>
</svg>
