<!--
  - Copyright (c) 2024. Devtron Inc.
  -
  - Licensed under the Apache License, Version 2.0 (the "License");
  - you may not use this file except in compliance with the License.
  - You may obtain a copy of the License at
  -
  -     http://www.apache.org/licenses/LICENSE-2.0
  -
  - Unless required by applicable law or agreed to in writing, software
  - distributed under the License is distributed on an "AS IS" BASIS,
  - WITHOUT WARRANTIES OR CONDITIONS OF ANY KIND, either express or implied.
  - See the License for the specific language governing permissions and
  - limitations under the License.
  -->

<svg width="48" height="48" viewBox="0 0 48 48" fill="none" xmlns="http://www.w3.org/2000/svg">
<rect x="23.6924" y="8.50937" width="24.0788" height="6.12635" rx="1" transform="rotate(46.7118 23.6924 8.50937)" fill="#ABCFF3"/>
<path d="M34.5 18.5L42.155 12.372C42.9714 11.5178 43.4541 10.3843 43.4969 9.22094C43.5397 8.05759 43.139 6.95967 42.383 6.1687C41.627 5.37773 40.5777 4.9585 39.4658 5.00325C38.3539 5.04799 37.2705 5.55304 36.4541 6.40729L31 14" fill="#ABCFF3"/>
<path d="M34.5 18.5L42.155 12.372C42.9714 11.5178 43.4541 10.3843 43.4969 9.22094C43.5397 8.05759 43.139 6.95967 42.383 6.1687C41.627 5.37773 40.5777 4.9585 39.4658 5.00325C38.3539 5.04799 37.2705 5.55304 36.4541 6.40729L31 14M36.1121 30.6241L19.0094 12.7299M15.8739 26.1505L20.1496 21.677M25.0212 35.7212L11.8056 21.8939C11.5994 21.6782 11.4897 21.3791 11.5008 21.0625C11.5118 20.7459 11.6425 20.4377 11.8643 20.2057L22.734 8.83296C22.9557 8.60094 23.2503 8.46412 23.5529 8.4526C23.8555 8.44107 24.1413 8.55579 24.3475 8.77151L39.8954 25.0389C40.1016 25.2546 40.2112 25.5537 40.2002 25.8703C40.1892 26.1869 40.0584 26.4951 39.8366 26.7271L31.4753 35.4754C30.5883 36.4034 29.41 36.9507 28.1996 36.9968C26.9893 37.0429 25.846 36.5841 25.0212 35.7212Z" stroke="#0066CC" stroke-width="2" stroke-linecap="round" stroke-linejoin="round"/>
<path d="M9 30C7.34315 30 6 31.3431 6 33C6 34.6569 7.34315 36 9 36H14" stroke="#0066CC" stroke-width="2" stroke-linecap="round" stroke-linejoin="round"/>
<path d="M7.5 43C7.5 41.3431 8.84315 40 10.5 40H22" stroke="#0066CC" stroke-width="2" stroke-linecap="round" stroke-linejoin="round"/>
<circle r="0.5" transform="matrix(-1 0 0 1 17.5 36)" stroke="#0066CC"/>
</svg>
