<!--
  - Copyright (c) 2024. Devtron Inc.
  -
  - Licensed under the Apache License, Version 2.0 (the "License");
  - you may not use this file except in compliance with the License.
  - You may obtain a copy of the License at
  -
  -     http://www.apache.org/licenses/LICENSE-2.0
  -
  - Unless required by applicable law or agreed to in writing, software
  - distributed under the License is distributed on an "AS IS" BASIS,
  - WITHOUT WARRANTIES OR CONDITIONS OF ANY KIND, either express or implied.
  - See the License for the specific language governing permissions and
  - limitations under the License.
  -->

<svg width="16" height="16" viewBox="0 0 16 16" fill="none" xmlns="http://www.w3.org/2000/svg">
<path d="M10.4456 7.21004L13.4956 4.7645C13.8018 4.44416 13.9828 4.01911 13.9988 3.58285C14.0149 3.1466 13.8646 2.73488 13.5811 2.43826C13.2976 2.14165 12.9041 1.98444 12.4872 2.00122C12.0702 2.018 11.664 2.20739 11.3578 2.52773L9.02041 5.71886M11.2295 11.609L4.81604 4.89872M3.64023 9.93144L5.2436 8.25386M3.85325 14L2 14M2.66667 12L2 12M7.07047 13.5204L2.11459 8.33521C2.03727 8.25431 1.99615 8.14217 2.00028 8.02344C2.00441 7.90472 2.05345 7.78914 2.13661 7.70214L6.21274 3.43736C6.2959 3.35035 6.40637 3.29905 6.51984 3.29472C6.63331 3.2904 6.7405 3.33342 6.81782 3.41432L12.6483 9.5146C12.7256 9.59549 12.7667 9.70764 12.7626 9.82636C12.7584 9.94508 12.7094 10.0607 12.6262 10.1477L9.49075 13.4283C9.15812 13.7763 8.71626 13.9815 8.26236 13.9988C7.80847 14.0161 7.37973 13.844 7.07047 13.5204Z" stroke="#3B444C" stroke-width="1.5" stroke-linecap="round" stroke-linejoin="round"/>
</svg>
