<!--
  - Copyright (c) 2024. Devtron Inc.
  -
  - Licensed under the Apache License, Version 2.0 (the "License");
  - you may not use this file except in compliance with the License.
  - You may obtain a copy of the License at
  -
  -     http://www.apache.org/licenses/LICENSE-2.0
  -
  - Unless required by applicable law or agreed to in writing, software
  - distributed under the License is distributed on an "AS IS" BASIS,
  - WITHOUT WARRANTIES OR CONDITIONS OF ANY KIND, either express or implied.
  - See the License for the specific language governing permissions and
  - limitations under the License.
  -->

<svg width="20" height="20" viewBox="0 0 20 20" fill="none" xmlns="http://www.w3.org/2000/svg">
<path d="M9.98187 1.11126C5.0037 1.04139 0.898899 5.02392 0.82903 10.0021C0.759161 14.9803 4.74169 19.0851 9.73733 19.1549H17.2308C18.3312 19.1549 18.9076 18.596 18.9076 17.5654V10.1942C18.9251 5.25099 14.96 1.18113 9.98187 1.11126ZM9.73733 17.0589C5.92947 17.0065 2.89017 13.8798 2.94257 10.072C2.99497 6.2641 6.12161 3.22479 9.92947 3.2772C13.7373 3.3296 16.7766 6.45623 16.7242 10.2641C16.6718 14.072 13.5452 17.1113 9.73733 17.0589Z" fill="#56A3D9"/>
<path d="M7.41389 9.00636C7.64096 8.51727 8.02524 8.09806 8.53179 7.81858C9.02088 7.55657 9.56236 7.45177 10.0689 7.50417L10.8025 4.81422C9.61476 4.60461 8.33965 4.76182 7.20428 5.4081C6.01651 6.07186 5.17808 7.10243 4.7414 8.27273L7.41389 9.00636ZM8.67153 12.6046C8.18245 12.3775 7.74577 11.9933 7.46629 11.4867C7.20428 10.9976 7.09948 10.4561 7.15188 9.94959L4.46193 9.21596C4.23485 10.4037 4.40952 11.6788 5.05581 12.8317C5.71957 14.002 6.7676 14.8404 7.93791 15.2771L8.67153 12.6046Z" fill="#56A3D9"/>
<path d="M12.2529 11.3296C12.0258 11.8187 11.6416 12.2554 11.135 12.5348C10.6459 12.7968 10.1219 12.9016 9.61535 12.8492L8.86426 15.5392C10.052 15.7488 11.3271 15.5741 12.4625 14.9453C13.6503 14.2816 14.4887 13.251 14.9254 12.0632L12.2529 11.3296Z" fill="#F1626E"/>
</svg>
