<!--
  - Copyright (c) 2024. Devtron Inc.
  -
  - Licensed under the Apache License, Version 2.0 (the "License");
  - you may not use this file except in compliance with the License.
  - You may obtain a copy of the License at
  -
  -     http://www.apache.org/licenses/LICENSE-2.0
  -
  - Unless required by applicable law or agreed to in writing, software
  - distributed under the License is distributed on an "AS IS" BASIS,
  - WITHOUT WARRANTIES OR CONDITIONS OF ANY KIND, either express or implied.
  - See the License for the specific language governing permissions and
  - limitations under the License.
  -->

<svg xmlns="http://www.w3.org/2000/svg" width="24" height="24" viewBox="0 0 24 24">
    <path fill="#959BA1" fill-rule="evenodd" d="M21.987 3.393a1.258 1.258 0 0 0-.355-1.067 1.172 1.172 0 0 0-.955-.317C13.49 2.883 9.372 6.103 7.02 9.273l-1.1-.057a2.83 2.83 0 0 0-2.149.826l-1.718 1.72a.18.18 0 0 0 .057.29l2.74 1.137a15.82 15.82 0 0 0-.737 2.401.888.888 0 0 0 .238.817l3.251 3.242a.888.888 0 0 0 .816.239 15.824 15.824 0 0 0 2.401-.738l1.136 2.74a.179.179 0 0 0 .291.058l1.719-1.719a2.834 2.834 0 0 0 .825-2.149l-.057-1.1c3.162-2.328 6.368-6.439 7.255-13.587zm-8.114 6.75a2.027 2.027 0 1 1 1.428.595 2.026 2.026 0 0 1-1.435-.598l.007.002z"/>
</svg>
