<!--
  - Copyright (c) 2024. Devtron Inc.
  -
  - Licensed under the Apache License, Version 2.0 (the "License");
  - you may not use this file except in compliance with the License.
  - You may obtain a copy of the License at
  -
  -     http://www.apache.org/licenses/LICENSE-2.0
  -
  - Unless required by applicable law or agreed to in writing, software
  - distributed under the License is distributed on an "AS IS" BASIS,
  - WITHOUT WARRANTIES OR CONDITIONS OF ANY KIND, either express or implied.
  - See the License for the specific language governing permissions and
  - limitations under the License.
  -->

<svg xmlns="http://www.w3.org/2000/svg" width="24" height="24" viewBox="0 0 24 24">
    <g fill="none" fill-rule="evenodd">
        <path fill="#959BA1" d="M20 13a1 1 0 0 1 1 1v4a3 3 0 0 1-3 3H6a3 3 0 0 1-3-3v-4a1 1 0 0 1 2 0v4a1 1 0 0 0 1 1h12a1 1 0 0 0 1-1v-4a1 1 0 0 1 1-1zm-8-8.5a1 1 0 0 1 1 1v8.085l2.293-2.292a1 1 0 0 1 1.32-.083l.094.083a1 1 0 0 1 0 1.414l-4 4a1 1 0 0 1-1.414 0l-4-4a1 1 0 0 1 1.414-1.414L11 13.585V5.5a1 1 0 0 1 .883-.993z"/>
    </g>
</svg>
