<!--
  - Copyright (c) 2024. Devtron Inc.
  -
  - Licensed under the Apache License, Version 2.0 (the "License");
  - you may not use this file except in compliance with the License.
  - You may obtain a copy of the License at
  -
  -     http://www.apache.org/licenses/LICENSE-2.0
  -
  - Unless required by applicable law or agreed to in writing, software
  - distributed under the License is distributed on an "AS IS" BASIS,
  - WITHOUT WARRANTIES OR CONDITIONS OF ANY KIND, either express or implied.
  - See the License for the specific language governing permissions and
  - limitations under the License.
  -->

<svg width="12" height="12" viewBox="0 0 12 12" fill="none" xmlns="http://www.w3.org/2000/svg">
<path d="M7.12512 1.5H2.62476C2.5253 1.5 2.42992 1.53951 2.35959 1.60984C2.28926 1.68016 2.24976 1.77554 2.24976 1.875V10.125C2.24976 10.2245 2.28926 10.3198 2.35959 10.3902C2.42992 10.4605 2.5253 10.5 2.62476 10.5H9.37512C9.42437 10.5 9.47313 10.4903 9.51863 10.4715C9.56413 10.4526 9.60547 10.425 9.64029 10.3902C9.67511 10.3553 9.70273 10.314 9.72158 10.2685C9.74042 10.223 9.75012 10.1742 9.75012 10.125V4.125M7.12512 1.5L9.75012 4.125M7.12512 1.5V4.125H9.75012M4.50012 6.375H7.50012M4.50012 7.875H7.50012" stroke="#000A14" stroke-linecap="round" stroke-linejoin="round"/>
</svg>