<!--
  - Copyright (c) 2024. Devtron Inc.
  -
  - Licensed under the Apache License, Version 2.0 (the "License");
  - you may not use this file except in compliance with the License.
  - You may obtain a copy of the License at
  -
  -     http://www.apache.org/licenses/LICENSE-2.0
  -
  - Unless required by applicable law or agreed to in writing, software
  - distributed under the License is distributed on an "AS IS" BASIS,
  - WITHOUT WARRANTIES OR CONDITIONS OF ANY KIND, either express or implied.
  - See the License for the specific language governing permissions and
  - limitations under the License.
  -->

<svg width="16" height="16" viewBox="0 0 16 16" fill="none" xmlns="http://www.w3.org/2000/svg">
<path d="M2 3.99999H3.33333M3.33333 3.99999H14M3.33333 3.99999L3.33333 13.3333C3.33333 14.0697 3.93029 14.6667 4.66667 14.6667H8.66667M12.6667 12.3333V12.6667M5.33333 3.99999V2.66666C5.33333 1.93028 5.93029 1.33333 6.66667 1.33333H9.33334C10.0697 1.33333 10.6667 1.93028 10.6667 2.66666V3.99999M6.66666 7.33333V10M9.33333 7.33333L9.33334 10M12.6667 3.99999C12.6667 5.95262 12.6667 8.04737 12.6667 10M15 12.3333V12.6667M10 12.3333V12.6667" stroke="#F33E3E" stroke-width="1.5" stroke-linecap="round" stroke-linejoin="round"/>
</svg>