<!--
  - Copyright (c) 2024. Devtron Inc.
  -
  - Licensed under the Apache License, Version 2.0 (the "License");
  - you may not use this file except in compliance with the License.
  - You may obtain a copy of the License at
  -
  -     http://www.apache.org/licenses/LICENSE-2.0
  -
  - Unless required by applicable law or agreed to in writing, software
  - distributed under the License is distributed on an "AS IS" BASIS,
  - WITHOUT WARRANTIES OR CONDITIONS OF ANY KIND, either express or implied.
  - See the License for the specific language governing permissions and
  - limitations under the License.
  -->

<svg width="24" height="24" viewBox="0 0 24 24" fill="none" xmlns="http://www.w3.org/2000/svg">
<path fill-rule="evenodd" clip-rule="evenodd" d="M11.635 1.35049C11.867 1.21651 12.1529 1.2165 12.385 1.35048L14.55 2.60048C14.9088 2.80759 15.0317 3.26628 14.8246 3.625C14.6175 3.98372 14.1588 4.10663 13.8 3.89952L12.01 2.86603L10.22 3.89951C9.86127 4.10663 9.40257 3.98373 9.19546 3.62501C8.98835 3.26629 9.11125 2.8076 9.46997 2.60049L11.635 1.35049ZM6.16449 5.37499C6.3716 5.73371 6.2487 6.1924 5.88998 6.39951L4.09998 7.43301V9.5C4.09998 9.91421 3.76419 10.25 3.34998 10.25C2.93576 10.25 2.59998 9.91421 2.59998 9.5V7C2.59998 6.73205 2.74292 6.48446 2.97497 6.35049L5.13997 5.10049C5.49868 4.89337 5.95738 5.01628 6.16449 5.37499ZM17.8556 5.375C18.0628 5.01628 18.5214 4.89337 18.8802 5.10048L21.0452 6.35048C21.2773 6.48445 21.4202 6.73204 21.4202 6.99998L21.4203 9.49998C21.4203 9.91419 21.0845 10.25 20.6703 10.25C20.2561 10.25 19.9203 9.91423 19.9203 9.50002L19.9202 7.43302L18.1302 6.39952C17.7714 6.19241 17.6485 5.73372 17.8556 5.375ZM11.605 6.35049C11.837 6.21651 12.1229 6.2165 12.355 6.35048L13.4375 6.97548C13.7962 7.18259 13.9191 7.64128 13.712 8C13.5049 8.35872 13.0462 8.48163 12.6875 8.27452L11.98 7.86603L11.2725 8.27451C10.9138 8.48163 10.4551 8.35873 10.248 8.00001C10.0408 7.64129 10.1637 7.1826 10.5225 6.97549L11.605 6.35049ZM14.5781 8.5C14.7852 8.14128 15.2439 8.01837 15.6026 8.22548L16.6851 8.85048C16.9171 8.98445 17.0601 9.23204 17.0601 9.49998L17.0601 10.75C17.0601 11.1642 16.7244 11.5 16.3102 11.5C15.8959 11.5 15.5601 11.1642 15.5601 10.75L15.5601 9.93302L14.8526 9.52452C14.4939 9.31741 14.3709 8.85872 14.5781 8.5ZM9.38199 8.49999C9.5891 8.85871 9.4662 9.3174 9.10748 9.52451L8.39998 9.93301V10.75C8.39998 11.1642 8.06419 11.5 7.64998 11.5C7.23576 11.5 6.89998 11.1642 6.89998 10.75V9.5C6.89998 9.23205 7.04292 8.98446 7.27497 8.85049L8.35747 8.22549C8.71618 8.01837 9.17488 8.14127 9.38199 8.49999ZM7.64998 12.5C8.06419 12.5 8.39998 12.8358 8.39998 13.25V14.067L9.10751 14.4755C9.46623 14.6826 9.58913 15.1413 9.38203 15.5C9.17492 15.8587 8.71623 15.9816 8.35751 15.7745L7.27498 15.1495C7.04292 15.0155 6.89998 14.7679 6.89998 14.5V13.25C6.89998 12.8358 7.23576 12.5 7.64998 12.5ZM16.3102 12.5C16.7244 12.5 17.0602 12.8358 17.0602 13.25L17.0602 14.5C17.0602 14.7679 16.9173 15.0155 16.6852 15.1495L15.6027 15.7745C15.244 15.9816 14.7853 15.8587 14.5782 15.5C14.3711 15.1413 14.494 14.6826 14.8527 14.4755L15.5602 14.067L15.5602 13.25C15.5602 12.8358 15.896 12.5 16.3102 12.5ZM3.34998 13.75C3.76419 13.75 4.09998 14.0858 4.09998 14.5V16.567L5.89004 17.6005C6.24876 17.8076 6.37167 18.2663 6.16456 18.625C5.95745 18.9837 5.49876 19.1066 5.14004 18.8995L2.97498 17.6495C2.74292 17.5155 2.59998 17.2679 2.59998 17V14.5C2.59998 14.0858 2.93576 13.75 3.34998 13.75ZM20.6704 13.75C21.0846 13.75 21.4204 14.0858 21.4204 14.5L21.4205 17C21.4205 17.2679 21.2775 17.5155 21.0455 17.6495L18.8804 18.8995C18.5217 19.1066 18.063 18.9837 17.8559 18.625C17.6488 18.2663 17.7717 17.8076 18.1304 17.6005L19.9205 16.567L19.9204 14.5C19.9204 14.0858 20.2562 13.75 20.6704 13.75ZM10.2481 16C10.4552 15.6413 10.9139 15.5184 11.2726 15.7255L11.9801 16.134L12.6876 15.7255C13.0464 15.5184 13.505 15.6413 13.7122 16C13.9193 16.3587 13.7964 16.8174 13.4376 17.0245L12.3551 17.6495C12.1231 17.7835 11.8372 17.7835 11.6051 17.6495L10.5226 17.0245C10.1639 16.8174 10.0409 16.3587 10.2481 16ZM9.19565 20.375C9.40275 20.0163 9.86145 19.8934 10.2202 20.1005L12.0102 21.134L13.8003 20.1005C14.159 19.8934 14.6177 20.0163 14.8248 20.375C15.0319 20.7337 14.909 21.1924 14.5503 21.3995L12.3852 22.6495C12.1532 22.7835 11.8673 22.7835 11.6352 22.6495L9.47017 21.3995C9.11145 21.1924 8.98854 20.7337 9.19565 20.375Z" fill="#596168"/>
</svg>
