<!--
  - Copyright (c) 2024. Devtron Inc.
  -
  - Licensed under the Apache License, Version 2.0 (the "License");
  - you may not use this file except in compliance with the License.
  - You may obtain a copy of the License at
  -
  -     http://www.apache.org/licenses/LICENSE-2.0
  -
  - Unless required by applicable law or agreed to in writing, software
  - distributed under the License is distributed on an "AS IS" BASIS,
  - WITHOUT WARRANTIES OR CONDITIONS OF ANY KIND, either express or implied.
  - See the License for the specific language governing permissions and
  - limitations under the License.
  -->

<svg xmlns="http://www.w3.org/2000/svg" width="24" height="24" viewBox="0 0 24 24">
    <g fill="none" fill-rule="evenodd">
        <g fill="#06C" fill-rule="nonzero">
            <g>
                <g>
                    <g>
                        <path d="M11.625 1.35c.232-.133.518-.133.75 0l8.66 5c.232.134.375.382.375.65v10c0 .268-.143.516-.375.65l-8.66 5c-.232.133-.518.133-.75 0l-8.66-5c-.232-.134-.375-.382-.375-.65V7c0-.268.143-.516.375-.65zM12 2.866L4.089 7.433v9.133L12 21.133l7.91-4.566V7.432L12 2.866zm-.375 3.484c.232-.133.518-.133.75 0l4.33 2.5c.232.134.375.382.375.65v5c0 .268-.143.516-.375.65l-4.33 2.5c-.232.133-.518.133-.75 0l-4.33-2.5c-.232-.134-.375-.382-.375-.65v-5c0-.268.143-.516.375-.65zM12 7.865L8.419 9.933v4.133L12 16.134l3.58-2.067V9.932L12 7.865z" transform="translate(-863 -388) translate(439 248) translate(408 116) translate(16 24)"/>
                    </g>
                </g>
            </g>
        </g>
    </g>
</svg>
