<!--
  - Copyright (c) 2024. Devtron Inc.
  -
  - Licensed under the Apache License, Version 2.0 (the "License");
  - you may not use this file except in compliance with the License.
  - You may obtain a copy of the License at
  -
  -     http://www.apache.org/licenses/LICENSE-2.0
  -
  - Unless required by applicable law or agreed to in writing, software
  - distributed under the License is distributed on an "AS IS" BASIS,
  - WITHOUT WARRANTIES OR CONDITIONS OF ANY KIND, either express or implied.
  - See the License for the specific language governing permissions and
  - limitations under the License.
  -->

<svg xmlns="http://www.w3.org/2000/svg" width="32" height="32" viewBox="0 0 32 32">
    <g fill="none" fill-rule="evenodd">
        <g transform="translate(2.667 2.667)">
            <rect width="26.667" height="26.667" class="fill-color" fill="#F33E3E" rx="13.333"/>
            <path fill="#FFF" fill-rule="nonzero" d="M8.62 8.62c.52-.521 1.364-.521 1.885 0l2.828 2.827 2.829-2.828a1.334 1.334 0 0 1 1.777-.097l.108.097c.521.521.521 1.365 0 1.886l-2.828 2.828 2.828 2.829c.486.486.519 1.254.098 1.777l-.098.108c-.52.521-1.365.521-1.885 0l-2.83-2.828-2.827 2.828a1.334 1.334 0 0 1-1.777.098l-.109-.098a1.333 1.333 0 0 1 0-1.885l2.828-2.83-2.828-2.827a1.334 1.334 0 0 1-.097-1.777z"/>
        </g>
    </g>
</svg>
