<!--
  - Copyright (c) 2024. Devtron Inc.
  -
  - Licensed under the Apache License, Version 2.0 (the "License");
  - you may not use this file except in compliance with the License.
  - You may obtain a copy of the License at
  -
  -     http://www.apache.org/licenses/LICENSE-2.0
  -
  - Unless required by applicable law or agreed to in writing, software
  - distributed under the License is distributed on an "AS IS" BASIS,
  - WITHOUT WARRANTIES OR CONDITIONS OF ANY KIND, either express or implied.
  - See the License for the specific language governing permissions and
  - limitations under the License.
  -->

<svg width="16" height="16" viewBox="0 0 16 16" fill="none" xmlns="http://www.w3.org/2000/svg">
<path d="M2 10H6M10.6667 9L12.5559 10.8436M2 6H8.66667M2 2H13.6667M2 14H4.625M9.39953 14H7.6285C7.55022 14 7.47514 13.9689 7.41979 13.9135C7.36443 13.8582 7.33333 13.7831 7.33333 13.7048V12.0561C7.33333 12.0173 7.34097 11.9789 7.3558 11.9431C7.37064 11.9073 7.39238 11.8748 7.41979 11.8474L11.8474 7.41979C11.9027 7.36443 11.9778 7.33333 12.0561 7.33333C12.1344 7.33333 12.2094 7.36443 12.2648 7.41979L13.9135 9.06855C13.9689 9.1239 14 9.19898 14 9.27727C14 9.35555 13.9689 9.43063 13.9135 9.48598L9.39953 14Z" stroke="#3B444C" stroke-width="1.5" stroke-linecap="round" stroke-linejoin="round"/>
</svg>
