<!--
  - Copyright (c) 2024. Devtron Inc.
  -
  - Licensed under the Apache License, Version 2.0 (the "License");
  - you may not use this file except in compliance with the License.
  - You may obtain a copy of the License at
  -
  -     http://www.apache.org/licenses/LICENSE-2.0
  -
  - Unless required by applicable law or agreed to in writing, software
  - distributed under the License is distributed on an "AS IS" BASIS,
  - WITHOUT WARRANTIES OR CONDITIONS OF ANY KIND, either express or implied.
  - See the License for the specific language governing permissions and
  - limitations under the License.
  -->

<svg width="40" height="40" viewBox="0 0 40 40" fill="none" xmlns="http://www.w3.org/2000/svg">
<path d="M33.4127 16.903C33.3389 16.8422 32.6705 16.3344 31.2359 16.3344C30.8647 16.3344 30.4806 16.3713 30.1094 16.4342C29.8381 14.5416 28.2668 13.6257 28.2038 13.578L27.8197 13.3544L27.5723 13.7126C27.2641 14.1944 27.0275 14.7391 26.8929 15.2948C26.6325 16.3713 26.7931 17.3848 27.3379 18.2508C26.6824 18.6219 25.6189 18.7087 25.3954 18.7218H7.8306C7.37265 18.7218 7.00152 19.0929 7.00152 19.5509C6.97764 21.0853 7.23592 22.6176 7.76766 24.0652C8.37319 25.6474 9.27606 26.8238 10.4394 27.54C11.7503 28.343 13.8903 28.801 16.3015 28.801C17.3889 28.801 18.4784 28.7011 19.5549 28.5036C21.0525 28.2323 22.4871 27.7114 23.8089 26.9583C24.8984 26.3267 25.875 25.5237 26.7041 24.5839C28.1018 23.0126 28.9309 21.2568 29.5365 19.6984C29.6233 19.6984 29.6971 19.6984 29.7839 19.6984C31.3053 19.6984 32.2451 19.0929 32.7638 18.572C33.1111 18.2508 33.3693 17.8536 33.556 17.4087L33.6667 17.0875L33.4127 16.903ZM22.5414 18.2139H24.8919C25.0026 18.2139 25.1024 18.1271 25.1024 18.0034V15.9003C25.1024 15.7896 25.0156 15.6898 24.8919 15.6898H22.5414C22.4307 15.6898 22.3308 15.7766 22.3308 15.9003V18.0034C22.3439 18.1271 22.4307 18.2139 22.5414 18.2139ZM19.2641 12.1911H21.6146C21.7253 12.1911 21.8251 12.1043 21.8251 11.9806V9.87752C21.8251 9.76683 21.7253 9.66699 21.6146 9.66699H19.2641C19.1534 9.66699 19.0536 9.75381 19.0536 9.87752V11.9806C19.0536 12.0913 19.1512 12.1911 19.2641 12.1911ZM19.2641 15.2079H21.6146C21.7253 15.2079 21.8251 15.1081 21.8251 14.9974V12.8943C21.8251 12.7836 21.7253 12.6838 21.6146 12.6838H19.2641C19.1534 12.6838 19.0536 12.7706 19.0536 12.8943V14.9974C19.0536 15.1103 19.1512 15.2079 19.2641 15.2079ZM16.0107 15.2079H18.3612C18.4719 15.2079 18.5718 15.1081 18.5718 14.9974V12.8943C18.5718 12.7836 18.4849 12.6838 18.3612 12.6838H16.0107C15.9 12.6838 15.8002 12.7706 15.8002 12.8943V14.9974C15.8002 15.1103 15.887 15.2079 16.0107 15.2079ZM12.7074 15.2079H15.0579C15.1686 15.2079 15.2685 15.1081 15.2685 14.9974V12.8943C15.2685 12.7836 15.1816 12.6838 15.0579 12.6838H12.7074C12.5967 12.6838 12.4969 12.7706 12.4969 12.8943V14.9974C12.5099 15.1103 12.5967 15.2079 12.7074 15.2079ZM19.2641 18.2139H21.6146C21.7253 18.2139 21.8251 18.1271 21.8251 18.0034V15.9003C21.8251 15.7896 21.7383 15.6898 21.6146 15.6898H19.2641C19.1534 15.6898 19.0536 15.7766 19.0536 15.9003V18.0034C19.0536 18.1271 19.1512 18.2139 19.2641 18.2139ZM16.0107 18.2139H18.3612C18.4719 18.2139 18.5718 18.1271 18.5718 18.0034V15.9003C18.5718 15.7896 18.4849 15.6898 18.3612 15.6898H16.0107C15.9 15.6898 15.8002 15.7766 15.8002 15.9003V18.0034C15.8002 18.1271 15.887 18.2139 16.0107 18.2139ZM12.7074 18.2139H15.0579C15.1686 18.2139 15.2685 18.1271 15.2685 18.0034V15.9003C15.2685 15.7896 15.1816 15.6898 15.0579 15.6898H12.7074C12.5967 15.6898 12.4969 15.7766 12.4969 15.9003V18.0034C12.5099 18.1271 12.5967 18.2139 12.7074 18.2139ZM9.46705 18.2139H11.8176C11.9283 18.2139 12.0281 18.1271 12.0281 18.0034V15.9003C12.0281 15.7896 11.9413 15.6898 11.8176 15.6898H9.46705C9.35637 15.6898 9.25653 15.7766 9.25653 15.9003V18.0034C9.26955 18.1271 9.35637 18.2139 9.46705 18.2139Z" fill="#0091E2"/>
<rect x="14" y="24" width="23" height="13" rx="5" fill="#3B444C"/>
<circle cx="20.5" cy="30.5" r="1.5" fill="white"/>
<circle cx="25.5" cy="30.5" r="1.5" fill="white"/>
<circle cx="30.5" cy="30.5" r="1.5" fill="white"/>
<rect x="14" y="24" width="23" height="13" rx="5" stroke="white" stroke-width="2"/>
</svg>
