<!--
  - Copyright (c) 2024. Devtron Inc.
  -
  - Licensed under the Apache License, Version 2.0 (the "License");
  - you may not use this file except in compliance with the License.
  - You may obtain a copy of the License at
  -
  -     http://www.apache.org/licenses/LICENSE-2.0
  -
  - Unless required by applicable law or agreed to in writing, software
  - distributed under the License is distributed on an "AS IS" BASIS,
  - WITHOUT WARRANTIES OR CONDITIONS OF ANY KIND, either express or implied.
  - See the License for the specific language governing permissions and
  - limitations under the License.
  -->

<svg width="24" height="24" viewBox="0 0 24 24" fill="none" xmlns="http://www.w3.org/2000/svg">
<path fill-rule="evenodd" clip-rule="evenodd" d="M19.9137 3.5137L17.8388 5.5854C17.5759 5.84916 17.5759 6.27477 17.8388 6.53853L19.3818 8.07912C19.646 8.34168 20.0722 8.34168 20.3364 8.07912L22.4113 6.00622C22.553 5.86475 22.7955 5.93069 22.8484 6.12371C23.2422 7.57438 22.8688 9.1893 21.7281 10.3283C20.4865 11.5679 18.6806 11.8988 17.1364 11.3234L8.15472 21.1304C7.23374 22.1375 5.65715 22.1734 4.69054 21.2071C3.71913 20.2384 3.75995 18.6534 4.77939 17.7363L14.6232 8.8716C13.9988 7.31062 14.3194 5.45952 15.5862 4.19588C16.7269 3.05692 18.3443 2.68526 19.7973 3.0773C19.9906 3.13005 20.0566 3.37223 19.9149 3.5137H19.9137ZM5.71839 19.4975C5.71839 19.8931 6.04019 20.2156 6.43644 20.2156C6.83269 20.2156 7.15569 19.8943 7.15569 19.4975C7.15569 19.1018 6.83389 18.7805 6.43644 18.7805C6.04019 18.7805 5.71839 19.1018 5.71839 19.4975Z" fill="#8898A6"/>
<path fill-rule="evenodd" clip-rule="evenodd" d="M6.65479 9.28372L9.11622 6.82609L21.0031 18.6946C21.4718 19.1626 21.4718 19.9222 21.0031 20.3901L20.2398 21.1522C19.7711 21.6202 19.0103 21.6202 18.5417 21.1522L6.65479 9.28372V9.28372Z" fill="#F4910D"/>
<path fill-rule="evenodd" clip-rule="evenodd" d="M4.81229 11.8914L5.50173 11.203L5.56711 10.7427C5.62315 10.3544 5.984 10.084 6.37202 10.1391C6.42551 10.1467 6.47731 10.1595 6.52655 10.1798L9.60356 7.10755L9.48129 6.13772C9.39723 5.45867 9.62988 4.77708 10.1155 4.29217C10.608 3.80047 11.2754 3.5241 11.9716 3.5241L13.1934 3.52495C11.2703 1.60479 9.45327 1.49798 7.74411 3.2045L3.51153 7.43054C3.2687 7.673 2.93417 7.80016 2.59199 7.78066L2.04095 7.7476L1.35151 8.43597C0.882829 8.90393 0.882829 9.66352 1.35151 10.1315L3.11417 11.8914C3.58285 12.3594 4.34361 12.3594 4.81229 11.8914Z" fill="#66757F"/>
<path fill-rule="evenodd" clip-rule="evenodd" d="M14.7273 13.8577C14.3217 13.5348 13.8079 13.3418 13.2491 13.3418H10.7859C9.37192 13.3418 8.01589 13.9035 7.01608 14.9033C6.01628 15.9031 5.45459 17.2591 5.45459 18.6731C5.45459 20.087 6.01628 21.4431 7.01608 22.4429C8.01589 23.4427 9.37192 24.0044 10.7859 24.0044H13.2491C13.8079 24.0044 14.3217 23.8114 14.7273 23.4885C15.133 23.8114 15.6467 24.0044 16.2055 24.0044H18.6688C20.0827 24.0044 21.4387 23.4427 22.4386 22.4429C23.4384 21.4431 24 20.087 24 18.6731C24 17.2591 23.4384 15.9031 22.4386 14.9033C21.4387 13.9035 20.0827 13.3418 18.6688 13.3418H16.2055C15.6467 13.3418 15.133 13.5348 14.7273 13.8577Z" fill="white"/>
<path fill-rule="evenodd" clip-rule="evenodd" d="M8.56879 18.6731C8.56879 19.2611 8.80236 19.825 9.21811 20.2407C9.63387 20.6565 10.1978 20.89 10.7857 20.89H13.249C13.6571 20.89 13.988 21.2209 13.988 21.629C13.988 22.0372 13.6571 22.368 13.249 22.368H10.7857C9.80578 22.368 8.86597 21.9787 8.17304 21.2858C7.4801 20.5929 7.09082 19.6531 7.09082 18.6731C7.09082 17.6931 7.4801 16.7533 8.17304 16.0604C8.86597 15.3675 9.80578 14.9782 10.7857 14.9782H13.249C13.6571 14.9782 13.988 15.309 13.988 15.7172C13.988 16.1253 13.6571 16.4562 13.249 16.4562H10.7857C10.1978 16.4562 9.63387 16.6897 9.21811 17.1055C8.80236 17.5212 8.56879 18.0851 8.56879 18.6731ZM11.0325 18.6729C11.0325 18.2647 11.3633 17.9339 11.7715 17.9339H17.6833C18.0915 17.9339 18.4223 18.2647 18.4223 18.6729C18.4223 19.081 18.0915 19.4118 17.6833 19.4118H11.7715C11.3633 19.4118 11.0325 19.081 11.0325 18.6729ZM15.4664 21.629C15.4664 21.2209 15.7972 20.89 16.2054 20.89H18.6686C19.2566 20.89 19.8205 20.6565 20.2363 20.2407C20.652 19.825 20.8856 19.2611 20.8856 18.6731C20.8856 18.0851 20.652 17.5212 20.2363 17.1055C19.8205 16.6897 19.2566 16.4562 18.6686 16.4562H16.2054C15.7972 16.4562 15.4664 16.1253 15.4664 15.7172C15.4664 15.309 15.7972 14.9782 16.2054 14.9782H18.6686C19.6486 14.9782 20.5884 15.3675 21.2813 16.0604C21.9743 16.7533 22.3635 17.6931 22.3635 18.6731C22.3635 19.653 21.9743 20.5929 21.2813 21.2858C20.5884 21.9787 19.6486 22.368 18.6686 22.368H16.2054C15.7972 22.368 15.4664 22.0372 15.4664 21.629Z" fill="#664BEE"/>
</svg>