<!--
  - Copyright (c) 2024. Devtron Inc.
  -
  - Licensed under the Apache License, Version 2.0 (the "License");
  - you may not use this file except in compliance with the License.
  - You may obtain a copy of the License at
  -
  -     http://www.apache.org/licenses/LICENSE-2.0
  -
  - Unless required by applicable law or agreed to in writing, software
  - distributed under the License is distributed on an "AS IS" BASIS,
  - WITHOUT WARRANTIES OR CONDITIONS OF ANY KIND, either express or implied.
  - See the License for the specific language governing permissions and
  - limitations under the License.
  -->

<svg width="48" height="48" viewBox="0 0 48 48" fill="none" xmlns="http://www.w3.org/2000/svg">
<path d="M42.7778 22.7201L15.7822 6.22222C15.5548 6.08326 15.2945 6.00739 15.0281 6.0024C14.7617 5.99741 14.4987 6.06349 14.2663 6.19384C14.0338 6.32419 13.8403 6.5141 13.7057 6.74404C13.571 6.97398 13.5 7.23565 13.5 7.50214V40.4979C13.5 40.7644 13.571 41.026 13.7057 41.256C13.8403 41.4859 14.0338 41.6758 14.2663 41.8062C14.4987 41.9365 14.7617 42.0026 15.0281 41.9976C15.2945 41.9926 15.5548 41.9167 15.7822 41.7778L42.7778 25.2799C42.9971 25.1459 43.1782 24.9578 43.3039 24.7337C43.4296 24.5096 43.4956 24.257 43.4956 24C43.4956 23.743 43.4296 23.4904 43.3039 23.2663C43.1782 23.0422 42.9971 22.8541 42.7778 22.7201Z" stroke="#0066CC" stroke-width="2" stroke-linecap="round" stroke-linejoin="round"/>
</svg>
