<!--
  - Copyright (c) 2024. Devtron Inc.
  -
  - Licensed under the Apache License, Version 2.0 (the "License");
  - you may not use this file except in compliance with the License.
  - You may obtain a copy of the License at
  -
  -     http://www.apache.org/licenses/LICENSE-2.0
  -
  - Unless required by applicable law or agreed to in writing, software
  - distributed under the License is distributed on an "AS IS" BASIS,
  - WITHOUT WARRANTIES OR CONDITIONS OF ANY KIND, either express or implied.
  - See the License for the specific language governing permissions and
  - limitations under the License.
  -->

<svg width="40" height="40" viewBox="0 0 40 40" fill="none" xmlns="http://www.w3.org/2000/svg">
<rect width="40" height="40" rx="8" fill="#FFEDF2"/>
<path fill-rule="evenodd" clip-rule="evenodd" d="M19.9999 14.25C20.9204 14.25 21.6666 14.9962 21.6666 15.9167C21.6666 16.2109 21.5903 16.4874 21.4565 16.7273L23.6108 20.3217L23.6648 20.302C24.0192 20.1822 24.3906 20.1102 24.7708 20.0896L24.9999 20.0833C27.3011 20.0833 29.1666 21.9488 29.1666 24.25C29.1666 26.5512 27.3011 28.4167 24.9999 28.4167C23.9354 28.4167 22.9316 28.0147 22.1667 27.3052C21.8293 26.9922 21.8096 26.4649 22.1226 26.1275C22.4356 25.7901 22.9628 25.7703 23.3002 26.0833C23.7598 26.5097 24.36 26.75 24.9999 26.75C26.3806 26.75 27.4999 25.6307 27.4999 24.25C27.4999 22.8693 26.3806 21.75 24.9999 21.75C24.5385 21.75 24.0973 21.8744 23.7118 22.1068C23.3451 22.3279 22.8765 22.2334 22.6216 21.9021L22.5668 21.8215L20.0266 17.5825L19.9999 17.5833C19.1213 17.5833 18.4014 16.9034 18.3378 16.0411L18.3333 15.9167C18.3333 14.9962 19.0794 14.25 19.9999 14.25Z" fill="#4A4A4A"/>
<path d="M19.9999 11.75C22.3011 11.75 24.1666 13.6155 24.1666 15.9167C24.1666 16.3769 23.7935 16.75 23.3333 16.75C22.9059 16.75 22.5537 16.4283 22.5055 16.0139L22.4999 15.9167C22.4999 14.536 21.3806 13.4167 19.9999 13.4167C18.6192 13.4167 17.4999 14.536 17.4999 15.9167C17.4999 16.8604 18.0269 17.7098 18.8499 18.1372C19.2857 18.3636 19.4323 18.9158 19.1661 19.3285L16.4831 23.4891C16.6004 23.7172 16.6666 23.9759 16.6666 24.25C16.6666 25.1705 15.9204 25.9167 14.9999 25.9167C14.0794 25.9167 13.3333 25.1705 13.3333 24.25C13.3333 23.3295 14.0794 22.5833 14.9999 22.5833C15.0272 22.5833 15.0542 22.584 15.0812 22.5853L17.3233 19.1092L17.2931 19.0849C16.4318 18.3489 15.8922 17.2808 15.8378 16.1123L15.8333 15.9167C15.8333 13.6155 17.6987 11.75 19.9999 11.75Z" fill="#EB456D"/>
<path fill-rule="evenodd" clip-rule="evenodd" d="M14.6483 20.831C14.805 21.2638 14.5813 21.7416 14.1485 21.8983C13.1672 22.2537 12.4999 23.1887 12.4999 24.2499C12.4999 25.6306 13.6192 26.7499 14.9999 26.7499C16.3313 26.7499 17.4196 25.7091 17.4957 24.3968L17.4999 24.2499C17.4999 23.8225 17.8216 23.4703 18.2361 23.4221L18.3333 23.4165L23.5564 23.4163C23.8446 22.9182 24.3831 22.5832 24.9999 22.5832C25.9204 22.5832 26.6666 23.3294 26.6666 24.2499C26.6666 25.1703 25.9204 25.9165 24.9999 25.9165C24.3831 25.9165 23.8446 25.5815 23.5564 25.0835L19.0816 25.0824L19.073 25.1323C18.6804 26.9528 17.0984 28.3308 15.1807 28.4127L14.9999 28.4165C12.6987 28.4165 10.8333 26.5511 10.8333 24.2499C10.8333 22.4815 11.9451 20.9237 13.581 20.3313C14.0137 20.1746 14.4916 20.3983 14.6483 20.831Z" fill="#4A4A4A"/>
</svg>