<!--
  - Copyright (c) 2024. Devtron Inc.
  -
  - Licensed under the Apache License, Version 2.0 (the "License");
  - you may not use this file except in compliance with the License.
  - You may obtain a copy of the License at
  -
  -     http://www.apache.org/licenses/LICENSE-2.0
  -
  - Unless required by applicable law or agreed to in writing, software
  - distributed under the License is distributed on an "AS IS" BASIS,
  - WITHOUT WARRANTIES OR CONDITIONS OF ANY KIND, either express or implied.
  - See the License for the specific language governing permissions and
  - limitations under the License.
  -->

<svg width="20" height="20" viewBox="0 0 20 20" fill="none" xmlns="http://www.w3.org/2000/svg">
<path fill-rule="evenodd" clip-rule="evenodd" d="M16.1109 2.5C17.3382 2.5 18.3332 3.49492 18.3332 4.72222V15.2778C18.3332 16.5051 17.3382 17.5 16.1109 17.5H3.88873C2.66143 17.5 1.6665 16.5051 1.6665 15.2778V4.72222C1.6665 3.49492 2.66143 2.5 3.88873 2.5H16.1109ZM5.29783 7.28288C4.95751 7.62321 4.94544 8.16292 5.27087 8.48835L7.03864 10.2561L5.19 12.1048C4.84967 12.4451 4.8376 12.9848 5.16304 13.3102C5.48847 13.6357 6.02818 13.6236 6.36851 13.2833L8.83337 10.8184C9.17369 10.4781 9.18576 9.93838 8.86033 9.61294L6.5033 7.25592C6.17787 6.93049 5.63816 6.94256 5.29783 7.28288ZM14.1665 11.6667H10.8332C10.3729 11.6667 9.99984 12.0568 9.99984 12.5381C9.99984 13.0194 10.3729 13.4096 10.8332 13.4096H14.1665C14.6267 13.4096 14.9998 13.0194 14.9998 12.5381C14.9998 12.0568 14.6267 11.6667 14.1665 11.6667Z" fill="#596168"/>
</svg>
