<!--
  - Copyright (c) 2024. Devtron Inc.
  -
  - Licensed under the Apache License, Version 2.0 (the "License");
  - you may not use this file except in compliance with the License.
  - You may obtain a copy of the License at
  -
  -     http://www.apache.org/licenses/LICENSE-2.0
  -
  - Unless required by applicable law or agreed to in writing, software
  - distributed under the License is distributed on an "AS IS" BASIS,
  - WITHOUT WARRANTIES OR CONDITIONS OF ANY KIND, either express or implied.
  - See the License for the specific language governing permissions and
  - limitations under the License.
  -->

<svg xmlns="http://www.w3.org/2000/svg" width="20" height="20" viewBox="0 0 20 20" fill="none">
  <path d="M6.78571 19C5.76274 19 4.78166 18.5936 4.0583 17.8703C3.33495 17.1469 2.92857 16.1658 2.92857 15.1429V11.9286L1 10L2.92857 8.07143V4.85714C2.92857 3.83416 3.33495 2.85309 4.0583 2.12973C4.78166 1.40638 5.76274 1 6.78571 1M13.2143 19C14.2373 19 15.2183 18.5936 15.9417 17.8703C16.6651 17.1469 17.0714 16.1658 17.0714 15.1429V11.9286L19 10L17.0714 8.07143V4.85714C17.0714 3.83416 16.6651 2.85309 15.9417 2.12973C15.2183 1.40638 14.2373 1 13.2143 1" stroke="white" stroke-width="2" stroke-linecap="round" stroke-linejoin="round"/>
  <circle cx="10" cy="10" r="2" fill="white"/>
</svg>