<!--
  - Copyright (c) 2024. Devtron Inc.
  -
  - Licensed under the Apache License, Version 2.0 (the "License");
  - you may not use this file except in compliance with the License.
  - You may obtain a copy of the License at
  -
  -     http://www.apache.org/licenses/LICENSE-2.0
  -
  - Unless required by applicable law or agreed to in writing, software
  - distributed under the License is distributed on an "AS IS" BASIS,
  - WITHOUT WARRANTIES OR CONDITIONS OF ANY KIND, either express or implied.
  - See the License for the specific language governing permissions and
  - limitations under the License.
  -->

<svg width="16" height="16" viewBox="0 0 16 16" fill="none" xmlns="http://www.w3.org/2000/svg">
<g id="ic-var-initial">
<g id="Vector">
<path d="M11.8244 6.26696V7.90053C11.8244 7.94068 11.847 7.96075 11.8922 7.96075H12.2686C13.1619 7.96075 13.6086 7.64207 13.6086 7.0047C13.6086 6.4376 13.1945 6.15404 12.3664 6.15404C12.2159 6.15404 12.0578 6.16659 11.8922 6.19168C11.847 6.20172 11.8244 6.22681 11.8244 6.26696ZM11.2147 10.9042C11.0992 10.9042 10.9989 10.8615 10.9135 10.7762C10.8282 10.6909 10.7856 10.5905 10.7856 10.4751V5.87551C10.7856 5.75506 10.8257 5.64716 10.906 5.55181C10.9863 5.45645 11.0867 5.40376 11.2071 5.39372C11.6337 5.35357 12.0453 5.3335 12.4417 5.3335C13.1795 5.3335 13.7315 5.47151 14.0979 5.74753C14.4642 6.01854 14.6474 6.40247 14.6474 6.89931C14.6474 7.25563 14.5496 7.5693 14.3538 7.84031C14.1631 8.11131 13.9047 8.30202 13.5784 8.41243C13.5734 8.41243 13.5709 8.41494 13.5709 8.41996C13.5709 8.43 13.5734 8.43501 13.5784 8.43501C13.8193 8.58557 14.0251 8.88167 14.1957 9.32331L14.6474 10.5052C14.6825 10.6006 14.67 10.6909 14.6098 10.7762C14.5546 10.8615 14.4768 10.9042 14.3764 10.9042H14.143C14.0126 10.9042 13.8946 10.8691 13.7892 10.7988C13.6838 10.7235 13.6086 10.6256 13.5634 10.5052L13.1418 9.3459C13.0515 9.105 12.9486 8.94691 12.8332 8.87164C12.7177 8.79636 12.5195 8.75872 12.2385 8.75872H11.8922C11.847 8.75872 11.8244 8.7813 11.8244 8.82647V10.4751C11.8244 10.5905 11.7818 10.6909 11.6965 10.7762C11.6162 10.8615 11.5183 10.9042 11.4029 10.9042H11.2147Z" fill="#596168"/>
<path d="M7.75703 6.34232L7.09457 8.70609C7.08955 8.72115 7.09206 8.73621 7.10209 8.75126C7.11213 8.76632 7.12468 8.77385 7.13973 8.77385H8.38937C8.40443 8.77385 8.41698 8.76632 8.42701 8.75126C8.43705 8.73621 8.43956 8.72115 8.43454 8.70609L7.77208 6.34232C7.77208 6.3373 7.76957 6.33479 7.76455 6.33479C7.75954 6.33479 7.75703 6.3373 7.75703 6.34232ZM5.80729 10.9043C5.70189 10.9043 5.61909 10.8616 5.55886 10.7763C5.49864 10.691 5.48609 10.5981 5.52122 10.4977L7.07951 5.81536C7.12468 5.69491 7.19745 5.59705 7.29782 5.52177C7.40321 5.44649 7.51864 5.40885 7.64411 5.40885H7.91511C8.0456 5.40885 8.16103 5.44649 8.2614 5.52177C8.36679 5.59705 8.43956 5.69491 8.47971 5.81536L10.038 10.4977C10.0731 10.5981 10.0606 10.691 10.0004 10.7763C9.94014 10.8616 9.85733 10.9043 9.75194 10.9043H9.48093C9.36048 10.9043 9.24756 10.8666 9.14217 10.7913C9.0418 10.711 8.97405 10.6107 8.93892 10.4902L8.69802 9.63956C8.693 9.59941 8.6654 9.57934 8.61521 9.57934H6.9139C6.86873 9.57934 6.84112 9.59941 6.83109 9.63956L6.59019 10.4902C6.56008 10.6107 6.49233 10.711 6.38694 10.7913C6.28657 10.8666 6.17365 10.9043 6.04818 10.9043H5.80729Z" fill="#596168"/>
<path d="M2.9112 10.4977L1.35291 5.81536C1.31778 5.71499 1.33033 5.62214 1.39055 5.53682C1.45077 5.45151 1.53358 5.40885 1.63897 5.40885H1.90998C2.03545 5.40885 2.15087 5.449 2.25627 5.5293C2.36166 5.60458 2.42941 5.70244 2.45952 5.82289L3.6113 9.8654C3.6113 9.87042 3.61381 9.87293 3.61883 9.87293C3.62384 9.87293 3.62635 9.87042 3.62635 9.8654L4.79319 5.81536C4.82832 5.69491 4.89607 5.59705 4.99644 5.52177C5.10183 5.44649 5.21726 5.40885 5.34273 5.40885H5.58362C5.68901 5.40885 5.77182 5.45151 5.83205 5.53682C5.89227 5.62214 5.90482 5.71499 5.86969 5.81536L4.3114 10.4977C4.27125 10.6182 4.19848 10.7161 4.09309 10.7913C3.99271 10.8666 3.87729 10.9043 3.7468 10.9043H3.47579C3.35033 10.9043 3.2349 10.8666 3.12951 10.7913C3.02914 10.7161 2.95637 10.6182 2.9112 10.4977Z" fill="#596168"/>
</g>
</g>
</svg>
