<!--
  - Copyright (c) 2024. Devtron Inc.
  -
  - Licensed under the Apache License, Version 2.0 (the "License");
  - you may not use this file except in compliance with the License.
  - You may obtain a copy of the License at
  -
  -     http://www.apache.org/licenses/LICENSE-2.0
  -
  - Unless required by applicable law or agreed to in writing, software
  - distributed under the License is distributed on an "AS IS" BASIS,
  - WITHOUT WARRANTIES OR CONDITIONS OF ANY KIND, either express or implied.
  - See the License for the specific language governing permissions and
  - limitations under the License.
  -->

<svg width="24" height="24" viewBox="0 0 24 24" fill="none" xmlns="http://www.w3.org/2000/svg">
<path fill-rule="evenodd" clip-rule="evenodd" d="M11.625 2.35048C11.857 2.21651 12.1429 2.21651 12.375 2.35048L13.4575 2.97548C13.8162 3.18259 13.9391 3.64128 13.732 4C13.5249 4.35872 13.0662 4.48163 12.7075 4.27452L12 3.86603L11.2924 4.27452C10.9337 4.48163 10.475 4.35872 10.2679 4C10.0608 3.64128 10.1837 3.18259 10.5424 2.97548L11.625 2.35048ZM9.40189 4.5C9.609 4.85872 9.48609 5.31741 9.12738 5.52452L8.41984 5.93301V6.75C8.41984 7.16421 8.08406 7.5 7.66984 7.5C7.25563 7.5 6.91984 7.16421 6.91984 6.75V5.5C6.91984 5.23205 7.06279 4.98446 7.29484 4.85048L8.37738 4.22548C8.73609 4.01837 9.19479 4.14128 9.40189 4.5ZM14.598 4.5C14.8052 4.14128 15.2638 4.01837 15.6226 4.22548L16.7051 4.85048C16.9372 4.98446 17.0801 5.23205 17.0801 5.5V6.75C17.0801 7.16421 16.7443 7.5 16.3301 7.5C15.9159 7.5 15.5801 7.16421 15.5801 6.75V5.93301L14.8726 5.52452C14.5138 5.31741 14.3909 4.85872 14.598 4.5ZM7.66984 8.5C8.08406 8.5 8.41984 8.83579 8.41984 9.25V10.067L9.12738 10.4755C9.48609 10.6826 9.609 11.1413 9.40189 11.5C9.19479 11.8587 8.73609 11.9816 8.37738 11.7745L7.66985 11.366L6.96235 11.7745C6.60363 11.9816 6.14494 11.8587 5.93783 11.5C5.73072 11.1413 5.85362 10.6826 6.21234 10.4755L6.91984 10.067V9.25C6.91984 8.83579 7.25563 8.5 7.66984 8.5ZM16.3301 8.5C16.7443 8.5 17.0801 8.83579 17.0801 9.25V10.067L17.7876 10.4755C18.1463 10.6826 18.2692 11.1413 18.0621 11.5C17.855 11.8587 17.3963 11.9816 17.0376 11.7745L16.3301 11.366L15.6226 11.7745C15.2638 11.9816 14.8052 11.8587 14.598 11.5C14.3909 11.1413 14.5138 10.6826 14.8726 10.4755L15.5801 10.067V9.25C15.5801 8.83579 15.9159 8.5 16.3301 8.5ZM5.07186 12C5.27897 12.3587 5.15607 12.8174 4.79735 13.0245L4.08984 13.433V14.25C4.08984 14.6642 3.75406 15 3.33984 15C2.92563 15 2.58984 14.6642 2.58984 14.25V13C2.58984 12.7321 2.73279 12.4845 2.96484 12.3505L4.04734 11.7255C4.40605 11.5184 4.86475 11.6413 5.07186 12ZM10.2679 12C10.475 11.6413 10.9337 11.5184 11.2924 11.7255L12 12.134L12.7075 11.7255C13.0662 11.5184 13.5249 11.6413 13.732 12C13.9391 12.3587 13.8162 12.8174 13.4575 13.0245L12.75 13.433L12.75 14.25C12.75 14.6642 12.4142 15 12 15C11.5858 15 11.25 14.6642 11.25 14.25L11.25 13.433L10.5424 13.0245C10.1837 12.8174 10.0608 12.3587 10.2679 12ZM18.9281 12C19.1352 11.6413 19.5939 11.5184 19.9526 11.7255L21.0351 12.3505C21.2672 12.4845 21.4101 12.7321 21.4101 13V14.25C21.4101 14.6642 21.0743 15 20.6601 15C20.2459 15 19.9101 14.6642 19.9101 14.25V13.433L19.2026 13.0245C18.8439 12.8174 18.721 12.3587 18.9281 12ZM3.33984 16C3.75406 16 4.08984 16.3358 4.08984 16.75V17.567L4.79738 17.9755C5.1561 18.1826 5.279 18.6413 5.07189 19C4.86479 19.3587 4.4061 19.4816 4.04738 19.2745L2.96484 18.6495C2.73279 18.5155 2.58984 18.2679 2.58984 18V16.75C2.58984 16.3358 2.92563 16 3.33984 16ZM12 16C12.4143 16 12.7501 16.3358 12.7501 16.75L12.7501 17.567L13.4576 17.9755C13.8163 18.1826 13.9392 18.6413 13.7321 19C13.525 19.3587 13.0663 19.4816 12.7076 19.2745L12.0001 18.866L11.2926 19.2745C10.9338 19.4816 10.4752 19.3587 10.268 19C10.0609 18.6413 10.1838 18.1826 10.5426 17.9755L11.2501 17.567L11.2501 16.75C11.2501 16.3358 11.5858 16 12 16ZM20.6601 16C21.0743 16 21.4101 16.3358 21.4101 16.75V18C21.4101 18.2679 21.2671 18.5155 21.0351 18.6495L19.9526 19.2745C19.5938 19.4816 19.1352 19.3587 18.928 19C18.7209 18.6413 18.8438 18.1826 19.2026 17.9755L19.9101 17.567V16.75C19.9101 16.3358 20.2459 16 20.6601 16ZM5.93792 19.5C6.14503 19.1413 6.60372 19.0184 6.96244 19.2255L7.66997 19.634L8.3775 19.2255C8.73622 19.0184 9.19492 19.1413 9.40202 19.5C9.60913 19.8587 9.48622 20.3174 9.1275 20.5245L8.04497 21.1495C7.81292 21.2835 7.52702 21.2835 7.29497 21.1495L6.21244 20.5245C5.85372 20.3174 5.73081 19.8587 5.93792 19.5ZM18.062 19.5C18.2691 19.8587 18.1462 20.3174 17.7875 20.5245L16.705 21.1495C16.4729 21.2835 16.187 21.2835 15.955 21.1495L14.8725 20.5245C14.5138 20.3174 14.3909 19.8587 14.598 19.5C14.8051 19.1413 15.2638 19.0184 15.6225 19.2255L16.33 19.634L17.0375 19.2255C17.3962 19.0184 17.8549 19.1413 18.062 19.5Z" fill="#596168"/>
</svg>
