<!--
  - Copyright (c) 2024. Devtron Inc.
  -
  - Licensed under the Apache License, Version 2.0 (the "License");
  - you may not use this file except in compliance with the License.
  - You may obtain a copy of the License at
  -
  -     http://www.apache.org/licenses/LICENSE-2.0
  -
  - Unless required by applicable law or agreed to in writing, software
  - distributed under the License is distributed on an "AS IS" BASIS,
  - WITHOUT WARRANTIES OR CONDITIONS OF ANY KIND, either express or implied.
  - See the License for the specific language governing permissions and
  - limitations under the License.
  -->

<svg width="18" height="14" viewBox="0 0 18 14" fill="none" xmlns="http://www.w3.org/2000/svg">
<g id="Group 1513">
<path id="Vector" d="M5.66667 1.72336C5.22223 1.61225 4.26667 1.59002 4 2.39002C3.66667 3.39002 3.33334 5.66699 3.00001 6.33366C2.66667 7.00033 2.33334 6.94397 1.66667 7.00033C2.33334 7.05668 2.66667 7.00033 3.00001 7.66699C3.33334 8.33366 3.66667 10.6106 4 11.6106C4.26667 12.4106 5.22223 12.3884 5.66667 12.2773" stroke="#000A14" stroke-width="1.5" stroke-linecap="round" stroke-linejoin="round"/>
<path id="Vector_2" d="M12.3333 1.72336C12.7778 1.61225 13.7333 1.59002 14 2.39002C14.3333 3.39002 14.6667 5.66699 15 6.33366C15.3333 7.00033 15.6667 6.94397 16.3333 7.00033C15.6667 7.05668 15.3333 7.00033 15 7.66699C14.6667 8.33366 14.3333 10.6106 14 11.6106C13.7333 12.4106 12.7778 12.3884 12.3333 12.2773" stroke="#000A14" stroke-width="1.5" stroke-linecap="round" stroke-linejoin="round"/>
<path id="Vector_3" d="M9.00001 5C6.61905 5 5.66667 7.00022 5.66667 7.00022C5.66667 7.00022 6.61905 9 9.00001 9C11.381 9 12.3333 7.00022 12.3333 7.00022C12.3333 7.00022 11.381 5 9.00001 5Z" stroke="#000A14" stroke-width="1.5" stroke-linecap="round" stroke-linejoin="round"/>
<path id="Vector_4" d="M9.00001 7.66732C9.3682 7.66732 9.66668 7.36884 9.66668 7.00065C9.66668 6.63246 9.3682 6.33398 9.00001 6.33398C8.63182 6.33398 8.33334 6.63246 8.33334 7.00065C8.33334 7.36884 8.63182 7.66732 9.00001 7.66732Z" fill="#000A14"/>
</g>
</svg>
