<!--
  - Copyright (c) 2024. Devtron Inc.
  -
  - Licensed under the Apache License, Version 2.0 (the "License");
  - you may not use this file except in compliance with the License.
  - You may obtain a copy of the License at
  -
  -     http://www.apache.org/licenses/LICENSE-2.0
  -
  - Unless required by applicable law or agreed to in writing, software
  - distributed under the License is distributed on an "AS IS" BASIS,
  - WITHOUT WARRANTIES OR CONDITIONS OF ANY KIND, either express or implied.
  - See the License for the specific language governing permissions and
  - limitations under the License.
  -->

<svg width="20" height="20" viewBox="0 0 20 20" fill="none" xmlns="http://www.w3.org/2000/svg">
<path d="M6.25 10H9.375M12.5 14.375H11.25C10.7527 14.375 10.2758 14.1775 9.92417 13.8258C9.57254 13.4742 9.375 12.9973 9.375 12.5V7.5C9.375 7.00272 9.57254 6.52581 9.92417 6.17417C10.2758 5.82254 10.7527 5.625 11.25 5.625H12.5M2.5 7.8125H5.625C5.97018 7.8125 6.25 8.09232 6.25 8.4375V11.5625C6.25 11.9077 5.97018 12.1875 5.625 12.1875H2.5C2.15482 12.1875 1.875 11.9077 1.875 11.5625V8.4375C1.875 8.09232 2.15482 7.8125 2.5 7.8125ZM13.125 3.125H16.875C17.2202 3.125 17.5 3.40482 17.5 3.75V7.5C17.5 7.84518 17.2202 8.125 16.875 8.125H13.125C12.7798 8.125 12.5 7.84518 12.5 7.5V3.75C12.5 3.40482 12.7798 3.125 13.125 3.125ZM13.125 11.875H16.875C17.2202 11.875 17.5 12.1548 17.5 12.5V16.25C17.5 16.5952 17.2202 16.875 16.875 16.875H13.125C12.7798 16.875 12.5 16.5952 12.5 16.25V12.5C12.5 12.1548 12.7798 11.875 13.125 11.875Z" stroke="#000A14" stroke-width="1.5" stroke-linecap="round" stroke-linejoin="round"/>
</svg>
