<!--
  - Copyright (c) 2024. Devtron Inc.
  -
  - Licensed under the Apache License, Version 2.0 (the "License");
  - you may not use this file except in compliance with the License.
  - You may obtain a copy of the License at
  -
  -     http://www.apache.org/licenses/LICENSE-2.0
  -
  - Unless required by applicable law or agreed to in writing, software
  - distributed under the License is distributed on an "AS IS" BASIS,
  - WITHOUT WARRANTIES OR CONDITIONS OF ANY KIND, either express or implied.
  - See the License for the specific language governing permissions and
  - limitations under the License.
  -->

<svg xmlns="http://www.w3.org/2000/svg" width="72" height="72" viewBox="0 0 72 72">
    <g fill="none" fill-rule="evenodd">
        <path d="M0 0H72V72H0z"/>
        <g stroke="#FF7E5B" stroke-linecap="round" stroke-linejoin="round" stroke-width="2">
            <path d="M15.429 9.643L19.286 9.643" transform="rotate(-4 246.526 -702.035)"/>
            <path d="M12.495 15.735L16.352 15.735" transform="rotate(-4 246.526 -702.035) rotate(51 14.423 15.735)"/>
            <path d="M0.615 6.262L4.472 6.262" transform="rotate(-4 246.526 -702.035) rotate(-154 2.544 6.262)"/>
            <path d="M5.902 2.046L9.759 2.046" transform="rotate(-4 246.526 -702.035) rotate(-103 7.83 2.046)"/>
            <path d="M12.495 3.55L16.352 3.55" transform="rotate(-4 246.526 -702.035) rotate(-51 14.423 3.55)"/>
        </g>
        <path fill="#ABCFF3" stroke="#06C" stroke-linejoin="round" stroke-width="2" d="M14.143 55.286H9c-1.42 0-2.571-1.152-2.571-2.572V23.143c0-1.42 1.15-2.572 2.571-2.572h14.143l1.286 3.858H47.57c.71 0 1.286.575 1.286 1.285v3.857h0"/>
        <path fill="#E5F2FF" stroke="#06C" stroke-linejoin="round" stroke-width="2" d="M9 55.286c.763 0 1.436-.5 1.655-1.232l6.795-22.65c.327-1.088 1.328-1.833 2.463-1.833h38.788c.71 0 1.285.576 1.285 1.286 0 .125-.018.25-.054.37l-6.668 22.226c-.326 1.088-1.327 1.833-2.463 1.833H28.286h0H9z"/>
    </g>
</svg>
