<svg xmlns="http://www.w3.org/2000/svg" width="32" height="32" viewBox="0 0 32 32">
    <g fill="none" fill-rule="evenodd">
        <path d="M0 0h32v32H0z"/>
        <path fill="#06C" d="M16 2.667C8.64 2.667 2.667 8.64 2.667 16S8.64 29.333 16 29.333 29.333 23.36 29.333 16 23.36 2.667 16 2.667z"/>
        <path fill="#FFF" d="M16 14.667c.736 0 1.333.597 1.333 1.333v5.333a1.333 1.333 0 1 1-2.666 0V16c0-.736.597-1.333 1.333-1.333zm0-5.334A1.333 1.333 0 1 1 16 12a1.333 1.333 0 0 1 0-2.667z"/>
    </g>
</svg>