<!--
  - Copyright (c) 2024. Devtron Inc.
  -
  - Licensed under the Apache License, Version 2.0 (the "License");
  - you may not use this file except in compliance with the License.
  - You may obtain a copy of the License at
  -
  -     http://www.apache.org/licenses/LICENSE-2.0
  -
  - Unless required by applicable law or agreed to in writing, software
  - distributed under the License is distributed on an "AS IS" BASIS,
  - WITHOUT WARRANTIES OR CONDITIONS OF ANY KIND, either express or implied.
  - See the License for the specific language governing permissions and
  - limitations under the License.
  -->

<svg width="250" height="200" viewBox="0 0 250 200" fill="none" xmlns="http://www.w3.org/2000/svg">
<rect x="10" y="80" width="200" height="13" fill="url(#paint0_linear_1869_837)"/>
<rect x="18" y="93" width="184" height="4" fill="url(#paint1_linear_1869_837)"/>
<path d="M36 97H41L23 197H18L36 97Z" fill="url(#paint2_linear_1869_837)"/>
<path d="M184 97H179L197 197H202L184 97Z" fill="url(#paint3_linear_1869_837)"/>
<rect x="101" y="62" width="18" height="15" fill="url(#paint4_linear_1869_837)"/>
<rect x="88" y="77" width="44" height="3" fill="#428DFC"/>
<rect width="129" height="57" transform="translate(45 5)" fill="url(#paint5_linear_1869_837)"/>
<path fill-rule="evenodd" clip-rule="evenodd" d="M109.112 40.44C107.592 40.44 106.432 39.86 105.632 38.7C104.845 37.54 104.452 35.7133 104.452 33.22C104.452 30.7267 104.845 28.9 105.632 27.74C106.432 26.58 107.592 26 109.112 26C110.632 26 111.785 26.58 112.572 27.74C113.372 28.9 113.772 30.7267 113.772 33.22C113.772 35.7133 113.372 37.54 112.572 38.7C111.785 39.86 110.632 40.44 109.112 40.44ZM109.112 39.78C110.405 39.78 111.372 39.2933 112.012 38.32C112.652 37.3333 112.972 35.8867 112.972 33.98V32.46C112.972 30.5533 112.652 29.1133 112.012 28.14C111.372 27.1533 110.405 26.66 109.112 26.66C107.819 26.66 106.852 27.1533 106.212 28.14C105.572 29.1133 105.252 30.5533 105.252 32.46V33.98C105.252 35.8867 105.572 37.3333 106.212 38.32C106.852 39.2933 107.819 39.78 109.112 39.78ZM109.112 33.88C108.859 33.88 108.679 33.8267 108.572 33.72C108.479 33.6133 108.432 33.4867 108.432 33.34V33.1C108.432 32.9533 108.479 32.8267 108.572 32.72C108.679 32.6133 108.859 32.56 109.112 32.56C109.365 32.56 109.539 32.6133 109.632 32.72C109.739 32.8267 109.792 32.9533 109.792 33.1V33.34C109.792 33.4867 109.739 33.6133 109.632 33.72C109.539 33.8267 109.365 33.88 109.112 33.88ZM123.184 40.2V37.1H115.984V36.44L122.904 26.24H123.884V36.5H126.164V37.1H123.884V40.2H123.184ZM116.664 36.5H123.184V26.98H123.124L116.664 36.5ZM99.2 37.1V40.2H99.9V37.1H102.18V36.5H99.9V26.24H98.92L92 36.44V37.1H99.2ZM99.2 36.5H92.68L99.14 26.98H99.2V36.5Z" fill="white"/>
<path d="M212 128H186C186 130.209 187.791 132 190 132H208C210.209 132 212 130.209 212 128Z" fill="#1E2360"/>
<rect width="6" height="13" transform="matrix(-1 0 0 1 202 132)" fill="#181D55"/>
<path d="M204 147C204 144.791 202.209 143 200 143H198C195.791 143 194 144.791 194 147V182H204V147Z" fill="url(#paint6_linear_1869_837)"/>
<path fill-rule="evenodd" clip-rule="evenodd" d="M229 189C229 185.134 225.866 182 222 182H176C172.134 182 169 185.134 169 189H171C171 186.239 173.239 184 176 184H222C224.761 184 227 186.239 227 189H229Z" fill="#171C53"/>
<path fill-rule="evenodd" clip-rule="evenodd" d="M215 189C215 185.134 211.866 182 208 182H190C186.134 182 183 185.134 183 189H185C185 186.239 187.239 184 190 184H208C210.761 184 213 186.239 213 189H215Z" fill="#23286B"/>
<circle cx="6" cy="6" r="6" transform="matrix(-1 0 0 1 234 188)" fill="url(#paint7_linear_1869_837)"/>
<circle cx="6" cy="6" r="6" transform="matrix(-1 0 0 1 220 188)" fill="url(#paint8_linear_1869_837)"/>
<circle cx="6" cy="6" r="6" transform="matrix(-1 0 0 1 190 188)" fill="url(#paint9_linear_1869_837)"/>
<circle cx="6" cy="6" r="6" transform="matrix(-1 0 0 1 176 188)" fill="url(#paint10_linear_1869_837)"/>
<rect width="26" height="15" transform="matrix(-1 0 0 1 189 113)" fill="#C73837"/>
<path d="M188 199.857C188 199.713 186.618 195.769 184.957 191.036L181.914 182H166.491L163.172 184.868C160.405 187.307 147.83 194.251 146.228 195.196C145.159 195.825 142.749 197.426 141 200C171.667 199.953 188 199.904 188 199.857Z" fill="url(#paint11_linear_1869_837)"/>
<path d="M169 199.857C169 199.713 167.618 195.769 165.957 191.036L162.914 182H147.491L144.172 184.868C141.405 187.307 128.83 194.251 127.228 195.196C126.159 195.825 123.749 197.426 122 200C152.667 199.953 169 199.904 169 199.857Z" fill="url(#paint12_linear_1869_837)"/>
<path d="M176.5 119C178.5 115.4 187 113.167 191 112.5L185 91.5L156.742 104.661C151.868 106.931 149.099 112.167 149.965 117.473L160.5 182H190C190 180 189.7 175.2 188.5 172C187 168 182.5 163 181.5 159C180.5 155 182.5 152 181.5 147C180.5 142 175 135.5 174.5 131C174 126.5 174 123.5 176.5 119Z" fill="url(#paint13_linear_1869_837)"/>
<path d="M146.267 102.694L186.5 84C189.5 88.5 196.4 99.1 200 105.5C198 113 183.5 115 178.5 116C170.854 117.529 163 118.5 163.5 128.5C163.7 132.495 168 140 168.5 145.5C169 151 168 154.5 168 159.5C168 164.5 172.5 168 174.5 175.5C175.031 177.492 175 181.5 175 182.5H146.5L138.276 117.138C137.516 111.098 140.746 105.259 146.267 102.694Z" fill="url(#paint14_linear_1869_837)"/>
<path d="M207.5 41.5L204.5 35C201.333 33.1667 195.4 30.7 197 35.5C198.6 40.3 199 44.8333 199 46.5L207.5 41.5Z" fill="url(#paint15_linear_1869_837)"/>
<ellipse cx="2" cy="3" rx="2" ry="3" transform="matrix(-1 0 0 1 190.2 22)" stroke="white" stroke-width="0.3"/>
<path d="M212.2 32.001C215.2 29.501 215.7 25.501 215.7 23.501C215.7 18.501 212.7 14.001 203.7 14.001C196.5 14.001 192.367 20.001 191.2 23.001C190.034 24.8343 187.7 28.801 187.7 30.001C187.7 31.201 189.367 31.8343 190.2 32.001C191.2 36.501 195.7 38.001 199.2 38.001C202.7 38.001 209.2 34.501 212.2 32.001Z" fill="#FFBEB6"/>
<ellipse cx="2.75" cy="3.75" rx="2.75" ry="3.75" transform="matrix(-1 0 0 1 197.2 21)" stroke="white" stroke-width="0.3"/>
<path fill-rule="evenodd" clip-rule="evenodd" d="M191.693 21.9151C187.789 20.8518 184.2 18.5249 184.2 13.726C184.2 9.97259 187.633 9.99441 188.604 10.0006C188.639 10.0008 188.672 10.001 188.7 10.001C191.465 10.001 194.521 13.2016 196.685 15.4686C196.831 15.6218 196.974 15.7708 197.111 15.9142C198.913 14.7788 201.108 14.0011 203.7 14.0011C212.7 14.0011 215.7 18.5011 215.7 23.5011C215.7 25.5011 215.2 29.5011 212.2 32.0011C210.543 33.3825 207.816 35.0691 205.118 36.302C204.664 35.4677 204.2 34.316 204.2 33.2261C204.2 32.2261 204.95 31.6011 205.7 30.9761C206.45 30.3511 207.2 29.7261 207.2 28.7261C207.2 26.7261 205.2 26.7261 204.7 26.7261C204.615 26.7261 204.472 26.7551 204.283 26.7934C203.363 26.9797 201.36 27.3855 199.7 25.7261C198.7 24.7262 198.2 23.2262 198.2 22.7261C196.357 22.7261 193.971 22.5359 191.692 21.9153C191.692 21.9152 191.693 21.9152 191.693 21.9151Z" fill="#428DFC"/>
<path d="M198.2 22.5C191.7 23 182.2 21.5 183.7 11" stroke="#428DFC" stroke-width="0.25"/>
<path d="M191.7 24.5C191.534 24.3333 190.72 23.9999 190.12 24.4999" stroke="white" stroke-width="0.3"/>
<path d="M160 48H148V56C148 59.3137 150.686 62 154 62C157.314 62 160 59.3137 160 56V48Z" fill="url(#paint16_linear_1869_837)"/>
<path d="M157.5 69.4999C158.3 69.4999 160.833 71.8332 162 72.9999C163.833 73.1666 166.6 72.0999 163 66.4999C158.5 59.4999 153.5 53.4999 152.5 53.4999C151.5 53.4999 150.5 52.9999 148.5 54.9999C146.5 56.9999 146 60.4999 146 61.4999C146 62.4999 146 63.9999 147.5 65.9999C149 67.9999 156.5 69.4999 157.5 69.4999Z" fill="#FBB4AD"/>
<path d="M156 53C156 52.4477 155.552 52 155 52H153C152.448 52 152 52.4477 152 53V55.7825C152 56.594 152.004 57.4083 152.146 58.2072C152.356 59.3848 152.853 61 154 61C155.147 61 155.644 59.3848 155.854 58.2072C155.996 57.4083 156 56.594 156 55.7825V53Z" fill="url(#paint17_linear_1869_837)"/>
<path d="M217 72.9999C217 57.7999 210.667 45.6666 207.5 41.4999C205.5 40.8333 199.132 44 196.5 48.9999C190.71 60 192 72.4999 184 72.4999C177.2 72.4999 165.833 66.4999 161 63.4999L156 82.9999C157.667 84.9999 160.5 88 164 89.5C166.907 90.7457 168 91 171.5 91C175 91 183 99 192 99C208.008 99 217 91.9999 217 72.9999Z" fill="url(#paint18_linear_1869_837)"/>
<path d="M248.099 60.59C249.09 55.0713 244.848 50 239.241 50H208.365C203.524 50 199.378 53.4681 198.522 58.2334L186 128H236L248.099 60.59Z" fill="url(#paint19_linear_1869_837)"/>
<path d="M69.4212 110.954C68.4263 111.257 67.4501 111.623 66.5038 112.053C67.4089 112.038 68.3141 112.042 69.2155 112.068C69.7166 112.083 70.2103 112.106 70.7115 112.136C70.2739 114.735 69.7241 117.301 68.9836 119.807C68.4412 119.818 67.8989 119.84 67.3603 119.882C65.7333 119.99 64.1138 120.222 62.5205 120.562C63.9829 120.932 65.4154 121.419 66.7955 122.021C67.2257 122.208 67.6483 122.406 68.071 122.612C67.6147 123.887 67.1022 125.148 66.5188 126.389C65.9652 127.571 65.3444 128.742 64.6524 129.875C63.9044 131.11 63.0741 132.306 62.1727 133.455C60.1268 133.275 58.0697 133.223 56.0201 133.309C57.5087 133.963 58.9449 134.745 60.2989 135.639C56.8579 139.327 52.5417 142.27 47.485 143.792C46.909 141.694 46.5051 139.574 46.2844 137.449C46.9128 137.034 47.5411 136.619 48.1694 136.196C47.5 136.017 46.823 135.856 46.1423 135.732C46.0151 133.548 46.0787 131.368 46.3442 129.213C47.5523 129.389 48.7529 129.636 49.9311 129.954C48.9586 128.854 47.874 127.856 46.6996 126.969V126.965C47.1783 124.445 47.9488 121.976 49.0185 119.608C49.3065 118.965 49.6169 118.333 49.9498 117.701C50.2752 117.095 50.6193 116.493 50.9896 115.909C51.1728 115.921 51.3561 115.936 51.5431 115.954C53.2449 116.111 54.9317 116.508 56.6036 116.908C55.4553 115.898 54.251 114.956 52.9868 114.092C52.8185 113.976 52.6464 113.86 52.4744 113.748C54.3295 111.26 56.5886 109.013 59.1469 107.124C59.6593 107.374 60.1567 107.655 60.6355 107.965C61.0282 108.216 61.4097 108.489 61.78 108.777C61.6191 108.291 61.4209 107.819 61.189 107.359C60.9871 106.952 60.7477 106.559 60.4896 106.181C63.9156 103.911 67.8166 102.269 72.0094 101.517C71.7251 104.547 71.4109 107.558 70.9696 110.524C70.446 110.658 69.9298 110.797 69.4212 110.954Z" fill="url(#paint20_linear_1869_837)"/>
<path d="M69.6021 103.48C60.4724 112.25 54.0183 123.47 49.9411 135.346C45.864 147.218 44.0896 159.75 43.5017 172.254C43.4968 172.357 43.5769 172.444 43.6797 172.449C43.7829 172.454 43.8705 172.374 43.8753 172.271C44.4622 159.791 46.2331 147.294 50.295 135.467C54.3564 123.638 60.7832 112.47 69.861 103.75C69.9358 103.679 69.938 103.56 69.8666 103.486C69.7948 103.411 69.6766 103.409 69.6021 103.48Z" fill="#093B31"/>
<path d="M47.2792 113.624C47.1819 115.756 46.9239 117.892 46.5087 119.986C44.9827 119.893 43.4492 119.923 41.9307 120.069C43.4118 120.274 44.863 120.701 46.2207 121.318C45.237 125.604 43.9392 131.304 41.5904 134.827C39.2677 132.901 36.7319 128.981 34.7945 126.419C36.0512 125.982 37.3153 125.589 38.5945 125.245C36.9974 125.054 35.3891 124.976 33.7771 125.013C31.907 122.343 30.2875 119.429 29.0009 116.388C31.0917 115.79 33.2722 115.472 35.434 115.158C33.0478 114.387 30.5493 113.976 28.0397 113.931C27.531 112.525 27.0972 111.107 26.7381 109.675C26.6783 109.435 26.6222 109.196 26.5661 108.953C26.121 107.034 25.7956 105.228 25.5936 103.458C26.0275 103.417 26.4613 103.376 26.8952 103.335C29.1505 103.122 31.4133 102.905 33.6687 102.692C31.2001 101.592 28.6194 100.736 25.9789 100.141C25.7657 100.092 25.5487 100.047 25.3355 100.003V99.9988C25.2345 96.4045 25.6198 92.7541 26.51 88.4043C27.0149 88.4379 27.5198 88.4978 28.021 88.5801C28.5259 88.6549 29.0346 88.7558 29.5283 88.8755C29.0795 88.4828 28.6194 88.1013 28.1482 87.7273C27.7293 87.3944 27.2991 87.0653 26.8615 86.7511C27.3216 84.6828 27.8863 82.4536 28.5521 80.0001C31.1403 81.9001 33.4966 83.7103 35.5986 85.5468C35.3817 86.0143 35.1759 86.4856 34.9777 86.9606C34.6187 87.8058 34.2895 88.6623 33.9941 89.5301C34.5588 89.0177 35.1535 88.5389 35.7781 88.0938C36.2756 87.746 36.7842 87.4169 37.3116 87.1102C39.4809 89.1748 41.3248 91.3254 42.8171 93.7265C42.2898 94.1828 41.7699 94.6466 41.2425 95.1029C39.8923 96.2848 38.5421 97.4592 37.1919 98.6449C38.5795 97.8894 39.997 97.1974 41.4445 96.5653C42.2412 96.2175 43.049 95.8884 43.8644 95.5779C44.9416 97.6463 45.7719 99.9053 46.3441 102.452C46.662 103.877 46.9089 105.344 47.0697 106.836C46.4563 107.15 45.8429 107.464 45.2258 107.778C43.7559 108.534 42.2898 109.289 40.8199 110.037C42.6376 109.91 44.4591 109.776 46.2768 109.648C46.6134 109.626 46.9463 109.6 47.2792 109.577C47.3428 110.92 47.3428 112.27 47.2792 113.624Z" fill="url(#paint21_linear_1869_837)"/>
<path d="M30.7922 86.371C38.8575 109.58 42.9796 134.101 42.9796 158.622C42.9796 163.073 42.8438 167.524 42.5712 171.967C42.5648 172.07 42.6433 172.159 42.7466 172.165C42.8494 172.172 42.9381 172.093 42.9444 171.99C43.2178 167.539 43.3536 163.081 43.3536 158.622C43.3536 134.059 39.2245 109.497 31.1453 86.2484C31.1116 86.1507 31.005 86.0991 30.9074 86.1332C30.8098 86.1672 30.7582 86.2734 30.7922 86.371Z" fill="url(#paint22_linear_1869_837)"/>
<path d="M70.5956 138.093L68.3851 138.399L70.3151 138.605L71.669 138.751C70.4011 142.147 66.717 146.774 66.717 146.774L66.1597 146.789L62.0605 146.923L65.4827 148.195L65.8194 148.322C65.2733 149.41 64.5327 150.645 63.7847 151.8C62.3447 154.048 60.901 156.004 60.901 156.004L56.4128 156.644L59.7902 157.377C56.9738 161.603 48.0198 165.056 48.0198 165.056C48.0198 165.056 43.4456 153.158 49.8637 141.567L53.0018 143.651L51.3561 138.987C51.8273 138.104 52.609 137.06 53.5366 136.021C55.3506 133.982 57.7181 131.94 59.3937 131.072C59.4648 131.304 59.5583 131.574 59.6668 131.854C60.0744 132.916 60.6542 134.147 60.7327 134.18C60.8187 134.222 60.9571 132.595 61.1404 131.151C61.2002 130.68 61.2638 130.231 61.3349 129.864C65.0975 127.575 73.2361 126.218 78.6968 128.447C78.6968 128.447 75.6336 133.006 72.2038 137.876L70.5956 138.093Z" fill="url(#paint23_linear_1869_837)"/>
<path d="M45.2482 183.091C45.2482 183.091 45.2594 182.912 45.2878 182.571C45.5006 180.012 46.6683 168.408 51.0694 156.565C53.2697 150.643 56.278 144.663 60.3723 139.722C64.4671 134.782 69.6431 130.882 76.1915 129.102C76.2909 129.075 76.35 128.972 76.3227 128.873C76.2958 128.773 76.1929 128.714 76.0935 128.742C69.0152 130.665 63.5223 135.036 59.2727 140.494C46.5292 156.873 44.8798 183.053 44.8749 183.068C44.8682 183.171 44.9464 183.26 45.0496 183.266C45.1528 183.273 45.2415 183.194 45.2482 183.091Z" fill="#428DFC"/>
<path d="M41.5863 161.392C41.841 162.71 41.9678 164.05 41.9678 165.391C41.9678 167.698 41.593 170.004 40.8521 172.191C40.8192 172.289 40.8716 172.395 40.9696 172.428C41.0672 172.462 41.1734 172.409 41.2067 172.311C41.9607 170.085 42.3418 167.739 42.3418 165.391C42.3418 164.027 42.2128 162.662 41.9536 161.321C41.9338 161.22 41.8358 161.153 41.7344 161.173C41.6331 161.192 41.5669 161.29 41.5863 161.392Z" fill="#428DFC"/>
<path d="M42.2897 165.602C42.2748 165.729 37.5434 162.307 32.6588 157.033L33.4367 154.512L33.6275 153.876L33.2086 154.198L31.3609 155.593C30.0369 154.086 28.7129 152.466 27.4711 150.757C26.2967 149.141 25.1971 147.443 24.2434 145.697L25.2457 144.791L26.4575 143.699L28.3463 141.994L25.99 142.895L24.3443 143.52L23.3233 143.909C23.1662 143.565 23.0016 143.224 22.852 142.88C21.4569 139.675 20.3162 136.765 19.4073 134.214L19.9421 133.855L20.8099 133.275L22.1975 132.352L20.4546 132.55L19.5345 132.655L18.8837 132.729C16.7742 126.614 16.0449 122.9 16 122.672V122.661C16 122.661 18.3488 123.27 21.6177 124.767C26.2256 126.876 32.67 130.747 36.96 137.15C43.5988 147.095 42.5665 162.838 42.2897 165.602Z" fill="url(#paint24_linear_1869_837)"/>
<path d="M56.873 190.051C56.7608 191.465 56.5289 192.74 56.2334 193.874C55.2946 197.494 52.007 200 48.2892 200H41.8412C40.9061 200 40.001 199.843 39.1557 199.547C36.6012 198.657 34.574 196.533 33.8709 193.78C33.8035 193.522 33.7437 193.253 33.6838 192.98C33.422 191.775 33.2388 190.429 33.1864 188.955C33.134 187.366 33.235 185.626 33.5642 183.741C33.6577 183.191 33.7736 182.631 33.912 182.055C34.0915 181.28 34.3159 180.48 34.5852 179.661L34.6638 179.421C34.8283 178.924 34.9817 178.442 35.1275 177.974C35.3819 177.128 35.6026 176.332 35.7896 175.584C36.2608 173.71 36.5339 172.143 36.6872 170.894C36.9752 168.582 36.8593 167.378 36.8593 167.378H53.2712C53.2712 167.378 53.2038 168.066 53.2936 169.402C53.3198 169.828 53.3684 170.329 53.4395 170.894C53.5928 172.143 53.8659 173.71 54.3371 175.584C54.5241 176.332 54.7411 177.128 54.9991 177.974C55.145 178.442 55.2946 178.924 55.4629 179.421C55.4891 179.504 55.5153 179.582 55.5415 179.661C55.807 180.48 56.0277 181.28 56.2109 182.055C56.3456 182.627 56.4615 183.188 56.5588 183.741C56.7271 184.695 56.8318 185.615 56.8917 186.498C56.9777 187.766 56.9627 188.951 56.873 190.051Z" fill="url(#paint25_linear_1869_837)"/>
<path d="M35.7896 167.158C35.7896 166.552 36.2795 166.062 36.8854 166.062H53.2412C53.8471 166.062 54.3371 166.552 54.3371 167.158C54.3371 167.763 53.8471 168.253 53.2412 168.253H36.8854C36.2795 168.253 35.7896 167.763 35.7896 167.158Z" fill="url(#paint26_linear_1869_837)"/>
<path d="M56.2334 193.874C56.5289 192.74 56.7608 191.465 56.873 190.051C56.9628 188.951 56.9777 187.766 56.8917 186.498C56.8319 185.615 56.7271 184.695 56.5588 183.741C56.4616 183.188 56.3456 182.627 56.211 182.055C56.0277 181.28 55.807 180.48 55.5415 179.661C55.5153 179.582 55.4891 179.504 55.4629 179.421C55.2946 178.924 55.145 178.442 54.9992 177.974C54.7411 177.128 54.5242 176.332 54.3372 175.584C53.8659 173.71 53.5929 172.143 53.4395 170.894C53.3685 170.329 53.3198 169.828 53.2936 169.402H53.2974C53.3236 169.828 53.3722 170.329 53.4433 170.894C53.5966 172.143 53.8696 173.71 54.3409 175.584C54.5279 176.332 54.7448 177.128 55.0029 177.974C55.1488 178.442 55.2984 178.924 55.4667 179.421C55.4929 179.504 55.5191 179.582 55.5452 179.661C55.8108 180.48 56.0315 181.28 56.2147 182.055C56.3494 182.627 56.4653 183.188 56.5626 183.741C56.7309 184.695 56.8356 185.615 56.8954 186.498C56.9777 187.766 56.9628 188.951 56.873 190.051C56.7608 191.465 56.5289 192.74 56.2334 193.874Z" fill="#E2E3C3"/>
<defs>
<linearGradient id="paint0_linear_1869_837" x1="10" y1="87" x2="210" y2="86.9999" gradientUnits="userSpaceOnUse">
<stop stop-color="#EEEEEE"/>
<stop offset="1" stop-color="#D6D7D8"/>
</linearGradient>
<linearGradient id="paint1_linear_1869_837" x1="202" y1="95.4" x2="18" y2="95.4" gradientUnits="userSpaceOnUse">
<stop stop-color="#E9EBED"/>
<stop offset="0.102145" stop-color="#EEEEEE"/>
</linearGradient>
<linearGradient id="paint2_linear_1869_837" x1="33.333" y1="97" x2="33.333" y2="197" gradientUnits="userSpaceOnUse">
<stop stop-color="#E5E9EC"/>
<stop offset="0.220246" stop-color="#EEEEEE"/>
</linearGradient>
<linearGradient id="paint3_linear_1869_837" x1="186.667" y1="97" x2="186.667" y2="197" gradientUnits="userSpaceOnUse">
<stop stop-color="#E5E9EC"/>
<stop offset="0.220246" stop-color="#EEEEEE"/>
</linearGradient>
<linearGradient id="paint4_linear_1869_837" x1="110" y1="62" x2="110" y2="77" gradientUnits="userSpaceOnUse">
<stop offset="0.15763" stop-color="#3986F3"/>
<stop offset="0.657079" stop-color="#2175DD"/>
</linearGradient>
<linearGradient id="paint5_linear_1869_837" x1="-1.04326e-06" y1="29.3636" x2="129.066" y2="27.0969" gradientUnits="userSpaceOnUse">
<stop stop-color="#23286B"/>
<stop offset="1" stop-color="#1D225F"/>
</linearGradient>
<linearGradient id="paint6_linear_1869_837" x1="199" y1="143" x2="199" y2="182" gradientUnits="userSpaceOnUse">
<stop offset="0.70661" stop-color="#23286B"/>
<stop offset="1" stop-color="#1A1F5A"/>
</linearGradient>
<linearGradient id="paint7_linear_1869_837" x1="12" y1="-4.6851e-07" x2="2.74666" y2="13.8368" gradientUnits="userSpaceOnUse">
<stop offset="0.133036" stop-color="#EEEEEE"/>
<stop offset="0.847068" stop-color="#D0D0D0"/>
</linearGradient>
<linearGradient id="paint8_linear_1869_837" x1="12" y1="-4.6851e-07" x2="2.74666" y2="13.8368" gradientUnits="userSpaceOnUse">
<stop offset="0.133036" stop-color="#EEEEEE"/>
<stop offset="0.847068" stop-color="#D0D0D0"/>
</linearGradient>
<linearGradient id="paint9_linear_1869_837" x1="12" y1="-4.6851e-07" x2="2.74666" y2="13.8368" gradientUnits="userSpaceOnUse">
<stop offset="0.133036" stop-color="#EEEEEE"/>
<stop offset="0.847068" stop-color="#D0D0D0"/>
</linearGradient>
<linearGradient id="paint10_linear_1869_837" x1="12" y1="-4.6851e-07" x2="2.74666" y2="13.8368" gradientUnits="userSpaceOnUse">
<stop offset="0.133036" stop-color="#EEEEEE"/>
<stop offset="0.847068" stop-color="#D0D0D0"/>
</linearGradient>
<linearGradient id="paint11_linear_1869_837" x1="184.533" y1="182.34" x2="172.175" y2="212.693" gradientUnits="userSpaceOnUse">
<stop offset="0.090505" stop-color="#2C7DE7"/>
<stop offset="0.492038" stop-color="#1D72D9"/>
</linearGradient>
<linearGradient id="paint12_linear_1869_837" x1="165.533" y1="182.34" x2="153.175" y2="212.693" gradientUnits="userSpaceOnUse">
<stop offset="0.0747083" stop-color="#428DFC"/>
<stop offset="1" stop-color="#428DFC"/>
</linearGradient>
<linearGradient id="paint13_linear_1869_837" x1="167.621" y1="91.5" x2="192.938" y2="176.217" gradientUnits="userSpaceOnUse">
<stop offset="0.332054" stop-color="#181D55"/>
<stop offset="1" stop-color="#1A1F58"/>
</linearGradient>
<linearGradient id="paint14_linear_1869_837" x1="174" y1="84" x2="174.185" y2="182.5" gradientUnits="userSpaceOnUse">
<stop stop-color="#191D52"/>
<stop offset="0.815238" stop-color="#272D78"/>
<stop offset="1" stop-color="#23286B"/>
</linearGradient>
<linearGradient id="paint15_linear_1869_837" x1="201" y1="37.5" x2="203.5" y2="43.5" gradientUnits="userSpaceOnUse">
<stop stop-color="#FBA19B"/>
<stop offset="0.349149" stop-color="#F9ADA7"/>
<stop offset="1" stop-color="#F9AFA9"/>
</linearGradient>
<linearGradient id="paint16_linear_1869_837" x1="160" y1="50.5" x2="148" y2="50.5" gradientUnits="userSpaceOnUse">
<stop stop-color="#E04341"/>
<stop offset="1" stop-color="#B62625"/>
</linearGradient>
<linearGradient id="paint17_linear_1869_837" x1="154" y1="52" x2="154" y2="61" gradientUnits="userSpaceOnUse">
<stop stop-color="#ED514F"/>
<stop offset="1" stop-color="#DC403E"/>
</linearGradient>
<linearGradient id="paint18_linear_1869_837" x1="212.5" y1="42.5" x2="165" y2="93.5" gradientUnits="userSpaceOnUse">
<stop stop-color="#7294D6"/>
<stop offset="1" stop-color="#A1C3FC"/>
</linearGradient>
<linearGradient id="paint19_linear_1869_837" x1="193.5" y1="81.4787" x2="236.5" y2="128" gradientUnits="userSpaceOnUse">
<stop stop-color="#E74846"/>
<stop offset="1" stop-color="#D03231"/>
</linearGradient>
<linearGradient id="paint20_linear_1869_837" x1="62.2989" y1="122.531" x2="46.1609" y2="121.383" gradientUnits="userSpaceOnUse">
<stop offset="0.29724" stop-color="#2D7EE8"/>
<stop offset="0.828999" stop-color="#428DFC"/>
</linearGradient>
<linearGradient id="paint21_linear_1869_837" x1="39.0855" y1="107.253" x2="25.3496" y2="106.614" gradientUnits="userSpaceOnUse">
<stop offset="0.29724" stop-color="#2D7EE8"/>
<stop offset="0.828999" stop-color="#428DFC"/>
</linearGradient>
<linearGradient id="paint22_linear_1869_837" x1="36.0679" y1="172.166" x2="35.3732" y2="86.128" gradientUnits="userSpaceOnUse">
<stop stop-color="#191D52"/>
<stop offset="0.815238" stop-color="#272D78"/>
<stop offset="1" stop-color="#23286B"/>
</linearGradient>
<linearGradient id="paint23_linear_1869_837" x1="48.8195" y1="164.342" x2="79.7126" y2="137.582" gradientUnits="userSpaceOnUse">
<stop stop-color="#7294D6"/>
<stop offset="1" stop-color="#A1C3FC"/>
</linearGradient>
<linearGradient id="paint24_linear_1869_837" x1="17.9561" y1="164.794" x2="49.8952" y2="144.804" gradientUnits="userSpaceOnUse">
<stop stop-color="#7294D6"/>
<stop offset="1" stop-color="#A1C3FC"/>
</linearGradient>
<linearGradient id="paint25_linear_1869_837" x1="56.9488" y1="200" x2="29.8303" y2="170.446" gradientUnits="userSpaceOnUse">
<stop offset="0.133036" stop-color="#EEEEEE"/>
<stop offset="0.847068" stop-color="#D0D0D0"/>
</linearGradient>
<linearGradient id="paint26_linear_1869_837" x1="35.7896" y1="167.073" x2="54.3371" y2="167.073" gradientUnits="userSpaceOnUse">
<stop stop-color="#EEEEEE"/>
<stop offset="1" stop-color="#D6D7D8"/>
</linearGradient>
</defs>
</svg>
