<!--
  - Copyright (c) 2024. Devtron Inc.
  -
  - Licensed under the Apache License, Version 2.0 (the "License");
  - you may not use this file except in compliance with the License.
  - You may obtain a copy of the License at
  -
  -     http://www.apache.org/licenses/LICENSE-2.0
  -
  - Unless required by applicable law or agreed to in writing, software
  - distributed under the License is distributed on an "AS IS" BASIS,
  - WITHOUT WARRANTIES OR CONDITIONS OF ANY KIND, either express or implied.
  - See the License for the specific language governing permissions and
  - limitations under the License.
  -->

<svg width="250" height="200" viewBox="0 0 250 200" fill="none" xmlns="http://www.w3.org/2000/svg">
<g clip-path="url(#clip0_1869_550)">
<rect x="92" y="127.163" width="77" height="77" transform="rotate(-42 92 127.163)" fill="#EEEEEE"/>
<path d="M234.287 102.782C253.504 124.125 251.781 157.004 230.438 176.221C209.096 195.437 176.217 193.714 157 172.372C166.569 163.756 211.469 123.328 234.287 102.782Z" fill="#1F2463"/>
<path d="M169.5 8.5L101.5 58L191.5 92L169.5 8.5Z" fill="#E94A47"/>
<path d="M54.0979 121.532L59.3504 117.611C61.5248 117.419 64.9923 117.654 62.917 119.846C60.8417 122.038 59.0262 123.348 58.8965 124.904L54.0979 121.532Z" fill="url(#paint0_linear_1869_550)"/>
<path d="M64.2151 131.649C66.1938 133.628 69.4028 135.28 73.4232 135.54C73.4232 136.188 73.8122 145.526 73.8122 146.434C63.8258 145.008 54.099 140.209 51.505 134.243C47.13 124.181 51.8941 122.182 52.5426 121.922C53.191 121.663 55.6553 121.014 57.4709 121.922C58.9007 122.637 59.4657 124.909 60.5837 126.98C61.4279 128.544 62.7885 130.222 64.2151 131.649Z" fill="url(#paint1_linear_1869_550)"/>
<path d="M73.0344 126.33C73.0344 127.679 72.7751 132.944 72.6454 135.409V143.579C74.3314 143.968 77.7034 143.45 80.2973 141.634C81.0755 138.262 80.6864 133.723 80.2973 131.388C79.9082 129.054 79.0004 125.941 77.9628 123.347C76.9253 120.753 74.8502 116.344 74.3314 115.176C73.8127 114.009 73.4236 112.193 73.0344 110.507C72.6453 108.821 70.4406 107.914 68.4952 109.729C66.5498 111.545 69.014 114.139 69.5327 114.658C70.0515 115.176 71.7375 117.77 72.386 119.327C73.0344 120.883 73.0344 124.644 73.0344 126.33Z" fill="url(#paint2_linear_1869_550)"/>
<path d="M23.8806 169.389L29.5871 177.301C29.198 179.419 28.1605 183.63 27.1229 183.526C25.826 183.396 21.0274 183.785 18.0444 184.304C15.0615 184.823 11.1707 185.99 8.18773 185.99C5.80137 185.99 3.73493 185.298 3 184.953L23.8806 169.389Z" fill="#428DFC"/>
<path d="M50.2062 172.89L35.2915 151.88L48.6499 147.081C55.3075 155.684 69.0118 173.357 70.5681 175.225C72.5135 177.559 73.1619 180.542 71.4759 183.395C70.1271 185.678 65.121 186.076 62.7865 185.989H24.6567L28.4178 170.945C29.4121 170.815 31.8157 170.634 33.4758 170.945C35.5509 171.334 38.6635 173.279 39.9605 173.279C41.5168 173.279 43.8513 171.853 45.4076 171.853C46.8342 171.853 49.0822 172.544 50.2062 172.89Z" fill="url(#paint3_linear_1869_550)"/>
<path d="M62.2707 185.99L66.4209 174.058H72.9055C73.6405 174.966 75.5772 177.119 77.4448 178.468C79.7793 180.154 83.281 181.321 85.0967 182.618C86.5493 183.655 87.95 185.298 88.4687 185.99H62.2707Z" fill="#428DFC"/>
<path d="M41.6488 162.126C37.1874 160.155 35.0345 154.129 34.5157 151.362C45.6693 146.866 68.1841 137.796 69.0141 137.485C70.0516 137.096 75.1097 135.28 77.8332 137.485C80.5568 139.689 80.1677 146.304 80.1677 148.119C80.1677 149.572 79.2166 166.968 78.7411 175.485H61.1028C60.9731 174.188 60.7397 171.283 60.8434 170.038C60.9731 168.481 62.9185 166.536 63.1779 164.85C63.4373 163.164 62.6591 162.515 62.6591 160.181C62.6591 158.313 64.2154 156.117 64.9936 155.253C62.6159 156.679 57.5751 159.662 56.4338 160.181C55.0072 160.829 47.2256 164.59 41.6488 162.126Z" fill="url(#paint4_linear_1869_550)"/>
<path d="M87.0405 125.033C87.689 125.552 88.9859 129.054 88.4672 131.129C88.9427 130.999 90.0235 129.599 90.0235 129.184C90.0235 128.665 90.0235 127.498 89.7641 126.849C89.5047 126.201 88.8562 125.293 88.3375 124.904C87.8973 124.574 87.1702 124.644 87.0405 125.033Z" fill="url(#paint5_linear_1869_550)"/>
<path d="M73.8109 152.529L71.6061 154.215C69.5312 148.897 69.142 144.617 68.8826 140.856C71.6061 140.727 80.4253 137.225 81.7222 136.447C83.0191 135.669 85.4833 133.464 86.0021 132.945C86.5208 132.426 88.4662 130.222 88.5959 129.443C88.7256 128.665 88.3365 128.276 89.2444 126.59C90.1523 124.904 92.4867 123.348 92.7461 123.088C93.0055 122.829 93.3946 122.31 93.9134 121.532C94.3284 120.91 94.4321 120.322 94.4321 120.105C94.9509 120.365 95.9884 121.195 95.9884 122.44C95.9884 123.996 93.5243 125.553 93.1352 126.979C92.7461 128.406 93.7837 131.648 93.2649 132.556C92.7461 133.464 89.6335 135.02 88.985 135.669C88.3365 136.317 86.2615 139.17 82.1113 144.228C78.7911 148.275 75.1943 151.448 73.8109 152.529Z" fill="url(#paint6_linear_1869_550)"/>
<path d="M57.0806 122.44C58.4678 123.654 59.4151 129.443 59.8042 131.129C61.5102 138.522 59.5448 149.935 53.5789 152.01C48.3912 153.437 42.9441 153.955 40.4799 153.955C35.5516 153.955 29.8451 151.88 28.0294 149.676C28.4184 145.655 29.0669 141.245 31.142 138.522C33.2171 135.798 36.1341 134.438 38.0157 132.556C39.9611 130.611 41.2581 128.146 44.8895 125.553C48.6073 122.897 53.4558 121.624 54.0977 121.532C55.0055 121.402 56.0431 121.532 57.0806 122.44Z" fill="url(#paint7_linear_1869_550)"/>
<path d="M63.1768 138.911C64.9925 140.338 66.1597 140.986 68.8833 140.856C69.198 140.841 69.594 140.781 70.0505 140.686C71.8662 146.044 73.4426 151.348 75.1085 156.679C74.2007 157.414 71.7884 158.91 69.402 159.013C66.4191 159.143 61.4908 154.604 59.1563 153.566C56.8674 152.549 55.6546 153.437 53.5795 152.01C46.8359 147.211 44.761 139.689 45.4092 130.74C45.7994 125.353 53.5795 121.791 57.0812 123.996C58.641 124.978 59.4157 129.443 59.8047 131.129C60.1938 132.815 61.361 137.484 63.1768 138.911Z" fill="url(#paint8_linear_1869_550)"/>
<path d="M56.4337 113.881C55.6556 113.924 53.8918 113.803 53.0617 112.973C52.2317 112.143 52.2836 111.071 52.4133 110.639" stroke="#23286B" stroke-width="0.3"/>
<path d="M64.473 121.531C66.3406 121.531 68.1044 119.975 68.7529 119.197C68.7529 119.197 70.1796 119.456 70.3093 119.067C70.439 118.678 70.4567 116.862 70.3093 115.565C70.1534 114.194 69.947 113.348 69.6607 112.712C68.4936 110.118 66.8076 108.86 64.8621 108.173C62.6574 107.395 59.4113 108.108 57.8588 110.507C56.4322 112.712 58.118 117.381 59.1556 118.678C60.1931 119.975 62.1385 121.531 64.473 121.531Z" fill="#FFBEB6"/>
<path d="M66.9374 114.787C67.8453 115.393 70.1538 116.162 72.1252 114.398C73.5518 113.122 73.8112 110.81 73.4221 110.118" stroke="#23286B" stroke-width="0.3"/>
<path d="M56.1763 118.549C54.4125 116.889 55.6143 114.745 56.4357 113.88C53.7122 113.88 53.0637 111.805 53.0637 110.638C53.0637 109.471 54.7497 107.266 56.8248 107.007C58.4848 106.799 59.7645 107.439 60.1968 107.785C60.0239 107.179 60.0152 105.917 61.364 105.71C62.7128 105.502 63.8282 106.488 64.2173 107.007C64.2605 106.099 64.0876 104.542 64.9954 104.153C65.9033 103.764 67.0042 104.087 68.3675 105.45C69.405 106.488 69.3618 108.52 69.1456 109.471C69.7941 109.038 71.2985 108.355 72.1286 109.082C73.1661 109.989 73.0364 111.935 72.1286 113.491C71.2207 115.048 68.7565 115.566 66.9408 114.788C66.033 116.474 64.4767 116.474 63.8282 115.566C62.4016 118.679 58.3811 120.624 56.1763 118.549Z" fill="#23286B"/>
<path d="M66.2894 120.105C67.0676 119.846 68.1051 119.923 68.1051 120.753" stroke="#23286B" stroke-width="0.5"/>
</g>
<defs>
<linearGradient id="paint0_linear_1869_550" x1="60.6125" y1="119.846" x2="57.748" y2="122.459" gradientUnits="userSpaceOnUse">
<stop stop-color="#FBA19B"/>
<stop offset="0.349149" stop-color="#F9ADA7"/>
<stop offset="1" stop-color="#F9AFA9"/>
</linearGradient>
<linearGradient id="paint1_linear_1869_550" x1="65.3443" y1="146.534" x2="70.8524" y2="122.658" gradientUnits="userSpaceOnUse">
<stop stop-color="#171B4D"/>
<stop offset="0.683307" stop-color="#1D225F"/>
</linearGradient>
<linearGradient id="paint2_linear_1869_550" x1="78.0925" y1="143.709" x2="68.6249" y2="108.692" gradientUnits="userSpaceOnUse">
<stop offset="0.625896" stop-color="#FFBEB6"/>
<stop offset="0.768502" stop-color="#F5A7A1"/>
</linearGradient>
<linearGradient id="paint3_linear_1869_550" x1="48.5509" y1="162.644" x2="48.5509" y2="186" gradientUnits="userSpaceOnUse">
<stop offset="0.509448" stop-color="#87B2F4"/>
<stop offset="1" stop-color="#9BBFFA"/>
</linearGradient>
<linearGradient id="paint4_linear_1869_550" x1="57.3513" y1="136.412" x2="57.3513" y2="175.485" gradientUnits="userSpaceOnUse">
<stop offset="0.142369" stop-color="#7BABF0"/>
<stop offset="0.668615" stop-color="#A1C3FC"/>
</linearGradient>
<linearGradient id="paint5_linear_1869_550" x1="87.0405" y1="131.153" x2="92.0484" y2="127.454" gradientUnits="userSpaceOnUse">
<stop stop-color="#FFBEB6"/>
<stop offset="1" stop-color="#F5A7A1"/>
</linearGradient>
<linearGradient id="paint6_linear_1869_550" x1="68.8827" y1="154.344" x2="95.8931" y2="120.132" gradientUnits="userSpaceOnUse">
<stop offset="0.47747" stop-color="#FFBEB6"/>
<stop offset="0.890647" stop-color="#F5A7A1"/>
</linearGradient>
<linearGradient id="paint7_linear_1869_550" x1="49.0397" y1="154.085" x2="55.9995" y2="122.959" gradientUnits="userSpaceOnUse">
<stop stop-color="#171B4D"/>
<stop offset="0.683307" stop-color="#1D225F"/>
</linearGradient>
<linearGradient id="paint8_linear_1869_550" x1="75.109" y1="159.013" x2="47.1296" y2="121.826" gradientUnits="userSpaceOnUse">
<stop stop-color="#2A318C"/>
<stop offset="0.811178" stop-color="#1D225F"/>
</linearGradient>
<clipPath id="clip0_1869_550">
<rect width="250" height="200" fill="white"/>
</clipPath>
</defs>
</svg>
