<!--
  - Copyright (c) 2024. Devtron Inc.
  -
  - Licensed under the Apache License, Version 2.0 (the "License");
  - you may not use this file except in compliance with the License.
  - You may obtain a copy of the License at
  -
  -     http://www.apache.org/licenses/LICENSE-2.0
  -
  - Unless required by applicable law or agreed to in writing, software
  - distributed under the License is distributed on an "AS IS" BASIS,
  - WITHOUT WARRANTIES OR CONDITIONS OF ANY KIND, either express or implied.
  - See the License for the specific language governing permissions and
  - limitations under the License.
  -->

<svg xmlns="http://www.w3.org/2000/svg" xmlns:xlink="http://www.w3.org/1999/xlink" viewBox="0 0 24 24">
    <defs>
        <path id="a" d="M19.998 5.299C20.07 2.448 17.692.03 14.697 0 12.692-.02 10.938 1.007 10 2.543 9.061 1.007 7.308-.021 5.303 0 2.308.031-.069 2.448.002 5.3.16 11.67 8.16 17.212 9.733 18.24a.49.49 0 0 0 .534 0c1.572-1.028 9.573-6.57 9.731-12.941z"/>
    </defs>
    <g fill="none" fill-rule="evenodd">
        <path d="M0 0h24v24H0z"/>
        <g transform="translate(2 3.19)">
            <mask id="b" fill="#fff">
                <use xlink:href="#a"/>
            </mask>
            <use fill="#F32E2E" xlink:href="#a"/>
            <path fill="#FFF" fill-rule="nonzero" d="M10.089 14.533a.564.564 0 0 1-.561-.443L8.133 7.036 6.65 10.394a.57.57 0 0 1-.507.333.575.575 0 0 1-.53-.3l-.396-.75H-.338a.558.558 0 0 1-.571-.544c0-.3.256-.544.57-.544H5.57c.214 0 .41.115.508.297l1.74-3.938a.575.575 0 0 1 .587-.33.56.56 0 0 1 .5.44l1.15 5.817.476-2.721a.563.563 0 0 1 .563-.455h1.863c.193 0 .373.093.479.247l.875 1.279.377-.437a.583.583 0 0 1 .441-.199h5.513c.316 0 .571.244.571.544 0 .3-.255.544-.57.544h-5.244l-.7.811a.585.585 0 0 1-.473.198.577.577 0 0 1-.447-.246l-1.131-1.653h-1.07l-.925 5.292a.563.563 0 0 1-.557.454h-.006z" mask="url(#b)"/>
        </g>
    </g>
</svg>
