<!--
  - Copyright (c) 2024. Devtron Inc.
  -
  - Licensed under the Apache License, Version 2.0 (the "License");
  - you may not use this file except in compliance with the License.
  - You may obtain a copy of the License at
  -
  -     http://www.apache.org/licenses/LICENSE-2.0
  -
  - Unless required by applicable law or agreed to in writing, software
  - distributed under the License is distributed on an "AS IS" BASIS,
  - WITHOUT WARRANTIES OR CONDITIONS OF ANY KIND, either express or implied.
  - See the License for the specific language governing permissions and
  - limitations under the License.
  -->

<svg xmlns="http://www.w3.org/2000/svg" width="36" height="24" viewBox="0 0 36 24">
    <g fill="none" fill-rule="evenodd">
        <path d="M0 0h36v24H0z"/>
        <g transform="translate(4 2)">
            <rect width="28" height="14.545" y="2.727" stroke="#000" stroke-linecap="round" stroke-linejoin="round" rx="2"/>
            <path fill="#151515" fill-rule="nonzero" d="M9.265 10.177a.694.694 0 0 1 .213.242l.03.041.68 1.078h.13c.161 0 .283.037.365.113.082.075.123.187.123.338 0 .164-.041.282-.123.355-.082.072-.218.108-.407.108h-.514a.499.499 0 0 1-.442-.246l-.013-.008-1.023-1.575a.446.446 0 0 0-.134-.14.29.29 0 0 0-.158-.048h-.393v1.103h.067c.15 0 .264.038.34.115.077.076.115.188.115.336 0 .164-.04.282-.119.355-.08.072-.213.108-.403.108H6.522c-.187 0-.32-.036-.4-.108C6.04 12.27 6 12.153 6 11.989c0-.148.038-.26.115-.336.076-.077.188-.115.336-.115h.07V8.423h-.07c-.145 0-.256-.04-.334-.12C6.039 8.225 6 8.112 6 7.964c0-.161.041-.279.123-.352.082-.074.215-.111.399-.111h1.925c.59 0 1.037.115 1.34.344.304.23.455.57.455 1.017 0 .312-.084.582-.252.81-.169.229-.41.397-.725.506zM7.55 8.397V9.58h.564c.348 0 .591-.045.73-.135.14-.09.21-.242.21-.453 0-.21-.064-.36-.19-.453-.127-.094-.331-.14-.612-.14h-.702zm8.336 3.14h.071c.15 0 .265.04.343.116.078.076.117.188.117.336 0 .164-.041.282-.124.355-.082.072-.217.108-.407.108h-1.257c-.192 0-.328-.035-.409-.106-.08-.071-.12-.19-.12-.357 0-.162.04-.277.12-.347.08-.07.217-.104.41-.104h.146l-.172-.489H12.8l-.18.489h.146c.19 0 .325.035.407.106.082.071.123.186.123.345 0 .164-.04.282-.123.355-.082.072-.218.108-.407.108H11.69c-.192 0-.329-.036-.41-.108-.08-.073-.12-.191-.12-.355 0-.148.038-.26.116-.336.078-.077.193-.115.343-.115h.07l1.12-3.115h-.334c-.19 0-.325-.036-.407-.109-.082-.072-.123-.19-.123-.35 0-.165.04-.283.123-.355.082-.073.218-.109.407-.109h1.566c.247 0 .421.134.522.4v.013l1.323 3.625zm-2.188-3.114l-.605 1.762h1.21l-.605-1.762zm5.652 1.891l.797-2.367c.05-.156.12-.27.209-.34a.553.553 0 0 1 .355-.107h.651c.19 0 .325.036.407.109.082.072.123.19.123.354 0 .15-.04.265-.119.343-.079.078-.194.117-.344.117h-.067l.117 3.115h.071c.15 0 .263.038.338.115.075.076.113.188.113.336 0 .164-.04.282-.119.355-.08.072-.214.108-.403.108h-.94c-.189 0-.323-.035-.402-.106-.08-.071-.12-.19-.12-.357 0-.148.039-.26.115-.336.077-.077.19-.115.34-.115h.068L20.48 8.99l-.61 1.895a.597.597 0 0 1-.19.307.55.55 0 0 1-.34.094.568.568 0 0 1-.344-.094.584.584 0 0 1-.194-.307l-.606-1.895-.058 2.547h.066c.15 0 .264.038.34.115.077.076.116.188.116.336 0 .164-.04.282-.122.355-.08.072-.214.108-.4.108h-.944c-.187 0-.32-.036-.401-.108-.08-.073-.121-.191-.121-.355 0-.148.038-.26.115-.336.076-.077.19-.115.34-.115h.067l.121-3.115h-.067c-.15 0-.265-.04-.344-.117-.08-.078-.12-.192-.12-.343 0-.164.042-.282.124-.354.082-.073.218-.109.407-.109h.651c.145 0 .261.035.349.104.088.07.16.184.215.343l.819 2.367z"/>
            <path stroke="#000" stroke-linecap="round" stroke-linejoin="round" d="M4 0v2.727M9.034 0v2.727M14.023 0v2.727M19.011 0v2.727M24 0v2.727M4 17.273V20M9.023 17.273V20M24 17.273V20M18.977 17.273V20M14 17.273V20"/>
        </g>
    </g>
</svg>
