<!--
  - Copyright (c) 2024. Devtron Inc.
  -
  - Licensed under the Apache License, Version 2.0 (the "License");
  - you may not use this file except in compliance with the License.
  - You may obtain a copy of the License at
  -
  -     http://www.apache.org/licenses/LICENSE-2.0
  -
  - Unless required by applicable law or agreed to in writing, software
  - distributed under the License is distributed on an "AS IS" BASIS,
  - WITHOUT WARRANTIES OR CONDITIONS OF ANY KIND, either express or implied.
  - See the License for the specific language governing permissions and
  - limitations under the License.
  -->

<svg xmlns="http://www.w3.org/2000/svg" viewBox="0 0 28 28" width="24" height="24">
    <g fill="none" fill-rule="evenodd" transform="translate(2 2)">
        <rect width="20" height="20" fill="#B1B7BC" rx="10"/>
        <path fill="#FFF" fill-rule="nonzero" d="M6.464 6.464a1 1 0 0 1 1.415 0l2.12 2.12 2.122-2.12a1 1 0 0 1 1.32-.083l.095.083a1 1 0 0 1 0 1.415l-2.122 2.12 2.122 2.122a1 1 0 0 1 .083 1.32l-.083.095a1 1 0 0 1-1.415 0L10 11.414l-2.121 2.122a1 1 0 0 1-1.32.083l-.095-.083a1 1 0 0 1 0-1.415L8.584 10l-2.12-2.121a1 1 0 0 1-.083-1.32z"/>
    </g>
</svg>
