<svg xmlns="http://www.w3.org/2000/svg" width="20" height="20" viewBox="0 0 20 20" fill="none">
  <path d="M13.125 9.375V5.3125C13.125 4.8981 13.2896 4.50067 13.5826 4.20765C13.8757 3.91462 14.2731 3.75 14.6875 3.75C15.1019 3.75 15.4993 3.91462 15.7923 4.20765C16.0854 4.50067 16.25 4.8981 16.25 5.3125V11.875C16.25 12.6958 16.0883 13.5085 15.7742 14.2668C15.4602 15.0251 14.9998 15.7141 14.4194 16.2944C13.839 16.8748 13.1501 17.3352 12.3918 17.6492C11.6335 17.9633 10.8208 18.125 10 18.125C6.54822 18.125 5 16.25 2.45558 10.8818C2.35278 10.704 2.28601 10.5078 2.25909 10.3043C2.23216 10.1008 2.24561 9.89393 2.29866 9.6956C2.35171 9.49728 2.44333 9.31135 2.56828 9.14845C2.69322 8.98555 2.84904 8.84886 3.02684 8.74621C3.20464 8.64356 3.40092 8.57696 3.60447 8.5502C3.80802 8.52345 4.01484 8.53707 4.21313 8.59029C4.41141 8.64351 4.59726 8.73528 4.76006 8.86036C4.92285 8.98544 5.05941 9.14138 5.16191 9.31926L6.875 12.2864V4.0625C6.875 3.6481 7.03962 3.25067 7.33264 2.95765C7.62567 2.66462 8.0231 2.5 8.4375 2.5C8.8519 2.5 9.24932 2.66462 9.54235 2.95765C9.83538 3.25067 10 3.6481 10 4.0625V9.375" fill="#F33E3E" fill-opacity="0.12"/>
  <path d="M13.125 9.375V2.8125C13.125 2.3981 12.9604 2.00067 12.6674 1.70765C12.3743 1.41462 11.9769 1.25 11.5625 1.25C11.1481 1.25 10.7507 1.41462 10.4576 1.70765C10.1646 2.00067 10 2.3981 10 2.8125V9.375" fill="#F33E3E" fill-opacity="0.12"/>
  <path d="M13.125 9.375V5.3125C13.125 4.8981 13.2896 4.50067 13.5826 4.20765C13.8757 3.91462 14.2731 3.75 14.6875 3.75C15.1019 3.75 15.4993 3.91462 15.7924 4.20765C16.0854 4.50067 16.25 4.8981 16.25 5.3125V11.875C16.25 12.6958 16.0883 13.5085 15.7742 14.2668C15.4602 15.0251 14.9998 15.7141 14.4194 16.2944C13.839 16.8748 13.1501 17.3352 12.3918 17.6492C11.6335 17.9633 10.8208 18.125 10 18.125C6.54822 18.125 5 16.25 2.45558 10.8818C2.35278 10.704 2.28601 10.5078 2.25909 10.3043C2.23216 10.1008 2.24561 9.89393 2.29866 9.6956C2.35171 9.49728 2.44333 9.31135 2.56828 9.14845C2.69322 8.98555 2.84904 8.84886 3.02684 8.74621C3.20464 8.64356 3.40092 8.57696 3.60447 8.5502C3.80802 8.52345 4.01484 8.53707 4.21313 8.59029C4.41141 8.64351 4.59726 8.73528 4.76006 8.86036C4.92285 8.98544 5.05941 9.14138 5.16191 9.31926L6.875 12.2864V4.0625C6.875 3.6481 7.03962 3.25067 7.33264 2.95765C7.62567 2.66462 8.0231 2.5 8.4375 2.5C8.8519 2.5 9.24932 2.66462 9.54235 2.95765C9.83538 3.25067 10 3.6481 10 4.0625V9.375V2.8125C10 2.3981 10.1646 2.00067 10.4576 1.70765C10.7507 1.41462 11.1481 1.25 11.5625 1.25C11.9769 1.25 12.3743 1.41462 12.6674 1.70765C12.9604 2.00067 13.125 2.3981 13.125 2.8125V9.375Z" stroke="#F33E3E" stroke-width="1.5" stroke-linecap="round" stroke-linejoin="round"/>
</svg>