<!--
  - Copyright (c) 2024. Devtron Inc.
  -
  - Licensed under the Apache License, Version 2.0 (the "License");
  - you may not use this file except in compliance with the License.
  - You may obtain a copy of the License at
  -
  -     http://www.apache.org/licenses/LICENSE-2.0
  -
  - Unless required by applicable law or agreed to in writing, software
  - distributed under the License is distributed on an "AS IS" BASIS,
  - WITHOUT WARRANTIES OR CONDITIONS OF ANY KIND, either express or implied.
  - See the License for the specific language governing permissions and
  - limitations under the License.
  -->

<svg xmlns="http://www.w3.org/2000/svg" viewBox="0 0 16 16">
    <path fill="#3B444C" fill-rule="evenodd" d="M8 5.333c1.243 0 2.287.85 2.583 2H14c.368 0 .667.299.667.667 0 .368-.299.667-.667.667h-3.417c-.296 1.15-1.34 2-2.583 2s-2.287-.85-2.583-2H2c-.368 0-.667-.299-.667-.667 0-.368.299-.667.667-.667h3.417c.296-1.15 1.34-2 2.583-2zm0 1.334c-.736 0-1.333.597-1.333 1.333S7.264 9.333 8 9.333 9.333 8.736 9.333 8 8.736 6.667 8 6.667z"/>
</svg>