<svg xmlns="http://www.w3.org/2000/svg" width="20" height="20" viewBox="0 0 20 20" fill="none">
  <path fill-rule="evenodd" clip-rule="evenodd" d="M10 18.3333C5.40002 18.3333 1.66669 14.6 1.66669 10C1.66669 5.4 5.40002 1.66667 10 1.66667C14.6 1.66667 18.3334 5.4 18.3334 10C18.3334 14.6 14.6 18.3333 10 18.3333Z" fill="#F33E3E"/>
  <path fill-rule="evenodd" clip-rule="evenodd" d="M10 12.5C10.4603 12.5 10.8334 12.8731 10.8334 13.3333C10.8334 13.7936 10.4603 14.1667 10 14.1667C9.53978 14.1667 9.16669 13.7936 9.16669 13.3333C9.16669 12.8731 9.53978 12.5 10 12.5ZM10 5.83333C10.4603 5.83333 10.8334 6.20643 10.8334 6.66667V10C10.8334 10.4602 10.4603 10.8333 10 10.8333C9.53978 10.8333 9.16669 10.4602 9.16669 10V6.66667C9.16669 6.20643 9.53978 5.83333 10 5.83333Z" fill="white"/>
</svg>
