<!--
  - Copyright (c) 2024. Devtron Inc.
  -->

<svg xmlns="http://www.w3.org/2000/svg" width="14" height="14" viewBox="0 0 14 14" fill="none">
    <g clip-path="url(#clip0_2382_27793)">
        <path fill-rule="evenodd" clip-rule="evenodd" d="M7.00016 1.75016C4.10067 1.75016 1.75016 4.10067 1.75016 7.00016C1.75016 9.89966 4.10067 12.2502 7.00016 12.2502C9.89966 12.2502 12.2502 9.89966 12.2502 7.00016C12.2502 4.10067 9.89966 1.75016 7.00016 1.75016ZM0.583496 7.00016C0.583496 3.45634 3.45634 0.583496 7.00016 0.583496C10.544 0.583496 13.4168 3.45634 13.4168 7.00016C13.4168 10.544 10.544 13.4168 7.00016 13.4168C3.45634 13.4168 0.583496 10.544 0.583496 7.00016Z" fill="#FFB549"/>
        <path d="M4.94656 9.83432C5.39385 10.1584 5.91148 10.372 6.45713 10.4576C7.00278 10.5433 7.56096 10.4986 8.08603 10.3272C8.61111 10.1559 9.08816 9.86263 9.4782 9.47154C9.86823 9.08046 10.1602 8.60262 10.3301 8.07708C10.5001 7.55155 10.5433 6.99325 10.4562 6.44783C10.369 5.90241 10.154 5.38536 9.82879 4.93895C9.50354 4.49253 9.07724 4.12944 8.58477 3.87934C8.0923 3.62925 7.54763 3.49926 6.99529 3.5L7 7L4.94656 9.83432Z" fill="#8C6324"/>
    </g>
</svg>
