<svg xmlns="http://www.w3.org/2000/svg" width="20" height="20" viewBox="0 0 20 20" fill="none">
  <path fill-rule="evenodd" clip-rule="evenodd" d="M5.83337 6.24999C5.83337 3.71868 7.8854 1.66666 10.4167 1.66666C12.948 1.66666 15 3.71868 15 6.24999V12.5H13.3334V6.24999C13.3334 4.63916 12.0275 3.33332 10.4167 3.33332C8.80588 3.33332 7.50004 4.63916 7.50004 6.24999V8.33332H5.83337V6.24999Z" fill="#D0D4D9"/>
  <rect x="4.16669" y="8.33331" width="12.5" height="10" fill="#FFB549"/>
  <path d="M11.0848 14.1816C11.4345 13.96 11.6667 13.5696 11.6667 13.125C11.6667 12.4346 11.107 11.875 10.4167 11.875C9.72633 11.875 9.16669 12.4346 9.16669 13.125C9.16669 13.5696 9.39883 13.96 9.74852 14.1816L9.58335 15.8333H11.25L11.0848 14.1816Z" fill="#3B444C"/>
</svg>
