<!--
  - Copyright (c) 2024. Devtron Inc.
  -
  - Licensed under the Apache License, Version 2.0 (the "License");
  - you may not use this file except in compliance with the License.
  - You may obtain a copy of the License at
  -
  -     http://www.apache.org/licenses/LICENSE-2.0
  -
  - Unless required by applicable law or agreed to in writing, software
  - distributed under the License is distributed on an "AS IS" BASIS,
  - WITHOUT WARRANTIES OR CONDITIONS OF ANY KIND, either express or implied.
  - See the License for the specific language governing permissions and
  - limitations under the License.
  -->

<svg xmlns="http://www.w3.org/2000/svg" width="20" height="20" viewBox="0 0 20 20" fill="none">
  <path d="M16.25 8.125H18.125M16.25 11.875H18.125M1.875 8.125H3.75M1.875 11.875H3.75M11.875 16.25V18.125M8.125 16.25V18.125M11.875 1.875V3.75M8.125 1.875V3.75M7.8125 7.8125H12.1875V12.1875H7.8125V7.8125ZM4.375 3.75H15.625C15.9702 3.75 16.25 4.02982 16.25 4.375V15.625C16.25 15.9702 15.9702 16.25 15.625 16.25H4.375C4.02982 16.25 3.75 15.9702 3.75 15.625V4.375C3.75 4.02982 4.02982 3.75 4.375 3.75Z" stroke="#596168" stroke-width="1.5" stroke-linecap="round" stroke-linejoin="round"/>
</svg>