<!--
  - Copyright (c) 2024. Devtron Inc.
  -
  - Licensed under the Apache License, Version 2.0 (the "License");
  - you may not use this file except in compliance with the License.
  - You may obtain a copy of the License at
  -
  -     http://www.apache.org/licenses/LICENSE-2.0
  -
  - Unless required by applicable law or agreed to in writing, software
  - distributed under the License is distributed on an "AS IS" BASIS,
  - WITHOUT WARRANTIES OR CONDITIONS OF ANY KIND, either express or implied.
  - See the License for the specific language governing permissions and
  - limitations under the License.
  -->

<svg xmlns="http://www.w3.org/2000/svg" 
    xmlns:xlink="http://www.w3.org/1999/xlink" width="250" height="200" viewBox="0 0 250 200">
    <defs>
        <linearGradient id="prefix__c" x1="55.01%" x2="40.976%" y1="0%" y2="100%">
            <stop offset="0%" stop-color="#2A318C"/>
            <stop offset="100%" stop-color="#1D225F"/>
        </linearGradient>
        <linearGradient id="prefix__d" x1="50%" x2="50%" y1="0%" y2="100%">
            <stop offset="0%" stop-color="#EEE"/>
            <stop offset="100%" stop-color="#D6D7D8"/>
        </linearGradient>
        <path id="prefix__a" d="M0 0H250V200H0z"/>
    </defs>
    <g fill="none" fill-rule="evenodd">
        <mask id="prefix__b" fill="#fff">
            <use xlink:href="#prefix__a"/>
        </mask>
        <g fill="#FFF" mask="url(#prefix__b)">
            <g>
                <path fill-rule="nonzero" d="M33.56 183.308c0-.116 1.153-3.288 2.538-7.095l2.538-6.922 6.46-.173 6.403-.173 2.768 2.307c2.308 1.962 12.796 7.547 14.132 8.307.891.506 2.067 1.794 3.526 3.864-25.577-.038-38.365-.077-38.365-.115z" transform="translate(29 8)"/>
                <path fill-rule="nonzero" d="M0 183.308c0-.116 1.154-3.288 2.538-7.095l2.538-6.922 6.46-.173 6.403-.173 2.769 2.307c2.307 1.962 12.795 7.547 14.132 8.307.89.506 2.066 1.794 3.525 3.864C12.788 183.385 0 183.346 0 183.308zM43.655 101.836c1.09 3.158 1.826 5.898 2.208 8.22.38 2.321 2.518 22.155 6.411 59.5H34.296c-1.444-2.618-2.166-4.457-2.166-5.518 0-1.59.913-3.77.913-6.068 0-1.532-2.034-6.823-6.104-15.871l3.931-39.349 12.785-.914z" transform="translate(29 8)"/>
                <path d="M18.554 169.555H1.76c-.4-1.385-.792-3.254-1.175-5.606-.75-4.788-.18-7.96 3.05-14.536 3.23-6.518 4.866-10.072 4.866-13.764.058-5.768 1.222-11.316 4.28-17.315 2.364-4.73 3.495-5.086 3.725-7.97l.42-6.202h21.078c.512 1.433.696 4.075.55 7.925-.145 3.85-6.812 23.006-20.001 57.468z" transform="translate(29 8)"/>
                <path fill-rule="nonzero" d="M63.94 42.818L80.78 21.987 100.971 21.987 83.532 42.818z" transform="translate(29 8)"/>
                <path fill-rule="nonzero" d="M86.14 19.384c1.378 0 2.506 1.07 2.597 2.425l.006.178h-.578c0-1.118-.907-2.025-2.025-2.025-1.119 0-2.026.907-2.026 2.025 0 1.063.819 1.934 1.86 2.019l.166.007v.578c-1.439 0-2.604-1.166-2.604-2.604 0-1.438 1.165-2.603 2.604-2.603zM93.083 19.384c1.378 0 2.506 1.07 2.598 2.425l.006.178h-.579c0-1.118-.907-2.025-2.025-2.025-1.119 0-2.025.907-2.025 2.025 0 1.063.818 1.934 1.859 2.019l.166.007v.578c-1.438 0-2.604-1.166-2.604-2.604 0-1.438 1.166-2.603 2.604-2.603zM62.472 46.829c2.807-.962 5.554-2.299 8.242-4.011h6.871c-2.375 2.17-3.972 3.706-4.791 4.61-.82.903-2.509 2.638-5.068 5.205-1.091 5.781-2.254 8.21-3.487 7.285-1.85-1.386-7.939-10.897-1.767-13.09z" transform="translate(29 8)"/>
                <path fill-rule="nonzero" d="M66.254 52.654c4.363-1.668 7.179-2.857 8.447-3.567 1.5-.865 2.077-1.673 3.807-5.307.23-.461.692-2.365 1.096-4.153.923-4.557 2.423-4.326 2.538.346.058 1.27.346 2.423.692 2.538.288.116 1.961-1.5 3.634-3.576 1.673-2.077 3.288-3.75 3.576-3.75.692 0 .692 5.307-.057 7.153-.289.865-4.73 5.71-9.864 10.844-3.422 3.423-8.431 8.068-15.026 13.937l1.157-14.465zM46.581 27.774c.772-3.086 1.543-5.015 2.315-5.787-1.157-1.157-2.315-2.314-4.63-3.471-.77 1.543-2.314 3.086-4.628 4.629 0 2.314.771 3.857 2.314 4.629 1.543.771 3.086.771 4.63 0z" transform="translate(29 8)"/>
                <path fill-rule="nonzero" d="M17.308 104.98c-2.365-.173-6.23-.98-8.48-1.73l-4.21-1.385-.115-4.326C4.214 85.6 5.08 76.89 7.79 65.757 11.482 50.47 22.096 34.84 34.959 25.668c4.96-3.576 5.075-3.576 6.518-1.153.634 1.153 1.96 2.307 2.884 2.653l2.16.594c-3.045 29.324-1.868 53.63 3.532 72.917-1.157 1.157-1.946 1.682-2.808 2.052-1.039.403-2.365.807-3.057.865-.693.057-3 .519-5.25 1.038-4.21.923-13.382 1.096-21.63.346z" transform="translate(29 8)"/>
                <path d="M62.472 46.829l1.767 11.31-19.972 2.646 1.106-15.653c2.141 1.735 4.344 2.776 6.608 3.123 2.263.348 5.76-.128 10.49-1.426z" transform="translate(29 8)"/>
                <path fill-rule="nonzero" d="M66.254 52.654L71.157 75.8c-.568 1.157-2.01 1.928-4.324 2.314-5.208.579-10.415-1.736-16.78-1.736-6.365 0-6.09 4.05-15.349.579-6.171-2.314-8.679-12.73-7.522-31.245l18.054-1.73c-.078 5.782.655 9.252 2.198 10.409 1.512 1.134 7.569.6 18.17-1.6l.65-.136zM58.305 7.444c1.07 1.52 1.487 3.536 1.252 6.049-.06.656-.375.883-.375 2.052 0 1.12.07 2.506.212 4.157l-2.317.161c-2.223 2.412-4.574 3.48-7.055 3.207-2.481-.275-4.251-1.343-5.311-3.207-2.18-4.023-1.62-7.444 1.676-10.262 3.296-2.818 7.269-3.537 11.918-2.157z" transform="translate(29 8)"/>
                <path d="M47.646 0c2.598 0 5.717 1.017 7.994 2.74 2.276 1.722 3.845 3.02 4.55 5.097.47 1.384.248 3.314-.665 5.791.13-2.345-.047-3.647-.532-3.906-.67 1.653-1.595 1.987-2.703 2.787-.62.448-2.791.518-4.917.897-2.629 1.722-4.303 3.33-4.867 4.86-.448 1.218-.402 2.608.148 4.177l.126.339-.54.21c-.714-1.833-.81-3.478-.277-4.925.522-1.417 1.85-2.838 3.893-4.321-1.088.307-2.05.754-2.633 1.449-1.28 1.526-2.028 3.765-2.246 6.716-2.766-.5-5.305-1.433-7.617-2.8-2.312-1.366-4.445-3.194-6.399-5.483.397-.834.904-1.524 1.522-2.07.671-.592 1.935-1.108 3.169-1.822l-.065.021-1.204.401c-1.26.424-1.956.713-2.396 1.032-.829.601-1.259 1.275-1.312 2.032l-.005.191-.579.007c-.012-1.039.516-1.943 1.557-2.699.427-.31 1.013-.573 1.983-.916l1.755-.59.612-.213c.593-.213 1.063-.401 1.438-.584 1.296-1.399 2.17-3.971 4.089-5.678C43.642.855 45.048 0 47.646 0z" transform="translate(29 8)"/>
                <path fill-rule="nonzero" d="M52.36 13.575c.597-1.64 2.169-2.597 3.535-2.1 1.061.386 1.653 1.524 1.586 2.781.36-.091.688-.137.988-.136l.208.007c.254.02.466.056.636.114.511-1.271 1.708-2.023 2.75-1.644 1.07.39 1.498 1.803 1.012 3.14-.487 1.337-1.723 2.144-2.794 1.754-.953-.347-1.397-1.504-1.14-2.697-.103-.038-.274-.072-.508-.09-.334-.025-.737.029-1.209.165l-.03.01c-.036.159-.083.318-.14.477-.597 1.64-2.17 2.597-3.536 2.1-1.366-.497-1.955-2.241-1.358-3.881zm9.504-.434c-.73-.266-1.664.343-2.052 1.408-.387 1.066-.064 2.132.667 2.398.73.266 1.664-.343 2.052-1.408.388-1.065.064-2.132-.667-2.398zm-6.167-1.122c-1.036-.377-2.297.39-2.793 1.754-.496 1.363-.024 2.762 1.012 3.14 1.036.376 2.298-.392 2.794-1.755s.023-2.762-1.013-3.14z" transform="translate(29 8)"/>
            </g>
        </g>
        <g mask="url(#prefix__b)">
            <g>
                <path fill="#80AEF2" fill-rule="nonzero" d="M33.56 183.308c0-.116 1.153-3.288 2.538-7.095l2.538-6.922 6.46-.173 6.403-.173 2.768 2.307c2.308 1.962 12.796 7.547 14.132 8.307.891.506 2.067 1.794 3.526 3.864-25.577-.038-38.365-.077-38.365-.115z" transform="translate(32 8)"/>
                <path fill="#94BBF8" fill-rule="nonzero" d="M0 183.308c0-.116 1.154-3.288 2.538-7.095l2.538-6.922 6.46-.173 6.403-.173 2.769 2.307c2.307 1.962 12.795 7.547 14.132 8.307.89.506 2.066 1.794 3.525 3.864C12.788 183.385 0 183.346 0 183.308z" transform="translate(32 8)"/>
                <path fill="#1D225F" fill-rule="nonzero" d="M43.655 101.836c1.09 3.158 1.826 5.898 2.208 8.22.38 2.321 2.518 22.155 6.411 59.5H34.296c-1.444-2.618-2.166-4.457-2.166-5.518 0-1.59.913-3.77.913-6.068 0-1.532-2.034-6.823-6.104-15.871l3.931-39.349 12.785-.914z" transform="translate(32 8)"/>
                <path fill="url(#prefix__c)" d="M18.554 169.555H1.76c-.4-1.385-.792-3.254-1.175-5.606-.75-4.788-.18-7.96 3.05-14.536 3.23-6.518 4.866-10.072 4.866-13.764.058-5.768 1.222-11.316 4.28-17.315 2.364-4.73 3.495-5.086 3.725-7.97l.42-6.202h21.078c.512 1.433.696 4.075.55 7.925-.145 3.85-6.812 23.006-20.001 57.468z" transform="translate(32 8)"/>
                <g fill-rule="nonzero">
                    <path fill="#98BDF9" d="M0 24.302L16.84 3.472 37.031 3.472 19.592 24.302z" transform="translate(32 8) translate(63.94 18.516)"/>
                    <path fill="#2174DB" d="M22.2.868c1.378 0 2.506 1.07 2.597 2.425l.006.179h-.578c0-1.119-.907-2.025-2.025-2.025-1.119 0-2.025.906-2.025 2.025 0 1.062.818 1.934 1.859 2.018l.166.007v.578c-1.438 0-2.604-1.165-2.604-2.603 0-1.438 1.166-2.604 2.604-2.604zM29.143.868c1.378 0 2.506 1.07 2.598 2.425l.006.179h-.579c0-1.119-.906-2.025-2.025-2.025-1.118 0-2.025.906-2.025 2.025 0 1.062.818 1.934 1.859 2.018l.166.007v.578c-1.438 0-2.604-1.165-2.604-2.603 0-1.438 1.166-2.604 2.604-2.604z" transform="translate(32 8) translate(63.94 18.516)"/>
                </g>
                <path fill="#F3A29D" fill-rule="nonzero" d="M62.472 46.829c2.807-.962 5.554-2.299 8.242-4.011h6.871c-2.375 2.17-3.972 3.706-4.791 4.61-.82.903-2.509 2.638-5.068 5.205-1.091 5.781-2.254 8.21-3.487 7.285-1.85-1.386-7.939-10.897-1.767-13.09z" transform="translate(32 8)"/>
                <path fill="#FAB6AF" fill-rule="nonzero" d="M66.254 52.654c4.363-1.668 7.179-2.857 8.447-3.567 1.5-.865 2.077-1.673 3.807-5.307.23-.461.692-2.365 1.096-4.153.923-4.557 2.423-4.326 2.538.346.058 1.27.346 2.423.692 2.538.288.116 1.961-1.5 3.634-3.576 1.673-2.077 3.288-3.75 3.576-3.75.692 0 .692 5.307-.057 7.153-.289.865-4.73 5.71-9.864 10.844-3.422 3.423-8.431 8.068-15.026 13.937l1.157-14.465z" transform="translate(32 8)"/>
                <path fill="#F3A29D" fill-rule="nonzero" d="M46.581 27.774c.772-3.086 1.543-5.015 2.315-5.787-1.157-1.157-2.315-2.314-4.63-3.471-.77 1.543-2.314 3.086-4.628 4.629 0 2.314.771 3.857 2.314 4.629 1.543.771 3.086.771 4.63 0z" transform="translate(32 8)"/>
                <g>
                    <path fill="url(#prefix__d)" fill-rule="nonzero" d="M12.858 82.16c-2.365-.174-6.23-.981-8.48-1.731l-4.21-1.385-.115-4.326c-.289-11.94.577-20.65 3.288-31.782C7.032 27.65 17.646 12.019 30.509 2.847c4.96-3.576 5.076-3.576 6.518-1.153.634 1.153 1.96 2.307 2.884 2.653l2.161.594c-3.046 29.324-1.87 53.63 3.531 72.917-1.157 1.158-1.946 1.682-2.808 2.052-1.039.403-2.365.807-3.057.865-.693.058-3 .519-5.25 1.038-4.21.923-13.382 1.096-21.63.346z" transform="translate(32 8) translate(4.45 22.82)"/>
                    <path fill="#D6D7D8" d="M58.022 24.008l1.767 11.311-19.972 2.645 1.106-15.653c2.141 1.735 4.344 2.776 6.608 3.123 2.263.348 5.76-.128 10.49-1.426z" transform="translate(32 8) translate(4.45 22.82)"/>
                    <path fill="#E9E9E9" fill-rule="nonzero" d="M61.804 29.833l4.903 23.145c-.568 1.157-2.01 1.929-4.324 2.314-5.208.579-10.415-1.736-16.78-1.736-6.365 0-6.09 4.05-15.348.58-6.172-2.315-8.68-12.73-7.523-31.246l18.054-1.73c-.078 5.782.655 9.252 2.198 10.409 1.512 1.134 7.569.601 18.17-1.6l.65-.136z" transform="translate(32 8) translate(4.45 22.82)"/>
                </g>
                <g>
                    <path fill="#FAB6AF" fill-rule="nonzero" d="M29.082 7.444c1.07 1.52 1.488 3.536 1.253 6.049-.062.656-.376.883-.376 2.052 0 1.12.07 2.506.212 4.157l-2.317.161c-2.222 2.412-4.574 3.48-7.055 3.207-2.48-.275-4.251-1.343-5.31-3.207-2.18-4.023-1.621-7.444 1.675-10.262 3.296-2.818 7.269-3.537 11.918-2.157z" transform="translate(32 8) translate(29.223)"/>
                    <path fill="#E94A47" d="M18.423 0c2.598 0 5.717 1.017 7.994 2.74 2.277 1.722 3.845 3.02 4.55 5.097.47 1.384.248 3.314-.664 5.791.13-2.345-.048-3.647-.533-3.906-.67 1.653-1.595 1.987-2.703 2.787-.62.448-2.791.518-4.917.897-2.628 1.722-4.303 3.33-4.867 4.86-.448 1.218-.402 2.608.148 4.177l.126.339-.54.21c-.714-1.833-.81-3.478-.277-4.925.522-1.417 1.85-2.838 3.894-4.321-1.09.307-2.051.754-2.634 1.449-1.279 1.526-2.028 3.765-2.246 6.716-2.766-.5-5.305-1.433-7.617-2.8-2.312-1.366-4.445-3.194-6.398-5.483.396-.834.904-1.524 1.521-2.07.671-.592 1.935-1.108 3.169-1.822l-.065.021-1.204.401c-1.26.424-1.956.713-2.395 1.032-.83.601-1.26 1.275-1.313 2.032l-.005.191-.579.007c-.012-1.039.516-1.943 1.557-2.699.427-.31 1.013-.573 1.983-.916l1.756-.59.61-.213c.594-.213 1.064-.401 1.439-.584 1.296-1.399 2.17-3.971 4.09-5.678C14.418.855 15.825 0 18.422 0z" transform="translate(32 8) translate(29.223)"/>
                    <path fill="#222768" fill-rule="nonzero" d="M23.137 13.575c.597-1.64 2.17-2.597 3.535-2.1 1.061.386 1.654 1.524 1.586 2.781.36-.091.689-.137.988-.136l.208.007c.255.02.466.056.636.114.512-1.271 1.708-2.023 2.75-1.644 1.07.39 1.498 1.803 1.012 3.14-.487 1.337-1.723 2.144-2.794 1.754-.953-.347-1.397-1.504-1.14-2.697-.103-.038-.274-.072-.508-.09-.334-.025-.737.029-1.208.165l-.031.01c-.036.159-.083.318-.14.477-.597 1.64-2.17 2.597-3.536 2.1-1.366-.497-1.955-2.241-1.358-3.881zm9.504-.434c-.73-.266-1.664.343-2.052 1.408-.387 1.066-.064 2.132.667 2.398.731.266 1.664-.343 2.052-1.408.388-1.065.064-2.132-.667-2.398zm-6.167-1.122c-1.036-.377-2.297.39-2.793 1.754-.496 1.363-.024 2.762 1.012 3.14 1.036.376 2.298-.392 2.794-1.755s.023-2.762-1.013-3.14z" transform="translate(32 8) translate(29.223)"/>
                </g>
            </g>
        </g>

        <path fill="#222768" fill-rule="nonzero" d="M153.265 114.963c-.449-.4-.897-2.243-1.097-4.187-.399-3.938-.698-4.486-3.589-6.031l-2.093-1.147-3.788 1.545c-2.094.848-4.087 1.446-4.436 1.296-.947-.349-6.78-10.716-6.78-12.012 0-.698 1.048-1.894 3.24-3.589l3.24-2.542V82.813l-3.24-2.542c-2.043-1.595-3.24-2.89-3.24-3.539 0-1.047 5.085-10.417 6.331-11.663.598-.549 1.196-.499 4.037.598 4.736 1.844 5.085 1.894 7.627.249 2.243-1.446 2.292-1.545 2.641-4.636.648-5.931-.15-5.383 8.075-5.383 8.324 0 7.776-.349 8.424 5.533l.349 3.24 2.592 1.395 2.592 1.396 3.19-1.296c4.037-1.645 5.183-1.645 6.38.1 2.093 3.04 5.582 9.57 5.582 10.467 0 .648-1.196 1.894-3.24 3.39l-3.19 2.442v2.99l-.05 2.991 3.24 2.443c2.044 1.545 3.24 2.79 3.24 3.389 0 1.047-5.582 10.916-6.679 11.813-.548.449-1.645.2-4.586-.997l-3.937-1.545-2.542 1.396-2.542 1.395-.599 3.988c-.348 2.691-.847 4.237-1.395 4.685-1.296.947-12.81.848-13.757-.15zm11.414-19.639c6.58-2.99 8.374-11.265 3.639-16.698-6.28-7.128-17.844-3.29-18.792 6.23-.398 4.287 2.991 9.371 7.377 11.066 1.595.598 5.832.3 7.776-.598z" mask="url(#prefix__b)">
            <animateTransform attributeName="transform" attributeType="XML" dur="2s" from="0 160 86" repeatCount="indefinite" to="360 160 86" type="rotate" />

        </path>
        <path fill="#E94A47" fill-rule="nonzero" d="M175.745 146.115c-1.845-1.146-3.49-2.243-3.64-2.442-.149-.25.2-1.545.749-2.841.996-2.293.996-2.443.15-4.038-.699-1.345-1.197-1.644-3.141-1.894-3.639-.498-3.49-.249-3.49-5.433v-4.735l1.895-.299c3.589-.598 3.838-.698 4.785-2.243.897-1.545.847-1.595-.15-4.037-.598-1.346-.947-2.692-.797-2.891.299-.549 7.128-4.536 7.726-4.536.249 0 1.296.997 2.342 2.243 1.446 1.744 2.194 2.243 3.39 2.243 1.196 0 1.944-.499 3.39-2.243 1.046-1.246 2.093-2.243 2.342-2.243.598 0 7.427 3.987 7.726 4.536.15.2-.2 1.545-.748 2.89-.997 2.293-1.047 2.543-.299 3.988.798 1.496 1.196 1.695 4.935 2.293l1.844.3v4.734c0 5.184.15 4.935-3.49 5.433-1.893.25-2.442.549-3.14 1.894-.797 1.546-.797 1.695.15 4.187l.997 2.592-1.396.947c-2.542 1.745-6.03 3.589-6.729 3.589-.448 0-1.445-.947-2.292-2.044-1.247-1.744-1.795-2.093-3.29-2.143-1.495-.05-1.944.25-3.34 2.094-.847 1.146-1.944 2.093-2.342 2.093-.449 0-2.293-.897-4.137-1.994zm13.109-10.716c4.486-2.343 4.486-9.371-.1-11.813-5.832-3.14-12.212 3.19-9.171 9.121 1.595 3.09 6.03 4.337 9.27 2.692z" mask="url(#prefix__b)">
            <animateTransform attributeName="transform" attributeType="XML" dur="2s" from="360 185 130" repeatCount="indefinite" to="0 185 130" type="rotate" />

        </path>
    </g>
</svg>
