<!--
  - Copyright (c) 2024. Devtron Inc.
  -
  - Licensed under the Apache License, Version 2.0 (the "License");
  - you may not use this file except in compliance with the License.
  - You may obtain a copy of the License at
  -
  -     http://www.apache.org/licenses/LICENSE-2.0
  -
  - Unless required by applicable law or agreed to in writing, software
  - distributed under the License is distributed on an "AS IS" BASIS,
  - WITHOUT WARRANTIES OR CONDITIONS OF ANY KIND, either express or implied.
  - See the License for the specific language governing permissions and
  - limitations under the License.
  -->

<svg xmlns="http://www.w3.org/2000/svg" width="20" height="20" viewBox="0 0 20 20" fill="none">
  <path d="M10 18.3439C9.90667 18.3439 9.8149 18.3198 9.73356 18.2741L3.75529 14.9113C3.67124 14.864 3.60129 14.7953 3.5526 14.712C3.50392 14.6288 3.47826 14.5341 3.47826 14.4376V10.6453M10 18.3439C10.0933 18.3439 10.1851 18.3198 10.2664 18.2741L16.2447 14.9113C16.3288 14.864 16.3987 14.7953 16.4474 14.712C16.4961 14.6288 16.5217 14.5341 16.5217 14.4376V10.6659M10 18.3439L10.0645 11.087M10.0645 11.087L8.18116 13.261L1.66667 9.63776L3.55072 7.46385M10.0645 11.087L3.55072 7.46385M10.0645 11.087L11.9493 13.261L18.3333 9.63776L16.4493 7.46385M10.0645 11.087L16.4493 7.46385M3.55072 7.46385L1.66667 5.28994L8.11594 1.66675L10 3.83341M3.55072 7.46385L10 3.83341M16.4493 7.46385L18.3333 5.28994L11.8841 1.66675L10 3.83341M16.4493 7.46385L10 3.83341" stroke="#000A14" stroke-width="1.5" stroke-linecap="round" stroke-linejoin="round"/>
</svg>