<!--
  - Copyright (c) 2024. Devtron Inc.
  -
  - Licensed under the Apache License, Version 2.0 (the "License");
  - you may not use this file except in compliance with the License.
  - You may obtain a copy of the License at
  -
  -     http://www.apache.org/licenses/LICENSE-2.0
  -
  - Unless required by applicable law or agreed to in writing, software
  - distributed under the License is distributed on an "AS IS" BASIS,
  - WITHOUT WARRANTIES OR CONDITIONS OF ANY KIND, either express or implied.
  - See the License for the specific language governing permissions and
  - limitations under the License.
  -->

<svg xmlns="http://www.w3.org/2000/svg" width="16" height="16" viewBox="0 0 16 16">
    <g fill="none" fill-rule="evenodd">
        <path d="M0 0H16V16H0z"/>
        <path fill="#596168" d="M8 .667c4.05 0 7.333 3.283 7.333 7.333 0 4.05-3.283 7.333-7.333 7.333C3.95 15.333.667 12.05.667 8 .667 3.95 3.95.667 8 .667zm0 10c-1.539 0-2.945.75-3.808 1.968C5.228 13.49 6.554 14 8 14c1.446 0 2.772-.512 3.808-1.363-.862-1.219-2.269-1.97-3.808-1.97zM8 2C4.686 2 2 4.686 2 8c0 1.38.466 2.652 1.25 3.666C4.37 10.218 6.107 9.333 8 9.333c1.894 0 3.632.886 4.75 2.333C13.534 10.652 14 9.381 14 8c0-3.314-2.686-6-6-6zm0 1.333c1.473 0 2.667 1.194 2.667 2.667 0 1.473-1.194 2.667-2.667 2.667-1.473 0-2.667-1.194-2.667-2.667 0-1.473 1.194-2.667 2.667-2.667zm0 1.334c-.736 0-1.333.597-1.333 1.333S7.264 7.333 8 7.333 9.333 6.736 9.333 6 8.736 4.667 8 4.667z"/>
    </g>
</svg>
