<!--
  - Copyright (c) 2024. Devtron Inc.
  -
  - Licensed under the Apache License, Version 2.0 (the "License");
  - you may not use this file except in compliance with the License.
  - You may obtain a copy of the License at
  -
  -     http://www.apache.org/licenses/LICENSE-2.0
  -
  - Unless required by applicable law or agreed to in writing, software
  - distributed under the License is distributed on an "AS IS" BASIS,
  - WITHOUT WARRANTIES OR CONDITIONS OF ANY KIND, either express or implied.
  - See the License for the specific language governing permissions and
  - limitations under the License.
  -->

<svg width="18" height="14" viewBox="0 0 18 14" fill="none" xmlns="http://www.w3.org/2000/svg">
<g id="Group 1513">
<path id="Vector" d="M5.66663 1.72336C5.22218 1.61225 4.26663 1.59002 3.99996 2.39002C3.66663 3.39002 3.33329 5.66699 2.99996 6.33366C2.66663 7.00033 2.33329 6.94397 1.66663 7.00033C2.33329 7.05668 2.66663 7.00033 2.99996 7.66699C3.33329 8.33366 3.66663 10.6106 3.99996 11.6106C4.26663 12.4106 5.22218 12.3884 5.66663 12.2773" stroke="white" stroke-width="1.5" stroke-linecap="round" stroke-linejoin="round"/>
<path id="Vector_2" d="M12.3333 1.72336C12.7777 1.61225 13.7333 1.59002 13.9999 2.39002C14.3333 3.39002 14.6666 5.66699 14.9999 6.33366C15.3333 7.00033 15.6666 6.94397 16.3333 7.00033C15.6666 7.05668 15.3333 7.00033 14.9999 7.66699C14.6666 8.33366 14.3333 10.6106 13.9999 11.6106C13.7333 12.4106 12.7777 12.3884 12.3333 12.2773" stroke="white" stroke-width="1.5" stroke-linecap="round" stroke-linejoin="round"/>
<path id="Vector_3" d="M8.99996 5C6.61901 5 5.66663 7.00022 5.66663 7.00022C5.66663 7.00022 6.61901 9 8.99996 9C11.3809 9 12.3333 7.00022 12.3333 7.00022C12.3333 7.00022 11.3809 5 8.99996 5Z" stroke="white" stroke-width="1.5" stroke-linecap="round" stroke-linejoin="round"/>
<path id="Vector_4" d="M8.99992 7.66732C9.36811 7.66732 9.66659 7.36884 9.66659 7.00065C9.66659 6.63246 9.36811 6.33398 8.99992 6.33398C8.63173 6.33398 8.33325 6.63246 8.33325 7.00065C8.33325 7.36884 8.63173 7.66732 8.99992 7.66732Z" fill="white"/>
</g>
</svg>
